<?xml version="1.0" encoding="UTF-8"?>
<svg id="Layer_1" data-name="Layer 1" xmlns="http://www.w3.org/2000/svg" viewBox="0 0 512 512">
  <defs>
    <style>
      .cls-1 {
        fill: #845a43;
      }

      .cls-2 {
        fill: #243b3b;
      }

      .cls-3 {
        fill: #0b0b0b;
      }

      .cls-4 {
        fill: #72757e;
      }

      .cls-5 {
        fill: #f3f3f4;
      }

      .cls-6 {
        fill: #b28871;
      }

      .cls-7 {
        fill: #828790;
      }

      .cls-8 {
        fill: #a87d3c;
      }

      .cls-9 {
        fill: #b4b8c3;
      }

      .cls-10 {
        fill: #a57d3d;
      }

      .cls-11 {
        fill: #a37c3d;
      }

      .cls-12 {
        fill: #855d48;
      }

      .cls-13 {
        fill: #62663e;
      }

      .cls-14 {
        fill: #835743;
      }

      .cls-15 {
        fill: #a28374;
      }

      .cls-16 {
        fill: #b5b4b3;
      }

      .cls-17 {
        fill: #5b4832;
      }

      .cls-18 {
        fill: #322725;
      }

      .cls-19 {
        fill: #5e5825;
      }

      .cls-20 {
        fill: #7a5530;
      }

      .cls-21 {
        fill: #af8d2f;
      }

      .cls-22 {
        fill: #a77d3c;
      }

      .cls-23 {
        fill: #9d8574;
      }

      .cls-24 {
        fill: #1f2e31;
      }

      .cls-25 {
        fill: #d5b19f;
      }

      .cls-26 {
        fill: #2c303a;
      }

      .cls-27 {
        fill: #38393f;
      }

      .cls-28 {
        fill: #2f5a60;
      }

      .cls-29 {
        fill: #66592b;
      }

      .cls-30 {
        fill: #a97d3a;
      }

      .cls-31 {
        fill: #b58570;
      }

      .cls-32 {
        fill: #243c3d;
      }

      .cls-33 {
        fill: #744b25;
      }

      .cls-34 {
        fill: #ddbc50;
      }

      .cls-35 {
        fill: #daba4b;
      }

      .cls-36 {
        fill: #b4b9c3;
      }

      .cls-37 {
        fill: #795421;
      }

      .cls-38 {
        fill: #383a2d;
      }

      .cls-39 {
        fill: #92604a;
      }

      .cls-40 {
        fill: #f2bfa2;
      }

      .cls-41 {
        fill: #b0826d;
      }

      .cls-42 {
        fill: #b8866f;
      }

      .cls-43 {
        fill: #1b2120;
      }

      .cls-44 {
        fill: #f0f2f3;
      }

      .cls-45 {
        fill: #502f20;
      }

      .cls-46 {
        fill: #393333;
      }

      .cls-47 {
        fill: #a67d3d;
      }

      .cls-48 {
        fill: #757747;
      }

      .cls-49 {
        fill: #80582f;
      }

      .cls-50 {
        fill: #a47c3e;
      }

      .cls-51 {
        fill: #6e2d2c;
      }

      .cls-52 {
        fill: #99762c;
      }

      .cls-53 {
        fill: #263f40;
      }

      .cls-54 {
        fill: #69481c;
      }

      .cls-55 {
        fill: #e9bfa5;
      }

      .cls-56 {
        fill: #535560;
      }

      .cls-57 {
        fill: #96a1ba;
      }

      .cls-58 {
        fill: #855f25;
      }

      .cls-59 {
        fill: #80838c;
      }

      .cls-60 {
        fill: #4a4d35;
      }

      .cls-61 {
        fill: #232b25;
      }

      .cls-62 {
        fill: #316771;
      }

      .cls-63 {
        fill: #b48672;
      }

      .cls-64 {
        fill: #636741;
      }

      .cls-65 {
        fill: #542813;
      }

      .cls-66 {
        fill: #7a7d87;
      }

      .cls-67 {
        fill: #73767f;
      }

      .cls-68 {
        fill: #6e6d73;
      }

      .cls-69 {
        fill: #765020;
      }

      .cls-70 {
        fill: #b78669;
      }

      .cls-71 {
        fill: #6e2c2c;
      }

      .cls-72 {
        fill: #b58770;
      }

      .cls-73 {
        fill: #f2f3f3;
      }

      .cls-74 {
        fill: #e2bd45;
      }

      .cls-75 {
        fill: #775220;
      }

      .cls-76 {
        fill: #b38670;
      }

      .cls-77 {
        fill: #53575f;
      }

      .cls-78 {
        fill: #a77d3d;
      }

      .cls-79 {
        fill: #645b5b;
      }

      .cls-80 {
        fill: #654d2f;
      }

      .cls-81 {
        fill: #6a717f;
      }

      .cls-82 {
        fill: #92684f;
      }

      .cls-83 {
        fill: #b6886a;
      }

      .cls-84 {
        fill: #c18f72;
      }

      .cls-85 {
        fill: #55573c;
      }

      .cls-86 {
        fill: #e1bc43;
      }

      .cls-87 {
        fill: #553111;
      }

      .cls-88 {
        fill: #9d7640;
      }

      .cls-89 {
        fill: #737782;
      }

      .cls-90 {
        fill: #7e5923;
      }

      .cls-91 {
        fill: #2d372f;
      }

      .cls-92 {
        fill: #895745;
      }

      .cls-93 {
        fill: #a97d3b;
      }

      .cls-94 {
        fill: #13100d;
      }

      .cls-95 {
        fill: #876e62;
      }

      .cls-96 {
        fill: #9f4442;
      }

      .cls-97 {
        fill: #a29775;
      }

      .cls-98 {
        fill: #2e5156;
      }

      .cls-99 {
        fill: #1d2a28;
      }

      .cls-100 {
        fill: #4b3830;
      }

      .cls-101 {
        fill: #336770;
      }

      .cls-102 {
        fill: #0c0e0e;
      }

      .cls-103 {
        fill: #b6866f;
      }

      .cls-104 {
        fill: #afb0b0;
      }

      .cls-105 {
        fill: #454528;
      }

      .cls-106 {
        fill: #4f525c;
      }

      .cls-107 {
        fill: #ae7f65;
      }

      .cls-108 {
        fill: #50515a;
      }
    </style>
  </defs>
  <path class="cls-93" d="M483,138.86l-.45,1.1c-10.64-3.47-21.23-7.15-31.76-11.04-.93,2.82-6.12.98-5.69-1.91-.57-2.07-1.27-4.33-1.19-6.99.41-14.16-2.36-27.5-3.89-40.97,1.2.45,2.34,1.21,3.51,2.54,15.49,17.57,30.2,36.18,39.48,57.28Z"/>
  <g>
    <path class="cls-37" d="M213.01,3.99c7.52,14.48,10.8,30.66,12.63,47.24.43,3.88,1.45,7.12,1.5,10.6-.4,2.18-1.47,2.75-2.76.99-3.13,0-6.2-.1-9.33-.42-.96-.1-1.24-1.23-1.04-2.36-.76-1.99.24-3.41,3.02-4.25l5.13-1.76c.73-.69-1.65-16.41-2.45-16.7-2.61-.92-21.98,6.99-25.84,9.01-8.17,4.28-15.17,9.74-21.47,16.46l-3.32,1.25c-.26,2.47-1.36,2.4-2.02-.02-.23-1.18-.4-2.49.16-3.61,6.97-13.9,36.69-26.42,51.61-29.29.43-.29-2.39-9.93-2.91-9.94-7.16-.07-24.6,11.05-31.11,15.44-9.9,6.67-20.31,17.75-23.88,29.08l-2.09,1.25c.21,1.95-3.63,2-3.75-.11,6.45-26.71,34.5-42.8,58.5-52.23l-3.67-8.25,1.19-2.12c.57.05,1.32-.13,1.88-.27Z"/>
    <path class="cls-78" d="M211.12,4.26c1.76,3.7,4.02,7.14,4.99,12.22-25.5,7.4-50.99,26.15-61.01,50.38-.36-.01-.74.16-1.1.17-.48-.38-.86-.77-.9-1.18-.65-7.54,11.26-28,16.4-34.37,8.36-10.36,19.39-22.19,32.53-25.47,2.98-.63,5.89-1.99,9.09-1.74Z"/>
    <path class="cls-47" d="M173.86,13.99l-.17,1.9c-13.53,14.67-24.58,31.64-28.78,51.38l-1.9,2.73-2.84,1.01c-.92.24-4.52.22-4.7-.44-1.13-4.02,1.5-16.76,2.68-21.44,2.21-8.72,6.1-17.4,9.87-25.05,8.19-4.19,16.89-7.97,25.85-10.1Z"/>
    <path class="cls-86" d="M125.97,75.06c-2.91.91-5.98,3.31-8.88,2.01l.03-1c-.11-11.67-.37-23.35.75-34.97,3.95-2.23,7.34-6.13,11.84-7.78l.79,1.54s-1.14,8.52-3.41,25.56c.32,5.12-.05,10-1.11,14.64Z"/>
    <path class="cls-10" d="M146.13,24.99c1.1.21,1.25.49.91,1.25-6.29,14.11-12.09,27.73-11.58,43.75l-1.23,1.74c-1.69,1.43-4.01,2.15-6.1,1.27-.63-.57-1.12-1.15-1.14-1.75-.55-12.86.94-25.98,4.04-38.39,4.69-3.16,9.84-5.76,15.09-7.87Z"/>
    <path class="cls-50" d="M191.78,8.45l-.52,1.94c-18.43,13.88-33.82,33.14-38.2,55.87l-1.06.79c-1.6,1.77-3.9,2.24-6.18,1.78-.56-.56-.98-1.09-.92-1.57,2.21-16.75,17.75-40.85,29.85-52.51,2.35-2.27,1.33-.38,1.23-.49-.21-.23-.18-.69-.06-1.23,4.83-2.7,10.6-3.09,15.86-4.59Z"/>
    <path class="cls-37" d="M202.03,6c-13.84,4.49-35.34,27.1-40.94,40.33-2.98,7.04-6.32,13.5-7.09,20.7l-1.99.03c.09-6.1,2.95-11.56,5.46-17.36,7.5-17.34,20.32-30.09,34.32-41.24,3.4-.97,6.77-1.71,10.24-2.45Z"/>
    <path class="cls-75" d="M175.93,13.04c.5-.25.87.26,1.58.6-14.53,14.1-28.73,34.78-31.68,55.2-1-.2-2.01.88-2.81,1.17,6.23-24.76,14.45-37.06,30.85-56.02.61-.14,1.51-.64,2.06-.95Z"/>
    <path class="cls-69" d="M140.17,71.02c-2.15.76-3.91-.16-5.93.7-.05-14.78,3.94-29.32,10.71-42.87.71-1.43,1.55-2.47,1.18-3.86.64-.26,1.28-.58,1.89-.9.94-.15.79.55.35,1.38-7.32,13.89-12.09,28.71-11.69,44.69.03,1.2,3.09.79,3.49.85Z"/>
    <path class="cls-90" d="M128.14,72.99c-1,.14-1.37,1.81-2.18,2.06-.3-16.85.54-25.42,3.73-41.74.41-.15.98-.21,1.34-.46.54-.41.98.36.81,1.04-3.58,12.96-4.21,26.1-3.71,39.1Z"/>
    <g>
      <path class="cls-30" d="M398.84,361.2c.87.54.92,1.84.13,3.91.77.21,1.9.68,1.83,1.23-4.58,34.53-11,72.01-19.1,106.77l-3.91,7.6-11.69,6.19c-12.06-29.33-24.37-58.48-34.87-88.8-.7-2.03-2.2-3.46-2.24-5.23-2.46-.35-5.94-7.72-3.1-9.03l-1.63-1.84c-12.64-34.16-22.78-69.1-30.43-104.81-2.14-5.93-3.02-11.99-2.63-18.17-.96-1.61-1.32-1.22-1.07,1.19l-1.16.81c1.79,4.08,2.63,8.66,2.52,13.76.15,22.38,2.28,44.75,6.39,67.12-.1,1.03-.28,1.88-.74,2.08-1.87.82-7.5-11.09-8.54-13.46-18.54-41.89-33.77-86.12-40.45-131.59-3.06-.67-3.71-3.06-1.05-4.89l-1.28-1.97c-2.54-13.38-4.47-26.78-5.81-40.22-2.6.58-2.99-2.4-1.74-4.17.35-3.97-.44-7.35-2.38-10.15-.77-4.12-4-22.73-2.87-25.51.14-.36.55-.61,1.03-.83-1.82-1.74-2.24-8.69-.05-10.22,1.62.42,1.69,2.13,2.07,3.91,3.77,17.67,9.33,34.22,16.1,50.88l12.98,31.93c2.44,6.01,3.48,12.35,7.7,17.6l.22-43.25c.08-16.52,2.95-32.15,6.67-48.41,1.65,4.58,2.7,8.53,3.8,12.86l13.79,54.15c4.35,17.09,10.81,32.49,17.11,48.86,6.23,16.2,13.46,31.15,21.36,46.6,2.78,5.43,4.57,10.84,7.99,15.9,2.68,3.97,3.46,8.73,7.03,12.15l.8-10.26-.21-20.96c-.17-16.42,4.82-53.63,7.96-70.05,2.6,5.17,2.51,9.96,3.72,15.22l17.89,77.96c2.44,10.62,5.76,20.17,8.31,30.6l7.89,32.31c.29,1.21.4,2.81,1.68,2.24Z"/>
      <g>
        <path class="cls-74" d="M272,0c40.17.29,79.87,12.98,114.89,33.64,14.43,8.52,37.82,24.1,48.17,36.77,1.32,1.61,2.16,3.5,2.7,5.51,3.01,12.28,4.82,25.54,5.23,38.28,0,.23-.37.48-.86.72.17,3.43.46,6.79.86,10.08,1.78,1.02.86,3.44,0,5,.31,4.57.64,9.23,1,14,.7,37.6,1.35,75.07,1.96,112.43l-1.11,3.67c2.12,1.08,1.41,4.09.07,5.87.15,2.67.8,4.35,1.94,5.02.03,24.57-.49,49.06-1.56,73.45-1.55,1.52-2.33,3.75-2.33,6.68l1.64,1.72c-1.05,9.74-2.34,19.45-3.86,29.14-3.17,3.04-5.68.74-7.51-6.9-1.56,16.02-4.31,31.75-8.23,47.19l-1.96,2.71c-.91,3.22-1.97,4.24-3.18,3.05-2.93-2.04-3.93-5.14-4.62-8.52-4.93-21.93-10.06-43.43-15.38-64.5-.34,2.21-.69,4.28-1.04,6.21-1.19,2.15-2.56,1.76-3.33-.52-13-49.32-24.85-98.93-35.55-148.82l-3.4,22.77c-2.45,22.94-3.67,45.72-3.65,68.36-.51,1.86-1.46,2.7-3.38,2.22-1.75-.44-9.13-14.63-10.35-17.14-28.8-52.82-45.71-109.27-58.97-166.34l-3.03,15.16c-2.1,22.56-2.88,44.97-2.34,67.22-1.84,3.02-3.23,3.12-5.2.13-17.15-42.99-25.73-64.49-25.73-64.49-4.59-12.75-7.9-25.68-9.94-38.78l-1.38-.33c-.96-8.9-2.78-17.56-5.46-26,.64-3.39.27-6.82-1.12-10.28-1.24-1.05-.42-1.89,1.11-2.52-1.88-.78-2.78-2.63-2.71-5.54,1.6-6.63-.65-16.44-3.52-22.86.67-4.55-.21-9.26-2.62-14.15-1.59-.7-2-1.82-1.22-3.36-1.68-4-3.03-7.98-4.05-11.94l.78-1.57c8.56-1.36,17.29-2.17,26.21-2.43h32Z"/>
        <g>
          <path class="cls-19" d="M446,168l2,.67v40.15l-2,1.18c1.8,14.7,2.85,29.66,3.16,44.87l-2,2.27c2.18,2.36.31,3.92-2.3,2.96l-.65-23.25-.21-92.84c-.47-.31-.45-.64,0-1-.18-2.72,1.31-2.62,2.1,0l-.36,13.91.26,11.09Z"/>
          <g>
            <path class="cls-58" d="M440.02,79.04l1.32,1.62c3.13,14.79,4.93,29.71,5.4,44.77l-1.64,1.58c1.61,1.97,1.38,2.48-1.1,3-.28.87-.62.86-1,0,0-1.66.16-3.35,0-5-.39-3.28-.67-6.65-.86-10.08l-1.34-17.8c-.54-7.21-4.31-19.43-3.03-21.21,1.01,1.03,2.07,1.53,2.25,3.13Z"/>
            <path class="cls-52" d="M327.18,134.21c.58-11.5,3.97,12.88.12,14.9-.55-4.9-.38-9.76-.12-14.9Z"/>
            <rect class="cls-21" x="331" y="138" width="2" height="10"/>
            <path class="cls-93" d="M444,143v1c-.79.08-1.02-.91-1.01-1.95v-12.05h1.01c2.88.39,2.45,9.05,2,11.65l-2,1.35Z"/>
            <path class="cls-97" d="M419.88,428c1.41-.59,2.14-2,3.18-3.05-.61,2.71-.7,5.47-1.73,8.76-2.59-2.03-.9-4.03-1.45-5.71Z"/>
            <path class="cls-54" d="M398.98,365.1l-.13-3.91c-.07-2.02-.77-4.87,1.04-6.21-.22,3.4,1.22,7.23-.91,10.12Z"/>
            <path class="cls-93" d="M443,125c-1.76,1.08-.82-9.3-.86-10.08,1.82,2.99.53,6.69.86,10.08Z"/>
          </g>
        </g>
      </g>
      <path class="cls-33" d="M288.96,261c.78-.59,1.53-1.26,2.24-2,1.19,2.64,1.75,5.9,2.32,9.27,2.78,16.52,5.79,32.42,10.61,48.43l8.59,28.57c4,13.31,9.55,25.63,13.18,38.55-.64-.51-1.81-1.33-2.69-.91l-1.94-1.02c-9.59-26.93-18.2-54.54-25.82-82.8,1.63,15.7,3.66,31.21,6.1,46.52-1.32,1.02-1.51,2.87-.56,5.54,3.01.69,1.32,4.67-1.61,4.08-.98-.2-10.08-14.51-8.33-17.21l-3.08-3.48c-20.42-40.67-33.27-85-42.42-129.52l-35.14.36c1.93,1.18,2.55,2.64,1.86,4.39,4.36.61,10.79,6,11.77,10.32,1.71,1.11,1.07,2.14-1.03,2.02-1.64-.1-21.5-14.76-22.27-16.25-.52-1-.51-1.54.43-2.63l4.97-1.19,41.54-.13c.61-.95.4-2.36.45-3.01,8.65,43.71,20.91,86.22,39.41,127.34,2.8,6.22,5.94,11.18,9.11,16.9-2.03-24.31-5.98-36.99-6.79-62.19-.22-6.97-1.41-13.5-.91-19.97Z"/>
      <path class="cls-87" d="M291.2,259c0,1.66.31,3.5-.65,5.02-.96-1.52-.78-2.56-1.59-3.02.45-5.7-.71-11.34.58-17.07.38,5.49,1.64,10.22,1.66,15.07Z"/>
    </g>
    <path class="cls-8" d="M214.01,60.05c-3.08,2.64-7.72,2.06-12.02,2.02-11.39-.11-22.2,2.08-32.9,1.99,12.4-16.04,32-25.3,52.17-28.93,1.46,7.29,3.54,13.64,2.99,20.46-4.36.99-7.59,2.2-10.24,4.47Z"/>
    <path class="cls-22" d="M167.07,64.04c-1.79,2.58-5.4,3.02-8.22,2.93-.15-7.66,11.4-21.02,17.8-26.43,11.85-10.03,24.97-17.68,40.1-21.58,1.02-.28,5.55,13.74,3.66,13.88-20.58,4.28-41.56,14.15-53.35,31.19Z"/>
  </g>
  <g>
    <g>
      <path class="cls-3" d="M366.11,486.88c-28.41,15.04-60.27,21.88-92.11,25.12h-38c-17.18-1.04-34.18-6.29-50.9-10.1l-1.93-1.58c-2.61-12.43-5.04-25.02-7.28-37.79l1.21-3.41c-.86-3.8-1.14-7.27,3.03-4.07l3.38-1.67c31.21,5.17,55.4-7.89,81.22-22.06,20.7-11.96,40.99-24.09,60.88-36.39.54-2.49,1.14-4.17,3.39-2.08l2.14.62c11.39,29.18,22.82,58.61,34.29,88.27l.67,5.14Z"/>
      <path class="cls-3" d="M501.04,328.97c-18.08,64.14-64.35,120.53-123.25,151.73,5.03-20.16,9.29-40.2,12.61-61.2l8.58-54.39c.28-3.4.58-6.78.91-10.12,2.47-1.24,8.98,27.86,9.79,31.38,3.27,14.18,5.8,28.19,10.21,41.63,1.3.56,2.36-.45,3.18-3.05,4.21-18.85,6.71-37.85,9.11-58.24l6.25,16.18c2.66-8.48,2.54-24.25,4.56-31.79.05-3.21.94-5.9,2.68-8.09l51.06-16.27c3.86-1.21,5.3-.47,4.32,2.22Z"/>
      <path class="cls-51" d="M509.73,287.94c-.67,14.08-4.93,27.66-8.69,41.03,1.27-3.11-17.67,4.39-20.74,5.31-11.75,3.54-24.47,6.83-35.85,11.34l-1.47,5.49,1.27-26.13.67-59.01.89-1.1c.23-5.2.63-6.38,5.74-4.44,19.16,7.27,38.87,15.09,56.84,25.67.6.35,1,1.05,1.34,1.84Z"/>
      <path class="cls-45" d="M452.02,258.93c.58-.55,1.35-1.18,2.03-.96,6.39,2.06,27.54,9.96,31.15,13.73.65.68,1.2,1.45,1.72,2.25,7.85,3.58,15.89,6.84,22.95,11.9-.15.66-.11,1.42-.14,2.1-8.5-4.1-16.71-8.98-25.72-12.87l-22.4-9.67c-4.35-1.88-9.02-2.7-13.44-4.61-2.63,3.38-.77,6.69-1.5,10.14-1.83-1.88.55-4.89-1.76-4.96.02-1.92-.02-3.95-.07-5.87.78-.77,1.89-1.94,2.3-2.96,1.91-1.84,4.54-.88,4.86,1.79Z"/>
      <path class="cls-71" d="M124.93,302.01c3.34-1.6,4.92.89,4.74,7.47,1.22,28.34,2.95,56.77,5.21,85.3.94.77,1.3,2,1.06,3.69,3.69-9.43,6.23-19.31,7.61-29.62.54-4.21,1.96-5.73,4.25-4.53,0,0,4.44,20.11,13.33,60.32-.82.66-1.9.81-3.22.44-.28.64-.59,1.16-1.01,1.28-1.3.37-24.16-5.41-26.4-6.05-21.52-5.39-41.52-18.69-59.71-31.22-5.98-4.12-21.38-15.15-23.39-22.26-.63-2.24,1.6-6.79,2.77-8.81,2.79-5.47,21.93-22.01,27.59-26.38,14.88-11.47,30.64-21.45,47.18-29.63Z"/>
      <path class="cls-26" d="M143.91,449.09l-1.62,1.62c-10.04-2.39-15.05-3.59-15.05-3.59-9,.83-17.46,4.49-25.38,10.96l-2.69-.25c-15.77-11.95-29.48-25.6-42.04-40.95,1.03-3.75-1.67-7.21-2.78-10.98l-9.11-31.02c-.76-2.59-.32-4.9-.2-7.02,1.31-2.8,2.8-1.71,4.49,3.28,6.64,7.12,15.46,13.86,23.5,19.57,16.3,11.57,35.78,23.23,54.98,28.96,11.08,3.03,22.12,5.39,33.13,7.1,8.17,4.09-6.53,9.75-10.13,11.04-2.76,2.11-3.5,5.79-2.22,11.03-1.16.88-2.79.97-4.88.26Z"/>
      <path class="cls-18" d="M157.91,425.08h2.26c-.51-1.2.11-1.28,1.84-.24l2.35-.78c6.96,3.13,14.62,2.58,22.97-1.65l1.64,1.67c2.13-4.6,3.5-5.3,4.11-2.1,1.15-1.96,2.53-2.2,3.83-.04,2.44-.37,6.03-.44,4.25,2.57-1.11,1.87-17.51,5.53-21.22,5.92-1.02.33-3.49,1.41-3.85,2.35-.9,2.4,2.99,16.94,4.41,20.15l-.37,2.13c-.85.08-2.82-.39-2.87.62l-.16,3.44c-4.02,1.05-4.04-3.91-1.42-6.09l-.58-4.13-2.35-.82c-.69-4.54-1.61-9.01-2.77-13.42-5.5.91-15.57,2.8-18.35,7.81.89,3.35.37,5.52-1.55,6.5.7,1.07.67,1.67-.12,1.78-1.29,2.99-6.33,1.46-6.04-1.66,9.25.73-2.09-8.75,6.62-12.37,2.18-.91,13.38-4.17,10.22-7.84-.62-.72-1.73-.66-2.85-.92l-17.05-3.9c-10.45-2.39-20.95-4.85-30.67-9.37-3.25-1.51-16.72-11.51-22.79-12.8-5.67-5.3-12.63-7.99-18.41-12.83-2.56-2.14-4.85-4.43-7.68-6.42-5.1-3.58-10.37-6.8-13.56-12.38-.73-1.28-1.3-2.54-2.7-2.41.2-3.69,2.26-7.48,5.12-9.84-2.61,14.4,1.05,13.98,10.2,21.61,11.12,9.27,25.61,18.89,38.42,25.79,3.59,1.93,6.66,4.6,10.56,6.43,12.25,5.76,25.3,8.12,38.7,11.19,2.94.67,7.32,2.04,9.87,2.04Z"/>
      <path class="cls-65" d="M129.25,301.02c.59-.7.88-.39.88.94.5.19.95.41,1.19.77,2.22,3.26,3.73,56.31,3.62,60.53-.02.59-.42,1.16-.94,1.74.55,3.95.74,7.98.56,12.1l1.53,1.3.87,8.68,6.75-33.29c2.34-2.23,4.55-.52,5.61,2.19,5.13,22.11,10,44.37,14.62,66.79l-1.92,2.06c-1.27,1.92-2.98.24-4.1.24.2.03,2.69-.1,2.48-1.05l-10.69-48.76-3.18-10.33c-2.96,3.91-2.43,8.12-3.4,12.23l-4.02,16.95c-1.4,5.92-2.57,11.37-5.49,17.3,1.36-14.46-.88-21.79-1.27-34.48-.52-16.86-1.35-33.07-2.95-49.84-.49-5.18,1.2-28.93-4.45-25.08,1.06-1.28,2.79-1.12,4.31-.99Z"/>
      <path class="cls-3" d="M143.91,449.09c2,.67,3.89,1.47,6.04,1.66,1.09.11,2.33.95,2.98,1.86,1.11,1.56,6.31,33.18,6.83,37.66l-1.72,1.78c-21.63-7.51-40.8-20.52-58.89-34.23,4.97-4.86,11.69-7.37,18.05-10.79,4.98-2.68,9.7-2.82,15.01-.4,3.7,1.69,8.13,1.27,11.69,2.46Z"/>
      <path class="cls-51" d="M175.1,448.91c.61,1.73,2.3,3.42,1.03,6.13-.92,1.96.69,3.04.98,4.08,2.16,7.86,2.77,16.1,4.47,24.52,1.29,6.34,4.05,12.18,3.53,18.26-9.54-2.18-18.05-6.73-27.05-9.85l-5.14-28.93c-.79-4.47-.96-8.75-2.96-12.36.02-.59.05-1.19.12-1.78l1.97-.66c6.33,2.6,13.14,3.76,20.42,3.49.48-1.55,1.36-2.51,2.63-2.89Z"/>
      <path class="cls-26" d="M325.9,383.82c.86,3.05,3.04,5.75,3.1,9.03-1.73-.35-.71,2.79-1.75,3.42l-29.83,18.13c-14.82,9.01-26.37,16.39-42.03,23.86-17.97,8.58-17.33,11.23-37.76,15.85-12.52,2.83-25.32,2.24-37.5.94-1.87-.77-2.89-3.85-3.26-5.84l-1.51-8.1c-.53-2.86-2.87-7.67-.4-10.09,4.1-4.01,10.51-2.99,15.55-4.57,3.06-.96,5.5-3,9.49-2.85-.38-2.65-2.09-1.04-3.09-1.68l1.42-2.25c1.66-.76,12.54-4.59,13.66-4.68,1.6-.12,2.57.29,4.12.99l3.62-2.82c32.31-9.59,63.97-19.05,95.29-29.53l1.99,1.44c.62-3.03,3.85-4.42,6.19-2.17.47-2.14,1.37-1.84,2.69.91Z"/>
      <path class="cls-96" d="M175.1,448.91c-.22,1.17.35,4.39-.99,4.94-5.92-.19-21.79-.64-24.04-4.88.28-2.66-1.18-5.88.05-8.76s18.18-8.52,21.09-7.73c2.71,5.61,2.09,11.3,3.89,16.43Z"/>
    </g>
    <g>
      <path class="cls-99" d="M108.05,184.19c1.04,1,1.57,2.63,1.6,4.89,5.24,3.48,6.41,5.74,3.5,6.78-.5,1.14-1.9,1.89-4.21,2.26l.43,2.59c-2.77,10.5-4.25,21.45-4.44,32.86l-.93.53,1.77,2.82c-.84,11.59,1.82,23.06,8.45,32.69l16.47,22.99-.79,2.33c1.92,3.58,1.7,5.61-.66,6.1-.1,1.54-1.03,1.67-2.79.38l-1.52.6-4.56,4.56c-25.31,13.61-49.26,30.31-67.74,51.26l-2.47.18-1.91,4.36c-.22,3.12-1.29,4.95-3.21,5.48,4.79,15.59,9.55,31.3,14.3,47.15l-2.22,1.87c-1-.42-1.98-.87-2.89-1.45s-1.72-1.14-2.34-1.89C21.05,376.18,1.74,323.86,0,276v-2l1.08-2c4.77-.21,9.47.01,14.08.68,2.81-4.26,6.77-7.54,11.87-9.85-6.52-3.38-7.99-7.62-4.38-12.7l-3.41-17.05c1.42-2.32,3.87-3.34,7.36-3.06,5.92-7.23,8.97-16.28,9.17-27.15,1.93-3.22,5.11-5.54,9.53-6.96,3.92-4.85,9.22-11.13,14.12-3.61-.62,7.75,1.33,11.01,5.87,9.76,8.37-5.19,17.57-8.71,27.58-10.57,4.17-2.1,8.15-4.53,11.95-7.29-1.62-1.81-.57-2.52,3.15-2.14,2.81-.19,2.65,1.34.07,2.13Z"/>
      <path class="cls-60" d="M508.07,214.11c.58,5.67,3.08,11.45,2.82,17.9-.09,2.29,0,4.59,1.11,5.99v37c-1.02-.99-1.01,6-2.12,10.84-.68.2-1.31.31-1.79.08-6.29-2.93-14.29-6.97-20.31-10.38-.45-.25-.68-.87-.86-1.6l.16-22.32c2.68-6.33,2.8-11.81.34-16.44l.7-2.14c-3.21-3.75-2.73-6.92,1.95-9.02l1.15-17.23c.27-2.77.64-5.73,3.72-3.89l2.01,1.12.18,15.1c3.28-2.57,6.56-4.56,9.84-5.98l1.09.96Z"/>
      <path class="cls-2" d="M104.84,184.2c-.08,1.82-1.26,3.35-3.16,4.61-20.14,13.3-19.3.8-31.22,12.73-1.91,1.91-8.37,2.94-10.4,1.33-2.35-2.67-.7-7.71-3.06-10.9-1.03-1.39-4.9-1.67-6.07-.18-8.56,10.88-14.44,6.85-14.61,16.73-.14,8.49-1.62,17.48-8.67,23.19-1.48,1.2-4.78-.43-6.73,1.72,1.96,4.11,2.25,8.46,2.85,12.97.3,2.25,1.9,4.05-.15,6.25-1.06,1.15-1.24,2.98-.78,4.16,1.1,2.81,5.61,2.45,6.14,5.68s-7.3,4.85-9.27,7.21c-1.31,1.57-1.88,3.54-3.17,4.46-1.91,1.36-3.48-.1-5.73-.11l-10.82-.05v-3c.32-1.9.76-3.61,1.31-5.13l.75-2.2c4.38-2.39,8.45-4.99,12.2-7.81,1.2-4.54,1.21-9.24.05-14.13,2.33-2.91,2.06-5.5-.83-7.77-.92-3.96,1.07-7.16,5.95-9.62,7.51-6.77,14.72-14,13.98-24.91,1.62-3.7,5.07-5.52,10.36-5.46,2.9-4.15,6.41-6.61,10.54-7.4,7.26-1.15,10.22,2.86,8.9,12.04,0,0,6.25-2.13,18.75-6.38,6.41-4.99,13.43-8.3,21.05-9.91l1.85,1.88Z"/>
      <path class="cls-101" d="M3,237.11c1.82.97,2.89,3.26,2.94,5.36.03,1.33-2.64,9.06-3.41,10.79-.26.57-1.67.22-2.52-.26v-17c3.22-18.83,5.17-38.01,11.83-56.05l2.27.71c.07,6.79,1.08,13.05,3.05,18.79,1.87,2.3,5.83,8.96,5.43,11.66-.66,4.41-10.24,9.36-14.51,9.84.97,3.57.54,7.38-2.88,9.52-3.04.2-2.91,4.23-2.19,6.64Z"/>
      <path class="cls-98" d="M1.31,265.87c.05,1.7.1,4.09-1.31,5.13v-18c.54-.16,1.27-.98,1.16-1.92-.31-2.78,1.74-4.19,2.56-6.37,1-2.65-1.23-5.25-.73-7.6l.1-1.15c18.55.87,13.99,18.28.98,25.13-.66,2.16-1.58,3.75-2.77,4.78Z"/>
      <path class="cls-32" d="M107.98,182.06l-3.15,2.14c-8.82.16-16.17,6.8-23.28,9.07-5.89,1.88-11.43,3.14-16.21,7.22-.71.6-2.13.36-2.72.35-3.7-.12,1.57-9.03-3.65-12.84-3.28-2.39-9.79-.17-11.59,3.23-4.57,8.64-7.02,1.86-12.15,6.5-1.66,1.51.09,15.54-8.13,21.92-3.31,2.57-5.17,5.67-8.49,7.86-1.32.87-2.61,1.53-3.08,2.55-.58,1.26-.83,2.9.41,4.08,5.72,5.44-2.07,5.64.34,12.55,1.29,3.7,1.28,8.21-1.14,11.54-1.32,1.82-4.42,1.4-5.9,3-2.34,2.53-4.89,4.15-7.95,4.64-.05-1.93-.73-3.84.91-5.71,3.08-3.51,8.09-5.44,10.29-9.22s1.81-9.81-1.85-11.18c-3.08-1.15-5.91-1.21-7.56-3.8-1.2-3.25.07-5.57,3.82-6.95l3.43-7.81c7.14-3.98,13.68-8.83,19.61-14.55-1.06-9.34,2.85-15.71,12.99-15.81,1.05-6.41,20.17-8.88,23.3-6.92,3.33,2.09,1.34,6.85-.02,9.56,0,0,4.51-1.1,13.54-3.3,5.99-6.48,12.88-10.48,20.66-11.98l4.41.67c1.55-6.23,1.58-12.73.08-19.5l2.08-1.37c0-1.71.35-3.64,1.22-5,.81,6.97,4.02,22.93-.23,29.06Z"/>
      <path class="cls-48" d="M484.8,141.97c5.53,9.26,9.34,19.59,12.8,29.82.17,4.06-.03,8.16-.6,12.31,2.95,1.18,1.12,9.58-1.98,9.81-1.2,6.1-3.09,8.78-7.82,2.42-1.04,3.38-2.5,6.56-4.37,9.54,10.15-8.67,9.87,6.99,6.04,13.54-6.55,6.03-9.22,12.25-8,18.67-.75-7.14,3.39-15.55,7.26-5.04,6.7,6.25.95,15.24.94,19l-.07,20.83c0,.97-1.67,1.04-2.07,1.07-10.58-4.82-21.2-9.52-32.64-13.43-1.06-.36-1.66-1.31-2.27-1.59l-2.08-1.25c.63-8.27.97-16.54,1.01-24.83-2.63-7.47-4.28-15.09-4.96-22.85v-42c-1.09-11.77-.4-23.27,2.04-34.5l1.94-1.22c1.3-.4,2.34-.95,3.13-1.64,9.93,2.6,19.72,5.7,29.37,9.3l2.31,2.04Z"/>
      <path class="cls-38" d="M499.62,177.8c3.99,11.8,7.17,23.98,8.44,36.31-5.06,2.27-5.9,5.82-13.01,7.92l-.11-19.12c-2.66-1.26-2.63-4.26.07-9.01l1.98-9.81c.25-2.57.62-4.97,1.13-7.19l1.49.89Z"/>
      <path class="cls-29" d="M483,138.86c.38.86,1.28,2.26,1.8,3.12l-25.91-8.79c-3.1-1.05-6.07-1.58-8.9-.9-.9-2.51-.49-2.76,1.79-1.94.84.3-2.31,1.22-.99-1.42,7.92,1.02,15.39,4.31,23.3,6.96l8.91,2.98Z"/>
      <path class="cls-85" d="M497.59,171.79l2.03,6.01c-2.09-.63-.61,4.9-2.62,6.3l-.85-10.1c-.1-1.22.54-2.32,1.45-2.21Z"/>
      <path class="cls-43" d="M117.11,76.06c.87.31.84.64-.03,1l.02,2.35c-2.17,1.34-5.45,2.18-7.68,4.05-7.23,6.1-.34,17.82-.69,29.58l-.66,21.86c-1.22,4.15-1.45,4.87-3.4.71-2.11-4.47-8.55-.72-9.89,2.87-1.33.96-11.18,6.24-11.85,6.33-8.77,1.14.62-11.81,2.82-14.62.32-5.79-1.87-6.03-6.58-.71-2.8,1.4-5.21,0-7.24-4.21-2.89,1.69-5.8,2.53-8.73,2.52l-2.15,1.27c-12.89,9.64-25.89,19.29-38.98,28.94-1.65,1.4-2.02.36-1.11-3.12,3.46-10.72,10.14-19.96,15.3-29.8,3.36-1.8,6.93-3.38,10.7-4.73.44-8.73,9.89-12.38,17.4-13.65,9.58-5.44,18.92-11.33,28-17.7,8.44.85,10.88-4.46,13.05-11.5,2.46-1.73,4.72-3.61,6.78-5.66l1.45-21.78c.79-.84,1.9-1.16,2.82-.47-.25,8.86-.04,17.68.63,26.46Z"/>
      <path class="cls-61" d="M117.86,41.09c.8,1.49,1.55,3.07,1.62,4.79.21,5.23.28,24.61-1.06,27.84-.34.82-.81,1.59-1.31,2.35-2.67-1.34.06-22.78-1.58-26.15l-1.16,21.33c-.21,3.81-5.97,5.52-7.87,8.03-1.14,6.94-5.31,12.61-13.46,11.5-5.12,5.57-12.78,7.71-18.42,11.95-14.82,11.16-7.83,1.61-23.18,11.58-2.61,1.7-1.39,5.82-3.21,7.7.36-.37-11.66,5.8-11.95,3.09,3.42-6.52,8.49-11.91,12.15-18.03,5.95-4.92,11.77-10.05,17.46-15.39,5.4-2.39,22.29-12.3,5.83-6.42-2.49.65-4.51.59-3.62-2.34,14.31-16.07,30.93-31.16,49.77-41.82Z"/>
      <path class="cls-91" d="M48.42,107.06c5.44-9.12,12.71-16.34,19.67-24.15,1.31,3.04,14.32-5.62,12.95-.17-1.69,6.73-10.21,7.27-14.28,10.8s-6.41,7.49-11.68,9.62c-2.36.95-3.87,4.38-6.65,3.91Z"/>
      <path class="cls-13" d="M495.02,193.91l-.07,9.01c-3.04-.34-1.32,16.75-3.19,22.63-4.3,1.01-4.3,4.31-3.62,7.5-1.15-1.08-2.15-2.34-4.06-3.26-2.34,3.16.8,10.47-3.6,10.33s-1.45-10.27-.2-12.93c2.71-5.78,10.39-7.1,8.9-21.38-4.3-3.59-6.92,7.74-9.98,5.99-.2-4.93,3.17-8.46,4.96-12.74,5.13-12.31.57-29.18,5.24-26.17,4.85,15.04-5.36,18.78,2.39,25.63l3.23-4.61Z"/>
      <path class="cls-64" d="M452.02,258.93c-1.65-.54-3.66-.4-4.86-1.79.17-5.54-1-11.16-1.02-17.17l-.13-29.97c.96.07,1.33,1.77,1.05,2.84-1.01,3.89,4.04,11.48,5.16,15.89,2.89,11.37-1.42,22.2-.19,30.2Z"/>
      <path class="cls-105" d="M450.79,128.92c.49.89,1.63.83,2.28,1.75-1.34.59-2.95.67-3.08,1.61.47,4.58-2.16,8.81-2.77,13.62-.7,5.55-1.45,17.27-1.22,22.1,0,9.7-1.59-33.13-2-25v-13c0-1.15.32-2.24,1.1-3l5.69,1.91Z"/>
      <path class="cls-24" d="M108.07,134.91c-.18,5.97-.55,12.14.14,18.09.68,1.88-.94,3.46-1.22,5l-.5-2.24-3.53-8.78c2.56-.35,2.52-.6-.1-.73l-1.28-9.3c-4.01.47-4.38,2.55-1.13,6.25-.29,5.34-6.66,5.13-8.61.83-2.27.16-4.41,2.42-6.41,6.76l-1.89.04c-.77-2.77-4.56-3.56-6.56-1.66-3.72,1.43-2.32-.45-6.82-2.14-3.44-1.99-3.86-5.2-1.1-8.06.46-3.66.69-8.45-3.18-10.29-1.24-.59-3.45-.18-4.83.37-.18-2.3,2.58-1.71,4.22-2.56,2.55-1.33,4.47-3.58,7.56-3.43l4.02,5.75,7.81-6.69c2.02,2.67,4.37,6.71,2.59,9.42l-6.14,9.31c-.71,1.08.59,2.27,1.41,2.27.45,0,.74-1.37,1.21-1.52,13.96-4.35,12.1-10.4,19.85-9.15,1.99.32,1.95,2.58,2.66,4.55l1.82-2.12Z"/>
      <path class="cls-30" d="M188.97,424.08c-8.75,1.89-17.29,8.2-26.95.76-.01-4.49-1.26-8.85-2.35-13.51l-4.15-17.72-6.39-30.88c-.67-3.24-1.17-6.46-3.66-8.75l-6.12,31.35c-.67,3.42-1.29,6.64-3.2,9.84-2.51-10.53-2.11-20.31-2.15-30.16l.95-1.14c-.58-15.79-.08-32.26.86-48.35.06-1.09.36-2.17.71-3.26s.84-2.19,1.36-3.25c.78.59,2.54.17,3.18,2.12l4.21,13.01c8.92,27.57,12.24,38.67,36.51,63.11,2.53,2.55,5.76,4.66,6.13,8.74.68,7.58,3.8,25.35,1.06,28.1Z"/>
      <path class="cls-41" d="M198.95,402.05c2.38-.92,4.69-.11,6.94,2.43,3.68,2.73,9.75,7.22,10.23,11.51-6.53,1.28-12.5,5.14-19.2,5.94-1.35.16-2.72,1.21-3.83.04-1.74-4.68-2.47-19.39-2.63-25.28,4.35,1.65,6.52,8.29,8.5,5.35Z"/>
      <path class="cls-35" d="M137.88,308.99c-.09,14.17-.53,28.31-1.92,42.95-.84,8.87.98,17.23-.37,26.16-1.64.14.66-14.28-1.59-13.1-.03-7.96-1.16-16.02-1.65-24.41l-1.59-27.52c-.23-3.93-1.3-7.51-.64-11.1.15-.48.23-1.18.64-1.43,2.6,3.01,4.23,6.27,7.11,8.46Z"/>
      <path class="cls-32" d="M106.5,155.76c-3.49-3.83-5.23-8.51-10.58-7.55-1.61.29-3.87-.56-4.97-3.81-8.3,11.11-.47,9.72-2.84,12.23-1.14,1.21-3.79,3.61-4.76,1.65-1.29-2.64.46-5.54-.57-8.01-.93-2.24-4.09-1.73-5.79-1.08,1.98-4.1,6.06,1.24,8.99-.71,1.58-1.05,1.53-4.65,3.66-5.42,4.61-1.68,2.65,3.35,6.73,2.84.9-.11,2.79-1.47,2.14-2.58-.97-1.67-3.04-2.55-2.25-4.61.47-1.22,1.31-2.71,3.01-3.38,1.58-.62,3.16-.56,4.33.55-.43-.4,1.52,11.39,1.29,10.63.95,3.19,3,5.96,1.6,9.25Z"/>
      <g>
        <path class="cls-28" d="M95.92,148.22c4.51-5.11,10.14,2.53,10.58,7.55.75-.32.92.43.5,2.24-.73,4.03,3.53,14.2-1.06,24.12-2.06-2.14-4.04-2.13-6.51-1.79-11.68,1.62-14.28,10.98-20.49,12.22-3.83.77-7.38.09-10.59,2.82-1.17,1-3.06.43-3.65-.42-1.9-2.77,2.98-5.43.9-8.93-.92-1.55-2.88-.53-4.79-.27-4.51.6-9.64-.56-13.27,2.81-1.65,1.53-2.62,4.64-5.49,4.45-3.54-.24-5.64,1.11-7.68,2.96-2.32,2.09-2.98,4.71-2.25,7.99.93,4.16-1.86,4.95-4.21,6.93-5.19,4.39-9.7,9.27-16.25,11.7-6.95,17.61-6.89.91-8.57,13.39-.05.38-.02.78-.1,1.15-1.6-1.3-1.72-5.32.33-6.6,7.38-4.63-.81-10.55,5.23-11.75,5.08-1.01,9.11-3.77,12.25-7.81-1.52-2.18-1.25-5.11-2.83-6.96-8.07-9.47-3.29-14.68-6.16-24.03,2.44-6.6,3.41-13.95,7.17-20.05,11.56-8.11,23.2-16.66,34.91-25.67,9.96-9.33,19.86-2.84,11.32,8.43.55,2.88,3.08,5.33,7.58,7.35.25,3.54.88,4.87,1.89,3.98,3.38-7.44,9.15-4.68,7.47,2.91,1.4,6.64,5.18,3.74,11.32-8.73l2.43.05Z"/>
        <path class="cls-53" d="M69.08,138.99c-2.49,3.28-2.37,5.52,1.1,8.06,2.1-1.34,4.37-.62,6.82,2.14,2.41-2.18,7.5-.41,8.09,2.27,1.46-3.01,3.48-5.63,6.06-7.88,1.54,1.79,3.13,3.34,4.78,4.65-2.4,3-7.79,13.7-11.44,13.76-1.12.02-3.45-.64-3.34-2.09l.53-6.75c.1-1.31-1.23-2.29-2.19-2.32-2.72-.08-1.68,4.81-4.88,5.3-1.59.24-3.27.08-3.26-2.06.01-1.7.61-3.34-.5-4.36-.99-.91-5.54-2.53-6.56-5.45s6.78-6.62,1.95-11.95c-1.88-2.07-4.71-2.7-7.59-.37-2.24,1.81-5.31,3.29-7.35,5.38-5.59,5.73-11.77,9.54-18.67,13.5-5.77,3.31-14.59,13.29-13.65,9.1.76-1.23,1.52-3.59,1.98-5.01-.95,5.65,5.08-1.31,10.56-5.29l18.05-13.14c3.83-2.79,7.29-5.71,11.48-7.39,4.16-2.96,7.83-2.77,9.76,2.72.88,2.49,1.24,6.53-1.75,7.2Z"/>
        <path class="cls-62" d="M40.37,181.24c-6.29-.93-11.63-2.83-16.72-6.08-2.18-1.39-4.42-6.25-3.18-8.69,2.13-4.21,6.58-6.39,10.25-8.67,2.58-3.43,5.68-5.69,9.11-8.07l9.35-6.49c2.69-5.35,8.55-8.2,14.48-6.86,1.21,3.47-1.35,6.63-4.39,7.88-3.81,1.56-3.81,4.34-5.91,7.49l-5,7.53c-4.06,6.1-4.49,14.09-7.99,21.97Z"/>
        <path class="cls-32" d="M70.18,147.04c-1.78-.67-3.88-1.61-4.27-3.62-.42-2.13,1.41-3.59,3.18-4.43-.37,2.94-1.19,5.78,1.1,8.06Z"/>
      </g>
      <g>
        <path class="cls-55" d="M127.73,236.27c-.51,1.44-2.04,1.85-3.46,1.76-1.29-1.78-1.95-4.22-1.99-7.32-1.47-6.6-3.71-14.83-8.92-18.79-1.64,1.79-3.02,3.79-4.14,6-3.93,8.82-.15,16.34-5.22,16.17.5-4.78-1.48-30.27,4.94-35.97,4.72-2.66,6.6-.14,8.98,3.88.71-.24,1.31-.37,1.53-.14,1.06,1.1,8.76,27.38,8.84,29.28l-.57,5.13Z"/>
        <path class="cls-72" d="M179.95,201.9c4.26.76,5.98,2.15,5.17,4.17l-.92,1.99c-17.33-.14-34.72-.36-52.18-.65l-.16,8.35-2.03,1.32c-.78.48-.78-.22-.78-1.38v-12.6c0-1.02-.13-4.08.92-4.24l49.98,3.03Z"/>
        <path class="cls-20" d="M201.17,203.24c-.58,2.2-3.05,2.96-7.41,2.26,6.68,4.22,13.56,7.98,20.64,11.29,4.04,3.57,8.23,5.38,12.59,5.42,2.26-2.34,10.17,4.13,9.05,7.05.83.85.79,1.37-.14,1.55-2.51,1.48-5.72,1-9.64-1.42l-4.36-3.22c-1.85,1.61-5.62-.88-5.91-3.08-5.27-1.28-11.1-3.96-16.21-6.6-3.6-1.86-9.52-4.97-10.79-8.5-1.95,1.29-4.66.92-3.89-1.91-1.44-1.76-3.95-2.18-5.17-4.17,6.78.41,13.61-.97,20.64.45l.59.89Z"/>
        <g>
          <path class="cls-31" d="M124.27,238.03c.02-2.45,1.53-2.5,3.46-1.76.35-.84.67-.8.96.09l1.61,3.01c2.16,22.45,5.63,44.39,10.4,65.82l-.85.82c.03,1.15-.57,2.12-1.21,1.74-3.74-2.24-8.2-8.71-8.75-12.82l-16.53-23.04c-8.31-11.58-10.78-24.29-9.37-37.79,1.48-4.28,2.27-9.04,2.38-14.28.21-1.59,1.17-1.99,2.84-1.89l.85-.19c.08-1.69,2.91-7.74,4.11-6.29,5.63,6.83,11.88,25.75,7.12,33.7-.22.36,1.32-8.15,2.96-7.11Z"/>
          <path class="cls-14" d="M131.06,235l2.28,3.14c1.56,23.02,5.79,45.05,10.48,67.35l-1.74,1.54c-.74-.24-1.44-.86-2.21-1.02l-3.1-16.77c-1.28-6.92-3.72-13.52-4.27-20.68-.85-11.04-2.15-21.63-3.8-32.2-.26-1.64.34-3.81.76-5.43,1.11,1.68.16,3.42,1.6,4.06Z"/>
          <path class="cls-14" d="M117.03,265.21c5.68,2.05,5.56,7.55,8.97,10.98.01,1.74,3.85,3.83,4.06,2.14,1.15-9.6-12.21-14.93-5.66-29.62,1.89,4.49-1.03,8.98.95,12.98,2.08,4.2,11.64,16.19,5.62,19.76-5.18,3.08-10.95-11.62-13.94-16.24Z"/>
          <path class="cls-1" d="M124.27,238.03c-1.85,3.68-1.8,8.57-3.35,13-2.51-4.76,1.11-9.23,1.11-14.04-.01-8.61-3.74-16.88-8.09-24.17-2.6,1.92-2.92,4.53-3.8,7.22-1.25-.55-.62-1.5-.91-2.12,1.21-2.71.65-6.68,4.32-8.91,7.09,7.94,9.53,18.73,10.73,29.02Z"/>
        </g>
        <path class="cls-76" d="M323.2,382.91c-1.99.95-4.11,1.47-6.19,2.17.2-.93.7-2.11.11-3.27-6-11.88-11.29-23.58-15.7-36.03-1.27,2.09.34,3.82-.44,5.37-1.76-3.38-1.42-7.62-2.14-11.92-3.55-21.1-6.92-41.63-6.53-63.49,6.93,34.9,16.4,63.95,28.42,97.61,1.2,3.37,2.86,6.42,2.47,9.56Z"/>
        <path class="cls-11" d="M201.17,203.24c1.57,2.39,4.4,3.68,6.84,5.71l13.69,11.35c.53.44,1.15.58,1.74.69.41.07,1.11-.28.58-.9.92.66,2.1,1.44,2.96,2.11-1.15-.19-2.62,1.82-3.97,1.18l-21.72-10.97c-5.02-2.54-9.19-5.73-14.05-8.82,5.51-1.26,9.94.6,13.91-.35Z"/>
        <path class="cls-6" d="M216,223.08c.42,1.37.41,2.33-.97,2.59-14.87-5.73-31.1-10.85-47.03-11.67-.71-.16-1.63.11-2.49.04-.6-.05-.75-1.79-.33-1.97.37.53,28.03-1.84,23.83-4.09,1.74.85,3.39,1.32,5.27,2.65,6.36,4.48,13.19,7.71,20.28,10.93.83.38,1.19,1.06,1.44,1.52Z"/>
        <path class="cls-63" d="M235.91,230.8c3.53.68,6.27,7.75,7.07,11.25.05.23-.39.56-.98.94-3.27.75-16.02-2.79-17.88-6-3.34.45-7.3-4.21-4.87-7.1,1.66-.44,2.55-1.68,2.66-3.73,4.9.79,9.24,3.37,14.01,4.64Z"/>
        <path class="cls-12" d="M216,223.08c1.74-.28,4.8,1.55,5.91,3.08l4.99,6.84c-2.67-.85-5.75-1.63-7.65-3.11-1.4,1.19-2.94.72-4.64-1.41-2.17-.9-3.68-2.02-4.53-3.37-2.7.14-5.44-.49-8.24-1.88-3.38-.49-5.99-1.57-7.83-3.26l-26.01-5.97c4.56-4.32,38.06,7.09,45.37,9.71,1.4.5,1.87-.51,2.63-.63Z"/>
        <path class="cls-73" d="M182.84,232.05l.87.94c-9.97,19.46,16.8,33.74,25.86,13.14l1.26-.13c1.43-3.85,3.05-2.36,5.46-.11,1.97,1.83,6.74,9.37,3.85,11.27-.41,1.92-2.79,1.99-4.1,2.92-11.24,4.45-23.81,5.99-35.24,2.03l-.65-.15c-4.65-3.24-8.76-7.08-12.31-11.53-3.03-2.93-3.96-5.7-2.8-8.33-2.85-6.2-1.43-8.07,4.07-11.21,3.27-1.87,9.85-4.21,13.25-2.42,2.02,1.06,2.01,1.7.48,3.57Z"/>
        <path class="cls-94" d="M216.12,232.97c2.57-1.21,4.59,1.61,2.93,3.94,1.14,1.97,1.55,3.08-.85,2.08-1.58,2.61-6.72-1.63-5.34-4.23-.8-.55-2.19-.84-4.18-.87l-5.64-4.98c-4.68-1.43-9.62-2.01-14.82-1.73.11-.68.13-1.26-.14-1.49-2.19-1.87-21.33-1.3-25.23-.69-1.93,3.18-1.5,6.8,1.29,10.87l.92,6.25c2.87,6.28,7.96,11.58,13.3,16.5,1.17,1.08,2.02,1.97,1.81,3.36-21.49-5.05-35.1-41.97-28.17-41.86,13.28-1.49,26.8-.76,39.97,1.37,9.81,1.58,17.59,3.1,24.16,11.49Z"/>
        <path class="cls-16" d="M212.86,234.76l5.34,4.23c2.58,1.48,4.23,4.15,4.95,8,1.77,1.32,3.04,3.31,3.83,5.97-1.28,2.6-4.19,4.36-6.84,4.2-.81-2.18-5.78-14.26-9.32-11.16-.84-1.02-1.06-2.6-.66-4.74-1.66-7.57-.77-9.74,2.69-6.51Z"/>
        <path class="cls-25" d="M210.08,225.11c3.11,1.66,6.37,2.6,9.17,4.77.75,2.86,3.43,4.6,4.87,7.1-.76-.09-1.61.1-1.98.78s-.36,1.52-.28,2.24c-1.94,1.4-2.89-1.05-2.8-3.09-.69-1.39-2.36-2.56-2.93-3.94-.79-3.11-3.42-5.14-7.16-6.39-1.53-1.19-.5-2.01,1.12-1.46Z"/>
        <path class="cls-104" d="M162.84,224.99l19,.09c2.12.01,3.91.61,6.23,1.22-1.76,2.28-3.39,4.04-5.23,5.75-.11-4.31-12.17-1.81-17.43,4.32-1.48,1.72-.66,4.15-.37,5.73-1.76-3.87-10.06-17.15-2.2-17.11Z"/>
        <g>
          <path class="cls-40" d="M185.11,206.07l3.89,1.91c2.22,2.56,0,4.09-6.68,4.59-4.84-.45-9.66-.3-14.45.46l.13.96c7.89.32,18.18,1.94,25.64,4.63.25.09.33.65.37,1.34.79,1.14.74,1.74-.45,1.63-13.74-2.38-27.88-2.84-41.57-1.49.73,18.06,13.61,32.51,28.17,41.86.22-.86.43-.78.65.15,11.65,3.97,23.92,2.4,35.24-2.03-.53-2.75,1.79-3.56,4.1-2.92,1.02-2.32,4.31-4.32,6.84-4.2-1.24-2.29-2.29-4.61-3.15-6.96-1.63-.96-4.25-4.95-1.98-6.01-2.39-3.29-.91-6.26,2.27-3.01,2.38-.21,5.03.53,7.97,2.23,2.85.93,5.76,1.61,8.73,2.06l1.18,1.71c.72-.07,1.28-.13,1.26-.19-1.09-5.09-4.03-9.78-7.21-13.53l-9.05-7.05c-2.2.22-3.48.32-2.96-2.11-4.25-3.06-8.4-6.37-11.77-10.32-.57-.67-1.14-1.52-1.15-2.44,0-2.35,28.29.08,30.34,1.16,1.43.76,1.6.91,2.53,2.22,9.7,44.71,24.03,89.49,43.74,130.7.21-2.39.42-4.73,3.32-3.39,2.5,5.34,6.8,9.87,8.79,15.9,1.61-.91.73-1.95,1.15-2.77-1.4-4-.28-9.31,3.22-3.52,9.85,22.29,14.77,33.43,14.77,33.43.93,1.75.28,3.09-1.96,4.02l-20.18,6.75-42.28,12.96c-13.12,4.02-25.5,8.66-38.44,11.19-5.74-4.61-10.84-10.25-17.17-13.94-14.5-13.34-27.66-28.13-39-44.77-6.13-9-8.79-19.12-11.88-29.31-2.19-7.22-4.63-14-5.99-20.94l-7.87-40.1-1.07-13.01c-.54-6.5-1.65-12.84-2.07-18.92l-1.23-17.92.23-11.99c7.83-.41,15.09.64,22.89.71l32.16.27Z"/>
          <g>
            <path class="cls-49" d="M139.87,306.01c.4-1.71,1.13-1.37,2.21,1.02l2.59,2.5c6.8,29.8,17.84,54.81,41.03,76.59,5.58,4.73,10,10.04,13.25,15.92.51,5.25-4.27,1.22-6.33-.87.18,6.26.81,12.45,1.9,18.58l-1.44,2.22c-.39-.41-1.28-.4-1.68-1.02-.34,2.33-1.17,2.85-2.43,3.12-1.3-.91-1.6-2.52-.9-4.81-.17-8.55-.6-19.94-4.35-27.4-25.09-21.02-36.35-49.51-44.26-80.11l-1.57-2.76-2.39.6c-2.28-2.33-4.07-4.87-5.37-7.63-.79.19-1.17-.17-.88-.94.43-2,.8-4.05.66-6.1,1.73,2.42,8.09,13.31,9.96,11.08Z"/>
            <path class="cls-103" d="M291.05,338.02c-1.55.85-1.08,2.89-1.16,4.97l-.1,2.39c-.22,5.3-7.74-10.44-7.92-10.88l-17.74-44.59c-4.74-11.93-8.46-23.27-11.52-35.72l-10.72-43.64c-2.81-.17-33.38-4.75-29.62-.77-1.88-2.2-5.07-3.31-6.74-6.34l41.79-.43c8.81,46.99,23.65,92.13,43.73,135.01Z"/>
            <path class="cls-82" d="M242,242.98c-1.68-4.19-2.15-9.17-6.08-12.18l.14-1.55c1.8,1.4,4,3.04,5.15,5.53,2.81,6.08,5.55,12.25,5.54,19.57-2.38-3.72-3.24-7.61-4.75-11.37Z"/>
            <path class="cls-107" d="M296.75,372c-22.31-1.1-42.61-2.68-63.45,1.05-.69-.89-1.02-2.26.29-2.43,14.22-1.77,28.48-3.71,42.8-1.89,6.86.87,14.28-1.24,20.36,3.26Z"/>
            <path class="cls-15" d="M194.01,219.97c5.42.85,11.23,2.57,16.07,5.14-1.2.53.05,1.47,3.76,2.83,3.74,1.89,4.5,3.56,2.29,5.02-8.71-8.21-22.08-11.07-34.6-12.5-10-1.15-19.85-.21-29.54-.35-.31-.7,1.04-1.15,2.01-1.15l26.02.13c4.8.02,12.68,3.45,13.99.88Z"/>
            <path class="cls-23" d="M216.04,260.09c-9.44,6.72-22.23,6.39-33.9,3.68-1.02-.24-2.27-.66-1.35-1.65,1.47-1.35,3.01-.08,4.84.27,13.6,2.66,19.47-1.37,30.41-2.3Z"/>
            <path class="cls-70" d="M164.15,312.69c1.03-4.34,4.29-7.6,8.16-10.33-.95,4.51-4.15,7.51-8.16,10.33Z"/>
            <path class="cls-100" d="M221.85,240c.57,1.95.96,4.21,1.98,6.01.64,1.25.71,1.47-.68.99-1.68-2.63-4.1-4.92-4.95-8,.91-.25.86-1.31.85-2.08.59,1.19,2.11,1.94,2.8,3.09Z"/>
            <path class="cls-83" d="M167.87,316.79c-.23-2.75,1.62-5.02,4.41-6.88.1,2.77-1.11,5.2-4.41,6.88Z"/>
            <path class="cls-95" d="M226.99,252.97c-2.35-1.05-2.55-3.97-3.83-5.97.6.21.61-.58.68-.99,1.12,1.96,4.44,4.33,3.15,6.96Z"/>
            <path class="cls-84" d="M174.19,320.65c-.91-.74-.67-3.77.89-4.38,1.22.24,1.17,2.84-.89,4.38Z"/>
            <g>
              <path class="cls-42" d="M277.69,338.57c.1,2.87-4.36,3.81-6.06,5.06-11.36,8.34-22.8,4.65-33.01-4.86,4.9-4.47,11.5-4.35,17.59-3.15,7.43,1.46,21.25-3.47,21.48,2.95Z"/>
              <path class="cls-39" d="M275.77,339.35c-2.6,2.27-5.37,2.79-8.3,3.13.22-3.98,5.3-5.54,8.3-3.13Z"/>
              <path class="cls-92" d="M249.33,340.26c-1.62,1.38-4.58,1.05-5.1-1.29-.22-1,1.71-1.27,2.3-1.2.83.11,2.26.44,2.8,2.49Z"/>
            </g>
          </g>
        </g>
        <g>
          <path class="cls-81" d="M203.03,228.92l-1.76,1.63c-13.91-5.36-24.08,13.34-11.53,20.8,13.2,7.85,23.71-10.25,12.99-20.01l.3-2.43,5.17,2.62c2.25,1.14,4.36.75,4.66,3.23-4.55-3.28-.17,6.65-2.03,11.25-1.68,4.14-4.94,8.39-9.49,10.3-7.52,3.17-15.94-.89-19.22-8.25-2.4-5.38-.92-10.95.72-16.01-.54-1.73-.08-3.29,1.36-4.69l-19.96-.37-1.4-2.01c1.45-2,21.62-1.07,25.91.26,13.73,4.26,4.8-1.14,14.28,3.66Z"/>
          <path class="cls-57" d="M203.03,228.92c5.03,4.21,7.17,10.8,5.51,16.84-2.26,8.22-11.46,11.34-18.73,7.89-6.81-3.23-9.57-11.95-6.23-18.38,3.97-7.63,11.7-8.4,19.45-6.36Z"/>
          <path class="cls-102" d="M206.38,242.73c-.78,6.07-6.96,8.32-11.77,7.16-5.13-1.23-7.7-6.4-6.66-11.95s5.68-7.78,10.66-7.1c5.28.72,8.62,5.21,7.76,11.88Z"/>
        </g>
        <g>
          <path class="cls-88" d="M129.06,203.11c2.5.22,2.67,1.11.5,2.65-.26,3.88-.17,7.66.28,11.33.78.05,1.91.18,2.06.75.54,2.05.63,7.14.66,9.61.99,3.73.49,6.24-1.49,7.55-2.14,2.23-1.7-3.6-1.46-3.47s.51,5.02-.9,4.83l-.96-.09-9.32-31.56c-1.4-4.73-4.9-7.74-9.47-6.59,1.24-1.1,2.53-1.82,4.21-2.26,4.13.18,1.92,2.93,5.66,6.24.14-2.06-.96-3.05-.49-4.97,3.03-.22,6.92-.23,9.1,2.25.89,1.01-.05,3.83,1.64,3.73Z"/>
          <path class="cls-34" d="M126.72,203.26c1.45,7.97,1.77,15.53.97,23.94-2.86-7.69-5.42-14.98-7.5-23.62,1.82-.9,3.58-.29,6.54-.31Z"/>
        </g>
      </g>
      <g>
        <path class="cls-17" d="M227.14,61.84c.08,5.35,5.99,30.36,6.84,39.13.33,3.34-.45,6.81.05,10.22.1,2.71-.19,2.93-2.01.81l-2.33-3.96-1.54-14.36c-1.63-5.82-1.99-11.34-1.07-16.57-2.9-.71-6-.95-9.3-.72-1.5-2.55.77-3.85,6.81-3.88-.23-2.58-.57-5-1.01-7.27-35.31.87-71.1,5.15-104.39,15.92l-2.07-1.75c-2.79-.14-2.67-1.56-.02-2.35,1.99-1.84,6.76-4.29,8.88-2.01.46-2.73,1.19-3.42,2.18-2.06.96-2.1,4.28-2.52,6.1-1.27.23-2.93,2.41-3.51,3.09-.64l2.84-.06c-.9-2.72,1.29-3.36,2.84-1.01,1.22-2.6,2.16-2.99,2.81-1.17.72-2.36,4.04-2.63,6.18-1.78.28-2.66,1.2-2.56,1.99-.03.24-.92.61-.97,1.1-.17l3.75.11c.61-2.59,5.7-3.18,8.22-2.93l2.02.02,3.33-1.96c13.77-.87,27.27-1.82,40.51-2.86l1.09.82c1.51,1.26,3.56,1.87,5.98,1.85l7.15-.06Z"/>
        <path class="cls-79" d="M227.07,77.1c-2.64,2.97-6.54,2.87-9.01-.17-.66.85-1.31.84-1.96-.01l-4.98,1.96c-12.36.05-24.7,1.25-36.79,3.81l-5.27-.85c-1.36.61-2.14,1.5-2.35,2.67-5.18,1.3-12.13,4.19-13.98,9.62-6.75,19.8-3.66,56.95.15,77.81.56,3.05,3.14,5.95,5.43,7.91l-.28,2.35c.56,2.8-.82.45-.55.47,3.46.26,7.96,8.87-1.69,7.45-15.91-.42-31.64-1.6-47.2-3.54l-.54-2.39-.07-2.13c-.35-1.36-.12-3.03.7-5.02.1-8.01-.05-16.02-.46-24.04-2.06-5.61-3.93-13.36-.14-18.09-1.18-.13-1.82-1.08-1.91-2.86,1.17-12.66.54-25.19-1.89-37.61-1.47-7.27,5.25-17.77,12.84-15.02,5.56-.49,10.76-3.19,16.71-4.72,27.97-7.18,61.01-11.32,90.51-11.04,1.22,2.75,3.21,7.09,1.93,9.83-1.62,2.36-5.72.73-8.29,1.94.25,1.93,8.13-1.61,9.11,1.68Z"/>
        <path class="cls-46" d="M158.03,182.2l1.96-1.07c11.06,4.17,22.71,6.44,34.96,6.8l.96,2.09c9.69.77,19.41,1.1,29.16.98,4.9-1.07,13.21-1.03,18.44-.21l1.33,2.06c.65-1.65,1.39-1.26,2.24,1.16.1,1.52.75,3.37,1.05,4.89.54,4.47.17,5.65-1.13,3.55-13.78.06-27.55.17-41.3.35-.08,2.77-2.78,1.6-4.53.43-4.2-.72-9.19-1.25-13.41-.58-1.75,1.75-4.36,1.5-7.81-.76l-1.04,1.94-47.23-2.87c-.63,1.09-1.5,1.8-2.62,2.14-.72.84-1.53,1.09-2.44.58-.42-3.86-2.26-4.94-6.19-4.46.47,1.32.58,3.1-.91,3.74-.4.17-5.19-4.9-5.95-5.83-.26-.32-.36-.78-.41-1.27,2.27-3.04-8.95-2.89-5.1-11.67,3.81,1.86,8.26,1.5,12.92,1.82l16.05,1.1c8.07.55,15.66,1.7,23.74.58-1.24-2.12-3-3.36-4.38-5.11l1.65-.38Z"/>
        <path class="cls-80" d="M247.08,194.03l-2.24-1.16-2.16-.86s-1.81-11.53-5.44-34.59l1.79-1.48c.73-1.14,1.14-2.68.96-4.09,1.13,7.72,6.68,35.86,7.09,42.19Z"/>
        <path class="cls-67" d="M227.07,77.1c2.85,11.39,4.01,23.18,4.95,34.89-2.29,2.39-1.25,6.36-2.88,9.45-1.52,2.87-4.51,4.68-5.18,7.75l-1.97-2.14c0-15.88-.12-32.25-5.05-47.49l1.12-2.63c3,.22,6.01.26,9.01.17Z"/>
        <path class="cls-5" d="M216.1,76.93c1.33.46,1.45,1.45,1.33,2.7l-7.31,9.31c-7.51,14.06-13.37,28.8-17.6,44.24l-2.35.73c.73,3.73-6.09,2.97-8.08,1.37l-6.82-.87c-.41-5.31-.8-10.45-.65-15.87l.47-16.57c.11-3.96,2.07-7.84.61-11.82-1.33-3.64-4.63-5.27-8.39-6.11l1.75-2.18c15.32-3.75,31.27-5.26,47.05-4.92Z"/>
        <path class="cls-36" d="M218.06,76.94c5.71,13.48,6.17,37.52,5.9,52.25-.36,1.67-1.3,3.16-1.94,4.71-10.33.45-20.47,1.12-30.41,2l-1.44-2,8.89-26.74c3.28-9.86,7.8-18.48,14.92-26.21,1.15-1.24,2.19-2.54,2.13-4.02.65.01,1.31-.04,1.96.01Z"/>
        <path class="cls-89" d="M239.03,155.93l5.81,36.93-19.81-.92c-4.66-.22-8.83-.08-13.33-.49l-15.79-1.43c7.8-1.34,24.49,2.57,29.22.03,7.12-3.82-1.23-29.09-.16-35.93,4.68.57,9.62.12,14.06,1.8Z"/>
        <g>
          <path class="cls-27" d="M239.99,151.84c.52,2.24.2,3.6-.96,4.09l-1.96,1.46-10.79-1.12-1.32-2.14c-2.64.95-3.02-.36-.87-2.05-1.3-2.87-.61-6.08,2.94-5,1-1.4,2.74-1.41,5.24-.04,4.57,2.58,3.5-5.68,2.09-6.89-2.57-2.22-6.24,1.07-7.55,2.71-1.99,1.99-3.18.79-3.59-3.61-1.41-2.49-4.6-3.42-9.57-2.8-4.73.2-9.25-.08-13.58-.83l.92-1.03c7.05.09,14.05-.14,21.01-.69-2.42-1.53-.72-5.14,1.94-4.71,2.07-5.49,3.86-11.08,5.38-16.76.21-.61,1.72-.54,2.68-.44l2.01-.81,5.96,40.66Z"/>
          <path class="cls-108" d="M222.02,133.91c-1.09,2.63-16.54-.07-21.09,1.57l21.56.92c2.18,2.02,2.02,5.39,4.34,6.47,2.91.34,3.01,3.11.22,4.22-1.22,1.54-2.76,2.97-2.94,5-4.42-3.12.88-13.92-3.56-14.59-11.14-1.67-21.85.47-32.48.65-4.04.07-9.18-2.88-14.61-.05,2.69-4.09,5.78-1.3,8.64-2.82,2.06-1.1,6.12.26,8.08-1.37h31.85Z"/>
          <path class="cls-4" d="M227.04,147.09c.21-1.35-.3-2.91-.22-4.22.07-.99-.14-3.26,1.15-4.19,1.68-1.2,6.56-1.46,8.09.31s1.44,6.72,1.05,9.09c-2.7,2.42-7.36.47-10.07-1Z"/>
          <path class="cls-68" d="M234.36,133.61c-1.03,1.35-5.87.05-6.14-1.55.05-3.3,4.09-4.86,5.34-7.05,1.4,2.72,2.55,6.29.79,8.6Z"/>
        </g>
        <g>
          <path class="cls-9" d="M169.05,81.85c4.67,1.88,7.63,4.84,8.9,8.88-1.21,13.75-1.49,27.7-.83,41.83,2.94-.11,4.6.79,4.97,2.72.17,1.15-1.12,1.49-3.87,1.03,4.57-.81,7.85-.19,9.84,1.85.23,2.06-2.49,2.4-2.34,2.04.42-.97,1.44-1.54,2.34-2.04l2.47-2.08c10.36-.22,20.76.11,31.22,1,2.53,4.16,3.31,9.17,2.34,15.02l.87,2.05c.47.08.91.19,1.29.41,1.57.95,5.9,32.45,1.57,35.82-10.45,1.03-21.08.92-31.91-.33-8.77-.8-31.14-2.59-37.88-7.83-3.79-2.95-6.79-6.45-7.5-11.85-3.39-25.78-5.51-45.45-1.17-71.73,1.91-11.53,9.92-14.39,19.69-16.78Z"/>
          <g>
            <path class="cls-44" d="M188.06,138.15c-1.06,6.76-1.74,12.56-4.03,17.9-1.49,3.49-.46,7.11-3.4,10.71-3.36-9.31-4.43-18.67-4.57-27.95,4.53-1.58,8.21-.11,11.99-.66Z"/>
            <path class="cls-59" d="M167.16,102.18c1.26-2.05-2.51-3.77-1.86-1.24-2.02-1.8-1.92-4.54-.54-6.62.85-1.28,3.2-1.87,5.25-1.03,1.5.62,2.12,2.94,3.04,4.83,1.13,2.34.61,4.85-1.66,5.79-1.31.55-3.41.12-4.24-1.73Z"/>
            <path class="cls-7" d="M171,170.04c.42,1.23.29,4.35-.39,5.37-.82,1.23-2.94,1.63-1.1-.25,1.09-1.11,1.58-1.92,2.3-4.28,1.72,1.7,2.5,6.92.26,7.68-4.53,1.53-8.03-4.6-6.89-7.95.59-1.74,2.18-2.28,3.3-2.45s2.03.79,2.51,1.9Z"/>
            <path class="cls-66" d="M159.78,135.19c2.05,2.75-.78,4.89-3.67,4.7-2.32-1.86-1.98-5-.12-6.91.71-.73,1.92-.3,2.52.08.68.43.78,1.63,1.27,2.13Z"/>
            <path class="cls-77" d="M167.16,102.18c-.82-.7-1.56-.86-1.86-1.24l-.06-2.65c1.07.63,1.64,1.21,2.45,1.41,1.39.35,1.56-1.67,2.93-2.28,1.08-.49,1.96,2.95,1.15,3.82-1.02,1.11-3.22,1.25-4.6.94Z"/>
            <path class="cls-106" d="M171.82,170.88c-.28,1.77.33,3.67-.18,5.81-.21.88-1.51,1.2-2.11.96-.78-.32-1.48-.93-2.36-2.37,3.13-.33,3.5-2.58,3.83-5.23l.82.83Z"/>
            <path class="cls-56" d="M156.11,139.89c1.6-1.27,2.92-2.78,3.67-4.7,1.52.88,2.9,3.16,1.65,4.3s-4.09,1.37-5.32.4Z"/>
          </g>
        </g>
      </g>
    </g>
  </g>
</svg>