<?xml version="1.0" encoding="UTF-8"?>
<svg id="Layer_1" data-name="Layer 1" xmlns="http://www.w3.org/2000/svg" viewBox="0 0 512 512">
  <defs>
    <style>
      .cls-1 {
        fill: #c9c9c9;
      }

      .cls-2 {
        fill: #a27563;
      }

      .cls-3 {
        fill: #bb816c;
      }

      .cls-4 {
        fill: #c0ced6;
      }

      .cls-5 {
        fill: #84363c;
      }

      .cls-6 {
        fill: #372d29;
      }

      .cls-7 {
        fill: #445863;
      }

      .cls-8 {
        fill: #b4b4b4;
      }

      .cls-9 {
        fill: #7a5145;
      }

      .cls-10 {
        fill: #b0adac;
      }

      .cls-11 {
        fill: #3f2320;
      }

      .cls-12 {
        fill: #331915;
      }

      .cls-13 {
        fill: #835b4b;
      }

      .cls-14 {
        fill: #6c4032;
      }

      .cls-15 {
        fill: #312423;
      }

      .cls-16 {
        fill: #1c242d;
      }

      .cls-17 {
        fill: #3f221c;
      }

      .cls-18 {
        fill: #626f7c;
      }

      .cls-19 {
        fill: #1d1818;
      }

      .cls-20 {
        fill: #89383d;
      }

      .cls-21 {
        fill: #130b0c;
      }

      .cls-22 {
        fill: #c8d6de;
      }

      .cls-23 {
        fill: #deeaf2;
      }

      .cls-24 {
        fill: #48241d;
      }

      .cls-25 {
        fill: #6c8693;
      }

      .cls-26 {
        fill: #4a2e27;
      }

      .cls-27 {
        fill: #928e8e;
      }

      .cls-28 {
        fill: #c1c0c0;
      }

      .cls-29 {
        fill: #45545b;
      }

      .cls-30 {
        fill: #211c1c;
      }

      .cls-31 {
        fill: #6c8592;
      }

      .cls-32 {
        fill: #795548;
      }

      .cls-33 {
        fill: #7d4837;
      }

      .cls-34 {
        fill: #b1adad;
      }

      .cls-35 {
        fill: #673b2f;
      }

      .cls-36 {
        fill: #352623;
      }

      .cls-37 {
        fill: #322726;
      }

      .cls-38 {
        fill: #371f1c;
      }

      .cls-39 {
        fill: #1a2329;
      }

      .cls-40 {
        fill: #747474;
      }

      .cls-41 {
        fill: #17171a;
      }

      .cls-42 {
        fill: #9d9b9b;
      }

      .cls-43 {
        fill: #be8570;
      }

      .cls-44 {
        fill: #ecbda8;
      }

      .cls-45 {
        fill: #f9fafa;
      }

      .cls-46 {
        fill: #531c21;
      }

      .cls-47 {
        fill: #bf9785;
      }

      .cls-48 {
        fill: #6e5953;
      }

      .cls-49 {
        fill: #a08c86;
      }

      .cls-50 {
        fill: #95695f;
      }

      .cls-51 {
        fill: #606168;
      }

      .cls-52 {
        fill: #5a3b34;
      }

      .cls-53 {
        fill: #bd826d;
      }

      .cls-54 {
        fill: #6b8491;
      }

      .cls-55 {
        fill: #4b2a23;
      }

      .cls-56 {
        fill: #9c7463;
      }

      .cls-57 {
        fill: #2d1112;
      }

      .cls-58 {
        fill: #f1c6ad;
      }

      .cls-59 {
        fill: #653f35;
      }

      .cls-60 {
        fill: #69818d;
      }

      .cls-61 {
        fill: #4d4e53;
      }

      .cls-62 {
        fill: #b7b5b5;
      }

      .cls-63 {
        fill: #271216;
      }

      .cls-64 {
        fill: #a2a2a3;
      }

      .cls-65 {
        fill: #636266;
      }

      .cls-66 {
        fill: #4a271f;
      }

      .cls-67 {
        fill: #c8d6df;
      }

      .cls-68 {
        fill: #543128;
      }

      .cls-69 {
        fill: #5d6c75;
      }

      .cls-70 {
        fill: #3d1e18;
      }

      .cls-71 {
        fill: #686e71;
      }

      .cls-72 {
        fill: #633d33;
      }

      .cls-73 {
        fill: #5b5b5b;
      }

      .cls-74 {
        fill: #738a97;
      }

      .cls-75 {
        fill: #151d26;
      }

      .cls-76 {
        fill: #858a8e;
      }

      .cls-77 {
        fill: #6d5852;
      }

      .cls-78 {
        fill: #241e1d;
      }

      .cls-79 {
        fill: #201518;
      }

      .cls-80 {
        fill: #e7e7e6;
      }

      .cls-81 {
        fill: #070708;
      }

      .cls-82 {
        fill: #5d6974;
      }

      .cls-83 {
        fill: #bc806a;
      }

      .cls-84 {
        fill: #3f1c17;
      }

      .cls-85 {
        fill: #b3b6b9;
      }

      .cls-86 {
        fill: #d6b1a0;
      }

      .cls-87 {
        fill: #c0bfcc;
      }

      .cls-88 {
        fill: #d8d8d7;
      }

      .cls-89 {
        fill: #b3b3b3;
      }

      .cls-90 {
        fill: #ddb9b5;
      }

      .cls-91 {
        fill: #edbba6;
      }

      .cls-92 {
        fill: #f9faf8;
      }

      .cls-93 {
        fill: #384851;
      }

      .cls-94 {
        fill: #455e6b;
      }

      .cls-95 {
        fill: #c8c5c6;
      }

      .cls-96 {
        fill: #2f1714;
      }

      .cls-97 {
        fill: #bd806b;
      }

      .cls-98 {
        fill: #63392a;
      }

      .cls-99 {
        fill: #c7d5dd;
      }

      .cls-100 {
        fill: #959595;
      }

      .cls-101 {
        fill: #3e3e3e;
      }

      .cls-102 {
        fill: #bd856e;
      }

      .cls-103 {
        fill: #312523;
      }

      .cls-104 {
        fill: #ba7f6a;
      }

      .cls-105 {
        fill: #5f6366;
      }

      .cls-106 {
        fill: #5f1921;
      }

      .cls-107 {
        fill: #270e0e;
      }

      .cls-108 {
        fill: #f0c7ae;
      }

      .cls-109 {
        fill: #9a7062;
      }

      .cls-110 {
        fill: #656471;
      }

      .cls-111 {
        fill: #ededed;
      }

      .cls-112 {
        fill: #7a5143;
      }

      .cls-113 {
        fill: #22222e;
      }

      .cls-114 {
        fill: #e1e1e0;
      }

      .cls-115 {
        fill: #1b252e;
      }

      .cls-116 {
        fill: #1a1413;
      }

      .cls-117 {
        fill: #361915;
      }

      .cls-118 {
        fill: #aaa8a8;
      }

      .cls-119 {
        fill: #79919e;
      }

      .cls-120 {
        fill: #5e6b77;
      }

      .cls-121 {
        fill: #311815;
      }

      .cls-122 {
        fill: #d1d1d1;
      }

      .cls-123 {
        fill: #746d6c;
      }

      .cls-124 {
        fill: #dcdbda;
      }

      .cls-125 {
        fill: #939292;
      }

      .cls-126 {
        fill: #30424b;
      }

      .cls-127 {
        fill: #6a372c;
      }

      .cls-128 {
        fill: #b3aead;
      }

      .cls-129 {
        fill: #2f3d47;
      }

      .cls-130 {
        fill: #68353a;
      }

      .cls-131 {
        fill: #7b929e;
      }

      .cls-132 {
        fill: #c8c7c7;
      }

      .cls-133 {
        fill: #a97665;
      }

      .cls-134 {
        fill: #100a0b;
      }

      .cls-135 {
        fill: #e6e6e6;
      }

      .cls-136 {
        fill: #57575c;
      }

      .cls-137 {
        fill: #291217;
      }

      .cls-138 {
        fill: #2c1411;
      }

      .cls-139 {
        fill: #131316;
      }

      .cls-140 {
        fill: #28201d;
      }

      .cls-141 {
        fill: #3e231d;
      }

      .cls-142 {
        fill: #190e0d;
      }

      .cls-143 {
        fill: #cecbca;
      }

      .cls-144 {
        fill: #bdc7d0;
      }

      .cls-145 {
        fill: #1c1515;
      }

      .cls-146 {
        fill: #afaeae;
      }

      .cls-147 {
        fill: #161315;
      }

      .cls-148 {
        fill: #241d1c;
      }

      .cls-149 {
        fill: #bcc5ce;
      }

      .cls-150 {
        fill: #231413;
      }

      .cls-151 {
        fill: #7a574c;
      }

      .cls-152 {
        fill: #68727f;
      }

      .cls-153 {
        fill: #b38e81;
      }

      .cls-154 {
        fill: #1a222c;
      }

      .cls-155 {
        fill: #854e3c;
      }

      .cls-156 {
        fill: #758e9a;
      }

      .cls-157 {
        fill: #cbcbca;
      }

      .cls-158 {
        fill: #332928;
      }

      .cls-159 {
        fill: #0b0809;
      }

      .cls-160 {
        fill: #be836d;
      }

      .cls-161 {
        fill: #383231;
      }

      .cls-162 {
        fill: #c6d5dd;
      }

      .cls-163 {
        fill: #dbb9b2;
      }
    </style>
  </defs>
  <path class="cls-87" d="M333,491c.09-.54.18-.97.3-.97,7.58-.46,16.38-.03,23.7,1.13-26.27,11.73-54.52,17.78-83,20.85h-36c-10.14.01-20.92-3.52-31-4.82l.08-1.81c-4.09-6.38.11-9.91,12.59-10.57,20.83-1.71,41.61-2.98,62.33-3.79,16.33-.86,34.35-.84,51,0Z"/>
  <path class="cls-110" d="M253,491c.09-.56.19-1,.31-1,8.64-.31,18.37-.3,27.02,0,.24,0,.46.44.67.99.3-.51.64-.5,1,0-1.38,1.75-3.69.7-6.03.89l-51.68,4.38c-5.89.5-11.29,1.72-17.04,2.97.33,2.53,1.36,4.4,1.4,6.9.01.94-1.12,1.05-1.64,1.03-10.58-1.37-20.88-4.84-31-8.05-.57-2.31,2.31-4.23,4.54-5.05,24.12-3,48.18-3.71,72.46-3.08Z"/>
  <path class="cls-136" d="M333,491h-52c-.12-.37.36-1,1.08-1h49.84c.73,0,1.2.63,1.08,1Z"/>
  <g>
    <path class="cls-81" d="M150.91,388.98c5.03,4.55,6.29,11.49,6.05,18.05,2.18-.49,6.5-.64,9.11.79l1.89-2.2c-.58-3.9.1-6.78,2.04-8.63-.27-1.63.06-2.29,1-2l2.44,2.78c1.96,14.12,3.53,28.35,4.71,42.7,49.74,27.54,110.67,35.94,164.56,15.35l5.42-.03c4.27-3.95,9.29-7.02,15.05-9.21,10.98-6.65,16.46-9.97,16.46-9.97,3.18-3.16,6.67-5.07,10.48-5.74.06.7.08,1.4-.02,2.07-.1.62-.24,1.2-.57,1.62-10.29,13.04-37.06,25.04-52.97,29.89-35.9,10.96-59.06,10.26-95.67,6.21-.52-.06-.95.23-.91.25,8.5,5.19,18.93,8.69,28.74,10.17l97.31,1.91c2.23.34,2.97.51,2.06,3.01-.89.43-2.14,1.11-3.1,1.23-5.26,1.58-10.8,1.74-16.61.48-36.37-.79-75.47-.98-112.48.63-18.34.79-36.43,1.91-54.75,3.22-3.47.25-5.89,2.78-7.31,5.76-1.26.32-2.58.22-3.96-.3-15.27-5.39-30.54-11.9-43.86-21.06,3.31-3.35,7.92-5.27,12.81-7.21.58-15.6-.85-31.11,3.06-46.33,1.67-6.5,8.97-8.83,14.14-11.97-6.03-15.43-11.01-30.44-15.05-45.55.21-.88.52-.85.92,0,1.17.36,2.39.85,3.13,1.88,1.95,2.7,5.95,14.9,6.77,18.69l-.89,3.51Z"/>
    <path class="cls-136" d="M365,487.24c-1.94,1.57-4.72,2.66-7,3.87l.8-.36c-39.94-1.4-79.88-1.65-119.8-.75l-.47.73c-18.59.12-37.19,1.01-55.72,2.86-3.24.5-5.89,2.23-7.96,5.17-1.87,0-3.35-1.16-4.96-1.72,5.2.83,2.06-6.05,11.13-6.89,28.52-2.64,56.21-3.94,84.99-3.89l82.42.14,16.57.85Z"/>
    <path class="cls-139" d="M239,490c1.71-.72,13.9-.84,14.36-.27.16.2-.05.69-.36,1.27-5.64,0-11.41.38-17.43.56l-22.46.69c-9,.28-21.85,1.88-30.23,2.24-3.38.14-5.76,1.98-6.87,4.63-.36-.11-.78-.37-1.15-.37,2.91-7.92,11.6-6,23.15-7.65,5.47-.78,10.96,1.03,16.26-1.03l24.74-.07Z"/>
    <path class="cls-113" d="M408,389.96c2.59,1,6.04,2.03,8.55.76.16.59.35,1.07.68,1.17,9.1,3.09,9.87,7.67,10.75,17.08.73,10.84.92,21.71,1.06,32.56.02,1.32-.12,2.49-1.06,3.52-17.64,16.5-38.11,30.49-59.89,40.97-.4-1.07-1.63-1.01-3-1.03-10.43-.17-20.25-.28-30.61-.46l-60.38-1.04c-16.5-.28-32.3-8.49-46.11-17.43,39.01,8.91,76.41,8.02,112.92-5.22,18.39-6.67,37.24-15.71,49.21-29.95l-.13-2.92,8.81-8.84c.29-3.56,1.33-5.6,3.12-6.11.06-7.46.13-14.92.23-22.38l1.24-.62c1.09-2.87,3.45-2.86,4.61-.04Z"/>
    <path class="cls-41" d="M358,491.12c-.24.13-.72.04-1,.04l-24-.15c-16.97-.87-35.01-.84-52,0h-28c.08-.77-.91-1.02-1.95-1.02l-12.05.02c-.11-.35.32-1.02,1.15-1.02l108.69.08c-4.55,0,15.73,1.53,9.16,2.05Z"/>
    <path class="cls-144" d="M131.01,323.99l1.56,2.34-1.2,24.63c.14,3.92-.99,5.93-3.41,6.04l-2.93-23.01c-.76-5.95-2.44-12.27-.83-18.01l6.87,6.89-.06,1.12Z"/>
    <path class="cls-148" d="M141.82,326.83c1.33-.61,2.07,1.29,1.19,2.27-2.87,3.28-12.16-.75-11.99-5.1-2.77-2.18-5.49-4.73-6.81-8.01.08-.28.02-.59.08-.88,4.79,5.27,10.53,10.82,17.54,11.72Z"/>
    <path class="cls-60" d="M143,329.09l1.24.95c6.32,17.26,14.68,33.37,25.08,48.34.05,6.1.28,12.31.68,18.62.34,2.36-.11,6.21-.02,8.93.06,2.05-2.97,1.66-3.9,1.89-2.92.56-5.22-6.73-6.08-9.61-.31-3.05-1.03-5.39-2.18-7.02-1.23,5.74-5.05,1.14-6.9-2.22-2.92-8.08-5.1-16.49-9.01-24.08-1.71-3.33-.4-8.54-4.25-11.46l-.63,5.46c.41,8.55-4.49,12.09-8.06,3.06l-1.01-4.96c2.88-4.7.98-25.38,3.04-33.01,3.44,2.71,7.7,4.44,11.99,5.1Z"/>
    <path class="cls-79" d="M166.07,407.82c-.84,2.24-9.02.44-8.99.57-.14-.6-.05-1.09-.12-1.36l-1-14.51,1.85-1.32c0-.81,0-1.68.62-2.1l7.64,18.72Z"/>
    <path class="cls-69" d="M157.81,391.2c.35-.21.4,18.24-.85,15.83-1.28-4.58-4.29-13.18-6.05-18.05,2.08,1.39,4.61,4.17,6.9,2.22Z"/>
    <path class="cls-18" d="M418.02,371.89c-.27,2.14-.98,3.09-2.11,2.87l-2.93-21.85c2.61-.84,4.96-3.6,5.32-6.92.7-6.37,2.04-12.26,3.36-18.59.51-2.42.34-14.99,3.48-14.4l-7.12,58.89Z"/>
    <path class="cls-152" d="M410.05,351.96c-.58,5.68-5.04,22.59-6.77,29.19-.78-11.91-.02-22.98-.06-34.14,1.55,1.53.65,3.84,1.94,6.22,1.63-1.39,3.35-2.32,4.9-1.26Z"/>
    <path class="cls-82" d="M128.98,361.96c1.1,2.62,3.98,2.88,6.87,3.47-.28-2.62.94-4.43,1.19-6.53.18,4.89-.24,9.84-.85,15.08-.93,8,.8,15.76-1.72,23.38-2.37-12.47-3.18-24.07-5.48-35.4Z"/>
    <g>
      <path class="cls-106" d="M465.91,237.06l6.99-.18c12.5,3.22,24.91,6.73,37.25,10.55l1.85,1.89v26.69c-8.39,67.44-31.6,120.01-81.89,167.06l-1.06-.28c.33-14.32-.52-28.58-2.52-42.76-1.91-4.55-5.7-7.57-11.36-9.06,1.56-2.73,2.07-5.94,1.53-9.61l1.95-4.19c2.26-21.92,5.06-43.51,8.4-64.78l2.3,1,9.2,31.31c1.06.22,1.67,1.11,1.83,2.67.57-34.05-1.24-67.03-3.12-100.53,0-.06.18.96-.48,1.19-.34.5-.7.91-1.15,1.06-2.64.85-.89-17.95.02-17.81.5.08.94.48,1.37.99,9.18-1.9,20.68.4,28.88,4.82Z"/>
      <path class="cls-106" d="M114.96,301.24c1.73-1.24,3.25-.59,4.56,1.96l5.61,9.8-.85,2.11-.08.88c1.14,5.32,2,10.71,2.6,16.16l-1.76,1.85c.91,17.32,3.05,34.92,6.42,52.81.28,3.22,2.61,14.98,3.74,15.12,1.25.16,2.08-22.97,1.66-25.04.11-2.34.87-15.51,1.82-15.95,1.54-.72,2.29,2.44,2.31,3.96,5.44,15.27,11,30.52,16.66,45.74l-1.58,2.12c-5.55,2.07-9.58,5.3-12.1,9.7-2.55,15.53-3.75,31.27-3.6,47.21-4.13,2.03-8.09,4.28-11.88,6.76l-2.45-.46c-2.42-1.66-6.71-2.22-8.33-5.13-.69-1.49-1.58-2.11-2.68-1.85C54.81,431.04,13.62,365.33,3,295c-.18-1.5.32-2.96.4-4.44l3.21-2.73c18.51-7.57,36.98-13.93,55.41-19.06-.16-.47-.26-.93-.19-1.35.25-1.51,26.78-11.38,28.31-11.51l2.08,1.35c2.15,3.32,3.81,7.16,4.98,11.54,4.76,11.72,10.68,22.53,17.76,32.46Z"/>
      <path class="cls-57" d="M117.7,470.85c-1.1-.03-1.89-1.35-2.68-1.85l12.71-21.96c-2.05,8.22-8.94,17.32-10.03,23.8Z"/>
      <path class="cls-134" d="M430.11,443.06l-2.13,1.99c.15-13.82-.53-30.92-2.65-45.13-4.4-9.92-15.05-6.26-17.33-9.96.66-1.67,2.65-2.31,5.96-1.93l-3.56-20.41-4.75,21.37-2.26,1.01c-1.64,7.65,1.07,15.65-1.47,23-3.99,1.17-3.19-10.04-2.69-12.69l1.76-1.31c-.49-8.8-.68-17.66-.57-26.58l-1.23-1.01c-.01-19.41.24-38.76.76-58.05l2.04-1.36c1.94-2.51,2.45-.67,3.08,1.81,1.06,4.18.45,26.12.13,31.73l-1.99,1.47c1.58,6.4,2.19,12.48,1.84,19.14l2.76-12.63,2.23-1.55c-4.52-7.13,8.16-5.42,2.93.95.78,0,1.94.06,2.1.61,1.63,5.78,2.17,15.45.83,21.23.76.94,1.47-.01,2.11-2.87l-1.27-.46c1.71-19.34,4.29-38.61,7.75-57.82l.64-.61c-2.64.39-.87-7.02-.37-7.77,3.56-5.29,8.78,3.01,5.38,5.76,3.47,4.13,5.83,9.29,7.08,15.47l-.41-17.4c1.64-5.38,2.03-10.74,1.18-16.07-1.85-14.16-2.87-28.36-3.05-42.6l1.83-2.4c-.15-1.55-.29-3.7,1.23-5.12-.6,6.74.36,12.66.75,19.06l.98,15.95,1.54,26.55c1.06,18.27,1.42,35.86.77,55.11l-14.36-46.62-6.05,48.63c-1.23,9.91-2.58,19.4-4.83,28.96,3.3,1.9,6.8,2.37,8.66,4.97,3.35,4.66,4.06,10.74,4.15,16.53l.5,31.05Z"/>
      <path class="cls-21" d="M127.97,357.01c2.95-.51,3.6,3.87,1.01,4.96l2.73,3.67c1.52,18.78,2.59,18.97,3.21.56,1.57-1.7,2.28-4.13,2.12-7.29-2.14.5-2.13-3.58-1.5-4.44,4.86-6.7,9.6,6.42,6.38,10.44h-.92s-1.79-3-1.79-3c-1.74,8.17-1.86,24.86-1.04,33.15-1.69,7.09-.71,13.76-1.64,21.17-5.44-19.23-7.93-38.97-10.35-59.17l-2.28-19.07c-.19-1.58-.1-3.65,1.15-4l2.13.9.8,22.11Z"/>
      <path class="cls-107" d="M114.96,301.24c-2.69-1.94-4.26-3.98-6.36-7.84-6.4-11.8-13.27-23.36-16.38-36.15l1.06-2.12c2.05,3.39,2.62,7.34,4.19,11.43,4.74,12.4,11.38,23.42,17.5,34.68Z"/>
      <path class="cls-46" d="M408,389.96c-1.54.01-3.07-.07-4.61.04l7.14-33.32,5.84,33.49c-3.43.56-5.8-.23-8.37-.21Z"/>
      <path class="cls-61" d="M415.91,374.76c.64-1,1.19-2.09,2.11-2.87-.28,2.3,1.01,5.02-1.49,7.25-1.02-1.35-.44-2.97-.63-4.38Z"/>
    </g>
  </g>
  <g>
    <path class="cls-124" d="M512,241v4c-1.17.9-1.63.42-1-1-4.27-1.62-7.56-4.02-9.86-7.2-10.57,3.66-17.4-5.9-16.92-15.81,2.11-6.7,2.44-13.05,1.01-19.07.74-4.56.16-9.2-1.74-13.93,2.14-6.97,1.28-12.22-2.58-15.76-1.01-4.68-1.61-9.6-1.78-14.74-3.76-9.29-4.91-18.4-3.45-27.32l2.34-1.25c18.75,32.15,30.02,68.28,33.12,105.97.2,2.47-.94,4.7.86,6.11Z"/>
    <path class="cls-88" d="M3,243c2.58.57,2.58,1.27,0,2.11,3.26-.02,2.27,2.02.09,3.72,2.88,2.34,2.81,5.92-.04,8.27,2.88,1.13,2.81,2.56.09,4.05,2.59,5.72,2.7,14.34.12,20.07,3.1.67,2.36,4.96.06,6.61,2.68.27,2.7,1.18.07,2.73,2.82.9,2.21,3.39-.4,4.44-.64-4.2-2.84-16.85-1.85-22.07.17-.9-.59-2.07-1.15-1.93v-28c3.13-4.54,2.88-10.33,2.66-16.03-.33-8.81,1.25-17.24,3.42-25.18.67-1.8,2.17-3.02,4.49-3.68,13.46-14.32,22.38,1.58,10.09,12.12,2.2,1.23,3.78,2.84,4.73,4.83-.59,5.97-.3,11.97.86,18-.19,6.48-3.5,7.39-9.93,2.75-3.81,2.63-7.72,4.49-11.75,5.58l-1.58,1.61Z"/>
    <path class="cls-27" d="M512,247v2.31c-15.52-4.34-30.37-9.67-46.09-12.25.85-2.59,1.86-2.66,3.07-.22.69-2.92,3.35-3.61,7.98-2.07,11.5,3.64,22.98,7.26,34.45,10.84l.59,1.39Z"/>
    <path class="cls-62" d="M511,244c.14.42.73.67,1,1v2c-2.27-1.57-5.07-2-8.07-2.86l-28.79-8.23c-2.54-.73-4.62-1.22-6.16.93-3.7-.17-1.34-3.97.36-5.66,2.18-2.17,15.82,2.31,18.13,4.01,8.6,1.59,16.44,4.53,23.52,8.81Z"/>
    <path class="cls-114" d="M83.87,88.85c2.9-.11,2.88,2.29.23,3.19l.53,1.07c-1.47,12.61-2.01,25.52-1.6,38.74l-1.03,2.15c-.7,1.64-1.14,3.4-1.02,5.21,1.43,22.65,6.33,45.33,13.81,66.78-4.58,13-5.23,25.53-3.7,39.07-.02,2.18-.28,6.42-1.5,8.16-3.68,5.28-21.52,12.28-28.27,13.87-.78-4.55-1.14-9.25-1.08-14.09l-2-.69c-.04-33.4-.08-66.8-.12-100.22l2-1.22.1-15.9-.31-40.85c0-.75-.36-1.38-.93-1.07.26-.3.85-.81.93-1.19,2.3-1.37,3.09-.04,3.11,2.39.21,14.3.09,28.43-.38,42.38,2.54.74,3.93,3.52,4,6.09,5.56-15.57,8.24-31.82,9.05-48.27.36-2.73,1.49-4.55,3.38-5.47.33-2.93,4.06-2.9,4.79-.14Z"/>
    <path class="cls-80" d="M79.08,88.98c.42,2.33-1.46,4.53-1.63,7.14l-.67,10.13c-.6,8.95-2.2,17.22-4.78,25.79l-3.46,11.49c-.76,2.53-.12,5.42-3.46,6.47-1.72-6.38,1.96-8.69-4.03-12.46v-42.61c0-1.46-.05-2.66-1.13-3.08.38-1.78,2.31-2.39,3.28-3.69l2.02-1.3,12.11.17,1.76,1.94Z"/>
    <path class="cls-157" d="M84,85l-.13,3.85-4.79.14c-5.29.15-10.79.83-15.9-.81,5.29-7.12,12.32-12.91,18.61-19.02,3.77,2.75,4.05,11.43,2.2,15.85Z"/>
    <path class="cls-73" d="M7.99,194.13c-.01-1.22.83-2.84,1.03-4,4.66-8.15,7.96-18.73,9.1-28.01.9-2,1.57-4.12,2.37-6.19,4.49,3.08-.48,17.52-1.81,22.5-1.67,6.25-3.92,12.07-9.48,15.8-.48.32-1.1.6-1.21-.09Z"/>
    <path class="cls-101" d="M9.02,190.13c1.69-9.63,5.08-19.09,9.1-28.01,1.74.85,1.27,2.86.89,4.8-1.48,7.55-3.89,18.49-8.96,23.38-.27.26-.84.66-1.04-.18Z"/>
    <path class="cls-85" d="M84,85c.47-14.29-2.14-6-2.2-15.85l6.04-5.87c-2.66,6.15-.46,22.58-3.84,21.72Z"/>
    <path class="cls-122" d="M478.02,128.92c-4.66,18.99,4.41,16.85,3.75,40-.07,2.54,2.54,3.21,3.5,4.91,2.22,3.9.69,8.73.22,13.26-.39,3.78,3.38,8.27,2.13,11.5-1.58,4.06,1.46,6.42.85,9.8l-2.12,11.72c-1.13,6.25,2.29,14.27,9.65,15.91,1.79.4,5.37-2.91,7.09.12,4.28,7.51,6.3,3.19,7.91,7.87-3.36.18-6.24-2.14-9.67-3.12-7.23-2.06-14.7-3-21.4-6.76-3.19-1.79-7.18-.86-10.65-1.24-.34,1.93-.28,2.83-.3,3.96-1.03,0-2.05.08-3.07.22-9.56-2.01-19.22-3.39-28.88-4.82l-1.61-.27-.42-4.97c-.82-1.89-.04-13.02.95-14.63.16-.27.65-.34,1.23-.35l2.31-.17c1.58,4.98,2.88,9.97,3.91,14.99,7.46,2.08,15.04,3.41,22.75,3.99l-26-140.93c-1.3-1.33-4.12-.94-5.87-.26.21,10.36.41,20.65.6,30.88l-1.88,1.49c-.28.87-.62.86-1,0-1.85-2.01-1.44-6.25-1-9-1.36-6.25-2.32-13.57-2.79-20.27-.02-.22.34-.47.79-.73.3-4.18.99-8.34,2.06-12.49l-.38-2.17c-2.94-3.75-3.16-6.47-.65-8.16,19.73,16.2,35.16,37.73,47.99,59.74Z"/>
    <path class="cls-64" d="M430.03,69.18c-.74,7.37,5.42,4.23,1.96,16.67-2.97,1.19-3.5,3.66-3,6.15-2.42-8.8-3.58-18.58-3.8-27.66,2.37.55,3.22,3.51,4.83,4.84Z"/>
    <path class="cls-89" d="M59.84,264.17c1.1.16,1.3,1.53.33,2.16l-.14,1.25-35.81,10.07c-7.29-.77-13.43.77-18.41,4.61l-2.55-1.05c-.53-6.66-.64-13.4-.12-20.07l2.02-1.28c10.3.38,10.05-16.42-.91-13.81l-1.24-.95c-.02-.68,0-1.42,0-2.11,1.89-.31,3.99-1.49,5.95-1.03,7.67-5.52,13.81-4.04,7.79,5.39-.81,6.79,3.9,15.98,11.64,12.64,9.14,4.04,19.03,5.95,28.77,2.98l2.7,1.19Z"/>
    <path class="cls-42" d="M60.17,266.33c1.99.18,2.28,1.14.7,2.36-19.04,5.98-37.84,12.65-56.4,20.02l-1.14-.88c-.67-2.19.11-4.44-.06-6.61,3.19-.95,5.28-4.41,9.05-4.96,5.08-.73,10.51.61,15.28-1.64,3.04-1.43,6.04-1.03,9.17-1.88l23.41-6.41Z"/>
    <path class="cls-123" d="M60.86,268.69c-.05-1.94.72-1.89,1.15.08l-9.64,3.57c-16.61,6.14-33,11.69-48.98,18.23.04-.8.16-1.97-.07-2.73,6.8-3.82,53-19.44,57.54-19.14Z"/>
    <path class="cls-125" d="M3.14,261.15c.1-1.29-.08-2.74-.09-4.05l1.88-1.54c5.87,2.78,5.81-8.73.25-5.59l-2.09-1.14-.09-3.72c2.73-1.15,5.83-1.36,8.03.52,2.6,2.21,3.61,5.5,2.72,9.05-.64,2.54-2,4.39-3.75,5.75-2.01,1.56-4.58,2.1-6.86.72Z"/>
    <path class="cls-40" d="M3.06,257.1c-.01-2.76.1-5.52.04-8.27,1.42-.76,3.08-1.8,4.31-1.55,2.47.5,3.75,2.12,3.79,4.69.04,2.35-.33,4.35-2.24,5.56-1.61,1.02-3.92.13-5.9-.42Z"/>
    <path class="cls-28" d="M60.12,150.87l.12,102.13c.5,3.56.69,8.03-.4,11.17-10.17,3.83-21.64,2.6-31.68-2.28-1.4.15-2.58,1.51-4.2,1.98-9.27-8.6-7.85-3.17-8.47-16.96,1.28-1.51,2.93-2.65,2.64-4.35-.2-1.11-.8-3.92-2.91-3.07-2.43.98-3.77,3.06-6.27,2.48l3.93-3.12c1.97-1.57,4.35-2.27,5.88-.96,5.29,4.52-5.08,11.35.52,14.57,11.05,6.34,16.28,2.21,25.64,5.29,3.33-.4,3.07-12.14,2.42-13.05-.54-.76-1.9-.81-4.27-1.86,7.24-9.93-.6-16.42,2.04-27.65,1.54-6.57-.44-18.84,1.25-23.76,1.34-3.92.7-6.6,1.1-10.41.42-4.02,2.21-8.29,1.15-12.67,8.82-7.73.02-8.06,6.18-19.2l5.34,1.74Z"/>
    <g>
      <path class="cls-132" d="M60.12,150.87c-.52,1.64-1.98,1.9-4.39.8-1.29,3.47-1.64,7.22-1.04,11.25l-3.83,6.06c-1.94,17.03-3.38,34.14-4.32,51.34,1.95,7.64,1.91,14.85-.11,21.63,5.37,1.4,3.69,15.46.02,17.22-2.9,1.39-25.27-2.22-28.26-5.03-2.76-2.59-1.79-7.1.41-9.75,1.49-6.91-1.73-7.71-9.66-2.41-.91,1.49-4.53,2.07-5.95,1.03-.01-1.07.13-2.2,1.02-2.66,1.03-.53,2.26-.49,3.72-.81,2.99-.65,5.87-5.49,9.16-5.16,1.7.17,4.96,4.61,6.31,2.31,2.62-4.48-.36-9.86-.48-14.46-.07-2.68,2.28-6.31-.41-8.39-1.69-1.3-3.99-1.65-3.54-4.3.29-1.69,1.69-2.05,3.51-3.5,2.95-2.36,2.83-9.63-.24-11.69-3.28-2.21-10.29,5.93-15.96,7.45.38-1.38.07-3.69.97-4.86,4.01-2,7.25-4.95,9.44-8.9h1.44c3.23-6.44,6.23-15.37,7.01-22.64.66-6.11-.32-9.84-1.95-15.39,9.39-20.42,21.11-40.09,35.98-56.95l1.03-.4c.61,14.84.81,29.74.61,44.71,1.96,3.32,3.05,11.58-.5,13.5Z"/>
      <path class="cls-100" d="M17.93,188.04c-.92,3-9.99,12.55-10.88,8.9.46-.58.94-2.06.93-2.81,10.17-9.22,13.1-25.03,12.5-38.21l1.42-3.69c.59-.19,1.07-.31,1.21-.14,5.68,6.99-1.22,28.56-5.18,35.93Z"/>
      <path class="cls-8" d="M17.93,188.04l3.79-12.35c2.1-6.83,4.43-18.21.18-23.45.29-.75.75-1.49,1.09-2.24,4.55,6.09,3.55,14.78,1.41,22.23-.67,2.35-4.03,16.34-6.47,15.81Z"/>
      <path class="cls-28" d="M37.16,233.25c-.09-.07-6.33-8.28-2.16-9.85,3.21-1.21,8.16,4.31,8.67,5.39,1.1,2.34-3.78,6.77-6.51,4.46Z"/>
    </g>
    <path class="cls-143" d="M82.81,141c.45,6.12,1.24,12.35,2.46,18.91l4.39,23.63c1.66,8.92,6.26,16.73,7.53,25.29.25,3.39-.76,7.06-3.05,11-1.2,2.78-1.36,4.62-.48,5.53,2.01.85,1.98,5.86.18,6.98-1.16,3.55-1.13,7.4.08,11.55,1.32,3.31,1.36,8.33-.64,11.24.6,2.01.25,2.71-1.06,2.12l-30.2,11.52-1.15-.08c-.25-.78-.58-1.55-.7-2.36-.1-.7-.35-1.45-.33-2.16l.4-11.17c2.16,3.81-.54,7.84,1.42,12.61,8.11-4.32,17.66-6.18,24.57-11.3,6.05-4.47.96-26.48,2.81-33.4l3.93-14.72c-7.22-21.1-12.4-42.05-13.19-64.16-.11-3.15.18-6.3,2.21-8.04.78,1.72,1.05,4.06.81,7Z"/>
    <path class="cls-76" d="M86.11,96.99l3.03,5.94-1.08.99c-2.4.37-2.05,3.14-2.25,5.09l-1.46-8.08-.34,36.08c-1.43.75-1.03,2.62-1.19,4-1.36-2.03-.84-4.64-.81-7,.12-12.22-.42-24.45.7-37.13.17-1.97.06-3.81,1.41-4.83,1.48.76,2.29,3.24,2,4.96Z"/>
    <path class="cls-135" d="M437.18,212.01c-1.62-.67-1.63-3.13-.15-4.01-2.01-2.46-3.76-7.53,0-9.23,1.43-3.94,1.24-8.22-.54-12.85l-.17-7.55c2.72-7.58,5.64-16.2,7.38-23.99s-3.22-12.51-9.49-15.57l-.96-1.75c-.52-.36-.96-.74-1.11-1.22-.41-1.31.21-10.2.41-12.58.04-.43.22-.85.44-1.27l-.68-8.02c-.44-5.22,1.34-10.21.44-15.64-.59-3.57-.43-7.12-.49-10.62,3.41-.68,6.16-1.01,9.51-.07l26.84,145.48c-8.9-.16-16.25-2.47-24.06-3.82s-1.93-10.2-7.38-17.3Z"/>
    <path class="cls-1" d="M433.26,137.07c1.1.23,1.87,1,2.28,2.31,4.69,2.83,8.12,6.08,8.46,11.81.12,2.08-3.27,14.77-4.15,17.82-.81,2.81-1.94,5.56-3.32,8.13.09,2.26-.41,3.88-1.51,4.86-.3.87-.64.86-1.03,0-.62-1.08-.77-1.99-.43-2.72-.54-4-.91-8.02-1.11-12.05-2.9-.84-4.12-4.85-1.08-6.14,2.09-9.19-.25-18.71-.37-28.08l.48-4.7c-.44-2.62-.27-4.72.52-6.3h1c.42,4.96-.06,10.08.26,15.07Z"/>
    <path class="cls-49" d="M437.03,208c0,1.21.22,2.88.15,4.01-1.97,4.55-1.69,10.04-2.18,14.99-.57,2.61-1.16,2.58-2,0l-1.64-1.52,1.64-18.93c2.48-2.71,3.36-1.47,4.03,1.45Z"/>
    <path class="cls-105" d="M432,122c.07,3.69.22,7.68-1,11,.25-3.59-.04-7.15-.84-11.09-.64-3.12.2-6.17-.16-8.91h1c.29,3.05.94,5.93,1,9Z"/>
    <path class="cls-22" d="M437.04,198.77c0-4.61-1.52-12.57-2.01-16.77-.18-1.51-.61-5.12.49-6.24,4.18-4.27,3.47-9.5,5.23-14.25,2.82-7.59,4.34-15.88-4.67-20.04-.71-.33-2.36-.39-2.67-1.2-.46-1.18-.09-2.23-.15-3.21,2.54-.95,3.62,1.7,5.56,3.14,5.7,4.22,8.46,11.55,4.21,17.88-2.44,3.64-1.15,8.05-2.49,11.51-9.28,24.04,5.13,21.38-3.51,29.18Z"/>
  </g>
  <g>
    <path class="cls-149" d="M437.03,232.24c-1.78-2.89-1.05,18.96-.25,15.76.72,7.64-.52,15.41.76,23.4,1.18,7.38.1,14.57.46,21.6.4,1.06.81,2.12,0,3l-2.08-.37c-1.85-11.94-3.7-23.9-5.53-35.88l.66-8.75c-.63-.16-1.12-.31-1.11-.39.73-5.73,2.57-17.95,4.05-23.17.06-.23.49-.35,1.02-.45,1.76,1.19.92,3.65,2.03,5.24Z"/>
    <path class="cls-54" d="M438,296c.93,3.76.32,12.83-2.92,15.39-2.06,1.62-3.56,2.15-4.92-.39-.72-2.33-1.46-4.52-3.36-6.8.1,3.21-1.31,5.96-1.65,8.8-2.54,11.96-4.6,24.27-6.18,36.93-1.19,2.68-3.4,5.3-5.98,2.98l-1.39-5.01c-.42,1.42-1.41,2.81-1.54,4.06-1.53,1.87-4.96,4.12-6.05,1.14l-.78-6.1-.13-33.04c0-1.04-.4-2.05-1.09-1.96.2-6.74,1.82-13.42,1.04-20.2-1.49-2.08,2.05-2.24,3.96-1.8,8.07-1.11,15.07-9.5,17.54-17.29l4.99-20.47,1.51-1.24,6.96,45Z"/>
    <path class="cls-120" d="M430.15,311c6.29.74,8.36-10.54,7.85-15-.11-.99.05-2.01,0-3,2.17,2.45.6,6.5.68,10.03l1,42.05c-2.24-11.69-6.04-22.81-9.53-34.08Z"/>
    <g>
      <path class="cls-67" d="M272,0c1.01,2.05,3.83.59,6.03.85,9.41,1.08,18.44,1.89,27.05,4.05l-.94,1.99c-23.74,11.79-43.91,29.86-59,51.9l.83,2.62c-.99,3.11-6.3,13.53-9.45,13.32-3.84-.25-6.08-27.02-6.28-32.2-.39-10.1-.17-20.41,2.36-30.09.47-1.8,3.79-10.98,4.57-10.49.94.6-.36,2.47-1.15-.94v-1h36Z"/>
      <path class="cls-25" d="M120.94,39.11c2.81.05,3.17,1.04,1.06,2.89,5.33,16.17,20.43,28.13,34.82,36.94,2.39,2.03-13.58,1.38-13.98,1.3-4.53.39-8.33.94-9,6.29-2.8.48-4.13,2.39-4.02,5.75-9.12.33-9.23,4.47-9.01,12.39-3.07,2.23-3.59,6.38-1.54,12.46-2.48.69-5.14,1.64-3.51,4.83,4.78,1.61-.47,7.36-3.66,3.97-2.34,11.11-1.74,22.47,1.8,34.08,1.85,2.46,3.8,6.87,4.62,10.09.32,1.28-11.55-4.12-11.72-6.02l-1.38.72,5.96,19.31-.83.98c-2.36-.45-3.48.9-3.36,4.05-3.5,6.28-4.27,13.15-2.32,20.61l-.6,1.31c-2.43-.91-4.8-1.65-7.11-2.22l-2.36-1.8c-5.17-13.09-14.04-50.01-13.19-63.86.05-.74.54-1.46,1.16-2.17-.44-1.81-.99-5.03,1.19-4,.55.06.74.34.57.86-.37-3.92.29-7.25,1.99-9.99l3.44,1.22c-3.4-6.7-4.8-13.4-4.2-20.08l-.12-5.95c.98-.36,1.76-.04,2.37.86l1.48-.25c2.6,3.79,4.08,4.91,4.47,3.37.89-1.28,2.3-1.24,4.25.11-2.13-3.62-2.55-6.69-1.26-9.21.59-.29,1.1-.48,1.38-.3,1.74,1.13,5.97,4.65,7.6,6.15.19.17-3.46-2.42-4.15-2.98-4.73-3.85-6.77-7.82-9.08-13.37l-.59.55c-6.41.49-4.58-12.08,2.47-10.13,6.09,3.45,12.36,6.42,18.81,8.92l-4.21-9.22c-1.23-3.99-1.93-7.53,3.76-6.44-1.16-8.65-1.11-17.3.15-25.95l1.95-2.16c1.67-.85,4.3-2.79,5.87-3.9Z"/>
      <path class="cls-67" d="M224.8,2.06c-4.15,10.52-9.18,21.21-9.52,32.99l-.8,27.74c-.04,1.55-3.14-.01-3.49-.82-2.8-3.71-4.27-10.07-2.99-14.97-2.06-2.01-2.88-5.05-2.49-9.12-1.33,9.63-3.26,18.88-5.79,27.73-1.81-1.03-2.98-2.83-5.07-4.51-.97,2.3.5,4.73-1.07,6.87-5.65-4.64-9.31-10.19-13.77-14.89-.62.05-1.12.04-1.26-.2-4.09-7.06-7.09-17.09-7.55-24.88-1.08-3.91-1.83-8.92-.99-12.97,17.55-6.69,36.11-10.95,54.79-12.97Z"/>
      <path class="cls-22" d="M164.83,17.15l1.57,3.47c-2.78,20.41,5.29,39.74,18.52,54.94l.26,2.33c2.06.78,2.47,2.06.43,2.78-4.92-1.71-9.9-2.92-14.93-3.63-.71.4-1.34,1.44-1.88,3.11-.03.7-.12,1.28-.44,1.47-1.62.94-10.17-1.24-12.39-1.9.13-.68.18-1.24-.05-1.38-14.04-9.33-28.43-19.64-33.91-36.33-.45-.92-.75-1.91-1.06-2.89,13.31-9.36,28.45-16.75,43.89-21.96Z"/>
      <path class="cls-99" d="M115.08,43.01c-.98,8.61-1.83,16.87.28,26,.23.98-.56,3.32-1.23,4.19-.59.76-2.14-.47-3.94-.7-.03,6.13,5.87,10.72,5.26,15.91-.41,3.55-17.36-7.03-22.09-8.91-1.23-.49-2.79,1.66-3.07,2.86-.4,1.75.94,4.58,1.86,5.64,1.53,1.29,4.32,6.16,5.33,8.66.12.31-.13.77-.49,1.28,1.61,4.8,3.79,9.33,4.84,14.55l-7.83-5.45c-1.69.05-3.23-1.13-4.62-3.55l-3.26-6.49c-2.05-.44-2.34-3.26-2-4.96l-.23-3.19c-2.92-.08-2.7-3.32.13-3.85.85-5.35,1.07-10.85.67-16.49l3.17-5.22c8.11-7.87,17.19-15.13,27.24-20.28Z"/>
      <path class="cls-74" d="M170,28c4.14,19.51,13.32,36.66,26.7,51.45.16.27.06.65-.2.98-.41.51-12,.37-11.32-2.54-1.78-.54-2.91-2.08-4.19-3.8-13.66-18.22-19.46-34.42-16.15-56.93,1.33-.45,2.44-1.69,3.92-1.88,1.34,3.67,1.69,8.8,1.25,12.72Z"/>
      <path class="cls-29" d="M171,28c-.28.87-.62.86-1,0-.49-4.15-1.56-8.35-1.25-12.72.4-.05.87-.1,1.25-.25.89,4.33.81,8.62.99,12.97Z"/>
      <path class="cls-22" d="M423,65l1.34.57s1.89,15.81,5.66,47.43c1.28,6.08,1.79,13.44,1,20,1.15,1.92,1.65,4.42,1.49,7.5,1.47,2.3,2.47,10.47,1.73,13.14-.12.45-.73.77-1.47,1.06,0,2.49-.46,4.62-1.38,6.39l-2.36-1.08c-3.43-12.1-7.22-24.46-13.36-35.54-7.48-13.5-13.1-15.35-27.71-17l-1.08-1.25c1.07-3.16,3.41-5.97,7.01-8.41-4.73-3.34-.82-4.95,2.9-6.03,6.39.5,5.46-1.03-2.79-4.59l-22.48-4.08c-2.06-.52-2.39-1.62-.67-2.87-.22-2.08,4.07-4.87,6.25-5.45,4.59-3.57,10.12-7.55,15.79-8.77,4.19-1.86,8.04-4.37,12.39-6.69-8.52-2.65-15.96-1.58-24.58-3.63,4.01-1.79,8.06-1.55,12.07-4.05-1.41-3.73-26.37-3.87-32.68-6.67,1.58-2.02,3.92-2.84,5.96-3.15l.83-2.15c6.1-.93,12.19-1.86,18.27-2.79l4.84,1.28c10.66,6.03,20.63,13.35,30.26,21.64,1.52,1.53.34,5.63,2.77,5.21Z"/>
      <path class="cls-22" d="M322.08,8.89c21.32,5.28,42.21,13.74,60.92,25.19-6.23,1.29-12.78,1.09-19.63-.59-14.01-1.26-27.55-.08-40.63,3.55l-8.76.88c-5.69,1.82-11.93,2.33-18.28,5.71.02-3.5,2.75-3.84,4.12-6.36-6.7-.8-16.37,5.76-23.17,6.08.94-2.1,1.94-4.5,3.24-5.39-.56-3.34,3.57-8.71,7.11-6.83,7.89-7.16,16.33-13.64,25.33-19.44,3.09-2.36,5.89-3.26,9.76-2.8Z"/>
      <path class="cls-156" d="M305.08,4.89c.57.14,1.19.31,1.77.4l.97,2.08c-3.37,4.1-6.98,7.98-10.86,11.65l-.15,2.84-9.83,9.28c-3.02,1.42-4.42,4.97-7.11,6.83.03-1.51-.75-2.88-1.98-3.73.68-2.98,2.74-5.31,6.19-7,.41-.22,1.58,0,1.37-.73-1.7-5.88-12.05,3.28-12.37,3.51-7.15,5.09-12.68,11.04-17.81,18.19,1.44-2-11.36,13.82-10.14,10.59,2.35-4.02,4.13-8.29,7.46-12.28,18.33-22,22.31-23.51,45.66-39.35,2.25-1.52,4.49-2.42,6.82-2.26Z"/>
      <path class="cls-23" d="M322.08,8.89c-11.42,4.21-23.63,16.85-35.09,22.24,2.9-4.24,6.02-8.77,9.98-12.12l7.98-8.16c4.09-2.02,6.39-3.64,6.91-4.83,3.52.51,6.8,2.02,10.23,2.87Z"/>
      <path class="cls-71" d="M425.2,64.34c1.81,9.17,2.92,18.43,3.8,27.66l2,21c-.28.87-.62.86-1,0l-4.06-30.99c-.77-5.89-1.08-12.01-2.94-17.01,0-.65-.23-1.41,0-2.46.21-.96,1.11-.11,1.5.44.2.28.4,1.21.7,1.37Z"/>
      <path class="cls-162" d="M311.86,6.02c.25.56,1,.97,1.13,1.85-5.82,3.65-11.17,7.03-16.02,11.14l9.89-13.72,5,.73Z"/>
      <path class="cls-131" d="M208,47l-.5,3.95c.44,1.9.27,3.29-.51,4.16-4.03,1.13-6.48,5.25-5.92,9.98.03,1.05-.77.84-1.36.51,1.28-5.77,1.73-33.02,7.91-35.13-.59,5.7.44,11.12.37,16.53Z"/>
      <g>
        <path class="cls-31" d="M236,1c.9.09,2.08,0,2.77.7-2.33,6.26-5.37,12.39-5.94,19.3-1.44,17.64-.92,34.95,4.21,52.68,3.55-5.24,5.36-10.21,8.1-14.9,5.24-7.17,28.33-37.57,37.79-36.24,5.84.82,5.27,7.69,1.16,4.69-3.44,1.67-5.51,4-6.19,7,3.5-1.25,4.1,1.01,1.98,3.73l.58,2.64,12.47-4.46c3.74-1.1,9.07-2.33,7.92,3.18l10.95-2.84,2.18,1.44,9.37-1c5.81-2.75,36.28-5.63,41.12-3.37,2.03.95,4.12,6.74,1.57,8.26l-1.09,2.39,19.79,2.59c6.8.36,9.71,2.53,8.72,6.5-4.82,1.41-2.43,2.36,7.16,2.85,4.69,1.13,7.86,1.9,3.49,6.09-2.01,1.93-8.73,5.56-11.23,3.78-5.54,2.11-11.03,4.82-16.46,8.11-1.77,1.81-5.57,5.47-8.44,6.54-.79-2.5-1.98-3.11-4.46-2.27-2.4-4.92-3.34-10.31-2.82-16.17-2.39-2.96-5.83-4.57-10.3-4.83l-.54-.85c1.75-7.02-3.22-9.02-14.91-5.98-2.32-3.94-6.27-4.16-11.87-.68l-18.87,9.19c-3.1-.29-6.29.32-9.57,1.85l-19.94,11.42c-.85-1.54-2.13-2.28-3.84-2.2-5.57,3.97-11.29,7.68-17.15,11.13-1.7-3.78-5.36-2.5-11.01,3.83l-11.54,11.17-19.9-12.37c-2.3.11-3.25.86-2.87,2.25-2-.62-11.95-4.04-12.53-5.27-.28-.6-.13-1.39.14-2.25-9.46-12.99-14.18-19.49-14.18-19.49-1.64-2.04-2.31-4.06-2.02-6.07l2.88.18c2.94,3.86,6.15,7.33,9.61,10.41.62-6.96,7.1-3.44,7.42,1.94.65-.48,1.03-2.08,1.15-4.78.67-3.9,1.9-8.56,6.13-5.71l1.12.03c1.68,8.86,4.98,16.84,9.9,23.95.6.51.6.14-.01-1.09-4.18-3.53-7.51-10.73-7.01-16.03l1.59-1.35.76-27c1.22-10.37,4.11-20.36,8.67-29.97l2.79-1.59c3.76-.41,7.43-1.44,11.2-1.06Z"/>
        <g>
          <path class="cls-119" d="M383,34.08c2.73.48,4.7,2.79,6.97,4.07l-23.94,3.66c-.75-1.97-.9-4.42-2.44-6.67l-25.41-.37c-3.36-.05-5.14-.64-8.07,1.19-5.05,3.16-10.87,3.37-16.14,1.96,22.2-7.1,46.02-7.87,69.03-3.84Z"/>
          <path class="cls-19" d="M179.81,53.07c4.35,9.55,10.82,17.88,17.56,26.58,2.39,3.08,6.64,4.22,10.17,5.47-.05-1.67-1.07-2.2-.8-3.69,8.53,3.29,16.49,7.98,24.41,13.85,7.59-7.06,14.15-14.62,23.47-20.53,1.76,1.39-.39,3.18-.5,5.35,6.61-3.07,16.56-13.49,22.95-13.19-.31,1.97-2.51,2.14-1.88,4.16l23.5-13.65c.77-.45,1.45-.78,2.2-1.06.6-.22,1.34.97,2.29,1.52,7.57-3.66,22.47-11.75,30.06-11.53.95.03,1.26,2.54,2.13,3.16,3.63.72,16.88-4.32,15.6,4.57-.73,5.1,5.13.97,9.8,6.68,3.02,3.69-1.35,6.62,2.99,15.67.94.78,3.86-.49,4.72,2.79l7.94-5.1c1.41-.81,1.62-.66.67.66-2.42,1.26-4.13,3.93-6.25,5.45l-.32,2.75c-2.72,2.01-4.9,4.47-6.54,7.37,8.12-2.8,25.33-7.3,32.88-2.21,2.22,1.5,1.01,2.29-1.34,3.57-7.75-.31-15.08.52-21.98,2.49-2.22,5.71-2.11,10.55.33,14.5-.22,2.72.8,4.5,3.07,5.32,1.77,5.49.7,11.16-3.21,17.03l13.69,7.5c5.7,4.37,7.75,7.4-.8,9.02,3.58,3.58,4.1,6.64,1.57,9.17,3.13,10.15,5.94,20.39,8.43,30.71.21,3.74-.29,7.24-1.51,10.51-.29.89-.66.89-1.12.04l-2.11-1.31c-2.08-9.01-5.11-17.76-9.11-26.24-2.4-6.21-3.93-12.89.31-18.58-4.12-3.61-9.58-9.33-.58-9.66-5.44-2.69-10.71-5.54-15.82-8.55l-.15-2.36c3.02-4.45,4.89-8.98,5.61-13.61-3.14-.62-4.21-3.43-3.21-8.42l-2.58-1.25c-.91-3.7-.46-7.8,1.36-12.31-4.28,1.61-8.44,2.45-12.47,2.51-1.81-1.89-1.61-4.14.58-6.73l6.74-9.1c-2.84.14-3.81-1.77-2.91-5.74l-2.36-6.44c2.72-6.79-.23-10.13-8.84-10.01-2.09-1.51-2.23-3.86-.4-7.05-4.48-1.3-9.38-1.2-14.69.3l-3.46-3.25c-9.04,5.21-18.3,9.54-27.79,13l-6.23.32-25.44,14.79c-1.92.73-3.33.27-3.7-1.78l-16.32,10.52c-1.65.09-2.32-1.04-2.95-2.49-5.26,5-10.66,9.8-16.2,14.4-6.47-3.74-12.87-7.64-19.19-11.72-.35,1.93-1.23,2.63-3.39,2.06l-17.36-6.07c-1.31.79-2.58,1.16-3.81,1.11-6.43-2.66-12.26-4.04-17.5-4.14-.07,1.95-.85,1.9-1.24-.05-4.33-11.42,19.23,4.04,16.39-2.26l11.1,1.68c-14.24-14.92-23.99-32.25-26.28-51.57h1c.16,3.84,2.51,7.59,3.16,11.79.78,5.02,3.74,9.09,5.64,13.28Z"/>
          <path class="cls-154" d="M229,21c-2.3,7.81-2.65,15.14-3.43,22.69-.72,6.88.36,13.45.41,20.32l.07,7.94c.03,3.05,1.75,5.88.51,9.11-5.02-23.16-4.33-39.2,1.44-62.06,1.13-.62,1.46.05,1,2Z"/>
          <path class="cls-75" d="M268,43c-11.53,11.82-20.66,24.18-28.79,38.28,4.31-13.55,13.54-23.99,23.04-33.97l4.75-5.31c.89-.46,1.19-.08,1,1Z"/>
          <path class="cls-115" d="M210.99,61.97c1.42,5.72,3.46,11.02,7.01,16.03v1.09c-7.67-5.51-8.43-18.72-11.01-23.98-.99-2.02-.11-6.67,1.01-8.11-.07,5.32,1.76,10.04,2.99,14.97Z"/>
          <path class="cls-129" d="M392.88,66.01c-5.52,2.45-10.43,5.99-15.79,8.77.3-.61-.09-.92-.67-.66,4.72-3.03,9.18-6.43,15.05-8.78.81-.37,1.7-.45,1.41.67Z"/>
          <path class="cls-126" d="M268,43c-.3-.37-.63-.7-1-1,2.5-2.03,4.04-4.36,6.62-5.38-1.83,2.73-3.8,4.52-5.62,6.38Z"/>
          <path class="cls-7" d="M229,21c.02-.8-.19-1.68-1-2,1.51-3.71,1.35-7.16,3.95-10.11-.64,4.53-1.85,8.36-2.95,12.11Z"/>
          <path class="cls-94" d="M284.09,27.23c-1.71,2.43-4.85,4.23-6.19,7-2.94-2.04,5.88-8.37,6.19-7Z"/>
          <path class="cls-93" d="M218.01,79.09v-1.09c1.43,2.03,3.31,3.7,5.18,5.87-3.76.77-3.49-3.55-5.18-4.77Z"/>
        </g>
      </g>
      <path class="cls-4" d="M85.8,109.01c2.04,11.32,7.04,20.67,11.09,30.95-3.1-3.55-5.28-7.76-9.99-10.58-2.5,4.49-1.43,8.87-2.19,13.75-1.54-1.92-.33-4.14-.7-6.12-.59-.06-1.05-.12-1.05-.18-.22-11.93.06-24.2.72-36.04,2.5.19,3.21,2.94,2.13,8.23Z"/>
      <path class="cls-16" d="M93.99,107.03c1.89,1.79,2.14,5.18,5.7,6.44,1.17.41,3.01,2.13,3.11,3.83-6.38-3.12-10.19-8.66-14.76-13.39-.13-2.41-2.36-4.47-1.94-6.92,2.86,3.24,4.72,7.04,7.89,10.04Z"/>
      <path class="cls-39" d="M96.98,97.93c-2.24-2.13-2.9-7.7-4.84-9.94-.36-.68-.49-1.89.82-2.03,2.58,7.38,7.46,12.91,13,17.83-3.36-1.5-6.52-3.52-8.98-5.86Z"/>
      <path class="cls-25" d="M431.37,161.08c.4,1.41.14,3.68,1.33,5.03.67-4.36-.73-8.06.9-12.23.49,6.27,1.77,19.6-.03,25.4-4.88-11.05-19.24-20.17-27.57-7.28-3.71,7.88-6.76,15.97-9.17,24.25,1.35,3.82-3.36,7.28-1.71,1.7l-.11-6.98c-.12-7.96-9.63-33.79-8.86-35.14.39-.68,1.23-1.3,2.39-2.13l-5.33-7.45c2.84-1.03,5.43-.31,7.79-2.32-5.96-5.74-13.2-7.96-19.96-12.18,2.13-4.65,7.25-12.35,4.44-16.45-.58-.84-2.44-.75-3.74-2.31,2.2-3.46-2.39-6.6-2.01-8.74l2.15-12.07c8.75-3.03,16.84-1.59,25.37-2.68-12.83-4-24.96.12-38.03,4.55,2.62-5.59,6.86-10.41,11.63-13.82-.28.36-.38.66.13.75,13.01,2.39,25.57,2.53,36.26,12.65-5.61.2-10.34-1.19-14.32,2,1.29.48,4.56-.22,4.06,1.22-1.71,3.86-5.96,5.45-8.92,8.84,6.75,1.35,14.14.81,19.8,5.37,11.56,9.32,19.91,36.31,23.52,50.02Z"/>
      <path class="cls-145" d="M433.57,179.28l.43,2.72c-3.23-5.58-6.39-11.41-12.7-14.21-5.8-2.57-11.41-.75-14.3,4.21-.3.52-.64.5-1,0,1.44-5.35,7.19-8.25,13.02-6.92,7.5,1.71,13.44,7.27,14.54,14.2Z"/>
      <path class="cls-6" d="M407,172c-4.42,7.57-6.45,16.01-9.19,24.29l-.98-.04c1.82-8.38,3.75-17.66,9.17-24.25h1Z"/>
    </g>
    <g>
      <path class="cls-91" d="M93.84,232.34c1.72,1.2,1.58,5.52,1.11,7.66,1.43,1.38,2.79,2.14,4.08,2.3,4.13,5.34,7.65,11.09,10.57,17.23l-.6,3.47-.11,12c6.57,15.31,15.54,28.77,26.89,40.36,1.41-.6,2.06-.21,1.96,1.18,2.63,1.07,4.87,7.55,4.07,10.29-.3.43-.61.78-.97.84-3.88.67-15.23-8.28-16.57-12.56-3.49-3.84-4.9-10.69-9.32-13.87-9.28-13.97-18.81-29.88-21.69-46.12-1.86-3.08.32-7.58-.5-11.01s-2.36-5.73-.56-9.21c.32-.62-.68-2.31.28-2.87.31-.18.92.42,1.35.3Z"/>
      <path class="cls-58" d="M401,399c1.21,4.41-1.31,9.69.92,14-.99,2.86.67,5.69-2.66,8.5-3.25,2.74-6.48,6.22-9.14,9.38-12.53,11.03-26.89,18.55-42,24.92l51.42-84.27c1.48,10.13-.89,18.91,1.45,27.48Z"/>
      <path class="cls-158" d="M435,227c-.27,2.71-3.93,23.89-3.96,24-1.75,6.19-3.76,12.38-5.09,19.11-1.89,9.59-8.32,16.97-17.11,20.68-.93.39-2.02.07-1.84-.79,1-1.09,2.65-2.47,4-2.1.07-2.05,1.34-3.73,3.83-5.02,0,0,1.71-2.15,5.13-6.45,4.93-15.71,8.64-31.73,11.14-48.06l1.9-1.36h2Z"/>
      <path class="cls-44" d="M434,182h1.03c.62.06,1.12.16,1.19.38,1.14,3.66,2.67,13.07.82,16.39v9.23s-2.07-2.09-2.07-2.09c.36,6.08-.44,16.44-1.97,21.09.37,2.84-.35,5.73-1.05,8.9l-7.33,33.66c-1.76,8.1-6.65,14.76-13.62,18.34-1.77.69-4.54,1.54-8.28,2.56l-.66-1.47c-.13-1.37-.18-2.99.95-3.99,5.09-1.13,10.09-3,13.53-7.53,2.43-3.2,1.21-7.02-.68-10.36l-1.66-2.94-.5-1.08c12.68-12.21,13.91-36.44,12.56-53.19l.84-.9c-1.98-3.3-.06-8.75,2.78-11.09-.66-2.57-.61-4.85.16-6.84-3.27-9.44-10.11-21.2-19.81-10.19-1.53,4.69-2.99,9.4-4.38,14.13l.04,1.28c2.66.69,1.75,5.13-.86,5.72.64,5.46.86,11.52.82,17,.94,2.4,1.88,4.94,2.82,7.61,4.39,4.45,6.14,8.89,5.25,13.29-5.31,7.64-5.3,18.56-3.9,26-1.54,1.21-3.51,1.01-5.16-.3-2.27-1.82-.19-17.52,0-17.92,6.32-13.69-1.83-15.02-4.57-32.77-.52-3.41-.76-6.36-1.43-9.52-.52-2.46,1.29-5.61-.77-7.37-.05-.44-.36-1.3-.25-1.73,1.34-8.37,3.74-17.6,9.19-24.29,6.62-14.12,24.93-2.11,27,10Z"/>
      <path class="cls-121" d="M427.08,209c3.01,11.21-1.73,36.55-6.61,47.57-1.43,3.23-4.48,5.06-6.29,7.6-1.36.48-3.04.8-4.21,1.73-3.24,2.2-1.1-10.2-1.07-13.83.03-3.9.59-7.15,3.08-10.24,1.95-2.41,2.52-6.55.11-8.83-4.46-4.22-5.25-8.9-6.29-14-.18-1.94.6-1.94,1.18,0,1.82.67,3.01,2.46,3.56,5.37,6.72,7.59,9.19,12.76,3.28,22.03-1.25,3.12-1.82,6.44-1.96,9.8-.29,6.75,2.01,3.94,4.38-.31,4.19-7.5,10.54-37.27,7.2-44.91-.26-.6-.81-.98-1.45-1.09-6.19,1.33-10.72-2.86-3.49-5.64,3.5-1.35,9.29.54,8.57,4.75Z"/>
      <path class="cls-86" d="M108.77,221c-.2,1.3.9,3.8-.82,4.06-5.66-8.58-9.97-9.63-12.92-3.14.12,2.16-.34,3.3-1.37,3.45-4.28,3.27.87-14,3.53-16.53.06.41-.39,1.21.11,1.87,8.76-.76,9.48,5.15,11.47,10.3Z"/>
      <path class="cls-9" d="M96,225c2.81-.13,2.55,11.5,2.02,13.16,0,2.28-1.06,3.13-3.07,1.84-.49-2.54-1.31-5.04-1.11-7.66.18-2.32.27-4.68-.18-6.98-.28-1.42,1.1-2.36,1.37-3.45.51.78.83,1.8.97,3.08Z"/>
      <path class="cls-104" d="M108.94,228.09c1.65,5.04,4.64,9.71,6.06,14.91s2.28,10.07,3.96,14.96c.83,3.25.88,6.58.16,10,.09,5.61,1.43,10.99,4.02,16.13l2.2-.13,3.71,6.06c2.28,7.7,5.17,15.25,7.96,22.76,1.09,3.6-.26,3.37-3.01,1.45-6.21-4.34-22.86-31.94-24.45-39.69-.11-.56.14-1.1.44-1.55l-.95-.6-.05-9.4c-2.84-6.53-6.97-12.76-10.7-19.27-1.07-.02-1.56,1.33-2,2.02-2.09-1.77-1-3.93-1.35-5.75.82.12,1.08-.88,1.08-1.95l-.02-13.05c-.62-14.38,9.99-4.76,12.94,3.09Z"/>
      <path class="cls-70" d="M137.02,312.79c.43,1.17,1.56,2.34.73,3.74-2.61-.42-5.06-1.95-6.9-4.37-7.48-9.81-13.7-20.13-20.04-30.72-1.36-2.27-1.11-4.56-1.91-6.45-.48-1.92-.11-2.59,1.11-2,.11,8.23,23.34,42.82,26.56,41.9.58-.17.53-1.75.45-2.11Z"/>
      <path class="cls-112" d="M110,273c-.77.37-1.05,1.2-1.11,2-1.61-3.79-1.13-8,.11-12,1.45,3.32.95,6.38,1,10Z"/>
      <path class="cls-108" d="M411,287.9c-1.33.68-2.41,1.96-4,2.1-1.49.14-2.95.66-3.96,1.8-.77-.16-1.72-.46-1.87-1.31-.11-.62.74-1.08.89-1.51,5.97,2.08,8.24-4.39,8.95-1.09Z"/>
      <g>
        <path class="cls-97" d="M403,285c1.81,1.51,1.38,3.37-.95,3.99.62.65.95,1.59.99,2.81,2.13,1.18,2.84,3.34,2.14,6.5-.02,4.13-.13,11.27-3.18,13.7l-.5,16.57-.5,70.43-2.39-1.45c-.67-6.47-.91-12.97-.7-19.49l-45.04,73.82-4.74,3.92c-35.8,15.09-76.46,17.21-114.88,8.02-20.16-4.82-39-11.52-56.64-22.3-1.48-9.31-2.31-18.13-3-27.45-.5-6.69-1.73-12.93-2.6-19.07-1.6-4.65-2.8-11.49-.66-15.99,20.14,23.11,42.29,43.59,68.66,59.29,21.65,12.89,54.14,12.1,72.77-5.86,25.06-24.15,47.43-51.54,65.37-80.56,5.98-12.72,11.96-25.67,16.86-38.88,2.01-6.95,3.77-13.99,5.28-21.15,1.13-3.63.72-7.68,3.41-10.89.67,1.6.15,2.9.3,4.04Z"/>
        <g>
          <path class="cls-142" d="M117.95,246.94c8.64,22.12,16.52,44.6,23.63,67.44,14.33,50.52,46.4,84.58,88.77,114.56,28.48,20.16,61.39,21.51,86.21-5.06l33.5-35.91c9.19-11.8,18.64-23.7,26.04-36.84.76-.59,1.08-.29,1.04.76-4.15,7.33-7.57,14.81-13.05,22.25-15.62,21.19-32.37,41.09-51.55,59.14-21.07,19.82-52.9,18.64-76.49,4.73-25.71-15.17-46.14-35.26-65.79-57.93.03,5.43.08,10.23.74,14.93-.81.32-1.02,1.2-1,2l-2.95-20.38-12.98-20.54c-5.3-8.4-7.79-17.98-11.07-26.99-.28-.78-.98-1.47-1.19-2.27-.89-3.44-2.44-7.23-4.07-10.29-1.3-.3-1.54-1.54-.73-3.74-5.39-5.45-8.97-15.15-7.96-22.76-5.07-7.67-8.48-17.73-8.06-27.03-1.39-.65-2.07-2.33-2.04-5.04-4.12-2.42-6.04-10.67-3.96-14.96-.24-1.03.13-1.36,1.12-1l1.83,4.94Z"/>
          <path class="cls-138" d="M394,313c-3.58,13.72-9.92,26.63-16.86,38.88-.33-.27-.68-.52-1.04-.76,6.98-12.39,12.69-25.63,16.9-39.13.89-.46,1.19-.08,1,1Z"/>
          <path class="cls-68" d="M394,313c-.3-.37-.63-.7-1-1l6.28-20.15c.41-.31.75-.04,1.23.13,1.11.38-.05.7-.45,1.29-.66,7.23-4.4,13.38-6.05,19.73Z"/>
          <path class="cls-84" d="M352,439c-.89.46-1.19.08-1-1l14.98-44.89c2.25-6.74,5.25-12.7,7.02-19.11.29-.69.63-.67,1,0-1.02,6.7-3.83,12.12-5.91,18.17l-16.09,46.83Z"/>
          <path class="cls-155" d="M374,374h-1c1.62-3.67,2.62-7.41,4.76-11.11.06,4.4-1.21,8.35-3.76,11.11Z"/>
          <path class="cls-33" d="M352,439c-.81,2.34-1.02,4.85-2.72,7.11-.66-3.36.93-5.75,1.72-8.11.3.37.63.7,1,1Z"/>
        </g>
      </g>
      <path class="cls-50" d="M129.06,290.03c-2.36-1.47-4.18-3.77-5.91-5.93-2.6-5.19-3.94-10.62-4.02-16.27-.24-2.82.39-4.43,1.88-4.83,1.63,9.26,5.38,18.01,8.06,27.03Z"/>
      <path class="cls-12" d="M121,263c-2.5,5.95-.41,13.36,2.64,19.36.4.78.5,2.06-.5,1.74-6.81-8.52-4.55-17.32-4.18-26.13.56,1.63,1.72,3.23,2.04,5.04Z"/>
      <path class="cls-83" d="M430.02,191.06c2.04,2.37,1.73,6.28,2,9.82-1.16-.11-.81-1.3-2.04-1.59-.84,3.47-1.76,6.59-2.89,9.71-4.08-3.05-5.19-4.76-11.16-1.33,2.72,1.09,5.48-.63,7.79.76,2.63,1.58,2.39,5.54,2.37,8.57-.08,9.75-3,44.59-15.94,46.35-.75-7.47-.18-14.26,3.09-20.35,6.94-12.94-4.89-10.7-6.22-24.01-1.27-5.46-1.93-11.13-2-17-.02-2.49.57-4.68.82-7,.55-.18.89.72.84,1.1-.09.77.99-14.15,4.44-14.31,6.38-12.93,16.34-.21,18.91,9.27Z"/>
      <path class="cls-17" d="M430.02,191.06c-3.47-4.03-4.89-13.72-12.42-13.62-2.9.04-5.09,1.66-6.49,4.35-1.32,1.28-1.57.76-.91-.93,1.48-2.24,2.52-4.64,5.12-5.15,9.12-1.81,12.82,7.95,14.69,15.35Z"/>
      <path class="cls-14" d="M411.11,181.8c-2.38,4.57-3.98,9.42-4.25,15.26-1.24-.43-.75-1.39-1.04-2.05.54-4.93,1.6-9.94,4.38-14.13l.91.93Z"/>
      <path class="cls-98" d="M407,219h-1.18c-1.13-5.6-.76-11.2-.82-17,.6-.11,1.24,1,1.12,1.94-.71,5.46.39,10.18.88,15.06Z"/>
      <path class="cls-96" d="M107.95,225.06l.99,3.03c-1.89-.64-6.84-11.56-10.79-9.2-2.12,1.27-2.04,4.19-2.15,6.1-.88-.77-1.05-1.96-.97-3.08.52-2.09,1.47-6.01,4.66-5.39,4.27.82,7.12,5.03,8.26,8.54Z"/>
      <g>
        <path class="cls-108" d="M394,198l.9,2.04c1.05-.13,2.1-.81,3.17-2.02,2.81-1.02,3.7,1.19,2.67,6.61.7,6.39,1.91,12.66,3.63,18.79,5.03,8.71,5.81,16.99,2.35,24.86-.98,5.34-1.14,10.66-.48,15.95,1.51.52,2.76,1.07,3.74,1.67-1.27-3,2.4-2.47,4.21-1.73,2.61-1.34,4.56,3.5,5.12,5.81,1.34,5.55-.07,8.03-4.06,11.71-2.47,2.28-9.95,6.59-12.24,3.3-1.11-.12-1.32-1.01-.64-2.65.12-.46-1.38,8.94-1.64,9.34-.17.26-.75.25-1.44.16.36.25.63.49.6.67-1.15,6.2-4.38,14.02-6.88,19.48-2.87,13.79-9.04,27.46-16.9,39.13-5.71,12.61-14.38,25.27-23.54,35.8-.53.61-1.46.88-2.5,1.05-15.6,18.08-31.72,34.59-52.84,48.02-17.46,11.1-54.36,2.35-68.79-11.31l-46.22-42.9c-21.09-21.08-33.55-48.69-43.63-76.34-6.12-19.93-13-39.43-20.63-58.5-1.59.05-2.43-3.59-1.83-4.94-4.1-6.95-6.12-14.29-6.05-22-.48-.21-.9-.45-1.09-.82-1.41-2.69-4.12-8.06-3.07-10.2-3.55-5.77-2.23-14.24,1.37-20.06-.37-2.68.62-4.14,2.97-4.36l.88-1.48c-1.93-5.27-3.57-10.61-4.92-16.04l.91-.87.89-.56,8.89,4.69,1.22-1.32c-1.51-3.14-2.5-6.16-2.98-9.06-2.53-4.64-4.34-12.42-4.17-17.75.01-.4.47-.78,1.04-1.16-.91-3.92-.83-8.06,0-12-.46-.78-.42-1.8.11-3.08.65-.83,2.54-.73,3.19-1.26.84-.69.41-1.87.47-2.71-1.28-2.81-.77-4.95,2.63-4.91.38-2.83.29-5.94-.28-9.33.35-1.41,1.15-2.71,2.4-3.91.19-8.17.94-10.31,9.18-12.19.25-2.76,1.42-4.46,3.51-5.09,1.09-4.13,4.09-5.88,8.38-6.16,4.47-.21,9.03-.12,13.51.09.23.01.48-.35.74-.81,5.29,1.46,10.66,2.31,16.13,2.54-1.29.5-2.75-.41-1.94-1.98-1.73-6.15,16.66,2.8,18.93,2.27.44-.1.18-1.02,1.05-1.7,7.29,2.08,13.82,4.6,20.96,7.28-.33-1.87-2.65-2.6-1.11-4.35,7.71,4.16,14.25,8.63,21.36,13.57,6.7-6.62,12.7-13.22,20.66-18.39-.06,2.56-1.91,3.25-2.62,6.76l22.58-14.84c-.11,3.02-2.93,3.79-3.64,6.51l27.21-15.69,3.88-.14c10.66-.38,20.43-10.26,31.71-13.76l2.81,4.03c5.1-1.05,10.98-3.26,15.47-.06,1.84,1.31-.42,4.62-1.11,6.49,3.71.8,8.2.5,11.12,3.45,2.5,2.54-.76,6.72.18,9.17,1.34,3.47,3.65,5.96,1.24,10.27,15.62-7.59-5.81,11.05-4.94,15.86l14.73-4.08-3.24,13.36c.45.91,2.28.62,3.08,1.59,1.76,2.12-.08,5.36.25,7.68,9.02-.2-.91,13.11-2.51,17.36,6.71,3.65,14.03,5.23,19.11,10.66-2.94,1.45-5.43.2-8.14.9,1.41,3.01,6.89,5.96,5.85,8.06l-1.68,3.37c-4.43,8.91,10.06,27.76,10.79,42.18Z"/>
        <g>
          <g>
            <path class="cls-147" d="M168.8,80.15c.39-.1.84.11,1.24.05.93.79,2.64,1.13,2.95,3.01-5.12.74-46.19-7.9-36.36,5.1-1.47.18-3.14-.11-4.9.52-.49,1.64.3,3.07.13,4.92-2.85.12-6.44-.73-8.6,1.54-2.65,2.78-1.4,7.03-.84,10.32-1.39.36-2.95.43-3.46,1.16-1.79,2.57,2.78,10.83,1.46,13.24-1.53-.07-3.16-1.54-3.98-1.21-1.14.46-.61,2.31-.67,3.15-1.59-1.17-1.12-3.66-1.26-5.86,1.31-.18,2.51.41,3.44-.01.74-3.51-1.08-7.04.06-10.1.89-2.38,3.06-3.83,2.25-7.05-1.81-7.23,7.84-6.66,8.7-8.52.34-.73-.15-3.31.64-3.61,2.93-1.13,4.28-2.97,5.7-5.49,9.23-3.87,11.79-.76,20.55-2.06-9.07-5.61-17.76-11.81-24.96-20.13-1.4-1.62-12.84-17.82-8.88-17.11,6.9,14.28,18.16,25.67,31.91,34.2,4.79,2.97,9.48,5.31,14.88,3.95Z"/>
            <path class="cls-30" d="M106.81,164.07c.75.85.85,1.55.29,2.1.2,7.01,4.86,13.09,5.99,20.67-1.73.28-2.91-.57-4.86-.36,1.46,3.62-1.58,5.26-2.44,8.07-1.19,3.86-1.36,10.55.12,14.45.54,1.46.26,1.7-1.01.76-5.78-17.55,3.01-18.78,1.44-25-.19-.74,2.44-.97,3.79-1.26l-6.3-21.17c1.94-.65,2.1,1.51,2.99,1.76Z"/>
            <path class="cls-78" d="M112.11,125.92c-.26.91.3,2.21-.11,3.08-.82,3.95-.9,8.06,0,12,0,6.46.73,12.93,3.13,18.92.36,1.83-.26,1.72-1.21.08-3.27-11.03-6.72-24.16-1.8-34.08Z"/>
            <path class="cls-140" d="M107.1,166.17s-1.98-2.98-.29-2.1l10.78,5.32c-.79-3.53-2.79-6.42-3.68-9.39l1.21-.08,4.97,12.43c-5.3-.68-8.63-4.52-13-6.18Z"/>
            <path class="cls-25" d="M112,141c-1.79-3.39-1.64-8.52,0-12v12Z"/>
          </g>
          <g>
            <path class="cls-37" d="M104.9,209.75l1.01-.76c1.37,3.6,3.07,7.06,4.16,11.02,0,1.53-.05,2.07-1.3,1l-1.53-.33c-1.34-3.7-3.38-6.28-6.11-7.76-4.55.08-5.86-1.27-3.94-4.07,2.61-2.48,4.68,1.59,7.71.91Z"/>
            <path class="cls-26" d="M398.06,198.02l-3.77,8.02c.58-2.76-.16-5.38-.3-8.04l1.12-.04c-.12.72-.46,1.61.7,2.12,0-1.85.77-2.73,1.01-3.83.31-.86.64-.84.98.04,1.87.08,1.95.86.25,1.73Z"/>
            <path class="cls-3" d="M350.06,387.97c-13.13,16.87-26.67,34.21-44.12,47.78-15.73,12.23-46.34,13.76-65.71,1.93-24.27-14.83-45.79-32.97-64.48-54.27-33.02-37.62-41.93-93.57-57.8-136.46,1.34.16,1.61,1.44,2.17,2.78,19.16,46.11,29.6,99.34,66.61,133.62l41.94,38.85c8.62,7.99,18.29,12.71,29.79,14.49,15.91,2.45,26.03,5.11,39.59-3.54,10.77-6.87,20.27-14.7,29.48-23.54l22.54-21.63Z"/>
            <path class="cls-53" d="M306.01,196.92c.83.28,3.65,1.45,2.72,2.64-2.61,3.31-6.13,5.32-9.08,8.17-1.55-.04-2.18,1.25-.47,1.33l-.12,1.17c-3.95,1.65-7.06,3.93-9.35,6.85-7.29,6.44-12.12,15.1-19.18,23.02-10.22-12.98-2.69-17.92-4.14-21.08-2.42-5.26-10.79-4.4-8.42-13.03.55-.5,1-.86,1.12-.78,6.72,4.91,5.92,8.16.43.72-.09-.12.21-.52.61-1,4.43,1.95,9.04,2.55,13.87,2.24.54,2.07,2.68,2.54,6.42,1.41,0,0,7.67-4.14,23.02-12.42l2.56.73Z"/>
            <path class="cls-43" d="M242.93,381.03l4.04,1.75c2.5-.08,4.51.32,6.03,1.22l.23-1.02s13.59-.99,40.77-2.98c1.66-.86,3.44-1.82,5.33-2.9.82-.67,2.71-1.11,3.38-.16-2.88,6.73-9.47,10.36-16.66,11.19-13.41,1.54-26.47,1.95-39.94,1.6-2.1-.05-3.86-2.35-4.4-3.71-.7-1.74-.8-4.26,1.21-4.99Z"/>
            <path class="cls-45" d="M162.86,231.77l2.27.73c4.15,12.57,21.8,12.49,26.42.19l2.37-.64c2.55-2.59,7.87,3.3,8.05,5.94-.39.83-.15,1.97-.67,2.78,0,.6-.03,1.07-.19,1.12-6.36,1.88-28.01,8.02-33.25,6.04-.37-.14-.63-.55-.86-1.03-4.69-1.27-9.44-2.55-12.16-6.67-2.55-.29-2.59-4.28-1.15-6.56s9.11-6.59,9.17-1.88Z"/>
            <path class="cls-102" d="M214.19,218.94l5.62,9.19c2.9,4.74,1.76,10.84.44,16.43l-13.32-8.6c-.82-.08-2.53,1.83-2.86,0-1.7-2.4-2.1-4.36-1.23-5.88-.12-1.16.58-2.36,2.09-3.62-1.56-2.15-.74-3.36,1.94-2.75l.43-.79c-1.98-1.15-3.76-2.38-5.33-3.68-1.71-.48-1.72-.84.02-1.25,2.38-2.3,10.45-2,12.19.94Z"/>
            <path class="cls-92" d="M349.97,218.96c1.73,8.51-2.76,7.88-3.97,10.04-5.78,3.05-13.6,2.81-20,2-1.87,1.58-7.09,1.52-9,0l-13,.08c-2.23.01-2.65-1.92-2.92-3.21-.16-.45-.28-.89-.25-1.33.06-.75,9.75-11.38,11.16-7.47l2.44.52c7.05,13.44,24.41,9.66,28.33-4.15l2.38-.44c2.69-2.9,6.9.66,4.83,3.95Z"/>
            <path class="cls-159" d="M352,204.92l.99,3.16c1.73,1.09,4.86,2.06,4.85,4.84-.01,2.75-2.22,4.62-2.75,6.8-2.28.48-3.36-1.07-3.24-4.67-2.3-1.13-3.53-2.46-3.69-4-1.35-.48-2.37.06-3.14,1.4-10.98-1.92-22.3-.61-32.67,3.42l-3.36-.77c1.72,2.65-5.91,11.03-8.21,7.79.23-2,1.3-4.04,2.14-5.91-.08-.9-.04-1.63.13-2.17,3.89-3.98,9.49-5.57,14.95-6.73,5.59-2.27,13.07-4.49,19.03-2.84l14.97-.31Z"/>
            <path class="cls-159" d="M172.94,221.16c2.35-.38,4.33-1.11,5.94-2.18l1.47,1.36,18.15,1.82c2.61.43,4.74,1.5,6.38,3.21-.8,1.87-1.48,3.45-2.03,4.72,1.29,4.76,3.05,4.61,1.23,5.88l-.85.1c-1,.9-1.56.54-2.26-.39-3.85-6.21-5.47-7.81-4.85-4.8l-2.18,1.16c-2.82,1.84-3.18-1.17-2.78-3.76-3.72-2.82-21.6-1.48-27.06-.71l-3.03-1.43c-.51,1.97-2.5,3.33-5.97,4.08-3.14,1.88-4.2,2.89-1.93,6.2.66,2.84.22,3.98-1.32,3.42-3.61-2.31-7.17-5.5-8.42-9.85,9.38-5.56,19.44-7.99,29.53-8.83Z"/>
            <path class="cls-116" d="M292,357c5.29-.58,12.16-1.04,17.48-.47.08,0-.16.65-.48,1.47l-12.92,3.15c-1.86.34-2.56-.04-2.08-1.15-.38-.99,1.99-.92,1.86-.9-3.41.43-5.26.56-8.68.32-.71-.05-1.56-.03-2.18.35.01.56,0,.99-.08,1.01-11.17,2.07-23.59,2.54-34.92,2.22l-.58.87c4.96.41,9.82.79,14.58,1.13.87.29.86.64,0,1.03-10.64.68-21.33,1.13-31.92-.15-1.76-.37-2.01-.96-.77-1.75,2.26-.07,4.43-1.4,7.05-1.71l37.65-4.37c5.65-.66,10.84-1.04,15.99-1.04Z"/>
            <path class="cls-133" d="M202,218l-.02,1.25-1.24.46c3.38.56,5.42,1.9,6.15,4-2.7,2.41,2.59,1.97-4.03,6.37-.16-.57-1.15-.88-.93-1.69.29-1.05.89-1.57,1.78-2.42-10.03-3.65-20.45-5.67-30.77-4.81.72-1.7,3.04-.95,5.41-2.14-2.36-3.88-5.4-6.6-8.4-9.13.24-.6.45-1.06.58-1.04,7.97,1.36,16.96,3,24.64,5.36,3.86.27,6.14,1.53,6.84,3.79Z"/>
            <path class="cls-10" d="M161.05,226.14c3.63-.88,5.03,4.25,1.81,5.63-.92-1.91-7.57,2.58-8,3.58-.5,1.16-.84,3.62-.02,4.86.21.94-.86,1.06-1.39,1.13-1,.14-1.11-1.18-1.63-1.51,2.19-.6-3.9-5.05-1.28-8.4s6.86-4.46,10.51-5.29Z"/>
            <path class="cls-150" d="M294,379c.87.28.86.62,0,1-3.73.81-7.64,1.65-11.95,1.95l-29.05,2.05c-2.66-.32-2.54-1.24,0-2l31.08-1.98,9.92-1.02Z"/>
            <path class="cls-11" d="M326,203.81c2.84-.43,4.07.06,3.7,1.47-4.6.85-9.17,1.42-13.7,1.71-9.13,1.45-19.08,3.72-26.29,10.09-.97.24-.82-.92-.07-1.51,3.12-2.05,6.19-5.31,9.54-6.52,8.64-3.12,17.76-4.31,26.82-5.25Z"/>
            <path class="cls-48" d="M167,246.88c7.22,1.95,26.76-3.66,34.3-6.13,1.25-.41,2.95-.33,4.77-.72-1.36,2.93-4.18,2.54-6.85,3.19-7.65,1.88-29.08,8.72-34.22,4.33.45-.88,1.3-.49,2.01-.68Z"/>
            <path class="cls-128" d="M311.99,219.07c-4.54,1.94-7.25,7.44-10.91,8.8-1.41.03-2.38-.53-2.02-2.15.19-.85,1.59-1.84,1.71-2.84,3.58-1.46,5.31-5.34,8.21-7.79,4.39-2.02,6.87,1.68,3.01,3.98Z"/>
            <path class="cls-34" d="M348.16,211.04c8.77,2.03,4.33,5.96,6.93,8.67-.34,1.36-2.39,3.67-3.72,2.79-.38-.95-.89-2.65-1.4-3.55-1.08-1.91-2.49-3.63-4.83-3.95-4.45-2.41-1.44-5.05,3.01-3.97Z"/>
            <path class="cls-103" d="M294,360c.4.78,1.26,1.06,2.08,1.15-10.48,2.56-21.29,4.19-32.08,4.87v-1.03c-.87-.28-.86-.62,0-1l.7-1.16c8.45-.98,16.88-1.59,25.3-1.84-.37-1.65,2.81-1.85,4-1Z"/>
            <path class="cls-38" d="M116.12,242c-.41.28-.79.62-1.12,1-2.51-.47-7.13-10.26-7.25-12.31-.06-.96.59-1.83,1.19-2.6-1.13-1.15-1.46-2.16-.99-3.03-.29-2.29-.02-3.64.82-4.06.08-.51.87-.87,1.3-1l6.05,22Z"/>
            <path class="cls-118" d="M203.22,236.06c.14.92-.95,1.29-1.25,1.92-3.14-1.34-5.11-4.31-8.05-5.94.49-1.43-.23-3.84.96-5.16,2.45-2.71,6.88,7.73,8.34,9.19Z"/>
            <path class="cls-153" d="M337.03,205.23c-6.37.13-12.76,1.51-19.03,2.84-.27-.86-1.17-1.13-2-1.07,4.24-.67,8.55-2.38,13.02-2.2-1.29-1.44-2.3-.68-3.02-.99,3.7-.39,7.75-1.47,11.03,1.42Z"/>
            <path class="cls-77" d="M326,231c3.62.25,6.96.58,10,1-.9,1.94-25.75.85-29.07.66,3.8-1.6,7.22.37,10.07-1.66,2.43-.2,6.55-.25,9,0Z"/>
            <path class="cls-52" d="M317,354c.75-.26,1.05.12,1,1l-9,3c.07-.8-.91-1.01-1.95-1.01h-15.05c-.34-2.11,13.32-.26,17.84-1.32l7.16-1.67Z"/>
            <path class="cls-59" d="M230.48,252.08c-.32-6.94-2.42-12.57-4.4-19.97,5.28,4.82,5.42,13.19,4.4,19.97Z"/>
            <path class="cls-161" d="M346,229c-2,3.56-6.17,3.12-10,3-3.5-.11-6.99.66-10-1,6.73.49,13.35-1.03,20-2Z"/>
            <path class="cls-66" d="M226.16,198.19c1.34.69,5.87,15.89-.25,17.91,2.08-5.96.89-11.05.25-17.91Z"/>
            <path class="cls-109" d="M235,298c-2.2,1.93-.51,5.35-1,8h-1c.13-6.03-.42-12.01.39-18.29,2.79,3.18,1.57,7.08,1.61,10.29Z"/>
            <path class="cls-56" d="M162,207c-1.07-.05-2.6-.25-3,1-5.41-.36-10.67-1.55-16.12-2.41-1.49-1.58,22.7.84,19.12,1.41Z"/>
            <path class="cls-24" d="M260.13,204.94c1.83,3.95,5.97,5.33,9.07,9.02-5.33-.78-7.26-5.71-11.24-7.97.25-.9-.06-2.07.03-3-.76-1.68-1.14-4.87,1-4-.29,2.28.22,3.97,1.13,5.94Z"/>
            <path class="cls-47" d="M352.99,208.08c-1.25-.79-3.06-.02-5.06-1.9,1.62.27,2.87-.82,4.07-1.27,1.68-.28,3.9-.07,6.07.48-1.65,1.77-4.11.83-5.08,2.69Z"/>
            <path class="cls-141" d="M253,382v2c-3.52.25-8.1.18-10.07-2.97,3.73,1.17,6.9,1.17,10.07.97Z"/>
            <path class="cls-13" d="M259,199c-1.59.65-.87,2.65-1,4-1.56,1.79-1.11-10.85-.63-12.13,1.24,2.62,1.98,5.4,1.63,8.13Z"/>
            <path class="cls-2" d="M318,355c-.3-.37-.63-.7-1-1,2.48-.58,4.62-3.32,8.2-2.75-1.89,2.03-4.72,2.92-7.2,3.75Z"/>
            <path class="cls-72" d="M299.33,377.1c.47,2.65-3.45,2.49-5.33,2.9v-1c1.84-.19,3.52-2.93,5.33-1.9Z"/>
            <path class="cls-151" d="M231.31,364.12c.33.55.6,1.13.77,1.75-2.36-.29-4.91.16-7.18-1.53,2.57-.8,4.47-.16,6.41-.22Z"/>
            <path class="cls-32" d="M303.05,214.8c.62-.24.72.24.91.77.3.85-.85.97-1.04,1.4.22-.46-.07-.96-.58-.92-1.31,1.14-1.71,2.68-3.96,3.17-.41-3.11,3.37-3.09,4.67-4.42Z"/>
            <g>
              <path class="cls-160" d="M239.88,324.02c11.67,5.23,22.11.48,28.12.87,1.24.76,2.86.46,4.87-.9,1.45.75,4.53,2.02,4.98,3.9-3.2,7.09-7.89,13.3-13.3,18.51-3.59,3.47-7.67,3.35-11.61.78-18.04-11.8-20.38-19.96-19.94-41.18.28-.87.62-.86,1,0,.87,10.58,2.78,15.78,8.73,24.64.22.33-5.15-6.08-2.86-6.62Z"/>
              <path class="cls-117" d="M239.88,324.02l2.86,6.62c-3.99-3.38-7.47-7.6-7.8-13.63-.22-3.92-1.58-7.47-.93-11.01-.71-.94-.84-7.43-.26-8,.22-.21.7-.15,1.26,0,.07,5.64.21,22.17,4.88,26.02Z"/>
              <path class="cls-35" d="M272.86,323.99c-.73,2.5-3.99,1.88-5.58,4.12-.81-1.79.37-2.3.71-3.22,1.43.09,3.28-1.72,4.87-.9Z"/>
              <path class="cls-127" d="M250.17,332.48c-2.22,1.21-4.91-1.81-5.15-4.53,1.7,1.49,3.1,1.78,5.15,4.53Z"/>
            </g>
            <path class="cls-55" d="M201.98,219.25c4.16,1.44,7.17,3.7,10.04,6.51-2.14-.45-3.35-1.83-5.14-2.05-2.67-2.72-6.21-3.52-9.85-3.68-5.74-.42-11.02.64-17.14-.47,7.18-2.32,14.93-2.24,22.09-.32Z"/>
            <g>
              <path class="cls-36" d="M306.01,196.92c-5.97,4.09-14.05,6.02-20.13,10.98-5.19,4.23-11.64,4.02-16.95.4,2-.58,3.4,0,5.08-1.11,8.13-1.96,15.29-6.89,22.98-11.21,10.26-5.77,34.4-18.47,45.17-15.39-13.23,4.06-25.11,8.79-36.14,16.33Z"/>
              <path class="cls-65" d="M283.81,207.32c-2.53.74-4.28,2.77-6.98,1.08l30.36-15.41-23.38,14.32Z"/>
            </g>
            <path class="cls-111" d="M285,359.77c1.83-.5,5.88-.98,5,1.23l-19.01,2.92c-2.47.38-4.92.22-6.99.08-3.08.45-10.81,1.18-13.7,0-.2-.08-.27-.5-.3-1.01l35-3.23Z"/>
            <path class="cls-146" d="M250,363c4.36,2,9.28.67,14,1v1l-24.11-.39c3.27-.49,6.91-1.78,10.11-1.61Z"/>
            <path class="cls-95" d="M294,360l-4,1c-1-1.39-3.36-1.38-5-1.23-1.08-1.08,9.99-.64,14.14-1.82-1.34,1.88-3.55,1.65-5.14,2.05Z"/>
            <g>
              <path class="cls-15" d="M162,207c18.06.86,40.87,6.75,61.13,8.14-2.7,2.16-5.71,3.84-8.94,3.8-3.79-.04-8.4.02-12.19-.94l-32.06-8.11c-3.66-.93-7.27-1.65-10.94-1.89-1.49-1.83,1.27-1.57,3-1Z"/>
              <path class="cls-51" d="M217.05,216.34c-3.46,1.47-6.63.34-9.98.68l-23.18-4.83,33.16,4.16Z"/>
            </g>
            <g>
              <path class="cls-63" d="M348.16,211.04c-1-.05-2.21-.13-2.88.89-.52.79.26,2.2-.13,3.07-2.59,5.86-4.89,11.34-11.19,13.63-9.69,3.52-18.14-.51-21.96-9.57-.41-.98-.03-2.21-.43-3.39-.33-.98-1.52-.76-2.58-.6,12.15-5.38,26.21-7.04,39.17-4.05Z"/>
              <path class="cls-20" d="M318.99,224.94c.12-1.36,1.53-2.56,2.89-2.77,3.09,1.75,7.58,1.98,8.64-.06l3.51-6.8c1.3-2.51,4.4,5.33,3.76,7.87-1.36,5.4-14.61,7.37-18.79,1.76Z"/>
              <path class="cls-130" d="M320.74,221.15c.31,1.76-1,2.78-2.61,2.85-1.91-1.08-3.27-5.26-.76-6.15,1.72-.59,2.75,2.34,3.37,3.3Z"/>
              <path class="cls-163" d="M320.74,221.15l1.14,1.02c-.06.66-.13,1.37-.45,1.97-.47.89-1.53.98-2.43.79-.38-.51-.69-.82-.87-.93-.14-1.6,1.15-2.58,2.61-2.85Z"/>
            </g>
            <g>
              <path class="cls-137" d="M193.92,232.04c-2.12,6.23-6.35,10.73-13.28,11.68-8.63,1.19-15.9-3.79-17.78-11.95-.45-1.94,0-4.58-1.81-5.63,10.15-2.33,21.81-1.8,32.21.08.03,2.81-.92,4.94.66,5.81Z"/>
              <path class="cls-5" d="M173.85,234.04c-.71,1.74-.39,2.45.96,2.11,6.45,1.63,8.13-2.46,11.18-7.46,1.42-2.31,4.89,4.41-.97,10.78-2.31,2.52-6.32,2.76-9.85,2.34-3.71-.44-5.86-2.76-6.77-5.87-.79-2.68.14-5.6,3.02-7.58,1.83,1.28,2.15,3.59,2.43,5.66Z"/>
              <path class="cls-90" d="M173.85,234.04c.1.74.79,1.39.96,2.11-.32.86-1,1.32-1.58,1.59-.78.37-2.41.11-2.63-1.2-.24-1.49,1.96-2.34,3.25-2.51Z"/>
            </g>
          </g>
        </g>
      </g>
    </g>
  </g>
</svg>