<?xml version="1.0" encoding="UTF-8"?>
<svg id="Layer_1" data-name="Layer 1" xmlns="http://www.w3.org/2000/svg" xmlns:xlink="http://www.w3.org/1999/xlink" viewBox="0 0 512 512">
  <defs>
    <style>
      .cls-1 {
        fill: #c3a891;
      }

      .cls-2 {
        fill: #bc9f84;
      }

      .cls-3 {
        fill: #8e7057;
      }

      .cls-4 {
        fill: #ba9e85;
      }

      .cls-5 {
        fill: #4f2c2f;
      }

      .cls-6 {
        fill: #3b3b3d;
      }

      .cls-7 {
        fill: #95918b;
      }

      .cls-8 {
        fill: #74553f;
      }

      .cls-9 {
        fill: #9f8168;
      }

      .cls-10 {
        fill: #c1a388;
      }

      .cls-11 {
        fill: url(#linear-gradient-2);
      }

      .cls-12 {
        fill: #1b1413;
      }

      .cls-13 {
        fill: #1e1e1f;
      }

      .cls-14 {
        fill: #8f745c;
      }

      .cls-15 {
        fill: #bea183;
      }

      .cls-16 {
        fill: #b46a6f;
      }

      .cls-17 {
        fill: #6a4f3a;
      }

      .cls-18 {
        fill: #856950;
      }

      .cls-19 {
        fill: #3c1817;
      }

      .cls-20 {
        fill: #363736;
      }

      .cls-21 {
        fill: #765c47;
      }

      .cls-22 {
        fill: #3e3e40;
      }

      .cls-23 {
        fill: #dd9699;
      }

      .cls-24 {
        fill: #c0a386;
      }

      .cls-25 {
        fill: #7f4348;
      }

      .cls-26 {
        fill: #181413;
      }

      .cls-27 {
        fill: #be6f75;
      }

      .cls-28 {
        fill: #edeae9;
      }

      .cls-29 {
        fill: #bea286;
      }

      .cls-30 {
        fill: #cdab8f;
      }

      .cls-31 {
        fill: #e0c2a8;
      }

      .cls-32 {
        fill: #191614;
      }

      .cls-33 {
        fill: #a28f7d;
      }

      .cls-34 {
        fill: #848587;
      }

      .cls-35 {
        fill: #94785f;
      }

      .cls-36 {
        fill: #9e9ea0;
      }

      .cls-37 {
        fill: #1f1f1f;
      }

      .cls-38 {
        fill: #372c25;
      }

      .cls-39 {
        fill: #aa8a70;
      }

      .cls-40 {
        fill: #312c29;
      }

      .cls-41 {
        fill: #9c7f67;
      }

      .cls-42 {
        fill: #f5efe7;
      }

      .cls-43 {
        fill: #a3866c;
      }

      .cls-44 {
        fill: #232325;
      }

      .cls-45 {
        fill: #5a5b5e;
      }

      .cls-46 {
        fill: #101010;
      }

      .cls-47 {
        fill: #2e2621;
      }

      .cls-48 {
        fill: #664935;
      }

      .cls-49 {
        fill: #3d3731;
      }

      .cls-50 {
        fill: #292929;
      }

      .cls-51 {
        fill: #919092;
      }

      .cls-52 {
        fill: #f0ebe2;
      }

      .cls-53 {
        fill: #404041;
      }

      .cls-54 {
        fill: #ede9e1;
      }

      .cls-55 {
        fill: #311617;
      }

      .cls-56 {
        fill: #b5b3ab;
      }

      .cls-57 {
        fill: #1c140f;
      }

      .cls-58 {
        fill: #282828;
      }

      .cls-59 {
        fill: #ab9380;
      }

      .cls-60 {
        fill: #272526;
      }

      .cls-61 {
        fill: #313033;
      }

      .cls-62 {
        fill: #342c28;
      }

      .cls-63 {
        fill: #463f3a;
      }

      .cls-64 {
        fill: #2d2928;
      }

      .cls-65 {
        fill: #a6686d;
      }

      .cls-66 {
        fill: #95775f;
      }

      .cls-67 {
        fill: #c4a68b;
      }

      .cls-68 {
        fill: #303031;
      }

      .cls-69 {
        fill: #2b2b2d;
      }

      .cls-70 {
        fill: #382325;
      }

      .cls-71 {
        fill: #6d523e;
      }

      .cls-72 {
        fill: #ece9e8;
      }

      .cls-73 {
        fill: #9a999c;
      }

      .cls-74 {
        fill: #876a53;
      }

      .cls-75 {
        fill: #111211;
      }

      .cls-76 {
        fill: #9d8168;
      }

      .cls-77 {
        fill: #151415;
      }

      .cls-78 {
        fill: #3b3a3b;
      }

      .cls-79 {
        fill: #9c9b9d;
      }

      .cls-80 {
        fill: #9f9ea0;
      }

      .cls-81 {
        fill: #765d47;
      }

      .cls-82 {
        fill: #bca085;
      }

      .cls-83 {
        fill: #9c7e64;
      }

      .cls-84 {
        fill: #705740;
      }

      .cls-85 {
        fill: #bea28a;
      }

      .cls-86 {
        fill: #3c3c3e;
      }

      .cls-87 {
        fill: #3d3d3f;
      }

      .cls-88 {
        fill: #171718;
      }

      .cls-89 {
        fill: #70553d;
      }

      .cls-90 {
        fill: #1e1d1f;
      }

      .cls-91 {
        fill: #151515;
      }

      .cls-92 {
        fill: #2f251f;
      }

      .cls-93 {
        fill: #866b52;
      }

      .cls-94 {
        fill: #171413;
      }

      .cls-95 {
        fill: #2f2f2f;
      }

      .cls-96 {
        fill: #a96868;
      }

      .cls-97 {
        fill: #f1d6bc;
      }

      .cls-98 {
        fill: #bea185;
      }

      .cls-99 {
        fill: #1a1412;
      }

      .cls-100 {
        fill: #f1d5bb;
      }

      .cls-101 {
        fill: #997c61;
      }

      .cls-102 {
        fill: #494138;
      }

      .cls-103 {
        fill: #1e1e1e;
      }

      .cls-104 {
        fill: #e9cfb6;
      }

      .cls-105 {
        fill: #9b7d66;
      }

      .cls-106 {
        fill: #8e715a;
      }

      .cls-107 {
        fill: #222221;
      }

      .cls-108 {
        fill: #404042;
      }

      .cls-109 {
        fill: #7a5f48;
      }

      .cls-110 {
        fill: #4c2c2e;
      }

      .cls-111 {
        fill: #391213;
      }

      .cls-112 {
        fill: #876b53;
      }

      .cls-113 {
        fill: #b79c80;
      }

      .cls-114 {
        fill: #212121;
      }

      .cls-115 {
        fill: #58575a;
      }

      .cls-116 {
        fill: #efeae2;
      }

      .cls-117 {
        fill: #252527;
      }

      .cls-118 {
        fill: #656567;
      }

      .cls-119 {
        fill: #ce898a;
      }

      .cls-120 {
        fill: #323234;
      }

      .cls-121 {
        fill: #181416;
      }

      .cls-122 {
        fill: #342e28;
      }

      .cls-123 {
        fill: #433a34;
      }

      .cls-124 {
        fill: #b8997e;
      }

      .cls-125 {
        fill: #222325;
      }

      .cls-126 {
        fill: #56402d;
      }

      .cls-127 {
        fill: #b5a8a1;
      }

      .cls-128 {
        fill: #95795d;
      }

      .cls-129 {
        fill: #131314;
      }

      .cls-130 {
        fill: #111;
      }

      .cls-131 {
        fill: #c6ac91;
      }

      .cls-132 {
        fill: url(#linear-gradient);
      }

      .cls-133 {
        fill: #644d36;
      }

      .cls-134 {
        fill: #353635;
      }

      .cls-135 {
        fill: #9f9ea1;
      }

      .cls-136 {
        fill: #6e513a;
      }

      .cls-137 {
        fill: #757578;
      }

      .cls-138 {
        fill: #a09893;
      }

      .cls-139 {
        fill: #c5a58a;
      }

      .cls-140 {
        fill: #dac1a9;
      }

      .cls-141 {
        fill: #f0d5bb;
      }

      .cls-142 {
        fill: #0c0c0c;
      }

      .cls-143 {
        fill: #957a5e;
      }

      .cls-144 {
        fill: #cdad90;
      }

      .cls-145 {
        fill: #ba9a7f;
      }

      .cls-146 {
        fill: #171717;
      }

      .cls-147 {
        fill: #9f9fa1;
      }
    </style>
    <linearGradient id="linear-gradient" x1="-811.07" y1="490.01" x2="-757.33" y2="647.8" gradientTransform="translate(670.59 169.74) scale(.48)" gradientUnits="userSpaceOnUse">
      <stop offset="0" stop-color="#b1957b"/>
      <stop offset="1" stop-color="#8b6d5b"/>
    </linearGradient>
    <linearGradient id="linear-gradient-2" x1="-665.5" y1="402.61" x2="-555.65" y2="519.54" gradientTransform="translate(670.59 169.74) scale(.48)" gradientUnits="userSpaceOnUse">
      <stop offset="0" stop-color="#b89c83"/>
      <stop offset="1" stop-color="#9b8069"/>
    </linearGradient>
  </defs>
  <path class="cls-117" d="M512,229v56c-1.76.34-.59,2.47-.84,4.01-1.41,8.64-2.23,17.07-5.05,24.76-.53,1.39-1.76,3.37-3.7,5.93,2.95,3.34-1.86,8.99-4.48,11.77,2.7,4.13.8,11.81-4.86,11.63.27,6.74-8.28,4.83-11.82.74-2.71,3.29-5.12,5.5-9.41,3.32-2.04,2.92-5.01,4.46-8.16,2.03-1.6,3-3.27,5.45-7.13,4.88,4.27,8.6-6.36,14.21-8.74,3.65-6.91,1.6-7.77-3.98-3.63-8.55l5.64-14.74c-1.78-10.24-.9-21.28,5.33-29.83l-1.05-4.98c2.07-14.28,5.37-28.05,9.91-41.31l-.16-2.85c3.7-15.76,7.08-31.64,10.14-47.62.64-.96,1.97-1.62,3.13-1.7,2.64-.19,29.76,9.36,31.09,11.05,2.78,3.52,2.43,10.63,2.06,14.83-.02.21.03-4.12,1.71-3Z"/>
  <path class="cls-134" d="M25.23,249c.41,2.7.42,5.37.02,8.02-4.07,3.82-7.06,8.38-3.67,13.73-.44,1.12-7.78,7.29-9.49,6.27.56,2.09-.69,2.05-1.69.21-3.58.85-6.28.14-8.11-2.1-.62-.09-1.12-.19-1.14-.37-.55-3.46-.65-8.44-.14-11.76-.33-4.57-.66-9.24-1-14v-8c1.76-.78,3.01-2.47,3.74-5.07l3.8-9.57c.6-4.6,2.12-8.36,4.55-11.27l.48-14.92c-.29-5.94,5.86-11.43,10.43-7.41,1.47,18.52,2.64,37.03,3.51,55.54l-1.29.71Z"/>
  <path class="cls-91" d="M12.1,215.09c-1.35,10.72-5.41,20.55-10.82,29.74-.42-2.24-.34-3.36-1.27-3.82v-5c3.18-17.09,4.66-34.56,10.27-51.19,5.03,1.15,5.39,7.78,2.92,12.26-.79,5.95-1.16,11.96-1.1,18.02Z"/>
  <path class="cls-107" d="M2.28,275.13c2.19,1.53,4.89,2.58,8.12,3.15,8.47,2.43,1.34,10.2-5.53,9.64.33,1.97.03,2.97-2.23,3.08-1.95-2.58-1.1-15.37-2.64-14v-14c.28-.87.62-.86,1,0,.02,3.23,1.31,9.08,1.28,12.13Z"/>
  <path class="cls-123" d="M297,509c.87.28.86.62,0,1l-11,2h-16c.95-2.28,3.89-.55,6.04-.77l20.96-2.23Z"/>
  <path class="cls-50" d="M249,0c.87.28.86.62,0,1l-1.33,2.03c-5.65.87-11.33,1.18-17.04.92l-1.64-1.96c-.39-2.13,6.61.2,8-2h12Z"/>
  <polygon class="cls-46" points="265 0 265 1 263.86 3 250.42 3 249 1 249 0 265 0"/>
  <path class="cls-142" d="M1,263h-1v-14c.96-.09.94.93.94,1.97l.06,12.03Z"/>
  <path class="cls-122" d="M234.09,510.7c1.15-2.51,1.74-2.48,2.76.11,2.04.38,4.81-.63,6.15,1.19h-14c1.06-1.58,3.37-1.11,5.09-1.3Z"/>
  <path class="cls-120" d="M100.92,137.07c3.71,2.4,4.3,11.85,1.21,14.93.44,7.6,1.53,15.11,3.26,22.53-1.15,4.53-.93,8.65.65,12.34-.37,6.26.36,12.54,2.18,18.84.71,2.86,2.95,15.45,2.32,17.38-.71,2.19-2.37,2.54-4.33,1.4-2.35-1.36-11.5-47.11-12.28-52.84l-1.05.42c-1.13,1.51-1.31.67-1.62-.93-.27-1.37.41.23.6,1.48,1.33,8.85,1.99,24.35,1.24,33.25l-1.99,1.19c-1.94,2.39-1.29-2.9-1.25-2.66.5,3.52.88,7.31,1.1,10.86,1.14,50.74,5.22,100.95,12.23,150.63l-2.05,2.04,2.66,10.14,7.74,58.33c-2.05.57-1.83,1.99-1.53,3.71l2.36,2.63c1.32,8.68,2.77,17.27,4.38,25.78-1.79.5-3.99-.03-6.61-1.56-1.22-.91-2.67-2.5-3.88-3.22-6.07-6.35-10.26-14.23-12.58-23.64l1.39-2.02c-1.55-1.97-1.7-3.08-.45-3.31-.67-2.98-1.91-5.91-3.7-8.77-3.66.21-6.94-7.65-3.9-9.91-.72-2.86-1.75-5.56-3.09-8.11-2.83.58-3.21-1.19-.9-2.9l-3.09-8.11-2.38-.6c-9.31-29.28-17.79-58.73-25.44-88.36l-2.04.93c.39,3.05-.23,6.11-.83,9.09.5.11.96.25,1.31.54.87.74-.39,22.03-1.26,22.77-.36.31-.85.47-1.37.6-.31,3.79-.59,7.51-.82,11.17.49.03.95.11,1.33.32.83.48-.17,17.08-.37,19.11-.03.25-.57.46-1.27.64-.93,2.79-1.65,2.5-2.62-.18l-1.67-.62c-8.84-40.3-13.39-83.35-15.76-124.03-2.1-28.78-3.84-57.5-5.23-86.17-.64-2.98-.39-6.37.74-10.19,9.82-25.26,25.96-48.19,44.65-67.85,4.7-3.6,13.43-12.7,17.24-17.25,3.39-2.87,6.41-6.05,10.02-8.76,4.92-2.8,6.72.74,5.4,10.61-.81,20.95.05,42.08,2.6,63.37l-1.23,4.97Z"/>
  <path class="cls-37" d="M44.17,372.99c.71.06,1.3.17,1.43.48,1.56,3.56-.95,4.86.05.63.09-.38.56-.67,1.14-.93l.32-20.08.82-11.17,1.33-23.91c.62-2.99,1.12-6.03.83-9.09.87-1.91-.89-5.18,2.75-6.19l11.09,44.04c2.28,9.05,12.82,42.19,16.03,50.19l3.09,8.11c-.03.97.8,1.94.9,2.9,1.37,2.54,2.4,5.24,3.09,8.11.6,3.51,2.22,6.81,3.9,9.91,1.86,2.89,3.09,5.81,3.7,8.77-.21,1.05.4,2.26.45,3.31-1.09.93-2.45.7-4.08-.69-3.65,1.1-8.19.43-10.8-2.51-2.65,3.72-7.44,1.26-8-2.78l.48-2.12,7.63-4.63c-4.33-3.14-6.71-6.7-7.17-10.68,4.22-2.68,5.32-5.38,3.33-8.11-6.51-1.37-9.33-4.33-8.46-8.86,4.54-3.81,4.81-7.4.79-10.79l.13-8.36c-6.73-17.12-11.02-35.26-15.01-53.14-1.97,22.28-2.57,44.58-1.79,66.91-.74,17.01-5.8,9.18-9.08-1.28-2.18-6.95-4.01-14.57-4.17-21.8-2.78-10.46-4.81-21.13-6.11-32.01-2.1-12.81-4-25.86-5.33-39.16-.09-.93.34-1.91.93-2.9-1.97-8.87-3.02-17.58-3.14-26.12-3.75-.8-5.01-2.62-3.15-6.1-1.33-1.38-.49-2.98,2.5-4.79,1.1-2.77,1.32-5.82.65-9.15-.05.21-2.65-51.25-3.85-56.23-10.84,3.12-7.4,7.33-9.28,22.31.17-5.8-.67-11.85.07-18.13.54-4.54,1.1-8.81-1.9-12.15.73-2.17,1.37-4.59,1.94-6.81,2.12-.77,3,.09,2.77,2.27-3.1,5.92,3.89,3.02,3.97,2.6.94-4.88.24-13.89-1.09-18.28-.15-.49-.05-1.05.11-1.63l4.27-10.99,3.15,55.78,4.38,61.33c1.95,27.24,4.68,53.45,9.64,80.21,1.54,8.32,1.74,16.29,4.76,23.69Z"/>
  <path class="cls-20" d="M12.21,178c1.36-5.29,3.82-10.07,5.75-15.03-.05,1.73.63-.04,2.2-.97.71,6.59,1.56,14.63.55,21.63-1.32,1.96-7.21,3.25-8.35,1.53-.72-2.43,1.93-5.73-.15-7.16Z"/>
  <path class="cls-146" d="M66.88,84.13c5.6-5.89,11.01-11.98,17.24-17.25.53-.37,1.13.39.72.79l-17.17,17.17c-.41.41-1.17-.18-.79-.72Z"/>
  <path class="cls-78" d="M216,3c.57.87,1.63.7,3.06,1.48-1.18.71-2.34.81-3.28,1.64-1.43-3.79-17.82,3.81-18.78.89,6.15-2.06,12.7-2.51,19-4Z"/>
  <path class="cls-120" d="M317,7.18c41.55,9.98,80.72,30.46,111.87,59.71,3.59,4.68,12.56,13.58,17.24,17.26,29.25,31.11,49.76,70.32,59.71,111.85.06,3.07.45,6.07,1.18,9-.1,2.12.85,5.51.49,7.67-.48,2.83-4.38.35-5.86-.31-9.6-4.24-20.45-5.7-28.58-10.25,1.26-12.33.34-23.62-3-35.82-1.77-6.48-9.87-24.62-15.44-27.88-.06-.04-.31.25-.62.63l-1.86,1.37c-6.55-2.23-14.36.74-17.95,6.64-4.87,25.36-9.42,50.95-13.66,76.75l-1.62,2.15c-.51,2.31-.11,3.9,1.19,4.75-.84,3.21-1.21,6.46-1.12,9.74l-1.78,1.64c1.89.58,1.56,1.24-.14,2.06l.54,1.98-4.93,28.97,1.36,1.72c.73,2.59-1.96,3.9-4.25,4.08-.19,3.98-1.43,6.67-3.72,8.06l-1.35,5.26c.31,5.51-.4,10.95-2.11,16.32-1.99,15.3-4.67,30.5-8.05,45.61-3.05,7.08-9.35,8.35-7.11-.11-.81-13.35-1.37-26.77-1.69-40.24-.89-.48-1.25-1.42-1.07-2.81-2.56,4.07-4.75,8.42-6.56,13.06.95.29,1.66.86,1.51,1.71-.48,2.56-1.08,5.01-1.72,7.53-5.26,20.36-11.91,43.44-19.04,63.08-.12.34-.61.55-1.2.73-1.54,3.62-3.75,6.34-6.61,8.17,2.54,4.32.88,8.68-4.65,8-5.12,8.78-12.62,3.6-8.28-4.59-1.64-4.1-2.23-8.48-1.17-13,.41-40.74-1.21-80.43-4.17-121.26-.64-4.22-1.85-5.72-3.63-4.52.48,1.08.3,2.36-.54,3.83-.96,13.93-3.46,27.51-7.49,40.72.5,1.33-2.44,14.99-3.18,15.29-1.23.49-2.23.17-2.96-.92,1.27-23.57,2.73-47.14,4.36-70.74-.55-3.62-.31-6.63.72-9.03l-1.35-1.02c.88-5.62.71-11.03-.5-16.23,1.82-27.27,2.07-54.67.76-82.21-.62-3.68-.57-7.08.17-10.2-.4-2.83-1.18-5.09-2.31-6.78.16-4.28-.44-8.42-1.79-12.41-2.33-.03-10.7-.27-11.02-2.69-.07-.5-.04-1.01.02-1.52-1.84-2.29-.51-3.41,1.99-1.91.81-2.17,1.92-2.58,3.33-1.25.38,1.34,2.76,3,3.56,2.09s-.94-23.77-1.77-24.68c-3.49.61-5.58.6-8.27-1.24-.33-4.51,7.51-4.61,11.1-2.92l1.99-2.94c-1.16-5.45-1.96-10.9-2.4-16.35-2.73-20.55-5.83-41.04-9.28-61.47,2.61-1.59,6-1.56,10.17.08l2.56-.17Z"/>
  <path class="cls-88" d="M446.11,84.15c.38.54-.38,1.11-.79.7l-17.17-17.17c-.41-.41.19-1.16.72-.79,5.95,5.59,11.65,11.32,17.24,17.26Z"/>
  <path class="cls-117" d="M508,205h-1c-.98-2.76-3.43-6.31-1.18-9,.68,2.84,1.71,6.07,2.18,9Z"/>
  <path class="cls-130" d="M91.12,207.05l2.16.46,16.39,72.78,6.34,21.78,3.59,3.82c9.76,25.66,26.97,47.13,44.57,67.47l.2,3.75c3.54,3.68,6.43,7.56,8.67,11.63-3.15,5.29-.95,12.74.93,18.28,0,0,.34,8.41,1.03,25.24.22,3.27,2.03,5.39,5.43,6.35-.82,11.21.53,22.5,4.03,33.87-3.82,8.91-10.05-2.59-12.49-7.63-8.1-19.76-14.83-40.04-20.3-60.39l.42,25.03c2.13,6.52,2.61,13.07,1.45,19.66,1.02,12.44,2.72,24.72,5.12,36.84,1.99,2.92,2.85,5.62,2.55,8.11-8.16-1.88-15.63-6.3-23.06-10.19-.16-1.88.9-2.8,3.2-2.74l-3.21-6.72c2.62-.65,2.59-.73-.09-.22-5.28-12.15-10.33-24.42-15.15-36.8l1.19-1.01c-3.05-11.71-6.77-23.18-11.18-34.43l-2.17-.24s-3.19-11.28-9.58-33.83c.53-2.96-1.23-6.1-1.6-9.28l-2.29-19.66-4.67-50.46-3.05-56.91c-.51-9.55-.82-18.7-.3-27.67,2.48-.03.78,1.25.99,2.06.1.38.6.62.9,1.05Z"/>
  <path class="cls-26" d="M174.99,388.87c.54.64.82,1.45.33,2.15-3.28,4.69-.13,11.24,2.75,15.64.51,2.27.2,4.72-.92,7.36,4.65,3.04,8.54,7.63.21,7.86.07,4.17.29,8.26.67,12.24,17.01-.11,25.51-.16,25.51-.16-1.63-3.81-3.89-7.46-6.78-10.93-1.6-7.09-4.98-12.77-10.16-17.04-1.34-2.9-.03-5.61,2.57-3.16,3.76,1.18,7.27,3.59,10.51,7.23,4.43,2.36,7.53,5.3,9.31,8.82,7.85,1.65,16.06,2.16,24.63,1.53,1.96,1.08,1.96,2.4,0,3.96l.51,2.67c.48-.09.95-.13,1.38-.02,2.2.57,11.27,41.8,10.42,43.91-.92.65-1.58,1.67-1.97,3.05.41.71.77,3.72.61,4.61-.72,3.82-1.05,4.51-4.55,4.69l-27.16,24.67c.85.38.81.75-.08,1.1-17.56-2.99-35.61-7.04-51.58-14.96-8.16-9-6.54-22.77-8.84-39.34-1.36-9.85-1.01-1.73.26-15.89-3.05-5.02-2.65-11.68-2.74-17.59l-.27-18.1c-.02-1.13.71-1.99,1.31-2.52,2.62-2.29,3.17,7.22,3.05,7.01.25.45,7.28,20.89,7.27,20.88l2.24,9.11c1.79,7.29,6.42,13.24,8.08,20.95.54,2.52,7.26,17.19,10.77,15.3,1.5-.81-7.76-26.56-3.5-34.71l-3.19-1.97c-2.3-9.25-2.75-18.54-3.52-28.08l-.98-12.17c-.31-3.86-.36-7.23.76-10.89l-5.22-4.52c-2.04-1.77-1.49-3.25-2.32-4.48,3.02-2.51,9.61,6.67,11.16,9.47l-.53,2.28Z"/>
  <path class="cls-26" d="M138.14,483.92c-9.83-4.74-19.25-10.46-27.99-16.98,1.58-1.01,2.3,1.06,5.38,1.02-3.32-9.57-4.29-18.73-5.5-27.86-.45-2.08-.21-3.92.72-5.52l10.63.25c-3.83-10.11-7.16-20.41-9.99-30.89l1.5-1.94c2.48-.79,11.16,31.73,11.97,35.1.64,2.65,1.81,4.1,2.69,6.3l7.94,20.07c1.49,3.77,2.19,6.9,4.71,10.4-1.54-2.15,4.96,10.16,4.91,10.66-.26,2.32-4.74-2.82-6.97-.61Z"/>
  <path class="cls-121" d="M72.19,432.09c1.04,1.32,1.56,2.8,3.43,2.92,1.46.09,3.23-1.39,4.81-1.95,3.16,2.35,7.26,4.08,11.42,1.76l3.23,3.25c2.67,7.19,7.21,20.02,11.19,25.66-15.02-9.03-27.51-22.06-39.39-34.86-5.08-7.24,9.01,7.92,5.3,3.23Z"/>
  <path class="cls-102" d="M223,511c-3.59.65-6.9-1.36-10.23-1.93l.08-1.1c4.05,1.47,11.69-.06,10.14,3.03Z"/>
  <path class="cls-63" d="M327,502c1.15,2.79-27.14,7.48-30,8v-1l30-7Z"/>
  <g>
    <path class="cls-114" d="M507,205c.28-.87.62-.86,1,0l2.26,14.04c.47,2.89-.24,6.1,1.74,7.96v2l-1.71,3c-1.01-3.97.71-9.24-2.11-12.25-4.54-4.85-30.05-12.19-31.3-11.65-1.35.59-2.43,2.07-2.06,3.72.94,4.21-1.61,7.09-2.27,10.63l-3.5,18.71c-2.58,13.78-3.68,4.1-3.15,17.67-3.63,5.86-5.4,11.96-5.74,18.83-.36,7.16-2.27,13.62-4.02,20.48-.58,2.26,2.35,6.47.16,8.17-2.41,1.86-1.73,4.12-2.91,6.29-4.55,8.33-1.29,20.11-1.48,21.53-.64,4.82-4.54,9.98-5.69,15.27-.5,2.29-4.45,3.68-1.88,6.71,1.62.12,3.48-.9,5.32-.02.29,2.41,1.13,5.31,3.24,5.7,8.21-4.35-4.31-10.5-.35-16.3,6.35,1.59-.61,7.44,5.98,6.56,2.65-.36,2.37-4.26,5.06-5.03.89-.25,1.69,1.09,2.63,1.36,1.97.56,3.13-1.51,4.39-2.67,1.48-1.36,3.58.66,4.95.38,2.5-.51,3.09-3.39,5.77-5.14,2.96,3.5,6.29,5.88,10.67,3.77-1.43-1.91-3.95-3.32-4.81-5.57-.61-1.59.62-2.45,1.33-2.43,2.94.1,2.9,5.23,6.82,4.02,2.16-.66,3.27-2.95,2.33-5.43-.54-1.42-2.51-3.58-1.25-5.03l6.67-7.64c-1.37-1.27-3.21-1.85-4.22-3.44,2.72-1.67,5.49-2.2,6.24-5.21.16-1.05.85-1.31,1.02-.23-11.57,55.93-44.91,108.35-90.14,143.16-1.94-.93-1.83-2.47.35-4.6,5.34-21.72,10.18-43.65,14.52-65.79l3.22-6.41-1.8-1.11c12.52-57.13,25.38-114.25,38.58-171.35-5.54-.7-7.47-5.26-.57-4.63l1.46-.91c.21-1.74.91-1.81,1.33-.02l2.87-.77c10.11,3.65,19.99,7.01,29.66,10.09-.94-3.21-.46-5.35,1.43-6.43Z"/>
    <path class="cls-117" d="M473.81,356.87c-1.11.03-4.48-1.6-4.59-2.85-.14-2.01,2.17-1.74,3.3-1.07,1.29.77,2.87,2.4,1.28,3.91Z"/>
  </g>
  <path class="cls-95" d="M10.39,277.23c.59.18.78.85,0,1.05-2.29-.61-4.62.76-7.42.56-1.38-.1-.71-2.72-.7-3.71,2.83-.16,5.37,1.45,8.11,2.1Z"/>
  <path class="cls-103" d="M112.89,402l8.11,27.02c.72,2.39,2.73,4.15,2.49,7.61-7.07,2.02-14.64-3.77-13.47,3.47l-8.09-60.99c-.54-4.09-1.43-7.56-.79-11.18,4.41,5.42,5.14,12.76,7.25,19.56l4.5,14.51Z"/>
  <path class="cls-58" d="M46.79,373.17c-.05,3.27,1.31,6.79-.72,10.53-2.2-3.66-.71-7.76-1.91-10.7l2.62.18Z"/>
  <path class="cls-58" d="M94.63,434.75c-2.04-2.43-3.26-5.64-3.7-8.77,1.68,2.28,6.49,6.7,3.7,8.77Z"/>
  <path class="cls-58" d="M49.26,318c.17-3.13-.53-6.07.83-9.09,2.04,2.5.29,6.32-.83,9.09Z"/>
  <path class="cls-58" d="M83.04,405.06c-2.77-1.7-2.05-5.51-3.09-8.11,2.34,1.96,3.18,5.13,3.09,8.11Z"/>
  <path class="cls-58" d="M87.03,416.07c-1.69-2.28-2.81-5.25-3.09-8.11,3.12,1.32,2.6,5.26,3.09,8.11Z"/>
  <path class="cls-58" d="M47.11,353.08c.06-3.75-1.03-7.96.82-11.17-.03.55.6,13.45-.82,11.17Z"/>
  <path class="cls-75" d="M428.98,282.94c2.95,2.59,7.02,1,11.03-1.15-.55,7.53-1.82,14.09-3.49,20.98l-6.43,26.54c-1.73,7.14-4.37,13.71-5.19,20.6-2.67,2.19-1.47,6.04-4.6,9.29.24-3.05-1.51-5.08-2.46-7.31-.63-.21-1.23-.45-1.77-.79-3.26-2.09-5.43-16.69-5.85-21.54-2.35-4.23-4.15-10.22-.88-14.31-2.9-3.82-3.7-8.26-2.42-13.32-4.09-.5-2.22-9.49-.88-13.01.32-2.9,1.16-6.51,2.43-9.43,1.87-.39,4.16-2.06,5.54-2.71,4.22-2,11.97,3.51,14.98,6.15Z"/>
  <path class="cls-13" d="M189.17,402.84c-.61-.34-1.22.23-1.16.65.06.39.14,1.69.49,1.89,6.26,3.7,7.46,9.88,9.7,15.94,1.76,4.76,7.4,7.57,7.58,14.59-3.32,1.01-27.42.51-27.82.38-4.31-1.41-1.93-8.17-2.11-11.13-.15-2.39-1.55-4.88,1.11-5.86l1.73.8c.6.28,1.62,0,1.59-.6-.07-1.38-.73-1.87-2.02-2.11-2.55-.48-4.02-3.57-2.68-5.68,4.02-6.36-6.12-6.2-2.92-21.23.22-.98,1.98-1.09,2.32-1.61,4.9,4.44,9.84,8.89,14.18,13.97Z"/>
  <g>
    <path class="cls-58" d="M72.19,432.09c1.67,1.37,1.73,1.74-.22,1.2-2.03-2.36-3.73-3.84-5.09-4.43-18.13-19.55-33.83-42.3-43.93-67.02l1.72-.33c2.68,2.41,4.81,5.67,6.39,9.8,5.01,1.04,6.22.05,3.63-2.96-5.88-1.05-7.86-3.38-5.92-6.98-2.22-4.25-2.4-9.04-.55-14.37l-2.3-6.01c4.66-5.43,3.89-9.05-2.32-10.84.69-5.75-.37-11.61-3.17-17.58-.98-4.47-2.77-12.73.78-16.02.51.43,6.34-1.23,4.26-1.7-7.85-1.76-12.94-1.35-18.51,4.69,1.97,5.86,1.37,8.68-1.81,8.46-.99-5.64-2.6-11.26-2.52-17,.58-1.48.06-2.92.2-5.44,4.18,1.12,8-.22,9.74-3.99.14-1.03-1.67-2.36-2.18-3.29-1.1-.22-1.11-.8,0-1.05l1.69-.21c3.42,1.03,8.74-4.58,8.58-7.82-1-2.21-1.35-6.27,1.41-6.26.07.92-.93,2.86.13,3.79,1.2,1.05,3.42.25,4.16,1.37s.93,2.85,1.07,4.48c1.33,16.11,2.08,31.76,4.63,47.66l6.05,37.77c1.51,9.43,6.08,35.71,11.13,42.98,2.19-7.74-.49-18.52.14-29.96l3.08-55.9c3.21,6.92,4.36,13.48,5.83,20.31,2.9,13.46,6.33,26.15,11.41,39.08,1.57,4,2.51,8.49.86,12.05,1.2,1.55,3.55,2.89,3.32,4.93-.59,5.35-6.04,6.75-4.11,9.25,3.76,4.84,8.36,1.09,9.71,7.8.56,2.8-1.77,4.91-4.75,6.78.47,5.19,8.63,6.72,7.44,11.09-.08.3-8.46,5.95-10,5.65Z"/>
    <path class="cls-95" d="M22.96,361.85c-8.36-17.33-14.11-35.39-17.8-53.85,3.29-3.25-3.92-10.01,2.79-12.18,3.07-.99,6.03-4.15,9.11-4.41,2.54-.21,5.19,2.27,8.4,1.15,1.45-.51,2.16,2,2.09,2.99-.08,1.28-.81,2.5-2.58,2.46-1.41-.03-3.14-.13-3.48.89-.2.61-.58,2.14-.46,3.1l1.41,10.57c.78,5.84,6.16,10.27,2.41,16.92,4.62.25,5.61,2.05,6.21,5.13.45,2.29-2.12,4.41-3.37,6.39,6.87,10.2-2.94,9.7,3.12,20.03.41.7-1.42,2.48-1.01,3.39.76,1.7,6.05.12,7.76,4.56.42,1.09.62,3.98-1.29,4.4-1.46.31-4.26-.25-5.82.3-3.34-3.39-3.83-9.4-7.5-11.85Z"/>
    <path class="cls-95" d="M22.07,262.94c-.17,1.5-2.65,2.2-1.27,4.12,1.12,1.56,1.57,2.84,4.36,3.4-6.39,2.19-9.3,13.51-13.09,6.56,1.54-2.8,4.54-4.95,7.68-5.85-.74-5.47-.85-10.17,3.7-13.73,2.23-1.75,1.19-6.11,1.76-8.44,3.66,14.42-2.53,8.38-3.15,13.94Z"/>
    <path class="cls-107" d="M22.52,284.56c-.59.85-2.04.89-2.98.61-.8-.23-2.54-2.03-1.4-3.16,1.91-1.9,3.48.91,4.38,2.55Z"/>
  </g>
  <g>
    <path class="cls-53" d="M275,0l6.2,2.12,2.38.41c1.04.33,2.65,20.75,1.89,21.54-.86.9-11.53,2.08-12.59.14l-.83-.12-1.46-1.33c.53-6.47-.38-12.99-1.81-19.29-2.1-.08-3.36-.9-3.77-2.47-.87-.28-.86-.62,0-1h10Z"/>
    <path class="cls-44" d="M114.94,73.78c-.96-3.19,3.5-6.12,5.97-3.79,4.34-1.71,4.25,2.01.81,3.93.73,1.22.23,2.24-1.5,3.07.49,3-4.71,7.1-7.34,5.2l-1.51,3.33-8.56,5.48c.4,11.22,1.04,22.38,1.92,33.47,2.43-2.21,5.11-3.53,8.01-3.95l.37,1.4c2.33-.75,2.29.43.34,1.97l1.11.62c10.25-5.84,20.76-10.76,31.54-14.74.45-.88.96-1.64,1.67-1.98,19.78-9.23,44.55-16.23,65.84-21.56,16.18-4.06,34.06-8.13,50.67-9,.75-.04,1.52.21,2.31.5s1.58.73,2.32,1.2c1.22-.59,3.1-.63,4,.24,4.46.03,5.35,11.85.2,12.34-2.47.68-5.21,1.16-8.2,1.44l-2.22,2.09c-50.35,7.45-101.44,22.4-145.21,47.77l-2.23-1.07c-3.3.06-4.7-3.55-4.2-10.82-3.29,2.29-6.67,4.34-10.14,6.15-2.62-14.75-2.94-30.09-3.23-45.63l-.16-8.6c-.15-7.92,1.3-15.61.36-23.79-1.05-1.18-2.63-.37-3.74-.92l7.99-6.01,1.55,3.13c-.41,8.43-.86,16.79-1.34,25.09l10.12-7.17,2.48.62Z"/>
    <path class="cls-147" d="M249,1h16c1.36,0,4.55-.01,5.41,1.39,1.33,2.18,3.54,20.44,1.63,21.7l-4.69,2.09c-23.33.98-46.18,6.87-68.4,13.05l-3.68-.37c-8.78-4.14-15.99-5.68-21.97,2.94-1.65,5.87-7.49,9.99-13.27,8.03-3.22,1.35-5.76,2.22-5.35-2.21.96-10.24,14.76-27.55,25.1-30.09,8.78-2.16,18.52.03,25.5,5.72,6.55-6.19,12.41-12.85,17.59-19.98,2.1-.3,3.99-1.16,6.12-1.27,3.76-.2,7.76.43,11.91-.18,3.01-.45,5.47-.82,8.09-.82Z"/>
    <path class="cls-61" d="M222.88,3.27c1.67,2.69-.02,4.41-2.04,6.54l-15.52,16.3c-5.84-5.74-13.17-7.9-21.76-7.21-14.24,1.15-23.79,18.32-27.42,30.81,1.71.7,2.79.25,3.9.11,1.69,3.5-3.16,4-6.07,3.76-1.43,1.57-6.61,3.51-7.23,1-1.19-4.76,7.8-19.74,10.97-24.06l-.45-.96c-.5-2.6.66-5.07,3.49-7.39-8.03,2.86-15.72,6.59-23.06,11.18l-3.57-.24c-.94,2.76-3.51,4.6-7.73,5.53-1.98,1.66-3.77,2.11-5.38,1.34h-1c1.41-2.43,4.32-3.42,7.04-5.01,17.67-10.3,35.97-18.32,55.51-24.38,2.21-.69,3.81-.15,5.45-.42,1.62,1.05-1.88,1.69-1.97,1.53-.79-1.45,15.02-.81,18.04,1.9,3.69-4.26,7.59-6.76,11.71-7.5-1.49-1.8,1.69-2.19,2.18-2.01,1.2.43-2.96,1.85-1.96-1.1,2.23-.53,5.1-1.16,6.88.27Z"/>
    <path class="cls-87" d="M120,40c.29-.11.69.07,1,0,1.18,1.57.62,2.15-1.17,1.29.13,1.47-.75,2.64-2.64,3.51l-1.27,3s-.32,8.66-.97,25.98c-4.02,3.22-8.79,5.46-13.15,9.92-2.58-2.35-.93-4.97-.89-7.66.13-8.37-.12-16.31,1.23-23.93,5.7-4.29,11.03-9.6,17.86-12.12Z"/>
    <path class="cls-73" d="M215.78,6.11l-11.23,9.81c-6.27-2.44-12.37-3.94-19.66-3.93.77-1.73,2.44-.74,3.11-1.81,3.12-.52,6.2-1.83,9-3.19,6.4-1.24,12.75-2.06,19.04-2.43l-.26,1.55Z"/>
    <path class="cls-125" d="M317,7.18c-2.51,2.8-8.26-2.53-10.99.59l8.39,56.09c1.12,7.49,2.42,14.24,1.54,21.23-2.32-.48-3.5-2.31-3.54-5.48-4.37.33-7.22-.62-8.54-2.85-1.25-1.04-1.94-2.84-2.07-5.4-2.83,3.76-5.74-3.54-.86-2.29.95-2.17,1.41-2.14,2.91-.17.52-1.84,2.49-2.28,5.91-1.31l-7.61-54.39.49,31.5c-.75,4.77-1.54,9.56-2.36,14.37,1.88.63,1.76,4.12-.15,4.93-1.41,2.88-3.47.88-4.09-1.88-.04-19.13-.26-38.24-.66-57.3-.95,2.55-7.05,1.53-5.37-1.9,9.16-.43,18.01,2.69,27,4.26Z"/>
    <path class="cls-90" d="M290,2.91c-.08,1.3-.95,2.17-2.61,2.61,2.28,13.54,3.76,27.02,4.45,40.44-.81,2.29-2.07,2.8-3.7.92l-2.15-1.32c-1.28-5.26-2.03-10.56-2.26-15.9l-9.34.14c-.68-.87-1.5-1.62-2.47-2.25-2.47-1.87-2.14-3.01.96-3.35,3.11-1.75,7.01-.98,11.42-1.35.7-1.73-1.86-19.57-3.1-20.74,2.79.54,6.69-1.83,8.8.8Z"/>
    <path class="cls-70" d="M434.06,380.12c-1.59,6.96-1.94,14.46-4.47,21.61-1.2,3.38-1.35,6.6-2,10.07l-2.03,10.81-7.37,30.41c-.4,1.63-2.57,2.34-2.21,3.9-9.31,9.63-21.86,15.31-32.97,22.07-.63-.3-.61-.63,0-1,3.26-1.93,7.08-2.88,10.05-6.03,1.44-4.36,2.93-8.71,3.16-13.01-.73-.28-1.8-.78-1.73-1.35.56-4.64,4.49-21.56,6.23-25.57l2.29-.94c.88-1.59,1.15-4.05-.64-4.91,5.89-22.46,10.72-44.83,14.51-67.09-.93-3.29-.61-5.69.97-7.2,1.65-.64,2.48,0,3.03,1.54.45-3.2,1.8-4.38,4.03-3.53,2.36,1.16,2.85,3.84,1.47,8.05-2.92,4.31-3.89,9.37-2.9,15.19-3.94,12.79-2.63,16.47,3.91,11.05,2.21-3.62,4.44-4.98,6.68-4.09Z"/>
    <path class="cls-49" d="M383,479c-16.12,9.81-33.68,23.32-52,23.06-.24-.86.08-1.53.68-1.88s1.33-.02,2.15-.29c17.34-5.83,33.84-12.79,49.17-21.88v1Z"/>
    <path class="cls-60" d="M357.64,399.06l.92.47c-2.4,5.46-4.16,10.91-5.29,16.35.94,5.74-.08,11.71-3.04,17.91-3.6,11.21-7.68,23.75-14.42,33.22-1.18,3.32-2.91,6.58-2.77,10.18-.51.57-1.79,2.05-2.77,1.45-.37-2.76-.42-5.9-.13-8.47l3.81-34.09c.03-10.41.34-20.8.93-31.17l.09-5.83c.76-4.69.85-9.47.28-14.35-1.66-.57-1.59-2.08.2-4.52.27-8.21.1-16.31-.49-24.29-2.99-.08-2.82-4.23-.08-4.84-.23-9.71-.52-19.4-.88-29.08-.87-.28-.86-.62,0-1-.35-7.33-.69-14.66-1-22-2.25-1.1-3.11-3.95-2.59-8.54-.49-3.41-.02-6.19,1.43-8.32-1.01-2.5-1.34-5.22-.98-8.16-2.35,1.06-2.52-.11-1.74-2.13-.26-.75.3-1.8-.05-2.31-.84-1.2,2.22-2.12,2.5-1.32,3.68,10.53,3.55,21.5,3.78,32.43.09,4.24,1.26,8.43,1.06,12.56-.33,6.84-1.15,13.73.78,20.72,1.15,4.17.06,8,.21,12.06l.78,22.01c.49,13.87-1.37,22.07.12,36.9.27,2.64,3.47,5.44.6,8.31-.83.83-.16,3.19.38,3.81,3.71,4.21,3.25-4.65,8.28-3.83,1.33.22,2.71-.14,3.11-.9.73-1.39.24-2.47-.8-3.49-1.78-1.75-4.06,3.04-5.88,2.01-2.01-1.14.66-4.9,1.06-5.28,1.27-1.19,2.74.19,4.23.04,4.31-.46,7.49-7.53,8.35-6.5Z"/>
    <path class="cls-135" d="M273.94,69.08c-8.93,2.9-9.21,3.41-.84,1.55,6.72,4.72,2.42,8.3-4.18,8.29-38.44,2.06-86.52,17.5-122.81,30.85-1.5,1.02-4.14,2.14-4.87.31-.13-1.38.47-2.06,1.56-2.64,8.57-4.57,18.76-9.59,28.1-11.31-.12-.58-.19-1.04-.07-1.1.92-.43,13.54-5.18,12.91-4.9-4.77,2.11-10.75,4.36-15.81,4.98l-1.5,1.74-16.59,7.01c-4.86,3.07-9.78,5.17-14.76,6.32-1.27-1.12-1.39-1.97-.22-2.94-1.39-11.72-2.22-23.41-2.5-35.07l.86-1.99c3.12-1.03,5.52-4.43,9.91-4.2l-4.14,18.99c-.22,1.01.22,2.35.56,2.85.31.48,1.42,1.35,2.43,1.03,14.9-4.74,29.68-8.71,43.98-15.04,12.99-5.75,18.21-15.43,13.89-29.92,14.06-4.84,28.18-7.65,42.7-10.24l25.47-4.55c1.69-1.12,6.41-1.1,7.63.19,1.32,1.39.54,33.78.32,38.32l-2,1.47Z"/>
    <path class="cls-22" d="M133.07,110.87c-.01-2.68.41-2.85,1.99-.7,10.29-6.37,21.52-10.92,32.85-15.07,2.76-.82,3.75-.48,2.97,1.02l-16.01,6.9c-4.84,2.09-9.55,4.47-13.64,7.05-.26.73-.58,1.36-1.1,1.64-7.56,4.13-16.88,8.88-24.7,12.45-.51.23-1.22.04-1.98-.28.35-.29-.45-1.56-.9-1.51-3.73.41-5.29,4.16-9.97,4.96l-1.83-37.41,12.13-7.72,2.01.66.33,35.17,14.45-7.6,3.41.45Z"/>
    <path class="cls-135" d="M133.07,110.87l-19.82,10.6-.37-39.27c2.49-1.59,4.68-3.74,7.34-5.2,1.28-.71,2.65-1.07,3.83-2.02l1.39,1.82c1.65,11.64,4.19,23,7.63,34.08Z"/>
    <path class="cls-108" d="M273.94,69.08c.6.15.6.48.09.95,4.24-.28,8.64-.52,13.18-.72,6.09,1.74,6.45,7.21-.34,7.88-2.74,2.64-10.7,3.99-13.97,1.98-1.37.4-2.68-.31-4-.24.5-1.29,2.48-.76,4.29-1.16,1.6-.35,1.44-5.84-.23-5.68-22.39,2.13-43.31,7.16-64.86,12.17-.75.17-1.64-.25-2.29-.32-.34-.04-.63-.33-.16-1.44,22.6-6.27,45.35-10.36,68.28-13.42Z"/>
    <path class="cls-129" d="M292.95,88.96c.19,2.32-.31,2.54-2.08,1.1-4.84,2.88-13.04,4.26-17.76,1.44,2.34-3.8,1.33-8.31-.2-12.34,4.48-1.3,9.29-2.26,13.97-1.98,2.45-1.7,4.66-2.28,6.63-1.73,1.98,3.21,2.83,11.57-.55,13.5Z"/>
    <path class="cls-79" d="M124.04,67.83c-1.07.63-1.96,1.67-3.13,2.17-2.16.91-4.12,2.31-5.97,3.79-3.59,3.55-1.19-18.83-1.24-22.75-.06-5.01,1.12-8.71,6.13-9.74l2.1.97c1.01,9.49,1.71,18.01,2.11,25.57Z"/>
    <path class="cls-34" d="M141.23,110.08c1.46.12,3.48.21,4.87-.31-.18,1.11-1.33,1.21-2.5,1.7-10.22,4.28-19.42,9.61-29.62,14.69-.9.45-.94-1.93-.53-2.28,9.28-4.57,18.06-10.28,27.78-13.81Z"/>
    <path class="cls-80" d="M157.24,29.58c-6.36,7.89-10.52,14.99-11.74,26-3.41,2.87-7.71,4.17-11.29,6.28-.78-.09-1.93-.32-2-.89-.31-2.45-.5-24.48-.09-25.7l1.99-2.13c10.25-5.96,20.49-11.97,33.12-15.23-3.96,4.24-6.97,7.93-9.99,11.67Z"/>
    <path class="cls-28" d="M134.11,33.13l.1,28.73-10.17,5.97c-.43,0-1.07.07-1.39-.12-.88-.52-.47-1.57-.58-2.67l-2.24-23.74,1.17-1.29c3.29-3.64,9.03-4.5,13.11-6.87Z"/>
    <path class="cls-77" d="M301.38,76.87c.33-2.7,1.34-2.57,2.49-.11l10.46.98c-.12,2.8.97,5.38,1.61,7.35.04,3.95.34,8.03-.26,11.91-1.72-2.1.35-4.9-1.41-6.37-3.39-2.83-8.1-1.47-11.41.33.53.39.53.74-.04,1.03-.22,1.95-1.07,2.12-1.95.34-.4,2.11-.77,2.59-2.43,1.52-2.62-1.69-2.44-14.84-1.53-17.82,1.73-5.68,3.55-4.06,4.46.84Z"/>
    <path class="cls-68" d="M290,2.91c1.3,1.62,3.32,1.16,6.65,1.03,1.26,19.36,1.68,38.43,1.34,57.94-.02,1.37,1.51,1.99,2.13,2.11,2.17.31,2.8,4.11.82,5.07-.35.34-1.17.82-.91,1.27.47.78,1.24.95,1.76,1.02.99,1.24,1.34,4.87-.43,5.51-1.27-.05.22-1.6-1.93-2.93-.73-.82-2.46,21.98,1.42,18.39-1.05,8.28-.69,16.69-.94,25.38l4.08.24c-1.26,1.95-3.75,1.35-5.89.02.4,4.28-.96,7.89.19,12.08,1.61-1.8.23-4.35,1.62-5.27,2.14-1.42,3.61-.29,5.12.29-.18,1.57-1.18,2.23-2.99,1.98.36,2.08-.31,3.31-2.01,3.68.75.19,1.84.51,1.89,1.11.17,1.99-.63,6.63-1.02,8.91.29,3.81-.65,6.16-2.82,7.06-4.33,5.19-3.85-4.21-3.3-7.8l-2.08-.92c1.07-5.04.12-8.3-2.85-9.78-1.99-2.5-1.24-4.65,2.26-6.45-2.29.51-3.68-.12-4.19-1.91-.51-1.93.44-3.03,2.83-3.28l-1.02-13.73,2.09-2.03c1.44-.93,2.04-.22,1.79,2.13-2.01-5.74-2.23-10.76-.65-15.07-.46-3.74.77-7.5-.38-12.15-1.95.27-3.86.49-5.69.38l2.88-2.17c.65-.49-.47-2.87-1.47-3.43-4.78-2.71-12.43,2.22-14.24-1.56.11-1.84.66-2.94,1.66-3.31l11.82-1.26-1.26-17.04,1.89-1.54c1.2.09,2.12-1.29,1.95-2.88l-2.35-21.95c-.69-6.49-2.27-12.46-2.52-18.91l4.77-.23Z"/>
    <path class="cls-6" d="M303.86,68.9c-2.03-1.85-2.84-4.64-2.44-8.36l-1.14-1.47c-1.02-5.17.48-10.46.38-16.11l-.63-35.96c-.02-.89,0-1.79.49-2.01,3.15-1.34,5.14,18.04,5.55,21.04l6.03,43.83c-3.18.4-5.67-1.07-8.24-.96Z"/>
    <path class="cls-118" d="M303.86,68.9c-.93.04-2.02,1.12-2.91.17-.34-1.61-.72-3.4-.82-5.07-.09-1.47-.18-3.51.15-4.93,2.39-1.69-.19-4.79,1.95-7.45.24,6.1.63,11.61,1.63,17.28Z"/>
    <path class="cls-137" d="M303.87,76.75c-.81-.08-1.68.15-2.49.11-.17-1.85-.93-4,.43-5.51,2.6.33,2.06,3.31,2.07,5.4Z"/>
    <path class="cls-86" d="M288.15,46.88l1.49,20.13c-5.55,2.32-12.74-.35-15.6,3.02-.12-.24-.09-.68-.09-.95l-.09-39.75c-2.29-.21-4.12-.54-5.86-.23.55-1.07,2.67-1.76,3.93-1.55,7.21,1.21,14.07-2.31,13.88,2.94-.21,5.92,1.96,11.11,2.35,16.39Z"/>
    <path class="cls-72" d="M133.2,70.18c1.47,1.08,1.71,3.59,1.69,5.81-.08,10.59.16,20.61,1.88,30.96.22,1.35-1.37,2.43-1.71,3.22-.59.37-1.38.37-1.99.7-.71,0-1.62.19-2.31-.23-.61-.37-.86-1.39-1.08-2.43l-5.74-27.11c-.48-2.29-.98-4.32.11-6.12,2.77-2.25,5.89-3.71,9.14-4.79Z"/>
    <g>
      <path class="cls-69" d="M272.04,24.09c.28,0,.55.1.83.12-.66.99-.94,2.17-.96,3.35-.95.65-2.26,1.16-3.93,1.55l-.78,2.17c-21.73,3.79-44.23,7.8-66.1,13.58,2.52,1.69,2.36,7.54,2.08,10.74-.55,6.2-3.69,11.61-8.61,15.42-10.41,8.06-36.44,15.72-49.82,19.04-5.76,1.43-7.99.1-7.67-5.92l3.42-15.76c-2.98,2.49-5.42,3.09-7.32,1.8-.54,3.08-6.28,5.94-9.14,4.79-1.06,3.16-2.34,3.84-3.83,2.02.21-.47.38-1.05.14-1.35-.42-.52-.84-.87-1.92-1.23.55-2.24,7.33-3.92,2.47-4.43-.63-2.71.41-3.43,3.13-2.17-.97-3.12,7.75-8.08,10.17-5.97l1.06-2.84,8.57-4.33c.55-8.19,4.81-18.65,10.51-24.65l2.91-.46c1.12.18,1.41-1.5,2.86-1.41-4.87,9.13-9.92,15.31-12.19,25.74,2.91.55,4.37-2.51,6.3-2.33,3.07.29,4.01-.33,5.82-1.75,2.58-2.03,6.73-1.72,9.49-4.34,1.62-4.83,4.17-8.75,7.53-10.23,12.88-5.65,16.13,4.25,23.79,1.52,6.23-2.22,12.48-3.49,19-5.1,17.39-4.3,34.74-7.54,52.2-7.6Z"/>
      <path class="cls-36" d="M157.06,59.78c.31-1.43,13.03-6.88,14.5-5.54,4.44,3.9,10.47,5.81,15.94,2.03-2.08-4.11-8.59-2.2-9.42-3.96-1.1-2.35,10.57-5.29,14.01-6.27,2.23-.64,3.4,2.51,3.62,4,1.19,8.39-4.03,13.28-10.24,17.45-9.43,6.33-21.28,5.87-27.99-4.16-.62-.92-.62-2.56-.4-3.55Z"/>
      <path class="cls-51" d="M157.21,75.1c-2.59,2.4-5.69,2.76-9.26,2.88.1-4.18,1.23-7.43,2.89-11.46,2.33,3.21,3.09,5.31,6.38,8.58Z"/>
      <path class="cls-45" d="M185.89,40.61c-2.34,1.08-4.57,2.32-8.01,2.24,1.85-2.17,3.76-3.11,8.01-2.24Z"/>
    </g>
    <path class="cls-115" d="M170.88,96.13c-.78-.79-1.91-.92-2.97-1.02,1.82-.66,30.16-13.6,28.97-8.18l-26,9.19Z"/>
    <g>
      <path class="cls-145" d="M383,478c-15.86,11.27-34.19,19.35-52,24.06l-4-.06c-9.44,3.7-20.13,5.78-30,7-8.77,1.91-17.77,2.91-27,3h-27c-2.23-.32-4.28-.72-6.15-1.19-.63-.31-1.12-.62-1.12-.94,0-1.54,3.12-10.1,5.16-9.9,1.21.91,2.91.67,5.09-.72,2.16.26,4.16-.35,6.02-1.82,6.95-.38,13.77-1.51,20.46-3.4-2.53-1.18-2.96-2.48-1.31-3.91,1.64-1.21,3.82-1.32,6.53-.31l5.58-.11c15.32-3.97,29.54-10.92,42.67-20.87,2.06-1.1,3.48-1.17,4.2,1.34l1.83,1.72c-.95,3-.59,4.76,1.07,5.3,2.37-2.44,6.62-3.34,10.06-3.55,6.64-3.6,13.85-5.91,21.62-6.95,3.05-2.2,6.12-3.1,9.22-2.71,3.27-2.22,6.34-3.38,10.42-2.76,2.78-2.98,6.73-3.74,11.85-2.28,2.91,1.38,1,8.5-.34,10.82-2.03,3.52-9.17,6.89-12.87,8.22Z"/>
      <path class="cls-139" d="M234.09,510.7c-1.43.55-3.12.98-5.09,1.3h-1c-1.29-1.22-3.29-1.31-5-1-2.66-.75-6.04-1.76-10.14-3.03-.37-.72-.91-1.83-.48-2.26,3-3.06,24.5-22.98,26.25-22.95.47,0,.93.24,1.39.54.84-.9,2.12-1.78,3.05-.82,1.03,1.06-5.71,24.6-7.36,27.52l-1.61.71Z"/>
      <path class="cls-110" d="M471.72,202.13c-.61,1.84-2.79,1.33-4.69,2.35,1.29.87,5.28.76,5.68,2.89l-4.78,22.6-17.2,73.53-6.8,33.44-9.87,43.18c-4.19,2.71-2.7,5.23-10.39,8.52-1.86.8-3.12-1.22-3.98-1.99-1.57-1.42,1.84-14.92,1.82-13.86.07-5.23-1.44-9.5,2.26-14.18,1.85-2.34.82-6.13,1.12-8.7-1.22-1.15-1.96-2.45-1.37-4.02,5.63-19.65,10.31-39.52,14.05-59.61l-.57-.89c-3.34,1.18-8.31,1.99-8.03-2.45l1.24-2.02c4.62,1.08,7.12-.41,7.5-4.49,4.96-24.93,10.08-50,15.35-75.22l1.54-1.97c4.2-1.1,8.81-.76,13.83,1.03.48-3.24,1.67-4.33,3.57-3.28,1.3,1.2.89,3.84-.28,5.13Z"/>
      <path class="cls-117" d="M473.04,202.11l-1.33.02c.12-1.71.29-3.42.28-5.13.86-4.92.83-9.93-.09-15.02l-2.41-2.62c-2.12-13.24-6.65-26.26-15.14-36.8l-.37-3.52c-.16-1.33-1.2-2.46-2.96-2.39l-7.14.3c1.72-2.69,4.3-3.05,6.96-1.87,9.94,4.42,14.44,16.35,18.59,25.67,5.75,12.92,5.69,28.24,3.62,41.36Z"/>
      <path class="cls-132" d="M334.97,399.09c2.27-.32,2.29,5.55-.09,5.83l-.73,14.7c-1-.84-1.01-.62-.04.66l-.15,15.8c.77.09,1.93.4,1.91.89-.33,7.97-1.65,19.72-3.08,27.55.27,3.3-.61,5.18-2.64,5.65-2.47-.68-4.23,1.04-6.47,2.48-13.6,8.74-37.09,24.59-52.51,17.46-.54.28-1.08.53-1.65.66-2.85.65-19.67-13.72-23.46-17.05l-1.04.28c-.3.87-.65.86-1.04,0,.99-5.12-7.81-39.68-9.83-46.94-1.56-4.83.1-5.6,5.78-4.73-4.23-1.98-5.13-2.7-.47-3.73,33.5-6.57,65.4-19.81,95.23-35.73,1.1,5.23,1.39,11.1.3,16.22Z"/>
      <path class="cls-144" d="M402.99,431.09l-6.78,27.86c-2.96,4.25-6.42-.39-8.07,1.42l-2.71,2.98c-11.61-1.41-6.69,4.33-15.24,2.16-3.11,3.56-8.38,3.95-12.86,4.78-11.36,2.12-11.98,5.9-15.67,5.47-3.08-.36-5.88,3.27-8.62,1.42-3.07-1.51-.93-10.49,2.77-10.18l3.93-5.3c19.6-10.98,38.8-22.67,57.6-35.09,6.43-2.92,7.24-1.56,5.65,4.47Z"/>
      <path class="cls-30" d="M271.16,490.11c-.03,1.65,2.22,1.35,3.57,2.38.63.48-1.11,2.19-.06,3.64-9.53-.71-3.81,1.9-17.6,3.05-2.87.24-5.76-1.04-7.26,2.99-6.62-4.38-8.15,7.39-8.92-2.21l-1.25-.56c1.93-8.58,3.71-17.05,5.36-25.41.1-1.05-.34-2.17.53-2.96,3.39,4.12,7.95,5.76,11.6,8.97,4.49,3.94,8.92,7.61,14.04,10.11Z"/>
      <path class="cls-71" d="M240.89,499.97c-.75,3.61-3.42,7.03-4.04,10.84-.85-.16-1.9-.21-2.76-.11-.02.04,11.73-33.38,5.92-27.4,7.46-6.78,2.53-1.96,3.94-9.3h1.04c.32,4.39-.56,8.88-1.55,13.62l-2.56,12.35Z"/>
      <path class="cls-62" d="M102.13,152c1.52-1.21,2.01-.56.82,1.03,3.04-.42,3.67,1.16,1.17,2.9.25,3.41.54,6.77.88,10.08,2.97-.5,3.05,5.16.22,5.74,2.18.55,3.11,1.37,2.78,2.45.86,3.49.26,5.76-1.81,6.79l1.15.76c-.75,1.63-.09,2.96,1.97,4l-1.14,11.32,2.3.64c.3,3.18.73,6.3,1.29,9.36,1.65-1.44,2.43-1.07,2.32,1.13-.03,1.37-.55,2.9-1.57,4.59l5.36,30.68c-1.43,1.41-1.72,3.63-.87,6.64.64.29,1.16.62,1.3,1.06,2.25,7.16,4.27,15.52,4.67,22.92,1.86-.33,3,5.2.86,5.84.43,2.07.21,3.43-.66,4.06-.87-.76-1.7-1.54-2.42-2.42s-1.39-1.72-1.77-2.69c-5.73-14.72-12.03-32.96-14.18-48.49-.15-1.08.06-2.21.37-3.35-.58-1.34-1.47-2.11-2.67-2.3l-8.46-32.91c-1.88-6.78-2.27-13.36-1.16-19.74l-1.14-12.69c-.23-.96-2.6-1.4-2.69-2.52-.76-10.21-5.48-20.01-1.88-25.56,4.07,11.4,7.85,43.61,10.05,52.08l2.58,9.94c.87,3.35.5,6.21,2.05,9.64,2.12,4.69,3.56,20.87,6.81,20.82.78-8.9-2.08-16.71-2.96-24.97l-1.86-17.58c-.58-5.47.18-11.25-1.53-16.62-1.45-4.56-.04-8.79-.18-12.62Z"/>
      <path class="cls-4" d="M92.88,172.07c.83,9.27,2.75,18.55,5.21,27.94l7.08,27.01-.86.86,3.13,15.19c2.21,19.33,5.61,38.38,10.19,57.16l-1.62,1.85c-3.53-9.75-7.48-19.21-10.02-30.27l-14.86-64.75-.35-36.96c1.89.62,1.31,1.86,2.12,1.98Z"/>
      <path class="cls-32" d="M115.26,141.74l.86,1.16c12.9-1.96,25.99-2.82,39.26-2.59,2.41,1.26,1.91,2.38.62,4.63-.85,1.48-28.54,5.23-33.54,5.75-1.85.19-3.68-.3-5.42-.88-2.56,1.64-9.23,5.51-12.28,4.86-.79-.17-1.33-.95-1.8-1.64-.35-.26-.52-.72-.82-1.03-.18-4.78-.38-10.25-1.21-14.93.22-.72.18-2.63.79-3.41-2.56,3.3,10.37-6.33,10.76-5.68,1.26,3.53,1.05,7.06.84,10.85.25,1.23,2.31,1.72,1.94,2.91Z"/>
      <path class="cls-33" d="M290.87,90.07c2.41,1.67,1.06,2.81-.81,4.29-1.42,1.13-13.07,5.15-14.15,2.59-.04-.74.29-3.97-.93-4.15-3.66-.16-6.89.1-10.06.15,2.33-1.27,5.51-1.22,8.2-1.44l17.76-1.44Z"/>
      <path class="cls-141" d="M453.99,139.04c10.62,11.86,15.79,27.26,17.92,42.94.93,5.04.96,10.05.09,15.02-1.56,1.11-.99,3.42-1.38,5.76l-12.78-2.58c-2.44-.49-3.83,3.23-4.18,5.57-2.21,14.75-5.26,28.75-8.4,43.34l-1.98,9.19c-1.66,7.7-2,15.69-5.2,22.96-1.7,2.64-6.58,1.49-9.1,1.71-1.89.83-4.33-.07-7.31-2.7-2.89-.92-5.45-2.07-7.67-3.46-.58.3-3.6,1.27-3.7.05l4.65-26.84c.42-2.4-.05-4.95,2.08-5.88,3.87-2.6,8.53-2.88,13.96-.86,1.44-.93,3.04-2,4.79-3.2.4-2.03,1.19-3.99,2.38-5.88l-1.18-.29c-.78.52-2.08.87-2.43.23-2.53-4.63-.34-21.46.59-27.24-.78-1.29-.68-3.07.27-5.35.3-4.52-.86-8.87-3.47-13.07-1.28-4.78.3-11.07,3.31-14.61-.52-1.59-.11-3.7,1.74-3.63l1.7-.81c1.54.88,2.32.73,2.36-.43-3.48-5.58,9.06-9.17,9.71-3.03,1.37-1.28,1.74-.69,1.35,1.1,1.57,2.18,2.52,2.88,2.84,2.11-1.19.06-.85-2.11-.09-3.35.32-.53,5.09-3.84,5.92-3.39,1.03-1.41.56-2.97.09-4.55l-1.61-.26c-2.63-6.58-7.12-12.67-14.2-7.56-1.82,4.61-4,9.18-6.56,13.72-.55,3.12-1.71,6.03-4.16,8.19-2.02,5.62-2.82,11.12-2.4,16.5,2.39,4.76,3.99,8.01,3.39,13.57-.45,4.18-7.16,16.09-9.6,20.28-.22.39-.82.55-1.53.66l1.15,2.18c-2.88,4.64-7.42,9.82-6.47.8,1.2-9.24,2.17-18.53,3.92-28.17l9.08-50.1c1.04-5.73,12.68-13.16,22.09-8.63Z"/>
      <path class="cls-64" d="M406.91,301.93c-4.56,38.18-12.02,79.96-23.04,117.71-3.53,1.07-4.88.47-4.29-3.77,2.65-32.29,3.94-63.99,3.86-95.08l-1.32.22-1.12,1.8c-.4,3.63-1.37,4.7-2.91,3.2.03-2,4.9-16.37,6.39-16.38.73,0,2.06,1.54,2.12,2.51l1.25,18.81.6,21.71c.05,1.9,1.98,3.12.05,5.17s3.6,7.93,7.77-16.39l3.35-19.56,1.06-9.66c.6-5.53,3.63-10.23,3.21-16.28-.18-2.54.66-5.53,2.14-7.02-.78,6.98-1.39,9.56.88,13.01Z"/>
      <path class="cls-40" d="M320.03,251c.08,3.05.78,6.54.38,9.83-.48,3.98-1.29,7.3-.99,11.36s-1.05,8.03-1.16,12.08l-.84,30.71c-.14,5.26-2.23,10.05-.7,15.61,2.48-1.64.23-3.56.94-5.29,5.24-12.75-1.34-3.94,3.21-13.13,4.15-8.39,3.73-17.78,4.69-26.86.3-2.78,2.27-5.13,1.49-8.41-.5-2.1.76-4.09,2.07-5.06,1.28.09,1.21,1.4,1.74,2.13-.14,3.71-.73,7.41-1.78,11.11.71.37,1.37.89,1.41,1.66.21,3.85-1.76,16.67-3.28,19.88-1.24.34-2.11,1.47-2.61,3.38l-5.33,24.42c-1.64,7.5-3.78,14.46-5.11,21.58-.35.49-.72.89-1.16.99-.89.21-.7-16.24-.08-18.08-.01-2.76-.16-6.29.08-8.84-.26-2.44.11-4.13,1.12-5.08.29-6.72.54-13.38.75-19.97-.86-.32-.83-.65.04-1,.46-5.38.82-10.72,1.09-16.03.38-7.27.67-14.6.87-21.97-.93-.25-.89-.59.03-1,.53-4.76.85-9.55.95-14.38.73-2.5,1.29-2.14,2.18.35Z"/>
      <path class="cls-98" d="M436.99,233.89c1.59.71-.2,4.46-1.81,4.37-1.14,3.14-2.86,7.8-6.3,4.69-3.49-1.53-7.35-.97-10.94-.07l-.75-.81c-1.02-5.27,1.04-10.9,1.72-16.12l.4,4.08c1.9-3,4.05-4.78,4.92-7.06l1.48-.07c2.44-5.39,4.95-10.95,7.97-16.06.12-.2.73-.12,1.48.05.34,6.48,1.43,13.02.45,19.95-.38,2.7-.57,5.38,1.38,7.06Z"/>
      <path class="cls-94" d="M304.01,117.95c3.36,2.04,7.97,2.33,12.18,2.07,3.39,6.12,2.22,14.75,2.92,21.33-.18.88-.46.86-.84,0-.81-2.4-1.85-3.44-3.1-3.15.82,2.83-.1,5.81-2.78,8.93,5.52,3.62.22,8.11-3.76,4.61-2.43.15-4.64-.09-6.64-.73-5.59,4.13-9.62-1.52-3.94-2.32.61-1.84,2.31-2.98,5.13-3.4,3.24-2.1,5.4-5.36,6.47-9.79l2.33-.39c.66-.96-.06-5.89-.33-6.16-.47-.47-.78-.76-1.45-.97-3.22.07-4.94-.9-5.16-2.91-5.05-1.59-5.62.65-5.72,5.29-.96,1.17-1.63.92-2.66-.04-1.23-1.14-1.27-14.13,1.8-13.68,1.48,2.1,3.27,2.28,5.54,1.3Z"/>
      <path class="cls-38" d="M320.03,251c-4.4-1.9.06,9.51-3.13,14.03l-1.98-4.72,1.08-22.44-1.19-2.42c-4.13-2.31-5.67-5.17-4.62-8.56,2.08-2,3.42-.72,5.21.99l.49-15.48,2.07-1.3c.86-10.51.95-21.71,0-32.21-.77-.1-1.85-.26-2.01-.85-.58-2.15-.82-11.45,1.91-11.95-.18-6.85-.48-13.58-.9-20.21-1.96-.21-1.89-1.12.01-1.77.24-1.18.67-2.1,1.28-2.76h.84c1.44,13.46,1.21,27.21,1.06,41.32-.02,2.18,1.37,5.24.71,6.99-1.64,4.36-.15,7.46-.17,11.41-.05,11.58-1.36,22.82-.4,34.39.44,5.33-.42,10.51-.28,15.54Z"/>
      <path class="cls-47" d="M353.28,415.88c-3.45-.64,4.05-11.98,4.36-16.82.37-5.71,6.12-20.26,7.67-25.52l2.73-9.27c2.17-7.38,4.18-14.59,6.29-22.06,1.57-5.57,3.98-10.71,3.76-16.2,2.34-.91,1.5-4.32,4.03-4.99,1.46,1.35,1.31,5.46.82,7.46-6.65,26.93-14.49,54.61-24.73,80.38-.51,1.29-1.31,2.46-2.14,3.64s-1.8,2.3-2.79,3.38Z"/>
      <path class="cls-113" d="M306,116.04c-1.35-1.28-1.68-3.28-.99-6.02.2-6.18-.53-12.19-2.19-18.03-.28-.37-.35-.72.04-1.03.91.88,10.24-2.37,10.44.37l1.9,27.27c-2.6.4-4.84.57-6.59-.29-.43-.47.19-2.01-.4-2.16-.81-.2-1.79-.21-2.2-.12Z"/>
      <path class="cls-104" d="M302.82,91.98c.74.09,1.75.14,2.45.45.79.35,3.04,22.09.73,23.6-.65.62-1.5,1.14-1.99,1.91-2.16,1.09-5.05.76-6-1.8-.78-2.11.11-20.63,1.35-22.29.42-.57.96-1.06,1.52-1.53.64,0,1.31-.42,1.95-.34Z"/>
      <path class="cls-81" d="M435.79,240.06c-.85,1.16-2.67,3.96-2.01,5.42,1.59,3.13,5,5.27,3.86,9.46-2.32-2.17-2.98-5.16-4.93-7.52-4.13-4.99-10.12-4.96-15.67-3.31-.09-.67.27-1.4.14-2.06,4.58-1.07,9.08-2.47,13.85.61,1.76-1.93,2.72-3.21,4.14-4.42,1.32-.87,1.52-.27.61,1.8Z"/>
      <path class="cls-126" d="M334.97,399.09c.08-4.95.3-9.86-.6-14.88-11.97,7.27-24.04,12.29-36.71,17.63-19.93,8.41-39.82,14.63-60.93,18.69,16.48,1.18,35.7.33,51.45-2.48.92-.08.89,1.91.28,1.97,5.9-.57-14.96,2.49-12.99,2.27-13.58,1.51-26.85,1.49-40.69,1.74-1.19.02-.66,2.61-.64,3.04-.33-1.2-2.1-2.34-.36-4.57-11.48-3.25-17.53.82-24.78-3.6,6.08,1.54,11.97,1.13,18,.22,36.36-8.47,73.22-20.54,105.88-39.42l.08-22.35,2.01-1.41c.56-.41.79.43,1.01,1.14l.1,40.87c-.37.7-.53,1.56-1.1,1.15Z"/>
      <path class="cls-11" d="M406.91,301.93c1,1.53,2.3,3.76,1.39,6.29s3.45,5.46,3.39,8.02c-.02.67-2.19,1.27-2.14,2.11.16,2.52.11,6.46,1.53,8.5,1.87,2.68,1.12,4.54,1.57,7.2,1.03,6.15,2.84,12.34,5.2,17.83,2.38,11.02.24,11.02-2.16,24.87-2.85,16.47-7.33,32.12-11.17,48.4-.51,2.16.41,4.94-1.51,5.93.34-1.39.04-2.98-.68-4.71-4.5,2.07-8.91,4.66-13.47,7.73-13.91,9.36-27.54,18.25-42.41,26.14-3.95,2.1-7.55,4.06-10.61,6.75,6.04-16.98,13.52-33.6,17.46-51.13,11.52-28.29,20.1-57.74,27.79-87.82.66-2.59.1-5.17,1.06-7.04.86-1.68-.06-4,2.48-5.55l.56,36.58c.35,22.85-1.51,44.79-3.98,67.5,3.52-2.61,1.16-6.88,3.86-9.68,6.49-25.48,11.07-50.81,15.38-76.73l4.85-29.15c.2-1.21.59-2.11,1.64-2.06Z"/>
      <path class="cls-120" d="M472,197l-.09-15.02c-.31-2.26,3.21,12.82.09,15.02Z"/>
      <path class="cls-120" d="M333.95,436.08c.49-5.58-.25-11.15-.62-17.01.3,4.76.72-20.56,1.55-14.16-.16,10.47.22,20.95-.93,31.17Z"/>
      <path class="cls-124" d="M331.84,282.13l1.16,16.87c.33,7.34.66,14.67,1,22v1c.37,9.65.67,19.34.88,29.08l.08,4.84-.09,24.91c-20.09,12.93-70.67,32.64-92.86,36l-15.01,2.28c2.45-2.01,6.14-1.3,9.35-2.74l31.17-13.96c16.21-7.26,30.93-15.99,45.35-26.4,3.54-2.56,8.75-4.41,11.16-8,5.09-7.59,3.76-49.44,3-61.25-1.71,1.01-1.01,2.8-2.43,3.24.79-3.61.89-7.42,2.33-11.38,1.65-4.52,1.09-9.3,2.16-13.54.78-6.9,1.7-7.88,2.76-2.95Z"/>
      <path class="cls-120" d="M334.88,351.08c-.63.44-.84-.37-.84-1.12l-.04-27.96c.36-.12,1,.36,1,1.05l-.12,28.03Z"/>
      <path class="cls-120" d="M331.84,282.13c-1.18-.2-.15-1.49-1.62-2.37.34,2.64-.79,3.9-1.14,5.32-.12-3.75.4-7.69,1.78-11.11,1.69,2.33.79,5.39.98,8.16Z"/>
      <path class="cls-120" d="M334,321c-.37.12-.99-.36-.99-1.05v-20.95c.39-.12.96.36.96,1.05l.03,20.95Z"/>
      <path class="cls-29" d="M117.03,149.81c-4.93,2.05-2.55,6.67-2.99,15.28-.07,1.37,1.27,1.83,2.07,1.85,1.91.23,1.83.98-.1,1.29-4.09,3.7-7.69,4.87-10.79,3.52l-.22-5.74c-.32-3.3-.62-6.66-.88-10.08-.51-.84-.23-2.2-1.17-2.9l14.08-3.22Z"/>
      <path class="cls-140" d="M123.95,269.91c-1.7.37-.45,2.89-.97,4.16-1.16-7.89-4.67-15.88-5.97-23.98-.27-1.7-.32-3.92.69-6.22l6.26,26.04Z"/>
      <path class="cls-17" d="M116.01,168.22c.89.04.89.32.08.81-2.92,1.33-4.64,4.68-8.09,5.17-1.07-.62-2.73-.99-2.78-2.45,4.59.73,6.05-3.38,10.79-3.52Z"/>
      <path class="cls-120" d="M105,166c-1.76,1.07-.81-9.27-.88-10.08,1.88,3.08.75,6.69.88,10.08Z"/>
      <path class="cls-99" d="M294.77,140l-.19,7.67c1.43-.93,1.61,3.25,1.46,3.88-.53,2.28-1.3,3.42-3.83,3.29-.8-2.39-4.23-1.49-6.31-.74-.27,0-.57-.03-.83-.09-5.16,1.97-9.95.1-2.75-2.86,3.33.53,6.62-.18,4.57-4.16-3.2,3.01-2.99-3.46-.87-4.83,3.23-.54,5.01-3.09,1.77-5.14-1.31-4.56-3.56-6.6-6.73-6.11-1.66-2.03-2.86-.63-4.14,1.16,1.28,3.81-1.33,3.22-4.25,2.27-.41.53-.83.94-1.24.93-.27,0-4.3-2.11-4.42-2.35-6.48,5.2-4.25,11.68-1.19,17.87-.62,1.35-.17,2.71,1.37,4.08.01-.9.24-.85.65.03,2.65.42,2.62,1.31.1,2.19h-.89c-4.42.94-6.74.13-6.96-2.42-3.95-.48-5.48-8.76-1.91-10.57-.44-3.03-1.51-4.2-3.23-3.51l-6.19,6.69c-3.13,5.5-9.48,11.36-7.63,1.65,9.91-16.09,17.32-19.42,33.93-25.96.72-2.26,3.26-3.33,7.6-3.22,2.6-.97,4.35-.57,5.25,1.2l5.96-.13c.4,2.04.53,3.86.51,5.66-1.02-.99-3.28-1.39-3.72-.12-.66,1.88,3.16,2.41,3.6,3.83,1.07,3.43.11,6.8.51,9.81Z"/>
      <path class="cls-82" d="M291.82,101.91c-.43,5.48.73,10.96.95,16.97-1.55,1.47-3.78.64-4.86,2.06l-12.85,2.02c-.07-.97.24-2.2-.28-3.28-.44-.91-1.98-.57-2.89-.62.87-1.55,2.91-2.27,6.12-2.16.5-.87-.43-1.48-2.78-1.85-.19-3.49-.31-6.96.51-10.71-.82-.36-1.34-.25-1.8-.29,5.58-2.13,10.74-5.18,16.77-6.98.43,1.88,1.21,3.49,1.11,4.83Z"/>
      <path class="cls-92" d="M298.08,147.8c.87.23.85.52-.02.88-.4.35-.9.51-1.01.85-.12.4.18,1.52,1.05,1.63,1.42.18,2.76-.03,3.9-.17.87.28.86.62,0,1-.72.38-1.78.7-3.18.96l1.28.47c-1.44,17.46-3.46,34.98-6.06,52.56l-2.13.92c-.34,2.64-1.36,5.46-1.96,8.15-.06.26.08.57.04.84-1.39,6.14-2.36,4.37-2.03-.99-2.16.44-1.71-2.6.12-2.83-1.37-1.27-2.51-2.45-.22-3.03,1.51-4.31.56-9.19,1.41-14.05,1.47-8.45,1.79-16.4,1.8-24.99.01-5.37,1.75-10.44.65-15.76-2.04-.35-4.03-.12-5.81-.15,1.6-2.18,5.06-1.18,7.88-1.21,1.15-4.5-1.04-9.1.98-12.89.33,2.51.39,4.89.33,7.99,1.25-.64,2.12-.83,2.97-.2Z"/>
      <path class="cls-42" d="M258.18,144.1c-.22,3.64.47,7.2,1.91,10.57,2.59,1.87,1.65,2.92-1.09,2.28-3.75.05-7.24,1.46-11.11,2.37-1.9.44-3.64-3.03-3.02-4.51-.45-.49-.78-.94-.68-1.26,1.15-3.8,9.06-11.2,12.28-13.9.88,1.25,1.45,2.73,1.71,4.45Z"/>
      <path class="cls-92" d="M285.08,154.01c1.81,2.07-12.18,1.23-12.17,2.92-1.33.63-3.53.14-4.97.16l-.1-2.19c-.25-2.55,2.97-3.18,4.45-1.86,1.14-2.95,2.39-3.93,3.73-2.92,1.29-1.27,4.81-.74,6.19.03,1.32-1.28,2.88-2.33,4.67-3.16,1.44.55,1.4,2.29,1,3.45-1.31,3.74-7.13-.31-7.94,3.52,2.15.07,3.58-.32,5.12.06Z"/>
      <path class="cls-56" d="M258.18,144.1c-.96-.68-1.03-1.74-1.83-3-4.59,4.39-9.24,8.33-11.48,13.7-1.84.07-4.04.19-4.75-1.42-.99-2.24.19-3.13,1.01-4.47.2,1.51-.4,3.4,1.33,5,4.81-5.78,8.37-12,14.79-17.22,1.38,2.42,1.07,5.12.94,7.4Z"/>
      <path class="cls-133" d="M278.01,116.9c-1.3.26-2.75-.03-3.81-.71.37-.27.6-.99,1.04-1.14,3.85-1.29,7.72-2.52,12.02-3.41.97-.2,2.14,1.53,1.31,1.8l-10.56,3.45Z"/>
      <g>
        <path class="cls-100" d="M264.91,92.95c1.58-.41,3.2-.58,4.83-.68,4.98-.29,11.68-.5,6.16,4.68v2.2s-50.62,22.94-50.62,22.94c14.66-5.02,29.08-11.03,43.27-18.05l5.39.02,3.21-.52c.59.18.56,11.5-1.92,11.52,1.34,1.19.71,1.43-1.04,1.14-1.9,1.42-2.67,2.37-2.3,2.86,4.65-1.7,7.64,1.79,3.17,3.9l-1.25,2.64c-12.37,4.3-23.13,10.85-29.8,22.5l-2.88.82c-1.24,2.99-.55,6.55,3.13,4.58l.61,1.31c1.25.39,2.17,1.27,2.75,2.63l9.7-2.38,1.69,1.9c.21.37.35.69.26.78-2.31,2.47.43-1.91,2.44-1.61,1.3,1.17,3.09,1.49,5.36.97.18-.88.48-.86.89-.01.23-1.84,4.2-1.84,4.97-.16,2.61-.58,5.29-.72,8.03-.41-.14,14.1-.21,28.23-.21,42.41-.16,2.11-.96,2.53-2.77,2.19-14.82-8.63-29.51-17.57-44.07-26.81-3.73-2.34-6.92-5.25-9.76-8.58-3.53-4.14-8.08-10.73-5.34-15.64l-.81-1.45c.53-2.08.22-2.96-.9-2.64l-.5,2.65c1.35,3.54,2.19,7.26,2.53,11.17-1.35.4-1.68,1.49-1.01,3.26,2.02,1.38,3.89,3.37,5.63,5.96,16.07,12.26,33.24,23.26,51.52,32.99,2.69,1.28,4.03,2.92,4,4.91,1.46,2.22,1.74,5.11.83,8.67l-.25,22.5,2.1-1.06,1.31-5.29c1.34-.99,1.7-.41,1.93,1.14-1.19,8.95-.65,11.69,1.62,8.22-.39-.2-.7-.39-.68-.56.68-8.13,1.62-16.89,3.9-24.63-.88-.09-.87-.38-.04-.84.67-3.16,3.66-2.21,8.95,2.84,5.9,3.59,9.95,8.16,12.16,13.69-.33,34.19-.85,66.44-4.34,100.51l2.51-7.35c4.64-8.07,4.28.59,3.77,5.33,2.84.94,2.85,7.99-.08,8.84-.65,2.49-.79,16.7-.11,17.23.26.2.77.08,1.36-.14-.22-4,.01-7.98.71-11.96,2.9-11.29,5.66-22.52,8.28-33.68l1.44-.36c1.12-4.16,2.47-5.3,4.06-3.43,2.58,3.02.87,53.27-1.59,59.52-1.27,3.21-2.79,5.36-5.77,7.15-29.25,19.07-60.22,38.63-94.3,45.87-.26.59-.53,1.06-.87,1.11-5.29.84-12.11.53-17.13-1.33-7.23-4.4-14.3-9.58-19.82-16.05-5.62-1.9-12.45-8.28-14.18-13.97-3.81-3.45-5.99-9.03-10.63-11.75-5.25-7.8-12.15-14.4-18.22-22.16-12.92-16.5-23.21-33.74-30.13-52.89l-4.7-20.15-1.66-9.46-6.81-47.42,2.34,1.98c5.04,19.25,10.45,38.61,18,56.95l.93.3c2.24,8.75,2.15,7.3-.27-4.37l-.86-5.84c-.64-3.31-.32-4.69.97-4.16,2.34.21,3.53,5.27,2.28,7.02,3.91,1.48,2.04-4.55.81-7.01-1.09-.61-1.73-1.5-1.98-2.68-1.39-6.65-2.69-13.35-3.92-20.04-1.46-7.93-4.71-28.72-4.29-36.08.17-2.95.27-3.44,3.14-5.11l.1-2.3c10.23-5.29,20.56-10.51,31.01-15.65l-.23-8.63,2.04-1.42c2.59-1.18,3.71.81,3.37,5.97l7.42-1.87c1-2.76,2.34-4.13,4.03-4.1,5.7-1.81,2.04,9.73-.66,12.1l-.03,2.57c-7.75,13.35-13.82,27.49-18.21,42.4l-1.69,1.81c-3.79,17.1-7.47,34.15-11.05,51.13l-1.02.88c-.46,1.62-.61,5.44.9,4.2,1.76-17.22,6.16-36.02,11.08-52.8.07-.23.47-.37.97-.48,3.83-16.42,10.29-32.59,19.05-47.14.68-1.12,1.25-1.87,2.81-1.68.73-1.24,1.09-2.24-.37-3.01-.3-1.89,1.12-11.64,3.53-11.97-1.14-2.81-1.77-6.06-1.89-9.74-1.72.03-2.17,2.05-1.35,6.05-1.32.16-2.85-.55-4.6-2.14-.6.67-1.37,1.13-2.23.86-18.56-5.89-27-8.18-43.73,4.67l-2.23-1.01c-5.51,2.43-4.05-2.69-.92-5.68,1.11-1.56,1.12-2.26.02-2.09-4.63,3.92-4.71-8.72-4.25-12.02-.09-2.63,1.63-4.33,5.17-5.1,10.85-2.48,21.87-4.02,33.36-5.34,2.24-.26,4.31-.55,5.65-2.21-7.62-1-14.58-.08-22.05.72l-20.72,2.22c.23-1.89,1.49-2.4,1.99-3.46l20.38-10.96c23.39-12.58,77.07-29.88,104.36-33.75,8.6-1.22,16.67-3.97,24.92-4.08Z"/>
        <g>
          <path class="cls-10" d="M119.99,206c-.88,1.14-1.38,2.96-1.15,4.95l3.39,29.94c1.14,10.06,4.16,19.42,4.81,29.03,1.85,2.84,2.63,12.14-.81,7.01-.62-2.32-1.73-4.69-2.28-7.02l-.95-.25-5-20.02-.99.45-5.71-32.55c-.3-1.73-.94-3.84-.74-5.7.15-1.39,1.79-3.02,3.52-3.66l5.92-2.18Z"/>
          <path class="cls-76" d="M123.17,283.97c.36-1.33.47-2.7.66-4.06.88,6.03,4.66,11.63,5.74,18.39-4.27-4.34-4.65-9.74-6.41-14.33Z"/>
          <path class="cls-15" d="M295.92,213.75c2.25-1.14,3.73.87,3.79,3.05,1.55-1.2,2.14-.65,1.3,1.14,3.02-.48,7.97,2.74,7.88,6.04,2.69-.88,3.5,1.02,1.31,2.91-.13,6.1,8.94,4.2,7.87,14.19-.88,8.25-1.21,16.15-1.16,23.95-.14.2-.03.74-.03,1-.22,6.39-.52,12.71-.87,18.97-.34,6.33-.71,12.68-1.09,19.03l-.04,1c-.21,6.58-.46,13.24-.75,19.97-.41,1.4-.51,3.82-1.12,5.08-.35-2.7-.95-5.32-.39-8.02-3.3,6.38-3.49,12.85-8.62,17.97,1.89-16.02,3.01-31,3.59-46.58l.97-25.86c.5-13.23.46-26.1.65-39.49-5.74-5.25-11.51-9.29-17.39-13.92-.46-.36-1.75.93-1.86.89-1.33-2.06-1.04-7.53,1.96-8.15,2.01,1.45,3.22,4.5,4.01,6.84Z"/>
          <path class="cls-24" d="M218.8,150.07c.39,6.98,4.44,12.68,9.22,17.99,4.31,4.79,9.85,7.38,15.14,10.81,7.46,4.84,14.58,9.44,22.42,13.61,4.53,2.41,8.15,5.82,13.18,7.62.98-15.71-1.4-28.26.79-42.81-2.37-.4-4.49-.26-6.65-.36-1.29-.78-.73-1.72,1.67-2.83,3.67.15,7.17.12,10.49-.09.24-.84.52-.78.83.09,1.93-.94,6.35-1.22,7.77.28,1.06,1.12-.96,28.43-1.16,30.81-.16,1.96-2.07,23.07-3.17,23.55-.46.2-.97.27-1.5.31l-2.75-.46c-16.8-10.54-33.69-20.96-50.69-31.28-6-3.84-13.63-9.14-15.64-16.17-.04-.13,1.18,2.28-.69,1.92-2.05-3.84-.5-7.93-1.72-12.45-.63-2.32-.21-3.18.71-4.63.83.61,1.4,1.98,1.71,4.09Z"/>
          <path class="cls-57" d="M292.95,88.96c.78,6.32,2.19,12.83.7,19.06-1.58-2.38.38-5.14-1.83-6.12l-2.66-2.22-12.36,5.37-2.85-1c-9.3,3.55-18.29,7.84-27.84,12.12-8.59,3.85-16.8,8.51-26.51,8.43,3.67-5.15,9-6.17,13.85-8.37l42.47-19.28,12.18-3.98c1.73-.57,2.82-1.09,2.78-2.9.24-.65,1.46-.97,2.08-1.1Z"/>
          <path class="cls-109" d="M287.86,209.05c-.31.89.25,2.1.22,3.03-1.38,2.38-2.42,1.7-2.14-1.04-2.48,1.12-7.34-1.11-6.69-4.12-1.75-1.5-3.12-3.19-5.62-4.63-14.4-8.29-28.48-16.46-42.33-25.58-5.68-3.74-10.29-8.19-13.2-13.64.27-.94-.54-2.21,1.03-3.15,2.15,5.96,6.48,9.88,11.61,13.44,19.69,13.64,38.45,22.52,57.13,35.7Z"/>
          <path class="cls-67" d="M285.94,211.04c.5.67.89,1.34.84,1.97-.61,8.23-1.62,16.79-4.85,24.01-.46,3.51-1.62,7.43-3.27,11.45-1.61-10.19-.12-19.47-.56-29.48-.19-4.33.22-8.34,1.15-12.07,1.86,1.59,5.2,1.75,6.69,4.12Z"/>
          <path class="cls-3" d="M180.19,200l-5.84,38.11c-1.25,8.14,4.37,15.69,9.84,20.78,1.23-.87,6.06,3.75,5.91,4.76-.28,1.9-1.62,3.68-3.14,2.17-8.08-10.21-17.69-16.31-14.23-34.94l6.3-33.9c1.43-1.52,1.82-.51,1.16,3.01Z"/>
          <path class="cls-93" d="M169.88,190.99c-11.94,16.75-13.7,30.74-21.86,48.82-1.03.24-1.32-.74-.88-2.93,4.5-16.29,10.82-32.43,19.93-46.77,1.3-5.43,5.3-3.94,2.8.89Z"/>
          <path class="cls-116" d="M166.93,177.1c.7.07,1.01.2.8.9-2.98,9.82-3.8,3.82-13.78,9.29-.55-3.49,1.44-7.23-1.04-9.29-1.28-1.06-1.24-2.67-1.9-3.98-1.21-1.67-1.79-2.85.39-3.22,3.58-.61,14.27,2.64,15.52,6.3Z"/>
          <path class="cls-9" d="M273.35,309.53c-19.01-3.91-37.49-3.44-57.02.11,5.99-8.44,60.03-4.62,59.12-1.1-.15.58-1.11,1.19-2.1.99Z"/>
          <path class="cls-74" d="M148.02,239.81l-12.05,53.28c-1.87.02-1.3-2.63-.9-4.2-.13-6.71,2.71-13.85,3.88-20.87,1.83-11.02,5.42-21.11,8.2-31.14.21,1,.39,2.02.88,2.93Z"/>
          <path class="cls-83" d="M116.09,169.03c.04-.26-.1-.55-.08-.81l.1-1.29c11.91-6.56,26.68-10.27,40.38-4.94-11.68.75-22.74-1.92-32.8,3.6-2.65,1.46-5.27,2.37-7.61,3.43Z"/>
          <path class="cls-105" d="M235.81,330.11c-6.21-.9-33.39,6.66-34.61,5.27-.25-.28,0-1.47.64-1.63-.36.09,40.19-10.04,33.97-3.64Z"/>
          <path class="cls-131" d="M171.15,166.26c.14,3.55.77,6.8,1.89,9.74.19,3.36-1.31,6.75-1.33,10.24-.01,2.73-.71,3.17-1.83,4.75.13-.52.53-1.13.17-2.22-.48-1.46-3.47,2.11-2.97,1.33-.9-3.3,4-11,.66-12.1-.32-.1-.57-.65-.8-.9l.18-.9c1.81.97,1.7-1.96.83-3.25-1.14-.62-1.95-1.81-2.74-2.78.89.39,2.35-.14,3.35,1.9,1.95-3.92-3.53-7.79,1.93-7.07.45.06.34.95.67,1.26Z"/>
          <path class="cls-39" d="M180.19,200c.14-.93-.14-2.78-1.16-3.01l2.78-25.81c.29-2.74-3.38-6.43,1.05-8.87-.04,13.09,1.04,25.86-2.68,37.69Z"/>
          <path class="cls-31" d="M288.08,212.08l-.12,2.83c.25,9.68-.47,18.37-2.14,26.06l.96.12c-.24,1.85.34,4.49-2.46,4.76-1.01-4.65-.11-8.93-.14-13.5-1.96,1.42-.29,4.02-2.26,4.66,1.13-8.64,1.86-17.53,4.01-25.99.36.57,1.71.48,2.14,1.04Z"/>
          <path class="cls-66" d="M289.99,215.9l-3.21,25.19c-.96-.04-.31,1.14-1.59,1.85.47-9.29,2.38-18.77,2.77-28.04.23,1.35-.5,2.87.56,4.14.76-1.41.6-2.53,1.47-3.15Z"/>
          <path class="cls-41" d="M274.19,116.19c1.31-.68,3.45-.97,3.81.71-1.86.61-4.27,1.86-6.12,2.16-6.5,1.05-11.89,5.93-19.27,5.44,6.99-4.59,14.59-6.38,21.57-8.3Z"/>
          <path class="cls-85" d="M221.82,254.09c.5.48,1.72.79,1.66,1.56-.54,6.49-13.92,1.5-14.53,0,.06-6.57,7.55-3.92,11.34-1.43l1.54-.13Z"/>
          <path class="cls-112" d="M221.82,254.09c.85,4.93-6.36-3.33-10.31-.75-1.05.69-1.13,2.85-2.56,2.31-.81-1.25-1.65-4.81.32-5.18,4.57-.86,9.57.76,12.56,3.62Z"/>
          <path class="cls-84" d="M314.16,356c-.82,4.4-1.03,9.37-4.81,13.56,1.7-9.82,3.42-18.63,2.52-28.59-.07-.83.4-2.45,1.05-2.06,0,1.1-.21,19.03,1.25,17.09Z"/>
          <path class="cls-1" d="M186.79,254c1.18.67,1.61,1.85,1.29,3.55,1.97.11,3.74,1.09,5.31,2.95l1.44-.5c1.19.79,1.63,1.13,1.41,2.59-.62,4.15-4.36-1.59-6.96,4.14-.65,1.43-1.85-.32-2.31-.9.29.22,2.17-.19,1.79-.69-1.68-2.2-2.85-4.66-4.56-6.25,1.6-.06-.27-6.13,2.59-4.9Z"/>
          <path class="cls-128" d="M243.04,132.15c-5.01,4.86-9.12,9.77-13,16.27-4.52-1.67,9.88-17.63,13-16.27Z"/>
          <path class="cls-101" d="M203.55,312.15c-6.34,1.89-11.47,5.29-17.77,8.04-1.82-3.01,19.14-12.69,17.77-8.04Z"/>
          <path class="cls-43" d="M135.97,293.08c-.28,4.22-.17,9.96-2.85,14.5-2.36,1.67,1.8-20.08,1.95-18.71-.64,1.48.38,3.09.9,4.2Z"/>
          <path class="cls-35" d="M176.89,154.49c-4.26-1.54-7.66-6.71-11.38-9.63-.32-.28.76-1.72,1.06-1.46.34.29,1.13,1.03,2.04.97,2.38,3.51,6.91,4.62,8.27,10.12Z"/>
          <path class="cls-21" d="M194.83,260c-.31.32.24,2.37-.45,2.47-.58.09-2.07-.93-2.39-1.48-1.13-1.98-3.05-1.23-4.67-1.7s-1.56-4.23-.53-5.29c3.22,1.17,5.22,4.14,8.04,6Z"/>
          <path class="cls-143" d="M218.8,150.07c-2.06-.23-2.05-2.41-1.71-4.09,2.11-3.35,2.54-7.84,7.32-9.97-1.14,5.59-4.92,6.79-5.6,14.06Z"/>
          <path class="cls-140" d="M126.23,276.92c.43,0,.98.12,1.29-.07,1.28-.8-.26-3.79-.48-6.94,1.57-1.54,4.3,14.86,1.11,14.97-1.29-2.91-1.27-5.48-1.92-7.96Z"/>
          <path class="cls-8" d="M173.04,176.01c-2.33,2.73-3.57-10.9-1.89-9.74,2.74,2.6,1.7,6.36,1.89,9.74Z"/>
          <path class="cls-92" d="M267.06,157.1c-3.81.04-8.04,1.93-12.14,1.61,1.52-1.34,3.18-.41,4.09-1.76.48-.71,1.34-1.15,1.09-2.28.26-.16.61-.41.95-.42.68-.02.64.94,1.05,1.64,1.1,1.89,3.4,1.05,4.96,1.2Z"/>
        </g>
      </g>
      <path class="cls-2" d="M460.89,157.87c4.55,7.51-8.09,9.34-5.92,11.29-1.12.13-1.73-.66-1.84-2.36l.29-10.89c-1-.6-1.81-.23-2.43,1.09,1.57,2.25,1.79,6.96-.22,8.94-1.49-1.22-3.81-1.35-5.95-.82-1.73.42-3.76,1.64-3.76,3.85-.34,1.87-1.07,1.72-1.27-.2-.95-.12-2.36-.53-2.32-1.14.31-4.88,6.13-14.35,9.49-17.74,6.57-5.92,11.75,5.15,13.28,11.2.05.2-1.59-3.69.63-3.23Z"/>
      <path class="cls-18" d="M435.27,173.85c-.93,4.88-4.51,10.57-1.59,15.71s4.51,11.54,1.48,17.32l-8.71,16.63c-.47.89-1.09.68-1.6.73-.75.08-.52-.78-.62-1.27,2.02-5.27,4.88-9.89,7.62-15.4,8.82-17.73-9.06-12.91,2.51-35.61.8-.47,1.11.16.91,1.9Z"/>
      <path class="cls-18" d="M439.81,168.77c.4.13.85.1,1.27.2,2.8,1.93,11.27,29.96,7.91,32.67-2.14-4.24-6-34.4-11.98-31.43-1.54-2.41,1.66-5.01,2.8-1.44Z"/>
      <path class="cls-106" d="M454.98,169.16l5.64,12.94c.71,1.63,2.11,3.54-.14,5.43-2.76-7.37-6.63-13.49-8.34-20.49.28-3.75-.1-7.1-1.13-10.05,0-.76-.23-1.88.54-1.98,5.73-.69-.09,6.05,3.44,14.14Z"/>
      <path class="cls-136" d="M446.98,149.89l-7.02,13.32c-1.04,1.98-.89,3.87-.15,5.56-1.42-.45-2.14.4-2.8,1.44-.72,1.14-1.48,2.25-1.74,3.63-.49-.53-.76-1.2-.91-1.9,2.3-7.82,5.91-15.33,10.72-21.9,1-.92,1.63-.98,1.91-.15Z"/>
      <path class="cls-89" d="M460.89,157.87c-.25,1.32,1.02,3.2-1.1,4.47-2.24-5.5-5.39-16.07-12.82-12.45l-1.91.15c1.81-2.47,3.84-4,7.57-2.54,4.81,1.88,5.92,6.53,8.25,10.36Z"/>
      <path class="cls-14" d="M435.79,240.06c-.11-.63-.23-1.27-.61-1.8,1.12-.96.96-3.24,1.81-4.37,2.75-3.65,3.66-11.31,6.98-11.52-.83,5.72-5.22,13.64-8.18,17.7Z"/>
      <path class="cls-48" d="M452.13,167.05l-1.35-1.1c.3-2.97.23-5.96.22-8.94l2.02-.98c-.49,4.06,1.07,7.8-.89,11.03Z"/>
      <path class="cls-38" d="M316,288c-.92-.24-.62-2.11,0-3l.04-17.9c0-.74.22-1.36.84-1.07l.16,20.02c0,1.03-.28,2.03-1.04,1.95Z"/>
      <path class="cls-120" d="M314.12,325l-.1-18.9c0-.74.24-1.36.85-1.07-.28,6.67,1.1,13.55-.75,19.97Z"/>
      <path class="cls-120" d="M316,288l.04,14.07c0,1.08-.4,1.91-1.12,1.96l.07-17.08c0-1.03.23-2.02,1.02-1.95v3Z"/>
      <path class="cls-98" d="M316.99,144.11c.07.58-.01,1.18-.01,1.77.39,6.74.69,13.48.9,20.21l.1,12.8c.96,10.53.83,21.65,0,32.21l-.78,14.66c-.12,2.22,1.55,4.52,0,6.45-2.87-2.08-4.32-4.66-6.98-5.32-.08-.97-1.12-1.93-1.31-2.91l-1.48-1.62c.17-4.84.84-9.46,2.03-13.87,0,0,.28-12.74.83-38.22-1.91-5.61-2.44-11.56-1.58-17.86-1.89,2.14-2.54,2.13-4.38-.13-.5,2.76-1.89,2.43-2.3-.28v-1c3.75-.45,7.62.68,11.69-.47-.86-1.28-4.19-1.51-3.52-3.29,1.32-3.54,4.33-5.77,5-9.04,1.75-4.1,3.16,3.52,1.82,5.91Z"/>
      <path class="cls-52" d="M311.98,135.11c-3.39,8.01-3.46,12.02-13.92,13.57.05-.28-.02-.6.02-.88l1.96-17.07c-.01-3.44,4.1-2.88,6.86-2.46,4.99.77,7.1,1.4,5.08,6.85Z"/>
      <path class="cls-138" d="M305.04,125.07c2.21.85,5.7.09,7.78,2.21,2.44,2.48.09,5.63-.84,7.83l-.03-3.32c-3.75-1.53-8.19-2.47-11.91-1.06.17-1.47-.42-3.52.45-4.81.94-1.4,3.16-.79,4.55-.84Z"/>
      <path class="cls-120" d="M318.27,141.34c.24.83-.34,2.75-1.28,2.76-.44-3.52.44-6.59-1.82-5.91.24-1.16.08-2.72,1.89-3.35.64,2.71.65,4.56,1.21,6.5Z"/>
      <path class="cls-120" d="M317.97,211.1v-32.21c.66-.32,1.14,1.18,1.14,2.11l-.1,28.02c0,.95-.3,2.42-1.04,2.09Z"/>
      <path class="cls-120" d="M317.88,166.08c-.64.43-.82-.36-.82-1.12l-.08-19.09c.56-.43.83.43.94,1.14.2,6.67-.08,12.9-.04,19.06Z"/>
      <path class="cls-97" d="M301.01,217.94l-1.3-1.14c-1.97-.79-1.59-2.26-1.12-3.92l-2.67.88c-3.25-.72-4.51-3.68-4.01-6.84l6.91-53.96c.43-.52,1.61-.66,2.17-.44,3.89,1.52,6.47,8.18,6.76,12.67l2.04,2.52c-.14,14.83-.5,29.65-1.08,44.48l-2.9,2.38c.52,4.13-1.18,5.67-4.8,3.37Z"/>
      <path class="cls-100" d="M302,152l2.3.28c1.46.8,2.85.79,4.38.13,3.61.1,1.44,38.57,1.41,42.61l-.13,20.96c-.02,2.98.1,5.68-1.08,8-3.06-1.27-5.41-3.86-7.88-6.04,7.08-.85-1.57-2.68,6.53-7.36,2.62-1.51.67-5.36.68-7.8l.06-19.94c.01-4.55,1.77-8.68,1.47-13.17-7.91-4.5-.89-7.79-8.1-12.88.02-1.73,1.1-2.94.31-3.31-1.02-.47-2.46-.65-3.15-.52.17-1.3,2.31-1.06,3.18-.96Z"/>
      <path class="cls-100" d="M299.71,216.8c-1.78-.14-2.99-1.52-3.79-3.05.33-1,.64-2.75,1.85-3.03.95-.22,3.07.82,2.98,2.06-.12,1.63-1.21,2.73-1.04,4.01Z"/>
      <path class="cls-16" d="M286.03,142.16c-.5.92-.95,1.95-.76,3.14.12.76.83,1.38,1.64,1.69.03.94.51,2.45-.48,3.02-1.26.73-2.88-.03-4.19.14-1.16-1.15-1.23-2.61-.23-4.41-1.2,1.78-2.31,1.99-3.95.37-.2-2.44-.32-4.94-.36-7.52-1.86.07-3.09-.46-3.69-1.59-.61-2.3-1.89.4-2.56,2.53.17,2.52-.38,4.39-1.64,5.61,1.07,2.21-1.81,3.14-3.65,2.74-5.78-1.26-3.6-12.18.87-14.96,1.24-.09,2.56-1.62,4.26-.13,1.01.89,2.38,1.38,3.71.86.64-.25,1.2-1.04,1.94-1.58,2.54-3.83,5.12-3.11,7.73,2.18,4.5,1.88,7.94,6.14,1.37,7.91Z"/>
      <path class="cls-5" d="M267.03,132.92c-2.15,3.09-4.77,7.29-3.26,11.35.94,2.53,4.4,1.51,6.04.87,3.85-1.44,5.34,3.68,1.2,5.02l-.27,2.13c-1.52.12-2.7.98-3.54,2.58-6.93-3.1-6.47-21.51-.17-21.95Z"/>
      <path class="cls-25" d="M286.03,142.16c.68-1.25,2.37-1.1,3.23-3.97-4.88-.09-8.07-3.88-9.06-8.21-1.56.77-2.42,1.46-3.27,2.08.63-3.4,4.53-3.5,8.33-3.02,2.7,3.09,5.11,7.28,4.81,11.95-.11,1.7-3.15,1.55-4.05,1.16Z"/>
      <path class="cls-65" d="M276.03,150.12c-1.87-.38-1.76,1.95-2.77,3.19-1.32,1.62-3.9,1.01-5.42,1.6-.19.07-.44-.06-.65-.03-.29-1.11-1.1-2.09-1.01-3.51l4.81-1.2c.46-.1.83-.16.89-.04.63,1.14-.83,2.56-.03.07,1.43-4.44,5.4-3.49,4.17-.07Z"/>
      <path class="cls-23" d="M282.23,150.14c-1.01.13-1.78,1.42-2.93,1.5-1.08.08-2.31-.79-3.26-1.53-.64-.49-.84-1.12-1.61-1.15-1.46-.05-1.85,1.26-2.09,2.71-.54.98-.93.83-.97.47-.1-.88-.49-1.7-.35-1.99.33-.67.71-1.69.73-2.54.03-1.16-1.31-1.81-1.93-2.49-.48-3.1-.29-7.45,2.12-9.92.52-.53,2.36-.3,2.47.17.1.43-.16,1.13-.39,1.62.79,1.81,1.21,3.91,1.26,6.3l2.79,2.81c3.14-.76,3-3.52,3.19-6.59.17-2.79-2.03-3.29-4.24-5.74,4.05-.03,7.63,4.08,7.52,7.68-.1,3.42-.67,6.37-2.29,8.69Z"/>
      <path class="cls-97" d="M308.68,152.41l-2.09,3.67c-1.04-1.16-1.81-2.44-2.29-3.79l4.38.13Z"/>
      <g>
        <path class="cls-12" d="M165.2,170.18c1.57.59,2.48,1.52,2.74,2.78,1.86,4.13,0,4.25-5.6.36-3-1.37-12.32-4.76-11.33.7,2.83-.82,3.41,2.04,1.9,3.98-.07,3.69-.47,7.48.47,11.22-4.4,2.66-8.75,3.99-13.1,6.24l-20.29,10.54c-2.09,3.66-4.06,4.39-5.92,2.18-.93.09-1.82-.32-2.32-1.13-2.89-7.52,2.24-8.65,8.38-6.18-.42-1.84,1.06-2.8,4.44-2.88-1.39-1.76-4.17-5.51-4.1-7.72.03-1.17.3-1.68,1.68-2.2-.94-1.59-1.75-3.1-2.42-4.52-2.9,3.1-4.65,7.11-5.24,12.03-1.73,3.15-4.51,5.57-6.33,1.48-3.54-2.16-1.9-7.31-.39-10.72-1.33-.6-2.28-1.1-2.64-1.87-.71-1.49.84-2.48,1.05-3.49.41-1.51,1.51-2.57,3.31-3.16,2.65-2.84,5.15-3.88,7.51-3.12l13.1-7.75c10.54-6.23,24.19-1.55,35.08,3.22Z"/>
        <g>
          <path class="cls-127" d="M122.16,188.07c-3.96,2.17-3.98,8.94-2.02,12.81-2.08.87-3.9,1.56-6.74.16-.38,2.64-.81,4.33-1.65,6.02-3.25,1.3-2.16-6.69-3.58-10,8,1.85,1.66-10.19,13.71-17.75.29,3.38-.21,6.05.28,8.76Z"/>
          <path class="cls-59" d="M117.01,174.7c-2.91,1.72-7.54,6.82-10.82,6.28.42-2-1.09-6.38,1.81-6.79.89-2.11,5.29-4.88,8.09-5.17-.28,1.75-1.26,3.48-.72,5.49.42.3,1.33.13,1.64.19Z"/>
          <path class="cls-96" d="M130.8,188.97c2.16.58,1.63,2.72,1.2,5.13,2.44.13,2.38-2.02,4.3-2.96,2.31-1.13,6.65-3.19,5.93-5.92,1.9-1.27,1.85-2.91-.15-4.91.09-.58-.27-1.86.78-1.37-.01-2.3-1.56-3.82-4.66-4.57l-1.24-2.26c1.73-2.12,4.14-1.29,6.27.77,2.96,2.85,5.14,6.32,4.51,10.51-.46,3.11-1.66,7.45-5.3,8.77s-7.34,4.08-11.13,2.58c-1.18-1.34-.23-4.39-.5-5.78Z"/>
          <path class="cls-54" d="M122.16,188.07c.27,3.52,2.17,7.18,5.21,9.77-1.72,3.29-5.05,2.12-7.24,3.04-5.98.77-2.44-13.47.15-15.6.72,1.37,1.24,2.25,1.87,2.79Z"/>
          <path class="cls-7" d="M167.94,172.96c1.1.6,1.12,1.33,1.16,2.54.05,1.42-.87,1.74-2.17,1.61-4.24-4.65-17.25-6.97-15.92-3.08-1.08-1.4-3.61-2.76-2.41-5.04,4.58.44,17.99,3.95,18.98,7.16.83-1.47.25-2.35.35-3.19Z"/>
          <g>
            <path class="cls-119" d="M142.86,178.94c.82,1.19.98,1.49-.78,1.37,1.36,1.67,2.24,3.41.15,4.91,5.59,3.43-6.73,9.07-10.5,9.22.07-1.96-.23-3.79-.92-5.47-1.33-.35-2.32.12-4.23-.66,1.78-3.39,1.11-7.13,3.36-9.28l.31-2.66c2.66-.51,4.91-1.63,6.75-3.36,2.56,1.77,4.52,3.75,5.87,5.93Z"/>
            <path class="cls-27" d="M142.86,178.94c-2.85-.6-5.23-1.22-6.14-5.09-1.08,1.77-2.63,1.98-4.54,2.46-1.43.36-1.55,2.05-2.26,2.72-.02-1.09-1.09-1.99-.49-3.49,3.14-.13,5.81-1.34,7.52-3.43,4.17.86,8.45,2.73,8.75,7.94-.82-1.23-1.85-.89-2.85-1.1Z"/>
            <path class="cls-19" d="M132.94,187.06c-1.37-1.59-1.69-5.65-.22-7.21,1.85-1.97,4.76-1.06,6.2.72s1.16,3.41-.39,5.46c-1.13,1.5-3.71,3.23-5.6,1.04Z"/>
            <path class="cls-111" d="M142.22,185.22c-.43-1.63-1.92-3.39-.15-4.91,1.35-.08,2.7.31,3.46,1.58.44.73.63,2.36-.43,3.35-.63.58-1.8.23-2.87-.01Z"/>
          </g>
        </g>
      </g>
      <path class="cls-55" d="M278.06,146.11c-1.46.35-2.82.9-4.16-1.18-1.57-2.44-1.24-5.63.11-7.93,1.36,0,2.51-.9,3.45-.73,1.84.34,2.43,1.83,2.54,3.73.14,2.58-.23,4.74-1.94,6.1Z"/>
    </g>
  </g>
</svg>