<?xml version="1.0" encoding="UTF-8"?>
<svg id="Layer_1" data-name="Layer 1" xmlns="http://www.w3.org/2000/svg" xmlns:xlink="http://www.w3.org/1999/xlink" viewBox="0 0 512 511.97">
  <defs>
    <style>
      .cls-1 {
        fill: #8e2f43;
      }

      .cls-2 {
        fill: #5d5149;
      }

      .cls-3 {
        fill: #f4f4f5;
      }

      .cls-4 {
        fill: #f4f5f5;
      }

      .cls-5 {
        fill: #45434d;
      }

      .cls-6 {
        fill: #7cc0b4;
      }

      .cls-7 {
        fill: #767881;
      }

      .cls-8 {
        fill: #454251;
      }

      .cls-9 {
        fill: #856a62;
      }

      .cls-10 {
        fill: #777981;
      }

      .cls-11 {
        fill: #65303b;
      }

      .cls-12 {
        fill: #403739;
      }

      .cls-13 {
        fill: #7b7c86;
      }

      .cls-14 {
        fill: #3d332f;
      }

      .cls-15 {
        fill: #4c4541;
      }

      .cls-16 {
        fill: url(#linear-gradient-2);
      }

      .cls-17 {
        fill: #4f5058;
      }

      .cls-18 {
        fill: #6d5e55;
      }

      .cls-19 {
        fill: #b5b7c2;
      }

      .cls-20 {
        fill: #876c62;
      }

      .cls-21 {
        fill: #747480;
      }

      .cls-22 {
        fill: #a2a2a2;
      }

      .cls-23 {
        fill: #2e2823;
      }

      .cls-24 {
        fill: #1c7c50;
      }

      .cls-25 {
        fill: #88c396;
      }

      .cls-26 {
        fill: #4a3733;
      }

      .cls-27 {
        fill: #65968b;
      }

      .cls-28 {
        fill: #177950;
      }

      .cls-29 {
        fill: #836b51;
      }

      .cls-30 {
        fill: #4b494a;
      }

      .cls-31 {
        fill: #6ab8ad;
      }

      .cls-32 {
        fill: #4b433e;
      }

      .cls-33 {
        fill: #70717a;
      }

      .cls-34 {
        fill: #3b312f;
      }

      .cls-35 {
        fill: #68948b;
      }

      .cls-36 {
        fill: #747474;
      }

      .cls-37 {
        fill: #5b5048;
      }

      .cls-38 {
        fill: #7bc8bc;
      }

      .cls-39 {
        fill: #423e36;
      }

      .cls-40 {
        fill: #501620;
      }

      .cls-41 {
        fill: #3e3a35;
      }

      .cls-42 {
        fill: #443b35;
      }

      .cls-43 {
        fill: #484647;
      }

      .cls-44 {
        fill: #519689;
      }

      .cls-45 {
        fill: #6d6d6e;
      }

      .cls-46 {
        fill: #322e2b;
      }

      .cls-47 {
        fill: #854b60;
      }

      .cls-48 {
        fill: #588171;
      }

      .cls-49 {
        fill: #aa8d7f;
      }

      .cls-50 {
        fill: #5b4e47;
      }

      .cls-51 {
        fill: #796a5a;
      }

      .cls-52 {
        fill: #4a2731;
      }

      .cls-53 {
        fill: #8bc495;
      }

      .cls-54 {
        fill: #95d4cb;
      }

      .cls-55 {
        fill: #6a444b;
      }

      .cls-56 {
        fill: #75a089;
      }

      .cls-57 {
        fill: #18181b;
      }

      .cls-58 {
        fill: #a08576;
      }

      .cls-59 {
        fill: #695a51;
      }

      .cls-60 {
        fill: #80aca2;
      }

      .cls-61 {
        fill: url(#linear-gradient-3);
      }

      .cls-62 {
        fill: #737373;
      }

      .cls-63 {
        fill: #515050;
      }

      .cls-64 {
        fill: #27211b;
      }

      .cls-65 {
        fill: #6b5c4e;
      }

      .cls-66 {
        fill: #6e6e6f;
      }

      .cls-67 {
        fill: #b0b1b9;
      }

      .cls-68 {
        fill: #4c4c4c;
      }

      .cls-69 {
        fill: #594f44;
      }

      .cls-70 {
        fill: #5d5047;
      }

      .cls-71 {
        fill: #5b4632;
      }

      .cls-72 {
        fill: #272930;
      }

      .cls-73 {
        fill: #681b28;
      }

      .cls-74 {
        fill: #5dada5;
      }

      .cls-75 {
        fill: #567672;
      }

      .cls-76 {
        fill: #312b29;
      }

      .cls-77 {
        fill: #4b161f;
      }

      .cls-78 {
        fill: #433f3b;
      }

      .cls-79 {
        fill: #8b7064;
      }

      .cls-80 {
        fill: #543037;
      }

      .cls-81 {
        fill: #563a3d;
      }

      .cls-82 {
        fill: #404a48;
      }

      .cls-83 {
        fill: #9797a1;
      }

      .cls-84 {
        fill: #4e3035;
      }

      .cls-85 {
        fill: #594d43;
      }

      .cls-86 {
        fill: #b5b6c1;
      }

      .cls-87 {
        fill: #413f4a;
      }

      .cls-88 {
        fill: #621d2d;
      }

      .cls-89 {
        fill: #6fbaae;
      }

      .cls-90 {
        fill: #25211f;
      }

      .cls-91 {
        fill: #418d81;
      }

      .cls-92 {
        fill: #80818b;
      }

      .cls-93 {
        fill: #6f6f70;
      }

      .cls-94 {
        fill: #2c2f2e;
      }

      .cls-95 {
        fill: #69aa9c;
      }

      .cls-96 {
        fill: #866b60;
      }

      .cls-97 {
        fill: #727272;
      }

      .cls-98 {
        fill: #757273;
      }

      .cls-99 {
        fill: #7e7f84;
      }

      .cls-100 {
        fill: #2d2825;
      }

      .cls-101 {
        fill: #1b1615;
      }

      .cls-102 {
        fill: #2a2d3a;
      }

      .cls-103 {
        fill: #647064;
      }

      .cls-104 {
        fill: #408981;
      }

      .cls-105 {
        fill: #4a423c;
      }

      .cls-106 {
        fill: #844a60;
      }

      .cls-107 {
        fill: #463c37;
      }

      .cls-108 {
        fill: #7b7c85;
      }

      .cls-109 {
        fill: #b39483;
      }

      .cls-110 {
        fill: #383134;
      }

      .cls-111 {
        fill: #41424b;
      }

      .cls-112 {
        fill: #4e151d;
      }

      .cls-113 {
        fill: #876d63;
      }

      .cls-114 {
        fill: #76c8bf;
      }

      .cls-115 {
        fill: #b49383;
      }

      .cls-116 {
        fill: #6bb8b0;
      }

      .cls-117 {
        fill: #544a43;
      }

      .cls-118 {
        fill: #509c94;
      }

      .cls-119 {
        fill: #7eb0a7;
      }

      .cls-120 {
        fill: #902d43;
      }

      .cls-121 {
        fill: #4a544e;
      }

      .cls-122 {
        fill: #80675d;
      }

      .cls-123 {
        fill: #3a1d27;
      }

      .cls-124 {
        fill: #5d363e;
      }

      .cls-125 {
        fill: #44424d;
      }

      .cls-126 {
        fill: url(#linear-gradient);
      }

      .cls-127 {
        fill: #81505c;
      }

      .cls-128 {
        fill: #543e34;
      }

      .cls-129 {
        fill: #1a191b;
      }

      .cls-130 {
        fill: #76826e;
      }

      .cls-131 {
        fill: #62483d;
      }

      .cls-132 {
        fill: #698f79;
      }

      .cls-133 {
        fill: #6d6e78;
      }

      .cls-134 {
        fill: #747373;
      }

      .cls-135 {
        fill: #736459;
      }

      .cls-136 {
        fill: #544941;
      }

      .cls-137 {
        fill: #606650;
      }
    </style>
    <linearGradient id="linear-gradient" x1="-1.16" y1="32.54" x2="170.52" y2="53.27" gradientTransform="translate(45.93 117.47) scale(.48)" gradientUnits="userSpaceOnUse">
      <stop offset="0" stop-color="#3f3b34"/>
      <stop offset=".17" stop-color="#3c3733"/>
      <stop offset=".24" stop-color="#4b4844"/>
      <stop offset=".33" stop-color="#393631"/>
      <stop offset=".7" stop-color="#6f5a41"/>
      <stop offset="1" stop-color="#6b5d52"/>
    </linearGradient>
    <linearGradient id="linear-gradient-2" x1="775.61" y1="-6.39" x2="818.08" y2="91.01" gradientTransform="translate(45.93 117.47) scale(.48)" gradientUnits="userSpaceOnUse">
      <stop offset="0" stop-color="#73b3ab"/>
      <stop offset=".27" stop-color="#79c8c0"/>
      <stop offset=".63" stop-color="#5aaaa3"/>
      <stop offset="1" stop-color="#62b1ab"/>
    </linearGradient>
    <linearGradient id="linear-gradient-3" x1="771.35" y1="135.04" x2="802.21" y2="168.93" gradientTransform="translate(45.93 117.47) scale(.48)" gradientUnits="userSpaceOnUse">
      <stop offset="0" stop-color="#4d9a92"/>
      <stop offset="1" stop-color="#74b8b4"/>
    </linearGradient>
  </defs>
  <path class="cls-7" d="M247,511.97h-10v-1h8.06c1.05-.01,2.01.2,1.94,1Z"/>
  <path class="cls-7" d="M275,510.97v1h-10c-.07-.83.9-1.01,1.94-1.01h8.06Z"/>
  <path class="cls-72" d="M172.9,492.08c2.81.6,2.89,1.79.16,2.72-.22,1.7-1.94,2.12-5.14,1.25-24.11-8.08-46.79-21.03-66.7-36.7,1.37-.03,2.65.62,4.15,1.42l31,16.64c4.41,2.37,8.96,3.76,13.53,5.75,7.76,3.39,15.16,7.05,23.02,8.91Z"/>
  <path class="cls-1" d="M194,504.16c-9.11-1.21-17.52-5.23-26.09-8.1,1.75-.25,3.47-.67,5.14-1.25.09-.65.23-1.19.54-1.32,1.56-.67,17.82-4.32,18.66-3.87,3.04,1.63,3.75,12.03,1.74,14.55Z"/>
  <path class="cls-52" d="M192.85,488.2c5.1,6.61,2.26,7.94,3.15,16.81-.69-.14-1.38-.77-2-.86.42-4.19.19-8.44-1.36-12.87-5.07-1.94-12.76,3.72-19.58,3.51.03-.91-.08-1.82-.16-2.72,3.32.79,15.63-4.57,19.95-3.88Z"/>
  <path class="cls-22" d="M275.05,16.18c14.51,1.57,27.65,7.99,40.85,13.77,2.11-.99,4.01-.73,5.7.77,4.55,1.86,7.61,4.54,9.17,8.03,2.07,1.19,5.38,4.37,7.25,6.08.91.15,1.81.33,2.66.65,3.95,1.48,19.7,18.73,20.92,22.82.26.87.38,1.77.47,2.69,2.41,2.97,5.59,7.59,6.97,11.13,5.72,5.4,7.97,16.47,9.34,24.5.11.65-.07,1.36-.29,2.1s-.58,1.49-.98,2.21c1.04,6.7-.75,17-5.62,21.97-5.39-3.92-10.58-8.23-15.55-12.91l-1.65.55c-23.84-21.34-48.14-41.79-75.32-59.49-11.41-7.43-17.14-10.78-30.01-8.08l-2.44,3.28c-8.08,3.76-15.75,8.33-23.22,13.19-31.27,20.34-58.28,46.13-85.39,72.08-1.67,1.6-3.82,2.57-5.92,3.48-.31.44-.86.73-1.32.43-2.39-1.57-.44-14.28.34-18.17,3.72-17.03,8.99-33.41,15.82-49.12l2.34-2.12c1.94-4.56,5.54-10.12,8.59-14.01,4.15-5.3,8.07-11.45,12.94-16.13,4.77-4.59,10.95-8.36,16.74-12.34,11.26-7.75,24.06-12.33,37.42-15.57,16.63-4.03,33.59-3.58,50.18-1.79Z"/>
  <g>
    <path class="cls-102" d="M275,510.97c-3.22.33-6.56.66-10,1h-18c-3.39-.36-6.72-.7-10-1-13.81.02-27.46-3.23-41-5.96l-1.04-1.18c.93-5.66,0-10.45-2.83-14.37l.72-1.26c-.94-2.73.19-3.44,2.22-1.33-.81-2.41.14-2.64,2.83-.68,4.36-3.21,9.13-5.56,14.38-3.82l10.83-2.39.37-2.17s35.26-9.74,105.77-29.23l1.7,1.59c5.46-3.85,11.88-6.75,18.2-8.13,1.5-1.96,2.46-1.82,2.89.41l2.12-.45.19-2.19,47.77-17.24c6.58-2.09,12.19-5,16.82-8.73.9-.29,2.08.33,3.54,1.85,25.61-14.51,53.79-31.28,66.42-59.33.83-.45,1.55-.17,2.21.64-36.8,86.92-121.78,154.05-216.13,153.98Z"/>
    <path class="cls-120" d="M117.83,218.01c2.93-1.26,4.47-1.17,4.6.29-2.71,17.9-1.36,36.22,2.9,53.84.45,3.18-.45,9.34-1.43,12.06l-.25,2.73c-22.75,25.8-40.49,53.58-53.85,85.43-2.35,2.84-3.95,4.35-5.07.73-1.72-16.49-.02-33.31,4.26-49.3-1.64-1.33-.05-6.41,2.01-6.72.14-3.07-.38-3.79-1.54-2.16-.48,5.02-1.9,10.08-4.28,15.16-1.17,5.4-2.9,10.36-5.2,14.86l.42,3.12c-3.89,19.4-5.77,39.13-6.95,58.87l-1.4,2.9c-25.74-32-42.18-72.05-48.56-112.62,2.14-5.14,6.54-13.1,10.17-17.51l2.36-.06c.33-.66.97-2.19,1.79-2.68,4.7-2.78,6.96-7.37,10.25-10.76,8.79-9.06,18.66-16.22,30.09-22.17,8.9-4.63,17.13-9.42,26.55-13.24,4.7-1.9,9.01-4.78,13.48-5.87l.35-1.67c6.09-1.57,12.08-3.67,17.98-6.27l1.32,1.03Z"/>
    <path class="cls-88" d="M125.11,303.99l2.23,1.17c.51,12.02.98,24.03,1.43,36.05l-1.73,1.68c1.07,4.13.04,6.52-3.09,7.16-7.88,15.14-5.32,22.27-14.16,30.74-7.39,7.08-14.66,13.81-21.04,21.93l-9.74,30.27c-.66,2.05-.19,4.45-1.67,5.61-6.12-6.72-19.22-17.99-23.01-25.79-.61-1.16-1.07-2.31-1.01-3.43.96-20.17,3.04-40.56,6.91-60.39.22-1.11.9-2.14,1.71-3.14-.37-.08-.71-.19-.92-.42-.78-.83,5.45-20.07,6.52-21.8.11-.18.72-.05,1.47.16-1.36,16.46-4.04,32.75-2.44,50.61,15.76-31.26,19.56-45.73,43.03-72.79,5.07-5.84,8.47-12.63,14.32-17.41,1.28.23,1.82,1.52,1.61,3.85l-.4,15.95Z"/>
    <path class="cls-40" d="M61.92,345.84c-4.33,22.2-6.19,44.62-7.6,66.96-.42-.86-1.65-2.22-2.27-2.98,1.08-21.81,3.06-43.66,7.93-64.89,1.16-.64,1.84-.51,1.94.91Z"/>
    <path class="cls-120" d="M507.88,301.06c-.88,8.54-3.57,16.72-5.74,24.92-.94.07-.58-.88-.6-.82-8.69,25.69-18.28,49.51-40.77,65.58-.41.3-1.06.27-1.76.16-2.81,2.03-4.58,1.64-5.3-1.16-6.51-26.1-15.97-51.81-25.71-76.85-.54.03-1.03,0-1.39-.24-.65-.45-.77-1.3-.75-1.23,1.16,4.45,2.35,8.9,3.64,13.32.47,1.12.24,2.16-.56,3.13,2.13,7.84,3.96,15.77,5.49,23.78-1.82,3.48-3.05,3.82-5.47-.05-12.02-18.37-24.63-36.29-37.83-53.76l-1.26-3.65c-.5-.27-.96-.58-1.25-.99-.9-1.28-.9-27.68-.43-31.31,3.59-15.82,4.79-31.83,3.61-48.02.34-.68.7-1.18.94-1.12,33.11,8.81,69.85,31.8,93,56.77,8.09,8.72,18.32,20.53,22.15,31.54Z"/>
    <path class="cls-124" d="M422.14,223h.86c.98.21,1.61.61,1.9,1.21,4.25-.81,5.46-.36,9.3,1.57,4.33,2.18,6.95,4.16,9.7,8.25.88-.99,1.29-.67,1.2.97l1-.79,3.91,3.89c1.2.23,2.38.5,3.52.91,6.14,2.22,27.74,20.11,31.07,25.74.61,1.04,1.1,2.15,1.56,3.28,1.45-1.33,2.01-.75.98.99l3.07.75,8.41,10.17.35,3.09c1.96,5.92,9.56,9.85,9.1,17.06-.05.32-.16.67-.19.99-3.41-8.6-26.44-35.41-33.26-40.72-12.33-9.61-23.81-19.69-37.49-27.58-13.94-8.04-28.56-14.08-44.03-18.89l-.26,28.8c-.06,6.79-2.21,12.84-3.44,19.43-1.78,9.6,1.37,22.7.46,32.08,1.71,2.07-.44,5.12-3,4.91l-1.96-2.65c-.11-11.55-.16-22.76-.15-33.64,4.05-16.95,5.54-33.81,3.19-51.46.26-1.98,1.06-2.85,3.2-2.35l14.65,4.81c6.93,1.67,12.38,4.73,16.35,9.18Z"/>
    <path class="cls-123" d="M502.15,325.98c-2.83,10.68-6.72,20.86-11.02,31.01-2.46.73-3.27,3.27-4.41,5.72-8.33,17.84-24.75,27.93-39.52,39.47-6.74,5.27-14.25,8.81-21.26,13.72-1.27.89-3.67,1.37-4.76.65-.78-.52-1.68-1.72-2.22-2.72l-2.17.19-14.35-25.92c-.31,2.7-1.81,9.18-5.99,4.17-.08-9.94-1.02-19.79-2.8-29.54l1.44-1.9c-.06-3.46,1.79-2.49,3.8-.11,1.76,5.51,3.1,11.11,4.03,16.82,7.54,11.29,14.24,23.15,20.11,35.6,10.94-7.61,21.87-15.1,32.8-22.47,1.02,1.08,2.05.94,3.19.22,9.56-6.63,17.62-14.83,23.5-25.49,7.38-13.39,13.81-26.7,19.02-41.29.54.42.45,1.17.62,1.87Z"/>
    <path class="cls-73" d="M71,317.06c-1.29.82-1.8.1-1.54-2.16,5.6-12.44,25.1-42.88,33.87-55.52,1.57-2.26,2.86-6.04,6.4-4.7-4.26,5.17-7.36,9.63-10.49,14.65l-20.34,32.64c-3.16,5.07-5.61,10.03-7.9,15.08Z"/>
    <path class="cls-11" d="M124,216.12c-2.75,12.46-2.06,37.73,1.22,50.37,1.3,5.01,1.13,32.81-.11,37.5-2.7-1.57,2.28-10.5-1.21-19.8-1.5-4,1.85-9.88.67-13.85-3.14-10.49-5.24-20.29-4.67-31.41.35-6.79-.22-13.18,1.33-20.34.22-1-3.02-.62-3.4-.59,1.88-.46,3.69-2.99,6.17-1.89Z"/>
    <path class="cls-112" d="M71,317.06c-.83,1.83-.63,5.16-2.01,6.72-1.36,1.55-6.48,19.06-7.07,22.06-.32.11-.89.1-1.39.02-.32-.05-.57-.47-.55-.93,2.34-10.22,5.15-20.39,9.48-30.02.95.27,1.19,1.34,1.54,2.16Z"/>
    <path class="cls-88" d="M428.94,327.86c1.66,1.1,2.68,2.58,2.96,4.52-1.65-4.97-3.08-10-4.47-15.06-.43-1.55-.26-3.02.57-4.44,9.04,13.21,23.51,58.41,27.15,74.89.25,1.12,1.05,2.5,1.54,3.13.54.69,1.71.17,2.32,0l-7.22,5.01c-9.37,6.5-18.48,12.65-29.04,18.83-4.58-6.95-8.14-13.54-11.71-20.65-1.36-2.7-8.76-12.75-9.99-15.84-1-2.52-3.13-21.31-5.97-17.42l-8.1-19.86c-3.18-.28-2.83-6.59-2.04-9.07.5-4.86.47-9.79.59-14.94-2.28.63-.92,3.33-3.58,3.05l4.94-20.9c.27-1.59,1.86-3.8,3-4.91,15.36,18.7,29.36,38.02,42.7,59.43.74-9.78-3.39-17.42-3.63-25.75Z"/>
    <path class="cls-77" d="M427.99,312.88c3.85,15.75,8,28.02,12.2,43.68,2.48,9.27,6.69,18.31,3.79,28.27-1.9-9.52-2.36-18.13-6.19-26.6-2.43-10.62-5.37-20.64-8.85-30.37-3.15-8.8-4.69-18.25-8.78-27.21-.89-1.95-1.72-3.98-.82-6.36,2.41,1.92,3.36,4.88,4.17,8,1.03,4.01,4.01,6.84,4.48,10.58Z"/>
  </g>
  <g>
    <path class="cls-101" d="M28.07,266.2l.63,2.27c-1.93,3.68-8.6,10.82-12.67,11.17-1.65,2.74-2.74,1.22-3.63-1.35l-9.31-.4-1.72-1.99c.2-.77-.67-1.77-1.36-1.91v-39c3.08-22.72,7.74-45.52,16.04-66.9l1.34-.36c2.36,13.8,4.39,27.95,6.09,42.44,2.37,5.97,3.07,11.89,2.09,17.75,1.41,11.21,2,22.44,1.77,33.67,1.69,1.15,1.77,2.72.73,4.6Z"/>
    <path class="cls-42" d="M243,0c2.39.64,2.46,3,.21,7.07-.2.95.32,1.94,1.15,2.44,1.97,1.19,22.48-2.01,26.28-2.71,5.67-.39,10.53-1.91,14.55-4.59,2.5-.04,4.44.12,6.8.57-1.04,2.94-1.78,6.03-2.22,9.26-2.37,4.82-6.83,5.73-13.4,2.74l-1.34,1.4-4.02,1.6c-35.27-4.38-70.14,4.96-97.15,27.93l-3.16.17c-3.72,2.42-3.72-2.16-1.27-4.67,7.38-5.72,15.03-11.18,22.96-16.4l3.55.24c-.18-.76-.25-1.55.07-2.28.35-.82,15.59-6.25,16.68-6.46l2.3.75.53-3.54c-2.2-5.13-1.69-8.56,1.54-10.29,3.37-.48,6.24-1.51,9.71-1.03l1.8,1.45c-5.62,9.42-4.2,11.94,4.29,7.57l-1.26-8.23,1.77-1.67c1.31.95,3.48-1.03,4.63-1.33h5Z"/>
    <path class="cls-48" d="M510.91,233.06c.2,1.58-.17,3.7,1.09,4.92v35c-.57.7-1.38,1.62-2.08,1.43-2.14-.59-8.29-6.81-8.94-9.37-5.74-3.56-7.17-9.51-4.28-17.84,1.5-1.79,2.23-4.21,2.21-7.25,1.65-4.39,3.03-8.83,4.13-13.3,4.42-2.27,7.05-.14,7.87,6.41Z"/>
    <path class="cls-136" d="M275,0c-9.63.32,21.18,2.04,10.2,2.22.16,1.88-1.09,4.01-3.54,4.48l-10.7,2.08-24.03,3.3c-3.17.44-6.5-2.38-5.62-5.63.64-2.34,2.09-4.23,1.68-6.44h32Z"/>
    <path class="cls-56" d="M512,272.99v3l-3.92,24.08c-2.68-5.73-6.06-11.08-10.17-16.07l1.06-.99c.2-.88.51-.86.92,0,2.87-3.31,2.48-13.4-.99-16.94l1.03-1.02c.32-.48.67-.46,1.05,0,4.82,1.94,7.97,7.71,11.02,7.94Z"/>
    <path class="cls-126" d="M105.06,94.95c-.7,5.23-.91,10.47-.63,15.71.68,1.29,1.71,1.89,3.08,1.8,3.63-4.39,8.23-9.38,13.47-12.1,4.93-2.55,15.51-5.14,16.71,2.46.25,1.56-5.46,22.14-6.48,23.09-3.66,3.4-21.57,1.24-24.07-4.78l-1.28,1.83c.85,2.29.9,4.19.16,5.7,2.67,1.42,1.96,1.87-.79,2.22,2.14,2.17.44,3.63-2.17,2.08l-5.11,5.35c-3.8.44-5.21,3.34-2.05,5.61,1.6-.02,2.82,1.2,3.64,3.67l2.01,1.83c4.3-.62,7.96-.38,11,.73l.4,1.65c2.89.34,2.93,2.48.24,3.46l-1.52,1.87c-5.99,1.51-11.69,1.63-17.09.36l-.44,1.53-.73.97c-4.41-.39-5.67,4.09-3.79,13.43-1.32,8.56-1.42,17.16-.31,25.81-.51,8.61-.94,17.23-1.31,25.86,3.06,1.64-1.35,4.87-2.97,2.69l-1.52-.06c-1.41-10.62-2.28-21.33-2.63-32.13-1.64-5.35-2.35-10.39-2.14-15.13l-5.43-71.6c-4.41-10.35-7.16-12.29-8.26-5.83-4.11,3.38-12.71,9.21-18.12,9.93-.85.11-1.46-1.08-1.6-2.07,15.74-23.4,35.83-44.27,58.8-60.63-.24-.68,1.02-.54,1.19-.12.91,2.22.94,9.56.45,11.91.82,3.23,1.57,6.95,2.24,11.17-.37,13.56-.56,20.33-.56,20.33l-2.4,1.4Z"/>
    <path class="cls-46" d="M62.99,189.86c1.12,2.34-.61,3.36-5.18,3.05-6.3,6.05-27.18,19.35-27.76,3.32-1.39-15.96-2.8-31.95-4.23-47.97l1.32-6.34c3.91-8.41,8.12-16.87,13.97-24.07,2.59-2.12,5.6-3.64,9.04-4.56,5.98-3.92,12.24-6.73,18.79-8.43,3.56.72,5.32,3.62,5.27,8.71,1.53,22.63,3.09,45.33,4.67,68.12-2.76,1.8-4.98,4.23-6.64,7.3-2.06.53-4.49.18-7.28-1.05l-1.95,1.93Z"/>
    <path class="cls-70" d="M217.07,3.24c-2.04,7.57.74,11.25-2.07,13.83l-2.05-.76c1.79-8.92-19.04-6.51-16.61,2.2.94,2.71.81,4.89-.39,6.55-4.59,2.57-9.3,5.88-13.94,9.08-3.96,2.73-6.84,6.33-11.27,8.53-.51.25-.67,1.56-1.11,1.96-.72.66.36.93,1.08,1.25l-.22,3.08-9.67,12.35-3.05.7c-1.74-.04-1.78-.82-.6-1.87-1.94-1.53-1.46-3.94,1.43-7.25.29-5.77-.28-11.42-1.72-16.94-1.46-.76-13.45-4.6-14.9-4.28-6.57,1.41-6.85,8-5.17,13.3l-.69,5.36c5.25,5.39,11.22,8.49,17.92,9.28l.83,2.22c1.13,3.3-2.68,6.43-6.62,3.77-4.5-4.84-11.64-8.06-18.37-5.78-2.9-.29-16.19-6.45-17.54-8.07s-2.57-5.47-.49-6.71C142.44,22.78,179.6,8.58,217.07,3.24Z"/>
    <path class="cls-46" d="M26,205.99l2.48,8.66c.54.52,1.34,1.03,2.39,1.54,2.34-2.83,4.79-5.5,7.35-8,10.39-3.97,20.36-8.89,29.93-14.77,5.22-7.76,12.8-9.52,12.73,1.97l1.89,29.34c.5,1.64.54,3.06.12,4.28.42,2.02-3.97,3.52-5.21,2.06l-1.64-1.66c2.01-8.78-7.67-20.91-6.63-4.23-2.97,5.43-6.06,3.87-9.26-4.67-3.43,1.61-6.61,1.76-9.56.45-2.3,7.69-2.62,15.86-.98,24.51l-1.74,1.43c-1.51,2.13-5.44,6.44-7.99,6.13l-1.45-2.29c2.69-7.9,2.56-13.72-2.28-20.67-1.56-6.7-3.48-7.93-5.77-3.69l-2.51-.27c-.82-.43-1.28-1.08-1.51-1.96-.86-3.26-2.39-10.78-2.84-13.84-2.32-15.65-4.66-31.88-5.51-47.27.68-1.76,1.64-4.12,2.12-5.92,1.81-2.61,2.99-.23,3.57,2.29,1.52,14.83,2.87,29.73,4.04,44.69l-1.73,1.9Z"/>
    <path class="cls-23" d="M96.05,193.01c.89.13.89.42.05.86.74,7.22,1.04,14.59.9,22.12,1.13.82,1.24,4.4.15,5.32,3.49,1.48,3.84,2.69,1.04,3.61l-.95,2.35c-23.91,9.12-45.61,21.69-65.11,37.7l-4.06,1.22c-1.63-1.88-2.07-4.24-2.07-7.18v-13.02c0-6.3-.42-12.16-2.07-18.14,1.62-1.22.18-16.81-1.77-17.23.26-6.02-1.96-11.52-2.48-17.5-.48-5.55-1.36-21.9-3.64-25.04l1.96-5.05c2.01,1.13,1.58,3.52,1.77,5.96,1.26,15.92,2.94,31.38,6.25,46.86.78,3.63,2.7,6.74,1.84,10.25,2.18,1.11,1.48,4.26.12,5.86.72,9.05.97,18.16.77,27.33.09,1.64,1.18,1.84,3.28.6-2.23-2.22,5.29-8.63,7.85-6.87,5.87-5.14,2.03-4.65,7.99-6.13-.04-1.19.1-1.7.79-2.47.86-.97,13.07-7.27,15.22-8.35,3.73-1.87,7.45-3.65,11.25-5.4l2.55.4c1.29-1.09,3.89-.77,5.21-2.06-1.21-2.52.21-3.08,2.15-1.24,1.76-.16,2.28-1.37,2.97-2.69,1.18-12.9,1.27-25.86.26-38.89,1.01-8.24,1.72-16.24.87-24.53,1.48-3,8.16-1.53,8.93.27.67,1.56-1.17,23.73-2.63,27.24l.62,3.83Z"/>
    <path class="cls-41" d="M62.99,189.86c2.29-3.87,9.71-1.74,5.45,3.33-9.46,6.05-19.5,11.03-30.11,14.93-2.71,2.79-5.42,5.63-8.13,8.5-2.29-2.82-3.69-6.37-4.2-10.64-.51-3.24-.94-6.22-1.23-10.08l-.9-11.99c-.43-5.71-.84-27.01-3.76-26.8,1.45-5.48,4.67-10.16,7.01-15.19.91,3.79.54,7.8.98,12.13l2.96,28.95c.66,6.48.56,17.59,2.78,18.79s4.25-.37,6.18-.87c6.57-1.7,11.61-4.84,16.45-9.48,1.24-1.19,5.4.07,6.51-1.58Z"/>
    <path class="cls-107" d="M111.85,45.03c-.18,3.05.77,5.05,3.79,6.5,4.5,2.17,8.8,6.26,14.21,6.28,2.77.01,5.85-2,8.43-.08,2.79,2.07,12.92,7.53,14.07,7.1,1.02-.38,1.7-1.95,2.51-3.02-1.6-2.52,0-3.56,2.3-1.68.8.15.42,1.29.6,1.87l.62,2.48-6.75,10.93-2.47.61c-1.96.93-2.49.01-3.33-1.57-8.14.72-16.42-.16-24.84-2.65-11.02-.15-15.95,9.18-2.77,10.12,3.25,2.35,3.13,5.61-.36,9.8,3.3,7.74,2.84,9.13-4.91,12.52-3.06,8.63-9.8,13.58-8.68.34l.77-9.63c1.47-5.09,1.18-10.63,1.07-16.32l-.33-16.63c.05,2.75-.98-16.28-1.66-11.75.56-.4,1.22-.66,1.82-.99l2.09.96,1.56,17.38c11-.96,21.93-.58,32.81,1.15,5.44-1.35,3.7-3.44-5.24-6.27-6.98,2.53-14.14.83-21.48-5.09-5.88-.99-9.66-4.4-6.64-10.38.73-1.22,1.79-1.23,2.8-1.97Z"/>
    <path class="cls-34" d="M85.03,227.77c-.41.62-1.69.79-2.15,1.24-2.14-1.9-1.19-4.48-1.34-7.17l-.81-14.76c-.41-7.44-.01-11.56-1.91-17.67-4.95-1.25-6.96,3.09-10.25,5.24-3.53,2.3-7.4,4.82-11.28,6.65-3.4,1.6-6.81,1.7-10.01,4.1-3.05,2.29-7.76,2.44-10.49,5.41-2.2,2.4-3.53,5.93-6.84,7.27-4.19-3.13-3.32-8.09-3.96-12.09l3.98,9.41c8.16-7.49,2.95-7.6,16.04-11.28,2.3-.64,3.97-3.36,6.2-3.69,4.6-.67,7.35-2.42,10.72-5.52,1.5-1.38,5.91-1.59,5.05-5-.33-1.31-4.27-1.13-5-.04.16-.94.24-2.23,1.13-2.79.71-.44,1.7-.18,2.88.1,8.18,1.95,2.31-3.06,10.38-6.5,1.81-8.02-.3-15.19-.95-22.91-.5-5.91-.47-11.43-1.51-17.38-1.75-10.08,1.25-31.22-5.27-33.61-9.64.71-15.11,9.56-28.56,11.09,1.49-1.83,2.83-4.87,4.24-6.97,4.07.66,7.41-2.33,11.03-4.54,2.29-1.4,5.46-1.58,6.95-4.27.82-1.49.39-3.82,2.02-4.17,1.18-.25,3.97-1.51,4.61,0,1.04,2.46,2.33,4.54,3.4,6.77,2.83,5.84.85,12.17,1.71,18.38,2.36,17.06,2.65,33.73,4.36,50.62l2.45,24.29c.68,6.74.83,26.08,3.15,29.82Z"/>
    <path class="cls-14" d="M109.05,47c1.3,2.01.87,4.39,1.94,7.28,9.94.11,14.44,11.98,26.25,6,6.3,3.54,11.93,2.62,9.62,8.25-2.15,5.21-18.1-.24-24.02.17l-15.12,1.04-1.77-20.48c.08-1.64,2.57-1.37,3.1-2.25Z"/>
    <path class="cls-2" d="M233.37,1.33l1.77,11.56c-2.98,1.15-10.15,3.32-11.73,1.18-1.85-2.52,3.53-9.47,3.36-11.86,1.85.26,4.25-2.59,6.59-.88Z"/>
    <path class="cls-100" d="M292.01,2.79c2.24.43,4.98.95,7.24,1.2,18.17,8.24,35.64,17.81,52.42,28.7,6.62,6.45,9.32,3.63,11.08-4.51,1.53-2.97,1.95-3.06,5.32-2.1,24.01,11.19,46.05,26.82,65.03,45.29-.57,2.94-3.21,2.27-7.92-1.99l-1.42,3.61c-4.86,5.12-5.49,9.78-1.9,13.95l3.97.52c.65,2.1,1.1,4.24,1.36,6.43,1.43-.98,1.67-.38.84,1.17,4.28,5.56,8.51,11.12,12.7,16.7l-.88,1.19-8.9.85c-5.42,5.11-11.06,6.16-16.91,3.16-6.14-.4-18.53-.11-21.36,5.96-3.16,1.75-6.7,2.58-10.6,2.49-1.19,2.92-2.24,2.07-3.15-2.53-1.41-.36-2.01-.82-2.27-2.08-.13-.62.78-6.8,1.01-8.17.05-.28.25-.53.51-.77l.66-1.37c-2.2-16.79,14.98-10.68,16.72,1.33,4.5,1.54,9.3,1.36,14.41-.55,5.73.82,11.07.41,16.02-1.21l2.18-2.81c-6.14-6.01-11.4-12.42-15.06-20.29-6.69-5.12-12.8-11.11-13.67-20.01l-3.33.05c.81,7.98-11.76,12.02-18.16,7.91-2.2,4.23-3.7,6.6-8.88,7.21l-2.28-.26-5.53-8.71.84-2.16-.81-2.39c1.17-9.21-3.18-20.55-13.07-22.73-1.46-3.01-3.32-4.2-5.57-3.57-1.18,3.71-2.71,4.55-4.59,2.53-2.46,1.7-7.75-3.24-7.25-6.08l-1.85-2.53c-.71-6.65-7.51-11.73-14.1-11.31,4.28,1.46,7.12,6.66,1.08,5.05l-3.64.58c-11-5.51-22.48-9.5-34.43-11.97l-2.78-2.38c.26-.43.21-.5-.2-.54-7.59-2.94-14.59-.35-22.82-2.51,1.74-2.28,24.21-.91,26.36.72s5.12,1.77,7.24.35c5.37-3.59.96-12.27,6.38-11.42Z"/>
    <path class="cls-16" d="M468.96,114.97l.19,2.27-13.55,8.89c-4,5.95-3.74,9.11.78,9.46,5.99.07,11.95.01,17.87-.17,5.99,5,3.06,8.85-8.77,11.55-2.75-1.34-5.52-2.32-8.3-2.95-.65,2.81-1.7,5.46-3.15,7.95-7.78-.48-12.34,4.8-13.67,15.85l-1.26.27c-1.76-.25-2.91-1.52-3.44-3.83-4.58-1.63-8.76-1.75-12.52-.36,1.12,1.64.51,2.12-1.08.91l-1.06.58c-7.1-2.11-15.97-2.94-21.72,2.67-2.19-.65-4.38-1.34-6.57-2.06l-1.36-.63c-.07-5.47-2.43-10.13-7.09-13.96-1.92-2.07-2.42-3.95-1.48-5.64l-2.06-18.68c1.68-2.94,4.89-3.59,3.36-.09,1.54.57,2.04.97,1.48,1.21l10.49.54c-.75-2.76-1.03-5.31-.82-7.65.23-.88.46-.89.71,0,8.07-2.76,15.87-2.97,23.4-.63,3.84.61,7.37-.81,10.61-4.27,2.81-1.38,8.39-2.51,8.97.77,1.83.34,2.51,1,2.03,1.99l3.43.51c2.92-1.7,5.19-1.5,6.79.62,3.18-3.26,6.97-6.01,11.39-7.2,1.21-2.32,2.63-2.92,4.27-1.81.5,1.14,2,2.56,2.14,3.9Z"/>
    <path class="cls-118" d="M486.88,145.86c0,.87-.34,2.11-.95,2.08-7.08-2.25-16.31-1.3-12.47,8.46,2.32,5.91,14.06,3.16,14.18-2.92l2.26-.4c1.24,2.97,4.12,6.52,4.08,9.92.45,1.89-1.66,3.47-3.26,4.08-9.05,3.47-17.86,2-23.14-6.65-2.27,1.41-3.83,1.31-4.68-.3-1.13,2.61-6.8,3.73-8.91,1.86-1.33-3.33-1.47-7.02-.41-11.04,1.95-1.49,3.15-3.81,3.6-6.95.68-.48.74-1.64,1.81-1.66.96-.01,1.73.16,2.81.95,5.57,4.05,3.74-.39,11.01-.58,1.88-.05,2.7-1.91,2.57-3.18-.08-.82-1.06-2.79-2.18-2.29-3.1,1.37-5.39.2-8.55.07-4.02-.17-9.76,1.59-13.09-1.72-2.22-2.2.5-6.32,1.22-8.37,1.36-3.85,4.06-4.37,7.07-6.33l9.12-5.94c7.41,8.89,13.43,20.13,17.92,30.89Z"/>
    <path class="cls-118" d="M495.97,168.07c1.12,1.49,1.45,4.05,1.84,5.72-1.44.7-3.37.84-5.79.42l-2.3,2.75c3.59,3.33,5.77,8.01,6.55,14.04,5.12,1.81,7.37,4.2,6.73,7.17,1.97.31,1.82,3.29-.59,2.87-.93.16-1.9-.9-2.92-3.18l-4.51-1.9c-2.7,2.4-4.1,5.93-4.18,10.58-2.58,2.89-6.26,2.39-11.05-1.52-8.08,7.09-12.6,4.13-16.51-5.08-4.71-11.09-4.36-24.14,9.61-26.19,4.76.81,8.82.07,12.2-2.2,2.46-3.35,7.83-7.45,10.92-3.48Z"/>
    <path class="cls-31" d="M493.98,163.01c1.29.97,1.16,3.94,1.99,5.06l-6.32,1.07c-2.56,4.3-7.05,7.48-12.75,6.64-6.88-1-14.48,3.05-14.24,10.47.24,7.25,1.75,14.17,6.5,19.6,1.97,2.26,5.77.82,7.46-1.07,4.24-4.75,6.78,1.64,10.01,2.03,6.15.74,1.57-15.54,8.34-10.86,2.98.42,8.04,3.37,5.19,6.14-1.09.96-2.62.48-4.57-1.42-.94,3-1.52,6.25-1.76,9.73-2.22,4.91-6.1,4.96-11.63.16l-2.65-.65c-4.86,9.11-10.57,8.67-17.12-1.31l-5.08-3.98c-.81-2.91-2.27-4.86-4.39-5.84-.64-.34-1.13-.68-1.12-.99.21-4.69,2.49-12.03,5.24-15.84-.96-1.86-.65-4.27.92-7.23.34-5.21,1.34-10.73,4.9-14.58,1.75.03,3.84-2.83,6.01-1.15,2.91,2.26,5.03,7.46,9.29,7.72,3.41.21,7.12-.99,10.71-1.09,1.98-.06,3.22-2.89,5.08-2.62Z"/>
    <path class="cls-32" d="M335.97,13.07l2.25,1.88c.76,5.52,4.58,8.78,11.47,9.77l6.81,7.03c1.37-2.33,2.68-5.12,3.92-8.36l2.43.56c1.52.4,3.73,1.45,5.21,2.14-4.53-.54-4.3,9.8-7.24,11.33-2.01,1.05-5.73,1.06-7.38-.71-3.01-3.22-6.56-3.91-10.08-6.21l-16.66-10.93c-1.36-.89-29.03-13.52-27.45-15.56,12.57,1.38,24.81,4.98,36.73,9.08Z"/>
    <path class="cls-89" d="M459.95,101.82c2.2,3.06,5.28,5.63,6.87,9.25-1.41.6-2.17,3.31-3.79,3.76-8.43,2.29-12.94,10.01-19.55,16.44-3.62-.56,12.21-12.3,2.55-11.17-2.39.28-3.97.29-5.1-1.15l.79-.96c10.35-1.35,1.91-17.22-5.02-19.26-6.6-6.1-1.64-6.77,4.43-7.51,3.8-.47,8.59-.83,11.19,2.47,2.45,4.12,4.99,6.83,7.62,8.14Z"/>
    <path class="cls-104" d="M486.88,145.86l3.02,7.23c-.91,2.12-1.25,6.74-4.65,6.89-2.39.11-6.07,2.15-8.28,1.79-6.31-1.05-7.95-10.53-4.08-14.81s10.19-.39,13.98-1.1Z"/>
    <path class="cls-37" d="M362.85,23.94c-2.48.42-2.92,11.45-6.62,9.9s-5.62-7.2-9.01-8.12l-5.4-1.48c-3.85-1.05-5.54-7.14-5.84-11.16,9.1,3.13,18.74,5.59,26.88,10.87Z"/>
    <path class="cls-91" d="M497.81,173.79c4.47,7.29,4.96,16.23,7.14,24.27.18,2.92-1.37,2.98-1.94.11-3.03-6.35-9.21-.31-10.22-12.83-.31-3.92-2.47-5.01-4.64-7.38-1.27-1.38,1.51-4.82,3.07-5.56,1.99-.94,4.94-.07,6.59,1.39Z"/>
    <path class="cls-132" d="M504.95,198.06c3.08,11.38,5.19,23.15,5.96,35.01-.55-1.18-1.76-2.95-2.63-4.36-.91-1.48-3.06-.93-4.26-.33-3.33,1.66.27,9.48-5.12,11.58-.22-2.73.05-5.7.8-8.92l1.58-28.8,1.13-1.2c.37-.79.87-1.9.59-2.87.54.26,1.46.34,1.94-.11Z"/>
    <path class="cls-35" d="M449.78,89.97c4.53,2.66,7.2,7.71,10.17,11.85-3.53,3.99-6.4-7.59-11.41-9.33-3.85-1.34-9.48-1.01-13.1,1.06-1.71.98,1.14,4.06,2.56,4.45,11.27,3.06,10.73,17.07,8.81,19.27-1.32,1.51-3.7,1.82-5.87,1.69-.47-.6-1.72-1.2-2.03-1.99l.28-1.09c2.88.53,4.83-.66,4.22-3.68-.97-4.83-5.34-9.51-9.06-12.57-2.84-3.03-6.25-7.28-.35-8.47,1.98-1.24,13.81-2.89,15.06-2.06.3.2.52.52.72.88Z"/>
    <path class="cls-94" d="M447.7,86.88c-.83,3.23-9.23,3.8-11.7,2.12-5.16,1.38-14.04-.05-4.86-3.04,2.1-.22,10.23-2.25,9.98-5.99,1.58,1.84,5.9,4.6,6.57,6.92Z"/>
    <path class="cls-121" d="M449.78,89.97l-15.78,1.19c-2.32.93-3.61,2.55-3.87,4.87-.36,1.44-1.06,1.11-2.11-.97-.09-.41-.68-.76-.84-1.17-2.86-4.24-.71-5.73,6.46-4.47l2.35-.42c4.02.35,8-.53,11.7-2.12.27.95,2.61,1.55,2.08,3.09Z"/>
    <path class="cls-12" d="M16.03,279.63c-.23.46-11.2,18.44-12.54,17.57l-1.88-11.98c-.53-3.34-1.01-6.34-.24-9.33,18.27-.18,11.84,1.63,13.42,3.19.26.26.83.48,1.24.55Z"/>
    <path class="cls-59" d="M215,17.07c-3.8,3.49-14.27,5.31-19.05,7.99-1.93-4.34-3.01-11.31,1.84-14.46,3.1-2.01,9.31-1.56,12.91-1.3,4.36.31,4.1,4.9,4.3,7.77Z"/>
    <path class="cls-44" d="M500.98,265.05h-1.05c-7.32,3.11-12.55-11.24-11.13-16.78,1.81-1.8,4.1-3.06,6.87-3.78.54-2.7,1.62-4.21,3.23-4.52,1.38,9.87-5.27,16.55,2.08,25.09Z"/>
    <path class="cls-95" d="M502.42,201.03c-.37,16.23-.67,22.94-3.51,38.93-.13.74-1.36,1.55-1.15,2.95.79,5.21-5.69,2.81-7.36,6.1-.83,1.62-.45,3.46.67,5.11,3.33,4.89-1.19,6.55,8.87,10.93l1.9,4.88.19,13.88c-1.37.6-1.93,0-2.13-.81-1.21-1.87-1.43-4.4-.67-7.58.65-4.92-1.58-7.4-6.69-7.41-.7-.43-1.52-1.34-1.98-2.05s-5.93-11.83-6.07-12.52c-.51-2.5.54-3.69,2.12-5.48-.41-1.66,2.57-4.06,4.36-3.89,2.41-1.1,4.46-2.79,6.15-5.07-.86-1.81-.8-4.17.19-7.06-.35-9.21-.01-18.47,1-27.76l1.88-2.1c-.51-5.49.21-2.1-5.19-6.14,3.44-.84,6.06,1.99,7.44,5.08Z"/>
    <path class="cls-6" d="M486.6,247.97c-2.35,5.62,2.89,13.94,6.87,18.36l6.31,1.17c1.73,4.97,2.09,10.88.12,15.51h-.92c-4.53-4.05-8.16-9.15-11.83-14,2.01-5.01.23-9.78-5.35-14.29-1.2-3.06,1.93-7.24,4.8-6.75Z"/>
    <path class="cls-65" d="M128,143.99c1.51,1.55,1.3,3.29.64,5.21-.58,1.7-5.96,8.06-7.81,7.04-.8,3.3-7.48,2.26-7.65-.99l-.24-3.46-.63-2.2c2.16-1.94,2.95-3.8,2.36-5.58-6.25.89-12.51.85-18.78-.11-.8-.19-2.65.47-3.53-.61-1.19-1.47.35-4.09,1.58-5.66.76-.96,2.69-.76,4.28-1.62,1.8-.98,2.93-2.84,4.83-3.06.93,1.37.44,3.25-1.47,5.62,18.12,2.21,19.77.2,4.97-6.03l-1.34-1.66.79-2.22c2.61-2.05,4.79.82,7.36,1.75,4.9,1.79,10.45-.16,15.64.65.57,4.39-.95,8.75-1.01,12.92Z"/>
    <path class="cls-34" d="M94.13,159.01c1.04-2.65,6.12-1.04,5.65,1.99.62,1.38.39,3.32-.69,5.82.37,6.67,0,13.07-1.12,19.2,1.09,1.96.37,6.18-1.91,6.99-2.38-2.56-1.15-7.11.38-10.34.98-2.05-.54-3.87-.32-5.77.55-4.82,2.85-14.33-1.75-15.76-1.1-.34-4.68-.05-4.24,1.76,1.76,7.3.63,13.72-.2,20.71-.94,7.84,1.48,16.38-.64,24.66-1.47,5.73,1.36,11.75-1.27,16.81.27-7.47-.48-15.1.24-23.03,1.54-17.08-3.7-8.46-.27-26.04,1.03-5.26-1.18-10.62.33-15.69.67-2.27,4.33-1.48,5.83-1.31Z"/>
    <path class="cls-71" d="M113.18,155.25c2.51.34,5.01,1.29,7.65.99.9,1.1.96,2.8.2,5.12.63,2.91.32,4.79-.93,5.64-1.73.88-3.5.27-5.32-1.83-3.35-1.31-6.95-1.36-10.8-.14l-.96-1.11c-.39,1.92-1.16,1.77-2.03.07-.84-.42-1.25-1.42-1.22-2.99-1.47-.66-3.94-1.81-5.65-1.99-.62-.86-1.93-1.22-2.78-1.67,3.21-3.42,7.29.21,10.57-.63,3.83-.98,7.41-1.99,11.26-1.47Z"/>
    <path class="cls-71" d="M112.95,151.8c-3.29-1.9-7.02.09-10.93-.22-3.11-.25-6.01-5.07-6.12-7.66,3.17-3.04,7.69-1.5,12.13-.92,2.44.32,6.25-2.34,8.2-.21,2.43,2.66-1.23,7.09-3.28,9.01Z"/>
    <path class="cls-29" d="M103.06,132.96c.62-.73,1.82-1.09,2.17-2.08,2.7-2.05,13.5,6.6,13.2,6.19,4.7,6.49-16.66,3.69-19.08,3.16-2.75-.6,3.09-6.55,3.71-7.28Z"/>
    <path class="cls-135" d="M157.17,60.14c-.77.5-1.73.93-2.3,1.68-10.83-2.37-8.18-.23-16.31-7.4-1.54-1.36-3.7-1.83-4.27-3.39-.7-1.93.2-3.34.47-5.33.42-3.11-1.96-6.24-.47-9.75,1.26-2.98,5.84-7.04,9.5-6.31,5.11,1.02,9.32,3.71,14.41,5.1.54,4.15,2.24,7.4,2.56,11.45.85,10.92-1.78,6.91-3.6,13.96Z"/>
    <path class="cls-34" d="M77.66,231.07c-1.63,1.82-3.71,2.43-6.27,3.52-7.81,3.35-20.83,11.62-23.54,12.3-.74-4.38-3.04-26,1.98-27.74,2.7-.94.9,2.9,11.13-1.15,1.92,3,3.14,6.19,4.44,8.95,5.06-2.46-.05-10.71,4.27-11.73,1-.24,3.32-.41,4.5.76,3.86,3.82,4.97,10.12,3.49,15.08Z"/>
    <path class="cls-34" d="M39.86,253.02l-7.85,6.87c-1.8,1.22-2.89,1.23-3.27.04.19-9.38-.07-18.7-.77-27.97-1.34-1.62-1.02-4.1-.12-5.86,1.81-1.31,2.64-5.31,6.27-3.98.91.33,2.11,1.67,2.5,3.1,3.54,13.06,8.84,7.76,3.24,27.8Z"/>
    <path class="cls-85" d="M103.03,163.93c.64,1.47.31,3.69-.98,6.67-.57,16.15.31,32.16,2.63,48.04l-1.65,1.38-1.02.92c-4.34,1.44-4.4-.18-4.26-4.17,1.19-7.58.96-15.22-.7-22.91-.33.54-.65.56-.94.02l-.05-.86c-.14-2.37-.24-5.44,1.91-6.99,1.23-6.01,1.61-12.4,1.12-19.15-.02-2.02.62-2.98,1.92-2.88.64-.14,1.4.12,2.03-.07Z"/>
    <path class="cls-78" d="M102.01,220.94c-1.43,1.3-3.32,1.3-4.86.37.19-1.64-.66-3.72-.15-5.32-.31-7.46-.29-14.84.05-22.14,3.27,7.91,1.91,17.11,1.38,25.93-.08,1.31,2.92,1.35,3.58,1.15Z"/>
    <path class="cls-26" d="M97,215.99c-.76.07-1.04-.92-1.03-1.95l.14-20.17c.32-.32.63-.39.94-.02-.96,9.11,2.94,12.78-.05,22.14Z"/>
    <path class="cls-46" d="M32.01,259.89c-.68.6-2.64,2.71-3.52,1.52l-.53-29.45c.64.77,1.12,1.35,1.12,2.96l-.07,24.8c1.16.58,2.29.2,3,.17Z"/>
    <path class="cls-90" d="M378.17,111.85l-1.05-.93c-1.57-9.82-4.44-19.51-8.07-28.81-.13-.6-.25-1.8.39-2.56,5.48.89,5.1-5.09,7.44-6.33,3.99-2.11,5.52,5.34,13.47-.81,1.09-.84,3.34-.63,3.75-1.96.44-1.41-.17-2.81-.95-4.95,2.69-.73,5.53-.72,8.71-.35-1.47,6.98,5.55,15.25,10.42,18.39,4.52,2.92,4.74,8.15,7.72,11.59l7.42,8.59c1.12,1.3,3.51,2.44,2.43,4.59-4.87,9.7-16.59,2.44-24.65,5.99-3.49,1.54-7.93.24-11.83-.66,1.82-7.35-8.69-13.27-11.47-11.06-2.46,1.97.81,11.47-3.71,9.27Z"/>
    <path class="cls-105" d="M362.08,70.99c-7.47-9.22-15.28-18.13-24.05-26.16,2.99.5.78-4.52,5.59-4.78,1.22-.07,3.59.53,4.14,2.01,1.39,3.78,5.19,2.89,7.58,4.72,5.78,4.41,10.84,18.49,6.74,24.21Z"/>
    <path class="cls-15" d="M330.77,38.75c-3.92-2.26-10.58-6.92-14.87-8.8,6.42-.75-5.21-3.19-5.15-6.53,5.12-1.26,10.14-.5,14.11,2.62,4.32,3.39,6.74,7.43,5.91,12.7Z"/>
    <path class="cls-114" d="M419.08,202.08c.6-3.35,8.36-1.83,10.04.2.49.59-.41,13.5-2.17,14.62.25,4.22-1.35,6.25-4.81,6.09-9.21-4.54-18.74-8.33-29.09-11.1-1.58-.42-2.13-1.72-1.9-2.9.3-1.98-.29-4.13-.1-6.13-2.65-.89-2.64-1.86.03-2.7,1.47-.94.39-3.02.93-4.18.83-4,.85-8.14,0-12.14,0-4.98-1.36-9.76.1-14.68.61-2.16,2.83-2.55,6.66-1.18,6.24-5.04,14.6-5.05,21.93-2.68l1.36-.51c.27-.35.86-.52,1.08-.91,13.95-5.13,17.03,9.36,1.61,10.32-9.48,2.67-19.5,5.79-16.73,17.87.02,3.25-.25,5.68-3.96,5.87-3-2.48-5.25,1.57-4.02,1.97,1.68.54,11.61,1.95,13.59,1.89,2.22-1,3.33-1.05,5.44.26Z"/>
    <path class="cls-116" d="M439.1,168.08c1.27.86,1.25,2.88-.06,6.04-3.27,5.72-7.74,6.02-13.49,3.66-1.53.4-13.94,5.77-14.36,6.44-.65,1.03-2.3,21.07,5.91,12.13,4.33.24,4.09,2.41,1.99,5.74-2.61-.32-5.02,2.29-7.8,1.72-3.94-.8-7.23-1.96-11.36-1.98-2.67-.01-1.93-4.02-1.2-5.4,1.19-2.22,4.28.11,6.17-.6,3.49-1.3,2.21-6.89.07-9.85,3.59-3.18,5.69-9.58,10.11-10.81l13.33-3.72c1.53-.43,3.11-.5,3.81-1.84.53-1.01,1.81-3.12.17-4.06-2.91-1.66-6.36-1.55-9.25-1.65,2.52-4.44,6.97-1.9,13.41-1.33,1.29,1.2,2.57,3.94,2.55,5.51Z"/>
    <path class="cls-74" d="M453.99,162c2.37,5.22-5.83,5.76-8.65,2.14-1.41,3.46-3.01,6.84-4.8,10.12l-1.51-.15.06-6.04c1.07-3.36.53-7.35,2.28-10.64,7.12-13.41,11.73-3.69,13.86-9.17.65-1.66.63-3.32,1.94-4.25.32,2.97-1.47,5.71-2,8.97s.66,6.58-1.19,9.02Z"/>
    <path class="cls-75" d="M434,91.16c-8.12,5.87,12.91,11.55,10.68,24.63-.33,1.91-4.66.93-5.78,1.17-4.61-3.17-8.93-.07-12.87,3.06-4.15,3.29-10.73-.74-15.45-.33-5.14.44-9.84,1.46-14.66,1.4.2-1.31,2.45-2.05,4.02-1.91,9.74.85,4.45-4.99,17.76.12,11.1,4.26,7.27-9.28,23.3-3.92,2.72-2.91-.17-5.14-.94-7.35l-6.08-7.06-3.86-4.94c-.73-.94-1.21-3.25-.5-4.03,1.11-1.21,3.18-.75,4.37-.84Z"/>
    <path class="cls-116" d="M422.06,164.8c-.17,4.22-16.29-5.01-22.29,5.31-2.94.08-5.18-1.45-7.66-.94.28-.95.09-2.31.6-3.18.64-.85,1.77-1.49,1.99-2.8,1.52,1.5,2.59,2.58,3.89,2.86,1.82.39,2.88-1.65,4.62-2.16,4.2-1.24,8.98-1.26,13.3-1.27,1.88,0,3.64,2.85,5.55,2.18Z"/>
    <path class="cls-75" d="M384.08,127c3.27-.36,6.73.65,10.13-.6-.23-2.38-.97-5.04,1.02-5.3-.18.7,6.21,9.81.86,9.65-1.2-.04-11.08-.95-11.77-1.54-.55-.48-.35-1.5-.23-2.2Z"/>
    <path class="cls-27" d="M462.9,160.15c1.52,3.34-2.41,6.64-2.43,9.7-.04,5.48-1.13,8.28-3.38,12.11-6.72,13.74-9.24,30.44-9.69,45.91-.29,2.92-1.06,5.3-2.29,7.13-.44-.26-.78-.68-1.2-.97-.9-.66-1.25-1.35-1.06-2.06.46-20.58,4.24-40.78,11.33-60.61-6.03-5.07-12.4,6.2-13.86,11.62l-2.34.42,1.02.97c-2.34,7.23-4.4,14.76-6.19,22.59l-2.69,1.1c-1.44.15-1.46-3.68-1.38-5.31.49-9.12,4.07-22.07,10.31-28.65,2.43-2.98,2.79-12.03,6.46-12.01,2.81.02,2.2,3.85,6.21,2.26.94-.37,1.41-1.94,2.29-2.36,2.86-1.37,5.82-1.92,8.91-1.86Z"/>
    <path class="cls-38" d="M500.17,202.09c.57,6.12-.8,12.24-1.14,18.81s1.1,12.76-1.92,18.11c-1.67,2.33-3.72,4.02-6.15,5.07-1.15,1.28-2.99,2.92-4.36,3.89-1.46,1.04-5.07,3.03-4.01,5.51.82,1.92,11.2,12.07,4.55,15.53-.27-.35-.66-.68-.98-.99-.68-1.86-1.22-3.83-1.61-5.91-8.79-6.25-7.61-13.18,3.53-20.77,3.33-3.67,7.2-7.98,4.85-13.18-5.64-2.99-9.89-7.15-12.75-12.48-7.71,8.55-24.09,16.28-21.55-2.09l-6.21-.17c.75,7.39.05,14.38-2.11,20.97l-2.3.6c-.57.65-1.19.49-1.87-.49.43-2.77.93-5.53,1.49-8.29-.26-9.27,1.3-17.14,3.5-26.14.23-.93.71-1.35,1.85-1.28,1.14-.19,2.04-1.43,3.29-1.3,1.66,1.87,1.38,4.98,3.06,6.33,7.2,3.76,10.35,12.65,13.8,10.95s3.48-6.66,6.45-6.84c5.36-.32,8.93,7.19,11.7,3.24,2.28-3.25.14-9,2.91-11.81,2.22-2.26,4.74,1.42,6,2.73Z"/>
    <path class="cls-119" d="M452.97,198.79c-1.38,5.03-3.67,10.47-4.03,16.12-.39,6.07.93,11.64-2,17.35-.57,1.12.54,2.31,1.06,2.74,2.63-1.56,3.76,1.01,2.02,3.11-2.13.02-3.19-2.09-4.91-3.1,1.7-6.82,1.74-13.62,2.11-21.08.25-5.17,5.31-30.55,9.87-31.96-2.91,4.95-2.63,11.39-4.12,16.83Z"/>
    <g>
      <path class="cls-121" d="M433.1,71.36c3.25,1.93,5.83,6.05,8.03,8.6,3.97,4.31-7.11,9.47-9.98,5.99-2.99,2.74-6.08,3.07-9.28.98-2.43-.37-3.52-.83-4.18-3.19-1.98-7.01,5.03-8.51,5.69-16.55,5.83-.37,7.21,6.34,9.73,4.17Z"/>
      <path class="cls-82" d="M431.14,85.95c-.38,1.08-1.85.67-2.94,2.39l7.8.65c-1.99,2.15-7.24.43-8.44,1.96-.6.77-.45,2-.38,2.93-2.58.09-1.38-6.36-5.32-6.95l9.28-.98Z"/>
      <path class="cls-60" d="M436.76,80.56c-1.74,3.85-10.04,4.55-13.33,2.27.43-4.35,1.17-7.94,2.76-11.99,3.94,1.49,9.45,5.21,10.57,9.72Z"/>
    </g>
    <path class="cls-54" d="M486.16,268.02c-11.43-10.77-23.39-20.73-36.14-29.93-.87-.62-1.18-2.44-2.02-3.11l1.98-6.01c1.68-5.09-.78-11.12.73-16.36.81-2.83,11.4-.11,9.34-1.2,2.13,1.12-2.65,10.64,3.39,11.27,12.25,1.28,14.88-16.67,20.2-5.22,2.16,4.64,7.04,6.1,10.72,9.3,1.75,1.52,1.44,6.75.43,8.74-5.33,10.51-14.65,12.19-14.47,18.79.1,3.54,10.02,5.37,5.84,13.72Z"/>
    <path class="cls-61" d="M430.1,208.08c.47.07.93.17,1.31.38,1.06.6-.07,14.5-2.19,16.36l-4.32-.62c-.76-.21-1.53-.44-1.9-1.22,2.94.05,4.25-1.98,3.96-6.09-.17-4.15.68-8.34,1.3-13.02-3.02-2.2-6.3-1.45-9.17-1.79-.26-.59-1.77-.92-1.85-1.6-.11-1,2.38-1.16,1.26-2.77-1.94,1.72-6.66,3.97-8.68,1.18-1.89-3.74-.15-9.35-.71-13.89-.58-4.68,9.69-5.36,13.01-7.64,7.72-5.31,3.78,4.53,16.92-3.26-1.58,1.93-1.22,5.18-2.53,7.44-3.15,5.43-4.32,10.86-4.76,17.3-.22,3.24-2.34,6.22-1.64,9.22Z"/>
    <path class="cls-103" d="M442.84,231.97c.46.61.68,1.4,1.06,2.06-6.02-4.02-11.97-7.86-19-9.82,1.28-.12,3.05-.17,3.65-1.2.12-.2,1.48-13.32,1.55-14.93,2.7-5.48,3.59-11.93,4.55-18.34.43-2.89,2.45-4.24,3.31-6.32,1.95-2.81,4.52-.41,4.74,2.59-3.45,10.36-3.44,21.97.63,32.03,0,0-.16,4.65-.49,13.94Z"/>
    <path class="cls-116" d="M423,222.99c-.26,0-.63.11-.86,0,.71-1.43,2.88-.38,3.94-1.88.07-1.72-.31-3.61.88-4.21.07,1.85.17,3.68-.02,5.95-1.64.33-2.79.14-3.94.14Z"/>
    <path class="cls-6" d="M490.96,244.08c1.76-1.97,3.78-3.75,6.15-5.07-1.4,2.47-2.48,5.63-6.15,5.07Z"/>
    <g>
      <path class="cls-117" d="M149.18,76.03c-8.93,20.98-15.5,42.78-18.55,65.93-.2,1.52.43,2.94,1.37,3.05,1.98,2.54-.02,3.84-1.98,1.26-.97-.24-1.64-1-2.02-2.28l-1.92-1.55.88-9.56c-8.28,1.4-13.98-.81-20.94-4.22-1.65-1.89-3.14-5.65-1.34-7.87,4.64-5.73,5.43,5.84,15.45,4.35,3.16-.47,8.8,1.15,11.12-1.89,1.29-5.89,4.51-14.39,4.71-20.03-3.62-6.71-13.08-2.87-16.99,1.33-3.1,3.34-9.75,2.7-10.56,13.47-.5-1.7-.99-3.18-2.38-4.2-.64-.47-1.89.35-3.02-.62l.95-11.06c.27-3.18.49-5.05,1.11-7.18.38,4.96-1.02,10.42.48,15.73.75,1.6,4.06-1.18,4.2-3,.61-7.94,7.28-6.21,8.15-8.41,1.24-3.16-5.17-6.62.13-11.43,1.15-1.04.77-2.73.07-3.51-2.63-2.94-7.71.9-9.43-5.33-.47-1.69-.12-4.78,2.34-6.37,12.71-8.21,21.98,4.52,36.63-.81.43,2.25.61,3.39,1.55,4.21Z"/>
      <path class="cls-18" d="M139.53,92.23c-3.51,2.97-10.18-1.23-13.98-2.93-.12-4.89,1.68-11.21,6.77-12.82,4.76-1.51,9.56.16,14.7-.34-3.44,4.68-3.01,11.99-7.49,16.1Z"/>
    </g>
    <path class="cls-76" d="M130.02,146.27c3.45,3.26-7.85,8.3-7.76,15.65.06,5.37,2.79,10.25,3.22,15.5.53,6.48-2.05,14.67-.66,23.42-.75-.43-1.65-.59-2.47-.81.05-.66-.21-1.49-.19-2.14l-1.97-1.19c1.11-9.69.46-19.06-1.93-28.12l1.85-1.57c-.19-3.58-.92-7.17.73-10.76,6-5.96,7.07-5.93,7.17-12.25.76-.17,1.45.14,1.72.7.24.5.04,1.33.3,1.58Z"/>
    <path class="cls-78" d="M101,163.99c-.61,1-1.05,2.27-1.04,3.94l.11,15.03c.01,1.98-1.14,2.37-2.1,3.06v-16.06c.01-3.4.56-6.33,1.82-8.95.55.25,1.92.73,2.08,1.43.1.44-.63,1.17-.86,1.56Z"/>
    <path class="cls-69" d="M120.1,167c.22,4.34,2.62,8.51,2.51,13.08l-.46,17.8c-2.48.99-3.65,3.59-3.61,6.51l.14,9.41c.03,1.97-2.91,1.19-3.55,1.97l-1.41-1.79c1.23-14.76,1.26-29.6.11-44.53-.84-3.42-7.72-2.02-8.5-1.15-2.8,3.15-.42,17.62.34,22.03l1.63,25.22c1.59.32,2.52,1.14,2.81,2.46-2.09,1.5-4.38,1.94-7.08,2-.89-1.69.32-3.8.03-6.01l-2.88-22.02c.73,5.6.22-33.13,2.85-28.06,5.86-1.75,12.78-1.52,17.08,3.07Z"/>
    <path class="cls-51" d="M115.13,215.78c-1.27,1.56-3.62,1.23-5.03,2.24-.8-.19-4.67.52-4.74-1.09-.21-4.76-1.52-28.38-2.27-30.99-1.83-6.43-1.46-12.73.89-18.92,2.68-.9,5.88-2.37,8.48-1.52,4.46,1.47,3.38,5.9,3.63,9.52.45,6.71,1.81,12.85.44,19.43-1.95,9.35,1.59,15.05-1.4,21.33Z"/>
    <path class="cls-121" d="M440.08,108.03c-2.69-1.78-5.33-3.93-6.08-7.06,2.78,1.78,5.03,4.04,6.08,7.06Z"/>
    <path class="cls-8" d="M392,195.99v-12.14c1.7,3.57,1.67,8.53,0,12.14Z"/>
    <path class="cls-130" d="M442.84,231.97c-2.78-3.71-.21-9.33-1.44-13.45-1.12-3.73-2.54-6.44-2.81-10.62-.5-7.62-.72-14.6,2.21-22.08.45-1.16-2.2-2.27-2.82-2.41l2.4-5.81c4.11-9.96,12.24-10.47,14.45-8.86,1.35.99,1.7,2.98,1.09,5l-5.14,16.91c-5.11,16.8-3.24,18.48-6.69,32.38-.77,3.12.86,6.65-1.22,8.94Z"/>
  </g>
  <g>
    <path class="cls-82" d="M355.96,119.99c7.97,6.59,15.62,13.48,22.95,20.67l-1.81-16.14,1.83-1.65c.95.57.95,1.59,1.4,3.23,4.45-5.62,7.02-.23,13.2-6.58,2.81-2.89,7.33-2.09,10.82-3.08,5.75-1.63,10.41-.77,15.83,1.3,3.01,1.16,6.35-2.44,8.54-3.81,3.36-2.11,6.91-1.29,10.65-2.56-3.68-6.09-10.36-10.93-11.35-16.31.6.52,1.34.82,2.11.97,1.4-1,4.7,3.47,3.86,4.94l6.08,7.06c3.16-.47,5.18,7.2,1.19,8.16-4.15-1.62-7.97-1.6-11.44.06-3.16,3.34-6.62,4.75-10.36,4.23-7.81-2.33-15.66-2.13-23.53.6-.23,0-.48-.02-.71,0l.62,4.87c-1,4.05-9.48,3.23-11.76,1.04-.65-1.84-2.79-1.08-1.8.73-1.22,5.12,1.22,9.74,1.44,14.25.84,17.69,8.5,8.42,8.99,24.02,2.37,1.31,2.22,2.85-.6,3.18l1.61,1.79c-.36,3.78-.28,7.57.25,11.38l-1.96,1.5c.86,3.98.83,8.16,0,12.14,3.02,1.06,2.55,4.94-.93,4.18-.81.47-1.15.12-1.08-.92-2.16-.48-2.6-2.67-1.31-6.56-1.76-10.25-1.6-20.31-.89-30.53-.21-2.29-1.15-3.97-2.67-5.63-32.34-35.32-78.69-78.39-121.16-100.49-4.45-.6-9.06-.7-13.82-.28-1.4-.15-1.49-1.37-1.18-2.78,6.65-2.85,11.82-3.49,18.7.19,25.69,13.75,52.62,36,74.57,55.51,4.67,4.14,8.72,8.4,13.72,11.32Z"/>
    <path class="cls-62" d="M378.17,111.85c-.47,3.72.33,7.36.75,11.02l2.66,23.38-25.62-26.27c6.59,3.85,7.49,6.39,15.23,11.38,2.51-4.11,2.36-8.18,4.24-12.13,1.28-2.7,2.15-5.53,1.7-8.3.62-.4,1.11.44,1.05.93Z"/>
    <path class="cls-8" d="M248.97,52.97c3.32,3.08,10.61-2.33,19.15,2.74,42.7,25.38,80.01,59.07,113.99,95.13,1.91,2.03,4.54,4.02,5.88,6.01,4.02,5.99.4,14.49,1.13,21.09l1.53,13.88c.29,2.6-1.12,5.06-.65,7.43-6.62,3.66-14.4,5.05-21.91,5.86-9.35,1.93-18.79,3.11-28.32,3.53l-2.43-5.86,2.87-15.43-1.31-.24-2.02-1.83c1.67-12.92,1.33-25.51-1-37.77-2.04-3.35-2.97-6.48-2.77-9.4-8.75-.17-17.42-.63-25.99-1.37-41.44,2.07-83.07,2.66-124.89,1.77-1.16-2.41,3.05-3.74,3.78-1.53.39-.7.39-1.4,0-2.09-2.43,1.62-5.07,3.14-8.13,4.1.8,2.42.45,5.3-1.05,8.66-1.9,7.75-2.85,15.63-2.84,23.62,1.04,4.61.77,8.53-.82,11.78-.86-.3-1.44-.33-1.41.27.38,8.58,2.75,16.01,8.3,22.55-.06,4.91-3.59,6.59-10.6,5.04l-27.54-4.85c-5.68-1.55-11.73-2.14-17.09-5.22l-1.22-.89c-.12-7.47,0-14.94.37-22.4-2.6-7.14-3.2-14.01-1.81-20.63,3.36-3.26,5.98-6.81,7.86-10.65,1.06.19,1.43-.65,1.98-1.26,15.46-17.17,32.62-32.25,50.68-47.33,19.24-16.07,43.98-35.13,66.29-44.71Z"/>
    <path class="cls-87" d="M368.09,205.11c-2.86,1.97-6.64,2.07-10.55,2.55l-64.46,8.04-18.02.94c-14.05.73-27.75.69-41.58-.15l-16.94-1.03c-25.32-1.54-50.54-2.84-74.61-9.42,1.89.02,19.08,2.51,20.27,2.77,4.41.98,10.93,2.97,14.97.24,3.06-2.07-1.26-6.49-2.48-8.55-4.62-7.75-4.58-16.28-4.29-24.51.93,3,2.11,5.23,2.79,7.05l2.2,1.02c.13,7.3,2.31,13.26,6.56,17.87,13.42,3.32,27.23,4.97,41.43,4.95l1.55,2.13c33.17.19,49.75.29,49.75.29l4.09-1.75c10.62-.95,25.84-1.72,36.44-1.21.34.02.66.6.96,1.35l11.89-.78c.14-1.81,1.41-3.14,3.81-3.97,2.87-3.78,4.34-8.76,4.42-14.93l2.61-.92c2.04-3.66.66-7.48,1.67-12.43,3.1,4.36,1.76,8.78.84,13.47-.77,3.92-.63,7.48-2.04,11.29-.99,2.7,1.34,6.35,2.08,8.69,5.12-1.5,9.33-1.08,13.95-1.6l12.69-1.42Z"/>
    <g>
      <path class="cls-98" d="M134.89,376.9c1.86-.66,3.34.17,4.43,2.46,20.78,35.95,45.46,69.93,71.67,101.53,1.77-1.47,7.46-3.2,9.76-2.89,1.27.17,1.89.44,2.36,1.97-8.29,2.2-16.79,4.18-25.21,6.21-4.77-3.84-5.36-3.95-1.8-.32l-1.03,1c-.82.2-1.5.95-2.22,1.33l-.66,1.27c-6.27,1.17-12.51,2.5-18.74,4.01l-.55-1.4-3.31,1.19c-24.65-8.19-46.84-20.36-68.38-33.92-8.37-6.59-16.64-12.79-23.89-20.75-1.04-1.76-1.13-3.81-.25-6.14l9.96-30.73c7.82-8.98,15.97-17.62,24.44-25.9,3.54-8.01,6.78-16.25,9.7-24.72l2.77-1.06c.75-1.12,1.73-1.81,2.93-2.07,1.74,10.75,4.22,21.24,7.43,31.47-.51-1.13-.7-1.91.58-2.57Z"/>
      <path class="cls-22" d="M391.14,209c-.49.98-1.51,2.01-1.27,3.99,4.63,37.39-5.75,44.19-3.24,62.1,1.14,8.15.25,16.2.23,24l1.74,1.33-3.45,14.62c3.46,3.77,3.39,13.06-.24,16.86-.66,2.53-.56,5.44.31,8.71-.48.2-.87.42-.89.67-.32,2.89-.9,7.34-1.7,10.04-.09.31-.68.47-1.41.58l-3.81,13.08c-12.19,28.43-25.74,55.68-40.64,81.74l-5.81,3.44-47.07,13.68-60.78,16.13c-3.98-.2-7.77.93-12.59,2.64-10.38-10.91-25.49-29.76-33.59-42.73-5.1-8.17-11.24-15.15-16.79-23.08-7.51-10.72-14.29-21.18-20.29-32.83-1.37-2.67-3.35-5.02-4.96-7.07-.86-.29-1.57-.63-1.79-1.18-2.66-6.62-4.98-18.83-5.87-26.09-.41-1.93-.47-4.18-.19-6.74-1.58-7.05-.32-31.44-1.93-38.9.13-10.61.21-21.27.22-31.98-4.22-17.47-5.55-35.49-3.02-53.44-1.3-1.32-.09-1.92,1.7-2.46-3.01-1.28-.7-5.43,1.76-6.55,24.57,5.27,36.85,7.91,36.85,7.91l1.13,1.78c-2.4,20.12-4.61,40.64.38,60.54l-.93,1.9c-.65,2.05-3.66,2.84-5.14,1.23-4.08,1.73-8.19-.2-12.31-5.78l-8.48-6.15c-1.57-1.19-2.35-.61-2.34,1.72,3.37,2.12,8.94,7.88,9.77,11.91.45,2.19,1.31,12.64,1.34,15.21,0,.35-.46.7-1.06,1.06,1.06,5.83.65,11.86-.63,17.57,1.94-2.22,3.52-2.34,4.75-.37,1.96.26,4.63,4,5.14,5.94,2.18-2.13,3.47-.89,2.78,1.96,2.76-1.25,3.83.12,2.91,2.74l1.4-.28c4.79,18.32,11.64,35.66,20.55,52.02l10.16,12.42-.13,3.05c21.12,22.36,47.71,41.59,74.05,58.4,37.41-23.87,65.95-58.28,82.05-100.45l-1.41-2.08,4.33-11.66,2.16-1.1,4.33-12.39c.54.07,1,.07,1.21-.16,1.68-1.85,4.43-4.3,6.29-5.52,1.54-2.96,4.69-3.48,9.46-1.54,2.83.17,1.31-2.6-4.54-8.32-.44-9.29-.39-18.44.17-27.44-.22-.94-.31-1.79.05-2.32,2.39-3.51,6.64-8.76,9.59-11.83.45-.47,1.3-.55,2.26-.53,1.04-5.3-1.83-2.81-4.58-.23l-11.4,11.56-4.7,2.33c1.55.7,1.12,1.21-1.29,1.52-.04,4.08-3.95,1.26-4.89-1.13-6.2-.31-7.48-3.85-3.83-10.62,7.6-15.72,7.43-32.1,3.51-48.75l1.34-.72c-1.12-3.2,1.37-4.75,7.47-4.63,7.27-2.06,14.07-5.22,20.42-9.51-.22-2.58,4.6-6.39,7.08-5.98,2.86.42,3.24,6,.1,6.13Z"/>
      <path class="cls-98" d="M386.97,340.97c.76-.21,1.92-.42,2.19.07.9,1.65,7.33,16.76,7.22,17.71-.1.87-.66,1.54-1.31,2.08,1.39,3.42,2.13,8.64,2.35,12.7l1.08,19.76c2.94-3.53.67-7.37,2.06-10.99,4.12,4.76,6.97,10.36,10.05,16.07l8.35,15.45c.24,1.34.36,3-1.28,3.85-12.55,6.48-25.42,10.84-38.64,15.51l-24.86,8.8c-1.31.55-2.98.56-5.01.05-.42,2.06-3.33,3.2-5.23,3.83l-12.97,4.3c3.04-1.54,4.11-4.46,5.74-7.48l14.17-26.07c7.71-14.2,14.38-28.19,20.87-42.82,3.36-7.57,5.45-15.24,9.48-21.89l1.14,2.29c.62-5,1.29-9.96,2.51-14.81.1-.42,1.88.36,2.1,1.58Z"/>
      <path class="cls-43" d="M197.9,486.19l-2.83.68c-.06-1.51-1.37-2.24-2.54-3.5-13.59-14.63-25.43-30.27-35.19-47.65-1.61-2.88-4.83-4.88-4.04-8.89,5.7,6.06,9.02,13.2,13.55,20.23,9.22,14.28,20.06,26.73,31.04,39.12Z"/>
      <path class="cls-30" d="M354.18,441.99c-1.16,1.98-3.27.62-5.01.05.79-3.86,3.17-7.05,5.17-10.83,4.33-8.18,8.42-16.13,12.28-24.62,2.63-5.78,3.08-12.75,8.57-17-5.78,18.68-14.39,34.69-23.44,51.38-.64,1.18,2.16,1.53,2.42,1.02Z"/>
      <path class="cls-26" d="M122.34,200.02c1.33,1.12,2.05,3.03,2.15,5.72,25.25,7.48,51.05,12.13,77.42,13.97,4.73,4.34,2.4,6.14-6.98,5.4l-6.74,1.9-1.26-1-.4-2.33c-1.86-.43-18.76-2.75-19.68-2.37-2.61,1.08-3.57,49.43.16,56.09l-1.23,3.4c.52,1.95-1.56,2.53-2.59.89-5.64-23.99-2.73-39.05-1.13-63.72-11.96-1.23-22.91-4-34.25-7.23-2.09-.6-3.44,3.76-3.8,5.37l-1.12,1.71c-1.62-.07-3.31-.01-5.05.17-5.63,1.37-10.77,4.74-16.67,6.18l-2.98.73c.61-1.37-1.2-2.26-1.04-3.61-.03-1.11.73-1.09,2.3.06l2.57-.44c-1.26-1.46-.69-1.94,1.02-.92.32-2.2,1.59-2.64,3.81-1.32l3.27-.68c-1.3-2.9,3.05-3.84,5.03-2.24,1.12-2.03,1.84-2.71,2.18-2.01v-11.51c.07-3.34,1.53-6.36,4.84-4.37,1.71.16,1.84,1.65.19,2.14Z"/>
      <path class="cls-68" d="M134.89,376.9c1.21,3.32,1.75,7.07,3.44,10.75,2.81,6.14,6.39,11.7,8.81,18.41.37,1.04-1.83,1.19-2.19.46-12.28-24.46-13.48-28.52-19.01-57.37-1.04.12-1.37.76-1.99.91,2.93-5.63,2.79-1.79,3.09-7.16,2.55,11.37,3.82,22.96,7.86,34.01Z"/>
      <path class="cls-129" d="M391.07,200.17c0,.9.05,1.8-.03,2.7-1.51,2.81-4.12,4.71-7.08,5.98-8.28,4.79-17.47,7.79-27.56,8.98l-1.62-1.76-.71,2.1c-2.74-1.04-5.43-1.09-8.07-.14l-.91,1.11c-6.15.95-12.17,1.75-18.07,2.38l-1.02-1.4-1.26.55c-3.9.23-7.81.79-11.73,1.69-2.33.75-4.34.64-6.03-.35-2.03,2.38-5.04,3.78-9.02,4.22.66,3.32-3.81,5-6.02,2.6-3.1,3.54-6.62,5.29-10.56,5.24-2.02,1.9-4.52,2.57-7.49,1.98.78,2.73-.5,3.09-1.82.56-3.11-2.73-2.4-3.92,2.13-3.59-.25-2.59,4.7-5.86,6.92-4.23.2-2.86,1.07-3.14,3.83-2.84.87-1.15.45-1.73-.77-2.14-2.97-1-13.14-1.1-15,1.63-1.54.45-2.47.11-2.79-1-12.8.09-25.7.31-38.68.68,3.77.88,6.5,2.43,8.19,4.66,1.9-1.39,5.48-.32,5.99,2.22,4-.09,4.94.81,2.82,2.72-1.62.71-2.83.76-3.64.14-1.74-.65-4.21-.98-4.82,1.04-2.23-1.67-4.67-2.99-7.31-3.98-.14,1.73-1.47,1.35-3.99-1.14-.57,3.03-2.96,2.33-2.74-.76-2.03-.66-3.62-.76-3.3,1.68,2.53-1.93,4.87,2.03,3.05,4.23,2.83,4.77-2.34,2.18-4.85-.22l-1.16.14c.01,1.5-.37,2-1.62,1.09l-.73-.33c-4.82-11.01-14.47-9.96-18.19.88l-1.52.57c-5.57,1.63-2.08-6.74.38-9.63-3.62.85-6.87,2.73-9.76,5.63-.25-1.34-.84-2.48-1.4-2.24-3.02,1.29-3.14.12-1.93-2.82-2.2-3.04,3.64-5.65,5.74-3,5.18-1.68,10.14-3.07,16.2-2.65-2.07-3.32-5.32-1.86-8.18-2.23l-28.07-3.59c-6.21-.79-42.09-7.35-44.14-10.79-1.34-2.25-.56-4.59-.39-6.72,1.2-2.39,1.74-1.58,2.47.81l2.49-.95c4.31,1.71,8.76,2.98,13.36,3.79l1.24,2.38,30.49,5.11,5.28-.64c54.96,5.94,109.31,6.27,162.89-2.76.36.65.71,1.15,1.01,1.12,8.87-.86,17.9-1.89,26.5-3.77l2.01-2.25,9.87-1.83c3.67-1.83,7.01-2.42,10.03-1.78.38.28.74.59,1.08.92Z"/>
      <path class="cls-134" d="M191.91,395.96c13.87,12.88,28.4,25.08,45.31,34.56,5.13,2.88,10.42,5.2,15.52,7.6,6.6,3.11,11.98,1.97,17.97-1.56,11.7-6.88,21.41-16.17,31.84-24.9,14.62-12.24,29.67-28.62,38.68-45.49,1.66-3.11,4.1-5.42,4.73-9.28.2-1.21,1.23-2.59,2.06-2.98-5.76,18.61-14.29,36.76-26.56,52.6-12.44,16.05-37.08,40.19-55.68,49.67-25.56-14.44-47.62-32.95-68.53-53.38-2.52-2.47-3.65-4.67-5.32-6.83Z"/>
      <path class="cls-50" d="M354.78,216.07c2.61,1.98,2.3,4.37,1.29,6.91-.05,1.61-.32,3.67.31,5.73,3.63,11.91,2.99,24.15-.85,35.96-1.85,5.69-4.46,10.8-5.58,16.51,2.19.68,4.41.43,5.11,1.89-2.95.41-5.41-.44-7.25-2.79-3.1-1.96-1.13-7.41,2.17-8.25,2.77-10.87,4.52-20.86,4.15-32.06-.15-4.49-.53-15.23-1.75-18.85-.76-2.26-3.48-2.27-5.55-2.18l-.83-.91c-.98-1.23,6.52-1.64,8.78-1.96Z"/>
      <path class="cls-97" d="M383.96,208.84c-5.92,7.01-15.34,11.54-24.97,12.11-1.9.11-2.95.35-2.92,2.04-1.26-1.98-1.98-4.55-1.29-6.91,4.19-.59,25.42-5.61,29.18-7.23Z"/>
      <path class="cls-66" d="M158.05,282.94c-1.31,4.4-11.79-.11-12.81-1.27s-9.82-13.05-10.32-8.95c-.61-1.69-5.75-1.92-3.74-5.82,8.03,2.85,15.47,7.23,21.02,13.85,1.62,1.94,3.68,2.86,5.84,2.18Z"/>
      <path class="cls-63" d="M386.97,340.97c-.4-.27-1.84-.02-1.91,1.1-.72,11.87-3.08,22.96-6.05,34.55-2.11-.45-1.78-2.23-1.34-3.87,1.95-7.21,2.81-14.03,3.55-20.84s3.52-12.59,2.67-19.88c.31-.33.93-.36,1.03-.13-.41,4.06.74,5.88,2.04,9.07Z"/>
      <path class="cls-36" d="M381.91,269.01c.03-.99.46-2.3-1.03-3.2-4.97,5.85-12.26,19.8-19.65,16.86,17.23-20.32,26.39-19.8,20.68-13.66Z"/>
      <path class="cls-93" d="M364.91,320.99c.33-1.02.49-2.21,1.15-2.69,3.2-2.31,7.12,1.87,10.06.25-2.12-2.52-5.14-.94-8.42-2.79,1.9-10.88,1.17-21.55,1.31-32.06h1s.43,24.22.43,24.22c.8,3.65,6.14,6.62,6.24,10.8.1,4.01-8.9-2.8-11.77,2.27Z"/>
      <path class="cls-45" d="M149.08,318.11c-3.32-.07-3.71,5.03-6.37,3.76-2.5-1.2,3.84-14.88,2.26-20.96,1.57,4.6,1.33,9.59,2.28,14.86.21,1.2,1.61,1.65,1.84,2.34Z"/>
      <g>
        <path class="cls-57" d="M357.98,312.06c2.54,2.03,2.62,8.43-1.02,8.88-.66,2.47-.31,4.34,1.05,5.61-2.8,3.63-3.97,8.12-4.93,12.51-.45,5.11-3.57,9.96-5.08,14.84-12.57,34.37-44.22,63.08-74.67,83.41-5.6,3.74-12.44,6.06-19,3.61-24.05-8.98-44.9-26.41-62.43-44.97-5.59-7.22-12.42-13.62-16.5-22.4l-3.77-8.13c-3.83-8.26-10.61-35.92-11.71-36.68-2.29-2.19.14-5.45,2.27-2.56l2.43.23c4.9,17.19,12.03,33.84,22.33,49.05,9.19,13.57,34.75,31.63,49.19,40.89,4.64,2.98,20.65,13.14,25.63,11.89,20.34-14.47,40.62-30.47,58.61-48.71,19.16-19.43,27.55-41.55,33.14-67.87l2.74-2.8c.33-1.98,1.11-2.72,2.35-2.22l-.63,5.41Z"/>
        <path class="cls-110" d="M347.81,280.28l1.32-.49c.87,1.86,2.85,2.95,5.93,3.28,1.56.22,3.28,2.29,4.89,1.13,4.45-1.97,5.43.27,2.94,6.72l-1.39,13.72c.11,4.29-1.07,6.76-3.52,7.42l-.04-4.18c-1.07.09-1.2.74-1.69.99l-1.81-1.77,1.7-10.18c1.02-4.36.3-7.66-2.15-9.92-26.6-4.69-52.87-11.63-78.81-20.82-19.64-3.02-38.35,2.81-56.72,9.37-19.72,4.85-39.46,8.81-59.23,11.91-.7,12.03.82,24.11,4.56,36.23l-1.61,2.5c-.64.03-1.38.14-1.87.71-.39.46-.45,1.21-.4,1.84-1.13-.78-2.02-1.82-2.91-2.74.3-1.26-.63-1.91-2.78-1.96-2.16-1.62-4.24-3.21-5.14-5.94-3.08,1.42-3.84-.89-4.01-3.93.65-4.47.61-8.89-.11-13.27-2.06-6.04-.66-13.31-3.41-19.52-1.51-3.41-5.41-5.29-6.63-8.66-2.01-4.94,3.81-1.07,6.28,1.04,3.7,5.05,10.18,11.84,16.85,9.18,1.73-.31,3.46-.71,5.14-1.23.87-.27,1.65-.81,2.59-.89l5.69-2.55c23.67-2.76,47.58-8.43,69.45-17.2l4.71-10.21c2.11-3,3.56-3.32,4.86.42l-2.89,8.93c7.25-1.03,14.55-1.46,21.89-1.32-.08-8.78,4.02-4.96,6.54.34,22.22,9.64,46.28,14.63,70.07,19.39l1.72,1.65Z"/>
        <path class="cls-5" d="M381.91,269.01c-4.3,4.62-8.18,9.58-11.9,14.68-.28.88-.61.87-1,0l-1.15,1.26c.75,10.6.08,21.24-1.32,31.79-.14.38-3.76,5.87-4.44,6.68-4.79,5.74-6.05,4.12-5.13-2.49,1.11-2.39.18-6.19,1.02-8.88,3.06-9.8,1.47-24.75,5.29-27.29-1.32-.65-2.5-.53-3.33-.58l1.29-1.52c5.9-2.91,10.92-7.23,15.06-12.96,2.29-2.86,7.91-6.69,5.61-.7Z"/>
        <path class="cls-125" d="M157.01,326.01c-.62-.64-2.05-1.41-2.78-1.96.53.29.66-.31,1.28-.73-7.99-9.88-6.17-11.89-7.91-23.58-.73-4.93-2.36-9.37-1.47-14.67,2.84.52,5.24,1.6,7.95,3.04-.61,11.15,1.84,21.34,4.91,31.88.75,2.58.27,5.26-1.98,6.01Z"/>
        <path class="cls-110" d="M369.01,283.7c.61,10.17.92,20.33.93,30.46l-.66.93c2.62-1.82,9.32,2.37,5.78,4.39-5.12-1.96-8.5-1.46-10.14,1.51-1.39,4.26-7.4,5.97-8.89,10.05l-2.93,8.02c.06-4.13,1.39-6.97,2.96-11.24.77-2.09-.1-4.7.92-6.88.44,1.56-.48,3.6.85,5.12,10.5-6.55,9.64-29.63,9.19-39.7-.04-.95-2.96-1.6-1.53-2.38.88-.48,1.38-1.71,3.55-.28Z"/>
        <path class="cls-8" d="M356.26,308.87c-7.68,31.48-13.12,51.69-36.9,74.47-11.11,10.64-21.57,20.92-34.13,29.85-4.96,3.53-8.98,7.57-14.44,10.65-3.02,1.71-5.74,6.56-9.52,6.42-12.52-.45-40.37-22.04-51.19-30.33-8.49-6.51-17.13-12.74-23.54-21.58-8.72-12.04-14.91-25.5-20.19-39.41-1.7-4.49-1.79-9.05-4.16-12.74-2.05-13.16-7.74-27.24-4.65-39.64,1.53-2,5.87-2.37,8.44-2.73,21.06-2.96,41.52-6.12,61.57-13.34,15.65-5.64,31.54-8.64,48.09-6.23,11.42,3.85,22.15,8.56,33.97,11.11l44.31,9.56c8.2,1.77,2.78,17.77,2.35,23.96Z"/>
      </g>
      <path class="cls-64" d="M326.01,220.12c3.18,3.02-7.32,1.37-6.86,1.34,3.14-.21,10.39-.37,11.7,2.25.66.07,1.44.96,2.1,1.09,7.23,3.72,2.83,10.25-3.9,4.08-2.94-1.85-3.51-.96-1.7,2.69l-1.29,2.42c3.06.84,2.68,3.01-.02,4.01-.47,1.99-1.38,2.05-2.13.15-3.23-15.93-16.19-14.87-21.01-.09-3.95.44-5.51.88-6.23,5.62,1.99,3.12-.91,4.25-3.7,3.12-6.21-.13,6.68-18.15,8.04-19.86-1.18-1.23,7.5-4.95,7.21-4.59-.3.39-.99.05-1.24-.32,3.52-2.33,14.84-2.26,19.02-1.9Z"/>
      <path class="cls-9" d="M284.97,225.95l-13.15-.2-1.86,1.14,1.95,1.25c.22,1.75.99,3.37,2.31,4.87-.87.24-1.52,1.15-3.24,1.34.68.68,1.05,1.41,1.11,2.25-2.99-1.14-4.52-6.22-5.07-8.78-4.97-1.73-18.08-4.16-19.02,3.14.08,2.04-2.24,2.8-3.27,3.75-.47-1.45-1.83-1.77-2.82-2.72.18-1.75.6-1.86,1.89-1.98.4-.04-7.54-.83-7.88-.23-5.67-.78-10.77-3.51-16.01-6.74,10.51.05,20.02-.5,29.99.36,18.92,1.62,22.2-1.68,40.23-.32-1.71,1.58-3.32,2.38-5.17,2.87Z"/>
      <path class="cls-28" d="M214.35,236.95c.84.52.77.87-.21,1.04l-2.2.55c-5.26-5.92-11.2-3.8-15.27,2.55l-2.74-.02c.07-.97-.29-2.03-.02-3,.75-2.74.9-5.79,3.25-7.84,3.51-3.08,7.15-4.34,11.5-2.62,3.66,1.45,4.49,5.33,5.69,9.34Z"/>
      <path class="cls-128" d="M241.09,234.87c-1.58-.03-3.48.01-4.79.83.67,2.87,3.89,5.97,2.78,9.27-1.33,3.98-13.29,15.45-12.09,9.02.64-.78,1.67-1.24,2.1-2.23,2.79-1.4,7.4-3.78,7.44-7.82.04-3.49-2.51-7.49-4.05-10.32-.61-1.11-3.81-.17-3.53-1.7,2.13-.04,3.83,1.27,6.22,1.84,2.11.5,4.67-.59,5.91,1.1Z"/>
      <path class="cls-49" d="M281.14,228.79c-2.16,1.64-4.22,3.5-6.92,4.23-1.37.04-2.73-.3-3.47-1.35-.93-1.33-.89-3.46-.8-4.77-.02-2.03,9.92-1.89,11.14-1.29,2.58,1.27,2.77,1.45.04,3.18Z"/>
      <path class="cls-113" d="M284.97,225.95c-.23,2.16-2.64,1.93-3.83,2.84,2.99-3.33-9.42-1.28-11.19-1.89.05-.64-.56-2.4.71-2.59,2.15-.33,14.61-1.22,14.31,1.65Z"/>
      <path class="cls-58" d="M241.91,232.01c-2.31.58-4.15-1.8-5.99-2.22.03-.42-.68-1.24-.02-1.46,3.29-.34,6.01-.72,9.23-.1,1.28.25.57,2.81-.18,3.4-.85.66-2.16.17-3.05.39Z"/>
      <path class="cls-39" d="M216.26,237.09c3.68,3.11,1.69,11.84-3.39,12.86l-4.87.1c-.75-.94.26-1.64,3.03-2.08-.63-2.66.41-8.56,3.11-9.97.04-.31.3-.75.21-1.04.47-.46,1.02-.82,1.62-1.09,0,.41.31.82.28,1.23Z"/>
      <path class="cls-122" d="M301.02,226.93c-.4-1.25-2.05-.58-3.04-.7,2.63-2.35,6.12-2.3,9.02-4.22.44.04.96-.23,1.5-.03.81.3.6.89-.66.87-2.03,1.68-4.87,3.18-6.81,4.07Z"/>
      <path class="cls-96" d="M222.23,230.03c-1.18.13-3.7-.08-3.3,1.68-1.29-.85-2.48-1.72-3.49-3.29,2.66-.57,4.93.18,6.78,1.61Z"/>
      <path class="cls-24" d="M323.91,238.14l-2.64.19c-4.34-8.55-11.33-6.23-16.19.18l-2.18-.47c.89-2.47.51-5.67,1.94-8.12,3.03-5.19,9.03-6.39,13.99-4.22,4.72,2.08,5.84,7.51,5.08,12.43Z"/>
      <path class="cls-106" d="M326.03,237.99c-.41-1.17.53-2.93.02-4.01.09-1.68,1.23-2.21,2.47-2.13,1.4.09,2.92.27,2.57,2.25-.59,3.44-1.74,6.92-5.57,9.07-.43-1.92,1.11-3.45.51-5.19Z"/>
      <path class="cls-25" d="M214.14,237.99c-.41,3.53-.23,7.56-3.11,9.97-5.1.61-10.07-.64-15.17-.92-1.51-1.63-2.07-3.78-1.93-5.97,3.51-3.36,5.22-8.07,11.54-8.05,3.42.01,6.36,2.3,8.66,4.97Z"/>
      <g>
        <path class="cls-84" d="M193.91,238.07c1.19.27,1.2,1.27.02,3,2.31.57,3.62,4.19,1.93,5.97.08,1.01-.56,1.28-1.94.81-1.35-.68-10.66-.94-9.92-16.03-3.48.25-2.22,2.27-2.5,3.91-2.06-.05-1.64-2.1-2-3.21-.66-2.04.91-2.39,1.7-3.51.15,1.61,1.69,2.34,3.1,3.47,2.96-4.6,8.65-6.82,14.52-6.09-2.66,2.32-8.18,10.01-4.9,11.68Z"/>
        <path class="cls-47" d="M191.43,244.12c-3.12-1.71-4.82-6.16-4.85-9.79.69-1.88,4.17-2.45,6.12-2.11-1.55,3.64-.04,6.73-1.26,11.9Z"/>
      </g>
      <path class="cls-53" d="M323.91,238.14c-.3,1.91-.74,5.69-2.79,6.84-3.8,1.76-9.39,1.63-13.62.58-3.55-.88-3.35-5.26-4.61-7.51,3.45-4.5,8.6-9.21,14.7-6.58,3.05,1.32,4.05,4.93,6.31,6.67Z"/>
      <g>
        <path class="cls-109" d="M186.93,226.02c-2,1.01-4.31.98-5.74,3-.12,2.04,1.42,3.12,4.62,3.25-.33,4.83,1.04,8.77,4.11,11.8,2.58.8,3.91,2.06,4,3.78l13.25,1.24.83.96c2.78-1.54,4.4-1.58,4.87-.1,3.28-3.13,5.24-3.89,9.18-1.17,1.14-1.64,2.44-2.94,3.9-3.9-1.13-.64-1.87-2.05-2.22-4.23-1.53-1.61-2.11-3.18-1.75-4.7-1.26-.94-1.68-3.32-3.05-4.23-2.87-2.65.62-2.76,3.3-1.68.58.45,2.03.82,2.74.76,6.9,3.21,10.1,15.76,4.12,20.97,1.96,1.39-.35,3.39-2.1,2.23.61,7.11,11.07-3.79,13.26-7.23.3-3.45-.4-7.08-2.12-10.91,2.25-.09,4.45-.47,6.59-1.13-.68-1.54,1.86-3.39,3.27-3.75.34-1.87,1.12-3.29,2.34-4.26,1.17-.69,13.5-.35,16.02-.18.25.02.46.58.66,1.3l1.43.3,3.63,8.48c.59.23,1.34-.27,1.82-.56,5.3-2.19,5.65.75,1.07,8.83,1.12,1.91,2.4,3.56,3.83,4.95,2.12-1.17,8.09,3.55,8.16,5.99,1.35.54,2.66-.35,2.57-1.2-8.47-6.97-6.72-20.27,2.41-25.79,1.73-.8,4.61-1.34,6.02-2.6,3.11-1.44,4.12-1.2,3.04.7l1.08,1.89c-5.35,5.36-8.39,11.35-9.13,17.97,1.45.65,3.31.78,3.47-1.25,6.54.44,13.1.98,19.67,1.62,2.4-.71,4.39-.76,5.96-.17-.06-1.01.4-1.82,1.38-2.44,5.02-.61,7.95-4.11,8.79-10.53,5.09-4.3,5.33-7.37.7-9.21-1.6,1.67-2.61,1.18-2.1-1.09-2.14-.31-3.06-1.37-1.24-2.55,1.23-.79,20.77-2.44,21.91-1.84,1.39.73,2.16,14.39,2.26,16.87.52,12.01-.58,24.12-3.81,35.83-.34,2.53-2.29,5.49-2.17,8.25-2.06.79-4.27.04-6.65-.49l-32.72-7.26-28.71-9.18c-4.4-1.41-6.91-3.25-7.99-8.69-1.53,2.04.83,3.17.63,5.96-10.39,1.24-16.37-.75-27.19,2.24-5.71,9.98,9.57-25.54.81-8.39-5.08,9.94-.95,7.56-10.65,10.94-22.84,7.96-45.88,13.42-69.55,15.4-2.48-9.78-4.16-20.11-3.36-30.59s.76-20.56,2.87-31.14l21.08,2.55c1.99.24,3.42,1.58,5.72.72-2.17.73-3.4,2.78-5.15,3.67Z"/>
        <g>
          <path class="cls-122" d="M346,218.04c1.76-.23,3.43.12,6,.1,5.51,19.94,6.62,35.24-2.02,53.9-.47-6.32,1.53-12.51,1.62-19.3l.39-31.75c-3.6-2.02-7.2-.7-11.04-.12-1.98.3-13.33-.23-10.09,2.85-3.95-.25-7.54-1.46-11.7-2.25,3.2-1,6.06,1.14,6.86-1.34,6.74.58,13.34-1.23,19.99-2.08Z"/>
          <path class="cls-96" d="M291.96,228.83c-3.5,4.02-5.09,8.73-5.84,14.53-.73,5.59,2.94,9.59,7.57,13.78-2.6,1.6-5.04-.09-6.72-1.32.17-.65.26-1.2.03-1.43-1.62-1.55-7.63-6.81-8.19-4.57-2.44-.53-4.67-2.15-5.73-4.9.88-3,2.27-5.38,4.11-8.02-1.03-.99-2.25-.73-3.28-.86,5.55-3.34,12.16-4.5,18.05-7.22Z"/>
          <path class="cls-96" d="M228.96,231.93c4.13.87,6.3,2.48,6.52,4.84,4.06,7.62,2.85,10.31-4.36,15.58-.73.53-1.44.2-2.03-.58,2.45-7.06.48-15.17-4.12-20.97,1.39-.12,2.71,1.16,3.99,1.14Z"/>
          <path class="cls-79" d="M241.09,234.87c1.22.03,2.48-1.1,3.64-.14-1.37,1.26-2.84,1.97-5.72,1.72.59,3.34,5.1,7.81,2.69,11.44-3.8,5.75-11.3,9.38-17.88,12.62-1.31-3.13,1.77-4.81,3.18-6.52,3.31-.5,6.35-2.54,9.1-6.12,2.52-3.66,2.07-7.88-1.36-12.66,1.88-.9,4.34-1.13,6.35-.35Z"/>
          <path class="cls-80" d="M221.98,235.94c2.88,2.13,3.77,5.46,3.98,8.93-1.84,4.73-4.48-.14-5.46-2.97-2.47-1.23-3.88-2.84-4.24-4.82-.92-.21-1.01-.62-.28-1.23.11-.78-.35-1.6.4-2.97.82.92,4.54,5.29,5.6,4.23.25-.26-.09-1,0-1.18Z"/>
          <path class="cls-55" d="M302.9,238.05c1.94-.28,3.11,1.06,3.51,4.05,1.51,1.84,3.96,2.58,7.36,2.24,3.18-.81,5.63-.59,7.36.65,1.57-.08,1.78.69.95,1.99-7.65,2.54-16.27.06-24.65.45-1.78.08-3.77,1.29-4.45-.64,8.77-1.38-5.25,1.1,7.04-12.58-.24,2.28,1.98,2.92,2.88,3.84Z"/>
          <path class="cls-81" d="M332.95,224.8c.76.14,2.52-.22,3.2,1.04.97,1.79,1.39,6.12-.43,7.54-9.85,7.72,2.58,8.2-13.66,13.59-.96-.15-1.1-1.18-.95-1.99-.88-2.22.07-6.67,2.79-6.84.71-.01,1.42-.07,2.13-.15,3.49.3,4.38-5.67.02-4.01l-2.84-8.34c4.7-.22,7.63,1.72,11.06,4.35.9.45,2.29-1,1.67-2.07-.74-1.27-2.68-1.7-3-3.12Z"/>
          <path class="cls-115" d="M267.59,256.43c1.81,3.6-7.3,4.37-11.67,2.55-2.36-.99-3.12-3.56-2.74-5.29.52-2.4,3-4.27,5.73-3.5,3.38.95,6.99,2.86,8.69,6.25Z"/>
          <path class="cls-127" d="M225.96,244.87c.14,2.27-.39,3.38-2.35,5.14s-2.96-.29-5.42-.87c-1.7-.41-3.83.78-5.31.81,3.34-3.3,3.05-8.35,3.39-12.86,11.03,4.3,4.19,8.57,9.7,7.78Z"/>
          <path class="cls-131" d="M286.97,255.82l-8.16-5.99c-3.9-2.87,1.32-14.3,3.59-14.87.85,4.7-3.1,7.58-2.76,12.02.93,1.44,13.9,9.08,7.33,8.84Z"/>
          <path class="cls-20" d="M267.02,227.83l-16.92.16c-1.02.72-1.26,2.53-2.1,2.98-.06-1.51.37-5.24,2.28-5.59,5.46-1,11.02-.29,16.46-.14.77.39.16,2.05.27,2.59Z"/>
          <path class="cls-137" d="M211.03,247.97c-.93.78-2.19,1.17-3.03,2.08-5.22.11-9.7,0-14.08-2.2.69-.16,1.36-.39,1.94-.81l1.97-1.86,11.31.92,1.88,1.86Z"/>
        </g>
      </g>
    </g>
    <g>
      <path class="cls-21" d="M186,134.9c2.78.05,2.66,1.32,0,2.09-.78.19-2.14-.83-3.01.99l89.96-.02c2.45,0,4.5-.36,6.35-1.96,8.02.29,50.67-1.89,53.8,2.12l-.6,2.09-8.66,1.09c-3.33,2.13-2.42,40.51-1.44,45.62l2.74,16.38-1.32,3.39c-1.46,1.25-8.54,1.56-9.79.45-.8-.71-1.45-20.41-1-21.38,1.07-2.35,1.8-3.05,4.06-4.26-.96-1.51.78-1.21.93-.54.23,1-10.8,5.91-11.97-2.81-.25-1.87-.21-2.73,1.92-3.27.07-.91.39-.87.92-.01,3.57,0,6.85-.37,9.83-1.11-1.24-.73-2.92-1.14-5.04-1.22-5.34.73-10.61.9-16.02,1.03-.99.02-1.43-.3-1.49-1.53l-1.01-.25c4.6-8.13,7.38-24.23,7.61-32.58q2.7-.93,0,0l-81.59.16c-7.88,2.93-16.51,2.98-24.37-.03l-18.95-.32c1.98-3.15,5.01-4.13,8.13-4.1Z"/>
      <path class="cls-99" d="M186,136.99v-2.09l40.02.37c5.19.05,10.17.63,15.02,1.4l-55.05.32Z"/>
      <path class="cls-21" d="M282,174.99c2.35-.88,24.45-2.41,25.32-1.46.32.35.51.82.67,1.33.1,1.96-.44,4.54,1.66,5.91,3.64,2.38,8.31-2.96,8.81-1.53l.85,2.47c.79,2.28-3.64,1.6-4.42,4.24.62-2.12.99,19.23.89,21.08,3.15.38,5.64-.29,8.07-.35,1.39-.03,2.81.43,4.21.25-5.82,1.86-12.08,1.27-18.7,1.52l-31.71,1.17c-17.82.66-35.54,1.06-52.73-.58l50.72-.11c4.49-5.08,7.86-10.22,10.26-15.88.96-2.39,1.67-4.72,2.12-7.01-1.91-2.04-.44-3.86,2.18-4.12.43-1.77.58-3.03.43-3.77l-9.59-.06-2.02-1.83c-3.3-2.33,1.66-4.44,2.99-1.26Z"/>
      <path class="cls-4" d="M221.2,139.36c1.22,1.62-.8,3.46-1.38,5.46-2.61,8.89-3.49,17.61-5.55,26.75l-15.78-1.01c-1.2-8.38-4.26-24.72-1.65-31.24,8.12.14,16.27.05,24.37.03Z"/>
      <g>
        <path class="cls-19" d="M196.83,139.33l1.59,1.54c-1.14,4.26.15,25.55,1.89,27.81.38.49,12.22,1.24,12.44.66,1.48-8.43,3-16.83,5.17-25.12.48-1.84,1.67-3.83,3.28-4.85l.17-.7c26.76.15,53.49-.26,80.2-1.21l1.21,1.75c2.14,1.88,2.5,5.11,1.08,9.67-2.46,10.79-3.69,16.18-3.69,16.18-.69,4.15-2.35,6.39-5,6.73-5.81.78-11.57,1.22-17.27,1.33-.89-5.25-1.36-10.58-1.39-15.99l-.45,13.61c-.03,2.07-1.28,2.58-2.91,3.22-1.38.55-28.39.69-29.71.01-1.41-.73-2.16-1.2-2.3-2.99.08-6.48-.12-12.84-.61-19.09-.64,6.44-.96,13.01-.98,19.71l-1.23,2.68s-12.01-.44-36.03-1.33l-.08,1.05c-.88,4.04-.79,8.34.26,12.91.29,2.31,1.81,13.85,3.49,14.07,3.1.4,6.26-21.91,5.74-23.01-2.28-.2-3.06-1.06-1.8-3.13.17-.72.36-1.28.56-1.29,9.03-.43,19.86.72,28.65,2.23.06,1.6,1.38,1.31,3.98-.87,1.52-.61,31.52-.47,32.71.66.67.63,1.05,1.41,1.2,2.31-1.01,3.47-.8,5.48.6,6.04,4.36-.64,6.78.33,7.27,2.89-2.03,2.51-1.97,3.91.16,4.18,2.25-.83,1.9.22.86,2.06,1.54,5.67-4.76,14.1-10.04,16.26-16.9.33-34.03.51-50.94-.26-7.88-.75-40.6-1.21-45.49-6.43s-5.08-13.16-6.26-19.55c-1.38-9.12-1.93-18.1.16-27.63,1.25-5.71,1.59-11.71,4.56-16.43,1.77-1.13,4.45-2.79,5.4-.47,4.75-.25,9.27,0,13.56.79Z"/>
        <g>
          <path class="cls-17" d="M295.18,171.78c.33-.02.68.23,1.01.25l.55,1.29c-5.13.2-10.05.76-14.74,1.68-.93-.08-2.93-.14-2.99,1.26,1.43.54,2.16,1.23,1.95,2.67l8.11.7,1.11,2.3c-.27,1.59-1.22,2.86-2.18,4.12,1.15,1.61-1.08,4.57-2.97,4.95-5.1,2.82-7.92,8.96-14.75,10.14l13.44-15.06c-3.56-.57-7.36.97-8.98-1.86-1.12-1.96.93-4.55.12-7.26l-32.45-.05c-.88,2.58.44,5.45-1.15,7.2-1.33,1.46-4.25,1.04-5.4,2.63,2.56,5.19,7.62,7.54,8.96,13.52-6.72-5.22-12.58-10.86-16.94-18.28,3.03-2.64,9.64.45,10.37-2.5.29-1.19.27-2.4-1.12-2.51l-27.23-2.14c-1.8,3.03-6.97,2.78-7.69-.85-3.65-1.65-15.43-.38-7.59-3.11,16.34,2.95,27.14-.2,42.89,2.08l.61-20c.05-1.65,1.05-3.03,2.43-3s2.32,1.28,2.35,3l.26,19.11,30.88-.14c.28-7.6.07-14.45,1.23-21.64.09-.53,2.17-.4,2.28.05,1.66,7.04,1.3,14.06,1.47,21.58,5.83-.01,11.04.2,16.17-.15Z"/>
          <path class="cls-3" d="M202.21,173.99c2.35,1.07,5.18.65,7.69.85.23,1.37,2.21.93,4.08,1.37l-3.13,21.63c-.42,2.87-3.71,5.18-6.35,5.95-3-3.43-5.54-28.52-5.28-29.1.37-.81,2.17-.47,3-.7Z"/>
          <path class="cls-108" d="M182.38,151.6c.88.41-.35,1.93-1.01,2.15-1.19.41-2.86-.19-3.08-1.85-.32-2.44-.9-8.12,2.19-7.9,5.18.36-5.11,4.32,1.9,7.6Z"/>
          <path class="cls-33" d="M183.68,192.95c.09,1.66-.9,2.48-.59,3.42.33,1,2.31.76,3.12,1.79,1,1.44-1.68,2.05-2.75,1.75-2.55-.73-3.5-3.98-2.38-6.36.46-.97,2.5-2.38,2.6-.6Z"/>
          <path class="cls-133" d="M181.66,171.8c.81.04.1,2.38-.62,2.85-.77.5-2.38.91-3.33-.46-1.76-2.53-1.4-7.83,1.92-7.84.21,1.88-.58,2.76-.51,4.09s.32,1.25,2.54,1.36Z"/>
        </g>
      </g>
      <path class="cls-83" d="M285.89,193.04c-.02-.77-.1-1.67-.86-2.06.42-1.93,1.8-3.4,2.97-4.95.36-.06,1.95.08,1.76.95-.59,2.74-2.47,4.39-3.88,6.06Z"/>
      <path class="cls-111" d="M318.74,173.75l-.74,1.02c-3.06-.44-6.09-.41-9.09.09-.3-.04-.62,0-.92.01l-25.99.13c-.49-4.47,11.5-.05,14.19-2.97,5.09.99,19.63-2.3,22.2-.06.39.34.16,1.15.35,1.78Z"/>
      <path class="cls-21" d="M318.74,173.75c.22.72.69,1.75-.25,2.25,1.35-.71-10.53-1.25-9.58-1.14,2.88-1.95,6.58-.29,9.83-1.11Z"/>
      <path class="cls-8" d="M302.79,139.2c.06-2.21,10.42-1.25,10.31-.58-3.81.44-7.1.57-10.31.58Z"/>
      <g>
        <path class="cls-86" d="M333.11,138.12c10.82,13.85,5.44,33.71,5.78,48.99-4.09,7.33,2.29,15.62-10.85,19.82-1.67.51-3.07.42-4.21-.25-2.36-10.91-4.56-21.93-3.66-33.58-2.39-6.05.31-26.36,1.48-33.54l11.45-1.44Z"/>
        <path class="cls-92" d="M329.21,176.34c-.83-2.78,2.25-2.11,2.69-3.88.59-2.35-3.97-1.05-2.19-3.45.72-.97,1.65-1.26,2.6-.13,1.93,2.31,1.81,6.59-1.19,8.01-.91.43-1.8-.19-1.91-.55Z"/>
        <path class="cls-10" d="M328.45,199.18c-.46-.79,2.03-1.38,2.36-2.01.35-.66-.41-2.4-.44-3.56,2.06-1.32,3.27,1.65,3.01,3.62s-3.05,5.15-4.93,1.95Z"/>
        <path class="cls-13" d="M329.58,149.19c-.85-.79.72-2.97.57-3.7-.17-.84-1.55-1.59-2-2.75,1.65-1.77,3.88.17,4.53,2.02.6,1.7-1.24,5.58-3.1,4.43Z"/>
      </g>
      <path class="cls-67" d="M290.18,181.92c-3.42-.93-6.97-.68-10.86-1.13-.56-1.74-.36-3.2-.31-4.54,4.75-.54,9.36-.03,14.83-.08-.27,2.67-1.37,5.08-3.66,5.75Z"/>
    </g>
  </g>
</svg>