<?xml version="1.0" encoding="UTF-8"?>
<svg id="Layer_1" data-name="Layer 1" xmlns="http://www.w3.org/2000/svg" xmlns:xlink="http://www.w3.org/1999/xlink" viewBox="0 0 512 512">
  <defs>
    <style>
      .cls-1 {
        fill: #2c2c31;
      }

      .cls-2 {
        fill: #535458;
      }

      .cls-3 {
        fill: #1f1e2c;
      }

      .cls-4 {
        fill: #ba905c;
      }

      .cls-5 {
        fill: #191b28;
      }

      .cls-6 {
        fill: #2b2b31;
      }

      .cls-7 {
        fill: #dedfe2;
      }

      .cls-8 {
        fill: #dadde5;
      }

      .cls-9 {
        fill: #2d2e3a;
      }

      .cls-10 {
        fill: #afaebf;
      }

      .cls-11 {
        fill: #2e1416;
      }

      .cls-12 {
        fill: #222230;
      }

      .cls-13 {
        fill: #181827;
      }

      .cls-14 {
        fill: #1b191e;
      }

      .cls-15 {
        fill: #3d3c4b;
      }

      .cls-16 {
        fill: #2d2c3a;
      }

      .cls-17 {
        fill: #e2e3e9;
      }

      .cls-18 {
        fill: #b9becc;
      }

      .cls-19 {
        fill: #9c9baa;
      }

      .cls-20 {
        fill: #4d3318;
      }

      .cls-21 {
        fill: #b98f5c;
      }

      .cls-22 {
        fill: #331516;
      }

      .cls-23 {
        fill: #161720;
      }

      .cls-24 {
        fill: #bfc0ce;
      }

      .cls-25 {
        fill: #16161b;
      }

      .cls-26 {
        fill: #7b5c41;
      }

      .cls-27 {
        fill: #1e1116;
      }

      .cls-28 {
        fill: #4c4b5a;
      }

      .cls-29 {
        fill: #1a1b23;
      }

      .cls-30 {
        fill: #353e56;
      }

      .cls-31 {
        fill: #9493a4;
      }

      .cls-32 {
        fill: #775a3b;
      }

      .cls-33 {
        fill: #17171c;
      }

      .cls-34 {
        fill: #121318;
      }

      .cls-35 {
        fill: #7b6043;
      }

      .cls-36 {
        fill: #0e0e14;
      }

      .cls-37 {
        fill: #17161f;
      }

      .cls-38 {
        fill: #dae0ec;
      }

      .cls-39 {
        fill: #54545d;
      }

      .cls-40 {
        fill: #161621;
      }

      .cls-41 {
        fill: #13141a;
      }

      .cls-42 {
        fill: #363f57;
      }

      .cls-43 {
        fill: #353e58;
      }

      .cls-44 {
        fill: #755f46;
      }

      .cls-45 {
        fill: #b0afbe;
      }

      .cls-46 {
        fill: #1f1f2b;
      }

      .cls-47 {
        fill: #9b9eab;
      }

      .cls-48 {
        fill: #191a26;
      }

      .cls-49 {
        fill: #dddee2;
      }

      .cls-50 {
        fill: #101010;
      }

      .cls-51 {
        fill: #b8becb;
      }

      .cls-52 {
        fill: #d2d7e2;
      }

      .cls-53 {
        fill: #14141d;
      }

      .cls-54 {
        fill: #bb915e;
      }

      .cls-55 {
        fill: #3c3d4a;
      }

      .cls-56 {
        fill: #14141b;
      }

      .cls-57 {
        fill: #8e8e98;
      }

      .cls-58 {
        fill: #e0e4e8;
      }

      .cls-59 {
        fill: #9896a4;
      }

      .cls-60 {
        fill: #1c1f2b;
      }

      .cls-61 {
        fill: #9898a7;
      }

      .cls-62 {
        fill: #9295a5;
      }

      .cls-63 {
        fill: #20212f;
      }

      .cls-64 {
        fill: #272733;
      }

      .cls-65 {
        fill: #333643;
      }

      .cls-66 {
        fill: #b6986c;
      }

      .cls-67 {
        fill: #2a2a36;
      }

      .cls-68 {
        fill: #9999a8;
      }

      .cls-69 {
        fill: #ba9366;
      }

      .cls-70 {
        fill: #9b99aa;
      }

      .cls-71 {
        fill: #785d3e;
      }

      .cls-72 {
        fill: #171928;
      }

      .cls-73 {
        fill: #785e40;
      }

      .cls-74 {
        fill: #1f1f29;
      }

      .cls-75 {
        fill: #5e5e6a;
      }

      .cls-76 {
        fill: #7a6047;
      }

      .cls-77 {
        fill: #2c2d32;
      }

      .cls-78 {
        fill: #494857;
      }

      .cls-79 {
        fill: #3b3f4c;
      }

      .cls-80 {
        fill: #301f10;
      }

      .cls-81 {
        fill: #b6a38b;
      }

      .cls-82 {
        fill: #52525c;
      }

      .cls-83 {
        fill: #ba905d;
      }

      .cls-84 {
        fill: #9193a2;
      }

      .cls-85 {
        fill: #aaaab6;
      }

      .cls-86 {
        fill: #3a3a43;
      }

      .cls-87 {
        fill: #7a7a81;
      }

      .cls-88 {
        fill: #b9a185;
      }

      .cls-89 {
        fill: #9d403f;
      }

      .cls-90 {
        fill: #cdcdd6;
      }

      .cls-91 {
        fill: #c1c2cc;
      }

      .cls-92 {
        fill: #796349;
      }

      .cls-93 {
        fill: #e2e6eb;
      }

      .cls-94 {
        fill: #b49b7e;
      }

      .cls-95 {
        fill: #b9905e;
      }

      .cls-96 {
        fill: #bcbfcd;
      }

      .cls-97 {
        fill: #72614a;
      }

      .cls-98 {
        fill: #16171c;
      }

      .cls-99 {
        fill: #141519;
      }

      .cls-100 {
        fill: #646470;
      }

      .cls-101 {
        fill: #353f53;
      }

      .cls-102 {
        fill: #2a2d3a;
      }

      .cls-103 {
        fill: #b59670;
      }

      .cls-104 {
        fill: #dbdee5;
      }

      .cls-105 {
        fill: #292218;
      }

      .cls-106 {
        fill: #464451;
      }

      .cls-107 {
        fill: #2d2c31;
      }

      .cls-108 {
        fill: #14161e;
      }

      .cls-109 {
        fill: #9298a2;
      }

      .cls-110 {
        fill: #1f1f2c;
      }

      .cls-111 {
        fill: #1c1918;
      }

      .cls-112 {
        fill: #141316;
      }

      .cls-113 {
        fill: #2d2f41;
      }

      .cls-114 {
        fill: #4f515d;
      }

      .cls-115 {
        fill: #1b1b28;
      }

      .cls-116 {
        fill: #353642;
      }

      .cls-117 {
        fill: #24242e;
      }

      .cls-118 {
        fill: #131316;
      }

      .cls-119 {
        fill: #21212d;
      }

      .cls-120 {
        fill: #24262f;
      }

      .cls-121 {
        fill: #2c2f3b;
      }

      .cls-122 {
        fill: #434250;
      }

      .cls-123 {
        fill: #ba9f84;
      }

      .cls-124 {
        fill: #313442;
      }

      .cls-125 {
        fill: #2b2b37;
      }

      .cls-126 {
        fill: #181517;
      }

      .cls-127 {
        fill: #2e333e;
      }

      .cls-128 {
        fill: #181821;
      }

      .cls-129 {
        fill: #15141a;
      }

      .cls-130 {
        fill: url(#linear-gradient);
      }

      .cls-131 {
        fill: #b89f83;
      }

      .cls-132 {
        fill: #44484d;
      }

      .cls-133 {
        fill: #383846;
      }

      .cls-134 {
        fill: #bba182;
      }

      .cls-135 {
        fill: #242734;
      }

      .cls-136 {
        fill: #dbdbe6;
      }

      .cls-137 {
        fill: #201f29;
      }

      .cls-138 {
        fill: #bda484;
      }

      .cls-139 {
        fill: #bb9e80;
      }

      .cls-140 {
        fill: #373e50;
      }
    </style>
    <linearGradient id="linear-gradient" x1="88.84" y1="84.17" x2="95.93" y2="424.09" gradientUnits="userSpaceOnUse">
      <stop offset="0" stop-color="#2c2c3d"/>
      <stop offset=".02" stop-color="#272635"/>
      <stop offset=".05" stop-color="#3c3a4f"/>
      <stop offset=".09" stop-color="#2b2a3a"/>
      <stop offset=".75" stop-color="#191516"/>
      <stop offset="1" stop-color="#1b191b"/>
    </linearGradient>
  </defs>
  <path class="cls-89" d="M158,384c.52,1.22,1.12,1.96,2.05,2.86,23.4,42.04,48.53,83.01,75.38,122.92.06,1.16-1.45,1.9-4.51,2.22h-3.91v-1c-3.94-.46-7.81-1.21-11.58-2.25-9.39-13.23-19.14-26.97-27.87-40.87-2.85-4.54-6.47-10.38-7.73-15.09l-1.86-1.58-38.22-67.32c-2.13-2.47-3.37-5.11-3.71-7.94-.78-1.37-2.85-4.7-1.21-6.13,2.71-2.36,6.74-4.69,10.18-5.66s4.51,4.06,5.62,6.13c2.64,4.93,5.39,9.03,7.38,13.7Z"/>
  <path class="cls-27" d="M179.81,452.79l37.45,55.83c3.47,1.7,7.14.29,9.74,2.38-8.79.04-17.49-2.36-26.08-4.19.7-1.14,2.12-.13,4.39-1.2-5.47-7.13-8.95-14.98-12.86-23.05l-14.26-29.49c-.43-.69.2-1.31.74-.76.27.28.64.34.87.49Z"/>
  <g>
    <path class="cls-126" d="M402.88,467.01c-2.54,1.74-4.92,3.93-7.87,4.92l-1.74-1.4c-29.84,7.55-59.87,19.22-86.35,34.77l1.15,2.44-17.18,3.23c-2.19.41-4.53-.65-5.89,1.02h-30.33c.25-1.56,1.46-2.41,2.96-3.57,12.08-9.37,24.89-17.85,39.39-23.21,4.85-1.79,9.46-2.67,14.13-4.99.1-.05,33.21-7.76,36.78-7.14.37,1.41-.76,2.34.3,3.63,1.01-1.29,1.5-2.55,2.4-4.34,3.44-.52,6.82-.29,9.99,1.25-.03-3.05,15.73-5.07,17.61-3.54,4.34-3.47,21.7-8.38,24.65-3.1Z"/>
    <g>
      <path class="cls-6" d="M512,247v38c-.89,31.77-11.68,63.09-26.29,91.13-16.99,32.61-45.91,68.88-76.86,89.12-.83.54-1.79.87-2.79,1.16s-2.1.47-3.19.59c-1.37.87-2.5.6-3.4-.82-7.31-.13-14.31,2.5-21.01,5.29-6.54-.5-12.32.75-17.34,3.75-5.68-2.05-9.3-1.38-10.85,2.02-1.97,1.22-3.68.56-5.12-1.99-31.19,4.69-61.9,13.9-86.92,35.19l-3.57,1.54h-9.67c-3.47-.23-6.97-.64-10.49-1.25l.44-1.54c-26.58-39.63-51.33-80.62-74.91-122.35-2.98.99-3.94-.35-2.05-2.86-1.9-6.56-5.47-13.49-10.72-20.79-.17-.45-.12-.96.04-1.48.77-2.47,16.61-9.47,19.7-10.72,5.68-2.54,11.14-4.51,17.15-5.61,1.05-.19,1.76-.79,2.09-1.77-3.24-2.2-11.01-10.92-9.35-14.39.99-2.05,2.44-1.83,4.27-.62,4.59,9.66,9.57,12.17,14.95,7.54l7.11-2.53,1.79,1.36c8.43-3.27,17.49-7.39,27.18-12.36l23.39-10.58c13.88-7.46,28.02-14.14,42.4-20.05,6.33-2.83,12.81-5.67,19.44-8.53,7.99-2.48,15.7-5.72,23.13-9.74,7.92-1.77,15.77-4.16,23.54-7.16,5.31-2.21,10.6-3.4,15.88-3.57,2.86-1.02,5.27-2.53,7.21-4.54,6.24-.83,12.54-2.06,18.89-3.71,2.63-1.4,5.32-2.8,8.05-4.19,13.12-3.48,92.06-21.75,96.36-19.35.42.23.73.63.94,1.1l.57,14.69Z"/>
      <path class="cls-11" d="M245,512h-14.09l3.84-2.1c-9.88-11.6-16.27-23.96-24.07-36.68-15.34-24.97-31.05-48.96-44.87-74.78-2.21-4.13-4.8-7.44-5.76-11.58,6.18,6.02,8.78,15.21,13.71,23.21l32.45,52.67c1.41,2.28,3.01,3.63,4.05,6.33.03.08,23.87,40.8,27.49,42.08,1.72.9,6.53-1.64,7.25.86Z"/>
    </g>
    <path class="cls-1" d="M178.2,453.06l.78-.04c9.61,17.18,18.86,34.7,27.72,52.58-1.13,1.12-3.05,1.53-5.78,1.22-43.3-9.21-84.54-30.34-116.8-60.7-4.83-4.54-8.34-11.88-15.4-16.27,5.25-4.88,8.33-9.78,13.83-13.02,3.21-1.89,5.08-4.93,7.57-6.69,10.53-10.48,23.91-18.84,36.49-26.55.23-.14.65.04,1.13.32,2.17-1.68,4.98-2.75,7.43-3.85l1.19-.85c14.37,23.68,29.54,49.23,41.83,73.85Z"/>
    <path class="cls-107" d="M395.01,471.93c-26.23,18.13-56.44,29.7-86.94,35.81-2.82-1.36-5.15.16-8.11.4.58-3.17,3.47-3.47,5.69-4.63l25.49-13.34c10.44-5.46,21.1-9.27,32.38-12.7l30.57-9.28,5.88-.95c-1.22,2.19-5.06,2.02-4.95,4.68Z"/>
  </g>
  <g>
    <path class="cls-14" d="M457.8,98c30.03,37.13,54.2,81.83,54.2,129v20c0-4.21-1.97-8.85-1.13-14.14l-24.31,3.93c-10.95,1.77-21.3,4.55-32.28,6.62l-18.5,3.49c-10.34,1.95-19.9,5.62-29.68,7.85-1.82.8-3.15,1.28-2.08-.85-.41-1.92,1.16-3.18,4.7-3.76.54-.25,1.69-.79,1.89-1.25,1.02-2.32-12.46-20.8-14.72-23.89-1.37.61-2.63.62-3.79.05-1.7.75-2.2.37-1.07-1.22.31-2.17.31-4.31-.01-6.4-22.28-26.71-45.4-52.67-69.36-77.88-6.75-6.28-14.23-11.36-22.43-15.27l-.29-1.5-1.61,1.47-12.92-5.73-.47-2.4c.15-1.06.45-1.21,1.04-.49-4.69-1.42-9.7-1.47-15.02-.15l-1.06-.95c-2.87,1.31-4.19.74-3.96-1.69l1.29-2.4c8.99-2.21,20.3-2.69,27.78,2.53l2.21-.8c21.32,8.73,38.11,24.99,54.65,41.19l32.22,28.53c2.02,2.72,4.72,5.17,8.1,7.34,11.38,12.68,22.19,25.82,32.43,39.4l4.6,8.53c1.16-9.44-2.15-18.52-9.93-27.24-2.82-8.42,3.83-8.06,6.41-1.01,2.01-8.62,1.36-17.72.54-26.52-2.82-30.34-9.32-61.42-25.16-87.51l1.11-1.95-.1-1.1c1.1-3.08,2.47-2.18,4.62-.38,1.74,5.41,4.56,9.83,8.45,13.28-.15,3.77.74,5.7,2.7,5.78,8.08-.97,16.01-.87,23.78.29,1.75-2.6,3.94-4.7,6.56-6.28l10.93-1.17c-2.14-2.2-4.63-6.86-.31-5.37Z"/>
    <path class="cls-43" d="M248,0c5.4.89,11.56.86,17,0h7c.73,1.03-.2,1.6-2.8,1.73,3.92-.35,7.86-.59,11.8-.73,1.49-.11,2.89.29,4,1,6.26.31,13.08,3.44,8.22,11.65-22.27-.91-44.47.48-66.6,4.15-4.1-2.1-7.17-5.72-9.21-10.86-1.46-2.61.35-3.97,5.42-4.07,4.78-.17,6.5-.47,5.17-.87,1.05-1.11,2.57-1.13,4-1,2.27.95,6.47.5,8-1h8Z"/>
    <path class="cls-50" d="M265,0c.08.77-.91,1.02-1.95,1.02h-13.1c-1.04,0-2.02-.25-1.95-1.02h17Z"/>
    <path class="cls-5" d="M240,0c.42,1.58,2.4.44,4.85,1.46,3.54.68-15.78,1.14-12.85-.46,1.74.16,3.67.29,5-1h3Z"/>
    <path class="cls-5" d="M275,0c1.25,1.64,4.05,1.15,6,1,2.35,1.54-12.95,1.13-12.04.63,1.28-1,2.48-.75,3.04-1.63h3Z"/>
    <path class="cls-113" d="M401.18,92.94c4.8,7.02,15.2,29.77,17.35,39.4,4.08,18.34,14.22,65.02,6.85,81.11-2.93-2.91-2.94-6.53-6.06-8.7-.53,4.18,2.51,6.54,4.29,9.58,5.8,9.92,10.69,15.71,4.64,28.16-3.46-8.67-7.38-15.37-12.93-21.87l-12.94-15.16c-5.47-6.41-10.03-13.82-17.44-18.66-.7-.46-2.53,0-2.52-1.06,0-.42.32-1.52-.2-1.98l-31.38-27.76c-11.37-10.06-21.09-21.42-33.78-29.83l-9.68-6.42c-4.32-2.86-9.65-3.54-13.36-6.78-3.02-.81-4.49-2.14-4.41-3.99l-6.51-.78c-7.33,1.59-15.29-1.53-10.29-9.17l-1.15-.7c2.42-5.06,3.08-11.01,1.74-16.42-.05-.22-.57-.32-1.21-.39-1.73-12.1-4.58-24.42-9.19-36.01-2.99-7.5-5.86-11.97-11.44-17.57l-7.99.89c-2.62-2.72-3.71-2.49-3.27.69-16.62,3.83-33.03,8.19-49.23,13.1-6.31,3.18-12.63,6.4-18.95,9.66-2.36.86-4.5,2.13-6.65,3.42-3.69,2.22-29.34,18.13-29.61,19.9-.03.18.08.38.22.59.88.15.84.42-.04.8-1.51,3.1-4.07,5.68-7.69,7.75-2.1,2.72-4.51,4.24-7.23,4.57-.04,2.62-.46,2.82-2.11.82-7.08,3.48-10.97,10.88-13.45,17.82-.05.15-.56.13-1.2.07-1.98,13.16-1.42,26.49,1.66,39.99.92,7.94,3.44,15.3,7.54,22.07,2.75,2.98,6.42,2.95,10.99-.11l1.15,1c1.88,2.39,2.63,4.7,2.25,6.92l.75,1.19c-3.44,3.9-6.85,7.97-10.22,12.19-4.98,22.35,2.93,43.42,10.91,63.94,4.16,7.45,7.79,15.23,10.89,23.34l18.29,35.17c1.02,2.37.31,4.46-1.59,2.23-3.4-3.54-7.16-7.2-10.18-11.48l-9.74-13.82c-10.86-15.4-20.1-31.41-27.3-49.02-4.66-11.39-7.76-22.74-10.62-34.72-.72-3.03-.33-6.68-2.09-8.96-7-26.35-9.62-53.66-7.19-80.85-.11-6.08,1.47-12.13,4.75-18.14,7.97-10.6,16.39-20.8,25.23-30.6,4.45-1.99,8.67-5.9,11.21-10.06,16.59-12.92,36.32-23.82,56.28-31.36.48-.18.83-.71,1.15-1.34,6.53-1.41,13.07-2.82,19.62-4.22,22.76-5.46,47.38-7.19,71.04-8.45,17.66-.94,31.79,3.97,47.43,11.7,29.43,14.55,52.16,39.47,72.96,64.16l1.67,4.16Z"/>
    <path class="cls-42" d="M76.01,81.09c-.13-.32-.28-1.05-.75-1.07-3.62-.36.1-4.55,2.62-5.2,4.25,4.02,5.23,2.81,2.95-3.63,4.18-4.31,7.94-8.09,11.3-11.31,4.18-2.88,7.46-7.38,12.12-9.77,2.73,2.22,2.62,6.19,3.93,9.68l5.43,14.44-19.79,23.41-4.56,11.97c-5.08-9.82-9.54-19.08-13.25-28.53Z"/>
    <path class="cls-22" d="M179.81,452.79c-.44.26-.98.35-1.61.27l-13.35-22.9c-5.2-8.93-10.13-17.72-15.2-26.71l-7.58-13.44c-2.08-3.68-3.37-8.08-6.9-9.96.55-1.3.75-2.7.85-4.09l11.53,20.15c7.72,13.5,14.02,25.99,22.26,38.79,3.76,5.84,6.38,12.5,10,17.88Z"/>
    <path class="cls-72" d="M75.26,80.02l-4.17-.19c6.8-6.82,12.94-14.38,21.03-19.96.22-.28.61-.07.93.49l-10.73,9.98,3.39,11.68c-3.61-.91-5.44-4.4-9.01-5.52-1.63-.51-1.7,2.56-1.44,3.51Z"/>
    <path class="cls-137" d="M457.8,98c-3.06-.64,3.84,5.29,3.13,6.54-11.18,4.22-11.32-2.76-18.28,7.12-1.84,2.62-6.18.16-8.6.05-9.39-.4-16.33,2.3-20.16-.11-2.13-1.34-.43-5-1.49-5.99-8.74-6.08-5.46-15.01-11.31-13.77l-.04-2.85-2.34-5.9s-1.58-7.72-4.73-23.16c-.81,2.55-3.15,4.21-5.23,2.01-2.34-8.96-5.26-17.66-8.75-26.1-3.39-1.85-5.05-3.88-4.95-6.09,32.75,14.68,60.37,40.55,82.77,68.24Z"/>
    <path class="cls-42" d="M328,10.14c6.5,1.2,12.94,4.31,19,6.63,8.2,2.95,15.85,6.84,22.97,11.67,1.46-.45,3.15-.01,5.06,1.31,1.67,1.29,5.54,3.33,6.7,5.11,4.72,8.35,5.53,18.01,9.09,27.21l4-8.97c2.68,12.36,6.07,24.24,6.22,35.89-20.4-24.41-43.2-49.45-72.36-64.5-12.06-6.23-16.02-2.25-22.87-18.11,5.05-.62,21.81,6.47,22.18,3.75Z"/>
    <path class="cls-29" d="M375.03,29.76c-.73-.33-1.93-.64-2.64-.54-1.4.19-1.35,1.93-2.68,3.3-2.02-5.49-5.41-7.72-10.58-9.77l-11.41-4.52c-1.41-.01-2.31-.85-.73-1.44,9.52,3.66,19.9,6.69,28.03,12.98Z"/>
    <path class="cls-125" d="M293.99,112.98c-13.2-1.88-16.22-3.56-29.08-.13.79,2.82-2.37,3.47-3.72.99l-1.65,2.03c-26.97,5-52.61,16.76-76.15,31.53-19.09,8.87-37.15,19.3-54.17,31.31l-1.29-.82c-1.97-2-4.24-4.35-2.25-6.92-.23-.72-.37-1.32-.18-1.45,24.88-17.87,56.86-37.29,85.31-48.25,18.42-7.09,37.24-12.98,55.56-18.56,1.2-1.81,4.35-4.05,6.43-3.66-.34,1.69.88,3.94.79,6.12,3.07,2.33,6.21.97,9.52,1.05,3.67.09,7.02,1.3,11.53.88-.5,2.32-2.11,1.59-3.73,3.38,1.41.56,2.15,1.69,3.09,2.52Z"/>
    <path class="cls-14" d="M261.19,113.84c-.04,1.04-.56,1.86-1.26,3.02,2.13.39,3.09.14,4.16.53-30.96,2.32-140.21,58.12-145.3,75.74-1.69,5.86-1.29,26.42,1.64,34.57l9.86,27.46-.95.05c-3.61-9.68-13.85-28.35-12.32-40.2.5-3.86-2.62-20.69,1.09-25.2l9.79-11.92c2.89-1.47,5.86-4.1,8.74-6.27,5.15-3.87,10.7-6.46,16.02-10.04,7.71-5.19,15.97-9.06,24.09-13.7,2.07-1.18,5.1-.4,6.99-2.08,9.89-8.78,21.93-13.08,33.62-18.59l7.62-3.59c3.97-1.87,7.62-1.81,11.52-3.42l6.27-2.59c5.45-2.25,12.75-3.81,18.4-3.76Z"/>
    <path class="cls-40" d="M266.36,102.7c-5.44,3.46-11.76,4.34-18.16,6.52l-11.19,3.82c-8.78,2.99-17.41,5.26-25.9,8.92l-11.16,4.81c-16.33,7.04-49.94,27.25-65.62,37.45-3.29,2.14-6.23,4.11-8.63,6.75-2,.02-4.17,1.13-6.39,2-8.64,3.39-13.93-19.99-13.28-24.96.28-.87.62-.86,1,0,.8,5.68,3.77,22.58,10.6,23.67,2.19.35,4.12-1.63,6.19-2.55,3.15-2.79,7.28-6.02,11.2-7.12,4.61-4.45,12.07-9.37,18.14-12.13l39.41-21.73-.36-1.23c12.75-5.33,25.64-10.33,38.65-15.02l2.16.11,17.62-5.27c5.58-1.67,10.78-3.29,15.67-5.7.13.55.16,1.11.07,1.66Z"/>
    <g>
      <path class="cls-5" d="M228,2c1,.19,2.49-.75,3.1.93-4.82-.14-8.85.46-12.75,1.7,5.36,8.58,5.49,12.89,13.78,11.63,19.98-3.03,39.54-4.97,60.33-4.08,1.19-2.97-.22-7.03-2.76-8.64-2.26-1.43-5.11.2-7.75-.79.59-1.32,2.06-.58,3.06-.74,14.61.46,28.86,4.48,43,8.14,1.45,1.82.45,2.71-1.78,2.6l-16.94-4.05c3.17,6.83,9.31,11.2,18.41,13.09,28.65,14.46,51.87,37.92,71.77,62.73l1.58,4.49c2.86-.23,2.75,2.12.04,2.85,0,.36.1.73.1,1.1-5.73-8.38-12.25-15.96-19.67-23.35l-14.07-14.01c-8.54-8.5-17.7-15.83-27.75-22.51-15.68-10.42-42.67-19.89-61.76-19.18-21.45.8-42.11,3.66-63.16,7.54-17.58,3.24-31.56,6.62-46.83,15.33l-17.93,10.23c-16.78,9.58-44.58,36.27-54.39,52.57-8.37,13.9-6.03,53.85-3.33,70.88,1.5,9.46,3.95,18.4,4.73,27.5-1.04-1.34-2.43-1.5-2.78-4.19-.79-6.12-1.95-12.19-2.39-18.27-1.93-5.1-1.78-10.3-2.72-15.63-3.18-18.08,1.42-40.51-.78-45.63l-12.75-29.59c-.53-1.22-.98-3.59.4-3.55l3.76,3.94,9.14,19.9,3.18-8.25,19.04-22.61-7.33-21.52.45-2.44c2.17-1.11,3.62-3.5,6.1-4.03,1.34,1.22,1.12,2.84-.66,4.85,0,.88,9.53,14.26,10.37,14,1.84-.57,7.47-5.67,7.28-7.37-.09-.79-5.62-14.13-6.17-14.71-3.62,1.36-5.01.81-4.17-1.64,12.32-8.03,25.42-15.07,39.01-20.43,2.69-1.32,3.14,0,1.6,2.55l-16.89,8c-.41.34-.67.83-.78,1.37-.13.66,8.36,9.03,9.74,9.11,11.13-7.05,22.93-12.81,35.41-17.26-.45-3.54-1.28-7.22-3.33-10.15-2.55.89-4.58.8-3.74-2.21,4.03-.95,7.82-2.61,11.92-3.29,2.35-.59,3.47-.32,3.38.81.53,2.5,2.46,10.65,6.01,10.86,1.82.11,5.75-.82,6.36-2.42.21-.54-1.84-10.9-4.75-9.55l-1.1-2.24c9.29-2.04,18.67-4.29,28.18-4.37Z"/>
      <g>
        <path class="cls-30" d="M156,20.78c7.24-2.86,14.26-6.75,22-8.58.64,1.51,2.91.25,4.68-.14,2.63,3.44,4.24,8.93,4.49,13.76-5.79,2.7-11.56,3.66-16.77,6.6l-21.29,12c-4.84-3.95-8.66-7.6-12.76-13,6.29-3.51,12.4-6.39,19-9.25,1.39.21,2.18-.93.65-1.39Z"/>
        <path class="cls-30" d="M110.35,46.09c1.37-2.26,4.51-3.48,6.65-4.88-.1,1.93,3.99-1.5,5.1-.72s5.48,13.78,7.68,17.36c.23,1.92-7.79,8.96-9.33,9.09-.92.07-2.65-.59-3.44-1.74l-10.31-15.11c2.19-1.26,2.86-2.7,3.66-4Z"/>
        <path class="cls-101" d="M199.82,6.37c1.43.19,2.94.74,5.18.75l3.17,12.8c-3.44,1.49-8.45,4.15-11.69,1.62s-3.71-7.78-5.39-11.12c.38-.84.36-1.28.09-1.34-.52-.11-1-.22-1.27-.17,3.27-.54,6.47-2.53,9.9-2.54Z"/>
        <path class="cls-140" d="M134.86,33.02c3.89,5.5,13.37,13.73,6.76,17.21s-9.38-7.84-13.9-13.89c1.83-1.31,4.78-3.83,7.14-3.32Z"/>
        <path class="cls-79" d="M212.22,19.95c-2.95.79-4.94-10.72-5.2-13.05-.11-1.03,3.35-1.69,4.04-.97.48,3.54,4.31,13.17,1.15,14.02Z"/>
      </g>
    </g>
    <g>
      <path class="cls-105" d="M0,240v-4c1.05-1.04,1.23-2.58,1-4h1l-.31,10.06c-.95-.58-.75-1.84-1.69-2.06Z"/>
      <path class="cls-21" d="M102.01,356.97c-2.31,3.36-5.21,6.29-6.86,10.08-5.44,7.51-9.8,15.74-12.4,24.66-1.14,1.98-2.18,1.5-3.75.08-1.91.66-6.85-4.34-6.07-6.46-6.17-8.35-11.42-17.14-15.75-26.36.06-12.6,7.17-43.6,22.23-45.54,2.16-.28,2.93-.18,4.67,1.19,6.59,5.17,13.83,21.55,17.17,29.59,2.05,4.94,3.04,7.82.75,12.77Z"/>
      <path class="cls-54" d="M122.91,382.86l.02.98c-7.54,4.71-14.85,9.75-21.91,15.12,1.81,1.65-2.68,4.56-4.15,3.06l-2.44-2.12c-2.12-8.93.29-22.59,3.89-30.76.29-.17.35-.81.67-.93,1.82-4.79,4.35-8.95,7.57-12.46,6.41.58,18.82,20.96,18.53,25.57-.08,1.31-.87,1.87-2.17,1.54Z"/>
      <path class="cls-44" d="M96.87,402.03c.4.59.68,1.07.57,1.2-2.11,2.32-5.67,5.04-8.28,6.52-2.27-.29-1.73-2.94-1.86-4.74-.83-3.83-.58-6.94.76-9.33,1.24-9.05,3.85-17.35,7.83-24.92.73-.65,1.59-1.12,2.43-1.6.28.66.54,1.55.29,2.67-2.32,10.14-3.9,20.52-1.74,30.21Z"/>
      <path class="cls-73" d="M95.06,369.04c-2.96,9.31-5.42,18.83-7.4,28.57-3.06.56-8.86-2.1-8.66-5.81.94.27,1.89-.27,2.21-1.53,1.57-6.16,8.2-21.76,13.95-23.21-.2.58.18,1.45-.09,1.98Z"/>
      <path class="cls-80" d="M95.89,370.75c-4.23,11.11-6.24,22.72-8.6,34.25-.08-1.12-.37-2.21-1.21-3,1.37-4.33-4.32-3.55-6.21-5.79-.44.29-.88.51-1.32.51-1.29,0-9.62-8.59-7.32-10.77-.19-.9.11-1.05.86-.49l.83-.12c.33,2.8,4.47,4.56,6.07,6.46,1.82,2.18,4.18,4.4,7.74,4.84,2.05-9.87,3.97-19.21,8.32-27.6.34.54.65,1.1.83,1.71Z"/>
      <path class="cls-111" d="M127.74,383.9c-1.19.92-1.72,2.11-3.65,3.07-12.51,6.19-22.89,15.34-33.96,23.16-.34-.08-.64-.34-.98-.39l7.72-7.72c1.09-1,3.79-.99,4.15-3.06,7.1-5.39,14.46-10.61,22.09-15.24.19-.12.57.06,1,.33.96-.62,2.01-1.12,2.74-2.05.24.63-.23,2.07.89,1.9Z"/>
      <path class="cls-20" d="M72.1,385.46l-.86.49c-3.68.16-7.55-4.22-7.16-7.85l-7.23-13.11c.54-.13,1.34-.27,1.15-.99,5.12,8.62,9.11,13.37,14.1,21.46Z"/>
      <path class="cls-123" d="M124.11,384.05l-23.09,14.91c.36-2.07,18.33-13.63,21.89-16.1.37.43.77.82,1.2,1.19Z"/>
      <path class="cls-4" d="M71.14,304.98c-13.37,14.34-12.27,19.15-17.38,25.75-1.44-1.5-4.93-1.07-6.21-3.22-3.93-6.58-13.92-12.76-17.44-30.43-.95-4.79,1.84-9.44,2.86-13.4,1.1-4.27,8.53-19.2,14.31-16.98,5.48,2.09,7.15,7.75,10.18,11.84,4.07,5.5,7.92,10.37,10.16,16.95,1.12,3.3,3.64,6.14,3.53,9.5Z"/>
      <path class="cls-66" d="M64.07,378.1c2.55,2.36,4.91,5.18,7.16,7.85l8.64,10.26-1.79,7.79c-3.43,7.17-19.11-26.39-17.94-27.52.32-.3.82-.67,1.51-.52.56.12.68.84.92,1.73.28,1.05,1.01,1.2,1.51.4Z"/>
    </g>
    <g>
      <path class="cls-130" d="M75.26,80.02c1.65-1.29,2.1-.65.75,1.07,3.33,11.12,7.93,21.73,13.8,31.82-1.86,28.57-.61,57.27,7.22,85.04.99.02,2.5.12,2.68.79,6.68,43.68,30.6,82.01,57.28,115.59l-.03,1.61c1.29.21,2.11-.38,2.46-1.79,1.1-.83,2.19-1.29,2.85-.14l10.18,15.99c3.34,7.09,7.95,11.64,13.82,13.63.39.23,1.12.97.8,1.63-8.81,3.98-16.86,5.86-25.12,10.49-4.17,2.34-9.05,3.19-12.93,6.53,1.09,5.12,4.6,9.15,6.89,13.76l3.06,6.15c.4.8-.19,2.07-.96,1.81l-2.7-1.11-9.23-16.85c-1.25-.28-13.1,4.66-8.97,7.75l-1.08,2.15c1.25,3.09.97,4.46-.85,4.09.36,2.96-5.15,5.54-7.43,3.85-3.17.92-3.08.36-.89-1.9-.97.2-1.71-.04-2.01-.91-2.25-6.38-5.1-12.89-9.34-18.31-8.94-11.42-11.57-5.77-16.5,5.43.46.8.24,1.11-.67.93-.05,1.91-.8,2.7-2.43,1.6-1,.61-1.28.04-.83-1.71-1.89-.02-1.2-.97.09-1.98-2.46-2.93,3.4-10.65,6.86-10.08.12-1.47.69-2.9,1.71-4.3-2.87-13.42-11.42-30.58-21.76-39.15l.12-1.53c-5.79-.9-9.21-3.06-10.26-6.48l.97-1.38c-4.9-11.94-12.04-22.99-19.42-33.52-7.08-9.06-14.23-5-21.45,12.18l.44.63c-9.66,17.26,6.22,38.46,20.29,48.26l-.44,1.37c1.25-1.14,2.53-.92,3.84.65,2.71-5.77,12.67-23.53,19.04-24.2,1.28-.13,3.96.94,3.92,2.36l-.2,1.49c-17.24,8.13-19.98,28.72-21.62,45.6.79,2.01,1.06,3.69.82,5.04.99,1.92.31,2.63-1.15.99-1.42.61-.88,3.04,1.62,7.27,2.23,12.29,8.64,25.55,18.19,34.14l1.15,3.49,2.3-.28c2.79,3.6,4.07,1.37,3.83-6.69l2.14-.92c1.21-.27,1.61.73,1.21,3,2,.52,2.62,2.1,1.86,4.74.62-.61.94-.48.98.39l.44,2.2c-6.38,5.25-12.47,10.86-18.27,16.83,4.03,4.62,8.11,9.46,12.24,14.53l-.4,2.43c-2.02-.43-3.93-1.17-5.6-2.4-10.71-7.9-24.19-25.47-32.2-36.59C19.13,369.37,1.51,323.29,0,277v-34c2.82-.46,3.5,2.16,2.04,7.87l.38,2.76,2.26-.89c2.62-11.3,7.79-20.74,15.49-28.32.53-2.01.79-3.85.8-5.54l-2.29-.25c-2.58-5.62-5.64-11.13-9.72-15.84-1.64,10.04-3.49,19.82-5.56,29.33l-1.41-.12c-.28.87-.62.86-1,0,.73-52.3,27.67-111.48,64.67-149.45.66-.68,1.54-1.14,2.46-1.6s1.94-.81,2.96-1.11c2.61-1.87,4-1.81,4.17.19Z"/>
      <g>
        <path class="cls-95" d="M20.97,218.88l.23,4.59c-3.38.9-6.12,2.6-8.21,5.11-4.32,7.28-7.08,15.29-8.3,24.05l-2.27,1c-3.12-1.98.2-8.18-2.42-10.63v-3c.82-2.51,1.49-5.18,2-8-.1,3.23,4.6-33.24,5.94-32.97,5.38,4.35,10.77,14.46,13.03,19.85Z"/>
        <path class="cls-83" d="M43.15,251.11c1.16.53,1.23,1.88,1.85,2.78l.42,4.38c-9.23,5.43-15.7,14.23-19.41,26.38l-3.06,2.43c-12.57-10.13-17.24-18.33-13.12-34.51,1.26-4.95,8.35-23.97,13.59-24.5,2.34-.24,6.94,4.71,8.47,6.62,3.89,5.58,7.65,11.05,11.26,16.41Z"/>
        <path class="cls-138" d="M82.06,311.99c.71.69,2.01.84,2.97,2.03,9.17,11.47,15.94,24.61,19.87,38.73l-2.9,4.21c-2.43-3.56,3.44-.32-1.52-12.46-4.46-10.92-9.41-21.55-18.09-30.03-19.44,2.61-22.31,27.39-24.2,43.5-.49,4.13,3.33,7.45,4.84,11.01,2.67,6.32,9.15,9.97,9.9,16.33-.05.9-.33.92-.83.12-5.77-6.06-11.41-13.6-14.1-21.46-.65-1.1-1.7-3.76-1.81-5.06,2.92-19.95,1.5-24.17,13.45-40.2,2.55-3.42,5.81-5.64,9.35-6.87-.02-1.08,1-1.04,3.06.12Z"/>
        <path class="cls-69" d="M43.2,327.96c4.02,1.57,6.28,6.55,9.69,8.99.48,2.62-1.31,9.75-4.88,9.18-.46.9-1.57,2.23-2.02,1.95-3.41-2.15-16.32-24.71-16.15-27.9.04-.72,2.48-2.44,3.18-2.29,3.16,3.66,6.55,7.02,10.18,10.07Z"/>
        <path class="cls-71" d="M82.06,311.99l-3.06-.12c-6.78-4.81-19.22,18.06-21.68,23.92-1.71.86-3.97-1.78-5.13-2.73-.84-1.92-.8-2.34,1.56-2.33-.62-.65-1.18-1.55-.81-2.28,3.89-7.54,8.98-17.35,15.19-23.16l2.99-.31c-.29-2.59-.25-2.64,1.63-.84.87,4.24,6.49,5.12,9.29,7.86Z"/>
        <path class="cls-103" d="M21.97,290.27c2.51.04.46,12.73.04,13.31-.34,1.85-1.63,1.69-3,.37-7.77-8-10.96-18.49-11.37-29.55,4.12,6.05,9.27,10.82,14.32,15.87Z"/>
        <path class="cls-26" d="M22,287c.29-.86.61-.81.94.09,2.49-6.91,5.73-13.59,10.03-20.13,9.35-14.24,12.41-7.1,12.02-13.06,1.42,2.1,2.15,4.76,1.76,7.59-12.17,5.77-15.51,16.75-19.99,28.23-2.14-.27-3.33-1.81-4.76-2.72Z"/>
        <path class="cls-94" d="M43.2,327.96c-4.01-1.56-6.63-5.51-10.11-8.48-.6,1.04-1.77,1.48-2.02,2-.2.43,1.98.94,2,1.44.09,2.98,1.15,5.54,2.77,8.05,4.07,6.31,5.87,16.13,12.18,15.17,3.03,1.29,2.74,5.78-.75,5.81-4.53-4.28-7.43-9.86-10.6-15.65-4.85-8.88-13.71-23-8.77-33.28,3.49,10.11,8.42,18.03,15.31,24.93Z"/>
        <path class="cls-134" d="M43.15,251.11c-.29.2-.52.45-.78.42-.39-.04-1.53-.79-1.53-1.27-.04-4.01-3.19-5.47-4.83-8.18-3.22-5.3-6.05-10.38-12.49-13.16-9.02,6.86-15.04,26.28-14.26,36.95.57,7.89,6.64,13.97,12.1,18.67,1.13.97,1.88,1.35,1.6,2.54l-.94-.09c-6.07-3.89-15.82-14.77-14.76-24.65,1.28-11.95,5.22-23.33,12.53-32.49,1.12-1.4,2.46-2.58,3.73-2.65,5.5-.33,17.42,18.88,19.65,23.9Z"/>
        <path class="cls-32" d="M2.42,253.63c2.54-11.23,5.19-27.6,15.31-30.95l2.69-.89c.9-.3.74-1.86.56-2.91,4.61,10.97-3.45,3.61-10.79,24.31l-4.39,12.39c-1.43.52-2.53-1.42-3.37-1.95Z"/>
        <path class="cls-131" d="M72.77,304.13c-.22.67-1.29.48-1.63.84-.85-.05-1.72-.31-2.06-1.07-5.11-11.15-10.28-22.14-18.04-31.76-.91-1.13-3.74-4.11-5.2-3.68-4.74,1.38-8.85,10.43-10.63,14.73l-2.24.48c-1.2,1.45-1.26.94-1.06-.88,1.8-6.72,5.88-12.77,11.48-17.52,6.29-5.34,15.82,12.7,19.66,18.55,4.29,6.54,8.24,13.02,9.73,20.32Z"/>
        <path class="cls-35" d="M47.26,351.95c1.01-1.72.52-3.87.75-5.81,2.46-3.15,1.24-6.16,4.88-9.18l3.89,1.39c-.39,6.59-1.22,13.08-2.84,19.63-3.67-.61-4.63-4.1-6.67-6.03Z"/>
        <path class="cls-81" d="M56.85,364.99c2.59,2.37,6.2,8.11,8.05,11.92.1.21-.29.67-.83,1.19l-.72,2.29c3.31,9.32,8.22,17.19,14.73,23.61,2.75,1.07,1.89,4.25-.26,5.88-11.26-11.81-19.05-27.37-23.16-43.74.47-1.73,1.31-2.79,2.19-1.16Z"/>
        <path class="cls-92" d="M86.08,402c-.52,2.94.02,6.2-.92,9.39-.56,1.91-2.89,1.89-4.36,1.61-1.59-.3-1.94-2.01-2.99-3.11-.5-1.94-.19-3.93.26-5.88-2.89-1.08-1.21-7.8,1.79-7.79.4-.71,6.71,1.27,7.05,1.51.83.59.68,4.11-.84,4.28Z"/>
        <path class="cls-139" d="M32.97,283.67l1.62,1.6c-5.46,10.34-.93,19.92,5.02,29.08,2.96,4.56,8.91,12.64,14.13,13.97l.02,2.41c-.53.69-.05,2.53-1.56,2.33-3.62-2.99-10.47-8.88-13.71-13.41-4.93-6.89-8.85-15.34-10.38-23.58-.9-4.84,2.76-9.41,3.8-13.28l1.06.88Z"/>
        <path class="cls-88" d="M126.85,382c-.01,1.9-1.11,3.25-2.74,2.05-1.68.99-2.25.46-1.2-1.19,2.58-2.91-3.36-11.83-5.33-15.4-2.17-3.94-4.85-7.93-9.63-8.35-.56-.05-.98-2.19-1.45-2.02-3.93,1.39-3.89,9.7-7.51,11.12-.51-3.12,6.44-14.3,8.51-14.2,5.54.26,16.81,21.5,19.35,27.99Z"/>
        <path class="cls-76" d="M19.01,303.95c.31-.05.77,0,1.16-.21-.36.19,1.1-11.68,1.8-13.47,1.39,1.39,7.85-1.81,2.22,17.47-1.85-.73-3.78-2.14-5.17-3.8Z"/>
        <path class="cls-97" d="M4.09,275.88c-2.49,3.22-3.6-18.83-2.87-19.01,7.04.81,4.72,13.3,2.87,19.01Z"/>
      </g>
    </g>
    <g>
      <path class="cls-48" d="M391.01,223.83c.27.47.65.87,1.07,1.22-.04,3.1-2.95,4.38-8.72,3.85,3.29,8.96,5.52,18.07,6.69,27.33l.26-.95,11.87-3.04,1.83,1.66c.26.9,1.29.92,2.08.85-3.08,3.13-13.39,2.7-19.76,6.36-2.53,1.45-4.14,1.37-6.33,1.89,1.28-.75,2.78-1.41,3.05-3-.97-1.81-.09-2.4,1.53-2.87l-6.48-24.75,1.04-3.34c-.6-1.29-1.56-4.01-.84-5.18,1.07-1.74,10.87-1.34,12.7-.03Z"/>
      <path class="cls-68" d="M391.01,223.83c-6.68,3.55-13.76-2.96-11.86,5.21-3.36,1.14-3.98-3.04-4-5.89,1.21-5.74,1.3-10.22-2.21-15.14-10.14-14.16-21.83-27.88-34.11-39.84-.76-2.71-1.71-4.68-2.88-5.92-.18.93-.64,1.09-1.37.5-.1-2.4-1.83-4.7-3.71-6.6-6.19-6.3-12.08-12.44-18.69-18.34-2-1.79-18.59-14.57-13.25-15.01,3.61,1.6,7.27,2.75,11.1,5.08,10.99,6.71,18.88,16.19,27.2,25.86,19.56,22.75,35.9,36.23,55.02,61.97,2.14,2.88,1.57,6.57-1.24,8.12Z"/>
      <path class="cls-70" d="M404.01,253.9c-4.87.86-9.27,3.32-15.15,3.47-2.05-9.77-4.35-18.8-7.43-27.93-1.67-4.96,5.56-.58,10.65-4.4,1.68-1.26,2.66-2.21,3.57-3.81,3.26,4.74,18.77,24.86,16.74,28.44-1.35,2.58-6.03,3.13-8.37,4.22Z"/>
      <path class="cls-19" d="M266.06,117.24c2.61-.79,2.36.65-.08,1.42-2.97.04-4.64,3.01-7.19,4.17l-6.37,5.25c-14.24,4.6-28.1,9.8-41.58,15.58-.04,1.84-.62,2.68-2.72,2.42-1.98-.2-3.7-.21-5.15-.03-.92-.3-.73-1.49-1.47-2.05-.92,1.6-.47,2.6-1.16,3.27,4.33-4.18-23.43,11.61-25.24,12.83l.03,1.56c4.76,8.3-2.19,3.9-5.45-.64l-1.66.03c2.06,1.75,1.35,2.73-.52,4.31-8.25,4.88-16.52,9.77-24.81,14.65l.31,1.21-1.24,2.11c-6.71,1.47-14.09,6.01-17.72,11.6-1.17.62-2.1,1.86-3.81,1.82-.47-1.61-.88-2.63-1.43-3.62-.47-.3-.83-.58-.79-.81.28-1.86,4.53-6.4,6.04-7.9,15.86-15.76,39.22-27.31,59.34-37.02,23.48-13.63,49.45-24.93,75.7-31.34.97,1.28,2.64,1.73,5.01,1.33l1.96-.15Z"/>
      <path class="cls-9" d="M175.1,160.1c.92,2.7,3.15,4.66,4.66,7.07-.72.79-1.64,1.35-2.64,1.73-2.77,3.09-9.31-4.5-9.1-7.86,1.21-5.49,3.17,2.99,8.19,4.36-.63-1.72-2.82-4.16-1.11-5.31Z"/>
      <path class="cls-78" d="M208.12,146.08c2.14,1.69,1.59,2.43-1.08,1.9-.89-.04-1.13-.85-2.2-2.12-.72-.16-.85,1.57-.83,2.18-.36-.58-.88-1.25-1.04-1.98-.4-1.83-.64-4.24,1.72-4.84l.85,4.71,2.33-4.13.24,4.29Z"/>
      <path class="cls-18" d="M379.15,229.04c2.83,9.11,6.24,18.1,7.32,28.04.19,1.71-2.48,2.4-3.42,2.92-6.56,1.87-13.18,3.79-20.03,6.07l-22.07,7.35c-2.02-2.26-.84-5.43-1.91-7.43-1.19-15.95-3.44-31.81-6.74-47.57l.62-5.21c4.12-8.77,6.74-17.17,5.94-27.16-1.36-1.73-1.64-4.08-.85-7.04-.3-5.66-.53-11.27-2.05-16.76.11-.54-.42-1.35.69-2.32.84,4.09,3.31,7.02,6.73,9.65,3,2.32,4.84,5.78,7.55,8.5,8.15,8.18,14.81,17.12,21.79,26.18,11.01,14.29.38,16.69,6.44,24.78Z"/>
      <path class="cls-84" d="M339.04,265.98c-1.37-2.55-2.58-5.19-3.31-8.05-1.58-6.21-10.46-32.81-8.56-37.92,5.06-13.66,8.32-27.26,10.84-41.01.08,1.57-.47,3.37.46,5.18l1.16-11.19c1.16,7.57,1.72,15.36.8,23.44-1.94,17.04-9.69,12.21-4.18,34.2,1.31,5.23,7.11,33.03,2.8,35.35Z"/>
      <path class="cls-104" d="M138.9,114.83c2.41,3.3-7.38,8.76-9.92,6.91-.29-.09-.73.03-1.28-.09,2.04.46-2.8-31.59-3.9-31.81l-2.69-.54c4.02-5.01,9.31-9.2,14.91-12.32-.37,7.45-.74,14.8-.04,22.96l.95,11.17c.14,1.7.76,3.04,1.97,3.72Z"/>
      <path class="cls-96" d="M258.79,122.84l-24.81,27.05c-5.22,5.69-10.14,10.14-16.81,14.52-2.72,1.79-8.99,2.2-10.62-1.84-1.85-4.59.62-10.12.49-14.59.54-.44.65-1.39,1.08-1.9.79-.93.4-3.51,1.8-4.09l19.74-8.15c6.71-2.77,13.48-5.08,20.29-7.39,1.41-.48,3.24.84,4.47-1.07,1.06-1.65,3.03-1.94,4.37-2.55Z"/>
      <path class="cls-14" d="M265.98,118.67c.5-.44,1.58-1.65.08-1.42.77-.27,1.77-2.06,2.84-1.67,1.46.53.34,1.66,0,2.12-.6.8-2.13.96-2.91.97Z"/>
      <g>
        <path class="cls-31" d="M245.17,241c1.73-1.83,2.56,3.86,2.33,4.03-.21.16-1.61-5.14.34-4.07,2.12,3.43,2.6,6.19.8,10.52-2,4.8-9.87,22.46-15.01,23.23-8.77,1.32-17.21-1.84-23.84-6.98-4.9-1.5-9.01-4-12.33-7.51l.57-1.05c-.42-1.45-1.1-3.3-2.03-5.55l1.11-.78c3.45-7.18,8.54-.45,14.91-8.86s14.66-10.94,24.3-8.48c4.08,1.04,6.42,2.11,8.85,5.5Z"/>
        <path class="cls-102" d="M198.02,259.17c3.09,5,5.65,3.82,11.76,8.56-7.29-.76-14.15-5.83-16.69-12.72.42-.1.92-.53.92-1,.28-.87.62-.86,1,0,0,2.23,1.96,3.45,3.02,5.17Z"/>
        <path class="cls-63" d="M215.73,264.56c-2.8-.09-9.61-8.88-11.38-3.06-1.84-1.5-3.25-3.23-2.42-5.74,5.15,2.18,11.25,2.9,13.8,8.8Z"/>
        <path class="cls-28" d="M226.06,248.03c-1.26.72-2.24-.76-2.97-1.86-2.83-3.02,15.3.75,14.1,2.68-2.31,1.13-12.5-3.39-11.13-.83Z"/>
        <path class="cls-115" d="M226.06,248.03c.81,1.61,2.6,2.69,2.84,5.27-2.43-1.49-5.87-4.05-5.81-7.12,1.21-.11,2.42.77,2.97,1.86Z"/>
      </g>
      <path class="cls-24" d="M177.12,168.9c3.93,1.45,7.67,6.18,5.18,10.41l-39.3,1.9c-1.23-.36-2.51.15-4.2-.61,5.79-2.99,10.44-7.22,16.23-10.4l9.09-5c1.91-1.05,3.47-2.25,3.89-4.16,3.41,2.05,5.25,6.43,9.1,7.86Z"/>
      <path class="cls-8" d="M141.09,120.99c1.65.23-.99,1.67-.96,2.47.37,7.97,3.72,15.58,8.13,22.13,1.16.73,2.83-.36,3.64.34.18.72.27,1.32.02,1.53-3.22,2.73-13.1,9.95-16.63,11.26-.3.11-.78-.26-1.32-.77,1.58-7.93-3.48-17.89-3.45-27.25-1.41.16-2.45.01-3.4-.57,4.68-3.11,8.64-7.24,13.96-9.14Z"/>
      <path class="cls-59" d="M233,112c-4.81,1.44-36.32,13.87-40.45,16.14-.35-.37-1.6-1.11-1.44-1.65.24-.79,1.35-1.3,1.88-1.5l38-14c.32.81,1.2,1.02,2,1Z"/>
      <path class="cls-57" d="M153.14,149.87l-18.14,12.13c-.89.46-1.19.08-1-1l18.14-12.12,1.01.99Z"/>
      <g>
        <path class="cls-45" d="M128.98,121.74l-.26,2.84c-7.75,6.32-9.05,7.87-3.89,4.66l2.31.89c1.63-.61,3.14-.81,4.51-.59,2.26,8.65,3.78,17.42,4.57,26.31l-2.23,2.1-.19,1.52-10.56,7.89.45.85c.9.1.91.4.1.9.65,1.32-4.19,3.36-5.48,3.34-7.72-.1-12.06-18.26-11.31-24.46-6.05-19.89-8.05-45.65,11.99-57.88.45-.53,1.54-.47,2.11-.82,2.9-2.31,4.62-1.42,5.38,2.24l3.71,27.88c-.83.75-1.24,1.52-1.22,2.32Z"/>
        <path class="cls-110" d="M118.99,90.12c-4.71,5.63-10.48,9.38-12.55,17.39,1.12-.66,2.35-.94,3.09-.57,1.29.65,1.7,1.88,1.48,2.68-.39,1.41-1.53,2.1-2.54,2.02-1.84-.15-1.94-1.9-3.11-3.76-2.62,10.12-1.09,20.57.4,31.21l1.25,8.91h-1c-3.49-12.64-5.86-26.49-2.79-39.85.18-.8,12.06-22.09,15.79-18.03Z"/>
        <circle class="cls-15" cx="110.87" cy="136.82" r="3.22"/>
        <circle class="cls-67" cx="117.52" cy="161.55" r="3.12"/>
      </g>
      <path class="cls-75" d="M135,162c-3.64,2.43-7.14,5.32-11.2,7.12l-.1-.9c2.77-2.88,6.44-4.63,10.31-7.22.3.37.63.7,1,1Z"/>
      <g>
        <path class="cls-51" d="M283.92,116.13l15,6.66c11.2,10.61,22.58,21.53,34.12,32.74,2.11,2.37,3.47,4.03,1.53,7.21,1.84,4.21,2.96,12.15,2.21,16.98-2.13,13.74-5.65,27.41-10.68,40.23,1.57,13.36,4.53,26.72,8.9,40.05,2.04,4.26,3.76,8.7,5.15,13.33l-.81,1.66c-14.41,5.98-28.88,11.62-43.43,16.93-13.12,7.04-26.54,13.43-40.26,19.17l-2.83,2.22c-15.89,7.44-31.82,14.67-47.79,21.68-3.22,1.71-7.31,1.96-10.76,4.55-6.99,5.26-11.77-6.62-15.6-10.83-.66,7.17,10.46,12.59,7.59,14.91-2.8,1.71-5.55.73-7.76-2-6.43-7.95-11.69-16.47-17.05-25.24-.64-1.05-1.19-1.87-2.04-2.23-7.24-12.11-14.02-24.91-20.35-38.41l1.18-.77.92-1.01c4.96,2.94,9.91,5.99,14.87,9.16.45-.04.85-.12,1.07-.37,1.66-1.89-12.61-10.89-14.46-11.3-6.73-3.15-9.89-7.5-12.36-15.15-.11-.34-.06-.74.03-1.14-2.88-5.95-5.93-13.02-8.12-19.64-3.7-11.16-7.44-30.31-4.55-41.77.07-.29.56-.47,1.16-.62,1.95.34,3.7.94,5.24,1.79,6.11-9.37,13.37-9.68,24.8-10.12,4.62-.18,30.04-.87,31.49.84.44.51.77,2.43.53,3.22-.43,1.79-2.3,2.66-5.62,2.59,4.65,3.46,7.69,7.67,9.11,12.63-.7,4.82.18,7.12,2.64,6.91.86-5.95,1.24-11.89,1.16-17.84-2.5-2.66-5.45-4.96-8.85-6.9.39-3.52,4.64-6.91,6.73-3.36,4.21,3.76,8.62,7.79,9.18,13.8.34,3.6-.59,12.84-1.21,16.63-.04.24-.48.41-1.03.57.11,13.72.14,27.42.1,41.1,1.6,1.28,3.08,3.06,4.45,5.32,3.3,3.43,7.38,5.9,12.24,7.4,2.71-.37,5.66.61,8.83,2.93,11.19,4.14,14.94,4.39,20.98-5.33,4.26-6.86,9.42-16.62,8.25-24.37l-2.66.04-2.24.35c-12.34-10.27-24.79-2.78-33.72,7.89-4.15,1.17-8.19,2.37-12.1,3.59h-1.23c-.21-12.34-.5-24.62-.87-36.83-.97-5.51-.89-11.4.23-17.66l-.58-5.82c-3.09-3.31-5.71-6.79-7.86-10.42-2.69-.16-3.64-2.33-2.85-6.52l-1.67-5.24c1.12-1,1.7-2.78,1.75-5.34-1.03-.74-1.61.32-1.76,3.19l-1.27-.36c-.98,1.66-1.63,1.3-1.23-.65-.67.25-1.43.46-2.11.19-.73-.28-2.43-5.56-2.54-7.26l-.36-2.13c7.76-4.65,15.72-8.94,23.88-12.86,2.74-3.72,3.66-3.08,4.35.95.97-.89,1.32-.23,1.04,1.98l1.43.29c-2.83,15.11,1.62,20.77,13.34,16.99l1.98,1.85c.36,2.08-.21,4.54-1.73,7.38-1.78,6.01-1.52,7.12,3.39,10.23s12.07,4.36,17.58,5.29l.35-1.6c-8.08-4.96-13.32-11.47-15.73-19.51l.49-2.13c.51-2.06,2.06-3.98,4.64-5.75,11.05-14.64,22.57-28.63,36.6-40.75,1.72-1.49,7.34-4.81,9.66-5.4,2.59-.66,6.55-1.21,7.9,1.22Z"/>
        <g>
          <path class="cls-23" d="M339.04,265.98c2.05-.49,2.98,1.16,2.8,4.95l36.27-11.6,4.94.66c1.43,1.1.41,2.11-3.05,3-16.7,3.97-32.68,10.11-48.95,16.67-6.11,2.46-12.84,3.45-18.34,6.84-4.76,2.94-10.37,3.43-14.71,5.49-.93.41-1.63.38-2.09-.08l26.64-11.36c4.83-2.06,10.08-3.04,14.63-5.65,3.24-1.86-2.38-11.31-2.19-14.91-.75-2.28-.51-2.97.72-2.07,3.52.7,3.82,4.93,3.31,8.05Z"/>
          <path class="cls-37" d="M255.65,311.09c.86.32.83.64-.05.96-1.23,1.54-3.42,2.66-5.71,3.67l-17.34,7.64-25.79,12.5c-.83.4-1.94.07-1.73-.87,16.5-8.78,33.7-16.08,50.62-23.9Z"/>
          <path class="cls-108" d="M295.91,291.92l2.09.08-25.66,12.19c-5.79,2.75-11.04,6.12-16.74,7.86l.05-.96c13.44-6.21,26.6-13.34,40.26-19.17Z"/>
          <path class="cls-60" d="M156.03,283.12h-1.34c-3.5-3.13-9.2-7.81-13.52-9.55-.39-.16-.77.57-.93,1.4-.25,1.45.48,2.76,1.28,4.33l17.89,34.86c.74,1.45-.28,4.02,1.57,5.78-1.94-1.16-2.78-2.68-4.03-3.98,1.15.22,1.43-.67,1.25-1.44-.23-.93-.8-1.52-1.3-2.46l-19.88-37.91c-1.56-2.97-2.68-5.54-3.82-8.6l-3.85-10.32c.17-.89.49-.88.95-.05,8.82,20.81,23.06,15.07,28.95,29.48s11.94,26.77,19.02,40.57c-3.01,2.72-15.05-27.58-16.36-30.22l-5.88-11.87Z"/>
          <path class="cls-34" d="M283.92,116.13c-5.89-.61-11.37,1.6-16.29,5.71-13.09,10.92-23.6,23.98-33.97,37.54-2.52,3.3-4.96,6.35-8.55,7.43.07,2.1-.96,2.16-2.01.27-1.5,1.71-2.28,1.73-2.34.07-5.1.15-12.73,1.22-16.04-3.85-1.88-4.58.5-10.65-.71-15.27-1.27-2.73.57-5.43,1.26-2.2,1.67-.8,2.32.6,1.77,2.14l1.98,1.14c-1.67,5.54-1.5,10.2.51,13.98,6.54.64,12.78-2.75,18.73-10.17l23.06-24.91c2.67-1.35,5.16-3.08,7.47-5.18-.8-3.52,4.58-5.33,7.19-4.17,1.03-.36,1.07-.78.08-1.42-.06,1.11-1.56,1.21-1.96.15-4.82.56-8.61-.77-2.91-3.55l3.72-.99c7.55,2.57,13.54-3.62,21.18,2.78-.97.72-1.67.3-2.18.51Z"/>
          <path class="cls-120" d="M298.95,251.1c.51.75.64,1.54-.03,2.07-7.28,5.75-16.97,10.59-26.04,13.08-3.37,3.32-7.96,6.64-12.87,4.66.73,2.23-.29,2.92-3.07,2.06-2.33,3.98-6.23,6.49-11.71,7.52-3.35,3.56-7.4,5.4-11.94,7.04-3.13,3.33-6.52,5.19-10.15,5.6-2.47,3.62-5.12,5.25-7.93,4.89.94,2.34.47,2.76-1.96,3.02.38,1.9-.7,2.47-2.07,1.05-.97,2.51.75,2.57,2.92,1.99-.3-2.33,2.11-1.6,3.85-1.08-.85-1.66-.24-2.19,1.29-1.15,3.05-2.84,6.65-4.98,10.83-6.41,4.17-3.78,9.14-6.32,14.92-7.6,1.61-3.24,5.22-5.05,10.82-5.43l5.26-3.54c6.68-2.26,13.15-5.04,19.41-8.33,6.32-1.52,12.21-4.56,17.68-9.11,1.15-2.76,2.77-4.24,4.87-4.42-.11-.85.17-.87.79-.17,1.33-1.28,1.56-.75.91.98-2.96,5.73-7.46,9.97-13.44,12.38-19.94,8.05-39.33,16.19-58.29,26.5-16.1,8.75-21.34,14-43.83,10.23,7.52-1.03,12.66-1.13,18.36-5.34,13.56-10.02,27.25-19.02,42.32-26.71l48.26-24.62c1.46-.99,1.76-.73.86.82Z"/>
          <path class="cls-98" d="M186.79,182.09c.43.9.18,1.17-.75.81-1.88.21-4.04.86-5.04,3.15,2.09,2.65,6.65,3.58,8.1,6.72,1.54,6.08-1.13,12.45-2.11,18.23-2.4,1.78-3.24-.35-2.52-6.39,2.64-7.3,1.48-11.76-3.47-13.37l-.15-2.38c-1.27-2.27-4.02-2.34-6.88-2.22-13.29.55-26.28-.65-39.31,1.18-4.47.62-7.12,5.23-10.63,7.1-.58.26-.92-.13-1.06-.47-.33-.81.25-1.04.87-1.55,7.14-5.77,10.41-11.27,19.15-11.69l.11-1.34c12.58-1.22,25.24-2.17,37.96-2.85l-.23-2.04c-1.88-2.03-3.12-4.06-3.72-6.09-.67-2.53.31-2.78,2.64-1.73.25.32.92.38,1.23.65,1.32.17,1.87-.81,1.67-2.95l1.36.13c.25,5.71.33,11.79,2.77,17.09Z"/>
          <path class="cls-62" d="M225.11,166.82c3.59,2.17.77,6.3,6.03,11.06l12.68,11.46c-.95,1.34-2.81.29-3.82.73-4.75-.36-19.44-4.33-21.51-8.09-1.56-2.85,1.61-13.27,4.61-14.88.66-.02,1.38-.08,2.01-.27Z"/>
          <path class="cls-99" d="M313.74,186.9c-1.88,6.13-20.36,13.96-26.72,13.93,7.12-4.84,14.57-8.38,19.72-15.01,5.77-7.44,2.62-18.25,3.66-20.91,1.56-3.98,7.25,9.27,3.34,21.99Z"/>
          <path class="cls-135" d="M338,179c-.04,3.43-.03,6.8.04,10.1-6.09,21.57-9.13,32.35-9.13,32.35,1.64,11.68,4.42,23.17,8.34,34.46l-1.52,2.01c-1.08-.14-.69,1.41-.72,2.07-4.64-11.35-7.37-23.57-10.04-36-.77-3.6.83-6.06,2-9.03,4.49-11.42,7.06-23.16,8.78-35.38.82-5.84-.94-11.38-1.16-16.84.43-.23.9-.38,1.37-.5,4.56,5.27,3.75,10.7,2.05,16.76Z"/>
          <path class="cls-61" d="M180.86,188.87c1.85,1.25,5.58,2.04,6.41,4.82,1.73,5.84-3.49,16.65-.27,17.31-.3,1.76-3.1,2.94-4.05,4.72-.38-5.78.8-13.04-3.48-17.27l-7.72-7.63c2.73-2.1,6.1-1.65,9.11-1.95Z"/>
          <path class="cls-41" d="M272.37,188.31c1.01-5.05,18.3-6.89,23.88-14.84,3.97-5.66.06-12.96,1.19-20.28,3.45,6.47,6.7,14.72,3.92,22.37-1.16,3.19-5.72,4.91-8.67,5.9l-20.32,6.85Z"/>
          <path class="cls-127" d="M249.01,300.71c-9.22,3.45-17.08,7.83-25.08,14.3,4.39-11.93,66.99-33.1,80.41-35.01l-55.33,20.71Z"/>
          <path class="cls-25" d="M265.36,176.76c5.02-5.04,16.36-7.42,18.79-15.49,1.48-4.92.71-9.54,1.88-14.87,3.84,6.91,4.17,14.61,2.34,22.01-7.65,3.07-14.45,6.45-23,8.35Z"/>
          <path class="cls-56" d="M167.18,251.36c-2.38,3.97-20.72,14.05-25.19,9.75s-9.13-8.26-11.86-13.86c5.06,3.24,8.58,8.41,14.82,8.86,7.7,1.08,13.64-3.46,22.22-4.76Z"/>
          <path class="cls-129" d="M165.73,235.5c-5.41,5.27-20.34,14.39-27.32,6.18-2.54-2.98-5.93-4.68-7.65-8.8,17.68,8.3,15.01,9.31,34.97,2.62Z"/>
          <path class="cls-53" d="M146.8,226.49c7.86.09,13.74-4.89,21.37-6.07-6.21,6.09-14.67,8.87-22.8,11.4-4.78-3.23-7.58-7.39-10.95-11.72,2.53-2.16,6.89,6.33,12.39,6.4Z"/>
          <path class="cls-121" d="M195,216c.79,1.33.77,3.81,0,5-.28.87-.62.86-1,0-.43-2.15-.77-4.51-1.02-7.1-.64-6.87,4.47-16.01.33-21.45l-7.27-9.55c.29-.23.54-.5.75-.81l8.9,10.08-.69,23.83Z"/>
          <path class="cls-33" d="M304.72,257.83l-.91-.98c-2.72-1.2-1.87-1.69.39-2.81l-.24-2.12c-1.6,1.17-3.85.68-5.01-.82l-.86-.82,4.15-3.48c-2.17-1.7-4.6-.71-6.13-2.56,4.31-.52,10.57-.7,13.16,1.99.94,4.29-2.86,8.34-4.55,11.6Z"/>
          <path class="cls-38" d="M206.77,205.85c2.74-3.97,3.8,33.08.9,30.93-2.34-10.33-2.61-20.24-.9-30.93Z"/>
          <path class="cls-47" d="M156.03,283.12c-1.74,3.52-12.44-6.3-15.79-8.15-1.66-.92-2.38-4.07-2.48-6.06,9.38,8,14.16,5.93,18.27,14.21Z"/>
          <path class="cls-36" d="M194,221c.84,10.4.82,22.39,0,33,1.26,1.51.84,2.08-.92,1-.28-.76-1.16-1.65-1.15-3.01l.29-28.9c.03-3.36,1.04-6.18.75-9.19,1.7,1.79,1.02,4.72,1.02,7.1Z"/>
          <path class="cls-65" d="M223.1,167.09c-2.65,4.17-4.05,9.36-4.23,14.69,8.2,5.49,14.94,5.31,21.13,8.28-2.34,2.04-19.86-3.21-22.27-8.55-2.06-4.58,2.37-10.04,3.03-14.36l2.34-.07Z"/>
          <path class="cls-52" d="M197.1,252.83c-.93,2.8,3.93,6.31.91,6.33-1.81.8-4.85-3.84-3.02-5.17-.84-10.4-.82-22.39,0-33v-5c.38-.12.99.36.99,1.06l-.03,32.98c0,1.3.73,2.18,1.15,2.8Z"/>
          <path class="cls-124" d="M247.83,240.96c-.71,1.05.09,2.13-.34,4.07-.43-1.78-1.43-2.77-2.33-4.03.15-3.76-2.2-6.95-3.21-11.12,4.9,2.04,3.72,7.6,5.88,11.08Z"/>
          <path class="cls-114" d="M184.02,165c-1.58.64-.86,2.6-.96,4.92-1.47,0-1.72-1.29-2.07-2.1,2.5-1.23.21-4.17-.11-7.53,2.04-.05,3.07,2.88,3.15,4.7Z"/>
          <path class="cls-93" d="M303.02,257.02c-1.94,5.11-6.71,8.9-12.08,11.21l-28.5,12.24-17.46,7.38c-.6.28-.9.03-.94-.67-1.78-2.08,1.39-4.89,4.25-6,.68-.26,1.2-.07,1.63.58,2.7-.48,5.43-1.14,8.21-1.97.13-1.46,1.44-6.98,2.28-7.09,7.24,3.21,11.45,1.92,12.62-3.88,2.4-1.68,5.43-1.82,9.11-.43,2.91-.04,5.11-2.13,6.6-6.27,2.98-.37,5.46-1.2,7.42-2.47.46-4.17,7.24-7.05,6.86-2.63Z"/>
          <path class="cls-58" d="M303.96,251.92c1.31,2.56-.31,3.71-4.86,3.45-2.25,4.19-5.54,6.33-9.87,6.41-1.97,4.34-4.41,6.54-7.33,6.6-4.18-1.62-7.23-1.32-9.13.9-1,5-4.51,6.35-10.54,4.04-2.61,1.13-3.67.13-2.22-2.4,3.45-.58,6.51-2.48,9.94-4.15l24.7-12.02c2.04-.99,3.01-2.52,4.3-3.63,1.48-1.28,3.91-.25,5.01.82Z"/>
          <path class="cls-132" d="M303.8,256.85c-.25.12-.51.17-.79.17-.81-1.03-2.18-1.45-3.27-.96-.99.44-1.78,1.36-2.14,2.6-1.93,6.61-7.87.63-9.6,6.28-2.94,9.62-12.99-1.71-15.34,6.95-1.9,7.02-10.92-.4-12.06,3.36-.68,2.25-1.54,3.29-2.49,4.54l-.98-.06c-2.39.1-1.79-3.03-1.07-4.6,1.2-2.6,1.4-.44,1.36-.58-.13-.52-.31-1.05-.5-1.59,1.02-.58,1.8-1.84,3.07-2.06-.76,1.45,8.78,2.94,9.31,2.83,2.16-.46,1.53-6.27,4.68-7.09,4.18-1.08,7.7,2.09,10.04.85.91-.48,1.78-1.85,2.29-3.15,2.96-7.62,7.95-1.36,9.59-6.43,2.22-6.86,8.85-1.26,8.04-6,.71.69,1.43,1.03.92,2.38-.24.62-1.1,1.32-1.07,2.55Z"/>
          <path class="cls-17" d="M257.14,279.73c-1.13,1.54-5.3,1.93-6.51.52-1.64.69-3.32,1.38-5.05,2.09-1.99,4.29-5.93,6.64-11.8,7.04-1.94,2.37-3.85,3.94-5.72,4.72-1.7.51-4.7.89-4.93-.97,10.76-7.58,22.39-13.68,33.81-20.16.45.07.97,0,1.59.21l-1.39,6.55Z"/>
          <path class="cls-82" d="M250.63,280.25c1.41,1.06.93,1.3-.72,1.51-3.39-.42-5.01,2.68-5.88,5.42-8.46,4.23-16.73,9.12-24.81,14.69-.21.47-.89.85-1.29,1.15-2.65.21-4.21-.45-4.7-1.97.1-1.36.75-2.43,1.96-3.02l2.27.34c2.67-3.26,6.2-4.68,10.6-4.25,2.51-2.12,3.58-5.79,7.52-6.43,14.21-2.31,2.69-6.43,15.05-7.42Z"/>
          <path class="cls-90" d="M244.97,287.85c-8.89,3.76-16.77,10.16-25.75,14.01,3.8-8.33,9.33-3.33,12.47-9.09,2.82-5.18,7.64-1.53,12.34-5.6.24.31.58.53.94.67Z"/>
          <path class="cls-91" d="M228.06,294.1c-3.12,2.63-5.02-2.28-8.68,4.28-.58,1.04-1.75,1.54-2.81,1.48-.96-.06-1.83-.52-1.37-1.84,2.77-1.36,5.4-3.1,7.93-4.89,1.35,1.16,3.25.87,4.93.97Z"/>
          <path class="cls-136" d="M213.24,301.04c1.71.2,3.64.54,4.7,1.97-1.11.81-2.67.54-3.85,1.08-3.12.83-6.86.5-2.92-1.99.57-.29,1.4-1.13,2.07-1.05Z"/>
          <path class="cls-85" d="M214.09,304.08c-2.68,1.21-5.65,1.45-9.24,1.87,1.61-2.59,4.18-2.77,6.32-3.87-.44.83-.22,1.65.49,1.81.99.22,1.73.22,2.43.19Z"/>
          <rect class="cls-109" x="194" y="221" width="1" height="33"/>
          <path class="cls-87" d="M257.14,279.73l.98.06c-2.04,2.72-4.99,2.37-8.21,1.97.08-.57.36-1.07.72-1.51l6.51-.52Z"/>
          <g>
            <path class="cls-112" d="M276.57,146.6c-7.26,6.88-2.07,15.19-11.71,20.93-4.69,2.79-9.45,1.03-14.03-.28-3.03-.86-5.54,2.44-8.97,1.72-.36-4.59.39-10.13,3.13-14.1,11.85-17.2,37.83-14.19,31.58-8.27Z"/>
            <g>
              <circle class="cls-7" cx="259.68" cy="157.58" r="8.29"/>
              <circle class="cls-2" cx="259.7" cy="156.94" r="2.29"/>
            </g>
          </g>
          <g>
            <path class="cls-118" d="M163.53,211.99c-5.07,4.69-11.98,3.26-16.48-.88-3.56-3.27-9.01.32-11.49-1.09s7.08-13.1,11.66-14.86c6.87-2.66,16.46-2.57,22.39,1.25l9.58,6.17-9.45,2.29c-2.83.69-3.79,4.9-6.2,7.12Z"/>
            <g>
              <circle class="cls-49" cx="156.03" cy="204.42" r="7.9"/>
              <circle class="cls-77" cx="156.23" cy="204.74" r="2.1"/>
            </g>
          </g>
        </g>
      </g>
      <g>
        <path class="cls-10" d="M256.87,35.95c6.18,18.33,9.27,27.49,9.27,27.49l1.59.41c2.56,2.72,4.44,9.61,2.28,13,.23,3.43,1.03,4.79,2.41,4.06,3.09,5.74,2.15,19.84-6.15,20.11-.22.59-.48,1.11-.9,1.32-7.43,3.84-22.71,8.22-31.45,10.53-.22.06-.57-.34-.94-.88-2.07.53-2.74.2-2-1,.26-1.09,1.48-1.75,3.66-1.97-14.43,4.42-28.32,9.74-41.66,15.97.28,1.07.13,2.12-.45,3.14.24.47.42.83.38.86-12.35,7.21-26.02,14.87-38.68,21.51-.2.11-.63-.2-1.12-.63-1.58.78-1.94.6-1.01-.99l-.53-1.22c2.58-1.25,2.68-1.83.31-1.73-1.65.6-3.25.99-4.79,1.16-1.61-.95-4.47-7.06-5.43-9.22-2.3-5.17-5.7-13.32-.59-16.88-1.17-1.87-.5-2.78,1.09-3.86,25.05-17.02,53.82-31.93,82.81-42.13l.71-.95c5.18-1.9,10.11-4.09,14.79-6.59-5.59.8-11.09,2.02-16.5,3.68-1.07,2.61-5.54,3.6-8.15,2.92-10.28,4.25-20.46,8.78-30.53,13.58-14.26,7.65-27.74,16.34-40.41,26.08-2.17,1.87-4.18,2.24-6.01,1.11-.85.38-2.06.84-2.58.32-2.96-2.96-2.88-30.99-2.44-35.28l2.14-2.89.04-.8-.03-.97c11.57-8.37,23.59-16.02,36.07-22.93,6.22-3.31,12.5-6.52,18.84-9.63,17.47-5.07,35.03-9.88,52.66-14.42,2.19.81,4.53.78,7.03-.08,2.28,1.4,7.05,5.22,6.25,7.82Z"/>
        <g>
          <path class="cls-12" d="M272.79,99.03c-1.78,1.83-4.36,2.35-6.43,3.66-1.86-.04-1.41-.49-.07-1.66,8.02-3.96,7.43-10.5,6.19-19.13-1.66,3.36.38,6.31-2.22,9.19-.53-6.02-1.46-11.82-3.34-17.96,1.85-.91,1.71.47,2.69,1.89,1.16-3.97-1.34-7.39-1.87-11.16l-1.46-.66s-3.14-9.08-9.41-27.25c-2.72-3.04-4.21-6.64-10.17-6.1-5.65.5-11.86,1.72-17.61,3.23l-25.46,6.66c-8.01,2.1-28.66,12.16-31.54,12.53,3.66-2.38,5.05-6.07,11.2-6.39,2.49-.13,5.07-5.54,8.71-5.03,3.87.54,7.32-1.84,10.99-2.81l36-9.49c1.08-.68-1.49-1.35-1.71-1.88-.51-1.2,1.27-2.31,2.23-2.2,3.82.41,3.76,2.69,6.21,3.42,2.82.84,2.91-2.41,6.59-1.87,1.06.15,1.38,1.42,1.63,2.79.53,2.89,4.39,3.45,5.3,5.76l6.63,16.71c1.67,4.2,9.93,32.9,9.14,36.79l-2.23,10.97Z"/>
          <g>
            <path class="cls-13" d="M172.1,52.27l-28.37,18.46c-2.8,1.82-5.63,3.15-7.67,5.44-.2,0-1.12-.35-.97-.61s.58-1.25,1.02-1.54l25.85-17.01c3.33-2.19,6.56-4.28,10.14-4.74Z"/>
            <path class="cls-128" d="M215.85,74.06c2.18-.91,4.48-.25,2.3,1.26,1.67-1.62,3.62-2.04,5.84-1.32.76-.27,1.06.11,1,1-25.61,10.53-52.25,23.41-75.65,39.45-2.96,2.03-6.25,4.11-8.26,6.54-3.07,4.1-8.79,9.39-13.96,9.14-2.95,1.96-6.69,4.15-10.65,3.31,4.02-4.88,8.4-8.21,12.49-11.7,3.02-2.58,7.43-3.52,9.92-6.91,1.91-1.22,5.21-2.76,7.64-4.52,21.35-15.46,44.66-28.09,69.32-36.25Z"/>
            <path class="cls-86" d="M224,74c-16.72,6.12-32.82,13.27-48.59,22.39-4.41,2.55-8.47,5.42-13.72,6.51,5.04-4.8,11.36-6.78,17.16-10.39,6.3-3.92,12.46-7.5,19.45-10.25l19.62-7.73c-.51-.63-1.32-.63-2.07-.47,2.63-.87,5.16-3,8.15-2.92,3.25-.59,6.54-1.58,9.89-2.97,1.19-.54,2.48,0,2.33,1.26-.13,1.16-10.23,4.94-12.22,4.57Z"/>
            <path class="cls-119" d="M152.14,148.88c-4.61,4.45-12.07,9.37-18.14,12.12-2.33,3.05-6.78,5.49-10.31,7.22-1.64.63-3.86,1.56-5.95-.18,6.75.05,11.08-8.21,16.24-10.08,7.48-2.71,11.88-8.53,17.93-12.02,10.92-6.3,21.32-12.46,33.1-16.88l-32.87,19.84Z"/>
            <path class="cls-55" d="M267.74,63.86c-1.65.58-.34,2.99-1.99,4.36-2.97-8.2-3.97-16.46-7.58-24.32-1.27-2.76-2.32-5.28-1.3-7.95,3.4,3.8,5.1,7.61,6.51,12.97s3.66,10.06,4.36,14.94Z"/>
            <path class="cls-64" d="M153.29,96.69c-1.03-5.35-3.28-20.58,2.22-24.07,1.16,3.82,3.71,24.15-2.22,24.07Z"/>
            <path class="cls-74" d="M225,75c-.3-.37-.63-.7-1-1,3.78-1.38,7.55-2.51,11.13-4.69-3.92-1.53-9.05,4.61-11.13,1.83,8.62-3.89,17.88-6.69,28.16-7.83-8.29,6.51-18.19,8-27.16,11.69Z"/>
            <path class="cls-16" d="M231,111c.1.43.17.77.11.8-11.86,4.81-24.97,10-37.02,14.18-.22.08-.63-.37-1.09-.98,3.87-3.29,8.87-5.07,14.02-7.01,11.5-4.34,22.53-8.73,34.35-11.95-2.63,3.95-7.12,3.77-10.38,4.97Z"/>
            <path class="cls-122" d="M246.25,104.68c3.24-2.96,7.88-3.45,12.41-4.93,2.78-.91,4.76-3.92,8.16-2.9-6.08,4.74-12.66,6.82-20.56,7.84Z"/>
            <path class="cls-15" d="M246.32,39.7c-1.36-.83-1.4-2.86-1.01-3.91.32-.87,1.15-2.48,2.77-2.51,2.4-.05,3.01,2.54,2.69,4.1-.39,1.88-2.5,3.51-4.44,2.32Z"/>
            <circle class="cls-116" cx="258.13" cy="60.71" r="3.17"/>
            <circle class="cls-133" cx="262.6" cy="91.57" r="3.25"/>
            <g>
              <path class="cls-117" d="M161.51,135.35c-4.18-.92-1.48-4.97-2.38-7.46-2.15-5.94-3.23-12.45.95-17.94,3,.94,1.33,3.88,1.97,6.05,1.82,6.23,2.78,12.68-.54,19.34Z"/>
              <path class="cls-39" d="M161.68,126.77c-2.31-3.99-2.79-4.7-2.18-10.22,2.24,4.07,1.6,6.66,2.18,10.22Z"/>
            </g>
            <g>
              <path class="cls-46" d="M187.69,121.13c-2.29-.31-3.31.09-4.6-.3-.66-2.81.98-5.93-.19-8.65-2.7-6.28-2.26-13.07,1.6-13.36,1.2-.09,4.63,10.16,3.94,7.51,1.31,5.02-.44,10.1-.76,14.81Z"/>
              <path class="cls-100" d="M185.07,119.86c1.36-13.73-3.79-10.32-1.25-16.2,4.11,2.27,4.29,16.91,1.25,16.2Z"/>
            </g>
            <g>
              <path class="cls-3" d="M179.33,71.28c.32,1.11.6,13.52-2.87,13.01s-.03-4.49-3.9-13.65c-1.4-3.32.26-8.85,3.35-10.54,1.38-.15,1.77,2.85,1.45,3.81-1.13,3.33,1.25,4.91,1.97,7.37Z"/>
              <path class="cls-106" d="M176.35,82.14c.37-12.57-3.92-10.96-1.59-15.78,3.33,5.07,4.3,10.55,1.59,15.78Z"/>
            </g>
          </g>
        </g>
      </g>
    </g>
  </g>
</svg>