<?xml version="1.0" encoding="UTF-8"?>
<svg id="Layer_1" data-name="Layer 1" xmlns="http://www.w3.org/2000/svg" xmlns:xlink="http://www.w3.org/1999/xlink" viewBox="0 0 512 512">
  <defs>
    <style>
      .cls-1 {
        fill: #cd9786;
      }

      .cls-2 {
        fill: #704d37;
      }

      .cls-3 {
        fill: #a27662;
      }

      .cls-4 {
        fill: #6c4b38;
      }

      .cls-5 {
        fill: #f2cda1;
      }

      .cls-6 {
        fill: #79543e;
      }

      .cls-7 {
        fill: #1b100a;
      }

      .cls-8 {
        fill: #2f2330;
      }

      .cls-9 {
        fill: #4a5870;
      }

      .cls-10 {
        fill: #0f0a0b;
      }

      .cls-11 {
        fill: #90614b;
      }

      .cls-12 {
        fill: #9d6c4f;
      }

      .cls-13 {
        fill: #553e28;
      }

      .cls-14 {
        fill: #4c5b83;
      }

      .cls-15 {
        fill: #f4dbc7;
      }

      .cls-16 {
        fill: #cdb19c;
      }

      .cls-17 {
        fill: #846d58;
      }

      .cls-18 {
        fill: #424f79;
      }

      .cls-19 {
        fill: url(#linear-gradient-2);
      }

      .cls-20 {
        fill: #704c39;
      }

      .cls-21 {
        fill: #322334;
      }

      .cls-22 {
        fill: #6f1d12;
      }

      .cls-23 {
        fill: #c19d96;
      }

      .cls-24 {
        fill: #ed7927;
      }

      .cls-25 {
        fill: #3d2515;
      }

      .cls-26 {
        fill: #4a5285;
      }

      .cls-27 {
        fill: #a36746;
      }

      .cls-28 {
        fill: #475187;
      }

      .cls-29 {
        fill: #242b35;
      }

      .cls-30 {
        fill: #abb8cf;
      }

      .cls-31 {
        fill: #721c25;
      }

      .cls-32 {
        fill: #744e3a;
      }

      .cls-33 {
        fill: #694934;
      }

      .cls-34 {
        fill: #6e6b83;
      }

      .cls-35 {
        fill: #322839;
      }

      .cls-36 {
        fill: #92542e;
      }

      .cls-37 {
        fill: #32172c;
      }

      .cls-38 {
        fill: #1e2145;
      }

      .cls-39 {
        fill: #51321b;
      }

      .cls-40 {
        fill: #ae8c88;
      }

      .cls-41 {
        fill: #c16b2e;
      }

      .cls-42 {
        fill: #84573b;
      }

      .cls-43 {
        fill: #2c1e11;
      }

      .cls-44 {
        fill: #54637c;
      }

      .cls-45 {
        fill: #5c362a;
      }

      .cls-46 {
        fill: #4f311e;
      }

      .cls-47 {
        fill: #4d5a73;
      }

      .cls-48 {
        fill: #38344d;
      }

      .cls-49 {
        fill: #aebbd7;
      }

      .cls-50 {
        fill: #37241a;
      }

      .cls-51 {
        fill: #66748d;
      }

      .cls-52 {
        fill: #ab9dad;
      }

      .cls-53 {
        fill: #623922;
      }

      .cls-54 {
        fill: #453645;
      }

      .cls-55 {
        fill: #b2aca1;
      }

      .cls-56 {
        fill: #23314a;
      }

      .cls-57 {
        fill: #34293a;
      }

      .cls-58 {
        fill: #644433;
      }

      .cls-59 {
        fill: #5e4437;
      }

      .cls-60 {
        fill: #ababa5;
      }

      .cls-61 {
        fill: #bb9c94;
      }

      .cls-62 {
        fill: #39334a;
      }

      .cls-63 {
        fill: #5f6d86;
      }

      .cls-64 {
        fill: #af7e5c;
      }

      .cls-65 {
        fill: url(#linear-gradient-4);
      }

      .cls-66 {
        fill: #352537;
      }

      .cls-67 {
        fill: #475184;
      }

      .cls-68 {
        fill: #a06c4f;
      }

      .cls-69 {
        fill: #3d4970;
      }

      .cls-70 {
        fill: #b07b59;
      }

      .cls-71 {
        fill: #4b3121;
      }

      .cls-72 {
        fill: #2f3b62;
      }

      .cls-73 {
        fill: #6d686c;
      }

      .cls-74 {
        fill: #331725;
      }

      .cls-75 {
        fill: #202e46;
      }

      .cls-76 {
        fill: #2a2320;
      }

      .cls-77 {
        fill: #7f96cc;
      }

      .cls-78 {
        fill: #532715;
      }

      .cls-79 {
        fill: #1f2a58;
      }

      .cls-80 {
        fill: #691f27;
      }

      .cls-81 {
        fill: #242d59;
      }

      .cls-82 {
        fill: url(#linear-gradient-3);
      }

      .cls-83 {
        fill: #c99a8d;
      }

      .cls-84 {
        fill: #d5c2bf;
      }

      .cls-85 {
        fill: #ebe7e3;
      }

      .cls-86 {
        fill: #a68d8a;
      }

      .cls-87 {
        fill: #40131b;
      }

      .cls-88 {
        fill: #6d4935;
      }

      .cls-89 {
        fill: #816a5c;
      }

      .cls-90 {
        fill: #94928f;
      }

      .cls-91 {
        fill: #7a675b;
      }

      .cls-92 {
        fill: #cc9889;
      }

      .cls-93 {
        fill: #cb996c;
      }

      .cls-94 {
        fill: #263550;
      }

      .cls-95 {
        fill: #52403b;
      }

      .cls-96 {
        fill: #7d91c9;
      }

      .cls-97 {
        fill: #35425f;
      }

      .cls-98 {
        fill: #b69894;
      }

      .cls-99 {
        fill: #c29992;
      }

      .cls-100 {
        fill: #ebd9d0;
      }

      .cls-101 {
        fill: #bfa593;
      }

      .cls-102 {
        fill: #744b2f;
      }

      .cls-103 {
        fill: #433847;
      }

      .cls-104 {
        fill: #731c25;
      }

      .cls-105 {
        fill: #1f2958;
      }

      .cls-106 {
        fill: #815642;
      }

      .cls-107 {
        fill: #a07255;
      }

      .cls-108 {
        fill: #823139;
      }

      .cls-109 {
        fill: #4b353c;
      }

      .cls-110 {
        fill: #f6cda7;
      }

      .cls-111 {
        fill: #c29f95;
      }

      .cls-112 {
        fill: #2c1b0f;
      }

      .cls-113 {
        fill: #cb9786;
      }

      .cls-114 {
        fill: #f2dac9;
      }

      .cls-115 {
        fill: #6a3b2e;
      }

      .cls-116 {
        fill: #5e4a49;
      }

      .cls-117 {
        fill: #9a6850;
      }

      .cls-118 {
        fill: #bb8966;
      }

      .cls-119 {
        fill: #d19787;
      }

      .cls-120 {
        fill: #76543d;
      }

      .cls-121 {
        fill: #a77356;
      }

      .cls-122 {
        fill: #a0303d;
      }

      .cls-123 {
        fill: #edcbbf;
      }

      .cls-124 {
        fill: #654430;
      }

      .cls-125 {
        fill: #f3d9c6;
      }

      .cls-126 {
        fill: #976a54;
      }

      .cls-127 {
        fill: #8894c4;
      }

      .cls-128 {
        fill: #472916;
      }

      .cls-129 {
        fill: #aa9eab;
      }

      .cls-130 {
        fill: #505d77;
      }

      .cls-131 {
        fill: #7c533b;
      }

      .cls-132 {
        fill: #7b5e49;
      }

      .cls-133 {
        fill: #afbcd6;
      }

      .cls-134 {
        fill: #8c5a40;
      }

      .cls-135 {
        fill: #3b2d42;
      }

      .cls-136 {
        fill: #df7a34;
      }

      .cls-137 {
        fill: #24170e;
      }

      .cls-138 {
        fill: #69617a;
      }

      .cls-139 {
        fill: #475185;
      }

      .cls-140 {
        fill: #9f4423;
      }

      .cls-141 {
        fill: #a24e24;
      }

      .cls-142 {
        fill: #e8e9e9;
      }

      .cls-143 {
        fill: #423336;
      }

      .cls-144 {
        fill: #4f301d;
      }

      .cls-145 {
        fill: #574243;
      }

      .cls-146 {
        fill: #abafad;
      }

      .cls-147 {
        fill: #a6abd3;
      }

      .cls-148 {
        fill: #485184;
      }

      .cls-149 {
        fill: #563622;
      }

      .cls-150 {
        fill: #2e1319;
      }

      .cls-151 {
        fill: #aebcd7;
      }

      .cls-152 {
        fill: #2e1317;
      }

      .cls-153 {
        fill: #202858;
      }

      .cls-154 {
        fill: #aebcd6;
      }

      .cls-155 {
        fill: #59120a;
      }

      .cls-156 {
        fill: #242b36;
      }

      .cls-157 {
        fill: #764c37;
      }

      .cls-158 {
        fill: #abbbd8;
      }

      .cls-159 {
        fill: #976244;
      }

      .cls-160 {
        fill: #482f1c;
      }

      .cls-161 {
        fill: #b48360;
      }

      .cls-162 {
        fill: #5a1710;
      }

      .cls-163 {
        fill: #998991;
      }

      .cls-164 {
        fill: #7077aa;
      }

      .cls-165 {
        fill: #364568;
      }

      .cls-166 {
        fill: #c69e8d;
      }

      .cls-167 {
        fill: #6e78b8;
      }

      .cls-168 {
        fill: #502e1c;
      }

      .cls-169 {
        fill: #674633;
      }

      .cls-170 {
        fill: url(#linear-gradient);
      }

      .cls-171 {
        fill: #967265;
      }

      .cls-172 {
        fill: #1b110b;
      }

      .cls-173 {
        fill: #211827;
      }

      .cls-174 {
        fill: #adbad3;
      }

      .cls-175 {
        fill: #515f78;
      }

      .cls-176 {
        fill: #a5303c;
      }

      .cls-177 {
        fill: #79513b;
      }

      .cls-178 {
        fill: #9d725e;
      }

      .cls-179 {
        fill: #5d505f;
      }

      .cls-180 {
        fill: #eae6e5;
      }

      .cls-181 {
        fill: #794c3a;
      }

      .cls-182 {
        fill: #362012;
      }

      .cls-183 {
        fill: #70533f;
      }

      .cls-184 {
        fill: #8894c8;
      }

      .cls-185 {
        fill: #825945;
      }

      .cls-186 {
        fill: #563a27;
      }

      .cls-187 {
        fill: #202959;
      }

      .cls-188 {
        fill: #4a5182;
      }

      .cls-189 {
        fill: #815841;
      }

      .cls-190 {
        fill: #afbcda;
      }

      .cls-191 {
        fill: #68432f;
      }

      .cls-192 {
        fill: #cf874f;
      }

      .cls-193 {
        fill: #120b0d;
      }
    </style>
    <linearGradient id="linear-gradient" x1="53.48" y1="106.73" x2="27.59" y2="111.31" gradientTransform="translate(56.46 46.58) scale(.84)" gradientUnits="userSpaceOnUse">
      <stop offset="0" stop-color="#302921"/>
      <stop offset=".68" stop-color="#2f1d11"/>
      <stop offset="1" stop-color="#452a1a"/>
    </linearGradient>
    <linearGradient id="linear-gradient-2" x1="468.53" y1="74.16" x2="448.32" y2="247.49" gradientTransform="translate(56.46 46.58) scale(.84)" gradientUnits="userSpaceOnUse">
      <stop offset="0" stop-color="#6f4c37"/>
      <stop offset=".14" stop-color="#9f7158"/>
      <stop offset=".4" stop-color="#7f553e"/>
      <stop offset=".78" stop-color="#724d36"/>
      <stop offset="1" stop-color="#7d5a4a"/>
    </linearGradient>
    <linearGradient id="linear-gradient-3" x1="70.76" y1="1.56" x2="180.93" y2="16.32" gradientTransform="translate(56.46 46.58) scale(.84)" gradientUnits="userSpaceOnUse">
      <stop offset="0" stop-color="#7f95cc"/>
      <stop offset=".47" stop-color="#8296c4"/>
      <stop offset=".63" stop-color="#acbad9"/>
      <stop offset="1" stop-color="#aebcd8"/>
    </linearGradient>
    <linearGradient id="linear-gradient-4" x1="27.28" y1="147.61" x2="15.04" y2="173.55" gradientTransform="translate(56.46 46.58) scale(.84)" gradientUnits="userSpaceOnUse">
      <stop offset="0" stop-color="#714b36"/>
      <stop offset=".25" stop-color="#69422e"/>
      <stop offset="1" stop-color="#7f5741"/>
    </linearGradient>
  </defs>
  <path class="cls-27" d="M61.12,287.15c1.42-.43,1.73.48.94,2.73,1.78.75.93,4.56.14,6.16-1.35,2.73-9.56,9.55-12.52,11.98-7.87,3.32-8.7,5.95-8.37,13.89.2,4.91,1.24,9.92,2.28,14.73-.77,2.39-.27,4.38,1.48,5.96,1.64,1.83,1.46,4.22-.55,7.18-4.68,5.9-9.1,11.99-13.26,18.27-1.79,1.79-3.33,2.77-5.21.69-13.71-28.41-22.31-58.83-25.14-90.69-.08-.86-.34-1.29-.88-1.16v-12.99c.9-2.4,1.98-4.74,3.25-7.01-2.52-10.4,7.05-16.75,10.59-4.73,4.49-.92,8.67-2.1,12.52-3.55,6.06,3.43,10.05,7.2,12.76,13.83,4.27,2.8,6.91,6.27,7.93,10.43-1.4,8.87-3.02,17.7-4.88,26.47,6.95,2.54,11.2-3.06,12.95-9.34,1.54-2.48,3.48-5.3,6-2.84Z"/>
  <path class="cls-70" d="M0,236.9v-1c2.69-12.62,3.11-25.67,7-38.06,1.24-2.07,3.74-2.35,7.49-.87l2.38-3.69c2.13-10.42,6.43-19.56,12.89-27.41,5.44-2.33,11.1-4.13,16.97-5.4,1.6-5.45,4.65-10.2,9.14-14.25-.78-2.98-1.05-5.19.53-8.06.36-.65,9.64-10.35,10.25-10.78l2.35.54c1.36.62,1.71,1.83,1.05,3.63-3.41,6.24-6.02,12.85-7.82,19.85-1.93,1.08-3.33,2.46-4.2,4.13l-2.15,29.99c2.38,7.36,1.06,12.87-3.97,16.53-1.74,5.83-3.34,11.7-4.8,17.61,1.29,5.54,2.16,11.09,2.61,16.65,1.47,5.87,6.06,15.45,8.97,21.1,1.84,3.58,4.58,6.53,8.15,8.48,2.17,10.1-3.01,17.15-10.88,22.78-1.4,5.01-8.12,15.99-12.32,7.5-.61-1.24,2.5-20.62,3.1-23.62l2.18-3.97c-7.94-1.64-12.49-9.43-15.59-16.37-2.17-4.85-5.68-14.51-4.24-19.26,4.09-3.13,6.19-8.04,7.29-12.97.38-1.7-.47-10.7-2.06-9.49-3.02,2.29-7.82,13.92-7.14,18.33-1.73,3.12-4.99,3.7-9.76,1.74-2.38.67-4.5,2.95-6.36,6.84-3.47,2.96-9.39,4.33-11.07-.48Z"/>
  <path class="cls-107" d="M61.12,287.15c-4.24.8-5.81,5.7-7.47,9.7-2.2,5.31-9.52,6.44-14.13,3.58,2.17-4.21,1.56-8.12,3.31-12.02,3.09-6.87,4.62-16.77-1.73-22.25-3.2-2.75-4.8-5.7-7.08-9.51-1.68-2.8-6.64-3.07-7.36-6.93-1.94,3.78-4.49,2.05-7.22,2.62-2.46.51-6.37,3.77-7.78-.14-.73-2.02-.5-4.66-3.38-4.44-6.82.51.49,9.52-8.26,16.12v-5c1.17-3.94.9-10.9.5-15.31-.05-.6-.14-1.18-.5-1.68v-5c2.73.43,5.07,1.94,7.7.48,2.1-1.16,3.49-2.8,4.6-5.39,3.35-7.77,10.95.47,12.78-3.26,1.35-2.75-2.11-2.83,4.41-14.27,1.38-2.42,3.16-4.14,4.04-7.5,6.51,5.07,6.06,11.87,3.27,17.95-1.29,2.8-1.31,5.65-4.4,7.45-2.28,1.32-2.82,4.31-1.54,6.65,2.69,4.89,2.83,10.52,5.74,15.18,1.43,2.29,2.16,4.56,3.14,6.92,1.62,3.87,7.14,4.03,10.12,5.8,2.4,1.42-.24,4.3-.97,5.69-.85,1.63-5.31,18.5-3.11,23.64.68,1.6,4.52.31,5.43-.72s1.38-2.95,1.92-4.61c3.12-9.54,12.56-5.45,12.23-24.08-5.81-2.02-7.46-7.06-8.91-12.3-1.57-5.66-4.58-10.73-7.15-15.97-1.59-3.24-.6-7.02-1.85-10.18-4.4-11.11.08-11.88,2.24-25.71.48-3.06,2.99-3.83,4.55-5.56,2.34-2.6-.51-7.15-.19-10.31l2.52-24.65c.34-3.35-1.56-7.23,1.87-9.67,4.59-3.27,3.65-8.59,5.38-13.13,1.54-4.03,4.58-7.14,5.2-11.43-3.2-2.8.98-6.29,3.99-6.97-.32,6.35-.08,12.7.73,19.05,2.39,8.06.8,13.11-4.76,15.17-6.92-1.59-9.62,2.09-8.09,11.05-1.3,5.36-3.52,17.36-1.41,22.68,3.45,4.25,4.09,7.99,1.89,11.2-8.27,9.52-14.32,17.99-8.15,30.85-1.46,7.01,3.65,17.99,7.51,23.82.82,1.23,2.19,2.23,3.68,2.26,2.78-5.01,10.26-9.7,12.96-2.21,1.59,4.4-10.4,29.71-14.93,32.49-.29.18-.78.05-1.32-.18Z"/>
  <path class="cls-112" d="M506.98,206.7c1.59,8.66,3.75,17.4,3.85,26.28-.61.46-1.39,1.02-2,.78-2.15-.85-5.01,1.31-6.37,3.47,3.76,6.6,2.9,11.51-2.58,14.73,3.76,2.63,7.85,5.26,12.12,6.78v13.14c-.08.5-.19.97-.45,1.35-.9,1.34-10.65-5.34-11.98-6.81-2.69-2.97-4.46-7.99-5.42-11.51-5.17-5.19-5.6-7.9.87-11.86-1.69-4.1.29-8.02,5.95-11.77,3.32-6.62,1.96-20.59-3.3-26.22l.37-1.31c2.4-1.73,7.98.16,8.93,2.95Z"/>
  <path class="cls-7" d="M510.83,232.98c.01,1.09-.09,2.53,1.17,2.93v22.84l-2.01,2.38c-1.46-3.03-15.72-7.36-11.62-10.59,2.34-1.85,4.32-2.48,4.49-5.42.13-2.12-1.07-3.73-2.27-5.97-2.09-3.9,6.47-8.28,7.83-8.18.86.07,1.64,1.25,2.4,2.01Z"/>
  <path class="cls-70" d="M0,258.89v-16.99c2.32.64-.27,6.35,1.99,14.08.44,1.51-1.01,2.74-1.99,2.91Z"/>
  <path class="cls-170" d="M95.95,78.92c.61,1.17.59,1.9-.07,2.21-.9-.19-1.53.68-1.9,1.81l-7.98,24.23c-3.21,9.74-4.9,19.16-5.52,29.35l-1.3,21.39c-.39,6.34,1.18,12.25,1.75,17.97,1.17,11.61,1.86,23.5,4.31,34.95.43,2.45.11,3.22-.95,2.32-3.52,1.01-5.51-6.98-2.27-8.15-1.21-2.95-1.76-6.14-1.67-9.58-.8-.04-1.45-.14-1.61-.48-.72-1.51-3.56-25.47-3.61-28.78-.1-6.2.25-12.3,1.87-18.23,1.38-3.57.45-7.23-.88-10.77.64-4.06-.06-6.46-2.12-7.22-1.74-.81-1.18-5.55,0-7,1.25-11.64.09-23.27-3.49-34.89-.85-3.05-.7-5.74.46-8.07,4.37-6.4,11.11-12.2,17.43-16.67,2.05-.54,3.46.5,4.24,3.12,1.69,2.98,4.8,9.7,3.31,12.49Z"/>
  <path class="cls-19" d="M439.87,112.94c6.07-1.25,12.29-2.05,18.67-2.38,2.48-1.32,4.66-1.78,6.54-1.4,6.4,7.73,12.03,16.5,15.92,25.78,1.53,5-3.93,6.43-8.21,3.83-8.36-12.75-16.4-3.34-12.96,8.6,6.62,1.18,13.33,1.53,20.13,1.04,2.1,1.35,3.71,3.51,4.84,6.46,1.71-.4,2.33.81,1.12,2.06,1.48,3.45,1.41,7.09-.8,10.21,2.29,3.26-5.2,8.78-8.8,7.7-2.95-5.16-8.02-11.81-12.39-4.07,2.18,1.6,1.8,4.29-1.14,8.07,3.71,8.41,7.47,22.65.91,29.79-.36,3.54-1.22,6.91-2.59,10.14.57.42.99.77.94.88-.98,2.02-2.66,4.21-4.21,5.85-1.77,1.87-7.09,7.12-7.92,4.26-1.32-.29-1.48-.43-.48-.4-5.5,7.85-11.97,14.8-19.4,20.85-6.96.62-13.31,2.53-19.03,5.71-1.47,1.81-2.94,2.96-4.43,3.45-1.37-5.61-.75-11.88-.46-18.35l.89-20.1c1.05,2.16,1.34-14.82,1.55-18.52,1.54-27.09-.33-53.8-2.55-80.44l-.77-2.32c1.35-4.48,1.19-6.37-.5-5.68-.52-1.76-1.38-3.88-.87-5.81.72-2.23,3.31-2.29,7.76-.18l10.01.04c6.11,2.4,12.19,4.04,18.23,4.93Z"/>
  <path class="cls-64" d="M429.93,68.89l-.6,2.54c-5.01-.15-7.75,1.48-8.22,4.89,2.11,8.67-6.92,11.71-13.82,13.92-4.11,2.18-7.23,2.11-9.36-.2l-9.95-22.2-11.98-22.03c-2.37-5.34-1.63-11.31,4.12-13.46,18.01,9.89,35.57,21.72,49.8,36.53Z"/>
  <path class="cls-124" d="M494.24,162.94c1.21,7.1-1.99,12.55-7.94,16.58-1.29,9.19-3.99,15.96-9.24,23.58-.48.7-1.48.5-2.36-.04-5.1,2.53-8.71,7.28-10.84,14.25-.83,1.63-1.75,2.11-2.76,1.44-.7-16.17,2.99-10.72,3.47-14.09,1.26-8.82.06-17.6-3.7-25.67.59-3.26,3.32-5.38,3.05-8.25,3.23-5.63,7.6-4.23,13.09,4.19,8.94-1.21,14.96-12.97,8.94-20.63-1.74-4.41-1.36-6.86,1.16-7.35,3.13,4.43,5.53,10.64,7.14,15.97Z"/>
  <path class="cls-157" d="M439.99,78.82c3.39,3.26,8.08,6.6,10.1,11.06.54,2.95-5.93,7.38-8.65,8.89-8.55,4.71-27.32,5.24-36.85,4.19l-2.67-1.89c-.59-2.71-3-5.19-3.08-8.13,1.69-1.1,3.98-1.8,6.88-2.11,4.96-1.75,9.65-3.97,14.07-6.66,3.18-7.91,9.92-9.7,20.21-5.36Z"/>
  <path class="cls-25" d="M496.51,168.74c.17,1.21.92,3.03,1.4,4.18l.28,2.22c-9.53,6.82-10.02,19.38-.18,26.2l.04,2.42c3.89,3.68,4.81,8.49,5.24,14.09.35,4.6,2.11,9.25-1.03,13.26-2.11,2.7-5.72,4.51-6.92,7.76l1.77,3.59c1.41,2.86-7.47,3.79-4.65,9.01.71,1.32,1.43,2.33,1.7,3.44l-7.19-5.94c-3.73.34-7.73,2.53-8.92-.8-.9-2.51,3.85-3.03,4.95-5.24.17-.9.49-.86.93,0,3.84-1.28,7.49-2.6,9.79-6.16l-.44-.89c6.69-4.21,8.82-9.45,6.39-15.73,1.26-6.98-.3-12.06-4.67-15.23-5.77-.09-11.48,2.14-17.11,6.71-3.22-.23-5.28-1.05-4.71-4.58,8.18-7.16,11.21-16.86,13.12-27.17l6.09-6.22c1.03-4.25,2.4-5.88,4.12-4.91Z"/>
  <path class="cls-144" d="M496.51,168.74c-1.28.33-1.65,1.98-2.04,3.42-.99,3.59-4.21,5.16-6.22,8.06-2.63,3.79-4.63,20.4-14.08,28.32,11.44,5.34,9.08-8.72,20.83-3.62-5.51,1.81-10.59,4.54-15.25,8.2-7.62,7.72-15.02,15.73-22.19,24.01-.75.71-9.79,6.17-10.4,6.21-7.18.5,1.81-10.72,3.74-12.63,5.69-3.45,10.25-8.29,13.68-14.52,1.79-6.52,5.16-10.9,10.11-13.12,2.16-1.35,2.5-3.21,4.27-5.1,5.12-5.49,4.74-13.07,5.79-19.5,11.95-7.04,5.69-10.9,9.49-15.52.6,1.98,1.98,3.63,2.27,5.79Z"/>
  <path class="cls-189" d="M481,134.93c.84,2.01,3.01,3.53,3.6,5.96.28,4.4.71,8.76,1.29,13.08l-1.09.88c-1.93-.46-3.4-3.55-5.23-4.6-3.91.66-19.64.17-21.06-1.33-2-2.11-3.76-15.25,5.14-18.26,7.95-2.68,9.87,14.62,17.34,4.26Z"/>
  <path class="cls-168" d="M452.76,92.84c-.43,3.02-2.72,5.4-6.89,7.14l-7.18,3.49c-13.14,1.59-4.88,8.43,2.2,4.84,3.05-.97,4.78-.4,5.19,1.7.97.4,1.31,1.01.85,1.87l-7.07,1.06c-5.33,1.89-10.74-.47-16.23-2.43-4.24-1.51-9.03.27-13.44-.78-2.32-.55-4.21-1.98-6.33-1.59-2.1-1.84-1.91-4.67-1.94-7.07,8.71-.53,17.52.72,26.6-.49,17.35-2.32,7.85-1.51,21.58-10.69,1.35.18,1.84,2.37,2.67,2.96Z"/>
  <path class="cls-172" d="M497.91,172.92c4.48,10.8,6.97,22.33,9.07,33.78-3.23-.53-6.15-1.23-8.93-2.95-6.7-4.14-10.83-11.23-8.66-19.86,1.11-4.41,5.03-8.5,8.52-10.98Z"/>
  <path class="cls-182" d="M452.76,92.84c2.79,1.43,5.07,6.98,7.28,9.09,3.62,6.14-10.5,12.19-13.95,8.09-10.53-.47-3.25,3.85-14.09.06-1.64-.57-2.25-2.41-2.3-3.52-.03-.83.37-3.08,1.53-3.24,8.65-1.19,14.99-5.64,21.53-10.46Z"/>
  <path class="cls-12" d="M439.99,78.82c-5.89,3.72-13.5-5.25-17.68,4.41-1.72,3.98-20.03,12.67-23.48,9.71-.02-.8-.57-2.17-.9-2.91,3.37.46,6.69-.35,9.93-2.24s6.99-2.15,10.29-3.67c2.41-1.11-.76-8.26,2.47-11.99,2.92-3.38,6.01-.99,9.31-3.24,4.5,1.92,6.78,6.78,10.06,9.93Z"/>
  <path class="cls-178" d="M380.13,32.35c.01,2.43-2.55,3.99-3.4,6.4-.79,2.24.77,5.07-.72,7.06-7.5-9.98-13.14-16.44-21.01-25.86,8.85,3.17,16.95,7.92,25.13,12.4Z"/>
  <path class="cls-177" d="M487.1,146.97c-4.23,6.43,6,8.72.6,22.14-1.8,4.47-7.66,6.65-11.83,8.52l-2.88-5.81c-.98-1.98-2.51-3.04-4.53-3.08-1.68-.04-3.42.56-4.55,2.02-.18-1.9.61-3.27,1.74-4.03,1.8-1.22,4.63-1.35,5.69-.13l4.94,5.66c3.58,4.1,6.85-3.01,8.82-5.13,2.2-3.23,2.21-6.66.8-10.21-.48-.57-.99-1.31-1.12-2.06-.81-4.67-1.93-9.58-.2-13.96.44,1.79,2.42,4.19,2.51,6.08Z"/>
  <path class="cls-186" d="M465.08,109.15c-2.64,3.31-7.47,3.85-12.05,3.84l-13.16-.05c-1.57-1.57,5.56.04,6.22-2.93,5.59-.19,12.53-2.4,13.95-8.09,2.28,2.18,3.18,4.97,5.04,7.23Z"/>
  <path class="cls-106" d="M509.92,285.8c-.19.63.21,1.43.11,2.08l-7.16,19.01c-5.15,8.85-8.07,18.04-8.77,27.58,2.06-1.3,3.72-2.26,4.87.45-.77,1.81,0,4.86-2.07,6.2-12.09,11.45-16.52-4.08-12.5-14.39-3.05.97-6.41,1.1-10.06.39-5.66,4.51-11.42,6.45-17.27,5.83-2.77-3.87-.12-6.09,7.96-6.66,3.29-3.01,6.86-5.69,10.71-8.06,6.5-8.56,15.25-25.99-3.44-21.85-3.54-.63-6.43-2.99-8.66-7.08-4.17-3.75-7.72-2.08-10.64,5.03-4.54,4.65-9.77,8.67-15.71,12.06l-9.77,11.46c-4.32,1-9.08.92-14.3-.22-1.61,5.18-4.52,8.82-9.97,10.31-1.37,2.74-2.81,3.42-4.33,2.04.06-3.76.5-7.05,1.38-11.34,1.23-5.98.04-12.15,1.62-17.72.83-1.29,2.26-2.17,4.3-2.62,5.17-4.57,10.66-8.11,17.5-9.83,5.7-4.11,11.6-8.03,17.68-11.75,11.89-6.48,26.4-13.93,30.76,4.93,4.33-.71,8.26-3.37,11.79-7.99,1.16-.77,2.73-1.41,4.1-1.04,3.96,1.05,12.7,11.87,15.58,15.51,2.37-1.68,4.47-2.46,6.3-2.35Z"/>
  <path class="cls-4" d="M509.67,280.02c.33-.49.78-.89,1.33-1.13.29,2.38-.41,4.64-1.08,6.91-3.19,1.71-2.1,4.15-6.31,4.26-1.67.04-1.77-1.63-2.93-2.85l-10.71-11.22c-5.81-6.09-8.97,9.1-18.26,7.71-3.45-.52-.01-11.08-11.57-12.04-9.84-.82-18.95,7.23-25.96,12.34-2.55,1.86-5.68,2.41-8.06,5.07-2.79,3.11-8.39,2.21-11.8,4.37-4.2,2.66-7.46,6.93-12.4,7.5.32-1.13.27-1.99.92-3.01,3.38-3.3,9.01-7,13.25-9.69,11.33-7.21,23.39-13.67,36.03-18.28l-.35-1.43c2.37-1.92,5.43-3.22,9.19-3.91,4.59-3.84,9.61-6.51,15.04-8.01,10.4-8.49,22.38-2.11,13.22,10.5,1.35,2.11,2.96,3.92,4.83,5.41,5.96.44,9.91,3.91,11.83,10.41,1.26-.57,2.52-1.54,3.8-2.9Z"/>
  <path class="cls-88" d="M496.9,341.13c.06.66-.64,1.44-.72,2.04-5.33,9.4-12.9,6.72-15.47-3.29l-12.75,4.02c-6.4,5.03-12.77,6.45-19.13,4.24-3.27,1.74-6.22,2.38-8.85,1.92-1.36-.42-1.05-1.16.93-2.22,1.64-4.41,6.73-8.69,11.94-7.81.25-3.94,1.66-6.3,4.21-7.07,1.68-2.86,5.67-1.27,8.27-2.73,3.86-2.17,7.25-6.39,12.24-4.93,7.57,2.2,7.83-4.82,10.25-1.86.88,1.08-5.43,6.16-1.95,18.47,1.63,5.75,9.53-1.64,11.02-.78Z"/>
  <path class="cls-71" d="M496.17,343.17c-.59,4.23-2.43,8.21-4.48,11.94l-.96,1.07c-5.01.58-9.12,3.34-12.35,8.26l-1.38-.51c-2.25-1.22-1.64-3.38,1.83-6.49.28-2.42-1.27-4.3-4.67-5.66-1.85-4.63-4.19-5.96-7.02-4-3.48,2.68-7.19,4.33-11.15,4.94-6.36-1.47-12.67-.04-18.91,4.3-5.04.32-9.97,1.22-14.8,2.69-1.67,3.11-12.54-.3-13.43-2.53-.77-1.93,2-2.89,3.16-1.34l5.94-.69c6.98-3.01,14.32-4.71,22.04-5.1,1.92-1.45,6.25-2.1,8.81-3.57,12.18,6.42,14.22-6.35,32.51-8.37,2.02,1.56,2.47,4.35,3.83,6.81,2.96,5.36,8.83-1.36,11.05-1.76Z"/>
  <path class="cls-3" d="M498.96,334.92c-2.02-.23-3.66,1.33-6.09,2.52-2.55-4.22-.16-8.15.51-12,1.17-6.72,4.28-12.12,7.11-18.11,1.68-3.56,1.96-7.1,4.28-10.9l5.25-8.56c-2.56,15.91-4.75,32.22-11.06,47.04Z"/>
  <path class="cls-171" d="M479.03,380.91c-.34.03-.7-.14-1.03-.07-8.51-6.56,3.83-26.15,12.91-23.76-3.18,8.29-7.06,16.4-11.88,23.83Z"/>
  <path class="cls-59" d="M491.7,355.11c-.34.61-.54,1.32-.78,1.97-1.29.69-2.74.99-4.81,1.07-5.67,4.18-13.46,16.89-8.1,22.69-.87.18-1.43-.77-2.12-.94-4.65-2.47-5.68-3.67-3.5-9.18.49-3.75,2.03-6.01,4.62-6.79l6.95-6.88c2-1.98,5.41-1.51,7.74-1.95Z"/>
  <path class="cls-93" d="M9.97,186.81c9.18-36.32,28.24-71.06,53.37-98.85,6.02,1.49,8.54,17.42,8.94,23.15.54,7.72.06,16.52-9.55,10.84-1.25,0-2.98.65-3.69,1.7-.76,3.33-11.23,21.28-12.71,21.38-.74.05-1.49-.08-2.24-.26,1.32-.05,2.08.14,1.85.89-1.39,4.48-5.77,10.1-9.33,13.17-3.22,2.77-9.5,6.58-13.24,8.21-2.33,2.12-3.27,5.52-2.83,10.22-1.03,4.35-7.19,15.22-10.58,9.56Z"/>
  <path class="cls-161" d="M72.09,102.87c2.18,4.91,1.76,11.75.91,17.08.69.21.65.55,0,1-1.42,1.79-3.64,4.56-3.99,6.97-2.89,2.48-4.92,6.32-8.24,8.72s-4.36,4.56-2.97,8.66c1.23,3.64-7.42,6.63-8.38,13.94s-14.81,2.86-20.22,9.99c-3.6,4.74-6.07,10.98-8.11,16.66-1.62,4.52-1.5,9.87-6.12,12.95l-7.96-.98c1.08-3.43,2.1-7.58,2.97-11.03,4.13,1.39,9.93-9.68,9-13.97-.84-3.92,1.68-7.78,5.59-8.16,2.77-.27,3.66-3.57,5.66-4.31,9.32-3.46,14.81-16.96,13.84-15.62,4.78-6.52,9.69-12.49,12.34-20.44,1.17-3.49,5.95-5.52,8.7-3.6,1.33.93,2.19,1.73,3.3,1.43,5.37-1.45,3.35-11.98,1.24-17.64-1.44-3.86-1.13-8.24-3.36-11.88-1.05-1.71-3.25-2.65-2.95-4.64,1.47-1.63,2.57-3.98,4.67-4.87l2.14.7c.63,6.12,1.67,12.18,3.11,18.17l-1.18.9Z"/>
  <path class="cls-120" d="M74,122.95c-.91-.92-.72-1.94,0-3,.12-5.89-.51-11.59-1.91-17.08l-4.08-19.78c.78-.79,1.52-2.89,2.96-3.1.32.97,1.27,2.41,1.09,3.88-.77,6.2,1.51,11.38,2.72,17.19.3,1.44.99,23.27-.78,21.89Z"/>
  <path class="cls-68" d="M62.28,360.98l-.08,1.34-11.87,4.03c-1.2,1.8-2.33,3.67-3.36,5.61.5.93.9,1.85.9,2.78,0,8.82-.72,18.53-1.87,27.12-6.93-10.76-14.35-21.51-19.95-33.12,3.04-.55,5.78-3.74,6.9-6.89,2.3-6.49,8.3-5.58,12.12-19.26-.36-.37-.67-.76-.75-1.19-.22-1.11,6.04-8.02,6.97-8.65.28-.19.82.02,1.44.33,2.24.29,2.8,1.96,1.66,5-5,8.7,7.66,11.52,6.9.68,2.56-3.88,5.97-7.19,10.23-9.91,4.24-5.23,4.92-11.59,2.02-19.08l.45-1.94c-5.28,6.68-10.53,13.32-15.75,19.91l-2.3-.87c-.86.37-.89-.07-.08-1.32.2-5.89,7.28-15.11,11.57-19.92.19-.21.82-.02,1.58.28,1.51-2.89,3.18-5.67,5.02-8.34l1.02.36c4.71-5.82,6.6-1,6.43,4.77-1.19,8.5-1.57,17.03-1.14,25.62-3.57,4.48-6.26,9.42-8.07,14.84-6.23,4.31-9.02,9.63-8.36,15.97l-1.62,1.86Z"/>
  <path class="cls-42" d="M49.99,332.72c-3.11-1.71-.04-6.06,3.13-4.81.82-1.65,1.73-2.44,2.72-2.37l.08,1.32c2.77,1.51-.95,5.57-3.21,6.22l-7.66,9.51c-1.18-.07-2.76-.02-3.42-.86-1-1.28-.22-2.81-.1-4.33.54-7.32-2.81-14.86-1.69-22.07.79-4.78,7.74-6.85,10.77-9.67,2.87-2.67,5.2-4.87,8.25-6.94s2.34-6.17,3.2-8.84c.64-1.99,2.82-3.57,4.1-4.89-.03,6.19-1.02,11.64-5.8,16.24-4.09,3.93-10.31,8.44-15.17,11.41-1.94,2.16-1.89,7.51-1.75,10.4.22,4.6.73,13.1,6.56,9.69Z"/>
  <path class="cls-137" d="M93.04,247.99c.5,4.24,2.11,8.44,2.59,13.08l2.65,25.73c2.62,25.43,3.77,50.68-2.27,75.14-.61-.68-1.67-1.16-2.1-2-3.14-.46-6.37-.7-9.69-.72l-.11-1.26c-.44-1.41-.33-3.17.33-5.28l2-31.45c-1.48-9.31-1.88-18.48-1.2-27.51,2.91-5.42,2.9-11.45-1.85-15.75-3.42-3.27-5.05-6.87-4.88-10.78,2.95-7.29,5.5-14.74,7.65-22.34l1.7.08c.16-3.27,1.27-4.25,3.35-2.94l1.83,5.99Z"/>
  <path class="cls-185" d="M406,121.95c-2.94-1.75-.5-5.4-1.27-8,.38-.12.59-1.29.97-1.48.35-.18,1.05,1.11,1.67,1.25,4.96,1.11,10.29-.88,14.93.76,1.5,2.47,4.12,2.25,6.72,3.32-7.92.27-14.89-1.87-22.75-.64-.54,1.65-.24,3.35-.26,4.78Z"/>
  <path class="cls-189" d="M485.12,167.13c1.48-3.19.72-6.77.8-10.21,3.27,3.93,1.96,7.25-.8,10.21Z"/>
  <path class="cls-43" d="M477.01,363.93c-1.56,3.67-2.99,7.57-3.83,11.97-.21,1.68,2.4,2.65,2.7,4-3.59-.87-6.89-2.77-10.68-4.21l-24.03-9.12c-3.84-1.46-7.27-3.07-10.99-3.66-2.07-2.06-5.15-2.48-7.91-3.18,6.41-6.1,13.59-4.27,14.29-4.6l10.51-4.94c3.37-1.58,8.32,1.94,12.34-.09,3.41-1.72,6.63-4.85,10.59-5.28,3.23-.35,3.74,3.85,5.5,5.49s4.14,1.97,4.87,3.76c2.46,6.06-3.62,6.08-3.37,9.86Z"/>
  <path class="cls-107" d="M74,119.95h-1c.4-5.81.24-11.51-.91-17.08.84-.1,1.81.97,1.82,2.2l.09,14.88Z"/>
  <path class="cls-121" d="M52.71,333.08c-.38-2.66,2.77-4.67,3.21-6.22,3.54-2.08,5.5-5.47,7.33-8.74,2.54-4.56,5.93-7.77,9.33-11.81,1.31-1.56,1.21-7.08,4.28-6.64,3.79,2.63-1.03,7.43-1.39,10.09,6.17,21.33-6.11,20.78-11.68,28.42-1.76,2.42-.68,6.55-3.15,8.73-1.87,1.66-4.3.21-6.29.02-1.65-.16-3.94-2.99-3.28-5.07,1.1-3.43,2.09-5.58,1.63-8.78Z"/>
  <path class="cls-159" d="M66.02,359.89c1.22,1.91-3.01,2.85-3.74,1.08-1.89-6.85.81-12.63,6.61-17.08,2.77-2.12,2.6-4.68,3.74-7.49,1.64-4.06,5.98-7.17,6.92-11.66,1.04-4.93-1.7-9.76-.33-14.72,1.04-3.75,2.9-7.71.86-11.48-.96-1.78-3.69-1.3-5.05-.62-.65-3.32,4.72-10.97,7.94-6.41-.49,12.34-.31,24.7.53,37.07-.05,2.25-1.48,20.98-2.04,21.92-1.11,1.87-2.01,2.73-4.37,2.54-5.31-3.88-8.55-3.85-9.71.1.04,2.93-.42,5.18-1.37,6.75Z"/>
  <path class="cls-131" d="M84.99,282.9c1.69.15,2.55,1.72,2.6,4.7-2.58,5.06-3.62,10.57-3,16.23,2.08,16.94,1.96,33.91-.38,50.89-.19,2.09-.89,2.91-3,3.11-.04,1.83-1.92,1.75-2.35-.04-2.62-.73-5.27-2.21-7.96-4.43-.38,3.17-1.34,5.34-2.88,6.52.03,1.74-1.56,1.77-1.99.02.29-3.27-1.24-9.38,3.72-10.96,2.01-.64,9.63,5.21,10.31-.09.52-4-.15-8.08.96-11.97,2.24-7.83.38-15.14.1-23.03-.27-7.5,2.52-14.85-.02-22.18-3.37.05-5.41,3.53-6.05,6.25-3.75,2.35-.25,2.51-6.05,7.99-1.81-.04-1.58-1.28.71-3.74-.98-1.68-.4-2.27,1.3-1.29,3.06-5.3,5.45-10.84,7.17-16.61,1.73-3.41,4.53-5.12,6.81-1.36Z"/>
  <path class="cls-33" d="M68.99,305.9c-3.48,3.29-10.05,14.6-13.15,19.64-.65,1.06-1.96,1.48-2.72,2.37-2.02-1.81.31-9.92,1.69-11.99,4.29-4.88,8.51-9.79,12.66-14.74l2.22.97-.71,3.74Z"/>
  <path class="cls-102" d="M70.95,281.95c.93,1.52.37,2.82-1.66,3.91-.5,5.43-2.02,10.42-4.56,14.97-3.85,3.1-7.62,6.31-11.29,9.62-9.68,3.56-9.7,15.42-3.45,22.27-.27,1.81-4.15,4.63-5.21,2.52-1.79-3.57-3.34-20.29-.36-23.36.94-.97,2.92-1.04,4.6-1.89,3.09-1.56,4.34-5.17,7.25-6.94,10.22-6.21,6.63-8.45,9.88-18.08,1.53-1.58,2.29-4.45,3.95-5.91,2.32-3.83,4.3-7.86,5.92-12.08l.97-.1c1.62.21,1.77,1.97,1.71,3.46-.12,2.97-4.54,11.76-7.76,11.6Z"/>
  <path class="cls-128" d="M75.01,290.06l1.07.85c-1.94,3.2-3.63,6.51-5.07,9.96-.48.34-.79,1.01-1.3,1.29-3.41,1.86-5.51,5.16-7.48,8.92-1.54,2.94-5.49,4.17-6.44,7.4s-1.09,6.65-2.66,9.44c-1.2,1.41-2.85,2.91-3.13,4.81-6.77,2.25-6.67-14.26-5.05-18.11,2.13-3.21,6.35-4.28,8.68-7.11s5.26-4.05,7.88-6.18c4.54-3.69,4.62-10.76,5.83-15.82.47-1.98,3.06-2.34,3.62-3.56,1.47-2.7,4.75-2.3,5.65.41.12.37-1.27,6.59-1.6,7.7Z"/>
  <path class="cls-2" d="M497.17,230.77c-7.54,7.68-8.14,7.42-18.84,9.51-4.69,6.54-11.16,10.8-17.53,14.8-7.72,6.89-22.25,8.22-13.71-5.27,1.06-4.68,5.03-3.83,8.92-9.92.68-1.07,2.52-1.52,2.95-2.9,6.01-6.42,12.51-12.35,19.47-17.78,5.67-10.27,25.03-20.47,17.33.59,3.05,4.48,3.52,8.14,1.4,10.97Z"/>
  <path class="cls-46" d="M87.86,244.94c-2.94,2.69-2.17,6.93-3.37,10.76-1.33,4.27-5.09,8.18-4.42,13.2s6.82,6.17,9.07,18.99c-7.07,10.08-.75,25.12-1.32,33.94l-1.1,17.05c-.27,4.26-.64,19.95-2.62,19.08-.97.02-1.94-.21-2.91-.13,2.2-1.93,1.73-4.87,2-7.87l.93-10.18c1.02-11.14,1.55-21.86-.44-32.82-1.16-6.39-.72-12.38,2.09-18.27.9-1.88-.61-4.34-.79-5.79-3.86-4.08-6.75-1.59-8.65,7.47l-1.33-.31-.16-6.96c-1-1.51-2.59-1.36-3.89-1.15,2.6-5.65,6.35-9.1,6.05-15.06,6.71-11.11,4.67-21.46,10.16-24.87.71.8.78,1.89.71,2.92Z"/>
  <g>
    <path class="cls-11" d="M457.06,332.96c-1.06,2.87-1.97,5.77-2.63,9.22-9.71-1.15-6.03,2.69-13.52,5.66-4.28,3.16-9.69,4.49-16.23,3.99-4.54,3.49-8.77,4.47-12.69,2.94-3.96,2.41-10.16,1.04-12.95-2.71-.75-.17-1.32-.91-2.01-1.18-.87-7,1.75-13.89,1.87-20.88,1.64-.72,1.91-3.38,3.94-4.04,9.43-3.04,6.45-9.03,9.85-10.23,4.61-1.63,10.55,3.73,14.28,0,4.22-4.24,7-10.34,12.4-13.43,5.12-2.93,10.19-5.51,13.2-11.06,1.26-2.32,3.23-5.89,6.47-6.03,3.07-.13,6.82,2.84,8.1,5.33,1.83,3.59,3.93,4.44,8.05,3.55,3.28-.71,9.62.17,10,4.11.22,2.34.17,7.2-.86,9.24-2.35,4.61-4.72,9.86-8.21,13.32-2.42,2.4-6.56,2.56-8.57,5.74-2.42,3.83-7.03,1-9.67,3.75-.67.69-.48,1.78-.83,2.72Z"/>
    <path class="cls-181" d="M440.91,347.83c-.43.69-.73,1.44-.93,2.22-2.99,3.82-8.39,1.5-12.53,3.36-5.31,2.39-9.84,4.49-15.45,2.43v-1.09c4.48.7,6.96-1.84,10.56-4.18s7.65,1.49,18.35-2.75Z"/>
    <path class="cls-126" d="M451.66,329.94c-1.48-5.8,1.18-10.11,1.98-15.11.57-3.59,1.27-9.28,5.98-9.42,1.5-.04,4.12,3.77,5.88,2.14,3.91-3.63,8.05-7.56,13.71-7.15,1.31,4.26-1.01,8.07-1.66,11.75-.85,4.75-2.89,7.24-7.2,9.18-2.76,1.24-4.27,5.31-7.67,5.93-3.62.65-7.15,1.14-11.01,2.67Z"/>
  </g>
  <g>
    <path class="cls-124" d="M449.91,229.75c-4.35,6.83-9.49,12.62-15.95,18-2.34,1.95-2.54,4.76-6.96,4.48-4.76-.31-10.25,1.2-14,3.81.33,1.9-.69,3.88-3.08,5.95-3.95,5.99-1.08,5.64,8.63-1.04l3.54.06c11.02-.92,5.96-8.93,12.95-8.05,12.64,1.59,8.22-10.16,20.97-13.05,2.5,3.83-5.66,8.4-8.92,9.92-1.15,3.17-2.81,5.93-5,8.26-4.05-.87-23.26,8.3-22.27,10.77,1.04,2.61,7.71.97,9.12-1.2,5.96-6.07,14.6-11.49,21.92-6.45-.27,2.23-14.41,6.18-15.76,6.77-3.48,1.51-5.49,5.6-9.47,6.61-3.59.92-7.45.51-10.82,2.26-1.17.61-2.77,3.32-4.38,1.74-1.95-1.92-3.83-3.14-6.23-1.92-.01-.24.01-.73-.12-.92-1.59-1.86.42-3.93.48-5.78.15-4.48.62-7.35,2-10.6,3.89-9.17,18.67-7.95,22.84-10.32,11.9-6.74,11.81-13.59,20.29-20.86l.21,1.56Z"/>
    <path class="cls-169" d="M460.8,255.08c-3.37,2.12-5.14,6.93-9.93,6.11-2.56-.44-5.78.19-8.86.34-8.11.38-14.85,17.02-24.31,8.11-.26-4.48,5.96-7.02,9.36-8.46,4.99-2.12,8.63-5.38,14.22-4.73,1.87-2.96,3.81-4.76,5.82-6.64.13,2.45-2.12,5.91,0,8.22,3.56,3.88,10.95-3.31,13.71-2.95Z"/>
    <path class="cls-39" d="M422.09,261c-4.85,3.35-10.21,6.07-15.74,9.18-1.13-6.15,2.4-11.19,6.65-14.15,2.03.48,12.04-3.96,13.08-.69.65,2.05-4.23,5.83-3.99,5.66Z"/>
    <path class="cls-169" d="M410.63,275.69c-1.47-1.19.81-3.58,1.83-3.41,1.3.62,1.19,1.27.97,1.74-.4.89-.98,3.15-2.81,1.66Z"/>
  </g>
  <g>
    <path class="cls-149" d="M474.7,203.07c-4.26,2.66-5.89,6.6-7.75,11.06-1.46,3.5-4.98,6.36-6.87,9.92-1.83,3.44-14.58,9.86-13.72,17.7,4.29-1.83,9.76-3.7,12.71-7.92,3.59-5.12,7.76-9.08,12.33-13.51,4.84-4.7,7.85-10.09,14.77-12.45,2.88-.99,5.61-3.85,8.84-2.94,7.71,3.35,4.73,9.19,6.32,16.66.98,4.6.79,9.18-3.92,11.64-1.58.82-2.48,2.81-3.67,3.56-2.06,3.51-6.06,5.01-9.79,6.16-.31-.02-.62-.02-.93,0-2.29.08-4.51.93-6.07,2.52-1.35,1.37-2.89,4.95-.97,6.6,2.81,1.51,6.57-.6,10.2-.16,5.49.66,10.55,6.96,8.45,12.28-.68,1.73-2.32,3.23-1.44,5.03,1.83,3.75,7.57.85,9.42,2.61,4.07,3.88,1.27,8.89,7.08,8.21,0,1.47-.12,3.25-1.06,3.95-1.86,1.39-3.78,1.49-5.05-.78-1.24-2.22-2.18-6.93-4.98-7.62-3.72-.92-6.62-.7-8.81-4.66-.65-1.18-2.52-2.22-2.54-3.7-.04-3.52,6.88-8.44,2.44-12.29-6.22-5.38-8.12,3.13-15.41,4.24-4.71.72-8.04,4.95-12.06,7.06-3.25,1.7-7.43,1.33-10.1,3.73-14.98,5.66-29.39,13.19-42.07,22.93l-2.11-.04c-1.05-1.75-.18-3.75,2.62-5.98,1.12-2.14-.25-3.89-4.09-5.25-3.99,2.02-4.4-2.37-2.25-4.97.77-4.54,4.9-1.85,7.56.14,3.86-2.76,8.64-4,14.34-3.72,7.73-6.28,14.92-10.06,24.76-11.88.56-.9,1.71-1.56,3.47-1.96l6.46-4.15.74-2.84c5.96-3.63,11.37-8.05,15.73-13.56,7.19-.72,13.02-3.5,17.49-8.33l2.4.41,1.76-3.82c-2.08-3.11-2.93-6.33-2.55-9.68,5.74-20.46-15.53-4.44-19.55,3.61l-8.38,6.25c-2.81,3.79-5.97,7.08-9.48,9.87,2.66,2.08-.4,4.49-2.95,2.9-5.68,4.15-10.75,9.02-15.23,14.63-5.19-.56-9.51,1.29-12.97,5.54-2.68,1.75-4.59,2.06-5.72.93-1.14-1.22-.52-2.83,1.85-4.82-3.62.77-7.05,1.17-10.28,1.21l-.66-1.36-.05-1.41c4.95-2.3,10.18-3.57,15.71-3.82,7.72-5.29,14.29-12.04,19.71-20.26l1.53-.79c1.68,1.53,11.67-7.97,11.19-10.99,5.18-2.9,3.53-15.71,13.6-15.69Z"/>
    <g>
      <path class="cls-160" d="M483,242.93c1.32,1.56.36,3.22-2.88,4.97,6.44-2.04,11.12.3,14.04,7.02l6.8,10.1,5.38,3.56c2.04,1.35,3.27,3.63,5.66,3.31v4c-1.2.38-1.13,1.95-1,3-.19,1.23-.63,1.6-1.33,1.13-2.72,3.3-5.51,1.06-8.37-6.74-5.01.72-8.42-.67-10.24-4.15,2.15-6.82,4.12-15.29-5.83-16.6-13.08,7.3-15.95-6.51-5.92-10.65,1.51-.63,3.27-.95,3.69,1.06Z"/>
      <path class="cls-50" d="M404.21,276.66c.07,1.26-.59,2.44.08,4.31.78-.65,1.22-1.88,2.02-1.75-.3-.05,6.07,3.17,6.44,4.41,1.38,4.62-3.15,6.52-4.82,9.22-.56,2.34-2.72,3.22-4.17,1-.72-.12-1.63-.79-1.64-1.96l-.12-13c.95-.74,1.02-2.46,2.09-3.15.96.05.97.37.12.92Z"/>
      <path class="cls-58" d="M452.11,269.95c-4.03,3.63-10.09,4.03-14.89,7.26-3.19,2.15-14.82,8.47-17.62,10.31l-10.29,6.78c-2.21,1.46-3.51,4.52-6.47,3.62.68-1.05-.24-3.08.93-4.08,1.32-.58,2.73-.94,4.17-1,5.72-1.75,2.28-3.65,13.54-9.46l19.77-10.19c3.42-1.76,7.39-2.56,10.87-3.24Z"/>
      <path class="cls-160" d="M493.72,236.78c-.66,4.76-5.29,6.42-9.79,6.16,2.92-2.49,6.56-4.11,9.79-6.16Z"/>
      <path class="cls-169" d="M497.17,230.77c.18-1.59,1.39-4.02-.34-5.53-7.4-6.49,1.16-11.17-.24-14.57-.54-1.31-1.68-2.33-3.08-2.68-1.98-.49-3.03,2.12-4.64,2.8-3.5,1.49-6.68,2.41-7.43,6.68-1.12,6.37-10.68,6.05-15.02,12.79-2.01,3.12-3.94,6.18-7.46,6.72l7.99-9.16c2.49-2.85,6.74-4.78,8.5-8.38,2-4.08,5.28-5.54,9.01-8.09l7.2-4.9c1.54-1.05,4.42-.38,5.58.79,4,4.07-1.18,11.22,2.34,17.88,1.75,3.32-1.05,4.25-2.41,5.64Z"/>
      <path class="cls-144" d="M442.42,244.92c1.05-.15-.93,4.3-3.65,3.98-.99-.12-1.31-1.47-.81-2.39.29-.54.83-1.08,2.15-1.27l2.31-.32Z"/>
    </g>
  </g>
  <g>
    <g>
      <path class="cls-135" d="M395,353.85c-.35,2.06,1.13,4.3-1.17,6.71-1.46-3.57-1.92-6.65-1.83-9.71h1c.02,1.19-.18,2.25.15,4.06.87-.37,1.22-.93,1.85-1.06Z"/>
      <path class="cls-48" d="M183.91,394.88l5.14.02c.92,0,1.6-.18,1.86-.64.25-.43.25-1.04.26-1.51.92.52,1.55,2.94.08,3.01-2.99.15-5.54.64-7.34-.88Z"/>
      <path class="cls-80" d="M102.05,380.89l-.09-1.1c4.73-7.03,6.73-15,11.26-23.69,1.86,9.51,2.41,17.68,3.09,27.39-4.96.31-10.35-.09-14.26-2.6Z"/>
      <g>
        <path class="cls-29" d="M473.75,389.82c0,.98-.03,1.96-.2,2.91s-.35,1.82-.8,2.55c-40.53,66.7-117.53,120.52-197.75,116.51h-39c-1.81-.22-3.38-.62-4.73-1.19-.9-.13-.94-.45-.15-.95-.44-27.39-.44-55,0-82.83.76-7.85.85-15.66.27-23.43,2.7-.24,5.23-.1,7.61.44,27.93-1.56,56.06-2.77,84.39-3.61l1.61-1.39c.34-.85.67-.82,1,.06l1.13-1.99c8.1.17,16.15-.22,24.17-1.18l1.74,1.12c.44-1.91,1.24-1.85,1.72.07,1.45-1.88,3.72-2.56,6.81-2.05.88,2.57,2.93,2.53,6.14-.15,3.46-.61,5.64.07,6.53,2.06l4.86.86c31.06-2.98,62.17-6.1,93.33-9.38l1.34,1.55Z"/>
        <path class="cls-87" d="M391.66,346.95c-.29,1.15.38,2.71.34,3.91.33,3.58,1.33,4.58,3,3,.16-.91.14-2.08,0-3,.63.16,1.44-.22,2.04.02,1.67-2.12,2.38-1.46,2.01,1.18-.08,2.48-1.63,18.23-2.6,19.08-2.8,2.44-3.33,1.88-5.06-.98-1.77-2.93-3.92-17.49-1.35-20.45-1.84-.63-1.87-2.98-.18-3.84.88-2.09,1.6-.79,1.8,1.09Z"/>
        <path class="cls-176" d="M231.12,509.65l.15.95c-6.79-.57-13.72-1-20.27-2.77l-.93-2.37c1.03-32,2.15-64.02,3.35-96.04,1.55-6.66,4.88-6.49,11.1-5.65,5.58-1.63,8-1.2,7.28,1.31-1.06,34.93-1.29,69.79-.68,104.57Z"/>
        <path class="cls-150" d="M221.88,401.77c2.06.95,4,.43,5.84-1.54l2.37.72c1.43-2.3,2.14-1.84,1.89.84,2.39.42,4.73.77,7.02,1.04.87.28.86.62,0,1-1.85-.19-3.47.06-6.25.4,1.01,7.68-.69,14.75-.72,22.6l-.29,80.89c0,.98-.26,1.56-.63,1.92-3.22,4.42-1.25-27.13-1.24-29.88l.37-60.83c.03-5.04,1.77-9.7.18-15.02-5.04.19-9.95,1.46-15.14,2.39-1.64,9.91-1.21,19.44-1.66,29.55l-2.23,50.29c-.33,7.53-.4,14.6-.4,21.69l-1.39-.38-2.48-1.89c1.1-32.68,2.18-65.34,3.22-97.98l1.2-3.63c-2.43.02-18.41-1.9-15.83-5.18.32-.41.8-.7,1.33-.95,5.25-2.54,15.9-.68,21.7,1.27,1.33.45,2.28,1.61,3.13,2.68Z"/>
        <path class="cls-152" d="M474.75,385.98c.3-.9.67-.88,1.1,0-.42,1.09-1.46,2.76-2.1,3.83l-47.83,4.21-22.39,2.4c-3.87.41-29.67,3.88-29.3.37l.11-.78c1.04-2.18,2.05-2.1,3.03.23l3.54-.11.73-2.08c29.69-2.49,59.53-5.56,89.5-9.22l3.61,1.14Z"/>
        <path class="cls-76" d="M325,398.84c-.32,1.08,0,1.81-1.23,2.35-.87.38-1.6-.1-2.64,0-20.43,1.93-40.45,1.45-61.16,1.86-7.25.14-14.1,1.48-20.97.79v-1c2.26-.27,4.59-.61,7-1,.06-2.86,2.32-2.73,3,0,9.36-.32,18.69-.66,28-1l2.96-1.99c9.73.5,19.39,0,28.98-1.5l3.25,1.29c1.19-1.19,1.76-1.12,1.7.19,1.91-1.88,2.98-1.92,3.2-.11l1.77-1.48c1.88.87,3.59.4,5.14-1.41.17.99,1.39,1.68,1,3Z"/>
        <path class="cls-108" d="M475.88,379.9c.4-.43,1.1-.12,2.12.94.4-.86.74-.84,1.03.07-1.03,1.58-1.45,3.93-3.17,5.07-.35.06-.76-.1-1.1,0l-2.64-.35c-12.82-7.32-26.41-13.48-40.78-18.47-3.45-2.07-6.04-5.23-1.15-4.24l2.16-1.6c12.38,4.38,24.65,9,36.81,13.86,2.37,1.19,4.61,2.76,6.73,4.73Z"/>
        <path class="cls-156" d="M93.91,376.63c-1.1,2.8,1.13,4.24,3.33,4.3,1.4.03,3.39-1.29,3.75-3.15,1.32-.45,1.64.22.96,2.01.9.24.92.61.09,1.1-.27.87-.46,1.56-.36,1.61,4.5,1.99,12.63,3.97,16.13.18.56,3.3,13.42,4.22,16.09,4.2l3.01.43c.58-1.56,1.23-2.32,1.96-2.28.57,2.63,3.53,3.5,6.07,3.89l38.96,5.97c5.85,1.47,8.27.76,7.26-2.13l-.12-1.8c-.69-2.58-.39-3.31.89-2.21,2.83,1.23,4.57,6.12,5.11,9.08-1.75,3.19,14.8,3.87,17.53,4.55-4.42,8.42-2.31,11.24-2.64,20.46l-1.1,30.99-1.14,35.84c-.19,6.1-1.8,12.19-.1,17.78-63.73-17.16-126.47-47.93-162.3-103.53-.64-10.32-.5-21.03,1.04-31.42,3.59,1.15,7.22,2.23,10.89,3.24,10.22,1.39,20.4,2.96,30.54,4.71,1.53-1.44,2.91-2.71,4.14-3.82Z"/>
        <path class="cls-74" d="M96.01,361.95c-1.14,4.62-.6,9.99-2.09,14.68-.45,1.42-1.51,2.8-1.11,5.28-4.94.19-9.4-.78-14.04-2.1-14.54-4.12-13.75,1.08-29.67-6.1-2.06,11.09-.1,22.84-1.79,30.21l-1.33-2.06c-.15-9.98.38-19.94.98-29.89.92-2.75,2.01-4.42,3.02-1.07,1.58-1.04,3.52-.88,5.81.47,3.78.18,6.15,1.33,7.11,3.46,4.85-.5,7.28-.75,7.28-.75,6.8,1.91,13.36,2.88,19.68,2.91,0,0,.65-5.11,1.95-15.34l2.11-1.7c1.53-1.34,2.23-.67,2.1,2Z"/>
        <path class="cls-37" d="M388.74,349.65l.34,2.21c-3.74,13.89-7.11,27.9-10.1,42.02,0,0,.64.75,1.93,2.26-1.89,1.7-4.4.61-6.57-.13,2.05-15.3,6.74-30.15,10.66-45.08.28-1.81.97-2.71,2.08-2.71,1.79-1.59,2.83-.62,1.66,1.43Z"/>
        <path class="cls-31" d="M390.04,349.7c1.19,7.13,1.15,14.17,3.97,21.98,2.71-4.43,1.46-20.11,5.04-19.63,4.32.98,8.58,2.03,12.95,2.71.88.31.86.68,0,1.09-.7-.17-1.62-.21-1.99.63,4.31,1.98,8.31,2.23,12.26,3.24,3.33-1.75,8.36-1.27,7.91,3.18-.99-.28-1.59.59-.46.96,3.37,2.24,6.87,3.6,10.59,4.69,6.51,1.91,12.01,5.03,18.18,7.79l8.93,3.99c3.05,1.36,5.93,2.87,7.33,5.64-11.52,3.22-23.6,3.5-35.99,4.68l-57.86,5.48c-.84-.2-3.8-.03-4.2-1.27l6.33-28.1c.9-3.99,2.51-7.52,2.89-11.71.2-2.24,1.13-4.49,2.81-5.41.16-1.93.93-1.89,1.3.05Z"/>
        <path class="cls-162" d="M81.2,357.83c1.48-1.24,2.37-1.97,2.91.13,2.84,2.41,8.4-.8,9.8,1.98-.71,2.84-3.64,2.87-5.05.24l-1.54,1.09c-8.48.88-16.88,2.34-25.2,4.36-5.27.62-9.32,2.38-12.14,5.26-1.02-.68-2.45.23-3.02,1.07.54-9.07,7.19-7.2,15.32-10.99,1.13-.52,2.69-.17,3.74-1.08.49-.25,1.42.1,1.99-.02,1.11-3.36,8.2-4.11,10.84-2.09.67-.23,1.64.1,2.35.04Z"/>
        <path class="cls-122" d="M88.86,360.19c.63.6,1.42,1.36,1.29,2.12-.27,1.66-23.29,15.78-27.26,12.51-4.5-.81-8.93-1.25-12.92-3.93-.87-.79-.44-3.38,1.2-3.94,12.27-4.21,25-7.46,37.68-6.77Z"/>
        <path class="cls-104" d="M93.91,359.94c-.39,5.68-.23,11.72-2.28,17.79-.65,1.93-5.64,1.79-7.5,1.26-7.39-2.12-14.27-2.92-21.24-4.17,1.96.24,3.83.02,5.68-1.35,7.73-5.72,20.58-10.28,20.28-13.29,1.64.09,3.38-.46,5.05-.24Z"/>
      </g>
      <g>
        <path class="cls-21" d="M280.06,199.97l1.74.35c5.66,5.27,11.01,10.99,16.04,17.16l4.02.47c-.08-.8-.18-1.99.35-2.26,2.54-1.29,15.61-6.15,17.61-5.6.38.1.69.43.99.82,2.97-.92,5.06,1.21,2.1,3.23,1.45,1.59.05,2-1.77,1.86l-.61,1.54-10.57,4.87-1.09,2.49c.43.28.38.6-.06.93,1.11,1.25.99,3.85,0,5.18.23,2.26,1.32,3.86,3.25,4.8,1.54,2.9-.98,5.58-3.98,5.1-2.23,4.37-5.08,1.73-5.04-2.97l1.19-7.81c-1.19-1.41-1.94-2.79-2.27-4.14l-2.42-.12c-3.59-3.85-6.72-7.78-9.39-11.78l-4.03-1.44c-11.49-11.25-21.89-23.38-31.2-36.41l-22-35.45-2.7,6.83c-.28,3.1-1.39,5.18-3.33,6.22-6.4,21.8-18.29,42.75-31.61,61l-2.28.9c.71.91-.31,1.66-3.03,2.23l1.27,1.42c-5.34,5.78-10.11,11.88-14.33,18.3,1.6.99,3.23,1.35,4.89,1.07l1.31,2.06c1.59,2.57.19,3.26-4.22,2.06-.23,1.99-.96,2.05-1.71.22-1.01,1.6-1.76,1.17-2.23-1.3.1-3.34-1.57-6.75.04-9.89,1.64-1.44,2.6-3.51,4.14-5.08,20.72-21.1,40.41-56.57,49.49-85.16,1.23-3.87.58-7.81,3.29-11.93,13.06,25.05,27.89,50.14,48.12,70.22Z"/>
        <path class="cls-57" d="M367.93,234.86c.48,29.26-3.82,55.52-5.12,86.05-.34,7.94-1.7,15.45-2.83,22.78-.61.83-1.24.84-1.88.03-.65.02-1.17.02-1.19-.09-.08-.38.49-1.43.76-1.92.13-.24-1.29,4.61-1.55,5.19-8.55,14.57-18.22,28.61-29,42.14.98,2.94,2.15,8.46-1.12,9.86l-1-.06c-.57-.66-.9-1.66-1-3-2.28-.01-2.43-1.68-.45-5.02-1.21.54-1.28-.17-.22-2.1l.6-3.17c12.36-16.33,23-33.32,31.93-50.99,2.82-14.33,4.89-28.9,6.21-43.71l-1.88-1.91c2.12-16.92,3.15-33.91,3.08-50.99-.96-3.81-1.07-7.22-.32-10.25.56-.61,1.59-.79,1.97-1.63,3.53,1.5,1.56,6.1,3.01,8.79Z"/>
        <path class="cls-164" d="M285.92,201.89c.24.47.4.93.34,1.36-.39,2.48-5.42-3.87-6.49-5.28l-18.72-25.02c-1.84-2.46-1.94-6.39-3.79-8.75,2.82.08,3.62-3.59,4-6.17.22-.89.56-.9,1.01-.08,3.19,5.31,6.11,10.84,8.77,16.61,5.22,8.3,10.41,16.67,15.11,25.28.27.49.09,1.23-.23,2.04Z"/>
        <path class="cls-66" d="M265.92,152.87c3.43,4.62,8.07,8.37,12.67,12.6,14.17,13.05,27.93,26.45,44.47,35.58,2.11,1.17,3.83,3.96,6.03,4.9.31,2.56-.32,2.4-2.03.89l-3.48-.68c-7.25-3.46-55.41-40.07-56.79-46.98-.08-.39.08-.83.31-1.28-1.79,1.65-4.11-2.99-3.15-4.68-.15-1.51.52-1.62,1.99-.33Z"/>
        <path class="cls-173" d="M329.09,205.94c6.53,2.78,11.97,7.07,17.72,11.12,2.61,1.74,3.56,3.71.13,1.83-.58,2.73-4.44,1.43-4.91-.98-2.59-.43-3.33-1.16-2.23-2.19l-6.31-2.51c-2.56.13-5.1.35-7.63.67-.49,1.8-2.27,2.07-2.94.26.31-1.58-1.49-1.95-2.1-3.23-.88-.27-.81-.54.12-.81.97-2.16,3-3.25,6.11-3.27.12-.73,1.52-.83,2.03-.89Z"/>
        <path class="cls-57" d="M360.15,224.02c-5.02,3.01-10.68,1.5-16.23,1.82-2.15-3.95,2.44-2.39,4.88-1.4l1.08-1.36c-2.87-1.15-3.85-2.55-2.93-4.2.92.37,1.35-.51.62-.96-.39-.24-.52-.65-.76-.87,4.03,2.83,9.73,3.41,13.34,6.97Z"/>
        <path class="cls-48" d="M177.2,243.12l1.91,2.42c1.89,36.23,4.21,73.99,9.96,109.96l-1.29,3.35c2.59,3.29,3.37,6.36,2.31,9.21.93,1.15.92,1.78-.02,1.9,1.86,5.49,3.07,11.18,3.63,17.09l-1.75,1.7c-1.15-.23-.93,1.5-.89,2.21-1.55-4.61-2.6-9.62-3.32-15.02l-6.82-50.97c-2.39-17.89-3.74-35.06-4.22-53.05-.27-10.43-2.04-20.21-1.73-30.09l2.23,1.3Z"/>
        <path class="cls-138" d="M285.92,201.89c.75-.14,1.39-.18,1.67.11,2.18,2.36,9.8,11.51,10.67,13.74.18.46-.06,1.07-.41,1.73-6.54-5.15-11.87-11.65-17.78-17.52l-.29-1.99c4.48,1.24,3.73,5.9,6.15,3.92Z"/>
        <path class="cls-92" d="M290.15,214.09c2.3,3.64,5.35,7.47,9.14,11.5l2.67.4c.95.56,2.46.82,3.16,1.47,2.94,2.74-.87,9.53-.07,13.26.85.61,2.44.16,3.04.19-.64.72-1.04,3.29-.3,3.76,1.3,2.3.33,3.03-2.92,2.19-3.71,1.4-5.68,5.02-9.1,8.4l.26-17.28-.86-.94,2.65-5.85-.91-.22c-1.45-3.92-5.73-6-9.28-8.65-11.53-8.61-20.56-19.19-30.13-29.9-9.8-10.97-17.21-22.46-23.88-35.77-3.92,4.94-6.5,8.99-8.78,13.46-1.82,1.18-2.93.31-2.91-1.82l4.96-14.44c.37-6.13,3.57-11.75,5.41-17.83l23.25,37.49c9.61,15.5,22.73,27.47,34.59,40.58Z"/>
        <path class="cls-125" d="M320.94,210.1c-.07.27-.1.54-.12.81l-18.96,7.05c-1.44.38-2.1-.24-2.87-1.23-9.13-11.66-17.55-23.6-24.33-36.51-.11-.21.19-.64.62-1.13-1.02-2.43.54-3.17,2.83-1.89,13.29,10.18,26.92,19.88,40.88,29.1l1.96,3.8Z"/>
        <path class="cls-114" d="M199,217.91c.43-.62.86-1.1,1.29-1.1,9.92.1,24.87,1.4,34.38,3.8l2.33,2.22c.53,2.28-.37,2.69-2.39,3.16-4.9-.85-9.79-1.14-14.69-.86l-1.02.95c-10.66-.48-25.21,1.91-30.72,11.76l-4.16,3.06c-.26.09-.62-.02-.9-.07-1.71-.31-3.78.58-5.66-.34-1.02-.5-.33-2.26-.55-2.79-.1-.63-.11-1.19.15-1.54,2.63-3.44,11.52-14.64,14.16-16.74,1.67-1.33,5.86-2.59,7.77-1.51Z"/>
        <path class="cls-103" d="M265.87,161.02l2.17.77,5.52,11.52c2.1,2.07,2.67,3.99,1.72,5.77l10.88,18.62c4.45,7.61,10.26,13.85,15.7,20.25-1.2,2.56,2.44,2.46,2.83,6.61-2.59-2.07-4.91-4.2-6.84-7.08-3.6-5.34-7.24-11.02-11.92-15.59-7.36-14.61-18.19-28.5-23.65-43.93.3-.32.58-.66.83-1.02,2.41-.89,3.02,2.03,2.77,4.08Z"/>
        <path class="cls-61" d="M199,217.91c-2.47-.01-4.67.28-6.42,2.63-4.73,6.36-9.33,13-15.66,17.16-5.61-.69,15.56-21.55,13.06-19.71,1.62.59,8.93-2.79,9.02-.08Z"/>
        <path class="cls-98" d="M321.15,215.99c1.56-.89,2.76-1.3,2.91.73l.22,1.39-8.42,4.99c-3.07,3.67-5.4,4.26-6.98,1.79-.68-.73-2.26-2.27-1.75-3.47,4.85-1.97,9.38-4.27,14.02-5.44Z"/>
        <path class="cls-145" d="M328.99,215.85c.31-.68.63-.61.97.12,2.77.42,5.6.61,8.48.57l-.43,1.37h-1c-.3,2.3-2.52,2.83-6.68,1.6-6.4,1.96-12.15,5.11-17.23,9.45-.8-1.62-2.88-2.17-4.26-3.14l.06-.93c.55.34,1.15.79,1.81.87.97.11,1.72-.78,2.51-1.64,3.18-3.48,7.53-4.67,10.85-7.41-.87-2.24,3.7-2.24,4.93-.87Z"/>
        <path class="cls-123" d="M301.97,225.99c-.75.96-1.43,2.43-2.72,2.99l-8.44-11.91c-.45-.64-1.07-1.04-1.44-1.76-.29-.57.04-.97.8-1.21,3.7,4.09,9.1,6.97,11.81,11.9Z"/>
        <path class="cls-84" d="M325.86,213.87c3.97-1.51,8.27-.31,3.13,1.98-1.41.48-3.65.1-4.93.87-1-.13-2.02-.24-2.91-.73l1.77-1.86c.82-.39,2.07.07,2.94-.26Z"/>
        <path class="cls-52" d="M337,217.91l9.1,2.58c2.27,1.12,3.17,2.43,2.7,3.96-1.63.3-3.87-.11-4.88,1.4-19.85,1.14-27.17,10.52-30.83,3.12-.14-1.77.77-3.37,2.56-4.5,17.25-10.91,14.25-5.41,21.35-6.55Z"/>
        <path class="cls-40" d="M324,395.84c-.07.76.37,2.59-.72,3.29-2.02,1.28-4.44.26-6.19-.4-.98-2.86,3.79-6.75,6.46-7.91.78,1.6.17,3.39.45,5.02Z"/>
        <path class="cls-45" d="M323.33,388.71c.21.65-.08,1.49.22,2.1-2.45,2.37-4.78,4.93-6.46,7.91-.93-.35-2.22.2-3.2.11,2.18-4.06,6.98-6.62,9.44-10.12Z"/>
        <path class="cls-83" d="M327.05,206.83c-.47,2.78-3.66,2.99-6.11,3.27-15.72-11.02-28.15-18.72-43.92-31.23-.81-.64-1.6-.74-1.74.22-1.04-1.78-2.96-3.25-3.92-5.83-1.63-4.37-4.95-7.84-5.48-12.24-1.49-3.03-1.09-4.08,1.22-3.14l13.43,12.48c14.69,13.65,30.01,25.81,46.54,36.46Z"/>
        <path class="cls-163" d="M263.94,153.2l3.15,4.68c-.91.78-1.14,1.99-1.22,3.14-.34-1.41-2.44-2.69-2.77-4.08l-1.18-4.93c1.26-.08,1.39,1.12,2.02,1.19Z"/>
        <path class="cls-34" d="M342.03,217.9c1.57.61,3.15,1.13,4.91.98,2.33,2.73,5.8,3.77,9.22,5.53-2.88.85-5.12-.13-7.37.03-3.41-3.01-8.09-4-11.8-6.54.3-.05.71-.09,1,0,.33-1.99,2.58-.92,4.03-.01Z"/>
        <path class="cls-86" d="M339.81,215.71l-.41,1.14c-3.14-.25-6.29-.54-9.43-.87-.31.04-.68-.22-.97-.12.03-.68.6-.97,1.07-1.77-1.89-.2-2.98.06-4.2-.21,2.1-.8,4.43-2.78,7.11-2.71,3,.07,5.56,2.49,6.84,4.55Z"/>
        <path class="cls-109" d="M339.81,215.71c.54.87,1.59,1.4,2.23,2.19-1.16-.45-2.81.4-4.03.01.38-2.18-7.01.23-8.04-1.94l9.85-.26Z"/>
        <path class="cls-1" d="M221.88,401.77c-8.21-1.68-16.47-3.39-24.82-3.95-3.22-1.31-4.56-5.62-5.11-9.08l-2.22-13.88c-.3-1.9-1.01-3.73.35-4.91,11.27,9.86,22.62,19.52,34.53,28.62,4.28,3.27.9,4.62-2.72,3.2Z"/>
        <path class="cls-115" d="M226.03,397.76c1.39.98,2.72,2.12,4.06,3.19-2.39,2.07-5.74,3.14-8.21.82,1.13-.09,2.32.12,3.81-.56-12.39-9.71-24.76-19.8-35.62-31.26l.02-1.9,3.32,1.21c11.08,9.46,21.96,18.96,32.62,28.51Z"/>
        <path class="cls-119" d="M246.08,223.7c-1.64.51-3.7-.53-5.04.87,13.17,1.28,17.77,3.97,21.5,17.44,1.24,4.47-5.19,14.69-7.91,14.51-4.82-.33-4.26-10.28-10.6-12.72-2.12.89-3.38-.65-3.79-4.62-4.15-9.98-8.7-11.1-19.49-12.94l-.82-1.11c3.93-1.63,8.51-1.87,13.18-1.1,2.01.33,2.87-1,3.9-1.21,3.12-.63,6.25-.02,9.08.87Z"/>
        <path class="cls-116" d="M219.92,225.13c5.99.47,12.76,2.94,18.23,5.61,0,2.16,4.87,12.67,5.87,13.06-.79,1.79-.97,3.73-.67,5.91-.83.42-1.61.08-2.17.12-.9-.22-.93-.59-.11-1.09.74-.86,1.46-2.88-.09-3.66-1.37-.69-2.09-1.74-2.98-2.29,1.11-.56-.03-2.84-1.98-5.7-8.58-12.57-37.06-9.55-46.05,1.66l-5.96,2.15c7.08-12.59,22.43-16.84,35.9-15.77Z"/>
        <g>
          <path class="cls-15" d="M296.91,230.98c-1.04,4.27-2.49,8.61-4.34,13-.1,3.07-.62,5.71-1.57,7.92.41,1.74.75,3.41,1,5,.12-4.16.29-8.38.51-12.65.4-3.39,1.57-5.47,3.51-6.26l1.98,1.17-.16,10.73c2.69-3.72,5.03-4.73,7.02-3.02,2.76-1.48,5.4-1.53,4.64,1.93,1.59.63,2.13,1.67,1.61,3.14l.31-.96,6.02,1.69c4.23-.35,8.41-1.27,12.55-2.77,5.03-.27,9.57-1.29,15.02-.31,2.42.43,5.58-1.48,7.95-.9-7.2-4.01.1-5.98,6.21-17.66.83-1.59,2.8-2.26,3.77-3.33,5.91,8.3-.45,53.59-.88,63.15-1.51,13.93-3.49,27.83-5.95,41.71-10.65,23.74-26.24,47.3-43.94,66.08-11.32,2.95-23.43,2.17-35.19,2.19-9.32.35-18.65.68-28,1h-3c-4.35.9-9.65.9-14.02-.04-.5-.52-1.39-.45-1.89-.84-2.94,1.09-4.41-.09-4.06-3.19-18.29-16.55-27.44-24.83-27.44-24.83-4.89-4-8.49-8.7-10.82-14.09-2.33-9.29-2.53-18.85-4.02-28.85-3.19-21.37-4.8-42.18-5.22-63.59-.16-8.1-1.86-15.72-1.34-23.29.49-.2,1.27.09,1.71-.22l3.71-.19c5.14,3.71,9.82,7.95,14.07,12.7-.36,3.02,1.51,4.26,5.62,3.72,3.32-1.34,5.86-1.23,7.61.33.71-2.02,5.57-2.01,6.92-.56,1.6,1.3,3.84,1.56,6.72.76,4.29-.3,8.35-1.26,12.19-2.89-1.35-1.68,1.17-.99.89-.94-5.17.9-6.91-3.48-2.55-5.2.04-2.43,2.41-2.7,7.1-.8,1.51-1.57,1.68-3.41.52-5.51l2.32-.52c2.53-2.73,4.87,1.01,6.39,3.61,2.69,12.81,9.56,4.17,10.25-3.53.88-9.82-10.12-18.02-19.4-17.43-2.3-2.87-.7-3.78,4.82-2.75l.83-1.14c11.9,1.1,10.5.35-4.21-2.23-14.19-1.7-28.4-2.88-42.63-3.52l-1.32-1.12c-2.36-.26-3.26-1.2-2.21-3.46,8.64-11.98,16.54-24.6,23.66-37.58l4.64-4.53c-.51-3.96,5.32-14.76,9.16-14.76.68,0,1.35.83,2.03,1.9,13.87,26.3,34.45,49.63,57.92,67.3,2.8,2.26,3.78,4.4,2.95,6.42Z"/>
          <g>
            <path class="cls-143" d="M198.75,215.69c4.43-.05,9.14.32,14.3.37,16.01.13,31.93,1.52,47.99,6.54-4.69,3.77-10.63,2.47-14.96,1.1-2.61-.75-4.36-.44-5.25.92-1.9.33-3.18-.27-3.83-1.79-11.64-.85-26.51-4.86-38-4.91-.9-.65-2.15-.61-3.19-.29-3.34,2.05-5.28,2.18-5.83.36l3.03-2.23c1.36-2.83,4.51-2.96,5.74-.06Z"/>
            <path class="cls-23" d="M224.85,170.11c-7.5,14.72-16.37,28.64-26.32,42.31-.83,1.15-.27,2.67.22,3.27l-5.74.06c.21-1.24.69-2.68,1.74-4.08,13.45-18.08,23.07-37.79,32.15-57.82-.71,11.72-5.11,13.14-2.06,16.26Z"/>
            <path class="cls-111" d="M323.33,388.71c-1.74,3.72-5.87,7.98-9.44,10.12-.52-.05-1.21-.32-1.7-.19l15.76-20.9,11.06-16.74c4.22-6.38,14.2-23.18,15.39-29.84l6.22-34.85c.36-2.02-.15-4.44,1.47-5.47l-.72,16.05c-1.29,28.57-1.52,26.51-16.21,49.99-7,11.2-14.5,21.4-21.82,31.82Z"/>
            <path class="cls-29" d="M246,401.83c-1.6,1.84-4.68.95-7,1s-5.29.78-7.02-1.04l14.02.04Z"/>
            <path class="cls-29" d="M277,400.84c.12.39-.36.98-1.05.98l-26.95.02c-.12-.42.36-.95,1.05-.95l26.95-.05Z"/>
            <path class="cls-166" d="M226.03,397.76c-.86-.61-2.54-.31-3.79-1.32-11.3-9.19-21.63-18.9-32.15-28.39-2.19-2.67-1.55-6.18-2.31-9.21,11.51,12.01,22.99,24.09,36.05,35.1,1.33,1.12,1.97,2.59,2.21,3.83Z"/>
            <path class="cls-113" d="M290.94,322.07c2.73.78-2,5.54-.97,3.91.67-1.07,1.34-1.15,2.08.06-.32,4.02-7.95,12.34-8.72,12.43-7.3.9-20.12-16.74-11.32-15.37,1.11.74,2.73,1.34,4.88,1.81-1.29-.29-2-.6-.93-1.98,5.33-1.32,10.22-1.31,14.99-.86Z"/>
            <path class="cls-183" d="M296.99,354.94c1.88,2.16,5.57.68,7.13,4.97-6.89-3.02-12.47-2.32-19.12-1.58-8.76.97-17.3.58-25.87,3.67-3.32,1.19-6.64,2.45-10.23,2.22,3-2.59,6.27-3.36,9.36-4.32,8.29-3.71,17.43-5.17,27.42-4.36,4.2-1.62,7.97-1.82,11.31-.6Z"/>
            <path class="cls-95" d="M291.15,369.15c3.54,2,.51,3.77-2.68,3.27l-3.63,3.39c-.84,2.11-2.99,2.52-5.36,2.31-1.75-.16-3.65-1.28-4.41-3.23-.61-2.26-2.95-3.23-7.02-2.91l-.04-1.12c7.71-1.11,15.36-1.79,23.15-1.7Z"/>
            <path class="cls-16" d="M296.99,354.94c-4.05-1.4-8.07,1.35-12.2,1.51-9.27.36-17.93.8-26.53,3.45,5.75-8.39,22.29-3.31,30.1-5.73,3.29-1.02,6.67-2.51,8.62.77Z"/>
            <path class="cls-89" d="M232.09,256.84c1.17-.16,2.45-.29,3.66-.07,1.96,3.32-23.88,7.58-18.91,2.12,2.24-.49,4.33-.58,7.24-.97l8.01-1.08Z"/>
            <path class="cls-132" d="M296.03,237.98c-6.25,10.62-.69,13.53-4.03,18.92-.31-1.48-.64-3.15-1-5-.06-7.5,2.02-14.5,5.91-20.92.47-.71,1.01-2.56,2.86-1.48-1.89,2.86-2.38,6.18-3.74,8.49Z"/>
            <path class="cls-101" d="M284.83,375.81l1.6-4.57c.6-1.71,3.63-.26,5.5-.47l-.78-1.63c1.28.01,2.19.13,2.48,1.28.36,1.45-.52,2.79-1.87,3.21l-6.92,2.17Z"/>
            <path class="cls-13" d="M292,256.89c-.04-.73-.23,20.37,1.1,17.46-.19.43-1.92.97-1.92.32l-.18-22.78c1.72.95.9,3.34,1,5Z"/>
            <path class="cls-191" d="M275.95,322.93c.79.81,2.06,1.53,1.31,3.07-2.75-.97-4.67-.89-7.42-1.19.61-1.44,1.91-.77,2.15-1.7,1.22.19,3.46-.31,3.95-.17Z"/>
            <path class="cls-32" d="M292.04,326.04l-2.86,1.46c-.33-2.4,1.25-3.66,1.75-5.43,1.26.12,1.91-.42,2.71.2-.39,1.37-1.51,2.5-1.61,3.77Z"/>
            <path class="cls-17" d="M268,370.85c2.16,2.3,5.66-.25,6.91,1.56.44.63-.13,1.75.15,2.47-.78-4-14.84-.52-8.62-3.98.36-.2,1.28-.36,1.56-.05Z"/>
          </g>
        </g>
        <g>
          <path class="cls-10" d="M238.01,242.79c3.99-.98,5.65,1.84,4.34,5.95-.04.12-.58.09-1.27,0l-.49.77c-3.08-1.08-5.24-.7-6.5,1.12.03,1.06-1.33,2.81-.73,3.75.66,1.05,2.44.34,3.75.84,1.4.62-1.12,1.01-1.36,1.55-1.29,1.16-2.87,1.79-3.66.07l-3.35-.81c1.61-4.64,1.81-9.85-2.91-11.99.07.88-.2.86-.75.05-3.44-.2-7.03-.28-10.76-.23-9.51.69-11.21,3.92-6.7,12.86.42-.67.92-.44,1.21.24,2.56.4,3.31.58,1.08,2.49-2.6.02-5.27,1.79-7.99,1.65-3.36-.18-6.25-1.04-9.76.91-.16-2.75,1.66-3.1,3.71-4.66-5.39-5.18-10.31-11.15-16.97-14.46,1.3-.92,3.23-.71,4.22-2.06.23-.82.53-.77.9.07,2.52-3,4.5-3.71,5.96-2.15.13-1,.51-1.95,1.4-2.24,8.78-2.9,39.26-3.05,45.52,3.34.77.79,1.02,1.88,1.12,2.94Z"/>
          <g>
            <path class="cls-78" d="M232.09,256.84c0,.72-.04,1.3-.27,1.38-2.97,1.04-11.06,2.1-14.2,1.81-.29-.03-.55-.52-.79-1.15-2.13.46-4.74.54-6.92.56l-1.08-2.49,4.88-2.19c4.19,1.32,8.29,1.68,12.31,1.05-.13-1.96.45-3.88,1.75-5.74l-1.03-4.19c-2.67,1.4-3.42-.14-.92-1.86.63.06,2.18-.64,2.74.2,4.53,6.73-.36,11.19,3.52,12.6Z"/>
            <path class="cls-60" d="M241.08,248.74l.11,1.09c-2.1,1.77-4.84-.27-7.1.8-.03-1.18-.94-4.34.68-4.59,2.53.68,4.16,2.71,6.31,2.7Z"/>
            <path class="cls-129" d="M238.01,242.79c-7.46-4.59-15.85-6.34-25.02-6.11-8.04.2-15.95-.49-23.02,2.06-4.1-2.4,7.29-8.12,11.32-9.52,12.04-4.2,36.78-3.92,38.76,13.62-.96.15-1.54-.07-2.05-.06Z"/>
            <path class="cls-140" d="M225.08,244.09c-.5,2.34-1.5,3.91-3.01,4.7,2.79,4.14,2.77,7.64-3.24,5.78-2.57-1.06-2.51-3.07-2.22-5.49-.16,1.37-1.11,1.81-2.57,1.88-1.75-1.04-3.34-1.7-4.79-2,.01,2.85-.52,5.11-1.59,6.78,1.53.22,1.45.87-.04.97-4.38-.68-4.52-11.74-1.95-13.08,4.34-2.26,19.07-2.9,19.41.45Z"/>
            <path class="cls-142" d="M200.07,247.94c.42,2.12,2,6.33.35,8.02-3.52,1.7-6.15-2.48-7.38-5.03-3.67-4.59,5.36-6.98,7.03-2.99Z"/>
            <path class="cls-146" d="M200.07,247.94c-1.63.22-6.59-.3-7.01,1.62-.09.43-.06.92-.02,1.36-1.25-1.38-3.06-3.26-2.72-4.74,3.01-2.09,6.97-2.6,10.56-2.21.2,1.85-.57,2.84-.81,3.96Z"/>
          </g>
        </g>
        <path class="cls-36" d="M218.83,254.57c1.94.1,3.8-.03,5.6-.37l1.59,1.61c-3.94,2.25-8.98.38-17.19,1.14-.47.04-.83.31-1.21-.24-.31-.45-.64-.73.04-.97-.14-1.44.76-2.13,2.7-2.06.62-2.36,1.85-3.27,3.68-2.72,2.5-.12,4.16,1.38,4.8,3.61Z"/>
        <path class="cls-5" d="M225.08,244.09c.23,0,.55-.07.75-.05-.15.76.21,1.53.92,1.86,3.81,6.43-3.63,10.71-4.68,2.89.07-1.18-.3-2.5.53-3.8.42-.66,1.52-.86,2.48-.9Z"/>
        <g>
          <path class="cls-193" d="M360.15,224.02c1.13,1.11,3.36,1.44,4.78,2.04,1.02,2.66.37,3.23-1.97,1.63.75,1.56.14,2.89-1.83,3.97-3.02,4.78-6.05,9.42-9.07,13.93,2.86,2.25,2.53,3.12-.46,4.98-.88.55-17.84,1.46-19.87,1.2l-1.73-1.89c-4.57,2.05-9.15,2.95-13.74,2.69-3.26-.63-4.69-1.53-4.3-2.69,1.63-.33,3.35-.69,5.17-1.09-2.49-.6-3.16-2.18-.99-3.88-1.61-3.06-3.74-2.87-6.41.59l-1.93-.85c-3.41,1.22-3.53-3.62.3-3.76,1.44-1.61,2.68-3.36,3.98-5.1-2.4-1.4-3.49-3-3.25-4.8-.54-.81-1.43-1.62-1.41-2.56.02-1.08.74-1.95,1.42-2.63,3.54-.37,4.96.68,4.26,3.14,1.61.18,3.26.43,4.94.76,8.28-3.21,16.53-4.92,24.74-5.13l1.14,1.26c3.98-.58,8.01-.85,12.1-.83-.25-2.55,2.26-1.72,4.13-1Z"/>
          <g>
            <path class="cls-73" d="M312.07,235.81c-1.54.44-3.08.64-4.75,1.68-.15-2.49.19-4.74,1.5-6.48,1.9,1.1,4.96,2.52,3.25,4.8Z"/>
            <path class="cls-141" d="M334.7,234.12c.89.21.9.53.07.97,1.91,1.47,2.03,2.64-.29,3.74,2.39,1.75,1.8,3.73-1.77,5.92,2.18-.19,3.63.52,4.33,2.13.01,1.02-1.83,1.28-3.03,1.11-7.41-1.03-6.89,1.95-11.44,1.14-.51-.09-.23-1.05-.59-1.3l2.28-1.93c.38-3.21,1.64-4.52,3.78-3.93q3.18-2.09,0,0c-1.12,1.02-2.46.83-4.02-.55-.36,2.41-1.36,3.93-3,4.55-1.39-1.35-1.37-3.26-.98-5.46.21-1.19,1.78-2.23,3.26-3.45,3.2-2.67,7.64-2.67,11.4-2.94Z"/>
            <path class="cls-41" d="M336.07,239.73c1.76.5,3.43.56,5.02.17.08,2.87-.71,6.84-4.04,6.97-2.5.1-5.03.07-8.01-.12,1.15-4.35,6.25-4.75,5.44-7.93,1.3-1.77,2.11-1.28,1.59.91Z"/>
            <path class="cls-136" d="M328.05,241.97c-1.11,1.72-2.11,3.42-.94,5.66-2.18.39-3.58.26-5.12.2-.6-.42-.53-1.43-.97-1.85-.24-2.64,1.84-8.91,3.98-6.88l3.04,2.87Z"/>
            <path class="cls-91" d="M330,249.9c-.13,1.58-2.99.27-3.78,1.36-2.33,3.25-7.6,4.9-11,2.29-1.38-1.06-2.51-1.97-4.1-1.62-1.24-2.04-1.8-3.02.83-2.04-.99,2.35,13.22.26,18.05,0Z"/>
            <path class="cls-55" d="M316.13,244.94c-2.41,1.37-3.68,2.3-.37,1.9l1.36,1.97c-.95,1.76-3.45.99-5.17,1.09-.47.03-.9.28-.95.7-.06.49.04.95.12,1.34-2.05-1.97-3.07-5.29-6.25-5.07,1.21-.46,1.89-1.56,2.92-2.19,2.31-1.42,4.13-3.53,6.93-4.59,1.18,1.68.9,3.45,1.42,4.85Z"/>
            <path class="cls-180" d="M350.84,237.96c-1.43,3.09-1.3,6.57-5.37,8.09-1.22-2.92.73-5.44.43-8.04.85-6.51,7.79-7.18,4.94-.05Z"/>
            <path class="cls-90" d="M350.84,237.96c-.14-.68.19-1.87-.07-2.55-.22-.57-1.86-1.07-2.91-.52-1.18.61-.99,2.54-1.97,3.12.52-2.16.2-4.57,1.17-5.45.86-.78,3.81-1.71,5.05-1.11,2.31,1.67-.48,4.8-1.27,6.51Z"/>
            <path class="cls-85" d="M316.13,244.94c.46,1.26,1.28,2.46.99,3.88l-7.22.14c.62-2.84,2.82-3.6,4.36-5.58.62.58,1.19,1.13,1.87,1.57Z"/>
            <path class="cls-118" d="M341.09,239.9c-.73.72-1.4,1.76-2.18,1.56-1.35-.35-2.23-.92-2.83-1.73.12-1.58.67-2.22,2.06-2.44-1.62-.35-2.74-1.09-3.37-2.21l-.07-.97c1.93-.14,3.82-.46,6.23-.13l.16,5.92Z"/>
            <path class="cls-110" d="M336.07,239.73c-.38-.51-.95-.87-1.59-.91-.32-1.25-.57-2.67.29-3.74,1.64-.31,4.72-.69,5.25,1.83.53,2.5-2.53,2.63-3.95,2.82Z"/>
            <path class="cls-22" d="M328.05,241.97c.63-.97.09-2.8,1.05-3.32,1.04-.56,2.36-.8,3.06.1.91,1.16.24,2.83-1.1,3.56-.89.48-2.44.2-3.01-.34Z"/>
          </g>
        </g>
        <path class="cls-192" d="M226.02,255.82c-2.75,1.21-5.07-.84-7.19-1.25.89-.71,1.72.22,3.13.02-.72-2.29,0-3.98.1-5.81,1.06,1.46,2.46,2.74,4.66,1.72l.02-4.61c2.01.91,2.01,3.2,2.17,5.41.14,1.88-1.14,3.51-2.89,4.51Z"/>
        <path class="cls-24" d="M214.04,250.96l-2,3.68c-.94,1.73-3.04,1.05-4.37,1.1-.68-2.45-1.68-5.49.09-8.04.67-.96,3.32-1.09,4.24-.36s1.44,2.25,2.04,3.63Z"/>
        <path class="cls-155" d="M218.83,254.57c-2.58-.49-3.51-.69-4.8-3.61.69-1.27.13-3.12,1.56-3.67,1.18-.45,3.01-.05,3.03,1.64.03,2.1-.56,3.92.21,5.64Z"/>
      </g>
    </g>
    <g>
      <path class="cls-167" d="M265,0c3.39.36,6.72.69,10,1,12.87-.9,26.03,0,38.65,2.78,10.29,2.27,25.79,6.73,34.88,11.66,1.48.8,2.47,2.25,3.34,3.65,23.97,22.8,42.79,57.37,50.58,89.85,6.42,26.73,7.32,76.62,4.61,103.12-.03.31-.48.59-1.05.85.25,1.25.33,2.58.29,3.93-.56,20.33-1.23,41.69-4.29,62.04-.58,4.64-1.14,10.41-.04,14.94-2.49,18.75-4.51,37.51-6.03,56.27l-.93.75c2.67.48,2.47,1.87,0,3-1.36,5.06-3.58.05-2-3-.83-7.86-1.38-16.09-1.65-24.7l-1.16-.78c-.27-7.33-1.18-14.53-2.73-21.61-2.74,24.09-5.94,49.08-12.42,72.49-.96,3.45-5.57,17.94-7.11,19.26-1.45,1.24-6.08,1.65-7.94.71,4.85-51.23,7.7-102.56,8.56-154l-.61-7.38c-1.67.85-2.86-5.38-3.22-7.43-.07-.43.04-.89.21-1.36-2.74,1.43-5.51,1.64-4.78-2.04-4.13-.26-10.29-3.49-13.34-6.97-3.31-.1-6.52-1.94-9.64-5.52-4.26-1.05-6.95-2.92-8.08-5.6-2.48.11-6.2-2.44-6.03-4.9-26.75-20.07-51.13-44.98-70.39-71.76-1.23,1.04-1.74,1.95-1.54,2.73h1.11c2.39,7,5.4,13.73,9.04,20.19.45,2.35.45,4.29-.02,5.84,2.58,3.14-.53,10.27-4,6.17l-2.9-.57c-7.5-12.73-14.72-25.53-21.66-38.4-3.4,9.13-6.68,18.39-9.83,27.78-12.12,26.29-26.68,50.89-43.71,73.82.98,1.62-2.36,6.36-4.14,5.08-2.02,4.87-2.52,10.42-1.49,16.64,1.6,39.23,3.79,78.59,6.55,118.09-1.63,4.57-2.68,5.05-5.22.63-4.86-16.8-9.51-33.55-13.93-50.27.48,11.3,1.69,22.41,3.64,33.35,1.65,17.8-6.65,9.88-9.07-3.29-7.66-26.6-14.93-53.36-21.8-80.3,1.4,17.97,3.37,35.87,5.91,53.68-.72,3.08-1.8,2.68-4.52,1.29-2.01-1.03-13.4-40.03-14.14-42.72-8.71-31.73-14.14-63.26-16.99-95.15l-1.21-.39c-.96-16.41-1.1-32.89-.42-49.44l-1.2.78c-4.94,21.01-9.7,41.77-8.34,63.69-.54,3.94-1.46,9.29-6.06,5.49l-5.76-28.1c-.73-.21-1.31-.45-1.38-.8-1.97-9.5-1.71-19.91-.54-29.32-.51-12.46,1.25-23.2,3.94-35.51.79-3.64,9.05-28.87,10.65-30.27.55-.48,1.67.34,2.29,1.15,3.31,4.28,7.12,8.13,11.43,11.57l-.34,1.23,13.42,26.04c4.07,9.19,7.64,11.99,10.71,8.41l2.56.2c.31-.91.41-1.78.3-2.61,6.94-3.13,13.46-7.1,19.56-11.91,5.18-2.91,9.88-6.13,14.13-9.66,3.9-1.72,7.71-2.56,11.42-2.51l.56-1.11c8.02-1.44,14.94-4.82,20.36-10.75,8.78-19.63,14.97-40.57,16.6-62.1,3.19-7.57.37-17.06-3.54-24,.4-.65.84-1.25,1.4-1.68,2.79-2.15,18.07-1.55,22.54-1.25,3.19-.3,6.52-.64,10-1h18Z"/>
      <path class="cls-147" d="M275,0v1h-8.06c-1.05,0-2.01-.17-1.94-1h10Z"/>
      <path class="cls-147" d="M247,0c-2.83,1.83-6.63,1-10,1v-1h10Z"/>
      <path class="cls-139" d="M175.02,231.92c.95.7,1.01,2.23.19,4.58,1.2,2.65,1.12,4.42-.24,5.32l1.09,1.56c1.91,41.91,4.7,84.64,12.36,125.01.31,7.45,1.19,14.97,2.63,22.56,1.09-.03,1.23,1.45.12,1.8,1.64,3.81-4.83,2.76-7.26,2.13l-.98,1.87-39.86-6.17c-3.3-.85-5.83-1.9-4.19-5.56-.57-.3-1.04-.63-1.19-1.07-2.39-6.96-4.68-14.64-6.68-21.88-7.33-26.5-14.19-53.16-19.95-79.54l.72-4.72-2.05-.51c-1.01-18.43-2.93-36.8-5.76-55.11l1.8-2.27c-1.25.18-1.59-1.02-1.01-3.61-.97-10.33-1.62-20.73-1.89-31.25,0-.38.46-.78,1.06-1.18l3.1,17.99,6.38,35.45c4.25,23.61,9.54,44.05,17.59,66.36,2.24,6.21,2.72,12.53,6.73,18.62-.63-11.63-3.07-22.35-4.33-33.82-1.52-13.86-2.11-27.11-2.76-41.29l8.53,32.76c2.27,8.85,4.28,17.42,6.77,26.09l7.96,27.78c2.6,9.05,4.43,17.88,8.56,26.56,1.54-8.74-1.56-16-2.05-23.9-.67-10.87-2.15-21.06-2.01-32.33,2.76,3.77,2.21,7.63,3.96,11.25,2.44,5.06,2.86,10.59,4.37,15.87l3.58,12.53c2.47,8.64,3.94,17.06,7.54,25.68,1.19-11.75-1.05-22.26-1.76-33.57l-2.84-44.98-1.55-53.01c-.1-3.26,1.5-4.35,3.33-5.97Z"/>
      <path class="cls-148" d="M103.13,219.9l1.02,2.32c-8.96,18.15-7.49,36.63,4.09,53.62-.98,1.37-1.06,2.67-.01,3.88.74.94,1.62,1.59,2.63,1.92,7.68,34.84,15.87,69.2,27.04,102.94-.06,3.08-1.3,3.33-3.99,2.29-.39,3.3-9.08,1.52-11.72.58-3.31-.5-4.07-1.55-4.37-4.78l-.79-.62c-1.7-17.19-2.56-25.78-2.56-25.78-1.1-1.51-1.94-1.72-2.53-.63-2.96,7.55-6.23,14.86-9.8,21.94l-1.14.2.19,2c-4.43,2.52-9.7,3.99-7.28-3.14-.18-3.85.05-9.97.89-14.1.05-.26.56-.44,1.21-.58l-.94-4.87c6.52-35.59,2.08-72.42-3.72-106.92l1.69-2.17-2.89-4.99c-1.73-10.74-3.37-21.46-4.9-32.16-.72-.56-1.31-1.14-1.47-1.83-2.07-8.97-3.42-21.68-3.89-30.96-.04-.7.43-1.43,1.05-2.17,1.86,1.85,1.44,5.06,2.31,7.8,2.24,7.03,4.56,13.26,5.49,21,3-4.63,1.79-9.07,2.07-13.79.54-6.62-.55-13.16.68-19.62l2.38-12.52c.7-3.66,4.48-23.34,7.23-23.95l1.13,2.77c-.32,27.63.4,55.04,2.16,82.22l-1.25.09Z"/>
      <path class="cls-139" d="M133.67,128.6c-1.6,1.08-1.79,3.72-4.43,3.52-2.13-.16-4.19-.59-5.58-2.93-2.14-3.61-4.72-7.19-6.47-11.14-2.78-6.25-5.37-12.18-9.13-17.94-1.26-1.93-.89-4.33-1.09-6.17l1.44-.31c2.23,2.6,4.39,5.2,6.48,7.8l.43-.79c12.02.83,24.05,1.03,36.12.59,2.64.2,17.03,1.44,17.11,2.8-9.24,6.23-18.46,12.5-27.68,18.8-3.47,1.35-5.86,3.27-7.19,5.76Z"/>
      <path class="cls-28" d="M393,350.86c-.28.87-.62.86-1,0-1.49-.12-1.68-3.19-.34-3.91l-2.36-6.84c-1.74,3.27-3.18,6.88-4.3,10.82-1.01,8.34-2.79,16.66-5.34,24.96-1.17,7.02-2.95,13.72-5.32,20.12.76.22.69.48-.11.78l-5.29-.06c-4.95-.05-9.86.36-14.2.19l-.82-.54c1.61-16.73,3.29-33.66,5.04-50.8l1.01-1.89c-1.61-3.6-1.46-7.68.45-12.22,3.06-31.18,5.13-62.47,6.21-93.87l1.3-2.74c2.17,4.04,1.74,33.19,1.54,40.46l-.86,31.96-1.12,21.7-2.22,23.83-3.44,43.62c5.03,3.16,8.21-12.58,9.69-16.05,5.06-11.87,13.9-65.82,14.16-81.56,7.14-3.61,7.26,48.89,7.32,52.04Z"/>
      <path class="cls-188" d="M257.25,164.21l2.77.81,2.69,6.85,17.7,23.81-.65,2.3c1.13.87,1.8,1.46.29,1.99l-2.57-1.01c-16.89-18.71-31.27-39.38-43.13-61.99-1.09-2.52-2.23-2.76-3.42-.69-9.17,30.44-26.66,67.33-49.74,90.13-.42.41-1.18.48-2.04.44.71-5.34,5-9.22,7.82-13.76,4.43-7.13,8.42-14.13,12.83-21.09l5.05-7.96c12.55-19.8,21.19-40.26,26.73-63.54,3.59,3.84,4.84,7.94,7.06,11.81l10.54,18.31c2.74,4.77,4.76,9.37,8.06,13.6Z"/>
      <path class="cls-26" d="M323.06,201.04l-2.39.07c-18.71-12.88-36.06-27.32-52.03-43.33-1.85-1.49-2.75-3.12-2.71-4.91-1.41-.74-2.76-1.28-4.07-1.63-4.67-5.73-7.86-12.29-9.57-19.66l-1.16.43c-1.27-4.26-3.6-8.04-5.52-13.13,4.81.45,4.38,5.37,6.62,8.06l18.03,21.68,14.41,15.69c7.78,8.48,15.98,15.67,24.41,23.59l13.99,13.14Z"/>
      <path class="cls-54" d="M355,19.95c6.22,4.44,16.76,14.58,20,21.37.65,1.37,1.04,2.95,1.02,4.49.78-.19,1.98-.45,2.3.05,7.06,10.84,16.55,29.86,20.86,42.05l-1.24,2.12c2.82.65,3.44,1.02.9,2.91,2.79,1.26,5.6,5.5,3.08,8.13,2.6.87,2.88,4.81,1.94,7.07,2.89,1.1,2.55,3.75.87,5.81,1.74.23,2.5.82,2.08,2.45-2.31.93-1.74,3.72-.81,5.55.61,1.1,1.18,2.21,1.62,3.37s.84,2.27.95,3.42c2.76,30.65,3.65,62.6.75,92.28-.71.62-1.49.52-2.32-.12-.75-2.21-1.08-4.88-1-8-.46-4.26.69-8.38.8-12.97.31-12.77.64-25.17,0-37.92l-.83-16.16c-.5-9.69-.91-19.37-3-28.62-2.73-12.11-5.54-23.56-10.4-34.74-7.04-16.21-15.22-31.05-25.47-45.64-4.69-6.67-11.53-11.17-15.23-17.77.93.42,2.14.5,3.13.85Z"/>
      <path class="cls-105" d="M104.95,90.01c2.47-.97,3.8-.3,3.99,2.03l2.35.25c2.6,4.43,7.64,6.23,12.59,6.28,11.78-1.11,23.31-.83,34.61.86l1.42,1.56c4.56.83,9.64.86,14.19-.06.61-1.91,1.45-1.87,1.88.08,1.3-.74,4.41-1.08,3.1.88-7.24,1.44-20.99,10.24-28.03,14.98l-17.38,11.72c-1.86.62-1.88-.35-.08-1.49.69-2.12-2.84-.97-3.62-3.78,4.27.61,7.98.94,11.44-1.81,8.23-6.56,16.98-11.58,26-17.46-19.2-3.68-33.28-.22-51.3-2.22.46,4.44,3.51,6.81,4.79,11.01-6-1.77-5.88-11.37-13.92-18.91l-4.68-4.39c-2.6-2.44-5.09-5.47-6.41-8.42-.27-.61.25-1.56.07-2.21,4.01.98,9.07,6.93,9,11.09Z"/>
      <path class="cls-153" d="M103.93,183.87c.61,4.68.12,9.61.45,14.69l1.38,21.34c.1,3.6-3.25,3.56-2.64-.01.02-.7,1.02-2.18.9-3.21-1.51-11.54-1.75-22.7-2.52-34.38-1.06-16.09-.32-31.81-.42-47.5-.02-3.65,1-7.49,2.92-11.1-.92,13.9-1.96,49.3-.09,60.16Z"/>
      <path class="cls-18" d="M200,90.04c-1.13,1.18-1.39.83-.76-1.05l-.66-3.01c7.96-18.3,13.52-37.7,14.75-57.48l1.78-1.36c-.11-1.59.65-2.68,2.27-3.25l-1.43-.37c-.73-5.93-2.32-11.61-4.79-17.06l.98-2.51c.3-.04.63.06.92-.01,1.3.01,1.65,1.36,2.21,2.34,4.52,8,3.55,15.82,2.32,24.51-2.94,20.8-7.25,41.36-17.58,59.26Z"/>
      <path class="cls-135" d="M403.76,293.85c2.26,1.27,1.59,3.65-.93,4.08,2.09,1.02.7,2.24-.92,3.01l1.58,1.99c.24,9.65-1.29,18.67-4.58,27.07.47.29.93.6,1.3.99.64.65-.78,16.11-1.33,17.97l-1.84,1.92c-.24,2.61-1.13,2.4-2.04-.02-.55-3.62.52-7.08.9-11.04l5.21-54.89c.23-2.45-.91-4.63.9-6.03.44.07.83.18,1,.44,1.87,2.81,1.15,10.5.76,14.53Z"/>
      <path class="cls-35" d="M407,220.91l1.96.98-1.19,26.6c.35,3.74-.04,7.36-1.19,10.86.64,1.09.43,2.65-.64,4.7-.99,3.02-.8,5.17.59,6.45-.29,2.12-1.1,3.87-2.43,5.24-.22,2.16-.92,3.21-2.09,3.15-.04-4,0-8.07.59-12.45,1.47-10.87,1.39-21.52,1.77-32.53,0,.24,1.19-25.31,1.65-20.99,1.87,1.94,1.12,5.35,1,8Z"/>
      <path class="cls-81" d="M265.92,152.87c-.64-.03-1.36.4-1.99.33-.5,1.67-1.67-.36-1.39-.81.15-.23,2.82,4.7.54,4.55.33.68,0,.99-.83,1.02l-1.01.08c.15-1.01-8.43-20.34-10.13-26.03,1.3-8,3.84,8.41,8.14,13.54,2.25,2.69,4.77,4.78,6.65,7.32Z"/>
      <path class="cls-72" d="M200,90.04c-4.16,7.21-13.03,10.28-20.92,11.86-.29-1.27-2.11-.81-3.1-.88-1.11-.02-1.83-.69-1.37-1.61,6.48-1.53,12.69-3.85,18.61-6.94,1.96-2.34,3.97-3.49,6.02-3.47.5.09.77.56.76,1.05Z"/>
      <path class="cls-67" d="M358.1,343.72c.93,3.22,1.02,6.65.27,10.3-1.17,14.26-3.08,28.88-5.34,42.84.43,2.16-26.26,2.09-27.03,2.04-.03-3.35.17-6.7-.65-10.46,6.1-7.32,11.69-14.94,16.9-23.23l15.24-24.25c.89.63.32,1.82.61,2.76Z"/>
      <path class="cls-79" d="M359.97,343.69c-.09,11.55-2.19,23.06-3.39,35.03l-1.83,18.2-1.72-.07c.71-17.39,4.1-35.29,5.06-53.14.62-.06,1.25-.06,1.88-.03Z"/>
      <path class="cls-82" d="M196,6.9c7.91,3.7,14.09,9.76,18.52,18.19,1.57-.28,1.62.72.59,2.06,1.63,4.73-5.11,34.76-7.12,39.76-2.95,7.36-5.02,15.55-8.75,22.08-4.03,7.06-14.93,10.04-21.62,11.19-1.72.17-2.23-.07-1.64.84-.62-.04-1.26-.09-1.88-.08-4.5.93-9.6.87-14.19.06-11.61-1.89-23.37-.59-35.29-.42-6.96.1-13.19-2.76-15.67-8.53l-1.91-1.81c1.27-3.91,2.12-8.08,2.54-12.52l1.28-.68c1.97-1.75,4.42-.36,7.35,4.2,7.92,3.68,16.2,6.53,24.83,8.55,3.07,1.77,6.09,2.89,9.09,3.37l1.06-.71c6.36,2.3,12.17,2.82,18.65,1.44,6.09-3.62,10.41-9.21,12.97-16.77l1.23-.06c.63-4.11,2.35-8.71,4.73-12.02-.34-1.74-.5-4.87,1.28-5.26-1.95-1.53-2.06-2.28-.31-2.25.62-2.74,1.37-5.24,2.24-7.5.04-13.3-.5-26.66-1.63-40.09l.66-2.04c1.02-.1,1.98-.73,3-.99Z"/>
      <path class="cls-151" d="M135.19,61.8l1.49.62c1.75,5.25,5.66,10.1,9.41,14.14,7.2,7.78,9.79,7.87,16.75.13,4.91-2.17,9.37-5.7,13.37-10.6,2.67-3.75,5.49-7.13,8.45-10.13.77-5.95,3.6-2.32,4.89,1.48,1.67.1,1.65,1.48.09,2.24.69,5.23-.77,12.1-4.58,15.27.67,1.56.25,2.08-1.17,1.12-5.33,7.29-13.89,15.3-22.9,16.96-1,2.08-5.93.14-8.34-.87-6.44-2.69-23.7-14.68-29.59-19.41-.19-.15-.24-.47-.26-.83-3.23-1.8-6.51-3.46-9.86-4.98-1.43-7.6-.29-17.66,2.79-24.66,2.55-2.04,5.12-4.11,8.18-5.33l1.23.02c2.79,8.49,6.1,17.17,10.06,24.83Z"/>
      <path class="cls-154" d="M176.12,27.86c1.3.39,1.38,1.72-.15,2.04.37,1.81,1.14,2.79,2.31,2.95.73,5.2,1.53,21.01-1.93,25.05-.26.31-.84.34-1.52.29-3.56,6.04-5.63,6.24-10.43,1.22-5.4-5.64-9.32-17.99-7.38-25.41-1.33-2.35-1.35-3.98-.07-4.9-.92-3.54-.14-7.06,2.22-9.79,2.95-2.04,6.57-2.79,9.96-3.93,3.24,2.99,6.38,8.3,6.99,12.5Z"/>
      <path class="cls-133" d="M192,8c1.79,11.53,2.12,23.19,1,34.99.17,4.93-.24,9.78-1.22,14.54-1.7.95-2.97-.32-3.83-3.81-1.5-.04-1.26-.46.35-1.18l-.11-1.55-1.18-.55c-1.47-5.33-3.7-9.66-6.82-13.83-1.65-2.21-1.77-3.06-1.28-5.62-1.58.23-2.65-2.44-1.8-3.91-2.61-3.74-4.96-7.71-7.07-11.91,6.88-3.45,14.47-6.39,21.97-7.16Z"/>
      <path class="cls-151" d="M155.36,24l-.53,3.85c-8.35,7.14-14.71,18.9-16.63,30.12l-1.34.93-.07.97c-.49.94-1.13,1.26-1.66.5-4.44-6.37-7.69-15.85-9.99-23.33-.13-.41.46-.93.89-1.29,9.71-6.19,20.17-11.84,31.12-15.41,1.23,1.26.17,3.96-1.79,3.65Z"/>
      <path class="cls-77" d="M109.07,72.87c.54.21.96.41.95.58-.41,5.77-1.48,12.03-2.82,17.43l-2.25-.87c-3.3-3.45-6.49-7-9-11.09-3.05-4.97-3.96-11.12-7.55-15.61,1.77-1.25,4.24-3.63,5.77-5.11.64-.64,1.41-.79,2.26-.9.91-.11,11.12,12.02,12.31,13.51l.32,2.06Z"/>
      <path class="cls-190" d="M109.07,72.87c-2.62.88-12.09-13.69-14.89-14.67,4.92-4.75,13.16-11.29,18.99-14.05.68,3.89.48,8.06-.59,12.51.46,6.04-.71,11.44-3.5,16.21Z"/>
      <path class="cls-174" d="M212.13,3.94c6.39,12.45,4.3,15.79,5.24,19.95-.29,1.43-1.35,2.7-2.55,1.61-4.52-8.22-10.46-14.43-17.83-18.62,4.93-1.35,10.04-2.32,15.13-2.94Z"/>
      <path class="cls-14" d="M115.72,42.28c-1.12,7.46-3.56,15.48-1.4,23.44,3.31,1,6.06,4.66,8.47,6.2.4.7.15.96-.69.81-2.65.76-5.53.13-8.64-1.88.08,3.29-.79,5.35-2.62,6.18-.77,4.97-2.22,9.94-1.91,15.01-1.63-.17-2.91-.9-3.99-2.03.44.06,1.02.09,1.48-.11.58-.25.44-1,.55-1.81l2.09-15.21c1.3-9.49,3.27-19.07,4.09-28.72.69-.42,1.9-1.34,2.56-1.87Z"/>
      <path class="cls-47" d="M193.97,50.03c-2.08-.41-1.71-4.98-.97-7.04-.02-5.1.33-10.46-.19-16.02-.26-2.76-1.97-18.35-.81-18.97l1-.1c.14,9.99,3.57,20.57,1.11,31.12-.86,3.67.43,7.67-.13,11.02Z"/>
      <path class="cls-44" d="M126.03,35.76c.32,2.6,7.81,24.91,10.76,24.11.77,1.79.24,3.37-1.6,1.93-2.16-1.34-3.27-3.88-4.28-6.53l-7-18.32c.63-.25,1.54-.82,2.13-1.19Z"/>
      <path class="cls-63" d="M217.38,23.89c.18.78.24,1.6-.27,2.28-.46.62-1.11,1.7-1.99.97l-10.38-13.92c-2.22-2.98-7.11-3.15-8.73-6.33.24-.06.77-.1,1-.02,3.31,1.44,7.75,2.81,10.03,6.09l8.13,11.72c.67.16,1.72-.64,2.21-.8Z"/>
      <path class="cls-9" d="M177.11,27.07c.49,1.56.25,1.91-.99.79l-6.99-12.5c.29-.1.64-.07.91-.21,3.38,3.09,5.58,7.61,7.07,11.91Z"/>
      <path class="cls-97" d="M156.95,29.09c-3.85.19-2.96-2.14-1.59-5.08.85-1.05,1.36-2.4,1.79-3.65.64-.21,1.47-.67,2.02-1.06-.7,3.24-1.84,6.43-2.22,9.79Z"/>
      <path class="cls-187" d="M138.88,385.02c-.87.71-.91,2.29-1.66,2.75-1.17.72-2.58-.51-3.3-.9,1.09-.21,2.63.39,3.17-.3.7-.91-.48-2.58-.7-3.33l-10.79-35.76-9.12-35.83-2.9-15.21c-1.11-5.82-2.33-11.85-5.34-16.71-2.59-5.98,1.94,2.45,2.07,1.34,1.45-.77.52-2.39,1.48-3.25.82,10.11,4.15,20.02,6.25,30.37,4.25,20.9,9.93,40.94,16.24,61.2,1.72,5.52,3.48,10.44,4.61,15.65Z"/>
      <path class="cls-74" d="M117.82,382.67c-.08,1.16.08,2.36-.18,3.79-8.01-.31-15.26-2.08-22.72-4.16,2.78-1,5.09-.28,7.12-1.41l2.12-1.09c1.23,1.04,9.44,2.34,9.86,1.78.57-.74-1.02-19.02-1.86-18.6l-7.22,15.79-3,1.02c-.49-.58-.8-1.27-.96-2.01.58-3.06,3.03-5.34,4.22-8.55,2.49-6.74,4.43-13.29,8.36-19.3,3.24,3.38,4.44,29.75,4.24,32.75Z"/>
      <path class="cls-8" d="M93.04,247.99c-.7-1.18-2.18-2.68-2.4-4.89-1.38.2-2.02,1.14-2.78,1.83-1.97.14-1.66-1.58-.71-2.92l-1.49-1.64c1.32-5.2,1.71-10.31.31-15.57-.36-3.93-1.9-7.69-1.69-11.65,1.17.27.67-1.65.95-2.32,2.64,12.36,5.79,24.63,7.8,37.15Z"/>
      <path class="cls-38" d="M391.66,346.95l-1.8-1.09c-1.08.86-1.57-2.29-1.48-2.16,1.02,1.47.93,4.78-1.31,4.52-.4.98-1.81,1.68-2.08,2.71.5-4.3,1.33-8.74,2.84-13.25,1.33-3.98-.06-8.1,2.59-12.13l.76,13.23c.17,3.02,1.13,5.57.47,8.17Z"/>
      <path class="cls-72" d="M174.1,100.93c2.87,1.38-15.6,1.67-14.19.06l14.19-.06Z"/>
      <path class="cls-179" d="M389.86,345.85c.65,1.21-.02,2.63.18,3.84l-1.3-.05c-.36-.67-.98-1.13-1.66-1.43.64-1.57,1.01-3.13,1.17-5.43,1.32.71,1.15,2.04,1.61,3.07Z"/>
      <path class="cls-158" d="M122.11,72.73c9.52,5.9,18.99,11.94,28.4,18.11l1.61,2.31c-.07.62,1.01.69.67,2.04-10.44-4.28-23.87-6.43-34.5-11.53-3.09-1.48-4.31-5.74-7.43-6.63.46-2.99-.55-5.89,2.16-9.38,2.58,2.75,6.75,3.23,9.09,5.08Z"/>
      <path class="cls-94" d="M160.99,93.04c4.28-1.97,7.64-1.95,10.06.05.75-.27,1,0,.78.8-3.87.9-7.47,3.94-12.5,1.36-2.02-1.04-5.36-.93-7.21-2.1-10.22-6.45-20.55-12.97-30.01-20.42.13-.34.36-.64.69-.81l29.34,18.66c3.16,2.01,5.77,2.08,8.85,2.45Z"/>
      <path class="cls-51" d="M193.97,50.03c.97,3-1.27,7.03-1.93,9.75-1.5,1.08-1.93,2.83-1.28,5.26-1.05,4.29-2.68,8.24-4.73,12.02-1.32.14-1.43-1.03-.98-2.09l3.85-9.17c1.63-3.88-.4-8.1-2.01-11.75-1.31.48-1.48,1.48-2.24,1.94-1.09.52-1.32-.06-.67-1.76-2.08-1.56-1.58-5.7,1.07-6.44l.98.02c1.02,3.72,1.74,4.78,2.15,3.19.77,2.04,1.14,4.17,2.56,6.33,2.33-3.35.06-15.05,2.25-14.33.01,2.79.17,4.58.97,7.04Z"/>
      <path class="cls-69" d="M186.03,77.05l-5.51,10.16c-2.66,4.9-4.51,5.7-8.68,6.67l-.78-.8.43-2.29c4.79-4.09,8.93-8.99,12.41-14.73.37-.1,1.07-.73,1.17-1.12,1.08-.22.86,1.42.98,2.09Z"/>
      <path class="cls-56" d="M192.04,59.78l-1.28,5.26c-.55,2.05-1.42-5.06-.31-6,.45-.38,1.6-.23,1.59.75Z"/>
      <path class="cls-165" d="M184.66,55.97c-3.35,7.6-22.72,27.21-31.62,27.8-7.94-5.5-14.12-13.5-17.85-21.97.84-.33,1.54-1.06,1.6-1.93l.07-.97c1.96-1.55,2.25,1.02.79,2.26,1.75,1.2,3.15,3.1,4.22,5.69,3.49,4.89,7.45,9.09,11.87,12.61l6.48-2.63c-2.01-1.86-2.98-3.51-4.08-5.97-1.16-2.6-3.65-9.33-1.14-10.89.32-2.65,1.24-2.54,2,0l2.06,1.22c.3,2.31,3.18,11.35,4.45,12.29.6.45,5.98-3.87,6.16-5.35l2.25-.11c1.42-2.79,3.09-4.17,5.02-4.14.8-3.37,3.07-10.7,7.04-9.68.32.37.89,1.28.67,1.76Z"/>
      <path class="cls-127" d="M183.88,76.07c.16,3.3-2.41,5.63-4.02,8.58-2.14,3.91-4.56,7.1-8.81,8.44-3.39,1.07-6.86.33-10.06-.05,6.03-3.6,11.34-8.2,17.22-12.85,1.75-1.39,3.67-3.97,5.68-4.12Z"/>
      <path class="cls-96" d="M174.84,58.18c1.49-.42.69,3.91.3,5.04-.63,1.84-1.65,3.6-3.21,4.8-1.49,3.7-5.04,6.75-9.52,7.93-2.44-5.7-5.38-10.79-5.4-15.98-.56-.14-.99-.28-1-.45-.45-7.69-.47-16.69-.47-24.49,0-.35.21-.7.48-1.05.29-.87.63-.86,1.02,0,.01,3.43-.19,6.89.21,10.8,4.32,3.79,8.62,16.68,12.53,16.14,2.19-.31,3.39-2.26,5.08-2.74Z"/>
      <path class="cls-175" d="M178.9,30.98c4.33,5.35,6.81,13.42,9.29,19.99-.2,5.92-3.07-3.01-3.13-3.21l-2.92-2.28c-.66,6.34-2.39,12.47-5.2,18.4-1.4,1.92-2.58,3.53-5.02,4.14l2.92-9.84c3.55-6.4,3.45-13.96,2.23-21.5l-1.1-6.78c1.2-.54,1.84.06,1.91,1.81l1.02-.72Z"/>
      <path class="cls-130" d="M156.95,29.09c-.1,1.63.07,3.27.07,4.9h-1.02l-.93-3.11c-1.73.06-1.95-.58-.61-.35-6.1,8.59-10.43,17.78-13,27.59l-2.29,2.01c1.61,2.52.2,3.48-1.53,1.04,0-.85.23-1.91-.79-2.26.92-13.01,10.18-24.6,18.51-34.9.31,1.76.64,3.55,1.59,5.08Z"/>
      <path class="cls-75" d="M178.9,30.98c-.02.41-.04.86-.08,1.17-.06.53-1.04.96-1.31.44-.57-1.09-.65-2.16-1.54-2.7-.1-.61.12-1.42.15-2.04.03-.36.75-.58.99-.79.39,1.13,1.56,2.74,1.8,3.91Z"/>
      <g>
        <path class="cls-62" d="M105.77,219.91c.38,5.8,2.2,11.3,2.73,17.79l3.27,40.1c-.18,7.23-1.99,4.65-4.27-.23-.05-.1.97,1.71.72,2.14-3.83-6.18-7-12.72-9.97-20.14-4.56-11.39-.67-30.01,4.87-39.67.58.71,2.22.99,2.64.01Z"/>
        <path class="cls-99" d="M103.1,264.94c-4.16-9.41-2.87-18.75-.23-28.57-.25-3.39.5-5.9,2.23-7.55,1.3,1.72.65,3.6.87,6.1l3.62,42.82c-3.03-4.02-5.56-8.2-6.49-12.8Z"/>
        <path class="cls-100" d="M105.11,228.82c1.1,10.83-4.61,18.65-2.82,28.49.5,2.76,2.57,5.46.81,7.62-3.98-.81-4.96-17-4.83-19.03.54-8.29,2.81-15.87,5.78-23.19,2.02,2.06.21,4.68,1.06,6.1Z"/>
      </g>
      <path class="cls-30" d="M185.06,47.77c-.22,2.07.19,4.71-1.07,6.44l-7.04,9.68c-1.12-.88-.3-3.31.26-4.79,2.73-7.25,3.42-13.93,2.47-21.95,2.45,3.35,4.26,6.82,5.38,10.63Z"/>
      <path class="cls-49" d="M155.07,30.88c.85,9.37,1.11,18.97.93,28.44,0,.22-.44.44-1,.66l3.03,10.26c.75,2.55,2.49,4.17,2.18,6.6-1.94,2.51-6.5-.75-8.67-2.39-2.02-1.52-12.51-11.28-12.81-12.91-.08-.43.14-.91.44-1.41,1.15-11.34,7.64-21.83,14.85-31.06.84-.03.95,1.49,1.04,1.82Z"/>
      <path class="cls-184" d="M160.22,76.84c-.4,3.18-5.04,6.01-8.21,4.02-4.34-2.72-6.7-7.33-10.09-10.9-2.49-2.62-4.28-5.42-4.26-8.79.64.08,1.46-.33,1.53-1.04l13.2,12.39c2.33,2.19,5.37,2.92,7.84,4.32Z"/>
      <path class="cls-97" d="M156,33.99c-.13,4.88.94,9.74.96,14.98l.04,11.01h-2l.07-29.1c.9.81.96,1.95.93,3.11Z"/>
    </g>
  </g>
  <path class="cls-53" d="M78.85,357.79c-3.49,1.21-7.23,1.36-10.84,2.09-.22-2.8-.03-5.83,1.33-8.86,4.49.37,7.14,3.65,9.51,6.77Z"/>
  <path class="cls-33" d="M84.99,282.9c-1.26-.44-2.84-1.22-4.05-.53-4.17,2.33-.41,5.57-6.47,12.93-1.48,1.8-1.73,4.37-3.46,5.58.2-6.29,4.06-6.99,4.01-10.81,2.44-1.06,1.01-10.45,7.7-10.53,1.71-.02,2.16,2.35,2.28,3.37Z"/>
  <g>
    <path class="cls-117" d="M74,122.95v7c1.96.7,2.43,5.58,2.45,7.71,0,.78-.17,1.52-.5,2.24,2.44,12.79-.54,23.48-12.93,29.28-3.3,15.02-2.11,28.04,16.42,24.12.67,3.91,1.53,7.82,2.58,11.71.35,2.79.78,5.78,2.27,8.15,1.2,2.98,3.37,9.1,1.69,11.65,2.19,7.98.48,14.89-3.38,21.92-2.36,11.39-6.54,22.27-12.49,32.36.76,2.32-2.03,4.7-3.95,5.91-1.06,2.85-2.43,4.48-4.1,4.89-.39-.88-.71-1.8-.94-2.73,5.75-4.67,7.85-11.62,10.98-18.59,1.73-3.85,4.85-7.34,3.59-12.38-.46-1.82-1.46-3.18-3.23-3.23-5.08-.13-4.55,6.73-8.85,6.03-1.76-.29-3.96-1.75-4.96-3.87l-7.31-15.49c-1.46-3.1.83-7.44-.55-10.49-9.32-20.6,15.11-28.73,9.35-36.19-4.23-5.5-2-11.15-1.7-17.43l.88-18.27c.26-5.45,6.59-3.52,9.97-4.13,5.07-.92,4.34-8.2,2.32-11.45.72-8.95-.31-13.03,1.39-20.71.07-.32-.02-.68,0-1,.28-.87.62-.86,1,0,0,1,0,2,0,3Z"/>
    <path class="cls-65" d="M77,147.94c.94,6.09-.6,12.44.23,19.03l4.79,38.03c-3.12-2.02-1.61-6.28-2.2-10.19-5.92,2.3-16.13,1.23-18.8-5.56s-.76-15.21.25-21.85c.1-.66,16.91-4.13,14.67-27.51,2.66-.25,1.79,5.75,1.05,8.05Z"/>
    <path class="cls-20" d="M77,147.94c-.39-2.53,1.22-6.26-1.05-8.05-2.92-2.29-1.95-6.41-1.95-9.95,1.31-.74.53-2.25,1.47-4.12.44,2.03,2.53,3.75,2.54,6.13l.09,14.02c0,1.02-.46,2-1.1,1.96Z"/>
    <path class="cls-134" d="M68.63,249.19c-1.76,2.31-5.39,4.28-7.48,1.67-3.15-3.95-8.5-7.86-8.8-12.41l-.72-11.1c.31,4.77-4.8-15.9,3.9-15.58,2.11.08,3.17,3.1,2.64,5.05-1.91,7.05.43,11.77,3.39,17.51,1.72,3.34,1.54,7.84,6.53,8.61,1.08.17,1.92,1.8,2.08,2.6.19.94-.44,2.2-1.54,3.65Z"/>
    <path class="cls-6" d="M87.16,242.02c-2.58,8.19-5.42,16.42-8.51,24.7l-1.64.17c-4.35,7.2-.89,6.89-6.89,12.19,1.59-4.38,3.35-8.93,5.71-13.38,3.21-6.04,3.46-12.92,5.67-19.34l4.29-12.45c1.06-3.08-.01-6.3.2-9.11,1.51,2.33,2.93,14.29,1.18,17.22Z"/>
  </g>
</svg>