<?xml version="1.0" encoding="UTF-8"?>
<svg id="Layer_1" data-name="Layer 1" xmlns="http://www.w3.org/2000/svg" viewBox="0 0 512 512">
  <defs>
    <style>
      .cls-1 {
        fill: #181719;
      }

      .cls-2 {
        fill: #908098;
      }

      .cls-3 {
        fill: #e3dfe0;
      }

      .cls-4 {
        fill: #1d2332;
      }

      .cls-5 {
        fill: #5d5565;
      }

      .cls-6 {
        fill: #434248;
      }

      .cls-7 {
        fill: #0c0c0d;
      }

      .cls-8 {
        fill: #e5e4e7;
      }

      .cls-9 {
        fill: #18171a;
      }

      .cls-10 {
        fill: #575558;
      }

      .cls-11 {
        fill: #47464b;
      }

      .cls-12 {
        fill: #514f47;
      }

      .cls-13 {
        fill: #28272b;
      }

      .cls-14 {
        fill: #5e5a5f;
      }

      .cls-15 {
        fill: #7f9dce;
      }

      .cls-16 {
        fill: #e1e0e2;
      }

      .cls-17 {
        fill: #6478a0;
      }

      .cls-18 {
        fill: #1f1f23;
      }

      .cls-19 {
        fill: #80a1d4;
      }

      .cls-20 {
        fill: #677ca9;
      }

      .cls-21 {
        fill: #7092cb;
      }

      .cls-22 {
        fill: #849fd2;
      }

      .cls-23 {
        fill: #b2b1b6;
      }

      .cls-24 {
        fill: #82a3d5;
      }

      .cls-25 {
        fill: #6d696e;
      }

      .cls-26 {
        fill: #6f6e74;
      }

      .cls-27 {
        fill: #e5e4ea;
      }

      .cls-28 {
        fill: #b6b2b6;
      }

      .cls-29 {
        fill: #708cc7;
      }

      .cls-30 {
        fill: #44423b;
      }

      .cls-31 {
        fill: #95b1dc;
      }

      .cls-32 {
        fill: #1f293a;
      }

      .cls-33 {
        fill: #817f80;
      }

      .cls-34 {
        fill: #7a9cd1;
      }

      .cls-35 {
        fill: #252e3e;
      }

      .cls-36 {
        fill: #e9e7de;
      }

      .cls-37 {
        fill: #313036;
      }

      .cls-38 {
        fill: #373338;
      }

      .cls-39 {
        fill: #2b1920;
      }

      .cls-40 {
        fill: #918897;
      }

      .cls-41 {
        fill: #1b1a22;
      }

      .cls-42 {
        fill: #797a7f;
      }

      .cls-43 {
        fill: #b3b2b5;
      }

      .cls-44 {
        fill: #e6e5ea;
      }

      .cls-45 {
        fill: #b4b1b5;
      }

      .cls-46 {
        fill: #b5b4b9;
      }

      .cls-47 {
        fill: #37343b;
      }

      .cls-48 {
        fill: #b6b5b8;
      }

      .cls-49 {
        fill: #615d62;
      }

      .cls-50 {
        fill: #36353c;
      }

      .cls-51 {
        fill: #111114;
      }

      .cls-52 {
        fill: #18171b;
      }

      .cls-53 {
        fill: #e9e9e9;
      }

      .cls-54 {
        fill: #86868b;
      }

      .cls-55 {
        fill: #4e4d53;
      }

      .cls-56 {
        fill: #50514a;
      }

      .cls-57 {
        fill: #8d8a6a;
      }

      .cls-58 {
        fill: #13100f;
      }

      .cls-59 {
        fill: #35353a;
      }

      .cls-60 {
        fill: #b5b4b7;
      }

      .cls-61 {
        fill: #848184;
      }

      .cls-62 {
        fill: #acae9e;
      }

      .cls-63 {
        fill: #b9b6b9;
      }

      .cls-64 {
        fill: #1b273b;
      }

      .cls-65 {
        fill: #853645;
      }

      .cls-66 {
        fill: #2e3038;
      }

      .cls-67 {
        fill: #b9b8bc;
      }

      .cls-68 {
        fill: #b5b3b6;
      }

      .cls-69 {
        fill: #dddedb;
      }

      .cls-70 {
        fill: #727274;
      }

      .cls-71 {
        fill: #3b3a3f;
      }

      .cls-72 {
        fill: #594c63;
      }

      .cls-73 {
        fill: #4d4a4e;
      }

      .cls-74 {
        fill: #b0adb5;
      }

      .cls-75 {
        fill: #424142;
      }

      .cls-76 {
        fill: #c3c2c4;
      }

      .cls-77 {
        fill: #e8e8e8;
      }

      .cls-78 {
        fill: #19263d;
      }

      .cls-79 {
        fill: #b3b2b6;
      }

      .cls-80 {
        fill: #5f5c3e;
      }

      .cls-81 {
        fill: #3b3b36;
      }

      .cls-82 {
        fill: #24242b;
      }
    </style>
  </defs>
  <path class="cls-42" d="M275,510.97v1h-10c-.07-.83.9-1.01,1.94-1.01h8.06Z"/>
  <g>
    <path class="cls-4" d="M441.11,297.07c.11-.78-.91-14.66.89-13.09.11,4.52.4,8.8-.89,13.09Z"/>
    <g>
      <path class="cls-66" d="M325.85,392.83l.96-.8c12.45.97,24.84,2.54,37.18,4.7.33-.49.65-.86.91-.83,9.04,1.27,20.51,3.83,29.44,6,17.91,4.34,39.24,10.33,56.28,16.86.72.28,1.06.76,1.12,1.54-.12.95-.27,1.89-.56,2.78-2.33,7.23-24.27,26.69-31.41,32.77-39.6,33.71-91.97,58.65-144.78,55.12-3.22.33-6.56.66-10,1h-30c-22.74.36-45.46-2.86-65.48-13.94l-1.41-2.06-1-1.66c.02-27.56-.4-55.15-1.26-82.76l1.13-.75c-3.16-2.2-.58-6.92,2.88-4.93l2.4-2.73,11.98-3.7.78-1.67c1.2-1.56,4.18-2.72,5.98-1.9l1.56.73c23.59-7.39,50.23-7.97,74.53-7.47,19.17.39,39.35,1.05,58.38,2.67l.37,1.02Z"/>
      <path class="cls-13" d="M326,390.98l-.15,1.85c-4.01-1.25-8.39.62-12.84.02-11.46-1.55-22.41-2.33-34.02-2.24l-44.84.36c-14.3.12-27.64,2.26-41.26,6.87-.74.25-2.06.25-2.45-.38-.25-.39.63-.99.58-1.59l-.25-.84,7.33-1.97c.76-2.95,9.54-5.55,10.83-2.19,18.44-3.59,36.87-4.01,55.42-4.15,18.91-.14,42.77.32,61.23,3.2.19.03.32.47.44,1.03Z"/>
      <path class="cls-39" d="M166.99,410.8c-.65,4.94.64,9.82.76,15.23l1.4,67.9c.02,1.03-.72,1.81-1.03,2.04-.34-.06-.81.23-1.12.11l-3.6-2.7c.02-26.98-.2-53.99-.64-81.02-6.64.93-12.05,3.43-16.23,7.48-.31,21.62-.18,43.28.38,64.99-.12,1.6-1.23,1.81-2.71,1-.57-.37-1.45-.77-2.08-1.06l-2.03-2.2-.76-65.71c2.59-4.29,6.21-7.18,10.86-8.68,1.02-.02,2.39-1.66,3.1-.88l2.05,2.24c1.92,2.09,5.58-1.84,8.28-1.18,1.22.3,1.79,3.26,3.39,2.44Z"/>
      <path class="cls-66" d="M150.17,408.18c1.71,3.3-5.62,2.39-8.95,9.12l.89,67.47c-30.26-13.96-57.44-35.65-79.11-60.97,5.83-.77,11.6-2.75,17.76-4.1l22.24-4.88,29.82-5.04c5.87-.99,11.8-1.5,17.35-1.59Z"/>
      <path class="cls-65" d="M167,496.07c-7.71-3.18-15.8-5.72-22.81-10.25.78.22.74-.96.73-1.86l-.43-38.03c-.07-5.95-2.19-26.38,1.35-28.83,5.55-3.85,12.04-6.16,18.98-7.1l.53,62.82c.06,6.52,1.19,12.54-.08,19.04-.31,1.6,1.37,3.13,1.73,4.21Z"/>
    </g>
    <g>
      <path class="cls-50" d="M275,0c31.04.89,62.01,8.41,89.68,22.34l.04,2.6c9.44,7.3,24.49,19.59,32.37,31.17.35.51-.33,1.46-.85,2.09,1.71.33,2.56,1.02,3.69,2.23,7.18,7.68,14.63,22.3,19.1,32.09,4.95,10.84,11.95,28.46,14.01,39.97.03.19-.32.45-.79.72.5-.04.9-.05.92.03,4.04,15.69,6.47,35.05,8.16,51.27,3.23,30.91,3.17,64.03,1.91,95.51l-1.3,1.97c.46.72.78,1.51.05,2-.43,4.3-.73,8.66-.89,13.09l1.55,1.99c-2.34,30.12-5.7,60.35-10.43,90.62-1.48,3.22-2.47,2.08-4.48-.84-1.96-33.47-3.4-66.8-4.33-99.97-5.43,25.38-11.32,50.65-17.38,76.15-3.3,3.66-5.54-2.08-6.04-5.88-2.09-39.44-4.27-78.77-6.53-118.01-1.86-23.35-4.67-46.71-8.44-70.08l-1.55,11.99c-1.98,40.86-4.66,81.38-8.04,121.56-.63,1.94-1.82,2.85-3.61,1.8-.74-22.13-4.63-43.88-8.85-65.7-.17-.87.19-1.39,1.17-1.71-1.26-.33-1.59-1.63-.14-2l-1.2-8.23c-6.84-37.42-14-74.58-25.85-110.71l3.24,62.66c.89,6.76.13,12.87-2.28,18.33,0,3.12-3.09,2.27-1.31-.1-.61-1.45-1.47-2.74-2.57-3.86-6.58-45.32-18.72-91.44-34.73-135.09-2.75,4.16-5.12,8.46-7.12,12.9-21.15,51.75-42.16,106.24-54.97,161.47-3.02,3.69-4.02-.52-4.37-3.55,4.44-45.2,11.32-89.96,20.64-134.29-.05-2.73.54-4.56,1.76-5.52-.21-1.14-.53-2.16-.96-3.08.05-2.11,2.18-9.16,3.85-9.98l-.24-3.87c1.22-3.76.93-5.14-.86-4.14-1.25,2.62-2.64,5.16-3.95,7.53-15.65,28.46-30.45,58.16-41.81,89.04-.33,1.32-1.01,2.21-2.05,2.65.43,1.25.28,2.59-.46,4.03-4.39,10.61-8.62,21.31-11.74,32.41-.31,1.09-.7,1.88-1.97,2.2,2.45,2.1.25,7.39-2.14,9.11,1.04,1.43.72,3.1-.97,5,.93,1.23.6,2.94-.98,5.12-4.93,23.81-9.42,47.68-13.46,71.6l-6.63,30.1c-2.22,5.94-4.86,2.47-7-1.31-1.85-3.27-5.33-30.38-5.75-34.52-.56-5.5-1.1-10.91-1.36-16.43,1.13-27.68,2.49-55.42,4.89-83.11.13-1.52-8.27,27.04-8.82,29.08-13.89,51.24-20.37,105.5-25.99,158.63-3.02,7.56-7.96,2.94-7.09-3.53-4.74-10.25-7.97-21.13-9.69-32.65-2.5-13.53-4.96-27.01-7.38-40.42-1.53,13.5-2.29,27.21-2.26,41.12,1.36,5.09,1.73,15.78-5.38,10.89-4.93-27.04-9.05-54.16-12.38-81.35,0-1.87.35-3.53,1.06-4.99-1.4-.37-1.73-2.08-1.01-5.14-6.71-88.3,1.75-194.52,82.32-247.89.71-.82,1.44-1.62,2.27-2.3s1.62-1.3,2.53-1.64C191.01,5.21,213.37.62,236,0h39Z"/>
      <path class="cls-9" d="M192.91,216.9c2.28-2.14,7.57-3.39,6.13,1.2-.34,1.81-2.05,2.47-3.69,2.89-.58.75-.67,2.04-.27,3.87-.21.62-.98,1.29-2.32,2l-.63,3.36c2.24.6,1.49,3.1-.97,2.73l-1.2,5.5c1.54,3.22,1.44,5.33-.29,6.32,1.35,1.14,1.07,1.77-.7,1.4l.81,1.88c-7.24,38.2-12.96,76.55-13.63,115.18l2.09,7.54c10.83,12.98-.9,22.69-3.18,4.24-1.47.46-1.41-.19-1.27-1.49-1.04,8.87-1.74,17.69-2.11,26.46-1.66.84-2.56-.2-2.7-3.12-2.22-1.81-3.5-4.57-3.83-8.28-2.18-4.23-2.87-8.11-2.06-11.61l-4.57-28.53c-2.08-3.97-3.24-8.33-3.48-13.08l-1.81,23.66c-.06,2.71-1.13,4.01-3.2,3.91-2.13,13.43-3.03,27.15-2.63,40.79.12.68.99,1.1,2.62,1.24,7.28-.45,14.54-1.16,21.78-2.11,1.16,1.04.51,2.04-1.95,3-2.21.56-2.65,3.16-2.88,4.93-.87,2.57-1.75,2.08-1.97-.56l-2.18-.95c-5.13,2.46-9.36,2.09-12.67-1.12-.85,1.11-1.95,1.66-3.29,1.85-27.57,3.86-54.1,8.1-81.02,15.34l-2.86-1.57c-.71-.82-1.83-1.72-2.06-2.84-1.05-1.09-1.03-2.39.06-3.91-.34-3.32.04-6.65.57-9.94,4.66-29.49,13.74-58.86,23.1-86.75-.48-12.55-1.95-25.18-4.41-37.89l.69-7.53c.48-4.86,1.41-6.46,2.79-4.78l3.85,31.44,1.5,10.47,8.1,44.97c4.23-3.89.87-8.28,1.29-12.14.85-7.66-.19-15.14.52-22.93l2.02-21.94c.25-2.74-.99-5.9,2.4-7.55l2.07,19.32c.55,5.11,3.05,9.87,3.68,14.96,1.43,11.65,6.54,40.52,12.23,49.64,1.15,1.84-.46,5.15,1.47,6.87,3.28-1.37,1.57-4.72,2.06-7.33,1.95-10.37,2.61-20.33,3.65-30.68.82-8.24,2.52-16.31,3.46-24.32l2.57-21.74c1.23-10.39,4.26-20.07,6.22-30.42l3.87-20.44c3.45-18.25,5.53-24.72,11.31-42.44,1.45-4.43,1.54-9,3.74-13.21,3.45-6.6,2.56-14.25,3.6-21.63l2.11-15.01c-.55,3.94,5.83-30.64,7.26-21.87l-5.8,31.78-2.2,17.95c-1,8.18-1.73,15.9-2.13,24.09l-.73,15.09c-1.54,31.76-6.14,44.06-.33,79.15l1.98,11.99c.94,5.69.18,11.54,5.02,16.56,2.04-13.15,4.2-19.62,7.07-32.59l3.12-14.06c4.07-18.34,7.07-46.25,14.21-67.24Z"/>
      <path class="cls-1" d="M441.11,297.07c.18-4.43.47-8.79.89-13.09l-.05-2,1.56-.41c1.09,7.45,1.96,14.92,2.59,22.41,1.58,11.56,2.8,23.11,5.66,35.04.66,2.77-1.08,6.29,1.14,8.05.77,0,1.53.18,2.02.81.4.51,1.15,12.2-1.66,11.96.54,2.62.12,3.3-1.26,2.04l-2.11-.81c-1.93-12.23-3.89-24.44-5.89-36.64-3.12,28.3-6.79,56.45-10.84,84.62l19.61,6.68c1.68.61,1.58,1.8.21,3-.49.4-.83,1.09-1.24,1.58-4.33.52-8.17-2.19-12.46-3.47l-27.11-8.11c-5.52-1.65-10.86-2.38-16.46-4.36-2.64-.93-6.27-1.14-9.09-1.77l-18.7-4.22-12.32-1.8c-6.99-1.02-13.73-1.8-20.69-3.52-3.11-.77-6.4.61-9.09-.22-2.6-.72-2.47-1.18.15-1.85l.13-.97c12.49,1.34,24.98,2.92,37.48,4.76,2.26-9,3.72-18.26,4.38-27.79-.47-.07-.83-.14-.83-.19.45-13.6,1.24-27.6,2.19-41.19.02-.22.33-.43.74-.62l-.39-8.92c-1.33.44-2.05-.26-2.16-2.09,3.34-10.81,2.24-23.03.38-34.04l-2.05-.64c-1.87-14-4.1-27.96-6.68-41.87-2.13-1.82-4.53-1.18-7.19,1.9l-1.02-.34c-4.03,1.18-9.26,2.24-13,1-1.16-2.76,3.41-4.58,5.02-2.23.14-.58.31-1.05.61-1.16s6.02-.25,6.26.17c3.2-2.41,6.23-4.91,9.12-7.51l1.56.54c.72,3.35,1.91,6.41,3.56,9.19l4.13,19.59,3.56,30.48c.67,5.7-1.34,10.95,1.48,16.83l2.2-26.36,3.36-48.5c.85-12.24.62-23.8,1.89-35.97.44-4.18.67-28.26,4.76-28.65.51-.05,1.06.95,1.15,1.67l2.23,18.03c1.2,9.73,3.63,19.23,4.45,29.16l2.11,25.71,2.19,30.94,2,48.63.92,18.73c.44,8.87-.26,17.35,3.53,26.37,2.91-15.58,5.75-24.48,9.06-39.49l10.78-48.93c1.78,4.5,1.42,8.77,1.56,13.21l1.01,31.11.97,24.96.97,15.88c.58,9.49-.62,18.55,1.8,28.56,4.33-16.33,4.69-32.01,6.62-48.02l1.55-12.87c.82-6.84,2.38-12.99,1.81-20.15-.34-4.25-.25-9.05.89-12.84Z"/>
      <path class="cls-32" d="M399.08,58.03c.48-.24.9-.39,1.1-.24,3.93,2.96,8.24,10.74,10.54,15.21.74-.26,1.89-.55,2.19-.08,7.03,11.33,19.46,41.1,22.02,54.6.8,2.1.84,3.86-.86,5.54l-1.81.14c-.76-4.75-11.34-34.96-14.5-40.85l-3.75-6.98c-4.52-8.41-11.55-21.4-17.76-27.19.94-2.53,1.66-2.56,2.84-.17Z"/>
      <path class="cls-64" d="M375,29.91c8.92,6.55,17.82,14.05,24.44,22.97l-.53,2.4c1.19,1.61,1.25,2.53.17,2.76-.9.38-1.89.18-2.84.17.37.34-9.99-13.19-12.94-14.69-2.43-1.24-3.09-4.71-5.36-6.37-4.88-3.58-9.54-7-13.97-11.22-.27-.58.19-1.28.75-.97,3.9.39,6.83,3.25,10.28,4.97Z"/>
      <path class="cls-52" d="M258.13,77.94c-1.29-2.44-1.76-5.32-1.11-8.01.14-.86.73-1.52,1.04-2.25.29-.67,2.15-1.86,2.46-.34.73,3.6-2.28,7.15-2.39,10.61Z"/>
      <path class="cls-39" d="M176.09,400.04c-.93-2.7,1.86-3.07,3.61-1.57,2.07-.9,3.85-1.13,5.33-.7.86.59,2.34,0,2.89,1.7-6.32,2.69-12.11,4.89-18.04,6.39.1-.65,1.05-.73,1.08-1.96-5.72.29-21.04,4.03-24.04,1.06-.16-10.04.01-34.77,3.15-42.02l2.14,1.71c-1.72,12.22-2.44,24.53-2.14,36.93-1.48,1.67-1.45,1.82.08.47,5.29-.39,10.54-.42,15.77-.1,3.87-2.67,7.27-3.31,10.18-1.92Z"/>
      <path class="cls-24" d="M70.18,310.06c1.99,2.81,2.03,6.49.13,11.04l-21.07,81.07-2.29.89c-24.9-33.92-40.57-75.3-44.92-117.15,1.03.81,2.26,1.25,3.47,1.37,1.57.16,2.32-1.39,3.61-2.19,8.77-5.42,12.9,6.15,17.23,6.74,1.49.2,2.47-2.26,3.86-2.46,6.52-.93,12.37,4.9,17.95,4.1l16.69-2.38c1.92-.27,5.92,1.49,7.3,2.65,2.6,2.31.12,7.35-1.28,9.78s-.56,4.5-.68,6.53Z"/>
      <path class="cls-59" d="M60.93,420.96c-5.83-4.65-9.65-11.98-13.99-17.89l6.21-24.21,5.69-21.17,7.33-28.7c1.66-6.5,3.61-12.61,4-18.92,4.71-8.41,5.53-25.53,10.76-35.13,1.74,8.78,2.8,17.67,4.11,26.95l1.43,10.1c.88,6.23.38,12.06-2.94,17.56-2.38,3.94-2.21,9.07-3.94,13.3-4.13,10.08-18.16,65.08-16.65,73.25.37,1.98-1.12,3.76-2.02,4.87Z"/>
      <path class="cls-15" d="M27.4,140.81c7.01-14,15.67-26.27,24.73-38.75,4.48,2.38,5.5,6.65,6.21,11.65.98,6.89,4.72,23.01-3.15,29.43-6.42,5.24-19.61-3.34-27.79-2.33Z"/>
      <path class="cls-29" d="M499.04,177.15c-5.8,2.84-12.16.28-18.2-1.65-5.32-1.7-10.86,1.67-15.97,2.21-6.37.67-12.41.35-18.69.44-1.42-.27-1.11-3.21-2.66-3.97-.33,3.27-.99,6.61-.77,9.81-1.05-.7-1-11.58-1.83-15.92-.47-10.54-2.39-20.63-5.77-30.26-.38-1.46-.83-3.29-1.08-4.75-.79-4.69-2.15-9.13-3.86-13.91l-5.79-16.24c-1.87-5.24-3.9-9.92-6.37-14.95l-7.33-14.96c-3.51-6.27-7.45-12.18-11.81-17.73l-12.88-14.19c-3.63-4-8.29-6.99-11.03-11.18,58.51,29.25,105.06,84.75,124.04,147.24Z"/>
      <path class="cls-19" d="M502.96,322.01c-7.44,30.07-24.1,57.51-39.93,83.99l-1.27-.69c-3.31-15.1-6.15-30.26-8.5-45.48l-.36-12.77.24-10.09c1.92,1.38.41,3.17.93,5.18,2.87-.03,5.42-.03,8.46-.44.16-4.84,2.64-6.36,6.39-7.89,2.11-.86,2.25-3.88,5.61-2.68,1.65.59,1.94,2.02,3.6,3.84,3.04,3.33,8.79.67,11.03-1.54,8.37-8.23-3.61-21.65,1.33-25.41,1.21-.92,2.89-1.47,4.29-.56,5.1,3.32-2.17,12.33,8.19,14.55Z"/>
      <path class="cls-47" d="M452,361.87l1.06.29c3.33,15.28,6.28,30.52,8.84,45.73-2.39,4-5.28,7.86-8.91,10.83.2-1.16-1.01-1.12-2.11-1.48l-19.94-6.63,7.67-55.83,1.52-14.77c.65-6.27.61-12.08,2.51-18.06,1.48-4.65-1.07-9.77,1.21-14.27l4.29,30.93,2.96,15.45.9,7.82Z"/>
      <path class="cls-35" d="M463.03,406l-1.13,1.89c-2.97-3.29-2.43-7.45-3.32-11.7l-4.61-22.25-1.98-12.07c.76-.41,1.1-1.22,1.26-2.04,4.81,12.62,3.94,20.76,8.11,35.79,1,3.6,2.09,7.04,1.66,10.38Z"/>
      <g>
        <path class="cls-34" d="M499.04,177.15c6.21,20.45,11.76,41.27,12.96,62.84v32c-1.59.68-1.01,3.17-1.04,4.95-.27,15.91-4.41,30.52-8.01,45.08-3.23,3.75-6.84-1.32-7.88-4.89.73-3.76-1.57-12.77-3.82-5.53,2.64,8.68,6.51,22.33-5.3,26.14-5.58,1.8-8.62.43-11.68-4.47-1.22-.87-7.2,3.42-8.36,4.52-2.04,5.78-3.87,6.75-10.14,6.35-.71,1.33-1.68,2.3-2.89,2.93-.69.31-1.29.51-1.55.3-1.61-1.31-5.71-35.84-6.28-41.04-.08-.73.4-1.53,1.03-2.34-.61-7.5-1.53-15.03-2.76-22.6,1.37-32.29.73-64.23-1.93-95.83-.04-.91.2-1.37,1.33-1.57-.92-5.01-.84-16,4.16-7.91,10.82.3,21.42-.7,31.8-3.02,6.34,2.54,12.49,3.44,18.45,2.72l1.89,1.37Z"/>
        <path class="cls-4" d="M434.07,133.06c2.89.11,3.65,3.41,1.08,4.75,3.38,9.64,5.31,19.73,5.77,30.26,2.08.08,2.94,1.94,2.59,5.59-1.44,2.71-1.69,6.15-.76,10.32l1.98,28.95c.48,6.97.15,13.59.73,20.49.94,11.13.71,22.2.17,33.45-.4,8.25-1.79,16.39,0,24.5.96,4.38-.07,8.58.48,12.6-1.48,1.95-1.66-21.84-4.14-22-.23-9.16.59-18.33,1.18-27.97.34-5.53-.48-11.03-.7-16.47l-1.45-35.56-1.42-23.01-7.31-45.77c-.08-2.67.84-2.61,1.81-.14Z"/>
        <path class="cls-31" d="M466.82,195.45l-21.6,2.07c.33-3.41-2.58-8.24-.71-12.47,1.23-2.79,6.77-2.01,9.45-2.06,8.85-.16,25.1-5.38,26.66,2.61,1.04,5.31-8.74,9.37-13.79,9.85Z"/>
      </g>
      <path class="cls-43" d="M163.11,376.99c-2.31.1-2.78-1.17-3.13-3.16-1.23-.38.88,23.83,1.45,25.77.1.33,6.68.86,5.55-1.62l2.03-1.09,2.19,2.13c1.58-2.27-.4-4.72-.04-7.12.74-5.02,1.66-15.43,1.71-20.92,2.99.23,1.46,3.1,2.22,4.05-2.48,6.19-2.16,13.3-2.02,20.05.03,1.35-.9,3.09.12,4.8.68,1.14,2.33.44,2.9.17-8.8,2.23-18.14,3.87-28.15,3.94.55-8.2-.72-15.83.44-23.76.87-6,2.34-11.54,1.67-17.27,3.17-7.32,1.31-21.02,3.66-32.3,3.31.58,3.08,3.09,3.45,5.23,2.41,13.97,4.41,27.51,5.95,41.1Z"/>
      <path class="cls-8" d="M163.11,376.99c2.57,6.4,5.05,13.09,5.89,19.89-.1,1.66.22,3.66-1.02,4.2-2.62,1.15-5.67.73-8.41.22-2.03-13.47-1.39-26.65-1.74-40.25-.13-4.84-2.18-9.61-.18-14.11,1.41,9.75,2.68,23.09,5.47,30.04Z"/>
      <g>
        <path class="cls-1" d="M364,236.99c-1.24-.46-3.64-5.41-4.08-6.91-.47-5.56-1.33-10.79-4.43-15.53-4.42,1.47-9.14,1.41-14.18-.18l-1.6.94c-.94,3.59-3.46,3.5-7.54-.27l-5.01.82c-3.65.75-6.06.14-7.25-1.84l1.01-2.48,9.91-1.86c.52-2.5.59-4.95.23-7.35-2.04-3.2,3.38-5.2,3.99-1.44.71.33,1.66-.29,2.86-1.85.43-9.5.44-19.02-.09-29.1l-2.24-42.17c-.58-10.89-2.74-38.51-5.43-47.96.21.73,2-11.23,4.47,10.4,1.24,10.9,2.09,21.84,5.98,32.07,1.33,3.49,1.63,6.91,2.84,10.51l3.47,10.34,7.88,34.07,4.86,26.15c.94,5.07,2.14,10.31,2.36,15.57.41,10.08,2.65,4.85,1.99,18.07Z"/>
        <path class="cls-27" d="M351.04,200.07c.41.41.24,1.45.8,1.82.83,2.09,1.12,5.34-.65,6.75-.47.37-11.69-.31-10.1-3.61-3.31-9.99,7.44-19.52,9.96-4.96Z"/>
        <path class="cls-26" d="M342.94,174.86c-.51,4.41-.23,8.99.84,13.73.33-2.09,1.04-3.64,2.15-4.63,1.67,2.14,1.06,4.27,1.9,7.09s4.63,5.39,3.2,9.02c-1.43-1.44-1.28-3.47-2.76-5.82-2.35.01-5.78,1.56-6.86,3.98s-.06,4.82-.33,6.8c-.38.83-.74.82-1.08-.03-.27-3.37-.41-7.06,1.56-10.32-1.89-8.02-2.18-16.11-.61-24.42,2.67.79,1.85,2.95,1.99,4.61Z"/>
        <path class="cls-6" d="M340,204.99c.32.1.78-.12,1.08.03,3.17,1.62,6.86.91,10.56,1.91l.2-5.05c2.66,1.79.17,6.45,1.17,10.99-4.37.35-8.22.15-12.55-1.43,1.94-2.97-.31-4.56-.46-6.46Z"/>
        <path class="cls-44" d="M342.94,174.86c.24,2.93,1.07,6.65,2.99,9.1.73,2.95,1.14,6.36-3.64,7.39-1.23-5.55-1.46-11.22-.76-16.95.63-.01.97.34,1.41.46Z"/>
      </g>
      <path class="cls-17" d="M440.91,168.08c-1.92-10.07-3.21-20.3-5.77-30.26,3.44-3.56,6.53,29.32,5.77,30.26Z"/>
      <path class="cls-20" d="M410.72,73l-4.2-5.4c-2.58-3.32-4.32-7.16-7.43-9.57l-.17-2.76c2.42,2.66,5.01,4.21,7.08,8,1.71,3.15,5.24,5.81,4.73,9.72Z"/>
      <g>
        <path class="cls-21" d="M156.76,20.35l-.94,2.43c-23.09,18.22-38.99,41.02-51.47,67.48-25.75,54.58-24.49,117.28-21.67,175.16-.22,3.22-.8,6.39-1.75,9.52-1.43,9.96-3.55,19.82-6.37,29.58-.53,3.69-1.99,5.54-4.39,5.55-3.15-.26-2.21-4.08-1.54-6.51,3.87-5.59,3.48-8.92-1.16-9.99-6.91.08-13.92.73-21.02,1.96-5.21-1.78-10.46-3.2-15.74-4.26-2.79,2.85-4.14,3.12-7.58,1.22-3.53-4.72-7.35-6.88-11.47-6.46-5.09,4.2-8.31,4.17-9.65-.11l-1.06-.74-.97-10.18v-35c.51-31.69,8.11-66.1,22.83-94.34.49-.94,1.21-1.77,1.97-2.57s1.68-1.56,2.6-2.26l2.18-2.07c5.46.85,10.85,2.07,16.16,3.66,18.92,2.91,11.54-25.03,8.59-35.62-1.78-1.54-2.51-3.11-2.2-4.72.09-.99.22-1.97.48-2.91s.52-1.83,1.05-2.5c26.49-34.09,57.83-58.94,97.46-76.19.78-.34,1.72-.37,2.69-.39s1.96.1,2.94.27Z"/>
        <path class="cls-78" d="M165.03,17.13c.67-.14.75.86.23,1.24-14.36,8.69-36.92,31.51-44.94,45.97-10.3,18.57-12.88,20.19-20.94,41.86l-4.35,11.68c-8.36,22.47-10.61,60.66-12.54,84.84-1.14,14.27,1.66,64.45,1.96,62.26l-.72,5.17c-1.95.13-.2.03-2.79,4.78.28-6.62-.41-43.66-1.13-48.99-1.11-8.12-.42-15.83.06-23.95l1.62-27.43,2.23-16.63c2.3-17.2,5.25-33.52,11.42-49.6,5.89-15.36,12.61-29.06,21-43.22,10.61-17.9,24.58-32.34,40.63-44.77l8.27-3.22Z"/>
        <path class="cls-22" d="M92.07,110.25c-4.25,2.39-9.5,1.91-13.64,2.3-2.45.23-3.75-2.89-4.16-4.39-.67-2.5-.1-5.14,1.71-7.04,4.45-4.65,17.21-5.78,19.73-.78.84,2.35-1.26,8.57-3.65,9.92Z"/>
      </g>
      <g>
        <path class="cls-52" d="M293.24,73.78l1.76,1.98c-4.84,14.71-9.75,29.37-14.7,43.98l-1.46,1s-5,18.41-15.01,55.24l.64,1.86c-8.12,30.88-16.13,61.68-24.05,92.4-1.04,8.59-2.32,17.13-3.84,25.61-1.8,2.05-2.66,4.76-2.58,8.11-.87,6.69-2.2,13.02-4,19-.16,2.17-.86,3.17-2.08,3l-2-.92c.06-18.58.12-37.17.18-55.76l2-1.18c-1.94-6.18-1.3-12.99-.39-19.34.11-.79.65-1.19,1.53-1.31.08-5.03.69-9.97,1.83-14.82.63-9.51,1.62-19.08,2.99-28.71l-1.84-1.19c3.85-25.91,7.74-51.87,11.69-77.87l2.12-1.77c.69-8.48,1.9-16.85,3.62-25.12l2.27-.96c.46-3.33,1.13-6.56,2-9.7,1.19.24,1.63,1.47,1.32,3.69.22-1-8.45,45.33-8.18,43.1l-1.51,12.69-2.06,13.84-4.31,26.54-1.27,13.69c-.55,5.9-5.26,29.47-2.76,33.91,1.61-6.74,1.95-12.57,4.05-18.71,2.23-2.35,1.55-5.85,2.44-8.64l4.84-15.17c2.48-7.78,5.09-14.98,7.61-22.65l4.17-12.68c2.49-7.56,4.51-15.2,7.25-22.53l7.55-20.21,5.92-13.05c2.28-5.02,9.55-25.36,13.21-28.24.83-.52,1.16-.17,1.06.9Z"/>
        <path class="cls-18" d="M337.91,199.04c-.17,3.71.05,7.22-.79,11.62-1.76-3.73-.88-6.77-2.07-9.77-1.71-1.55-4.23-1.72-7.56-.51l-1.83-1.65c-2.32.07,2.16-3.35,3.91-4.4-2.01-26.95-9.5-54.76-16.56-80.92-4.05-15.02-8.48-30.22-13.88-44.98-1.65,3.32-3.62,5.1-5.9,5.36-.33-.32-.69-.62-1.06-.9-1.25-2.4,6.18-21.18,9.23-13.02,6.86,18.34,12.4,36.64,17.25,55.68l5.96,23.41c3.12,12.26,5.96,24.09,8.05,36.63.42,2.5,4.25,23.8,3.92,23.35.21.29.93.19,1.32.1Z"/>
        <path class="cls-82" d="M258.13,77.94c-.06,1.8-.8,3.43-1.2,5.27l-1.69,7.79c-3.39-8.03-1.08,7.76-3.32,6.02-1.64-1.05-2.22-3.21-1.76-6.47-13.27,24.5-25.04,49.68-35.3,75.52-.96,2.24-1.82,4.07-4.55,3.9-1.18,1.51-1.75,1.04-1.09-.82,2.39-5.89,3.45-12.18,6.4-18.38,7.13-14.96,16.12-38.73,23.99-51.09,1.26-1.97,1.97-4.69,3.14-6.79l8.64-15.4c1.68-3,1.89-6.84,5.62-7.57l1.42,1.37-.31,6.65Z"/>
        <path class="cls-51" d="M209,212.99c2.67-.64,5.67-.3,9,1,3.48.33,7.19,5.76,4.97,7.94,2.46,7.49-4.01,2.49-6.9-.2-3.31-1.09-5.5-.92-6.58.5-2.77,2.68-11.34-.34-10.46-4.12-1.27-3.22-6.05,1.77-6.13-1.2-.79-3.08,1.69-6.29,2.14-9.11.69-2.76,1.94-2.02,3.76,2.23l10.19,2.97Z"/>
        <path class="cls-41" d="M210.31,169.97c2.03.61,2.47,2.26,1.32,4.96l-9.65,25.08c-2.61,5.39-1.82,8.42,2.36,9.09,1.46,1.41,3.01,2.7,4.66,3.88-3.39.03-7.49-.43-10.66-2.31-1.35-.79-1.6-3.16-3.29-2.89,1.4-8.89,5.46-17.01,8.46-25.81,1.64-4.8,4.05-8.73,5.71-12.83l1.09.82Z"/>
        <path class="cls-51" d="M195.35,221c1.85-2.54,9.62,2.03,12.31,3.7,5.68,3.54,12.82,9.1,6.3,15.36.71,2.65-.78,3.34-4.48,2.07l-5.49.85-4,1c-.33.76-1.54.72-2,0-2.81-.8-1.93-2.7.9-2.75.66-.59,1.71-1.03,3.15-1.32.27-.94.6-.95,1-.05,2.68-.89,5.33-1.52,7.96-1.88.74-3.19-1.26-6.19-6-9-2.98-1.3-5.22-1.18-6.71.36-1.81,5.56-2.85,4.61-3.12-2.86-1.51.74-1.54.21-.1-1.61-.81-.72-2.41-1.61-2.73-2.51.8-1.41,1.31-1.9,1.88-1.71.35.12.73.19,1.11.35Z"/>
        <path class="cls-71" d="M199.04,218.11c1.97,1.65,4.43,2.27,6.99,3.99,3.18-3.22,6.89-1.95,10.05-.37l-.23.77c-2.61-.72-4.1.78-1.8,2.58,2.1-1.62,4.3.76,2.07,2.68,3.09,2.14,4.03,9.16,2,11.98-1.51,2.1-2.8,2.67-4.15.32,8.22-7.41-13.6-17.39-18.62-19.06.15-.87.23-2.05.8-2.54.88-.77,2.02-.38,2.89-.35Z"/>
        <path class="cls-81" d="M194.95,233.04c2-1.55,1.9.58,1.46,2.66-1.89,3.29-1.07,5.14,2.48,5.53l-.9,2.75c-3.47,2.01-6.24,2.27-8.33.8-.41-4.22-1.89-8.72,1.49-11.82,1.2.41,2.47.44,3.79.08Z"/>
        <path class="cls-56" d="M195.08,224.88c1.95,1.74.17,4.38,1.34,7.18,1.01-1.73,1-4.69,3.68-4.98,1.9-.21,3.5,1.32,4.9,1.91.61.3.59.63,0,1-.82,1.25-2.35,1.57-4.61.97-2.3,5.24-2.29,7.57.02,6.98l1.64,1.98c-.65,1.07-1.96,1.3-3.15,1.32-.93-.31-2.45.17-3.36-.35-2.29-1.32,2.36-5.91-.59-7.84-1.67-.08-2.13-1.1-1.37-3.06l-1.45.26c-.13-1.3-.55-2.76.26-4.23.4-.74,1.64-1.07,2.69-1.13Z"/>
        <path class="cls-62" d="M194.95,233.04l-3.43,7.87c-1.48-2.77.34-5.36-.36-7.95l.97-2.73c.4-1.12.17-2.74,2.17-3.75,1.56,2.37.15,4.55.65,6.55Z"/>
        <path class="cls-77" d="M246.03,123.1c-.13,4.23-1.33,8.6-1.98,13.13l-5.02,34.91-4.97,32.79c-.97,9.45-2.2,18.92-3.68,28.4-1.88,5.33-9.04-3.56-5.68-5.81-.43-2.3-.14-3.8.85-4.49,2.64,2.12,2.43-3.21,1.36-5.08-1.61.32-2.05-.71-2.41-2.13l-2.51-.85c.87,3.26-.88,2.7-2,0-5.91-.43-11.52-1.9-16.82-4.42,9.69-33.9,24.62-66.02,40.79-97.4.86-2.24,2.29-3.1,3.77-1.2l-1.71,12.13Z"/>
        <path class="cls-23" d="M251.91,97.01l-5.88,26.09c.12-3.96,1.03-7.65.59-12.33-2.84,8.02-6.26,13.18-10.41,21.42l-7.21,14.33c-2.05,4.08-3.39,7.78-5.12,12.1l-5.24,13.09c-1.28,3.21-2.82,6.36-4.22,9.56-2.58,5.9-5.82,20.36-9.65,27.82,4.32,3.64,14.2,3.34,15.22,4.9-.1.65-.77.65-2,0-3.09.34-5.92-1.03-9-1l-10.35-3.87c-.76-4.59,1.19-9.21,2.91-13.55l6.78-17.15c1.13-2.87,2.07-5.85,1.98-8.44,4.17-6.13,6.05-13.4,9.25-20.49l17.38-38.59c3.18-7.06,6.53-13.81,10.77-20.18,2.69-4.05,3.4-8.55,6.87-12.84.47,1.92.2,4.66-.83,6.7-2.12,4.19-.98,8.67-1.83,12.43Z"/>
        <path class="cls-40" d="M228.11,268.12c-2.1-1.72-2.13-6.8-6.02-11.11.13-1.88-1.24-3.54-1.97-5.18-.2-1.77,1.21-3.36,4.23-4.79.24-2.94,1.09-4.63,2.55-5.06,1.17.29,1.26-.87.26-3.48-.15-3.75,1.15-5.7,3.91-5.85l-2.96,35.47Z"/>
        <path class="cls-74" d="M231.07,232.65c-3.15,4.2-1.31,9.58-2.53,15.36-.36-2.48-.91-4.24-1.64-6.03l-2.56-.86c-2.74-4.48-5.48-8.93-8.23-13.34-.7-.58-.88-2.45-2.07-2.68-5.28-4.46,1.4-2.68,4.97-1.16,2.97,2.92,5.35,1.87,3.96-2-.7-3.41-1.83-6.2-4.97-7.94.65-.07,1.34,0,2,0,.3,0,.62.42,1,.59.55.25.61-.22,1-.59,1.8-.68,3.02.57,3.67,3.75l1.24-.77c1.74.71.77,2.92,1.26,4.51.59,1.9-2.39,2.04-2.92,3.64-.96,2.92,2.17,5.71,3.88,8.21,2.28-4.59,1.35-9.26,2.13-14.15.67-4.18,2.52-7.85,1.61-12.34-.26-1.27.7-2.35,1.18-2.9.58,10.4-2.11,18.25-2.99,28.71Z"/>
        <path class="cls-7" d="M335.05,200.9c-1.94-.64-2.97.05-3.99,1.44.91,2.64-.71,4.88-4.86,6.71l-17.04,8.12-2.11-1.22c-3.52,3.34-7.43,5.43-11.75,6.29-.41-1.42-1.17-1.53-2.37-1.08.1.53.14,1.05-.02,1.5-.29.84-15.12,1.76-17.33.27-3.32-.88-10.25-4.75-4.06-5.31l10.5-3.68,34.95-12.88c2.7-.48,5.93-1.51,8.69-2.31,2.93-.85,6.25-.14,8.72-3.09,1.18,2.33.12,3.88.66,5.25Z"/>
        <path class="cls-72" d="M297.1,237c1.01-.05,14.05-.82,12.9.99l-.08.76c-3.17-.55-6.15-.46-8.95.28-.67.14-1.84,1.22-1.91,1.92-4.87,6.52-10.11,10.69-15.58,2.03-2.68-4.23.25-9.01,3.65-11.96-2-2.38-.93-3.35,1.84-2.13-.11.99.09,2.12.95,2.79.44.34,1.9.2,2.41.82,1.71,2.11,2.05,4.63,4.78,4.5Z"/>
        <path class="cls-3" d="M357.04,222.05c3.25,6.12-3.69,8.67-6.05,12.8-2.18.32-4.36,1.64-6.99.81,2.67-6.06,1.74-14.07,3.18-15.56,3-3.09,7.44-.55,9.85,1.95Z"/>
        <path class="cls-1" d="M346.1,217.06c-3.08,3.76,1.65,12.91-4.18,16.11.3-3.58,4.16-13.87,1.13-15.77-.83-.52-1.95-.45-2.92-.18.48-.71,1.17-2.44,2.59-1.78,1.25.58,2.13,1.6,3.38,1.62Z"/>
        <path class="cls-54" d="M216.07,221.73c1.89.95,4.13,1.18,5.89,3.84,1.71-1.37.88-2.54,1.01-3.65.42.76,1.04,1.78,1.21,2.55,1.65,7.75-7.25-3.37-11.22-1.38.29.9.99,1.32,1.09,1.99-1.67-.33-3.13-1.04-4.11-2.98l6.14-.37Z"/>
        <path class="cls-2" d="M292.82,224.21c-.6-2.89-5.99,1.24-9.58.58-2.32-.42-4.28-1.25-6.24-.59l-2.08-.64c-.36-.68.2-.62.67-.64,5.66-.31,12.21,1.21,17.34-1.76,5.77-1.86,4.29,4.94-.11,3.06Z"/>
        <g>
          <path class="cls-53" d="M316.98,201.04c.27.73.51,1.91.06,2.11-8.11,3.6-19.69,7.83-28.18,10.39-3.09,1.85-5.37,1.98-6.82.38l-12.74,4.5c-2.46-2.78-2.91-3.04-1.35-.76,2.05,1.99,4.37,3.95,6.96,5.89.83-.47,1.98-.36,2.08.64l6.68,1.33c-1.05,5.1-1.96,10.27-2.73,15.51l.88,2.58c-3.41,9.97-5.82,20.36-7.23,31.17l8.07-18.25,2.38-.49c4.1-5.6,8.92-11.25,15.13-5.15,6.61.15,12.9-2.1,18.86-6.74-1.42-4.55,7.72-3.43,9.96-1.59,2.68,2.21.75,18.54.12,22.55,2.5.8,1.98,3.96-.28,4.8-.3,2.16.19,3.64,2,2.18-1.1-3.38-.24-6.87,2.58-10.47l2.64-13.18.97-.45c.19-2.36.69-4.37,1.52-6.01,8.32-.14,12.88-1.7,19.52-6.61,4.63.11,5.65,67.27,4.93,79.07-1.68,3.87-3,7.76-3.96,11.67l.96,2.28c-3.27,24.93-4.91,37.4-4.91,37.4l1.87-.77c1.14-11.6,3.55-22.98,7.25-34.14-.22-5.25,1.45-7.57,5.03-6.96.12,22.56-2.37,44.9-5.19,67.07,2.03,1.5.41,4.33-2.79,3.92-50.48-7.7-102.2-12.08-152.29-4.02-3.75.05-7.11,1.94-10.83,2.19-9.72.65-8.77,2.24-18.79,4.85l-3.51-5.4c-.45,2.31-1.71,2.65-2.72,2.56-1.42-4.5-.91-14.73.67-19.55.09-.29.65-.42,1.35-.51,2.19,2.73,2.56,6.45,5.76,8.99.99-4.96-2.33-8.45-4.36-12.3-3.58-6.79-2.31-14.31-1.86-21.65l1.22-20.03c.38-6.31.94-11.97,1.79-18.16l4.68-33.79c1.41-10.18,4.39-19.68,5.18-29.91.09-1.15,1.03-1.59,1.48-1.98,11.92-3.89,26.65-.68,33.12,10.82,2.18-.76,3.78.55,4.8,3.94l1.22,7.17-.19,57.87c.57.13,1.02.27,1.04.46.51,5.1-.04,10.53-.96,15.54.55.14.98.29.99.47.29,4.49.27,10.38-.02,14.87-.02.24-.44.45-.98.66.72,1.03,1.35,1.72,2.47.67-.22-8.04-.03-16.07.59-24.09,3.25-.28,4.6,1.91,4.05,6.57,6.02,9,20.22,24.87,30.65,12.79,3.43-3.98,12.08-17.21,9.03-22.14-5.39-8.71-10.92-11.85-20.58-7.68-5.6-1.09-10.24-.46-13.93,1.88-2.34,3.87-5.2,6.29-8.58,7.26-1.36-9.47-.59-19.22,2.31-29.26-.14-4.07.85-7.03,2.95-8.88,1.21-8.26,2.38-16.6,3.51-25.01,10.61-43.26,22.33-86.2,35.18-128.85l4.88-20.12,1.5-1.06-.67-2.19c4.92-11.18,9.65-22.56,14.2-34.12,3.99-4.18,5.68-1.71,7.52,2.69,10.75,35.69,19.28,72.01,25.59,108.95-3.16,2.66-7.05,4.54-11.67,5.64Z"/>
          <g>
            <path class="cls-8" d="M198.09,393.07l-7.08,2.8c-1.97.78-3.9,1.37-5.98,1.9l-8.94,2.27c-4.99,1.84-6,.19-3.02-4.97,1.49-4.6,4.06-4.48,7.71.36,5.12-2.13,10.38-3.55,15.8-4.26l1.52,1.89Z"/>
            <path class="cls-76" d="M198,243.99h2c9.01-2.33,12.93,1.26,19.02,7.09,1.11-1.57,1.7-1.14,1.11.75,3.25-.51,5.08,3.64,1.97,5.18l-3.87-4.29c-2.98-3.31-8.28-3.49-12.02-6.03-7.75-5.26-15.71,2.93-17.23-.49.31-.26.08-1.25.7-1.4,2.86.66,5.48-.8,8.33-.8Z"/>
            <path class="cls-28" d="M367.93,279.94c1.52,8.18,2.33,17.99,1.44,26.29-.63,5.84-1.61,9.05-5.75,13.42-1.1,3.15-2.64,5.3-4.62,6.45-.78-2.53,1.4-4.83,1.68-7.52.76-7.55.03-14.89.29-22.61.63-18.95-.35-37.2-3.11-55.97-.17-1.18.63-2.53-.44-2.81-.71-.19-2.07-.18-2.65.58-6.21,8.13-14.55,1.6-16.43,5.45-.83,1.71.33,4.08-1.34,4.77-2.49-5.9.93-8.57,10.28-8.01l3.72-.99,7.85-5.74c3.5,4.13,9.12,44.83,9.08,46.69Z"/>
            <path class="cls-10" d="M370.1,324.98c-1.92-.11-2.96-1.49-3.11-4.14-5.21,14.14-8.57,28.86-10.07,44.16-3.43,11.32-.34,23.8-5.93,22.82,1.4-4.87.29-10.04,1.38-14.75,1.5-6.48,1.1-12.54,2.12-19.08l2.02-12.94c.8-5.14,1.69-10.19,2.5-14.95,1.07-6.28,6.99-10.69,9.2-16.62,2.39-6.41-.4-22.91-.27-29.55,3.03.64,2.15,25.76,1.71,28.02-1.52,7.8,1.99,5.07.46,17.02Z"/>
            <path class="cls-66" d="M326,390.98c-.37-.02-18.2-2.53-21.03-2.01-3.13.58-6.03-.77-9.05-.83l-20.77-.46c-5.71-.13-10.62-.15-16.3-.02l-24.59.56c-8.83.2-17.07,2.57-25.36,2.68,6.57-1.42,13.65-3.32,21.02-3.7l17.06-.89c12.97-.67,25.74-.39,38.5.2l19.15.89c18.65.86,36.76,3.15,55.25,6.81,1.44.28,3.19-.13,3.95-.82.58-.52.04-1.73.15-2.41.73-7.81,1.5-15.78,3.08-23.48.05-.23.43-.38.92-.52-.02-.4-1.4,30.59-4.39,28.75-9.13-.6-18.14-3.54-27.44-4.12l-10.16-.63Z"/>
            <path class="cls-63" d="M370.1,324.98c-.36,6.4-2.26,38.22-2.1,42l-4,24c-.66-10.49,2.48-19.66,2.89-30.93s2.5-23.57,1.71-35.53c-3.29,1.76-1.63,5.2-2.74,7.44-2.21,4.47-2.56,9.15-4.18,13.82-.94,2.71-3.38,4.61-2.71,8.22.76,4.13-1.07,7.74-2.05,11,.86-9.69,2.28-44.89,12.46-49.16-1.67,4.47.84,7.16.72,9.14Z"/>
            <path class="cls-79" d="M325.67,198.73c-.37,3.27-6.84,5.14-8.69,2.31,2.48-2.38,6.46-2.24,9.56-4.22.77-6.04-2.06-11.33-3.09-16.93-.85-4.64-1.95-8.72-2.79-13.17l-5.46-28.87c-.89-4.71-3.31-9.18-3.82-13.89-1.21-11.07-3.43-11.64-5.85-23.14-.44-2.1-4.86-18.36-7.3-17.65-3.18,4.88-4.25,10.51-6.5,15.64-1.97,4.5-4.31,8.46-5.45,13.41-.71,3.08-2.24,5.95-4.27,7.85-.24,1.52-.8,2.28-1.68,2.29-3.93,16.48-8.39,32.83-13.37,49.05-.48,2.9-1.52,4.43-3.13,4.58-.75-3.84,1.18-7.03,2.26-10.9l12.23-43.82,4.83-16.25,5.18-15.94c1.73-5.33,4.48-10.03,4.92-15.3l5.88-10.32c1.61,3.9,3.73,7.65,4.59,11.65,1.27,5.86,3.71,10.85,5.32,16.62l5.92,21.17,5.88,23.1c1.75,6.88,2.65,13.63,4.76,20.45,1.75,5.62,7.78,36.39,5.61,39.14-1.85,2.35-7.9,2.05-5.54,3.15Z"/>
            <path class="cls-67" d="M282.01,120.06c-.41,7.07-5.44,22.01-7.97,30.3l-4.86,15.95-6.51,23.69-4.03,17.91-8.49,29.17c-2.25,7.73-6.49,25.65-8.32,30.67-5.9,16.23,2.38,29.66-6.9,30.15.65,2.77-.11,4.44-.92,6.08-.77-4.89.92-9.37,2.31-14.47,3.54-12.98,2.08-17.62,6.46-30.73,1.51-4.52,1.82-9.28,2.98-13.98l9.51-38.48c2.59-10.48,4.29-20.89,8.57-30.33.82-1.8,1.88-3,2.7-5.85l3.08-10.7,4.97-18.82c.48-1.82,4.87-20.14,4.54-19.73.55-.69,2.14-.42,2.89-.83Z"/>
            <path class="cls-48" d="M331,252.99c.05,2.63-.05,5.41.18,8-.76,1.13-1.56,2.77-2.08,4.12.08-5.11-.61-10.44.22-15.9.36-2.35.86-4.09-.38-5.75-1.8-2.42-7.98-1.76-8.36-1.1-.24.42,1.05,1.03,1.41,2.25-33.53,21.98-19.88-7.3-36.95,11.42-2.97-3.04,3.65-9.31,7.15-8.73,2.75-1.56,5.04-3.68,6.88-6.36-2.49-1.99-.65-3.66,1.91-1.92,8.46-.53,17.02-.1,25.67,1.3,5.43.78,6.88,5,4.36,12.66Z"/>
            <path class="cls-2" d="M299.06,240.95c-.55,5.55-10.47,6.64-14.03,15.09l-5.36,12.72c-1.35,3.21-3.22,5.63-3.94,9.25-1.17,5.93-1.29,11.63-3.42,17.49-3.09-8.46-.79-16.27,1-24.1,2.89-12.65,1.99-20.53,7.63-30.35-.36-4.84.84-8.54,3.61-11.08l2.57,1.06c-1.41,4.61-3.62,3.17-3.92,6.54-.28,3.1,6.38,9.74,8.73,9.22,3.03-.67,4.32-4.99,7.13-5.83Z"/>
            <path class="cls-61" d="M256.94,367.04l.9-1.34c-2.25.44-4.51.67-6.79.88-.77.07-1.14-.64-1.19-1.6,3.42-1.8,7.87-1.11,11.98-2.18,5.6-1.47,10.71-.51,16.26-.15l18.87,1.22c4.64.3,9.59-.73,13.56,3.34-6.43,1.95-12.34-.02-18.51-.04l-35.07-.12Z"/>
            <path class="cls-25" d="M256.94,367.04c-11.73,1.99-22.77,3.42-34.05,6.85-.82.25-2.09-.16-2.55-.55-3.43-2.88,27.68-7.77,29.51-8.37,4.2.7,7.55-.76,11.21-.8l23-.23c.9,0,1.83,1.11,1.83,2.12-10.3-.14-19.71-.6-28.97.97Z"/>
            <path class="cls-46" d="M292.82,224.21c1.21,2.17-1.34,5.03-3.61,3.78-.18.23-.11.64-.25.9-.64.6-1.56,1.23-1.84,2.13-4.77,1.27-4.05,6.31-6.18,10.02.14-2.56-1.58-5.44-.79-8.16l1.93-6.7c-1.73-1.2-3.56-1.52-5.09-1.99l.68-.75c5.38.53,10.62.26,15.71-.82l-.57,1.58Z"/>
            <path class="cls-70" d="M282.04,213.92c-4.02,1.48-7.66,4.46-12.23,5.34,2.7,1.56,4.49,1.96,5.79,3.65.4.36.18.57-.67.64-2.04-.63-4.04-2.17-6.44-3.17-2.17-.91-3.31-2.81-3.3-4.87,0-1.66.69-3.28,2.59-4.14.99,2.01.88,4.04,2.17,5.4l12.09-2.86Z"/>
            <path class="cls-33" d="M330.81,272.09c-1.13,2.59-.63,5.5-3.04,8.66-1.36-4.15-.39-7.72,1.04-10.84-.06.2.32,1.42.52,1.98.17.48.7.49,1.48.2Z"/>
          </g>
        </g>
        <path class="cls-5" d="M226.91,241.97c-.37,1.55.61,3.94-.52,5.68-1.4,2.16-4.26,3.18-6.26,4.17l-1.11-.75c-4.36-5.17-9.36-7.86-15.02-8.09.84-2.26,4.81.07,9.97-2.92.84-.49,2.1-.13,2.43-1.2.57-1.88,1.62-9.44-.28-11.09,4.81,3.46,8.57,8.74,10.8,14.2Z"/>
        <path class="cls-69" d="M205,229.99c2.41.48,7.43,4.2,6,7-2.33,1.43-4.98,2.39-7.96,2.88-.55-.09-.87.06-1,.05-2.61-.12-4.36.72-6.54-.6,2.05-3.21,1.51-7.05,3.42-9.63.92-1.25,4.86-.66,6.07.3Z"/>
        <path class="cls-40" d="M204,242.99c6.72,1.39,4.21-4.99,15.02,8.09-10.46-4.09-1.64-7.09-19.02-7.09.62-1.33,2.71-1.27,4-1Z"/>
        <path class="cls-81" d="M211,237.99c-.91-.26-.89-.59,0-1,.26-2.47-3.89-5.33-6-7v-1c3.24,1.37,9.85,6.34,6,9Z"/>
        <path class="cls-56" d="M211,236.99c-.06.56,0,.87,0,1-2.87,1.33-5.34,2.28-7.96,1.88,2.18-1.8,5.3-2.01,7.96-2.88Z"/>
        <path class="cls-55" d="M226.91,216.97c.25,1.72.54,4.15-.76,5.64l-4.15-8.62c.61-.59,1.71-1.79,3.29-1.88.95,1.21,1.41,3.41,1.62,4.86Z"/>
        <g>
          <path class="cls-45" d="M228,357.98l.98-1.12c-.38-6.71-.04-13.34,1.02-19.88-.56-.08-1-.17-1.01-.3-.42-4.21-.31-9.72,1.01-13.7l1.32-7.94c.63-3.81,1.13-7.96,2.68-11.06.99,6.35-5.3,21.72-1.74,27.92,3.52-2.49,5.27-7.31,9.25-9.27,4.4-2.17,10.49.74,14.92-1.09,6.17-2.54,11.32-1.68,15.45,3.73,2.15,2.81,6.01,5.51,5.92,9.76-.13,5.74-4.74,9.92-6.87,14.38-3.29,6.9-7.92,11.34-16.06,10.65-3.5-.3-5.67-1.15-8.34-3.74-4.64-4.5-10.17-8.42-13.28-14.45-1.02-1.99,1.03-4.91-1.48-6.24-1.74,8.43-.19,17.06-.95,25.18-1.81.79-2.83-1.4-2.83-2.83Z"/>
          <path class="cls-38" d="M230,336.98c-.17,2.76-.83,4.42-2,5l-.08-16c.82-.9,1.36-2.02,2.08-3v14Z"/>
          <path class="cls-49" d="M228,357.98v-16c.89-1.4.78-3.75,2-5l-.05,21.95-1.95-.96Z"/>
          <path class="cls-14" d="M246.25,338.71c-1.41-2.72-3.12-7.25-5.93-7.16-1.26.04-3.49,4.01-4.81,1.81s2.11-5.01,4-5.38c5.76-1.12,10.54,10.21,6.74,10.73Z"/>
          <path class="cls-73" d="M266.54,333.18c-1.42.9-1.16,2.37-2.94,2.8-1.36-1.89-.81-6.81,1.48-7.64,3.87.07,6.75,5.37,5.32,8.57-2.23-.61-2.26-2.44-3.87-3.73Z"/>
        </g>
        <path class="cls-37" d="M307.05,215.94c-.49,2.26-3.12,2.57-4.91,4.03-4.06,3.3-7.12,7.31-11.08,11.23-1.45-1.37-1.04-2.62-1.85-3.2,1.07-1.38,2.14-2.81,3.61-3.78.58-.38,1.29-.61,1.77-1.2.32-.4.64-1.4-.09-1.71-.6-.25-1.22-.02-1.57-.15,2.5-1.45,3.38-1.07,6.84-.94l7.27-4.27Z"/>
        <g>
          <path class="cls-58" d="M364,236.99c.25.54.02,1.42.14,2-3.53.51-1.95-5.44-5.11-8.24-2.41,3.52-5.78,6.23-9.14,6.02-1.04-.51-.68-1.15,1.09-1.92-.66-.56-1.41-1.56-1.01-2.08,3.59-3.41,5.88-6.01,7.06-10.72-2.02-4.53-5.96-4.63-10.33-3.64l-.61-1.34c-.43,1.42-1.68,1.14-3.74-.84l-2.23.99c2.09,1.19,1.79,1.45,0,2.82.91.11.85.41-.03.89-.48,1.1-1.03,9.27-.7,9.97.44.94,2.87,3.66,3.14,2.52,1.17,1.14,2.13,3.81.48,4.33l-5.02,2.23c-.52.86-1.01,1.89-1.49,3.08-.28,7.69-1.86,14.96-4.74,21.82-1.3-.2-1.5-1.5-.6-3.89-1.82-1.62-1.83-6.22-.18-8,2.84-8.4.91-12.7-5.78-12.9l-15.18-1.28-.04-.82c-2.4-.67-4.9-.86-7.5-.55-3.29,1.75-5.09,1.6-5.4-.44-1.38-.15-4.11-4.44-4.13-5.19-.11-4.15,20.46-17.1,24.94-19.06.71-.31,1.51.46,2.01,1.27,3.19-.39,6.63.4,10.21-.73,3.32-1.04,5.47,1.14,7.25,3.94,1.94-8.13,8.88-1.04,16.32-3.65,2.33-1.44-.49-5.47,1.19-7.77l4.69,13.56c2.08,6.02,1.98,12.27,4.43,17.62Z"/>
          <g>
            <path class="cls-75" d="M351,238.99c-3.71,2.71-8.16,1.17-12.72,2.41-2.32.63-.92,4.94-1.28,6.58-1.33,6.08-3.46,17.86-6.19,24.1-2.11,3.59-2.73.9-2-2.18.09-1.49-.3-3.3.28-4.8.04-2.6.73-3.98,2.08-4.12.81.83-.12,1.6.21,3.04.71-1.3,1.77-2.81,2.04-4.57l2.6-16.48c.21-1.34.56-3.15,1.96-3,4.4.48,8.63-.57,13-1Z"/>
            <path class="cls-12" d="M346.1,217.06c2.61.04,5.52-.24,8.31.53,2.37.65,1.92,3.11,2.63,4.45l-2.34.55c-4.93-4.52-7.53-.92-7.8,10.81,1.86-.38,3.22.1,4.09,1.44l-1.09,1.92c-2.13-.14-4.57,2.16-6.88.99.02-2.66-2.82-3.08-4.23-4.09-1.02-3.1.81-8.15.15-11.51-.2-1.03.54-1.78,1.17-1.22,1.89-.31,1.9-.61.03-.89-.68-1.01-.63-1.92,0-2.82,1.71-.89,3.7-.94,5.97-.16Z"/>
            <path class="cls-11" d="M319.92,214.02c-5.33.64-20.88,12.51-24.55,17.26-1.56,2.02.59,4.48,1.73,5.73-2.18,3.73-4.52-.22-6-2.81-3.36-.81-3.96-2.48-2.13-5.3-.78-.48-.69-.77.25-.9,3.34-.63,6.08-2.78,8.23-6.46l9.6-5.59,12.14-5.67c4.75-2.22,8.98-3.98,11.88-7.93.54,0,2.15.02,2.19,1.04.09,2.7-.16,5.38-.78,7.9-4.43,1.45-8.9.82-12.55,2.74Z"/>
            <path class="cls-57" d="M329.96,222.06c.03.3-.08.63,0,.92-.83,2.2-.96,5.15.55,7.04,6.4,3.68,2.32,5.99-3.43,5.88-3.43-.06-12.09-1.47-7.89-4.89-1.53-3.06-1.15-14.19,4.09-12.75,1.26.34,1.46,1.37,1.46,2.58.51,21.44-.5-1.37.15-2.18,2.43-2.99,7.33-.43,5.06,3.38Z"/>
            <path class="cls-30" d="M318,229.99c.53-.59.93-.24,1.19,1.03-.71,5.62,14.04,4.96,14.42,1.77-2.78-1.05-4.76-2.01-4.59-4.41.14-1.89-.93-4.41.93-5.4.38,1.52-.87,4.99.81,6.07,2.66,1.72,4.33,3.11,2.78,5.94-2.16,3.96-12,0-15.01.16-3.96.22-7.44,1.51-12.06-.92-1.05-.56-2.87-.27-3.49-1.85-.47-1.22.64-1.5,1.01-2.4,1.22.4,2.36,1.33,3.42,2.78,6.69,1.96,9.57,1.32,8.65-1.9-2.64.06-2.6-.83-.15-1.77-1.1-4.53-4.02-4.72-8.78-.55-1.29,2-2.33,2.49-3.14,1.45,1.75-4.29,7.3-6.61,10.83-10.16,3.36,1.14.55,7.9,3.17,10.16Z"/>
            <path class="cls-80" d="M329.96,222.06c-.17-1.6.64-4.03-2.72-4.33-1.76,3.23,2.3,14.46-2.76,14.25-3.87-.16-.69-11.81-2.14-12.72-3.97-2.49-3.22,10.59-3.15,11.75l-1.19-1.03c.52-2.82-1.1-6.48.72-9.57s7.51-3.9,11-2.97c2.03.54,1.72,3.96.24,4.61Z"/>
            <path class="cls-2" d="M310,237.99c-2.82.27,24,1.22,22.21,3.8,1.75,2.76.01,8.57-1.21,11.2-.05-2.75.26-5.8-.13-8.85-.58-4.48-12.26-3.92-18-4.32-3.46-.24-8.95-1.36-11.9-.78-1.58-1.56,8.14-.96,9.03-1.04Z"/>
            <path class="cls-36" d="M340.1,220.93c0-.29.04-.59.03-.89l1.65-1.03c1.36,4.36,1.08,8.65-1.44,12.23l-.24-10.31Z"/>
            <path class="cls-16" d="M315.92,229.09c.25.92,0,1.43.15,1.77,1.83,3.77-4.14,3.43-6.17,1.79-2.81-.98-2.52-3.06-.12-4.59-.23-.45-.38-.82-.28-.91,3.91-3.66,5.58-3.55,6.41,1.94Z"/>
            <path class="cls-68" d="M315.92,229.09c-.85-.4-.95-2.72-1.89-2.87-1.89-.31-2.99,1.47-4.25,1.85-1.47,1.3-1.16,3.09.12,4.59,1.79.01,3.76.95,5.82.03.6-.27.27-1.57.34-1.81,1.13,1.13,1.2,2.13.53,3.13-.76,1.14-14.81-.35-12.6-4.01l10.97-8.02c1.22,2.69.38,4.98.95,7.12Z"/>
            <path class="cls-60" d="M309.78,228.06c-.78,1.45-.65,3.16.12,4.59-.84,0-1.57.06-2.53-.53s-1.38-1.62-.33-2.64c.67-.65,1.73-1.12,2.74-1.42Z"/>
          </g>
        </g>
      </g>
    </g>
  </g>
</svg>