<?xml version="1.0" encoding="UTF-8"?>
<svg id="Layer_1" data-name="Layer 1" xmlns="http://www.w3.org/2000/svg" xmlns:xlink="http://www.w3.org/1999/xlink" viewBox="0 0 512 512">
  <defs>
    <style>
      .cls-1 {
        fill: #94616b;
      }

      .cls-2 {
        fill: #4f2d2f;
      }

      .cls-3 {
        fill: #38313d;
      }

      .cls-4 {
        fill: #645759;
      }

      .cls-5 {
        fill: #a8a39c;
      }

      .cls-6 {
        fill: #edd2ca;
      }

      .cls-7 {
        fill: #2e3544;
      }

      .cls-8 {
        fill: #3b151f;
      }

      .cls-9 {
        fill: #b08972;
      }

      .cls-10 {
        fill: #221c1b;
      }

      .cls-11 {
        fill: #5a4b3e;
      }

      .cls-12 {
        fill: #0f0f0f;
      }

      .cls-13 {
        fill: #50232c;
      }

      .cls-14 {
        fill: #8e656c;
      }

      .cls-15 {
        fill: #22262b;
      }

      .cls-16 {
        fill: #3a151b;
      }

      .cls-17 {
        fill: #f1d1c2;
      }

      .cls-18 {
        fill: #715240;
      }

      .cls-19 {
        fill: #775960;
      }

      .cls-20 {
        fill: #493032;
      }

      .cls-21 {
        fill: #2c252a;
      }

      .cls-22 {
        fill: #52343c;
      }

      .cls-23 {
        fill: #231b1b;
      }

      .cls-24 {
        fill: #252223;
      }

      .cls-25 {
        fill: #1c0e10;
      }

      .cls-26 {
        fill: #261211;
      }

      .cls-27 {
        fill: #321a20;
      }

      .cls-28 {
        fill: #3a2229;
      }

      .cls-29 {
        fill: #4f3035;
      }

      .cls-30 {
        fill: #251312;
      }

      .cls-31 {
        fill: #956872;
      }

      .cls-32 {
        fill: #4d4741;
      }

      .cls-33 {
        fill: #2d1b14;
      }

      .cls-34 {
        fill: #553b2a;
      }

      .cls-35 {
        fill: #5f423f;
      }

      .cls-36 {
        fill: #6d4c58;
      }

      .cls-37 {
        fill: #aea69c;
      }

      .cls-38 {
        fill: #1b1512;
      }

      .cls-39 {
        fill: #1d0f11;
      }

      .cls-40 {
        fill: #b5a696;
      }

      .cls-41 {
        fill: #2f1c1b;
      }

      .cls-42 {
        fill: #b69788;
      }

      .cls-43 {
        fill: #624e3d;
      }

      .cls-44 {
        fill: #926772;
      }

      .cls-45 {
        fill: #827e7e;
      }

      .cls-46 {
        fill: #281818;
      }

      .cls-47 {
        fill: #251811;
      }

      .cls-48 {
        fill: #2f1916;
      }

      .cls-49 {
        fill: #372724;
      }

      .cls-50 {
        fill: #c3a190;
      }

      .cls-51 {
        fill: #210f15;
      }

      .cls-52 {
        fill: #2b1515;
      }

      .cls-53 {
        fill: #221a1a;
      }

      .cls-54 {
        fill: #333636;
      }

      .cls-55 {
        fill: #3a2e47;
      }

      .cls-56 {
        fill: #302734;
      }

      .cls-57 {
        fill: #af9282;
      }

      .cls-58 {
        fill: #241d23;
      }

      .cls-59 {
        fill: #120f0d;
      }

      .cls-60 {
        fill: #a5968d;
      }

      .cls-61 {
        fill: #5e2e36;
      }

      .cls-62 {
        fill: #3a333f;
      }

      .cls-63 {
        fill: #91656d;
      }

      .cls-64 {
        fill: #110e0c;
      }

      .cls-65 {
        fill: #332b37;
      }

      .cls-66 {
        fill: #4c3033;
      }

      .cls-67 {
        fill: #230d12;
      }

      .cls-68 {
        fill: #1d1016;
      }

      .cls-69 {
        fill: #6f454e;
      }

      .cls-70 {
        fill: #372c32;
      }

      .cls-71 {
        fill: #55393e;
      }

      .cls-72 {
        fill: #a68a77;
      }

      .cls-73 {
        fill: #321917;
      }

      .cls-74 {
        fill: #461f27;
      }

      .cls-75 {
        fill: #4b2d2f;
      }

      .cls-76 {
        fill: #b99a8a;
      }

      .cls-77 {
        fill: #2a3141;
      }

      .cls-78 {
        fill: #352c44;
      }

      .cls-79 {
        fill: #4d3a2c;
      }

      .cls-80 {
        fill: #b18f81;
      }

      .cls-81 {
        fill: #ae9681;
      }

      .cls-82 {
        fill: #412f2b;
      }

      .cls-83 {
        fill: #231620;
      }

      .cls-84 {
        fill: #a48b83;
      }

      .cls-85 {
        fill: #f2f1eb;
      }

      .cls-86 {
        fill: #5d5752;
      }

      .cls-87 {
        fill: #322c34;
      }

      .cls-88 {
        fill: #361a21;
      }

      .cls-89 {
        fill: #452329;
      }

      .cls-90 {
        fill: #2d1615;
      }

      .cls-91 {
        fill: #975662;
      }

      .cls-92 {
        fill: #3d3148;
      }

      .cls-93 {
        fill: #af8d7e;
      }

      .cls-94 {
        fill: #1e1519;
      }

      .cls-95 {
        fill: #1d0e11;
      }

      .cls-96 {
        fill: #191010;
      }

      .cls-97 {
        fill: #856857;
      }

      .cls-98 {
        fill: #a38e7f;
      }

      .cls-99 {
        fill: #b19685;
      }

      .cls-100 {
        fill: #8c7869;
      }

      .cls-101 {
        fill: #966069;
      }

      .cls-102 {
        fill: #a29a8c;
      }

      .cls-103 {
        fill: #481f2a;
      }

      .cls-104 {
        fill: #282029;
      }

      .cls-105 {
        fill: #f3f0ed;
      }

      .cls-106 {
        fill: #0a090a;
      }

      .cls-107 {
        fill: #96857c;
      }

      .cls-108 {
        fill: #2c3242;
      }

      .cls-109 {
        fill: #736357;
      }

      .cls-110 {
        fill: #1e100f;
      }

      .cls-111 {
        fill: #322939;
      }

      .cls-112 {
        fill: #4d3134;
      }

      .cls-113 {
        fill: #080b0d;
      }

      .cls-114 {
        fill: #4d2f30;
      }

      .cls-115 {
        fill: #ab8b76;
      }

      .cls-116 {
        fill: #402b1f;
      }

      .cls-117 {
        fill: #492a30;
      }

      .cls-118 {
        fill: #896062;
      }

      .cls-119 {
        fill: #282026;
      }

      .cls-120 {
        fill: #2b1b10;
      }

      .cls-121 {
        fill: #57343a;
      }

      .cls-122 {
        fill: #3b2519;
      }

      .cls-123 {
        fill: #cab19c;
      }

      .cls-124 {
        fill: #4d302f;
      }

      .cls-125 {
        fill: #ae938d;
      }

      .cls-126 {
        fill: #120a0b;
      }

      .cls-127 {
        fill: #1b1015;
      }

      .cls-128 {
        fill: #a57f69;
      }

      .cls-129 {
        fill: #251819;
      }

      .cls-130 {
        fill: #916771;
      }

      .cls-131 {
        fill: #312939;
      }

      .cls-132 {
        fill: #29212a;
      }

      .cls-133 {
        fill: #493132;
      }

      .cls-134 {
        fill: #1d121d;
      }

      .cls-135 {
        fill: #191418;
      }

      .cls-136 {
        fill: #513037;
      }

      .cls-137 {
        fill: #a98c85;
      }

      .cls-138 {
        fill: #261e23;
      }

      .cls-139 {
        fill: #9b817b;
      }

      .cls-140 {
        fill: #604c4c;
      }

      .cls-141 {
        fill: #9e9587;
      }

      .cls-142 {
        fill: #2f271e;
      }

      .cls-143 {
        fill: #91626e;
      }

      .cls-144 {
        fill: #0d0e12;
      }

      .cls-145 {
        fill: #623e41;
      }

      .cls-146 {
        fill: #482d32;
      }

      .cls-147 {
        fill: #6f4655;
      }

      .cls-148 {
        fill: #312833;
      }

      .cls-149 {
        fill: #2c2026;
      }

      .cls-150 {
        fill: #ae8f88;
      }

      .cls-151 {
        fill: #4d2832;
      }

      .cls-152 {
        fill: #261212;
      }

      .cls-153 {
        fill: #30282c;
      }

      .cls-154 {
        fill: #2a212a;
      }

      .cls-155 {
        fill: #441d27;
      }

      .cls-156 {
        fill: #2b1313;
      }

      .cls-157 {
        fill: #271720;
      }

      .cls-158 {
        fill: #6f4d57;
      }

      .cls-159 {
        fill: #1a121a;
      }

      .cls-160 {
        fill: url(#linear-gradient);
      }

      .cls-161 {
        fill: #52212b;
      }

      .cls-162 {
        fill: #30283f;
      }

      .cls-163 {
        fill: #4c3034;
      }

      .cls-164 {
        fill: #6e513e;
      }

      .cls-165 {
        fill: #2a1f2a;
      }

      .cls-166 {
        fill: #491f28;
      }

      .cls-167 {
        fill: #ffefe7;
      }

      .cls-168 {
        fill: #4b2f2d;
      }

      .cls-169 {
        fill: #8a565e;
      }

      .cls-170 {
        fill: #2c242d;
      }

      .cls-171 {
        fill: #583b45;
      }

      .cls-172 {
        fill: #1f1614;
      }

      .cls-173 {
        fill: #201919;
      }

      .cls-174 {
        fill: #270e13;
      }

      .cls-175 {
        fill: #ccb5a5;
      }

      .cls-176 {
        fill: #383543;
      }

      .cls-177 {
        fill: #bca096;
      }

      .cls-178 {
        fill: #211918;
      }
    </style>
    <linearGradient id="linear-gradient" x1="-89.9" y1="-77.31" x2="318.69" y2="160.9" gradientTransform="translate(114.13 105.95) scale(.48)" gradientUnits="userSpaceOnUse">
      <stop offset="0" stop-color="#31283f"/>
      <stop offset=".27" stop-color="#231c1e"/>
      <stop offset=".56" stop-color="#322f37"/>
      <stop offset=".69" stop-color="#2d1c1e"/>
      <stop offset=".93" stop-color="#382c36"/>
      <stop offset="1" stop-color="#2b2120"/>
    </linearGradient>
  </defs>
  <path class="cls-160" d="M239,0l2.07.94c-.69,7.14.73,7.3,7.66,7.09,6.62-.2,8.83-1.91,13.36-6.65l2.96-.21c2.57-1.07,7.12-.91,9.95-.17,4.5-.08,8.59,1.07,12.94,1.28,1.73.5,2.45,2.01,2.17,4.53l1.25,4.05c6.61-.14,13.77.35,21.46,1.47,8.14,4,12.65,3.74,13.53-.77l2.42-.59c14.86,4.26,29.71,9.34,43.3,17.01-.69,3.45-7.9,8.04-10.22,4.05l-.88-1.25c-12.39-.77-24.56-3.51-36.5-8.22-5.54-2.48-11.48-3.65-17.83-3.52l-2.56-2.17c-2.08-.34-3.32.23-3.71,1.72l-6.3-.47c-3.13-.13-6.18-.23-9.15-.29.6,2.78-4.75,2.58-6.92,2.29,1.61,3.8-6.92,4.23-7.82.88l-1.41.72c-5.95-3.44-12.2-6.07-18.73-7.87-2.02,1.94-2.75,1.7-3.95-.94-8.86-.5-18.29-.67-27.17-.07-1.25,2.64-2.66,2.64-3.87-.03-5.02,2.53-10.31,2.71-16.05,2.14l-.62,2.14-6.46,1.89c-1.04,1.38.39,2.04,4.3,1.97,1.16,1.82.04,3.18-3.34,4.07-.86,3.13-4.46,4.22-6.88,2.04-.84-1.12-1.21-1.33-1.11-.63-9.98,1.84-20.06,2.82-30.26,2.95-2.36.73-1.94,1.53,1.24,2.41,4.76,6.11,1.69,8.33-4.18,11.75-3.84,2.23-8.89,4.65-12.69,5.54-.39,3.17-5.02,3.4-7.83,3.38-4.73-.03-8.04-1.2-11.9-3.74-4.29,3.41-7.79,8.18-10.52,14.33-4.69,4.24-8.11,8.93-10.25,14.06-.12,8.03-.89,10.32-8.32,13.96-4.84.19-6.2,1.81-4.09,4.86,6.65,9.84,11.87,19.24,5.49,30.81,1.2,7.05-.42,12.44-5.65,17.62-.5,3.66-2.08,5.55-4.75,5.66-.07,1.07-.79,1.93-2.17,2.59,1.77,3.03,3.27,6.2,4.49,9.5.31-3.25,4.64-14.61,8.16-9.6.27.38.39.87.47,1.38l.35,2.38c-1.87,5.47-3.83,10.94-5.88,16.4-6.63,7.93-4.25,9.52,7.13,4.76l2.36.64,2.04-1.18c3.01,2.44,1.61,4.17-4.22,5.18.3,2.77-1.17,3.04-2.9.9-1.45.95-2.7,2.17-3.75,3.68-.46,6.4-4,11.78-10.63,16.14-4.35,2.65-8.21,5.85-11.57,9.58-4.79,9.47-8.57,19.39-11.34,29.75,14.58,4.19-.17,18.22-5.97,5.81-2.22-7.71-4.19-8.94-5.91-3.7l-3.53,2.42c-3.85,13.19-19.73,17.26-19.05.15,5.36-16.59,6.87-31.05-14.05-34.45l-.63-3.1C25.09,94.35,121.42,10.35,237,0h2Z"/>
  <path class="cls-111" d="M512,235.99v34c-3.69.33-4.85-7.77-1.42-8.78-3.03-4.25-5.5-7.6-10.71-9.73-3.05-.94-9.27-4.44-11.07-6.83-.81-1.07-2.48-9.13-1.56-10.54l2.42-.83c2.34,5.81,7.4,8.64,9.33,1,1.25-4.95-6.38-30.61-11.49-31.58-10.95-2.09-1.53,22.86.68,27.61l-2.1,1.69c-.69.26-1.25.42-1.39.24-3.92-5.09-8.22-13.45-6.75-19.53-5.47-7.09-9.11-14.8-6.34-24.03.69-5.06.38-9.69-.92-13.89-2.95-1.53-4.46-2.99-5.19-6.35-.92-4.25.82-14.42,1.74-18.81-2.93-5.4-2.66-9.33.81-11.77.96-1.63,5.42-9.8,2.95-8.69-4.28,1.94-8.16,3.88-11.85,6.92-11.67,1.18-16.79-.21-16.06-12.5,1.78-9.34,2.89-16.19-.07-25.15-.49-1.48-.46-2.82,1.17-3.24,1.23-2.99,2.77-5.38,4.61-7.15,37.19,41.11,63.18,93.27,63.18,147.95Z"/>
  <path class="cls-162" d="M2.1,287.05c0-3.25-1.18-7.14-2.1-10.05v-42c0-6.71,3.13-14.1,3.94-20.83,1.39-3.25,5.86-.71,8.11.99,8.02,6.06,9.4,19.93,5.98,28.83,1.25,7.93.63,15.35-1.06,23.16.16,7.11.3,15.71-6.16,20.44-1.47,1.08-8.03,2.05-8.72-.54Z"/>
  <path class="cls-58" d="M510.58,261.21c-.08,2.93.2,6.16,1.42,8.78v6c-1.23,2.5-1.6,5.98-1.8,8.86-3.23,3.97-5.97-1.85-5.55-4.9l-3.97-5.54c-.91-5.45-1.88-10.85-2.9-16.22-4.29-5.86,1.08-9.68,5.13-3.2,3.51,1.37,6.07,2.66,7.67,6.22Z"/>
  <polygon class="cls-45" points="275 0 275 1 265.05 1.17 265 0 275 0"/>
  <path class="cls-111" d="M505.03,315.91l-2.95,8.77c1.34-1.76-13.68,2.45-16.35,4.23-1.06.7-2.52-.34-3.23-.85-.86-.62.3-2.04.17-3.14-.41-3.53-5.6-3.33-7.85-4.67-2.35-5.76-.66-12.65-2.57-18.24-10.72-8.01-12.86-28.04.17-34.32.12-3.16.52-7.02,3.13-8.98,5.03-22.06,22.5-7.45,23.92,7.52-.09,3.7.75,7.01,2.51,9.92,5.2,5.58,4.36,12.53.64,18.94-1.23,4.96-1.55,17.74,2.41,20.82Z"/>
  <path class="cls-170" d="M487.24,234.11c.22,3.68,1.55,9.13,5.32,11.13,2.33,1.24,4.66,3.34,6.76,4.15,6.34,2.45,11.44,5.52,11.26,11.83-1.99.38-3.04-2.27-4.92-2.85-3.08-.94-5.29-1.99-6.55-5.52-2.88,2.01.69,3.47.61,5.23-.2,4.38,1.27,7.92,1.96,11.96.63,3.69-.42,7.43,4.26,9.15-.73,3.6,1.76,5.04,4.26,5.67-.73,10.49-1.84,21.17-5.17,31.06-5.2,6.48-6.3-17.65-3.87-22.7,1.66-3.45,2.91-4.94,2.59-9.11-.21-2.74,1.04-5.47-2.55-7.69-1.86-1.15-3.66-3.75-3.2-6.29,1.12-6.24-2.5-10.35-5.11-14.98-2.06-3.66-3.2-5.97-8.02-5.37-4.42.55-6.28,2.24-7.47,6.7-1.12,4.22-3.78,8.1-2.78,12.9-6.22,1.37-9.23,5.88-9.84,11.52-1.48,13.61,5.71,15.98,7.46,21.12-3.25-1.08-4.36-4.89-6.96-7.26-2.08-1.89-3.42-3.18-3.02-6.36l2.13-16.94c.45-3.6,4.06-11.77,10.17-12.98-.67-3.78,3.91-14.51,6.07-14.68,3.56-.28,5.99,1.75,6.3.43,1.07-4.54-1.72-5.45-.94-11.22,1.55-1.17,2.07-.64,1.24,1.11Z"/>
  <path class="cls-170" d="M440.99,79.87l1.11,1.82c-1.89,4.74-1.76,8.25.41,10.56.92-3.23,2.4-5.31,4.45-6.22.4.53,1.37,1.48,1.86,2.02-.22,3-3.06,4.91-4.04,8.34.88,6.75,2.35,14.17.48,20.94-.94,3.4-2.41,5.89-1.4,9.87.54,2.12-.21,4.29,1.51,5.8,2.19,1.93,11.15,5.1,16.86-1.87,1.4-1.71,4.76-.87,6.38-2.56,1.13-1.18,2.42-1.87,3.78-1.4,3.7,1.27,0,4.99-2.62,11.69-.44,1.12-3.65,2.5-2.89,4.18,1.37,3.06,3.53,5.92,1.6,9.4-1.18,2.13-.12,3.99-.53,6.56-3.33,20.89,7.57,6.15,5.78,24.16-.31,3.11.36,6.81-.91,10.23-1.71,4.61,3.2,11.6,5.14,19.31-.66-.3-1.34-.53-2.05-.67-2.02-1.19-4.25-2.04-6.69-2.54,2.2,8.56-.17,20.96-8.3,25.84-2.6,1.56-12.32,1.12-14.55-1.24-4.23-4.47-9.84-40.67-7.85-48.94.77-3.2,3.18-11.36,6.47-11,2.13-13.38,5.88-17.37,16.57-6.16.88-9.27,1.28-19.61-1.62-28.01-5.06-.3-9.79-1.22-14.21-2.75-5.77-5.94-5.58-11.28-4.8-19.11l-5.65,10.55-2.35-.64-1.66-1.41c5.14-12.2,8.31-27.39,2.79-39.9,3.47-5.92,1.86-6.76-4.84-2.53-2.86.42-4.61.02-5.24-1.2l-.68-1.23c1.46-1.9,3.89-3.31,7.27-4.25,1.6-2.16,3.3-3.2,5.08-3.11,1.57,2.01,4.13,2.99,5.33,5.47Z"/>
  <path class="cls-119" d="M372.08,27.98c1.21.68,2.81,1.79,4.06,2.3,1.83,2.17,2.76,5.05,2.79,8.65-2.93,9.73,4.62,18.94,14.26,14.33,2.18,1.87,3.36,4.67,3.52,8.42,1.66-2.65,3.84-5.24,6.53-7.78.89-2.29,2.17-3.53,3.84-3.73,9.92,7.29,20.83,14.31,28.57,24.24-3.22,7.16-9.15,5.52-11.67,8.59-.25.97-1.28,1.73-3.08,2.27-4.98,3.72-10.21,7.08-15.7,10.06-1.86-.47-3.12-.72-3.26,1.46,2.36.71,4.73,3.49,4.87,6.08,4.27.34,2.95,7.67-.63,5.03-1.96.23-3.75-.81-5.37-3.11-3.21-1.64-4.89-3.61-5.03-5.91-.7-1.54-.57-2.58.39-3.13-1.19-1.27-1.3-2.15-.35-2.66l.63-1.01c-5.49-7.99-11.26-15.78-17.32-23.37.06-1.98-.33-3.96-1.17-5.94l.42-1.57c-9.85-9.15-20.34-17.11-31.48-23.88l-.88-2.51c-2.82-2-.56-3.28,2.1-1.72,4.12-.93,8.44-1.68,12.97-2.26l.79,1.22c10.36-1.59,4.37-3.44,10.22-4.05Z"/>
  <path class="cls-87" d="M407.08,50.16c-.72,4.26-3.85,6.81-7.09,9.82-.85.79-.74,2.93-1.97,3.48-.86.38-2.98.32-3.28-1.19l-1.53-7.76c-3.07,3.55-5.93,2.19-8.72,1.1-6.99-2.73-8.89-7.58-7.62-14.86.58-3.31-1.84-7.28-.73-10.46,11.48,4.67,21.22,12.73,30.94,19.88Z"/>
  <path class="cls-119" d="M446.96,86.02c-.45,3.43-2.3,6.43-4.12,9.79-6.1-3.59-4-11.27-1.84-15.94.95,1.95,5.63,3.53,5.97,6.15Z"/>
  <path class="cls-154" d="M91.02,182.97c.04,4.67.39,9.44,1.07,14.3,1.87,1.12.59,1.83-1.09,1.96-.15.01,2.4-1.6,2.01.57.88,1.58.17,2.87-2.12,3.86-15.37.1-25.27,8.91-29.28,23.61-.98,3.57-.85,8.5,3.7,7.14,8.9,3.3,6.62,10.19,1.04,15.99,1.54,18.62,21.42,11.74,25.74-2.11-1.57-3.7,4.35-8.49,6.94-5.34.6,1.48,2.54.61,5.82-2.61.43,2.17,4.83,1.61,2.14.89-1.7-3.25,4.05-6.35,6.21-3.28,1.09.15,1.85.68,2.16,1.68-2.79,8.84-4.35,17.92-4.67,27.22.93,5.61.65,10.65-.82,15.13,7.75,4.1,3,11.1-4.05,11.09-3.01,1.93-11.77,6.73-13.78,1.73,2.08-2.54-1.08-15.82-2.13-16.05-3.62-.79-8.91,10.4-8.84,13.62l-3.1,4.12c-4.72,4.09-8.08,9.34-10.08,15.74-5.11.35-8.39,3.28-10.62,7.69.14.51.21.99.04,1.34-1.2,2.44-4.47,8.02-7.03,7.95-4.27,1.38-13.1-2.4-13.71-7.45-.37-3.04,1.27-6.05,3.69-7.78,10.3-3.75,12.04-15.79,4.71-22.87-6.92,6.99-9.87,14.68-12.26,23.95-4.56,3.84-14.58,27.6-10.18,30.5,6.75,4.45,23.23,6.99,25.27-4l2.53.29c2.35-.43,2.91,2.13.76,2.94.07,4.95-2.42,6.57-6.44,8.79-7.2,3.98-10.8,3-17.63-.62-3.31.67-5.9.4-7.77-.81l-5.23-13.3c-2.22-10.35-4.29-23.84,8.05-28.63,4.85-5.38,8.81-11.47,11.88-18.25l11.91-13.58c1.73-2.78,3.53-8.95-.63-9.4-6.68,4.19-12.07,3.75-16.16-1.31-5.99,2.67-9.7,7.94-11.15,15.81l-5.41,8.39c-1.27,4.19-4.37,12.76-8.53,7.1-.45-4.01-1.84-7.83-1.86-11.99,2.53-.5,5.79-.26,8.48-1.54,4.19-1.99,4.95-7.18,4.54-11.42-1.12-11.58,1.98-10.91,1.57-22.94-.12-3.63-1.47-6.66.02-10.27,3.32-8.03-.43-26.24-12.78-26.72.2-1.65.35-3.26.65-4.91,1.71,2.61,5.29,1.5,8.32,2.9,3.86,1.78,8.4,5.43,10.32,9.28,1.31,2.62,2.51,6.79,1.83,9.44l-3.5,13.66c-.69,2.68-.09,7.48,1.04,10.08,3.78,4.76,12.51-1.91,13.79-8.33.4-2,3.82-2.21,4.57-4.28.46-1.28,1.13-2.36,1.88-2.69,5.02-2.22,4.03,5.31,8.96,11.15,1.45,1.71,5.86-.13,6.46-2.65.55-2.34-4.15-3.15-5.71-4.18-3.57-2.37,5.57-16.88,5.45-16.47l2.93-10.6c1.73-6.26,22.27-20.26,24.05-25.67.58-1.77-.47-4.59,1.26-5.99,1.09-.88,3.08-1.51,4.78-1.93Z"/>
  <path class="cls-104" d="M70.82,431.83c-22.33-22.17-40.05-50.24-51.6-79.64,14.47-4.96,10.32,6.39,23.15.32,3.84-1.82,6.69-4,8.7-7.69.25,4.68,2.44,9.23,3.12,14.19,2.46,17.91,5.48,24.88,11.45,40.16l4.52,11.58c1.62,4.15,4.42,7.78,5.8,12.02l-5.13,9.06Z"/>
  <path class="cls-53" d="M13.99,338.89c-5.01-12.75-8.49-26.2-10.04-39.86,1.24,0,2.68.07,3.73-.84.84-.73,1.39-2.23,1.71-3.73,1.15-5.34,6.21-9.05,7.58-14.02,1.95-7.12,5.35-14.08,13.58-15.01.82,2.32,2.62,3.97,4.19,4.35,6.32,1.52,5.06-3.41,13.18-2.74,7.19,11.82-9.57,19.93-13.59,28.12-13.49,27.53-16.83,13.24-19.08,25.26-1.04,5.56-2.66,10.95-.13,16.63.32.71-.56,2.35-1.14,1.82Z"/>
  <path class="cls-173" d="M138.99,49.07c2.38-.83,2.78-.49,2.39,2,1.58-1.42,3.87-1.87,4.86.33,2.16.22,3.3.81,3.41,1.79-4.45,6.35-10.13,10.76-17.06,13.25-3.65,5.67-7.14,7.3-10.46,4.86-.81-9.2-6-6.68-9.18-.86,6.31,7.37,1.67,17.06-7.75,11.62-2.66.4-4.34,2.15-2.29,4.5,16.33-1.72,5.72,7.86-1.46,12.88-.68,2.18-1.53,4.32-2.56,6.41,7.85,4.08,6.71,22.23-3.14,18.88-3.79,4-.47,7.53,3.16,2.88l2.24.33c3.36.77,2.08,5.01,1.26,7.66-1.13,3.65-4.2,10.93-8.22,10.81-.79,1.3-1.77,2.22-2.93,2.75.05,3.87-9.27,4.45-10.08.85,2.32-1.77,1.73-5.69,3.87-7.82,3.68-3.66,4.81-7.06,5.36-12.06.79-7.15,3.7-15.12.61-22.05-1.36-3.05-8.96-13.24-7.94-15.35.73-1.52,1.44-3.02,4.36-3.16,3.37-.16,8.82-3.4,8.74-7.33-.29-14.19,6.72-12.16,13.82-24.79,2.09-3.71,3.05-7.32,6.75-9.91,5.42-3.79,4.89,6.5,22.25,1.51Z"/>
  <path class="cls-65" d="M119.78,148.99c-3.78,5.47-7.32,11.51-12.11,16.66l-11.57,12.43c-2.53,2.71-10.28,4.36-13.68,3.37-3.92-1.14.42-6.32,1.65-8.34,4.83-7.96,4.05-16.52,8.07-19.21l1.65-1.9c6.51.13,12.91-1.02,19.19-3.47,6.34-3.54,8.6-3.39,6.8.46Z"/>
  <path class="cls-172" d="M91.26,149.18c2.35-5.25,6.55,4.6.87,4.72-10.24-1.1-.92,9.8-10.97,11.12,1.56-6.4-6.23-10.75-3.56-13.94.88-1.05,2.4-1.17,3.58-1.05,3.41.35,6.86.41,10.08-.85Z"/>
  <path class="cls-92" d="M487.24,234.11c-.49-.18-.76-.89-1.24-1.11.04-.33.01-.68.09-1,.68-2.8-1.38-4.96-2.48-7.7-2.05-5.1-2.77-10.83-3.39-16.23-.48-4.14,1.6-5.97,5.2-7.13,7.06-2.28,10.63,10.95,11.98,15.85,1.5,5.44,7.46,19.65.07,23.18-1.89.9-4.23,1.92-5.99-.4-1.51-1.99-2.04-4.65-4.23-5.45Z"/>
  <path class="cls-178" d="M380.93,123.31l2.29-.02,7.79,13.65-1.04,2.21c3.9,9.21,8.49,17.04,18.09,21.02,1.89-.56,6.15,2.18,8.07,3.61.26.2-6.08-2.51-4.15-3.94-.28-.84.09-1.4,1.12-1.69l.08-2.48c6.07-3.02,10.5-7.25,13.27-12.7,1.6-7.2,7.29-14.52,15.43-12.82,2.42,7.98,6.61,9.2,14.34,9.21,6.23-.75,7.09,19.86,5.65,21.9-.66.94-1.45,1.46-2.61,1.36-8.87-3.43-13.63.41-14.28,11.52-.59.88-5.08,11.89-5.46,15.07s2.07,16.98,2.91,22.72c.95,6.55,3.02,12.83,4.63,19.15,1.09,4.3,4.32,2.03,11.95,3.39,12.4-12.82,8.61-13.83,8.13-25.8-.09-2.36,3.88-.68,5.28-.59,1.98.13,2.95,2.07,3.48,3.93,1.81,6.45-1.45,5.04,6.03,17.1,1.95,3.15,3.66,7.4.55,10.54-1.35,1.36-4.91,1.03-5.58,3.15l-3.37,10.66c-.92,2.9-8.02.45-9.53,2.81-.53.83-1.97,2.47-1.72,3.82.79,4.36-1.65,8.19-1.58,11.87.08,4.37-.79,6.21-3.13,9.95s1.4,15.81-2.69,17.28c-9.83,3.53,2.57-22.4-9.22-25.26-2.86-.69-7.71-.75-8.88,2.1-1.03.26-1.38.86-1.66,1.92l-1.24.02-10.05-6.36-16.07-6.12-.75-2.41-9.3-2.09c-2.39.28-2.57-.86-.39-1.94l1.09-2.12c8.07,2.22,12.41,1.41,13.02-2.44l1.72-1.52c1.08-4.15.2-8.7-2.65-13.66-.22-8.44-1.8-16.71-4.74-24.81l.84-1.87,1.86-1.59c14.31,3.71,21.49-3.19,13.29-16.26-.74-2.26-.92-4.5-.56-6.72-3.92-1.92-7.33-4.6-10.23-8.01l-1.83.97-1.3.42c-6.08-9.13-12.01-18.51-17.78-28.12-.7-1.56-2.31-7.57-1.37-8.58l-2.91-2.16-6.99-15.09.47-3.63c-.7-2.65-.06-2.57,1.67-.58Z"/>
  <path class="cls-56" d="M432.93,128.04c.97,2.9-.49,5.86-4.36,8.86-7.28,3.79-13.81,8.04-20.19,13.15l-2.4-1.02c-.64.27-1.18.45-1.32.29-1.32-1.52-6.19-12.34-5.66-13.24.23-.4.6-.73,1.01-1.03-.26-2.49,2.12-3.22,7.14-2.18l6.92-4.25c3.77.35,7.46.24,11.07-.32,3-5.05,5.61-10.29,7.83-15.73l2.15-.53c.51-5.15,1-10.91-.26-15.98-4.17-16.71-21.59-6.59-20.99,5.76,3.81,1.61,1.15,5.58-1.87,7.25-.84,2.64-2.17,3.92-3.99,3.85-3.08,2.12-5.26-3.83-1.84-5.04,1.66.08,1.44-1.19,1.26-2.16-.16-.88-.79-2.09-.63-2.88-.77-2.57-2.39-4.59-4.87-6.08-.84-1.14-3.71-2.57-2.83-4.74,1.61-.51,2.5,2.02,3.49,1.87s2.9-.61,3.67-1.46c2.66-2.92,5.66-3.06,8.99-4.36,3.08-1.2,5.22-5.38,8.71-5.09,7.48.62,10.53-6.17,13.11-2.54,2.86,4.02-3.04,3.2-.32,9.64,1.77,4.19.55,8.58.38,12.98l-.51,12.72-3.71,12.24Z"/>
  <path class="cls-119" d="M444.98,174.15c-.75-4.06-.47-10.01,3.15-13.01,2.99-2.47,8.36-.64,11.78-.35,2.21-2.8.53-6.37.83-9.78.42-4.88-1.59-9.37-6.8-10.24-2.51-.42-6.12.32-8.1-1.59-1.9-1.83-2.07-7.09-5.68-7.43-3.02-.29-9.07,3.07-9.93,6.21-3.57,13.09-7.66,13.55-17.13,20.19-.47.33-.86.57-1,.46-2.36-1.8-8.35-7.42-6.13-9.59,4.16-1.88,7.15-5.29,10.95-8.07-.05.04,12.62-5.74,13.57-8.71.41-1.28,1.25-3.66,2.44-4.22,1.72-.8,1.49-2.88,2.65-4.39,8.88-11.61.86-18.31,6.15-24.92,6.19,3.44-4.37,34.42,4.91,37.57,5.25,1.78,11.15.3,16.25,2.57-.93,13.63,2.58,21.01.14,32.11-5.81-1.5-9.92-9.94-12-8.28-3.78,3.03-.93,3.83-6.06,11.45Z"/>
  <path class="cls-70" d="M406.8,102.85c-2.69-.96-4.16-3.44-4.87-6.08,1.22-1.71,3.41.41,4.62,1.25,1.72,1.2,1.17,3.34.25,4.83Z"/>
  <path class="cls-78" d="M99.04,242.95c-2.38.92-3.82,1.89-5.67,3.18,2.09,3.47-.92,5.37-2.29,7.87-3.4,6.18-9.26,10.66-16.3,9.56-5.06-.79-7.8-3.08-9.65-7.85-1.21-3.12-1.97-5.66,1.31-8.48,2.89-2.48,4.14-8.52.25-10.65-1.27-.7-3.44.66-4.51-.11-6.66-4.87-1.01-12.47.07-15.81,2.82-8.67,6.7-12.08,15.47-16.13,2.99-1.38,5.46-3.55,9.28-2.32,2.83.91,4.33-1.74,6-2.41,1.95-.79,14.34-5.95,13.96-6.93-.53,4.71-4.74,6.48-6.95,9.98-3.82,6.05-8.73,10.33-15.59,13.76,2.15,2.82,4.13.51,6.08-.07,5.21-1.56,21.38-6.8,24.5-10.7-3.39,12.26-6.06,29.76-15.98,37.1Z"/>
  <path class="cls-131" d="M50.25,329.22l.04,12.66c-2.12,1.32-1.92,4.77-3.98,6.49-7.02,5.86-18.49,1.98-25.74-1.48-3.04-11.66,3.57-20.21,3.82-21.03,1.1-3.52,1.86-6.34,4.58-8.93,4.89-4.65,1.78-14.01,12.98-24.95,1.15-1.13,1.44-3.33,3.37-2.84,3.69.94,5.62,6.9,5.9,11.75.8,13.8-10.59,11.68-12.42,18.18-2.01,7.15,5.83,6.31,11.43,10.14Z"/>
  <path class="cls-94" d="M105.81,293.07c-.44.62-.72,1.32-.86,2.06l-.16,2.29c-13.86,6.46-27.54,13.64-41.03,21.54l-2.75.21c-.07-.54.37-1.19-.43-2.3-.91,1.43-2.22,2.1-3.32,3.05.05-5.08,3.52-9.67,9.58-9.06,5.1-16.11,6.1-9.55,12.82-19.97,1.06-7.6,4.53-13.06,12.39-14.93,1.06,10.25,4.72,11.78,1.52,18.3,2.46,1.58,5.1,1.25,7.28-.34,1.71-1.25,3.5-.51,4.97-.86Z"/>
  <path class="cls-149" d="M410.96,180.08c.07-.45.09-.94.56-2.07,2.84,3.86,7.1,6.24,11.3,9.19.15,12.47,5.63,12.87,4.54,17.91-.56,2.59-1.72,6.41-4.66,7.57-5.41,2.13-11.04,1.36-16.1,0-.6-.16-1.17-.37-1.62-.73-1.63-1.32-15.45-37.54-14.19-39.21.95-1.26,3.89.63,4.98,1.81l11.86,12.67c8.73,12.79,5.64.74,2.54-6.2l.8-.92Z"/>
  <path class="cls-55" d="M435.12,112.03c-.05,2.49-8.04,17.46-8.89,17.87-7.93,3.83-8.41-3.95-17.92,4.59-2.02,1.13-6.16-.84-8.3.54-2.76-6.28-6.72-12.08-8.35-19.65,7.61,5.11,8.69,4.01,16.48,9.45,1.33-.16.21-2.13-.16-2.75.24-2.72.72-6.41.03-9.16,3.56-10.5,5.45-2.84,5.86-11.1-2.12-7.27,7.51-13.28,13.74-12.32s6.9,3.96,7.73,9.53c.64,4.29.23,8.72-.22,13Z"/>
  <path class="cls-70" d="M435.12,112.03c.12-5.84.28-12.57-1.87-18.2-11.67-4.49-5.12-3.24-17.54,1.8-.48,2.58-1.05,4.48-1.84,6.17-4.54-4.32,4.14-16.01,10.63-16.56,3.73-.31,8.75,1.09,10.02,5.32,2.08,6.91,2.15,14.94.6,21.46Z"/>
  <g>
    <path class="cls-132" d="M477.95,212.7c2.64,10.47.98,11.03,8.14,19.29.83.32.78.66-.09,1,.61,3.71,1.63,7.3,3.05,10.76-1.25,2.2-4.06,3.05-8.42,2.57,0,0-2.16,4.77-6.47,14.32-6.02,2.59-8.66,11.63-9.76,17.65-2.08,11.38-.29,15.37,7.86,23.72l2.32.84,1.69,15.48c5.88,1.36,8.66,4.26,8.33,8.72,2.46-1.07,16.94-6.41,17.61-4.01.14.5.04,1.06-.12,1.65-12.26,36.41-29.23,72.8-55.07,101.43-3.1-2.27-6.54-3.95-10.31-5.05-4.13-2.59-4.15-6.41-.06-11.45,5.06-12.02,1.72-16.93-5.97-26.45.87-4.44,1.8-8.86,2.79-13.27l-1.26-.82c.06-3.05,1.45-5.53,1.84-8.16.71.07,1.26.16,1.29.32.72,5.37-2.09,4.93.08-.75.14-.36.71-.55,1.4-.69l1.79-1.29c6.88.26,13.46-.41,19.72-2.01,1.37-.82,1.97-2.24,1.81-4.26,1.2-2.45,3.55-3.32,7.08-2.62,1.35-.49,12.34-16.8,9.42-19.79,0,0-2.14-1.98-6.41-5.94.42,9.55-2.14,17.43-12.85,18.43-7.29.67-15.25-2.65-18.18-9.32l-1.21-.07c.33-16.84.16-33.68-.49-50.52-1.26-2.35-1.49-4.46-.7-6.34-2.02-1.82-.75-2.84,1.45-3.81,6.99-3.07,12.63,1.1,14.61,7.92-.28,16.79.42,21.38,2.1,13.77l.05-10.49c3.47-8.17,5.42-16.81,5.87-25.92,1.92-3.63,5.54-5.19,10.87-4.69.89-5.06,2.68-9.41,5.39-13.05,6.67-1.41,6.52-6.7-.47-15.88-1.52-3.42-3.76-9.17-.74-11.85.42-1.47,1.1-1.25,2.05.67Z"/>
    <path class="cls-144" d="M436.78,276.04c1.17,3.68,2.02,7.61,2.06,12.05l.35,44.88c.5.5.97,1.02,1.33,1.61,1.37,2.26-.62,18.41-1.45,22.26l-2.27,2.94c-.14,1.88-1.11,4.02-2.36,6.38l-.41-5.25c2.7-18.14,3.5-36.56,2.96-54.91-.39-7.42.65-15.02-.2-22.78-.22-2.01-2.17-3.41-1.68-5.25-1.84-2.51-1.03-3.53,1.66-1.92Z"/>
    <path class="cls-10" d="M436.81,359.78c.66-8.86,2.46-17.9,2.39-26.8,4.31,2.04,7.84,6.31,13.17,7.51,3.8.85,10.96-1.66,13.55-4.21,4.03-3.97-.29-14.79,4.7-14.31.61.06,1.42.49,1.89,1.44,2.5,5.06,8.61,2.71,5.91,12.03-1.13,3.91-9.19,15.57-10.46,15.97-1.52.48-3.17-.08-4.86.18-1.84.28-.83,3.74-1.61,4.68-4.11,4.9-9.86,3.54-15.42,3.71-3.38.1-6.46,1.71-9.26-.19Z"/>
    <path class="cls-148" d="M464.91,332.41c-3.71,1.81-7.88,4.59-11.77,3.19-10.45-3.78-2.12-18.72-1.18-19.26.84-.49,13.15,1.45,13.44,3.42,1.22,3.58-1.17,7.74-.49,12.66Z"/>
  </g>
  <g>
    <path class="cls-3" d="M92.08,197.27c-.71-.31-1.66-.54-2.2-1.2,1.41,1.75-3.49-10.8,1.13-13.1.94-.23,1.94-.8,2.9-.9,4.66-.5,9.11-1.41,14.46-3.15-1.35,4.51-12.35,18.97-16.28,18.35Z"/>
    <path class="cls-21" d="M398.97,226.87c2.84,5.24,6.86,9.63,10.61,14.63,2.45,3.27,2.34,8.03,3.58,11.5.5,1.39.35,3.72-.56,5.01-2.91,4.12-12.06.21-15.27,1.07-1.94-1.5-.36-3.72-.35-6l.09-27.75c.82.37,1.61,1,1.91,1.54Z"/>
    <g>
      <path class="cls-7" d="M365.07,476.88c2.45-.18,3.01,1.38,1.68,4.68,0,0,2.35-.57,7.06-1.72l1.29,2.32c-30.69,16.65-64.34,26.07-99.09,29.84h-40c-9.04.26-19.02-3.96-27.98-4.89,1.03-8.06,2.01-16.29,2.96-24.69l1.06-.54c.04-.59.12-1.16.33-1.68.19-.47.4-.86.72-.96,4.57-1.56,23.95,2.01,29.56,3.34,1.26.3,2.68,1.11,3.72,1.91,2.84-.46,5.79-.72,8.67-.62,18.18.58,34.73.43,52.38-4.03,18.9-.68,37.66-2.28,56.27-4.8l1.39,1.86Z"/>
      <path class="cls-12" d="M61,319.18c.4,1.72-.33,3.46-2.18,5.2-.7,2.72-1.98,4.24-3.84,4.56.05,1.85-.44,2.99-1.47,3.43-.36,1.75-.51,3.32-.44,4.71l1.38.7c4.23,24.28,8.89,50.58,20.51,72.5,2.97,5.61,6.33,7.31,12.6,9.61,33.53,12.31,68.25,18.52,103.7,20.1l1.62,2.01c2.7-2.79,4.42-1.43,5.15,4.07l2.06.88c3.04,6.65,3.75,12.92,2.11,18.82-3.8,1.47-3.28,6.05-2.26,9.38,1.46-.26,2.18.16,2.56,1.42,2.14-1.51,3.64-1.43,4.49.24-.18-2.85,1.44-3.05,2.65-.44,2.31,1.25,1.78,3.19-.45,4.32-1.14,1.9-4.8,3.75-6.15,1.27l-1.31,2.17c-1.64-1.11-3.59-1.83-5.84-2.15-4.07,4.27-6.46-4.49.23-4.92l-1.19-7.6-35.27,2.39-1.58-1.88c-15.35.76-23.02,1.13-23.02,1.13-7.42-2.24-14.81-4.62-22.17-7.12-.21.45-.44.87-.77,1.2-.58.57-6.1-2.48-7.19-3.16-13.45-7.37-23.51-19.64-34.12-30.18l-1.08-2.16,4.34-7.02c-10.58-20.4-19.31-42.58-22.31-65.65-1.94-4.35-2.18-8.41-.72-12.18-.05-1.03-.1-2.09-.76-2.94-.76-.1-1.85-.27-2-.85-.56-2.11-.77-11.37,1.96-11.8,1.82-3.46,4.01-6.74,7-9.3,1.39-5.02,7.01-5.92,3.75-.75Z"/>
      <path class="cls-7" d="M112.9,463.97l2.63,1.34c5.68.38,10.15,2.11,13.43,5.2,9.64.74,19.35.55,29.13-.56l21.88-1.79c5.75-.47,11.08-.14,16.89-1.34.03,4.68.63,8.01,2.17,11.81-2.16.59-4.19.1-5.46,1.66-.25,1.21,1.75,1.25,2.34,1.69l5.66.94c.32,2.38-2.03,18.03-2.6,21.52-.04.24-.47.41-1.01.56-33.34-7.12-66.2-21.94-93.01-42.98,2.45,1.34,5.39,1.38,7.96,1.97Z"/>
      <path class="cls-36" d="M209.2,480.68c1.49-1.18,1.98-.46.85,1.13.53.21.94.41.93.58-.21,2.94-2.25,23.07-2.94,24.07-.19.28-.58.43-1.02.55-3.21.3-6.09-1.39-9.07-2.02,2.25-4.41,3.22-15.27,2.56-22.26l2.55-.77c2.07-.49,3.94-2.5,6.15-1.27Z"/>
      <path class="cls-165" d="M212.04,481.86l-2.4,21.2c-.2,1.73.07,3.89-1.62,4.03-.32-.03-.68-.12-1-.09l3.03-25.2c.69-.89,1.35-.87,1.99.05Z"/>
      <path class="cls-12" d="M207.94,443.16c1.93,2.69,7.08,1.08,9.89,1.94,11.48,3.49,22.45,3.26,34.13,2.03,5.09-.54,9.94-.32,15.08-.84l10.93-1.09c6.51-.65,12.8.44,19.2-.83,4.12-.82,8.1-.14,11.85-.61,1.26,1.86.35,2.54-1.49,3.32,6.65-.61,13.05-2.59,19.18-5.93,6.18-.93,11.19,4.56,5.85,9.63-.81-1.09-.63-.7.54,1.17-7.66,4.32-15.08,8.06-23.97,13.16l15.32,3.17c9.38,1.94,18.92,1.62,28.5,3.61,5.01,1.04,20.82-1.5,20.18,2.72-3.12-.03-5.76,2.02-8.06,2.27l-34.27,3.71c-4.61.5-10.11,1.45-14.59,1.08-9.84-.82-17.55,1.99-26.69,3.54-14.32,2.43-28.94-.5-43.5,1.17-7.26-4.31-15-3.94-22.96-4.69-3.89-.37-7.93-1.85-11.02.18-.66-.05-1.32-.08-1.99-.05-.25-.34-.77-.69-.85-1.13-.25-1.45-.27-3.01.45-4.32-.18-.84.98-1.32,3.46-1.45l1.4-2.23,17.47-4.78c-7.83.11-15.56.42-23.22.92.18,1.71-.19,3.14-1.58,2.35-.39-.22-2.81-7.04-1.66-8.19l1.65-4.86c-1.55-4.28-2.6-8.68-3.14-13.19,1.71-4.01,3.02-4.6,3.9-1.76Z"/>
      <path class="cls-12" d="M362.11,322.92c-4.85,1.98-10.16,4.1-14.71,7.51-10.97,8.21-19.82,18.95-31.32,26.39-3.3,2.14-5.2,2.95-8.89,5.65l-8.56,6.26c1.62-1.19-21.03,17.96-21.17,18.01-6.7,2.11-11.98,7.48-18.63,9.98-5.72,2.14-10.48,5.82-16.3,7.53-19.28,5.68-20.76,5.79-40.81.04-.03,3.18-.15,6.24.31,8.76-.93,2.09-1.46.67-2.09-1.06-2.99-1.98-3.5-6.37-.9-8.89-1.12-1.68-2.29-3.46-2.59-5.49-1.12-7.51-2.9-22.69-1.68-29.7l1.38-1.96c-.79-2.83,1.3-4.61,6.26-5.36,6.1-.2,12.08-1.08,17.92-2.62l5.42,1.1c18.92-2.62,37.79-6.13,56.63-10.53,3.76-3.36,7.45-4.71,11.76-3.71,2.76-.4,5.11-1.31,7.07-2.74-.85-.36-.82-.72.06-1.08,1.63-2.48,2.94-1.23,3.78.96.08-1.67,1.4-2.87,3.97-3.61l3.72-9.9,2.34-.55c2.27-2.14,2.69-.35,2.72,2.34l-1.41,5.92c1.96-1.49,3.57-1.52,4.81-.1.99-1,1.39-2.94,1.22-5.81.35-3.23,1.62-5.03,3.81-5.42,1.54-2.37,2.56-1.68,1.73,1.05,1.35,1.26,1.47,3.32.36,6.19,0,0,10.21-4.07,30.63-12.22,3.27-.27,5.74-.1,3.18,3.06Z"/>
      <path class="cls-113" d="M333.11,451.94c-6.4.64,2.42-4.22-1.08-7.45-.88-.82-3.45-2.09-5.04-1.34-24.4,11.58-18.29,1.09-37.97,9.01-2.8,1.13-8.88,1.93-11.34.34-4.09-2.64-5.87-.66-9.42.37-5.24,1.51-10.98.96-15.92,4.62-2.51,1.86-6.54,2-8.99.11s-4.68-1-7.27-.9-2.95-2.5-2.8-3.83c.91-8.07,2.07-.95,14.16-4.42,5.57-1.59,11.75.48,17.45-.66,2.33-.47,40.13-2.91,41.2-2.66,1.35.32,2.29-1.22,2.93-1.4l2.8-.77c2.81-.52,5.55-1.2,8.22-2.05,11.83-3.9,23.77-7.51,36.14-10.87,8.5-2.3,15.13-4.37,23.29-7.62,2-.8,4.05-2.92,6.02-.27-7.13,5.24-14.93,7.62-22.03,12.18-5.62,3.61-11.36,6.9-17.1,10.13l-13.25,7.46Z"/>
      <path class="cls-28" d="M204.98,433.61c.35,2.89,1.27,7.19,2.96,9.54-4.17-2.44-.22,10.03-.13,10.23,3.76,8.44-1.5,6.04-.82,15.94.51.55,1.29-.09,1.78-.51l2.17,1.12c-.08,1.92.64,3.57,2.17,4.97-1.01.34-2.1,1.56-3.46,1.45-.83-.07-1.8.36-2.65.44l-2.12-.79c.09-4.9-.85-7.22-2.83-6.96.48,2.96-.22,4.99-2.09,6.09-3.45-4.13.41-8.93,1.5-13.22.77-5.39-3.34-10.71-3.41-15.85-.55-.95-.79-2.12-.1-2.98.22-1.86,1.78-2.52,4.68-1.99-1.38-3.83-1.25-6.55.4-8.18.7-1.73,1.36-1.5,1.96.7Z"/>
      <g>
        <path class="cls-77" d="M437,305.99c.57,1.07,1.02,2.14,1.04,3.22.36,15.98.28,32.87-2.32,48.64-.18,1.08-.86,2.07-1.68,3.04-.6,2.52-.43,4.44.52,5.75-1.26-.06-2.05.74-2.36,2.41l1.25,1c-1.14,4.56-2.04,9.16-2.69,13.79,13.63,12.86,9.24,26.57-3.78,37.68-8.57,7.31-20.34,14.52-30.38,19.61,14.59-.93,27.74-6.7,39.44-17.3,4.35-2.1,7.35-1.81,10.04,2.31.27,1.62-1.35,2.34-2.36,3.51-19.34,22.54-43.39,38.78-68.64,52.48-2.25-.7-4.68-.63-6.76,1.54-1.38.53-4.19-.86-3.87-2.4.34-1.65,1.93-3.09.61-4.41l2.02-2.78c-18.83.17-38.47-2.75-56.99-6.75-1.94-1.84-2.54-2.59-.65-4.67,1.79-1.96,16.43-9.32,20.15-11.06l3.51.33-.39-1.31s13.45-7.89,40.34-23.66c-14.5,4.64-29.54,9.01-44.5,13.3-1.33.38-2.74.52-4.16.63-1.44.11-2.9.08-4.35.02-2.66.85-5.4,1.53-8.22,2.05.87,2.74-1.37,3.2-2.8.77-24.4,2.26-49.4,3.77-74.22,4.64-.52.02-1.01.63-1.5,1.42-11.11-1.95-16.67-2.93-16.67-2.93-6.22.71-9.12-.53-8.69-3.72-2.33.3-3.01.07-2.04-.7-1.1-3.26-1.4-6.21-.92-8.84-2.39-6.28-3.78-13.92-2.95-20.56-2.09-3.09-3.08-11.85,2.35-10.08,9.28,2.93,17.05,4.69,26.53,2.42,15.4-3.69,27.35-10.36,40.8-18.31,1.51-.89,3.15-1.58,4.82-2.08l20.81-17.78c16.12-11.05,32.1-22.39,46.31-36.41,4.65-3.37,13.14-7.45,18.46-7.88l.04-2.18c8.35-3.16,16.58-6.82,24.68-10.96l3.99.09c-.17-.37-.28-.7-.16-.9.89-1.54,19.87-12.1,21.02-11.71.42.14.79.45,1.15.79l.6-1.49c8.12-3.71,15.26-8.63,21.4-14.77l1.32.26.85,23.92Z"/>
        <path class="cls-144" d="M447.01,426.11l-.92.04c-1.87.09-3.77-2.64-5.92-2.05-3.14.86-5.35,3.35-8.03,5.11l-11.98,7.85c-8.85,5.8-20.56,6.91-31.65,5.58l13.17-6.02c2.6-1.19,4.75-3.13,7.27-4.87l12.91-8.91c8.08-5.57,18.3-14.86,15.89-25.72-.92-4.17-4.26-7.64-6.6-11.41-3.71,5.41-5.52,19.67-10.69,25.95.26-7.57,4.92-13,6.2-20.3,1.36-7.72,5.39-14.75,5.54-22.29.83-.59.77-1.99,2.33-2.2,1.68,9.72-6.6,11.23.69,20,2.37,2.85,4.43,7.44,5.05,11.17,1.11,6.7-3.14,12.16-5.12,18.03,1.04,5.21,12.08,5.24,11.87,10.03Z"/>
        <path class="cls-144" d="M426.03,411.63c-6.16,4.91-12.15,10.91-20.58,13.04,4.39-5.01,9.81-7.04,14.21-10.98,1.7-1.12,2.77-3.01,6.37-2.05Z"/>
        <path class="cls-83" d="M202.03,413.05c1.25,6.82,2.12,13.69,2.95,20.56-.59-.38-1.26-.62-1.96-.7-4.12-4.72-6.03-15.41-3.08-20.92l2.09,1.06Z"/>
        <path class="cls-12" d="M320.04,440.92c-1.99,2.22-5.4,2.09-8.22,2.05,2.13-2.49,5.61-1.19,8.22-2.05Z"/>
      </g>
      <path class="cls-108" d="M133.05,367c2.16.03,4.39.41,6.68,1.14l48.17,27.49.04,2.33,1.8,3.28c1.76,13.57,3.91,27.03,6.46,40.37l-3.32.38c-2.43.14-7.17-.6-10.06-.74-17.82-.9-34.69-2.89-52.01-6.82-17.24-3.91-33.68-7.63-49.86-15.29-4.74-2.24-6.78-5.39-8.89-10.45l-6.73-16.13c-5.32-12.74-11.53-41.93-12.25-55.49-.79-1.76-1.48-3.64.8-3.95,8.36,12.56,23.78,19.06,37.65,23.06,12.02,3.47,25,6.88,37.69,8.44l3.82,2.38Z"/>
      <path class="cls-69" d="M131.88,287.06c2.08.1,3.12,7.44,3.1,9.72,0,.74-.23,1.52-.66,2.15,2.29,1.94,3.48,8.17.67,9.99l-.53,3.89c-10.56,14.05-21.95,27.56-34.17,40.52l-3.11.77c.12,1.78-.09,2.52-1.65,2.96-5.07,1.44-30.51-12.09-35.01-16.15-2.9-2.62-9.55-8.91-5.53-11.97.95-4.02,2.68-7.56,6.02-9.76,10.14-6.68,20.39-12.88,31.81-18.29l12.13-5.75c8.44-4,17.97-5.36,26.93-8.08Z"/>
      <path class="cls-94" d="M97.18,354.1l2.56-1.61s8.67,2.79,26.02,8.37c2.8-2.16,24.97-14.8,27.55-13.95,4.73,1.56,1.64,5.58-1.31,7.68,0,0-4.58,2.69-13.74,8.08,4.81-.13,6.4,1.01,4.77,3.42.02.5,0,.98-.16,1.41-.47,1.18-6.93.34-8.67.11-.4-.05-.77-.3-1.14-.6-10.77-.9-21.69-2.97-32.5-6.57l-20.94-6.98c-10.8-3.6-20.26-9.7-25.98-19.07-.98,1.53-.57,2.19-.55,2.69-1.11-1.11-2.13-3.73-1.55-5.3.47-1.25,2.49-1.83,3.45-2.83.02,12.54,24.59,21.57,34.85,25.43,2.79,1.05,4.91,1.65,7.34-.27Z"/>
      <path class="cls-134" d="M191.02,400.96c1.13,1.8,2.28,3.69,2.67,5.8,1.8,9.87,3.51,20.02,4.99,29.95.32,2.14-.22,4.3-.74,6.36.2.95.08,2.02.1,2.98-1.37.02-.51-3.03-1.8-3.25-.96-.17-2.52-.87-3.36-.82.67.16,2.13-.79,1.87-2.09-2.83-14.15-4.76-28.06-6.81-41.94-1.09-2.57.22-3.07,2.07-1.02l2.12.68c-.26,1.03-.63,2.15-1.11,3.35Z"/>
      <path class="cls-15" d="M158.09,469.96c-3.02,2.22-7.04.54-11.22,1.03-6.04.7-13.38,3.68-19.2.94-3.59-8.07-12.17-3-14.77-7.96l23.73,5.44c7.01,1.61,14.47-.01,21.46.54Z"/>
      <path class="cls-158" d="M207,476.8c-1.58.15-3.03,1.92-5.01,1.72-1.09-.11-1.95-2.38-2.04-3.38-.17-2.08.15-5.32.1-7.82,2.06-.52,3.66-.67,5.68-.16l1.26,9.64Z"/>
      <path class="cls-157" d="M203.06,481.95c-1.38,1.91-.71,4.41-1.08,7.16l-2.09,15.6-1.94.28,2.16-21.19c-1.19-.98-3.11-1.02-4.2-1.83,2.3-.33,4.88.52,7.15-.02Z"/>
      <path class="cls-54" d="M213.11,474.91c-.78-.11-2.6.48-3.22-.52-1.12-1.81-.73-3.9-1.13-5.57-.63-4.64,9.96-2.39,13.43-2.29,5.36.15,10.55-1.61,16.13.11-4.11,3.89-9.09,3.58-13.7,5.08-4.03,1.31-7.65,2.75-11.51,3.18Z"/>
      <path class="cls-133" d="M363.11,279.93c-1-1.04-1.46-2.37-2.27-3.46-1.61,4.68-2.75,9.07-2.93,13.6l.94,1.28c-1.31,6.07-2.24,12.2-2.8,18.38-3.07-1.47-4.69-4.71-4.85-9.75-.17-.52-.66-1.9-.92-2.55-.35-.87-9.26,14.38-9.27,16.05l-1.27.44c-.68.68-1.36,1.6-2.3,3.08-.16.85-.06-14.41-1.44-12.01-.48,1.42-1.15,2.09-2,2-.91.89-1.6,1.81-2.09,3-.02,4.85-2.69,11.11-5.69,14.84-1.02,3.49-2.46,6.76-2.94,10.9-.09.8-1.71.26-2.09.32l-2.14-1.35-.84-10.02c-.34,2.32-1.39,3.39-3.14,3.21l-4.19,11.1c-.73,1.94-4.16,2.41-5.84,2.96-1.86-1.4.66-3.81.52-5.5-.39-4.76,1.56-6.69,4.14-9.74,10.87-12.84,18.06-27.7,24.67-42.62,1.71-1.67,4.33-2.47,7.85-2.38l4.24-2.16c3.8-5.25,6.8-10.99,9-17.22l1.29-.36c.8-1.98,2.66-3.48,2.77-6.25l5,12.63c1.61,4.07-.16,8.1-1.42,11.57Z"/>
      <path class="cls-147" d="M199.04,403.1c.33,2.92.74,5.95.9,8.89.37,7.04,1.85,13.96,3.08,20.92.61,3.45,1.95,6.84,1.59,10.63-2.51-.21-4.61-.85-6.67-.46-2.89-13.91-5.48-27.99-6.92-42.11-1.4-5.31,2.72-3.57,6.06-1.94l1.96,4.08Z"/>
      <path class="cls-89" d="M196.15,365.95c1.3,2.3.42,5.11.58,8.06.56,10.05,1.23,19.65,2.31,29.09-1.83-2.23-4.7-3.27-7.52-3.97l-.5,1.83c-.75-1.02-.78-2.71-1.01-4.03-.88.05-2.06-.18-2.16-.9-.97-6.91-2.59-19.59-1.83-26.16l2.05-1.73c-.7-2.16-.76-2.5,1.78-2.12,1.48-1.22,4.43-.88,6.29-.08Z"/>
      <path class="cls-46" d="M321.19,336.06l-6.44,3.1c-1.86-4.42,3.04-10.69.32-11.27.96-2.55.98-6.34,5.59-7.21-1.01,5.56.13,10.44.52,15.37Z"/>
      <path class="cls-60" d="M301.27,341l-.06,1.08c-3.64.62-6.24,2.6-9.61,2.18l10.08-9.7c1.36,2.93.01,4.56-.41,6.44Z"/>
      <path class="cls-69" d="M394.02,261.03c.41,2.04-.27,4.5,1.73,6.12.5-2.67-.11-5.11,1.96-6.13l9.3,2.09c5.76,2.24,26.66,8.1,26.87,14.89.97,6.36-15.22,13.91-20.99,17.01-1.26-6.84-5.53-11.75-11.86-14.15l-20.16-7.65c-1.27-.48-3.13.36-3.78-.87-.56-1.07-.31-2.38-.14-3.46l3.23-10.03c-.39-2.69,9.16-2.23,10.23-1.7,1.93.98,2.75,1.6,3.61,3.89Z"/>
      <g>
        <path class="cls-27" d="M433.88,277.99c-.22-1.94.59-1.95,1.24-.02,2.22,1.17,2.63,5.3,2.77,7.93.34,6.46.63,14.21-.89,20.1-.22-7.32-1.85-14.68-1.06-23.64-4.67,6.35-10.06,8.78-16.18,12.46-2.69,1.62-4.13,2.77-6.92,3.25l-2.27-.45c-5.41,1.55-17.19,8.88-19.74,12.27-5.04,2.8-10.25,5.52-16.01,7.87l-12.71,5.18c.44-4.1-8.79,2.03-11.03,2.79-8.37,2.85-15.87,6.07-24.36,9.51-1.03-3.29.06-6.45,1.23-9.33l-.76-.79c2.51-5.07,4.08-10.1,4.72-15.1-1.58-2.64-.92-3.58,2.09-3,.42.98,1.09.31,2-2,3.89-3.16,3.23,5.46,2.6,8.46-1.1,5.31-1.75,1.44-.3.06.18-.17.75.06,1.44.41,1.92-1.77,3.45-4.26,4.6-7.45l4.43-7.47,1.56-.18c4.25,15.27,6.49,15.67,6.71,1.19l2.33-9.48-1.46-.47c-2.76-1.72-1.61-5.99-.62-8.8,2.19-6.3,5.07-9.29,5.82-1.33,1.6-.01.88,1.88.9,1.76.41-2.35.94-4.95,2.11-7.06.15-.27.86-.12,1.59.37l3.71,10.27c-.15-1.78.28-2.86,1.31-3.24l1.18-12.73c1.28-1.04,2.29-1.19,3.04-.44,1.23,1.66,2.84,2.51,4.84,2.55l19.97,7.57c5.99,2.25,10.56,6.87,12.45,13.04l12.1-7.01c2.66-2.31,5.18-4.66,7.56-7.02Z"/>
        <g>
          <path class="cls-135" d="M412.83,298.07c1.06-.18-21.29,11.42-22.01,11.82-5.33-3.01,20.34-14.4,20.53-14.33.97.36,1.42,1.38,1.47,2.51Z"/>
          <path class="cls-39" d="M327.94,325.89c-.44-.54-1.06-.88-1.73-1.05,1.49-5.08,3.65-9.94,5.69-14.84,1.48.15,1.5,2.44.93,3.85l-4.89,12.04Z"/>
          <path class="cls-39" d="M339.73,313.92c3.45-10.13,9.78-14.77,11.2-26.77,2.42,8.09-.14,15.2,4.55,21.7.37-6.76.16-13.03,2.43-18.79.4-1.02,2.34-1.77,1.37-4.17,4.98,5.42-2.54,12.09-1.51,19.13.47,3.22-.06,6.51-1.62,9.37-4.98-3.3-4.51-8.09-6.21-14.31-3.95,3.59-6.66,11.85-9.57,16.88-1.01-1.38-.47-2.28-.64-3.05Z"/>
          <path class="cls-39" d="M334,306.99c.66-.64.76-2.12,2-2-.61,4.39,1.18,8.73-.82,13.86-2.74-4.14-.5-8.15-1.18-11.86Z"/>
          <path class="cls-39" d="M338.13,319.16c1.47,1.21,1.03,5.35-.27,7.21-2.55-1.18-3.09-7.07.27-7.21Z"/>
        </g>
      </g>
      <path class="cls-21" d="M407.01,263.1c-3.11-.3-6.73-.22-9.3-2.09,3.47-.73,6.37.94,9.3,2.09Z"/>
      <path class="cls-106" d="M143.02,366.09c1.91-1.31,4.46-1.48,7.65-.48,11.04,1.06,22.07,1.37,33.09.92,2.34-2.18,4.88-1.5,4.32,1.62-.36,5.53,1.09,23.77,1.94,28.79l-2.07,1.02-49.44-28.22c-1.98-1.13-4.66-.65-5.45-2.73,1.47-2.55,6.35.1,9.97-.92Z"/>
      <path class="cls-88" d="M149.99,326.12c.97,2.67,1.65,5.51,2.03,8.53,3.22-3.44,5.49-3.73,6.79-.85,2.25-3.26,3.85-6.79,4.79-10.58,1.24-1.61,2.33-1.87,3.84-.41,4.48,4.35,10.22,22.46,11.02,29.06.21,1.73.71,13.36-.52,12.98-.26-.08.65-4.9,2.29-3.78,2.4-3.85,3.76-8.11,5.02-13.26l8.38,13.9c-1.9,1.7-3.96,1.38-5.45,2.95-.69.72,1.03,1.86,1.67,1.37-.57.47-.41,2.35-1.78,2.12-.12-.98-.98-.84-1.53-.93-.85-.13-1.48,1.07-2.29,1.2-7.35,1.17-14.75.53-22.24-.24-6.66-.68-13.12.13-19.01-2.09-.19-3.01-9.61.85-10.43-3.26,4.99-1.04,8.09-4.72,12.25-7.06,2.15-1.21,11.53-4.14,8.16-7.14-.23-.2-13.84,6.9-17.47,8.23-3.58,1.31-5.68,5.4-9.92,5.95-5.66-1.78-11.63-2.84-17.28-5.01-3.89-1.5-7.32-3.35-11.14-3.7,4.75-6.54,11.28-11.68,16.59-18.39l21.21-26.78c1.74,1.83,3.26,4.05,4.54,6.66,1.3-5.31,2.24-11.03,2.82-17.16.81-1.47,1.47-1.23,2.66-.14,4.35,3.97,6.33,20.75,5.99,26.81-.02.36-.45.7-1,1.03Z"/>
      <path class="cls-25" d="M151.99,314.9c.83,3.51.87,7.76,0,11.09-.15,2.67-1.08,2.62-2.01.13.04-9.52-.91-19.26-6.66-27.71l-2.97,28.37c-2.56-3.8-1.36-7.38-3.09-10.94-1.05-2.16-2.37-4.74-2.29-6.91.13-3.38.01-6.68-.67-9.99,1.12,0,.87-1.64,1.76-2.03,1.7-.04,2.63.99,2.79,3.1,3.64-11.7,5.73-10.79,10.75-.03,1.8,3.87,4.97,11.62,2.38,14.92Z"/>
      <path class="cls-20" d="M179.98,354.78l-1.34-1.38c-.59-6.01-2.26-11.8-4.49-17.39-4.2-10.53-9.15-22.69-13.13-5.64-1.85,1.31-3.55,1.16-4.02-1.05,0,0-.97.47-2.91,1.42l-1.19.18c-.21-5.36-.51-10.7-.92-16.01-1.84-7.63-3.61-15.29-8.81-22.15-2.82,6.42-3.21,12.58-3.24,19.2-.56-.02-2.24-1.22-2.11-1.8,1.21-5.22-1.16-9.02-1.76-13.26l-1.94-13.88c-.65-4.66-.4-29.28,2.07-33.88.5-.28.75-1.02,1.7-1.13l-.63,9.11c-.09,1.26,1.59,1.17,2.08.81,1.41-1.04.57-18.8,5.49-25.81,6.65,21.8,1.43,15.77-2.15,31.67-1.21,5.35-3.77,9.98-3.21,15.27,2.72-3.8,2.88-7.7,4.67-11.39,2.5,3.08,2.19,6,3.71,8.5,2.38,3.9,6.67,4.11,11.63,3.2,3.65,11.31,7.36,22.05,13.13,32.12,6.66,11.65,20.39,23.42,21.3,27.46,1.37,6.11,1.45,12.34.78,18.47-6.05-5.54-7.05-12.32-11.18-18.35-.75,2.6-.87,16.03-3.54,15.7Z"/>
      <path class="cls-95" d="M179.98,354.78c.2,2.09.38,4.2.25,6.3-.88,1.41-.43,4.25-3.36,4.32,2.97-14.53-2.98-30.87-11.26-42.25-2.8,4.35-2.9,10.26-8.5,17.18-2.1-2.65.75-4.61-.62-7.36l-6.08,6.31c-.62-4.65-.44-8.93-.42-13.16l2.01-.13c.15,3.06.85,4.64,2.1,4.75,6.27-11.65-.02-18.07,3.54-19.74,2.01,6,2.04,12.31.95,18.98,3.54-1.61,2.99-4.94,3.58-7.85.53-2.61,3.15-2.51,5.06-1.97,1.69.48,1.49,2.59,2.44,4.2,5.66,9.68,9.27,19.66,10.31,30.42Z"/>
      <path class="cls-88" d="M154.1,330.74c-.21,2.11-2.46,1.6-2.2-.45.23-1.85.11-3.18.11-4.29v-11.09c2.59,1.55-.62,13.88,2.1,15.84Z"/>
    </g>
    <g>
      <path class="cls-176" d="M265,0c1.73,0,1.83.7.05,1.17-9.83,9.92-9.97,9.6-25.31,8.11-1.05-3.61-.44-6.35-.74-9.28h26Z"/>
      <path class="cls-62" d="M328.78,10.97c-.92,1.18-.55,3.77-1.96,4.82-4.06,3.02-8.41.3-12.51-.99-7.82-2.45-15.86-1.38-24.05-1.92-2.19-3.19-2.46-7.11-2.33-10.61,14.03.68,27.52,4.87,40.85,8.69Z"/>
      <path class="cls-159" d="M139.95,126.99c1.65,2.16.77,2.92-1.77,2.08-9.56,15.88-20.25,31.01-32.08,45.39l4.24-1.86c2.4-7.8,12.83-12.86,8-1.18l-7.98,13.4c7.77-.68,2.71,7.83.25,11.8-12.15,15.83.3,1.27,4.83-4.97,7.76-2.2,4.51,5.09,1.23,9.23,2.29,1.02,3.34,2.42,3.14,4.2-1.62,13.13-6.06,24.64-13.31,34.53l.48,1.62c.67.06,1.41-.05,2.03.3-1.48,1.77-3.6.35-4.68.93-2.05,1.64-3.6,3.89-6.6,4-.17-1.8.88-2.52,1.3-3.52l-.02-2.56c6.76-8.37,10.99-18.29,12.69-29.76-2.62,1.35-5.34,2.51-8.1,3.56s-15.68,5.96-17.39,5.72c-6.01-.84-1.84-6.68,2.74-8.28,4.68-3.69,8.71-8.06,12.07-13.11-3.57,2.44-6.25,2.86-8.02,1.27-.95-.17-2.07.47-3.09-.73.76-1.11,2.32-.62,2.17-1.8l.47-2.01c5.06-3.09,8.56-8.18,11.85-13-4.45,1.78-7.95,1.71-10.49-.19-1.87-1.11,6.33-.8,3.67-3.1-.46-.4-.94-.72-1.48-.9l-.7-2.18c7.73-7.54,14.6-15.84,20.61-24.88,1.05-1.35,2.31-2.03,3.77-2.02-1.02-2.14-.28-4.12,2.23-5.92,1.17-1.96,3.73-2.72,5.19-4.85.98-1.44,13.12-18.52,12.76-11.22Z"/>
      <path class="cls-31" d="M304.08,16.87c23.58,1.07,36.81,12.76,61.96,12.44-1.6,1.63-3.85.95-4.19,2.72-6.12.94-9.87,4.42-13.75,1.04l-1.84.35c-1.52-.34-12.61-3.33-12.91-3.93-.21-.43-.27-.94-.29-1.47-1.48-.21-2.84-.56-4.07-1.06-.96-.14-2.58-1.17-3.95-.83-11.17-12.99-10.52,4.02-24.08-8.59,1.38-.91,2.29-.28,3.11-.68Z"/>
      <path class="cls-19" d="M191.92,18.98c3.33-2.25,5.41-2.27,6.23-.06l1.2,3.26c-.98,3.05-4.26,2.31-6.47,2.84.54-1.23,2.38-1.22,2.63-3l-17.76,2.58c-2.66.39-5.54.92-8.4-.86l22.57-4.75Z"/>
      <path class="cls-68" d="M396.17,95.74c-.12,1.05,1.38,1.95,1.87,2.97l-2.27.16-3.16.32,13.9,18.36,1.46,4.54c4.19-.65,3.74,4.21-1.29,4.1l-11.64-6.35,5.95,12.56-.99,2.64c2,4.55,2.31,10.26,5.97,13.99.46,4.08,3.96,6.76,7.13,9.12.14.37.42.89.21,1.15-.32.39-1.02.54-1.33.54-1.68.35-3.19-.42-4.51-2.32-7.51-9.55-13.14-20.36-16.88-32.42-2.62-3.86-3.76-7.59-3.43-11.18-2.93.93-5.94-6.15-4.19-8.2-1.54-2.68-1.71-4.14.96-1.77,2.05-.1,3.81,1.06,5.27,3.47l3,2.48c-5.21-7.1-9.99-14.58-13.14-22.74,1.07,1.1-8.21-10.78-8.25-11.45-.33-5.83,12.63,12.27,12.43,12.07,3.62,3.67,9.11,4.94,12.92,7.94Z"/>
      <path class="cls-70" d="M395.77,98.86c3.92,2.34,7.93,5.06,10.4,9.02.1,1.58.41,3.98,1.84,5.04,3.57-.11,3.29,8.99-.03,9.16-2.93-2.3-4.49-5.89-7.02-8.98-4.73-5.78-10.08-11.1-12.5-18.03,3.65.12,5.25,2.56,7.31,3.79Z"/>
      <path class="cls-112" d="M133.86,170.05c2.46,4.35.77,12.32-.41,17.45-2.39,5.2-3.64,9.71-3.75,13.53.62.43,1.08.84,1.04,1.18-.66,4.69-12.09,32.17-15,36.27-.39.55-1.71.03-2.54-.52-2.21.94-5.17.86-6.21,3.28-.88,0-2.5-.8-1.75-2.1l5.29-9.3c4.44-7.81,4.86-17.04,7.67-26.02l-4.11-1.39c.73-3.76,3.25-5.52,4.38-8.39.23-.59-.76-1.95-1.02-1.67-3.66,3.91-9.05,14.63-19.87,18.54,3.59-6.8,15.21-16.88,15.12-25.01-3.62,1.28-4.19,4.99-7.8,3.79-.08-.23,18.19-27.57,12.2-23.31-6.15,4.38-.26,9.56-16.56,10.88,8.26-7.95,14.32-15.76,19.88-24.71l4.34-6.98c3.88-6.24,9-11.17,13.43-16.5l1.61,2c-3.96,12.28-7.65,24.74-11.08,37.38,3.56-7.8,6.59-9.87,9.09-6.22-.27,3.27-1.58,5.88-3.94,7.82Z"/>
      <path class="cls-129" d="M117.41,257.19c1.15-1.58,1.87-1.21,1.55.74.24,1.28.5,2.75.76,4.39l.5.8c.85-3.58,2.49-6.53,4.93-8.83,2.39,1.89,3.5,4.97,3.34,9.21,1.05-1.25,3.07-1.59,4.18-.3.75.88.52,20.32.43,23.08,0,.27-.54.52-1.22.77l-2.04,2.67c-7.36,1.64-14.59,3.7-21.69,6.18l-3.2-.77c-1.72-1.24-1.04-1.54.86-2.06,1.53-.37,2.87-1.87,4.6-2.82,2.01-1.1,1.49-4.39.38-5.66-1.4-1.6-3.67,0-6.36-.15.39-2.49,3.26-2.57,4.7-4.63.28-11.61.01-23.13,3.55-34.23.87-2.73,1.5-5.1.52-7.62,2.18-.93,3.24-3.16,4.29-5.63l9.03-21.17c1.51-3.55,2.18-6.9,3.18-10.12-.78-1.77,3.25-13.26,4.11-13.4,2.21-.35,3.55,2.55,2.97,4.56-3.88,15.19-9.33,29.9-16.36,44.12-3.11,7.56-5.47,15.47-6.23,23.63l3.21-2.75Z"/>
      <path class="cls-140" d="M133.85,76.09c-2.86-3.48-8.27,11.69-20.01,7.37,5.9-2.76,11.5-4.64,15.79-8.86,2.85-2.81,6.2-4.77,8.57-7.61-4.8,9.85.14,4.94-4.35,9.1Z"/>
      <g>
        <path class="cls-169" d="M215.05,12.81c1.48,1.94.58,3.14-2.71,3.58l-.35,1.5c8.66-.18,9.12,4.83,9.01,12.15,1.65-2.93,10.04-.55,7.05,3.08-.67,1.92-2.41,2.94-5.23,3.06l-.89,4.15c-4.23,2.69-5.83,6.13-4.81,10.31-1.15,3.97-4.37,5.65-9.65,5.04.51,4.37-.43,7.3-4.86,8.82.21,6.05-4.3,10.45-9.09,13.35.77,8.31-5.04,9.95-12.07,9.94-2.23,2.96-5.63,4.46-10.2,4.48-1.77,4.4-3.77,7.66-8.48,9.3-.21,12.67-10.97,19.92-20.57,26.26l-2.25-.85-1.3-.09c-4.97,5.24-9.78,10.67-14.44,16.29l-2.2-.13c-.09.54-.22,1.05-.5,1.45-1.68,2.37-22.89,8.92-25.75,7.74-1.73-.71-1.72-1.46-1.01-3.01.3-.66,9.63-8.93,10.72-9.61l2.51.27c-.76-1.07-.49-2.32.83-3.76.62-6.13,1.92-12.11,3.9-17.95-1.14.9-3.85,2.39-5.47,3.23-3.97,2.07-4.25-.89-3.29-4.34l19.35-31.87c3.26-3.69,6.77-6.73,10.55-9.13-.29-2.9,1.16-5.94,4.35-9.1v-2.07c4.22-3.62,7.9-7.57,11.06-11.84,3.14-.73,4.07-1.77,2.81-3.12-2.9,1.08-10.97,1.05-6.19-1.85.02-.58.09-1.14.34-1.6.97-1.8,31.98-18.64,35.78-19.62,1.62-.68,2.95-.63,4,.16,2.2-.75,4.61-1.5,6.88-2.04,3.24-1.26,4.51-2.69,3.8-4.3l1.47-1.8c.52-2.61,1.9-2.31,2.6.08.9,1.26,2.52,1.56,2.18-.19-.9-.93-2.28-1.69-4.15-2.29l.22-1.57c5.23-1.16,10.66-2.1,16.05-2.14Z"/>
        <g>
          <path class="cls-23" d="M185.99,27.05c-10.91,3.7-28.13,16.02-40.12,21.06-.73,1.71-2.23,2.69-4.49,2.96-1.02-.33-1.95-1.01-2.39-2,.82-1.65,2.82-2.35,4.81-3.24,4.09-1.82,7.83-4.08,11.52-6.51,1.32-.87.52-3.29.41-4.6-.23-2.67-7.98-1.86-4.46-5.39,3.89-3.89,8.77-2.36,13.53-2.37,5.92-.02,26.09-3.72,21.18.09Z"/>
          <g>
            <path class="cls-171" d="M199,14.96c2.16,2.41,5.5,0,8.61,1.87-1.7,2.03-3.9.21-4.68,1.98,0,1.65-1.65,1.72-2.18.19l-2.6-.08c-2.06-.06-4.2-.36-6.23.06,1.9-2.29,4.33-3.42,7.08-4.03Z"/>
            <path class="cls-172" d="M138.2,66.99c-1.47,2.51-3.13,4.85-4.97,7.02l.62,2.08c-4.78,4.42-8.79,9.63-12.33,15.54l-17.17,28.67c11.65-1.22,18.51-25.13,30.87-31.72-2.5,6.98-8.42,10.68-12.23,16.36-6.27,9.35-12.07,18.48-12.92,30.31l11.6-14.55c.67-.84,1.88-.58,2.03-.04.7,2.48-13.55,16.96-15.72,19.26-2.31,1.76-3,1.77-3.67-1.16l2.78-12.63c-2.02,1.53-4,2.15-5.94,1.84-1.45,2.18-4.7,5.31-7.53,3.26-3.25-2.35-.87-7.7,2.22-8.81,1.24.6,1.61,1.4,2.98,1.63,1.35-2.04,3.57-4.3,3.38-6.84-.88-12.11-5.62-7.48-5.35-10.79.11-1.34-.2-3.42,1.47-4.01,2.24-.78.53-3.42,1.38-4.13l10.34-8.59c-1.82-4.18-5.81.72-8.53-1.72-1.25-1.12-1.82-2.75-1.27-4.66.58-2.03,2.34-2.46,3.68-2.97,2.08-.79,3.51.51,5.55,1.53,2.07,1.03,3.59-1.51,4.22-2.82,2.03-4.19-3.86-5.87-2.6-10.21.17-.58,6.53-7.95,10.14-4.99,2.1,1.72,2.11,4.82,2.69,7.46,1.92-.57,4.12-1.99,5.2-3.98,2.1-3.84,5.95-3.61,9.52-5.07,3.64-1.49,6.09-6.02,9.29-8.2-.16-1.31-1.31-2.05-1.7-2.65,1.49-.74,3.43-1.22,5.82-1.44,1.4-.03,3.02-.46,4.48.51-1.16,2.35-4.16,2.48-6.01,4.14-4.5,4.04-8.7,8.02-12.34,12.38Z"/>
            <path class="cls-138" d="M107.98,139.9c-3.59,3.8-6.88,6.96-12.72,10.78,10.11.19,18.04-4.31,26.74-7.62.72,2.6-.99,4.13-2.23,5.92-.27-4.53-.98.56-10.52,2.24-5.93,1.04-11.47,3.27-17.13,2.67.68-.46.69-1.98,1.01-2.64.45-.93-.72-2.53-1.88-2.08-.4-2.35.96-4.82,3.73-4.97,3.18-.18,2.26-3.41,3.34-5.01,2.55-3.77,3.3-6.98,2.82-11.25,2.71-4.06,4.46-1.31,9.59-8.06l-4.25,17.74c-.2.85-.56,1.82.26,2.27.29.16.81.06,1.21.01Z"/>
            <path class="cls-8" d="M143.03,102.99c-.45,1.27-1.89,2.87-3.29,2.25-4.54.92-5.52,6.33-10.56,8.68-.63-6.06,20.99-21.18,22.72-18.4,1.87,3.01-7.14,3.64-8.87,7.47Z"/>
            <path class="cls-74" d="M147,71.72c-.83.77-1.4-2.1-.37-3.05,1.51-1.39,16.66-17.15,17.03-12.96.04.47-.24,1.71-.88,2.14-5.84,3.94-10.22,8.72-15.78,13.87Z"/>
            <path class="cls-153" d="M145.87,48.11c.01.44-.18.79-.43,1.39,2.44.09,4.48.51,6.62.46-1.34,1.56-3.85,1.4-5.82,1.44-1.61.03-3.33.17-4.86-.33.63-1.96,2.47-3,4.49-2.96Z"/>
            <path class="cls-91" d="M143.03,102.99c1.26-.13.95.73.4,1.12-1.62,1.18-.39,2.61-3.64,2.6-.52,0-.76-.64-.04-1.48.95-1.62,2.33-1.9,3.29-2.25Z"/>
            <path class="cls-91" d="M202.92,18.81l4.14.37c-.92,2.31-2.81,1.77-5.07,1.89-1.27.07-2.2-.27-1.75-1.18.16-.32.04-.58.49-.89l2.18-.19Z"/>
          </g>
        </g>
      </g>
      <path class="cls-63" d="M383.93,103.97c-2.15-.39-6.97-6.54-4.4-8.14,1.61-4.73-1.79-7.04-.47-8.65,2.32,2.39,4.52,5.15,6.28,8.49,3.88,7.32,8.66,13.18,13.66,20.17-6.52-2.35-11.91-6.62-15.07-11.87Z"/>
      <g>
        <path class="cls-101" d="M218.92,12.84c2.61-.54,5.53-.61,8.08.16,4,1.25,8.07,1.87,12.06.2,1.87-.94,4.98-.92,7.03-.3,1.41,0,2.83.28,3.95.94l.42,1.16s3.38.75,10.14,2.25c3.32,2.8,6.51,4.04,9.57,3.73,2.12-.32,6.03.8,7.82-.88,2.31.13,4.75-.11,7.32-.72l-.39-1.56c6.19-2.96,12.89-1.24,19.16-.96.36,1.51.05,1.71-1.23,1.28-1.89-.63,4.73.91,5.93,2.17,7.2-1.7,12.88-.34,17.02,4.11,1.71-.79,3.41.45,3.19,2.55-1.11,2.59-.44,3.85,2,3.77,2.57-2,11.71.54,14.6,2.47.34.22.41.84.41,1.58,3.55,1.37,7.33,3.08,10.54,5.72l11.46,9.44c5.24,4.31,9.54,9.04,15.19,12.62l-5.24.19c-1.37,1.18-2.16,1.11-3.56.52-2.18-.92-6.85-4.93-7.37-7.12-1.38-.64-2.48-1.13-2.1.59,6.28,2.56,10.84,7.9,15.09,12.94,5.57,6.62,11.25,14.68,16.1,21.84.21.31.02.89-.29,1.55.56.94.5,1.74.35,2.66-.49.46-.95.79-1.29.7s-5.75-2.42-6.15-2.63c-4.02-2.09-6.4-4.58-8.96-8.26l-.7,1.63c3.27,5.08,3.43,7.97.47,8.65-1.94,1.58-3.74-.65-2.56-2.64-.95-.85-1.64-.84-2.18.53-11.59.78-15.03-5.38-16.19-15.9-1.03-2.83-1.83-5.64-2.4-8.41l-2.21-.57c-7.52-7.82-15.58-15.17-24.98-20.69l-1.03-2.03c-1.63-.63-2.53.22-1.74,1.82.82-.31,1.56-.49,2.05-.22,6.47,3.6,14.61,9.61,19.59,15.05.38.42.35,1.21.21,2.11.24,3.14-4.54,10.43-8.05,8.66-5.47-6.42-11.16-12.64-17.07-18.65-6.54-.99-10.99-3.55-13.33-7.68-.77-11.92-8.89-13.21-18.8-10-7.98.04-16-.04-24.05-.26-1.92-.83-3.62-2.09-5.08-3.79-4.29-1.12-8.67-1.84-13.15-2.15-2.68-2.8-5.67-2.57-8.98.69l-4.39,1.51c-1.83,3.65-8.57,5.09-7.15-.06-1.06-2.9-4.53-1.69-7.05-3.08.06-7.43-.45-12.48-9.01-12.15-.39-.7-2.85-1.45-1.61-2.71,1.37-1.12,4.25-.32,4.68-2.37,1.28,0,2.59-.07,3.87.03Z"/>
        <g>
          <path class="cls-31" d="M270.17,21c-.15.74-.49,1.49-.99,1.75-.93.49-2.51.54-3.44-.32-8.02-7.42-9.8-3.06-16.72-7.92-.08-.58.67-.57,1.02-.66,8-.29,13.44,3.28,20.14,7.15Z"/>
          <path class="cls-31" d="M284.92,17.83c1.31.42,2.88-.32,4.49.78-.92,3.02-12.2,4.03-11.41,1.51,2.09-1.96,4.71-1.23,6.92-2.29Z"/>
          <path class="cls-91" d="M246.09,12.91c-2.32.01-4.72.44-7.03.3-3.86,1.7-8.13,1.11-12.06-.2-2.7.04-5.39.04-8.08-.16-.45-.67.34-.82,1.12-.82l24.92.02c.75,0,1.56.26,1.13.86Z"/>
          <path class="cls-51" d="M367.02,56.15c3.26,2.95,6.89,4.96,10.93,6.6,1.5.61,3.44,2.05,5.05,3.02-.52,1.05-2.17,1.1-2.43,1.84-.23.68.62,1.01,1.11,1.71l16.64,23.52c-.42.96-2.18.85-2.52.24-2.72-4.55-6.41-8.53-9.63-13.18-6.19-8.94-13.59-16.07-21.27-23.16-2.64-2.6-.35-2.07,2.1-.59Z"/>
          <path class="cls-151" d="M333.07,28.03c5.16,1.54,10.86,1.4,15.03,5.04-1.08-.05-1.99.62-2.1,1.72-4.47-1.72-10.45-3.27-15-4.04-4.92-.71-2.34-4.81,2.07-2.72Z"/>
          <path class="cls-91" d="M220.99,30.05c-2.17-1.2.86-9.8-5.05-10.83-1.72-.3-3.33-.2-3.96-1.33,1.42.26,3.9-1.21,5.44-.33,4.65,2.68,5.08,8.02,3.57,12.48Z"/>
          <path class="cls-16" d="M327.98,46.12c10.64,6.19,19.97,14.22,28.22,23.29.25,1.2,1.64,2.37-.4,3.95-2.18-3.91-5.32-5.89-7.71-8.48-6.36-6.88-13.73-12.3-21.85-16.94-2.07-2.74-.45-4.7,1.74-1.82Z"/>
          <path class="cls-155" d="M368.72,67.06c-3.39-4.47-8.08-6.85-12.59-9.88-.36-.24.37-2.07.53-1.78-.82-1.57,18.9,10.61,13.83,12.39-.44.15-1.29-.1-1.77-.73Z"/>
          <path class="cls-103" d="M367.02,56.15c-.37-.12-.82-.1-1.55-.14-.4-.03-1.19-.11-.55.73-2.25-2.08-7.24-1.58-8.1-6.26,4.01.79,7.48,3.21,10.2,5.67Z"/>
          <path class="cls-31" d="M239.06,13.2c-2.95,3.62-8.59,2.46-12.06-.2,4.03-.05,8.04-.03,12.06.2Z"/>
          <path class="cls-91" d="M327.98,46.12c-.35-.03-.94-.21-1.31.02-.58.35-.5,1.23-.42,1.8-1.35-.77-1.92-2.59-3.26-3.48,1.45-1.05,2.89-1.69,3.88-.93.58.45.45,2.19,1.11,2.59Z"/>
          <path class="cls-91" d="M333.07,28.03c-1.1.3-3.79-.99-4.1,1.05-.11.77,1.66,1.38,2.03,1.67-1.34.4-3.26.79-3.04-1.21.1-.91-.37-2.5,1.04-2.57,1.64-.56,2.77.67,4.07,1.06Z"/>
          <circle class="cls-91" cx="331.89" cy="44" r="1.59"/>
        </g>
      </g>
      <path class="cls-110" d="M359.06,198.95c.51,11.29-3.93,20.61-10.51,29.67.14,6.22-.37,12.38-1.53,18.49l4.26-15.74c1.81-2.01,2.74-2.8,4.62-.75l13.88,39.94c-.44-13.3-1.26-26.59-2.47-39.88,1.19-5.41,4.64-4.13,6.32.62l2.1,25.52c2.2-9.82,2.25-19.97,1.77-29.96.42-2.5,1.77-2.84,4.09-2.54,2.97.39,11.26,19.56,11.11,23.66.8.91,1.52,1.08,2.31,0l-.94-.8c.35-10.76-1.2-20.88-4.64-30.36-5.67-7.04-9.5-14.58-11.48-22.65l-1.88-6.08c-.56-2.41-.03-3.43,1.57-3.06,4.75,10.43,10.37,20.35,16.86,29.75.32,1.16-2.61-1.41.64.07.59.27,6.92,10.27,6.98,10.91.15,1.85-.53,1.65-1.86.21.93,1.7.28,2.12-1.27.88l-.79.58c1.1,9.8,2.08,22.34-.85,31.64l.39,1.94c2.55,5.76-4.32,11.13-5.42,3.31-.25-1.76-.23-2.57,1.73-3.3-2.51-2.7-4.25-5.98-5.24-9.85-4.5-12.71-6.22-12.98-5.14-.79.35,4.45-.8,7.27-3.46,8.45,2.98,1.23-.17,10.16-3.23,10.03-2.41-1.7-3.7,20.85-4.34,23.62-1.9,4.8-4.35-15.86-6.07-16.72-1.78,4-.18,7.58-3.75,10.36-.11-2.08-.29-4.53.31-6.19l-.87-3.46c1.44-4.96.53-10.07-2.71-15.32l-2.76.83c-1.76,1.29-2.01.27-.75-3.08-.69-2.23-.57-4.87.36-7.92l-1.93-5.91c-3.06,8.07-6.82,15.69-11.27,22.87l.08,1.39c-2.1.68-3.53,1.92-4.27,3.71,2.54,2.42.4,5.82-2.94,4.99l-.37,1.34c2.47,1.16,1.65,4.65-1.29,4.74l.29,4.26c-6.66,15.75-15.57,30.39-26.36,43.5-.27,4-1.35,7.37-3.25,10.1-1.19.39-2.79-.41-3.78-.96-3.12-2.84-3.48-.96-.06,1.08,2.86,2.2-13.71,4.31-18.83,6.45-1.46.07-1.34-.04-.2-.92l1.05-3.33c21.04-13.48,30.82-30.22,42.29-51.33.59-1.08,1.22-1.85,2.6-1.96l.48-4.23c6.18-15.7,12.56-32.33,12.56-49.08-2.1,3.24-4.46,5.05-7.07,5.44-1.22,3.1-8.93,12.62-12.03,12.56-2.06-.04-2.81-1.16-3.02-3.17,8.99-12.79,13.71-27.39,16.31-42.82l2.54-2.67c.21-4.08.7-7.89,1.46-11.45.72,1.01,1,2.18.85,3.52.51.55.98,1.12,1.34,1.75,3.02,5.35-3.56,26.13-5.71,32.73-.18.74,1,1.3,1.99,1.32,10.87-11.83,18.07-26.03,20.33-42.47.34-2.5.66-4.93,2.66-6.48.45,4.8-.31,9.04-1.74,13.03Z"/>
      <path class="cls-127" d="M404.85,181.83c2.41-2.38,4.2,1.64,4.04,4.15.79.24,1.13-.16,1.11-1.07-1.84.08-3.14-3.09-.87-3.86.14-.78-.66-1.5.17-3.13.75.76.78,1.81,1.66,2.16.98,3.86,3.67,7.5,4.1,11.86.41,4.17,4.15,6.68,2.38,11.67-2.21-4.52-4.65-7.81-7.68-11.31l-10.3-11.88c-2.28-2.63-4.51-5.17-7.77-7.09,4.41,17.02,10.54,24.73,14.9,39.33,1.78,5.94,3.57,12.09,4.59,18.72.97,6.28,1.84,12.13,4.42,18.02.44,1-.19,2.38-.74,3-.33.37-1.08.51-1.71.6l-2.23-.44c-1.35-7.94-5.28-15.13-11.79-21.55l-.16-4.15,1.27-.88c2.42-.37,3.8,1.25,3.85,3.92,3.25,1.47,4.15,1.48,2.72.02,1.58-.62,1.52-1.66,1.11-3.04l-1.67-1.84c-7.05-18.23-13.82-36.37-20.3-54.41l1.38-2.65c-.54-3.41.04-5.24,1.75-5.49,5.36,6.35,10.62,12.79,15.77,19.32Z"/>
      <path class="cls-143" d="M411.98,159.84l4.15,3.94c-3.45-.36-5.79-2.02-8.07-3.61-8.93-3.72-14.54-12.4-18.09-21.02l-9.04-15.84c-1.88-.68-6.07-4.37-3.99-6.22,1.2-.79,2.45.06,3.65.14,1.69.11,1.11,1.82,1.88,2.76,2.32-2.29,2.82-4.65,4.69-6.08,2.04,3.65,4.14,7.53,5.86,11.79l6.63,16.45c2.83,7.02,7.17,12.78,12.33,17.68Z"/>
      <path class="cls-44" d="M388.67,144.77c.81,2.41,1.16,4.45,2.72,6.96l10.26,16.49,7.47,12.83.87,3.86c.29,1.04-.08,1.4-1.11,1.07-1.46-1.12-2.39-3.27-4.04-4.15-5.08-6.27-10.1-12.57-15.06-18.9-2.39-.24-4.22-4.51-2.16-6.13,3.31-10.14-4.14-10.6,1.06-12.04Z"/>
      <path class="cls-71" d="M408.07,160.17c-4.08-.72-8.39-2.37-11.76-5.37-.61-.54-7.52-14.55-6.33-15.65,2.1,3.67,14.72,18.66,18.09,21.02Z"/>
      <path class="cls-1" d="M144.27,173.07c1.83,4.92.92,11.97-.08,17.27.01.24.02.55-.06.77-.84,2.87-1.19,6.03-1.06,9.49l-8.54,23.73c-2.02,1.6-3.24,3.53-3.64,5.79l.08,2.68c-4.18,7.42-8.02,15.01-11.52,22.76l-2.05,1.63c-2.04,4.92-3.51,9.95-5.01,15.93-1.83-13.75,1.62-27.25,7.32-40.26,2.65-6.06,18.57-40.73,14.44-44.15-1.06,4.91-3.25,8.45-4.46,12.33-.39-.08-.73-.13-.95-.32-.57-.51-.33-1.32-.05-2.15,3.14-9.47,3.8-19.06,5.16-28.51.68-.61,1.57-2.57,2.92-1.72.69.44-.33,2.76.78,3.16,1.17.42,6.87-1.38,6.71,1.57Z"/>
      <path class="cls-96" d="M134.86,247.94c.5.34.95.74,1.34,1.21.44,2.13.36,4.65-.23,7.56-.7,12.87-.07,25.72,1.89,38.53l-1.79,1.66c.05,2.79-.53,3.47-1.76,2.03l-2.44-11.87c-1.15-5.62,1.27-25.74-1.46-22.87-1.84,1.95.13,6.18-2.14,9.46-1.86-1.53-.88-3.62-1.17-5.69l-1.78-12.58c-2.65,3.07-3.4,6.35-5.18,9.95-1.94-.78-.93-2.17-.42-3.02-2.11.57,12.64-26.24,14.64-22.54-3.85,6.48-7.47,11.8-4.38,18.07,1.54-3.96,3.32-6.85,4.88-9.9Z"/>
      <path class="cls-174" d="M118.95,257.92l-1.55-.74c3.85-9.29,8.75-18.18,13.49-27.07.86-1.62,2.35-4.17,5.39-4.07-3.63,7.52-7.65,14.24-11.84,21.22-2.2,3.67-2.36,8.1-5.5,10.66Z"/>
      <path class="cls-29" d="M377.16,194.92c7.92,14.42,13.48,29.49,16.67,45.23l.14,6.5c.27-.15.61.29,1.03,1.34.15,1.63.99,3.99-1.54,5.69,1.39-.71-14.65-37.49-13.97-25.61.78,13.56-.08,26.87-4.96,40.22l-2.25-31.38c-.23-3.24-.13-6.77-3.17-8.73,1.25,18.22,3.26,35.54,2.56,54.2-2.83-5.28-3.32-11.01-5.58-16.54-5.54-13.56-6.97-21.76-12.23-35.39-2.85,5.93-2.98,11.66-5,17.41l-9.07,19.23c3.92-13.1,7.07-25.43,6.87-38.98,4.97-7.62,9.5-15.4,11.02-24.33.36-2.13.84-3.36,1.36-4.82-.18,2.11,2.59,16.31,4.27,18.68,3.77-13.3,5.64-26.8,4.82-41.54,3.43,3.28,5.11,15.79,9.01,18.83Z"/>
      <path class="cls-114" d="M165.87,186c1.01,2.95.69,4.62-.96,5-3.7,19.23-3.92,38.42,1.04,58-3.45-5.42-8.46-17.68-10.3-24.09-.58-2.03.89-4.66-.37-7.02-1.79-3.35-.83-7.06-1.34-10.14,2.01-3.07,1.51-6.88,2-10.88,1.74-14.22,10.41-46.35,22.25-53.83l1.23.65c-1.7,11.56-4.61,21.4-9.69,31.83-.69,4.1-1.97,7.58-3.84,10.46Z"/>
      <path class="cls-136" d="M383.99,179.14l2.54.98c2.46,3.78,16.43,31.36,15.7,33.37-.18.49-.59.89-1.07,1.26l-1.96.02c2.22,3.99,3.86,8.04,4.91,12.18,2.46.31,2.69,3.2-.02,2.96-.66-1.78-2.69-2.67-3.85-3.92,4.44,4.68-9.79-15.27-6.33-10.84-7.13-9.11-12.59-18.68-16.93-28.98-1.09.87-.86,1.54-.93,1.94-2.15-6.95-2.64-14.28-3.35-21.97-.25-2.67-2.67-4.91-1.29-8.12,2.36,4.8,5.55,9.1,8.54,13.92,1.54,2.49,1.85,5.6,4.04,7.2Z"/>
      <path class="cls-118" d="M234.12,116.93c-.01.44-.27.87-.25,1.31-5.17,4.24-9.43,9.15-12.78,14.73-5.59,5.84-8.82,13.6-12.88,20.97-3.15,5.72-5.3,11.32-6.43,17.77-.08.44-1.05,1.31-1.35,1.21-.61-.21-.6-1.25-.65-1.75-.27-4.42-.25-8.73.07-12.94,2.85-11.22,6.91-21.91,12.18-32.07,1.16-1.41,1.05-4.55,4.2-4.91,3.01-.34,7.33.83,9.95-1.07,2.59-1.88,4.77-3.59,7.93-3.26Z"/>
      <path class="cls-66" d="M188,158c.25,1.11-.7,2.38.7,4.1,1.3-7.57,12.71-27.19,19.39-31.13.67.93.79,1.87.38,2.87-3.75,9.16-7.22,18.09-9.94,27.65-5.06,7.63-8.84,15.99-11.36,25.09-1.12,2.3-1.58,1.8-2.95-.66-.84-1.5,1.17-25.39,2.58-27.63.16-.25.64-.3,1.21-.29Z"/>
      <path class="cls-130" d="M385.12,160.14c2.99-.02,3.73,2.6,2.22,7.86.91,3.89,2.34,7.52,3.86,11.67l4.84,13.19c4.24,11.57,8.79,22.53,11.89,34.03.93,6.6-3.09,2.16-3-1.98-2.11-1.59-3.79-5.43-4.98-8.15-.28-.65.48-1.46,1.22-2-2.48-11.17-13.21-24.92-17.18-35.61-.57-1.55.39-3.2.54-4.98.19-2.19-3.67-1.91-4.38-3.59-.97-2.27,3.04-3.5,4.65-4.3-.68-1.62-1.28-2.6-1.43-3.81s.82-1.74,1.75-2.33Z"/>
      <path class="cls-14" d="M395,247.99c-.39,0-1.1.19-1.44-.09-.31-.25-.63-1.14-.55-1.79.79-6.17-1.79-10.98-3.63-16.35-2.76-8.08-4.9-15.86-8.59-23.55-1.81-3.77-3.39-7.54-3.64-11.31l.78-.73c2.68,8.63,10.01,15.18,14.16,23.4,4.67,9.24,2,20.74,2.91,30.41Z"/>
      <path class="cls-26" d="M199.78,171.17c-.12-1.35-.62-2.84-.91-4.17-2.35,1.06-.27-4.38-.34-4.12-2.1,7.7-4.73,15.08-7.63,22.54-.43,3.5-1.6,6-3.53,7.51-3.74-2.42.74-3.72-3.31-6.07-.04,3.06.7,5.35-.31,8.04-.64.47-2,.05-1.74-.9,1.66-4.15.49-36.38,5.75-39.06.58,1.31.08,2.26.25,3.06-2.28,6.53-2.88,20.19-2.4,29.57,3.04-11.82,8.95-21.49,13.45-32.2,3.47-8.24,4.92-16.93,9.03-24.39l3.95-4.8c3.46-.1-3.96,11.5-4.15,11.89-7.23,14.35-5.03,19.64-8.1,33.12Z"/>
      <path class="cls-30" d="M333.07,176.04l1.4,10.01c1.91-3.54.2-7.53,2.61-10.01l1.02.43c-.37,2.24-.01,4.09,1.09,5.53.12,2.71.05,4.59,1.4,7.21,1.57,3.04-.43,7.05-.39,9.85-.34-.69.4-1.91-1.48-2.17,1.38,4.11-.29,7.21-.82,10.1-2.1-1.72-2.69-4.5-1.79-8.35-.3,1.99-.66,3.31-3,3.39l-1.63.4c.3-4.21.12-8.36-.54-12.46-3.66,1.29-4.8-6.21-2.07-8.11.94-.99,2.63-2.3,2.23-3.88.27,1.05-4.98-15.92-.85-11.03,1.06,3.22,2.4,6.1,2.81,9.07Z"/>
      <path class="cls-22" d="M387.62,156.8c.66,1.21.89,3.09,2.21,4.27,3.19,2.84,14.36,16.99,15.02,20.75-4.05-2.16-5.78-6.93-9.81-9.74-2.99-2.08-5.2-4.17-6.27-8.36-1.51,1.42-.67,2.98-1.43,4.26-.62-2.67-.82-5.46-2.22-7.86.47-.64-.6-2.91.4-3.85.45-.42,1.43.04,2.11.51Z"/>
      <path class="cls-125" d="M356,258.9c-1.95,7.4-5.87,20.32-13.69,22.83-3.73,1.2-8.25,1.04-6.28-3.71,1.18-1.51,2.59-2.99,2.94-4.99,1.04-2.33,3.05-3.79,6.04-4.37l-1.85-.73c3.62-9.57,7.96-18.68,11-28.72,3.34,8,5.75,12.31,1.84,19.69Z"/>
      <path class="cls-24" d="M394.02,261.03c-1.17-1.26-2.79-1.95-4.99-2l-8.85-.2c2.58-8,1.02-16.73,2-26.15,4.68,10.23,9.84,18.44,11.84,28.35Z"/>
      <path class="cls-41" d="M356.76,261.98c-5.14,12.79-7.97,23.59-22.39,22.12.86-1.95.32-4.35,1.66-6.08.13.4-.3,1.27,0,1.85.18.34,8.12,1.36,10.14-1.73,4.09-6.26,6.53-13.02,9.83-19.25.14.94-.55,2.86.75,3.08Z"/>
      <path class="cls-49" d="M338.97,273.04c.32-1.83,2.15-4.46,4.19-5.1,6.51-2.05,6.56-14.73,11.59-16.91-1.45,6.74-3.71,14.26-8.91,18.81-1.66,1.45-5.89.11-6.87,3.2Z"/>
      <g>
        <path class="cls-152" d="M153.93,207.75c2.04.61,2.83,2.9,2.36,6.88-.03.29,3.76,21.13,4.77,19.54-1.25-13.04-1.35-26.46,1.14-39.38.13-.68.55-1.31,1.01-1.96s1.07-1.26,1.7-1.83c1.7-1.33,1.73.06,1.76,1.94,2.91.43,2.41,2.7-.23,3.84l1.58,2.54c-2.59,19.44-2.23,40.68,6.79,58.51-.77,4.92-5.64,3.49-5.84-.83-3.98-.62-7.47-4.92-7.24-8.94-2.47.18-3.33-1.84-2.59-6.06-.74-.32-1.38-.44-1.47-.14-.6,2.05-.3,5.92.04,8.14,1.56,1.04,2.43,5.24,1.22,6.95,2.21,9.66,4.22,19.36,6.03,29.1l1.42.32c6.2,25.28,25.14,43.85,45.01,60.24l.66,2.35.72-.71c4.16,2.97,8.42,5.63,12.78,7.97,12.8-1.81,25.57-3.86,38.32-6.14l1.11.93c5.34-1.24,10.53-2.69,15.59-4.33l1.59.94c.59.21.73.5.2.92-6.75,2.82-14.05,3.98-21.54,5.38l-31.93,5.98c-2.74.51-4.34-.45-6.29-.26-3.79.37-7.44,2.29-11.66,2.3-5.3,0-11.48.31-14.81,4.02-1.48,2.04-4.66,1.8-6.29.08-4.92,2.43-4.47-3.94,1.02-5-1.53-2.83-3.21-5.41-5.05-7.74-.77,4.64-2.64,7.24-5.6,7.8-1.94-1.03-1.96-5-.25-6.3.81-2.49,1.02-5.13.65-7.94-.14-7.51,1.67-10.01,5.44-7.5l6.99,13.21c.96-6.88-.32-12.59-3.83-17.14-15.19-15.13-25.25-32.73-31.24-53.78-6.78,1.12-12.16-1.94-13.56-8.86-.54,2.98-3.55,10.08-6.55,6.25-2.29-2.93,5.7-24.98,7.73-29.16,1.06-5.21-1.28-18.34-2.46-5.51-.17,5.26-1.03,10.24-2.56,14.95-4.6,1.49-5.84-1.68-3.74-9.49l-.66-.66c-.97.18-1.42-.22-1.34-1.21l-.68-3.08,4.44-9.79c2.21-10.54,5.52-12.8,9.93-6.79l4,15.61c.26-10.12-2.08-20.07-7-29.84-2.21-7.38-3.73-15.6-1.42-22.94-.86-.07-.8-.34.06-.77-.02-2.69.46-2.7,1.81-.35.76,10.96,2.48,22.15,7.66,32.25-.64-3.68-5.16-34.82-1.07-33.2.37.15.4,13.05,1.35,18.7Z"/>
        <g>
          <g>
            <path class="cls-163" d="M134.86,247.94c-.03,8.45-7.26,17.31-8.09,3.71-2.5,3.52-4.85,7.07-7.05,10.67-.81-.15-1.84-.9-1.48-1.59.38-.73.19-2.37.72-2.8l-.35-1.08c4.32-9.11,9.29-18.26,14.35-27.36.06-.11-.81,1.73-2.05.63-.87-2.64,1.17-4.73,2.08-7.27l9.99-27.88c.49-1.35-.7-3.97,1.16-3.86-1.42,3.81.88,7.72,1.14,11.59.71,10.68,6.01,19.12,8.63,28.83,1.94,7.19-.84,15.86,2.07,23.52-5.78-7.72-6.94-16.8-9.2-25.97-.22-.91-2.2-1.6-3.45-2.97-1.62,8.15-4.91,14.89-8.46,21.82Z"/>
            <path class="cls-137" d="M156.73,266.89c-.14,2.7,2.96,5.78,1.77,8.83-.86,2.21-5.07,1.21-6.78.28-3.51-1.91-7.69-15.55-3.96-16.08,1.47.64,2.81,2.1,4.02,4.38,2.55.45,4.2,1.31,4.95,2.58Z"/>
            <path class="cls-139" d="M155.81,263.01c.84,2.96-1.44,2.83-3.68,1.53-1.02-.59-3.2-4.06-3.79-5.23-.18-.36-.2-.8-.16-1.26.13-2.8.47-4.72,2.28-6.92,2.66,3.74,4.87,7.53,5.35,11.87Z"/>
            <path class="cls-82" d="M155.81,263.01c.18,1.63.99,2.6.92,3.88-4.7.34-8.16-2.34-8.97-6.97l.41-1.86c3.35-.31,2.3,4.83,5.44,5.68.66.18,1.86.3,2.19-.73Z"/>
            <path class="cls-84" d="M159.15,241.99c-1.21-3.39-1.42,9.14-1.42,8-1.61-.28.22-8.3-1.89-14.12,3.24,1.08,1.97,4.3,3.31,6.12Z"/>
            <g>
              <path class="cls-57" d="M278.65,345.09c.4.52.89.8,1.33,1.67-3.78-.23-6.55,2.01-9.97,2.04-2.57.02-3.51,1.36-5.02,2.19-3.07,1.7-7.23,2.07-11.12,2.74l-24.72,4.22c-4.82.82-6.98-.19-10.18-2.98l-6.91-6.02c-1.53-2.5-.6-3.43,1.91-1.92,6.87,3.03,14.04,4.67,22.05,4.02l20.42-1.66c7.84-.64,15.01-2.19,22.21-4.3Z"/>
              <path class="cls-76" d="M213.98,347.03c-.71.57-1.36,1.2-1.91,1.92-14.38-12.53-29.07-25.88-39.66-42.32-4.15-6.45-4.53-14.29-7.43-20.59-.81-2.91-.44-4.29,1.11-4.13l3.2,9.22c4.6,13.27,13.62,26.87,23.23,37.34,4.93,5.37,17.33,13.68,21.46,18.56Z"/>
              <path class="cls-84" d="M168.98,257c-2.41-.09,2.34,6.31.66,9.16-1.81-2.5-4.43-4.41-5.62-7.09-4.18-1.94-8.15-9.27-2.27-11.01,2.6,2.79,5.06,5.8,7.24,8.94Z"/>
              <path class="cls-84" d="M163.07,266.99c.97,4.89,1.38,10.17,3.02,14.91l-1.11,4.13c-4.16-9.01-5.74-18.99-6.03-29.1l1.66.24s.82,3.27,2.46,9.82Z"/>
              <path class="cls-76" d="M161.74,248.06c.15,1.62-2.51,3.67-1.37,5.44,1.92,1.96,2.79,3.63,3.64,5.56l-2.75-1.8c.24,3.66,1.99,6.45,1.81,9.73-3.72-1.6-1.48-5.92-4.12-10.05-1.24-1.95-1.22-4.71-1.22-6.95-.4-2.82-.44-6.35-.13-9.2.03-.31,1.6.15,1.55,1.2,1.3,1.76,1.14,4.46,2.59,6.06Z"/>
            </g>
          </g>
          <g>
            <path class="cls-98" d="M219.68,358.4c-5.42,2.56-22.05,5.22-21.94-5.41.04-4.44-1.35-8.37-.45-12.88,7.09,6.49,14.14,12.02,22.4,18.29Z"/>
            <path class="cls-107" d="M200.46,360.9c-.3,1.46-2.32,2.2-3.05,1.95-1.09-.36-2.14-2.34-.91-3.58.89-.89,4.19.5,3.95,1.62Z"/>
          </g>
        </g>
      </g>
      <path class="cls-21" d="M407.92,226.89c.72,2.67,2.37,5.03.49,9.91-1.47-2.21-3.33-4.22-4.32-6.89.86-.78.4-2,.02-2.96-.46-1.52-.19-2.2.81-2.04.36,1.12,2.38,1.89,2.43,4.39,1.31-.88.34-1.68.57-2.41Z"/>
      <path class="cls-4" d="M408.88,185.98c.43-.29.8-.65,1.11-1.07.46,2.06,2.23,3.9,2.78,6.32-3.65-.63-2.9-3.81-3.89-5.25Z"/>
      <path class="cls-126" d="M238.97,176.11c-1.05-.13-2.07-.46-2.94-1.08,1.3-5.4,3.2-22.93,7.45-28.89,1.09,8.21-5.52,19.06-4.51,29.96Z"/>
      <path class="cls-145" d="M233.86,118.24c.15,2.97-2.47,3.71-4.33,5.46-3.12,2.93-5.65,6.35-8.44,9.27-.42-2.04.87-3.63,2.37-5.36l6.11-7.04c1.25-1.44,2.65-2.46,4.3-2.32Z"/>
      <path class="cls-67" d="M401.16,214.75c.8,3.6,2.63,6.64,3.76,10.15-.15.73-.36,1.45-.81,2.04-4.04-7.82-9.29-14.87-14.76-22.27-2.59-3.51-17-29.35-11.9-28.73.76.09.98.1.73,1.36,5.51,13.9,12.1,27.84,22.98,37.44Z"/>
      <g>
        <path class="cls-91" d="M348.09,64.88c2.52-.77,6.87,4.6,8.05,7.1.07.14-1.89-2.48.06-2.57,4.04,4.43,5.11,9.9,6.1,16.66.5,3.41,6.74,5.7,9.62,5.7,2.26,0,4.29-.47,5.05,1.42l-.52,1.37c2.78,3.53,4.95,7.26,6.51,11.18,1.9,2.21,2.78,5.68,4.19,8.2.81,4.9-3.84,10.22-7.42,5.12l-2.8-1.96-1.06,1.21c2.09,2.02,3.21,3.88,3.37,5.58,3.26,6.9,6.98,13.62,9.42,20.88.31,1.73.18,2.7-.71,1.41,3.24,6.04,3.13,9.58-.34,10.62-.55,1.53-1.38,2.64-2.5,3.34-.28,2.33-.04,4.76.7,7.31-1,.95-2.16,1.7-3.46,2.25,4.77,1.59,5.64,7.06,1.64,9.44-2.5.5-4.42-1.56-5.76-6.2-.52-1.2-3.2-4.84-3.29-4.28-.66,4.24.76,12.27,2.09,16.56l-.97,2.89c1.59.59,3.45,4.93,1.88,6.08.24.71-.03.94-.78.73-2.22.73-3.78-.48-4.7-3.61-2.14-8.47-3.07-6.99-2.8,4.43-2.63,13.82-3.95,20.73-3.95,20.73-1.03,2.48-2.56,2.25-4.69,1.05-1.98-1.1-3.19-15.84-1.96-18.56l-.71-1.3c-2.77,11.17-9.25,29.89-18.52,36.78-.5.38-1.23.45-2.03.44-.94-.08-1.67-.46-2.12-1.24,11.28-25.5,10.33-52.03,3.24-78.74-1.57-3.99-1.83-1.43-.8,7.68.55,4.84.2,9.33-1.05,13.47-1.11,3.22-1.01,5.06.19,7.88.12.28,0,.64-.23,1.01-4.2,6.58-7.03-6.05-3.97-8.89-4.2-17.57-6.29-26.35-6.29-26.35-3.34-6.64-6.81-13.13-10.4-19.47l-1.41.82c2.77,16.78,2.97,33.16-.92,49.8-3.71,3.6-5.87-7.63-3.03-9.75-1.4-11.22-5.01-25.82-11.1-35.41l.32,4.24c-1.36.37-2.05,1.54-2.08,3.5.93,2.17.57,3.05-1.09,2.63.03,3.5-4.15,15.58-6.3,18.07-.75.87-1.26,1.18-2.29.31-1,4.68-2.05,9.38-3.16,14.11l-1.31.45c-.38,1.03-.97,1.36-1.82.82l-.31-27.46,1.07-1.45c-2.91-.37-2.15-3.95.26-4.83.38-4.44-.39-5.75-2.3-3.92l-14.16,25.89c-.97,4.23-2.57,5.89-4.8,4.98-.58-.33-1.03-.66-1.02-.99.05-4,.94-11.3,3.4-14.06-1.47-3.61-.54-7.63,2.81-12.05-.46-.13-.9-.3-1.24-.58-.66-.56,3.42-14.91,3.99-16.64.08-.24.6-.33,1.24-.38-1.1-4.5-.95-7.73.08-12.7-5.31,15.92-11.05,32.3-19.67,46.58-2.43.2-2.33-1.59-1.3-3.4l-1.08-.82c1.67-4,1.69-5.38.05-4.14-2.12,1.37-3.08,0-2.89-4.13-.03-7.33.39-14.64,1.27-21.93-6.44,15.06-11.56,30.43-15.36,46.11.36,5.87-.71,8.23-3.22,7.08-.7-.27-1.28-.58-1.45-1.03-3.53-9.9.09-32.84,2.38-43.44,1.34-6.18,2.57-10.6,4.98-16.36.74-1.77,1.17-3.21-.78-3.23-3.41,1.44-6.53,3.45-9.35,6.03l-8.64.33c-1.2,2.06-2.57,3.02-4.09,2.88.39,1.96-1.78,6.05-3.95,4.8-6.76,9.69-13.66,19.83-17.53,31.1-3.76,2.84-3.24-.9-2.55-4.07-1.14.31-1.37-.34-.68-1.95-1.8,11.44-2.7,17.16-2.7,17.16l-1.47,20.28-1.15.52c-1.69.72-2.34-.52-1.94-3.72-4.62-16.42-5.52-31.58-.2-47.72l-1.68.48c-13.7,19.3-18.82,41.79-21.92,64.63l-2.33.07c-1.35-2.71-1.53-.43-.52,6.85,2.75,11.71-1.05,9.65-4.63-1.06-2.26-6.76-4.49-17-2.78-23.54l-.97-1c-.1-5.44.07-10.86.49-16.25l-1.25.33-6.39.43c-1.46-1.26-2.8-2.41-4.02-3.45.41-2.81,1.4-5.24,2.3-8.59-2.56.32-2.3,2.62-3.23,4.28-2.05,3.64-4.82,6.43-7.25,9.97-1.34-.79-1.08-2.38-.49-3.81,3.22-7.82,4.94-15.62,7.21-23.7l2.38-8.45c1.07-3.79,2.77-7.15,3.4-10.69.59-.72,1.03-1.55,1.77-2.08l8.77-6.28c2.58-1.85,5.49-3.54,7-6.15l4.46-7.71c1.07-1.85-.26-5.22,1.33-7.24,3.49-.73,5.91-2.87,6.94-6.27,1.93-6.41,8.13-1.58,9.86-4.93,2.79-5.41,6.85-.55,11.95-4.78,1.86-1.55.79-5.2,1.5-7.09,4.84-2.75,9.69-7.04,8.74-13.1,1.5-1.38,3.65-1.46,4.35-2.45,1.05-1.49.47-4.1.77-5.71.56-3.04,6.65-.67,8.41-2.71,3.76-4.36-3.62-5.72,5.9-12.84,1.36-1.02-.06-5.14,2.73-5.47,1.79-.21,3.49-1.62,5.39-1.13.25.68,1.34,1.17,1.93,1.34.92.26,2.29-.46,2.85-1.53,1.3-2.49,4.09-1.89,6.12-3.19l5.27-3.37c1.62-1.04,3.35,2.67,5.43,2.83,21.16,1.64,12.04,4.98,17.46,5.76,4.54.65,9.34-.86,13.69.18,5.24,1.24,9.12.57,14-1.25,2.26-.84,6.02.55,8.55.65,9.34.34,5.24,13.19,11.24,15.71,3.47,1.45,8.63.88,10.78,4.41,1.87,3.08,4.04,4.42,6.7,6.4,3.93,2.93,5.01,8.7,10.15,11.47,1.55-3.39,3.32-6.02,5.88-7.65Z"/>
        <g>
          <path class="cls-166" d="M376.98,93.19c.48,1.2,1.45,2.14,2.56,2.64.61,2.97,2.84,5.55,4.4,8.14-.7-.44-.87-.15-.88.48,0,.5-.14.92-.09,1.29-.53-.61-12.43-14.77-5.99-12.54Z"/>
          <path class="cls-161" d="M376.94,117.1c1,2.24,2.77,4.09,3.99,6.22l-1.67.58c-1.11-2.16-5.39-3.38-5.06-7,.12-1.36,2.15.19,2.75.21Z"/>
          <path class="cls-117" d="M249.18,153.87c-4.35,11.81-5.87,26.26-8.88,38.3-.08-5.92-.85-10.95-1.32-16.06-1.08-1.43-2.07-1.79-2.94-1.08-1.49,6.21-3.57,11.9-2.22,19.17-2.69-4.32-3.8-8.71-4.82-13.21.62.11,1.23-1,1.09-1.88-.76-4.75.96-8.35,2.31-12.55,1.19-3.73,1.23-7.65,3-11.29,1.8-3.69,1.89-7.92,3.42-11.62,3.42-8.23,6.07-16.34,11.08-24.3.15,12.31-2.73,22.79-1.27,33.97.17.25.42.42.55.54Z"/>
          <path class="cls-124" d="M337.81,234.87c-2.36,2.56-4.29,5.57-7.71,8.05,6.12-14.47,10.33-28.84,10.09-43.85l-1.58-13.3c-2.32-.89-1.45-2.49.57-3.76-.59-.43-1.05-.87-1.08-1.33-.4-7.37-.55-16.96-.32-24.32.02-.5.51-.98,1.14-1.46,4.66,7.33,5.84,20.19,7.13,30.13,1.4,10.77.8,21-2.98,31.15-1.62,4.35-1.28,9.24-3.6,13.41-.99,1.77-2.39,3.56-1.67,5.3Z"/>
          <path class="cls-146" d="M271.11,128.35c-1.42-.11-1.17-1.05-.68-2.18-1.77,9.54-4.18,17.96-8.97,26.08,1.76.91,1.54,1.71-.39,1.63-2.72-.23-2.32,2.77-3.13,4.9-4.31,11.26-8.97,21.49-14.16,32.87.24-9.33,2.82-17.51,4.12-26.6.36-2.49.79-4.82,2.31-6.21.41.55-.78,1.45.61,2.34,8.16-18.74,17.42-37.14,21.33-58.45,3.87.83-.51,23.3-1.04,25.63Z"/>
          <path class="cls-75" d="M333.07,176.04c-1.4-1.25-1.73-.86-1,1.16l-.96.79c-3.37-1.85-4.68-13.88-10.06-21.09-2.57-3.44-3.04-5.3-3.02-10.04.02-5.63-2.51-11.27-1.64-16.65,2.22.52,2.76,2.48,4.23,4.32,9.84,12.34,11.86,26.56,12.47,41.5Z"/>
          <path class="cls-168" d="M283.2,146.08c-.81-1.16-.56-2.34-.66-4.15-5.31,12.49-12.78,26.38-20.27,38.18-.71-2.55-.99-5.03-.35-7.08,1.93-1.14,1.84-3.77,3.02-5.89l7.77-13.88c3.45-6.16,7.46-11.46,10.11-18.99,2.42,4.41,1.29,8.36.36,11.8Z"/>
          <path class="cls-2" d="M311.02,171.1c-2.72-12.35-5.72-19.18-11.6-31.09-.26,1.55-1.36,3.33-.93,4.19,1.79,1.27,2.03,2.39,2.57,3.72-.66,2.02-.87,2.12-2.85,1.08-.03-1.08-.29-2.21-1.14-2.94,2.53-5.97.37-12.46-1.09-19.25,5.45,5.57,7.92,12.48,10.83,19.44,3.33,7.96,4.4,16.6,4.21,24.85Z"/>
          <path class="cls-110" d="M338.93,154.89c1.14,8.99-.14,18.1.25,27.11-.69.07-1.1.69-2.11,1.02v-6.98c.03-13.43-.46-26.8-3.62-40.36-.63-2.71-1.18-5.52.31-7.91,2.71,9.41,4.04,18.23,5.16,27.12Z"/>
          <path class="cls-52" d="M271.11,128.35l-3.99,17.6c-1.33,4.79-3.22,6.89-5.65,6.3-1.91-1.72.71-4.05,1.77-6.11,3.32-6.46,4.08-13.62,6.51-20.8,1.45-.59,1.46,2.01,1.37,3.02Z"/>
          <path class="cls-13" d="M146,190l-1.81.35c-.32-5.74-.07-11.52.08-17.27.05-1.88,1.16-4.13,1.6-6.8,2.29,5.22-.62,12.92.13,23.72Z"/>
          <path class="cls-121" d="M264.3,158c-.37-.4.16-1.19-1-2.05-.11,2.37-2.21,4.85-2.51,7.09-.72-.88-1.25-1.87-1.57-2.98.23-1.91,2.83-3.85,1.84-6.19-.18-.43.51-1.15.39-1.63l5.65-6.3c-.93,4.08-1.3,8.12-2.81,12.05Z"/>
          <rect class="cls-61" x="370.95" y="138.12" width="2.56" height="9.72" transform="translate(-25.17 110.31) rotate(-16.31)"/>
          <g>
            <path class="cls-152" d="M182,194l1.11-.35.5-7.97c1.15,1.11,2.3,1.62,3.45,1.52-.6,2.09-.5,4,.3,5.74,1.49-2.26,4.52-2.13,4.56.94,1.38-2.14,6.72-1.61,7.07,1.12l10.87,3.36c1.55,4.66-1.78,4.72-9.99.18-5.36-2.63-9.94-2.81-13.73-.55,2.71.29,2.82.84.4,2.1,3.64,2.05-3.06,4.41-2.72.87-2.55.43-4.72-3.55-4.83-5.85-2.83-.32-2.72-1.35-.1-2.31l-2.12-1.21-3.05-17.61c-.85,5-2.72,9-5.62,12.01-1.42,3.99-2.46,4.69-2.24,0,1.28-6.68,3.06-13.67,6.14-20.23,5.45-11.63,5.88-22.07,6.17-22.72l7.33-16.58c.27-.61.84-1.05,1.13-1.18.56-.25.88.21.92.52.62,5.66-17.74,25.33-6.07,64.21.42,1.39-.96,3.56.52,3.98Z"/>
            <path class="cls-73" d="M297.07,146.06c2.22-1.07,2.93,1.3,1.14,2.94,3.81,1.47-.39,8.65-3.31,9.91-5.59,16.53-8.39,24.8-8.39,24.8l-1.72,1.35c1.16,3.54-.21,9.07-4.09,5.4-1.24-1.17-.45-2.95,1.26-3.37-1.24-2.45-.57-7.48,2.06-8.08l2.06-13.98c1.25-8.47,4.45-16.23,7.55-24.54,3.99,1.8-5.87,18.27-4.18,23.59l7.64-18.01Z"/>
            <path class="cls-35" d="M284,179c-.4,2.69-3.59,4.97-2.06,8.08-3.94.51-4.28-5.95-.94-7.08.58-1.72.56-3.47,0-1-.89.41-2.14.63-2.46-.02-1.89-3.9-.18-13.84,1.08-17.81-1.38-.96-1.6-2.23-.66-3.83l.07-2.3c.94-1.79,1.76-3.23,3.91-4.13l.04,26.13c0,1.04.25,2.03,1.02,1.96Z"/>
            <path class="cls-90" d="M281,180c-.01-.33-.01-.67,0-1,.34-8.7-.68-17.37.5-26.08.55,2.97,1.29,27.77-.5,27.08Z"/>
          </g>
        </g>
      </g>
      <g>
        <path class="cls-52" d="M228.98,181c1.82.24,2.51,1.32,2.9,2.89.17-4.54,1.55-7.49,4.15-8.85,1.64-2.03,2.34-1.38,2.94,1.08l2.23,1.97,2.58-12.69c.42-5.29,2.22-9.13,5.4-11.54,3.46-9.38,5.73-19.42,11.11-28.53l-10.07,33.49c-.09,6.45-1.05,13.17-2.89,20.15,3.89-8.2,7.2-16.5,9.92-24.93,1.46-2.01,2.45-2.48,3.83-.18,3.94-.73.44,5.68-1.84,6.19.45,6.67-1.11,13.32-4.68,19.95l-2.61,1.15-6.6,21.42c-2.08.73-2.68,2.94-1.81,6.65.83-.49,1.82.87,1.63,1.38-2.28,5.88-5.98-.64-6.48-4.58-1.84,2.16-3.39,2.43-4.66.82-12.31-21.95-14.52-48.74-5.24-71.92-.6-1.52-1.58-1.77-2.45-.62-9.17,12.17-16.76,25.45-21.14,40.13l-2.94,2.78c1.39,1.21.44,3.01-1,.93-1.16-1.52-1.57.43-1.24,5.85,2.28.1,2.72,4.31,1.3,5.5-6.47,5.41-5.48-12.66-3.34-15.5-3.53-.71-1.84-6.82.91-7,1.04.53,1.34,1.92.91,4.17.67.65,1.02.7,1.03.14,2.01-11.32,9.19-29.75,17.28-38l3-.35c3.36-5.59,7.61-10.5,12.78-14.73-1.88-.29-1.62-.94.25-1.31,2.62-1.65,2.29-5.8,6.46-6.73-9.66,19.64-16.2,50.51-11.6,70.81Z"/>
        <path class="cls-156" d="M316.37,130.22c2.63,6.74,4.03,14.04,4.19,21.89,2.32,3.61,4.38,7.36,6.16,11.24.63,5.07,2.09,9.95,4.38,14.65,2.73,1.04,1.07,5.75-2.23,3.88l-2.49-1.08c-1.51-5.75-3.65-11.21-6.44-16.37-.24,6.19-3.67,28.25-8.33,31.33-2.69,1.77-3.93,2.54-4.7-.64,1.28-14.8-1.15-29.62-6.53-43.42l.67-3.78c-3.19.07-3.55-6.16-2.29-7.9.98-1.36,1.46-1.14,2.85.04,4.45,3.8,8.92,24.56,9.41,31.05-.08,3.28.51,6.84,1.44,10.13,3.77-16,4.62-40.99-.32-55.28,3.86-.59,2.97,3.15,4.23,4.27Z"/>
        <path class="cls-48" d="M283.2,146.08c-.37,1.39-.26,3.39-.26,4.83-.7,1.62-2.36,3.62-3.91,4.13-.41,2.93-1.4,6.04-2.95,9.32l-11.44,22.05c-1.22-.65-1.9-.24-2.54.7,1.12,1.8-1.41,6.05-3.41,4.94-3.6-2-1.45-25.16,2.1-29.02-.52-4.32,3.21-12.19,3.51-5.04-1.82,4.72-.86,10.24-2.38,15.04l1.69,1.1c5.97-10.2,11.6-20.6,16.9-31.2,2.15-2.96,3.04-1.92,2.68,3.14Z"/>
        <path class="cls-6" d="M178.89,192.8c-3.79-.02-7.37-.12-11.8.22.53-2.64.48-4.93,1.03-7.02,1.76-6.8,3.69-13.48,6.46-20.08l2.5,17.06c.51,3.5,1.68,6.66,1.82,9.82Z"/>
        <path class="cls-64" d="M178.89,209.08c12.13.24,25.05,1.14,36.1,7.12l.09,1.68c1.93,1.37,3.84,3,4.91,5.11-1.58,1.73-4.02,1.41-7.3-.96-.13,1.5-1.04,1.94-2.63,1.87,2.12,3.89-3.31,6.27-6.79,6.92-3.69.69-16.08.99-13.25-4.77.02-2.7-.58-4.33-1.82-4.88-1.75,1.02-2.32.41-1.29-1.3l-2.17-1.18c.63-3.02-6.86-3.07-6.35.32-1.84,1.71-3.58,3.24-4.22.24-1.7-2.55-3.95-4.68-4.92-8,8.16.46,5.31-4.74,9.64-2.18Z"/>
        <path class="cls-105" d="M186.91,219.88c.48.31.74,1.03,1.29,1.3,2.51.32,3.11,1.94,1.82,4.88,2.44,3.49,6.68,4.46,11.28,3.9,3.4-.41,6.54-2.93,8.76-6.05.81-2.02,1.4-2.15,1.78.03.81,1.36,3.69,1.27,4.67,2.57,1.23,3.11-2.69,5.52-5.41,5.6-.75,1.37-2.8,1.83-3.01-.02-5.36.4-10.75.59-16.17.57-2.23,1.79-8.36-.71-10.77-2.47-2.11-1.54-6.18-5.34-3.17-7.17-5.37-4.19,7.4-8.39,8.94-3.14Z"/>
        <path class="cls-79" d="M303.08,204.06c.71.76.96,1.58.6,2.49-3.01-.14-5.59.28-7.75,1.27-.58-.03-1.27.27-1.83.11-8.64,3.04-16.64,7.32-23.98,12.82-6.82-2.99,1.26-8.8,5.79-9.8.09-.2.14-.42.21-.64,2.41-1.37,5.01-2.44,7.8-3.21v-.95c4.91-1.62,14.04-1.67,19.16-2.1Z"/>
        <path class="cls-40" d="M214.93,212.79c1.38.68,1.3,3.55.15,5.09-13.87-9.85-28.03-3.98-36.19-8.8,1.6-.08,2.85-.93,4.02-1.91l3.7-.43c9.67,1.01,19.11,3.02,28.32,6.04Z"/>
        <path class="cls-37" d="M186.91,219.88c-1.6-1.04-8.06.29-8.03.27-.85.46-.83,1.88-.91,2.86-.69-.56-2.62-1.35-3.36-.8-.82.62-.18,2.08-.47,2.82-1.98-1.61.03-3.16.02-5.78.77.37,1.97.43,2.16-.26l.64-2.37c.68-2.49,6.9-2.62,9.03-.76,1.15,1.07.49,3.21.91,4.01Z"/>
        <path class="cls-32" d="M190.02,226.06c-1.04-1.48-1.72-2.92-1.82-4.88,1.88.47,2.86-5.09,5.23-3.92,1.23.61.48,6.4,4.1,6.67,1.65.12,3.3-.36,4.13-2.42.63-1.57,4.81-1.95,4.91-.61.25,3.55-3.27,5.4-5.37,5.95-7.13,1.84-11.66-6.63-11.17-.79Z"/>
        <path class="cls-17" d="M208.08,232.08c-3.73,2.01-8.04.46-12.08.91-1.31.14-2.82,0-4.08-.34,5.16-1.49,10.75-.33,16.17-.57Z"/>
        <g>
          <path class="cls-17" d="M228.77,134.92c-1.41,12.54-4.69,24.85-3.46,38.09,1.14,12.18,5.4,23.46,11.08,34.14l1.13-14.25c1.04,7.61,2.43,9.93,4.68,17.86.2.7,1.73.23,1.72-.24-.01-.39-.92-.28-.4-1.3-.32-2.57-.78-8.36,2.36-7.18,1.62-7.1,3.64-14.07,6.05-20.89,2.67-7.02,6.39-13.6,7.28-21.1.91-.3,1.5-.07,1.52.64.03,1.01.1,1.67.05,2.34-1.27,9.22-2.5,18.46-1.39,28.06,1.64-1.27,2.1-2.85,2.7-3.99,1.07-1.72,2.07-2.28,2.99-1.67l10.72-20.53c1.65-6.48,2.92-7.73,3.81-3.75.76,5.73-.45,17.99,1.37,17.83v1c.09,2.44-.66,5.07.94,7.08.53.66-.55,2.27,1.15,2.96.83-1.83,1.28-3.39,1.68-4.98l2.04-1.01c2.17-8.55,4.86-16.93,8.08-25.13-.42-3.28,3.42-5.64,3.31-9.91.76-.89,1.7-1.91,2.85-1.08,6.19,15.33,9.64,31.16,7.56,48.72,8.26-11.6,8.47-24.7,9.87-37.89,6.03,7.06,7.62,15.43,10.38,23.12.9,2.52.25,5.94,2.07,8.11.76,4.39.9,8.7.42,12.92-3.02-.46-6.04-.82-9.09-.87-16.42-.29-29.97,1.22-45.56,3.3-.87.12-1.36-.29-1.62-1.27-7.35,3.1,1.09,3.91,5.01,3.49-.12,1.31-1.44,2.23-3.96,2.76.77.48.7.7-.21.64-3.95,1.08-6.7,3.15-8.25,6.21.88,3.04.12,4.89-2.29,5.57.28,2,.85,3.11,1.7,3.32,6.61-9.4,16.34-14.61,27.02-18.12.37-1.88,1.19-1.94,1.83-.11,3.32-1.17,6.91-1.61,10.75-1.34l.45-1.59c.08-.97.24-2.09,1.01-2.58,1.86-1.21,18.48.02,22.05.45.67-.45,1.64-.68,2.91-.71,1.81-5.31,1.68-11.06,4.67-16.35,1.18,7.69-.09,14.44.11,21.31-2.62,14.24-5.7,28.38-13.67,41.14-1.26,2.01-3.36,3.52-3.44,6.03,5.91-2.75,8.64-7.94,13.31-11.06,3.15-.52,5.41-.05,6.76,1.42-2,13.72-6.2,29.69-12.24,42.2-.1.2-.69.16-1.42.05-5.68,19.56-19.52,37.09-34.88,50.32-3.71,3.19-9.04,7.43-13.66,8-14.54,5.7-48.72,12.42-63.27,4.48-.91-.5-1.26-1.53-1.41-2.55-.44.26-.88.46-1.33.5-1.76.16-23.31-20.93-25.84-24.08-9.8-12.2-19.47-25.74-20.71-41.55-.78-.08-1.43-.22-1.59-.58-1.54-3.44-3.61-11.49-1.43-14.33-1.08-2.17-2.67-6.96-2.74-9.25-.1-3.16,2.43-.5,3.68,1.32l2.22-.05c-.41-1.96.5-2.63,2.74-2.01.68.92,2.74,1.83,4.61,2.63-9.74-15.97-10.51-45.18-7.15-62.85.98-3.63,10.09-3.73,12.56-1.67,2.39.2,4.25,4.01,4.83,5.85-.67,1.89.71,2.2,4.13.93l.9,1.17c2.6-.58,5.3-.85,8.08-.81,1.99-2.49,12.27.33,13.82,2.41.13.17-.17.65-.59,1.23,3.13,1.57,4.12,3.26,2.97,5.06v1.56c-9.67-3.8-19.75-5.58-30.23-5.35.83,2.93-1.62,2.46-4.02,1.91-1.85,1.96-4.02,3.38-6.51,4.28,2.38,2.32,2.97,4.29,1.79,5.9l1.83,1.56c-2.13,1.05-2.75,2.46-1.85,4.22,1.96-.47,3.79.83,5.5,3.92l4.07,2.64c4.06,1.24,8.09,2.27,12.09,3.09l.64-.87c5.34.9,10.21.33,14.64-1.73.79-1.5,2.01-2.97,3.66-4.41-2.76-.6-3.74-1.86-2.93-3.76l1.27-1.74c3.44,2.24,5.73,2.51,6.89.8-1.88-.32-5.65-3.19-4.91-5.11l-1.31-1.75c1.71-.97,2.09-2.08,1.16-3.34-1.6,1.15-2.16.48-.86-1.1,2.01-2.26,4.63-1.82,7.85,1.31l8.2,6.84c2.38.33,1.88-1.48-1.52-5.41-3.21-3.53-6.8-6.67-10.77-9.43,1.24-1.72,3.33-2.01,6.27-.88,2.23-.46,1.84-1.14-1.16-2.05-8.18-1.65-16.15-4.01-23.93-7.06-2.47-.11-4.75-.06-7.07-1.12l-2.02-1.51c.56-3.1,3.55-15.91,5.07-17.82.91-1.14,1.33-1.36,2.99-.55l-.03,8.04c0,2.75.35,5.04,1.67,7.06,1.14-2.01-.18-3.75.4-5.1-.31-1.93-.64-5.15,1.24-5.85.85.42,1.02-.29,1-.93.62-1.7,1.63-2.69,3.15-1.49-1.6-4.23,19.19-43.08,22.67-42.98,1.23.03,1.42,1.01.71,2.17Z"/>
          <g>
            <path class="cls-72" d="M328.12,290.98c-13.23,29.35-20.39,36.98-45.94,56.63-5.37,1.53-11.64,2.7-17.18,3.38-.2-.77-.34-1.37-.26-1.4,3.68-1.4,10.99-3.36,14.62-3.33.12,0-2.17.33-.71-1.16,1.09-2.27,3.51-3.26,5.83-4.71,8.56-5.36,14.91-12.77,21.74-20.25,9.1-9.97,14.42-22.08,20.97-33.37,1.64-2.15,1.95-.75.93,4.21Z"/>
            <path class="cls-42" d="M328.12,290.98c-2.14-.28,1.07-5.69-.93-4.21.98-1.69,14.2-37.8,11.51-42.54-3.12,2.3-3.97,5.48-7.81,5.57,2.07-1.98,3.97-4.35,3.21-6.69,2.28-3.81,5.97-7.04,9.86-11.2-.99,20.89-7.46,40.49-15.84,59.07Z"/>
            <path class="cls-26" d="M168.11,186c1.63.76,2.09,2.26,1.37,4.5,4.26-.43,7.4.34,9.41,2.31l.1,2.31c-4.16-.34-8.74.24-12.56,1.67.36-1.92-.07-4.54-1.53-5.78l.96-5c.2.45-.23,1.69.64,1.91.46.12.56-1.38,1.6-1.91Z"/>
            <path class="cls-80" d="M228.77,134.92c.05-.34-.22-.55-1.02-.73-.84,3.57-2.89,6.35-5.43,9.1-2.36,2.55-3.34,5.97-5.09,8.94-6.75,11.45-10.92,23.35-11.97,37.3-2.65-3.6-1.03-7.65-1.9-11.69,1.16-2.1-.06-1.95-1.12-.63,5.32-18.14,13.85-35.36,28-49.26,1.31,2.64-1.23,4.8-1.48,6.96Z"/>
            <path class="cls-150" d="M198.87,167c-1.66,1.84-.91,4.69-.91,7-2.01,1.26-1.63,4.12-2.57,6.43-1.87,4.62-3.77,8.78-3.46,13.45-1.37-.63-3.21-.07-4.56-.94-.57-5.23,7.9-25.07,11.16-30.05.49,1.7-.28,3,.34,4.12Z"/>
            <path class="cls-81" d="M243.53,209.23c-1.44-1.97-.85-5.07.04-7.65l5.9-17.2c.52-1.52,1.87-2.32,2.48-3.22,1,2.32-.24,4.95-1,7.67-2.31,8.31-4.11,16.02-3.26,24.24-2.67-3.29-1.24-6.73-3.04-10.37-1.46,2.14-.1,4.52-1.12,6.53Z"/>
            <path class="cls-47" d="M201.24,178.15c.14,2.08-.45,3.99-1.24,5.85-1.81-1.88-1.59-5.47.22-8.04.93.53.82,1.49,1.02,2.19Z"/>
            <path class="cls-26" d="M224.09,204.11c-2.55-.94-4.91-.56-7.07,1.12l-3.08-.17c-2.24.22-4.58-.59-7.04-2.43l-8.51-1.74c-1.6-3-7.57-2.48-11.23-1.97l-1.01-.92c-1.86-4.18,13.63-2.06,19.84,3,.98.8,2.55.15,2.96-.66.28-.57-.28-1.23-1.33-1.89-2.95-1.67-6.38-1.33-8.62-3.44,4.77.22,23.95,5.45,30.43,7.8-.41,2.81-3.91,2.26-5.34,1.31Z"/>
            <path class="cls-175" d="M213.94,205.06c.63,3.52-2.65,3.92-3.77.84-.75-2.42-3.31-3.24-6.08-3.17l-15.23.34c-.48-1.09-1.25-2.08-2.3-2.97-.1-.71-.22-1.41-.4-2.1,5.19-2.64,11.01.25,16.33,2.41l11.45,4.65Z"/>
            <path class="cls-26" d="M188.86,203.07l-11.12,2.38c1.1-3.17,4.16-3.26,6.09-4.49.79.17,1.74,1.2,2.14.36l.58-1.22h11.47c-1.45,4.12-6.09-.02-9.17,2.97Z"/>
            <path class="cls-93" d="M279.63,161.16c-.52-.24-.57-1.12-1.54-1.13,0,2.15.27,4.21-.9,6.01-5.84,9-9.73,18.4-13.7,28.21-1.76-2.97-.11-5.43.46-8.17-.99-.08-1.18.97-1.84,1.03l16.93-32.08c2.2,1.3.33,4.16.59,6.13Z"/>
            <path class="cls-50" d="M284.78,185.06c2.27-9.06,5.51-18.06,10.12-26.15.52,4.07-2.15,7.55-3.1,11.56l-4.66,19.72c-2.37-2.06-.93-4.13-2.36-5.13Z"/>
            <path class="cls-33" d="M333.1,202.04c-1.52,4.47-.7-.77-17.19,1.65-3.13.46-6.32-.34-8.78,1.19-1.51,2.24-3.26,1.68-4.05-.83-5.1,1.29-10.33,2.39-15.7,3.32-.38-1.33-1.54-1.74-3.47-1.22-.03,3.08-11.15,1.18-11.43.57-.74-1.64.99-2.65,2.59-2.66l18.84-2.91c12.32-1.9,24.51-.71,36.83.78.56-4.39.08-8.13.18-11.95,2.81,3.36-.62,11.09,2.17,12.06Z"/>
            <path class="cls-59" d="M322.83,229.19c-2.47,2.58-3.18-.71-2.98-3.49l-2.19-1.15c-.95.44-2.14,1.2-3.58,2.28,3.9,4.13-3.29,8.14-7.6,9.62-3.83,1.32-16.43.15-13.48-5.38-.39-2.26-1.26-3.98-3.11-5.33-1.65.32-2.52-.41-2.6-2.2l-7.55,4.07c-2-.17-2.57-.34-1.52-2.39,1.07-1.73,2.77-4.58,4.95-5.4.9-1.79,2.58-2.69,4.35-3.41,8.5-3.44,23.49-.98,32.3.96l2.21-.51c.49-.33,1.72-1.29,2.33-.35.91,1.4,2.68,2.4,3.71,3.65-1.22,3.21-3.51,6.34-5.25,9.01Z"/>
            <path class="cls-85" d="M289.89,225.74c3.61.62,4.64,2.4,3.11,5.33,2.28,4.08,7.24,4.54,12.16,3.79,3.82-.58,8.34-3.98,8.91-8.03,2.83-5.07,9.46,1.52,4.89,4.3,1.15,3.32-5.47,6.74-8.46,7.81-7.74,2.78-23.91-.33-29.63-5.81l-1.6-2.35c-.29-.37-.55-.74-.66-1.16-.27-.94,10.96-9.66,11.28-3.88Z"/>
            <path class="cls-9" d="M252.95,326c-1.03,4.45-8.24,7.59-12.75,6.81-4.95-.86-9.14-4.55-11.42-8.53-2.61-2.24,28.42-.56,24.17,1.72Z"/>
            <path class="cls-100" d="M322.04,216.88c-.56,1.91-3.88,1.82-6.08,1.46-11.34-1.88-22.45-2.38-32.79,1.5.64-10.08,24.6-8.46,33.8-4.86,1.27.5,3.96,2.66,5.06,1.9Z"/>
            <path class="cls-142" d="M320.74,231.77c-.61.79-.01,2.59-1.55,3.55-3.87,2.4-8.2,6.18-13.26,6.33-4.47.14-28.83-3.86-25.05-8.52,11.43,4.83,29.28,10.06,38.08-2.01.87-1.89,1.78-1.51,1.78.64Z"/>
            <path class="cls-177" d="M260.07,315.74c-.13-1.1.62-1.56,2.22-1.36l7.77,1.16c.42.06-8.34-.03-7.07-2.46,2.94-.25,6.52-.09,9.19,1.62.2,1.6-.6,2.71-2.09,2.48-7.13-1.1-25.3,2.75-37.19-2.33,3.7-6.28,17.56-3.57,23.95-2.13-.14,1.37.93,2.37,3.21,3.01Z"/>
            <path class="cls-43" d="M262,313.1c-.46.95-1.1,1.83-1.93,2.64-5.83.89.64-4.92-20.96-3.08-2.27.19-3.99,3.13-6.2,2.19-2.25-.96-4.95.23-6.99-1.71l1-3.16,17.1.07c6.31.02,12.94.13,17.98,3.06Z"/>
            <path class="cls-115" d="M294.1,207.93c-2.99,2.67-7.3,3.22-11.12,5.1-7.73,3.8-13.09,15.85-15.91,13.02-2.33-.42-.3-3.68-.13-2.35.05.42-1.26.19-1.57-.97.93-2.55.02-5.59,2.15-8.18,2.29-2.78,4.95-4.62,8.39-3.6-.93,2.11-7.66,5.56-6.77,5.49-.77.06.3,2.94.83,2.59,4.61-2.98,20.93-11.99,24.13-11.11Z"/>
            <path class="cls-99" d="M230.12,219.83c-7.59-1.25-9.77-8.08-16.05-8.14-1.19,1.14-1.71.68-.93-.73-.64-1.26-1.95-1.87-3.24-2.92-.68-.56.2-1.63.27-2.14,1.36.36,2.75.14,3.77-.84,3.31-1.67,8.63,3.19,11.34,5.83,1.41,1.38,6.02,5.97,5.62,7.5-.13.51-.43.98-.79,1.44Z"/>
            <path class="cls-116" d="M224.09,204.11c-1.46.35-3.1-.4-5.13.58,7.11,4.44,13.57,9.94,16.49,18.66-2.28-.38-4.14-2.22-5.33-3.52-3.15-6.82-9.45-12.04-16.18-14.77,2.92-2.78,6.91-3.11,10.15-.95Z"/>
            <path class="cls-38" d="M177.97,223.01c1.63,5.69,8.32,8.14,13.94,9.64,1.61-.26,2.97-.15,4.08.34,1.87.57,1.76,1.37-.19,1.7-18.47.79-18.2-6.84-21.66-9.66-1.72-4.16,3.68-7.21,3.82-2.02Z"/>
            <path class="cls-34" d="M267.08,226.05c-5.59,7.63-4.14,20.64-8.77,26.74-.23-10.55,3.56-20.37,7.08-30.06l1.97-.63c-.25,1.06.41,3.01-.27,3.94Z"/>
            <path class="cls-97" d="M307.14,204.88c1.56,3.33,12.42,1.57,12.58,7.29-7.99-2.95-15.83-3.99-23.78-4.36-2.07-3.4,7.38-1.01,7.15-3.76,1.04-.09,3.21.19,4.05.83Z"/>
            <path class="cls-109" d="M213.14,210.96c.4-.34.84.41.93.73.1.34.55.95.86,1.1.02.56.37,1.14-.23,2.29-10.07-5.52-21.01-6.58-31.79-7.91,2.85-2.38,6.68-.8,10.31-.53,16.78,1.22,17.22,6.63,19.92,4.32Z"/>
            <path class="cls-102" d="M289.89,225.74c-1.09-.65-2.33-.33-3.6.5l-7.02,4.54c-1.11-.58-1.63-1.33-1.98-2.44-.49-1.55.31-2.1.93-3.11-.82,2.91,7.38-4.44,9.99-3.78,1.9-.1.97,3.32,1.67,4.29Z"/>
            <path class="cls-167" d="M251.61,252.63c2.56-2.02.39,20.82-2.2,17.93-1.14-5.54-.43-11.98,2.2-17.93Z"/>
            <path class="cls-5" d="M322.83,229.19c-.61.93-1.42,1.71-2.09,2.58-.55-.33-1.16-.51-1.78-.64.07-1.22.33-2.99-.84-3.64-1.27-.7-2.79-.54-4.05-.65l.51-3.62c.33-2.32,6.59.38,6.91.82,1.22,1.64-1.35,6.04,1.33,5.16Z"/>
            <path class="cls-123" d="M275.09,204.07c-.85.44-2.78,1.46-1.92,2.85,3.46-.29,7.65.26,10.76-.76.84.69,1.71-.27,3.19.36-3.46,1.78-7.12,3.89-10.98,3.8.41-1.36,2.04-.86,2.97-2.08-2.63-1.02-5.78,1.04-6.95-.92-.63-1.05-.23-3.11.37-3.29.74-.22,1.85.16,2.57.05Z"/>
            <path class="cls-122" d="M226.92,309.98c.66,1.02,1.8,1.47,2.73,2.44-1.37.94-2.6.66-3.73.73.2.19-8.23-1.95-7.95-3.4.7-3.67,1.33.21,8.95.24Z"/>
            <path class="cls-11" d="M211.09,232.1c.32,4.52-12.63,2.48-15.28,2.6l.19-1.7c3.85-.36,7.87-.66,12.08-.91.77-.41,2.16.36,3.01.02Z"/>
            <path class="cls-120" d="M262,313.1c.29.07.77-.17,1-.03l7.07,2.46c-3.24,1.48-6.75-.29-10,.2-.32-1.53-1.84-1.47-3.09-2.35,2.02-.28,3.53.26,5.02-.29Z"/>
            <path class="cls-141" d="M219.98,222.99c1.79,3.57-7.19,1.16-8.16.94-.59-.13-1.17-.24-1.78-.03.74-1.04.32-3.48,1.56-3.89,3.08-1.02,5.79,5.59,8.38,2.98Z"/>
            <path class="cls-86" d="M292.99,231.08c-.89-1.6-2.09-3.92-3.11-5.33.97.58,2.09.77,3.4.38.84-.25,1.23-1.89,2.4-2.59,2.3-1.37,3.08,5.29,7.8,5.27,4.1-.02,3.23-6.35,5.92-5.62.65.18,1.23,1.33.99,2.49-.63,3.07-3.24,5.13-5.45,5.82-7.84,2.44-11.6-6.59-11.96-.42Z"/>
            <g>
              <path class="cls-128" d="M238.03,292.89q1.07-1.94,0,0c-2.3-.12-5.59-1.5-4.87-3.77,1.85-5.86,10.95-.92,20.09-2.97,3.31-.74,7.16,4.22,5.87,6.75-7.06,4.08-16.32,8.55-21.09,0Z"/>
              <path class="cls-164" d="M238.03,292.89c-.41-1.43-1.62-2.28-2.63-3.59,1.63-1.06,4.43-1.85,5.19-.49s.52,3.47-.28,3.99c-.51.32-1.57.13-2.28.1Z"/>
              <path class="cls-18" d="M252.91,291.37c-.95.93-2.36.42-3.17.38-.58-.03-.69-1.43-.58-2.1.28-1.7,4.13-2.01,4.52-1.06.28.69.23,1.79-.77,2.77Z"/>
            </g>
          </g>
        </g>
      </g>
    </g>
  </g>
</svg>