<?xml version="1.0" encoding="UTF-8"?>
<svg id="Layer_1" data-name="Layer 1" xmlns="http://www.w3.org/2000/svg" xmlns:xlink="http://www.w3.org/1999/xlink" viewBox="0 0 512 512">
  <defs>
    <style>
      .cls-1 {
        fill: #151a16;
      }

      .cls-2 {
        fill: #181719;
      }

      .cls-3 {
        fill: #2d2e28;
      }

      .cls-4 {
        fill: #2e170f;
      }

      .cls-5 {
        fill: #451c0e;
      }

      .cls-6 {
        fill: #292926;
      }

      .cls-7 {
        fill: #37372c;
      }

      .cls-8 {
        fill: #313426;
      }

      .cls-9 {
        fill: #2f3620;
      }

      .cls-10 {
        fill: #39170d;
      }

      .cls-11 {
        fill: url(#linear-gradient-2);
      }

      .cls-12 {
        fill: #672d11;
      }

      .cls-13 {
        fill: #5b3a1e;
      }

      .cls-14 {
        fill: #421b0d;
      }

      .cls-15 {
        fill: #532510;
      }

      .cls-16 {
        fill: #645f28;
      }

      .cls-17 {
        fill: #787630;
      }

      .cls-18 {
        fill: #241617;
      }

      .cls-19 {
        fill: #74742f;
      }

      .cls-20 {
        fill: #2a271b;
      }

      .cls-21 {
        fill: #aa5526;
      }

      .cls-22 {
        fill: #1a120e;
      }

      .cls-23 {
        fill: #83381b;
      }

      .cls-24 {
        fill: #fff;
      }

      .cls-25 {
        fill: #df7226;
      }

      .cls-26 {
        fill: #292b1e;
      }

      .cls-27 {
        fill: #62280f;
      }

      .cls-28 {
        fill: #1f2328;
      }

      .cls-29 {
        fill: #2f2f1c;
      }

      .cls-30 {
        fill: #606029;
      }

      .cls-31 {
        fill: #83391b;
      }

      .cls-32 {
        fill: #2a3524;
      }

      .cls-33 {
        fill: #4e1f0c;
      }

      .cls-34 {
        fill: #474220;
      }

      .cls-35 {
        fill: #471e0e;
      }

      .cls-36 {
        fill: #16181a;
      }

      .cls-37 {
        fill: #47431c;
      }

      .cls-38 {
        fill: #6b6c2d;
      }

      .cls-39 {
        fill: #5b290d;
      }

      .cls-40 {
        fill: #622a0f;
      }

      .cls-41 {
        fill: #281417;
      }

      .cls-42 {
        fill: #8f8c34;
      }

      .cls-43 {
        fill: #552710;
      }

      .cls-44 {
        fill: #973941;
      }

      .cls-45 {
        fill: #293241;
      }

      .cls-46 {
        fill: #361c10;
      }

      .cls-47 {
        fill: #5d280e;
      }

      .cls-48 {
        fill: #2b312a;
      }

      .cls-49 {
        fill: #522c1c;
      }

      .cls-50 {
        fill: #81391b;
      }

      .cls-51 {
        fill: #858634;
      }

      .cls-52 {
        fill: #6d2f13;
      }

      .cls-53 {
        fill: #4c1e0d;
      }

      .cls-54 {
        fill: #2d3039;
      }

      .cls-55 {
        fill: #9b5d2f;
      }

      .cls-56 {
        fill: #1d1e1c;
      }

      .cls-57 {
        fill: #983840;
      }

      .cls-58 {
        fill: #81722d;
      }

      .cls-59 {
        fill: #90421f;
      }

      .cls-60 {
        fill: #2b1817;
      }

      .cls-61 {
        fill: #260f0b;
      }

      .cls-62 {
        fill: #5b260e;
      }

      .cls-63 {
        fill: #3e2219;
      }

      .cls-64 {
        fill: #725b24;
      }

      .cls-65 {
        fill: #6c6128;
      }

      .cls-66 {
        fill: #20221f;
      }

      .cls-67 {
        fill: #0a0b0b;
      }

      .cls-68 {
        fill: #5a5121;
      }

      .cls-69 {
        fill: #686128;
      }

      .cls-70 {
        fill: #59240e;
      }

      .cls-71 {
        fill: #1e1e1e;
      }

      .cls-72 {
        fill: #4a4b1f;
      }

      .cls-73 {
        fill: #515524;
      }

      .cls-74 {
        fill: #43451f;
      }

      .cls-75 {
        fill: #31361f;
      }

      .cls-76 {
        fill: #662529;
      }

      .cls-77 {
        fill: #151517;
      }

      .cls-78 {
        fill: #5a270e;
      }

      .cls-79 {
        fill: #883f1e;
      }

      .cls-80 {
        fill: #171818;
      }

      .cls-81 {
        fill: #5c5b27;
      }

      .cls-82 {
        fill: #171517;
      }

      .cls-83 {
        fill: #723015;
      }

      .cls-84 {
        fill: #272a24;
      }

      .cls-85 {
        fill: #0a0b0a;
      }

      .cls-86 {
        fill: #362d1a;
      }

      .cls-87 {
        fill: #54554c;
      }

      .cls-88 {
        fill: #353621;
      }

      .cls-89 {
        fill: #4e4c1f;
      }

      .cls-90 {
        fill: #241e19;
      }

      .cls-91 {
        fill: #4e4821;
      }

      .cls-92 {
        fill: #413f1f;
      }

      .cls-93 {
        fill: #343222;
      }

      .cls-94 {
        fill: #58220e;
      }

      .cls-95 {
        fill: #2c2f3b;
      }

      .cls-96 {
        fill: #6a5f27;
      }

      .cls-97 {
        fill: #81381f;
      }

      .cls-98 {
        fill: url(#linear-gradient);
      }

      .cls-99 {
        fill: #6f3114;
      }

      .cls-100 {
        fill: #3d3542;
      }

      .cls-101 {
        fill: #222323;
      }

      .cls-102 {
        fill: #42441f;
      }

      .cls-103 {
        fill: #33361e;
      }

      .cls-104 {
        fill: #84381b;
      }

      .cls-105 {
        fill: #df7126;
      }
    </style>
    <linearGradient id="linear-gradient" x1="472.66" y1="-141.96" x2="591.08" y2="14.03" gradientTransform="translate(151.37 113.7) scale(.48)" gradientUnits="userSpaceOnUse">
      <stop offset="0" stop-color="#942f21"/>
      <stop offset=".24" stop-color="#963121"/>
      <stop offset=".39" stop-color="#553722"/>
      <stop offset=".49" stop-color="#663921"/>
      <stop offset=".74" stop-color="#2c281f"/>
      <stop offset="1" stop-color="#402718"/>
    </linearGradient>
    <linearGradient id="linear-gradient-2" x1="581.53" y1="-16.05" x2="627.84" y2="79.59" gradientTransform="translate(151.37 113.7) scale(.48)" gradientUnits="userSpaceOnUse">
      <stop offset="0" stop-color="#5f2d21"/>
      <stop offset="1" stop-color="#4f341d"/>
    </linearGradient>
  </defs>
  <path class="cls-24" d="M236,0c.42.96.11,1.35-.92,1.19-4.19,2.22-9.06,3.32-14.59,3.29-7.48,1.94-14.91,2.8-22.3,2.57.77,1.66-.39,2.26-3.48,1.79-.59,2.26-3.26,2.23-4.58.21l-3.74,3.02-18.87,5.82c-10.11,4.36-20.31,8.41-30.6,12.16.57,2.3-1.36,2.73-2.87,1.23-1.79,2.94-4.71,5.21-8.78,6.79l-9.02,6.17h-3.4c-.06,3.32-4.84,7.7-7.86,5.77l-1.72,3.75c-9.7,7.14-19.28,14.58-27.29,23.64l-3.83,1.45c1.65,2.57-1.82,4.35-4.14,4.24,1.21,2.62-.51,3.33-2.88,3.12.09,1.86-.24,2.76-1.97,1.85l-.88,3.94c-7.91,8.89-15.16,18.4-20.97,28.8l-3.39,2.12c1.55,2.09,0,4.76-2.72,4.13l.57,2.48-5.18,9.9-2.54.57c1.53,3.4-2.44,10.66-5.78,12.04,2.2,1.21,1.42,2.86-2.35,4.95,1.72.95,1.31,1.57-.59,1.82,2.51,1.29,1.9,2.63-.9,2.39,2.13,1.64-1.09,5.64-2.58,6.7.7,2.61.38,3.65-.98,3.12l.27,4.66c-3.53,9.17-5.96,18.72-7.54,28.42l-2.6,3.87,1.72,1.86c-1.2,4.11-2.05,8.26-2.55,12.47l-1.95,1.52c2.01.52,2.02,1.86-.07,2.32,2.26,1.53,1.31,4.72-1.07,5.93,3.17.44,2.3,4.5-1.1,2.93"/>
  <g>
    <g>
      <path class="cls-95" d="M481.02,321.96c.89-.02,1.56.27,1.5.98-1.45,17.47-2.18,35.3-2.73,53.49l-1.7,6.49c-.02,1.08-.09,2.16-.3,3.21s-.42,2.02-.9,2.86c-22.44,39.13-58.39,72.39-97.91,93.77-31.84,17.23-67.57,28.89-103.98,29.24h-39c-17.35.03-33.19-3.15-49.76-7.9-.78-.22-1.49-.77-2.21-1.34s-1.39-1.27-2.01-1.99l-1.66-1.28c-3.98-8.86-20.69-54.47-19.45-57.22.78-1.73,23.4-7.07,27.59-8.03l16.38-6.13,5.21-.2,3.89-3.3c17.61-4.96,34.51-11.17,50.71-18.64,16.48-4.99,32.85-11.18,49.11-18.58l1.22.63,5.45-4.19c19.94-6.54,39.48-14.34,58.62-23.41l1.85,1.4-.21-1.35c31.73-11.85,63.02-25,93.86-39.47l2.44.16c2.91-2.48,4.24-2.21,3.98.8Z"/>
      <path class="cls-18" d="M140.98,345.95c1.66.19,1.57.93-.08,1.18l-2.69,3.18c-21.03,14.15-41.55,29.05-61.57,44.68-4.5.86-4.59,1.57-.29,2.16,0,0,7.06,4.42,21.18,13.25l2.34,3.56,5.12.43c17.08,9.05,35.14,12.85,54.02,15.78,15.67,2.43,28.29,3.05,42.5-3.83l2.35.45c.35-2.02,5.39-.12,6.21,1.12-5.77,1.7-11.68,4.07-17.75,6.31-9.76,3.59-19.43,5.58-29.97,8.76,2.83,10.75,6.33,20.63,9.97,30.79l4.19,11.71c1.9,5.31,4.88,10.02,5.5,15.3-.95-.28-2.14-.89-3.1-1l-2.49-1.5c-6.04-17.42-12.13-34.84-18.27-52.25-2.94.11-6.57.46-8.64,2.46l16.17,43.9c.11,2.65-2.03,2.13-4.04,1.26-3.78-3.25-6.34-7.72-7.68-13.41-2.3-5.64-11.69-29.58-10.9-34.32.37-2.25,1.26-3.3,3.41-4.03l17.38-4.3c-31.97-2.9-61.09-14.5-87.79-32.05,5.54,14.16,10.76,28.44,15.66,42.83.05,2.13-1,2.79-2.69,1.42-.99-.87-1.96-2.29-2.94-3.02-4.4-5.76-8.02-13.59-7.28-20.84l-2.94-2.03-7.35-20.58.59-3.45c-5.02-1.29,1.31-10.73,4.94-9.12.95-3.51,6.35-9.35,10.03-8.04,1.64-4.12,3.36-5.46,5.16-4l.14-2.5c9.97-6.53,19.73-13.37,29.27-20.52l2.26.3c1.2-2.71,3.69-4.72,7.47-6.06,2.86-2.64,5.75-3.95,8.68-3.95.86-.49,2.3-.47,3.13-1.18,1.55-1.06,1.9-.44.79,1.13Z"/>
      <path class="cls-77" d="M391.24,189.2c2.63,8.22,2.76,18.81.14,26.99.24,4.21-.16,8.59-.24,12.81,1.5,2.73,1.51,6.43-.17,9.09-.25,13.53-2.2,26.88-4.97,40.15l1.72,1.47-3.1,11.89c.08,2.64-.43,4.82-1.52,6.52,2.65.35,2.44,1.27-.15,1.85-8.34,14.98-6.45,34.01-3.22,51.04l-1.66,2.89,1.51,5.17c2.28.21,2.72.73,1.35,2.73l-44.07,17.97-21.85,8.22c-.36-.48-.61-.89-.49-1.11.2-.37,4.58-6.43,4.87-6.73.2-.21.7-.15,1.28,0l1.64.3c16.8-6.91,33.94-13.85,51.42-20.83-2.15-12.74-3.34-25.57-3.58-38.46-3.02,1.68-5.99,3.57-8.92,5.68l-2.22-.92c-2.4,2.61-5.71,4-9.02,5.06.46,2.14-.87,3.52-3.98,4.13l-6.15,1.7c-1.67,1.74-3.26,2.5-4.75,2.25-.35.02-.65,0-.8-.16-.52-.56,3.53-13.69,4.27-14.75.12-.17.61-.09,1.21.07,2.1.5,2.63,1.62,2.09,3.58,3.23-2.02,5.67-2.29,7.34-.82,14.69-9.29,22.04-13.93,22.04-13.93,4.48-8.22,7.65-17.19,9.5-26.92,0,0,2.09-11.09,6.26-33.27-2.86-.64-2.8-4.65.22-4.88-1.42-5.3-.98-10.99.94-16.1-2.09-3.09-2.12-7.08-.09-11.98-.81-1.24-1.67-2.59-1.74-4.12-.22-5.44.15-14.33.76-19.77.17-1.51,1.03-2.82,1.89-4.03-.31-4.35-.65-8.71-1.04-13.08-2.98-.3-2.98-3.12-.04-3.96-.46-3.77-.63-7.64-.52-11.63,2.1-.51,4.11.69,6.03,3.58,4.66-4.62,9.96-2,6.29,4.46-5.59,4.1-7.77,9.06-6.56,14.89l-1.91,2.94Z"/>
      <path class="cls-4" d="M345.88,287.08c2.63,1.09,2.31,7.62-.8,7.77,1.2,6.83.16,13.61-1.33,20.61-.09,3.85-1.41,6.78-3.96,8.79-1.27-.07-5.01,13.08-4.68,14.84,2.55,1.03,2.18,2.73,1.21,4.99l-13.29,35.57-2.36.51c-1.14,2.84-3.88,5.52-5.66,7.85-4.92,1.85-9.64,5.22-15.17,6.75-7.81,2.16-14.65,5.83-22.21,8.6l-34.05,12.47c-11.43,4.18-22.15,8.73-33.49,12.08-2.08-.36-4.08-1.18-6.21-1.12l-2.2.63c-14.25-14.22-27.79-29.17-40.64-44.88-4.36-6.87-7.82-14.13-10.37-21.78-2.73-2.24-3.95-4.54-3.67-6.9l-2.45-.1c-1.39-2.2-2.6-4.41-3.63-6.63-.32-.09-.26-1.1.08-1.18.32-1.82.6-3.49.85-5.02l2.94.78c3.75,6.39,8.3,12.1,13.63,17.13l.53,2.96c3.3,2.37,3.63,4.03.97,4.97l1.02,5.32c2.35.67,4.11,2.64,5.28,5.93,0,0,2.48,2.9,7.43,8.71,2.73,1.42,4.23,3.25,4.5,5.5,2.58,2.23,3.6,4.51,3.08,6.86l3.15.69,7.69,8.06c3.81,2.28,6.46,5,7.94,8.15,1.94,1.05,2.56,2.19,1.84,3.41,2.45,2.91,5.27,4.46,8.47,4.66-.26-2.35,1.01-2.96,3.83-1.82l.98-1.82c9.67-1.26,19.51-5.1,28.56-8.87,11.17-4.65,17.76-8.19,24.81-18.8l2.55.29c2.35-1.8,4.09-2.18,1.89.7.45,2.4-.62,4.91-3.2,7.52,14.55-5.23,28.87-10.82,42.96-16.77l2.18-2.37c12.35-28.39,23.64-59.11,26.77-90.84l2.43-5.04c1.25-5.39,2.78-3.76,1.82.83Z"/>
      <path class="cls-41" d="M480.94,317.09c.12,2.62-1.38,3.69-3.91,4.07-5.98,3.4-12.17,6.39-18.88,9.22l-28.19,11.9-49.02,19.54c-2.62-2.54-2.51-4.91-2.86-7.91,1.6-1.27,2.76-.38,3.48,2.67,30.98-11.31,61.31-24.19,90.98-38.66,2.81-1.94,5.55-3.92,8.22-5.95,2.59-3.17,3.71,5.59.19,5.12Z"/>
      <path class="cls-6" d="M481.02,321.96c-1.15-.86-2.59-1.05-3.98-.8,1.3-1.16,2.22-3.23,3.91-4.07,1.38,1.5.16,3.2.07,4.87Z"/>
      <path class="cls-54" d="M161.65,493.65c-26.56-9.81-51.37-25.17-72.62-43.85,1,.28,1.28-.66.51-1.45l-11.44-32.51c-1.76-4.99-4.55-9.17-5.12-15.11,34.93,23.41,56.78,31.37,98.88,35.77-4.59,3.86-24.79,5.68-26.61,8.45-2.13,3.24,13.72,43.11,16.4,48.7Z"/>
      <path class="cls-57" d="M178.92,499.77c-6.16-.71-11.59-4.03-17.27-6.13.21.43,1.56.42,2.08.3.47-.11.14-.86-.17-1.7l-16.68-45.14c4.07-2.18,8.29-3.46,12.93-2.99l19.11,55.65Z"/>
      <path class="cls-76" d="M203.87,426.79c-.21.57-.71,1.1-1.61,1.41l-14.13,4.85c-5.74,1.97-11.34.53-17.27.18-25.12-1.48-49.32-7.44-70.99-19.26,14.04-19.67,28.92-40.19,44.86-59.09l2.25-1.02c1.82,2.34,5.52,4.45,6.24,8.08,1.11,5.61,4.7,9.92,6.75,14.85,2.48,5.96,7.12,8.79,10.7,13.38,6.52,8.36,12.86,16.33,20.34,23.79l12.85,12.82Z"/>
      <path class="cls-44" d="M146.98,353.87c-.26,3.5-3.48,5.55-5.79,8.36-5.14,6.25-10.2,12.34-14.87,18.94-8.45,11.96-13.35,16.79-21.48,29.68-1.33,2.11-2.5,3.86-4.98,3.12-9.36-5.11-18.81-10.45-27.94-17.69,22.96-18.25,45.18-34.91,68.97-49.15,3.54,0,4.27,4.41,6.08,6.73Z"/>
      <path class="cls-76" d="M382.95,299.98c.13-.5.26-.89.38-.89,5.69.09,12.73.7,18.03,2.02,21.91.85,43.73,3.11,65.46,6.79,3.69,1.15,7.43,2.2,11.23,3.14.9.27,1.77.79,2.7.92,3.11,5.64-33.03,20.03-38.49,22.31l-33.85,14.14-28.12,10.78c-1.6-2.07-.66-4.17-2.23-5.29-1.48-12.71-4.66-25.45-2.58-38.72.65-4.16,3.31-7.93,3.67-12.28.19-2.31,2.14-3.08,3.78-2.93Z"/>
      <path class="cls-28" d="M320.67,380.16l5.25-13.11,7.12-20.11c.93-2.63,2.54-5.37,2.07-7.85,3.11-6.5,7.59-3.35,14.89-8.09,3.3-1.09,6.61-2.45,9.02-5.06l9.02-6.02c1.01-.67,2.46-.96,3.15-.49.48.33,1.33,1.55,1.26,2.52-.76,11.03.75,21.19,2.83,32.05.37,1.92,1.22,5.47-.31,7.13l-50.25,20.58c-1.11.45-2.09.5-2.94.26-.63-.19-1.72-.84-1.1-1.79Z"/>
      <path class="cls-41" d="M401,298.96c.61.92,1.87,1.21,4.16,1.37,3.24.22,6.62.28,9.78-.41l1,.03c4.33-.48,8.35-.11,12.06,1.09,5.09.07,9.96,1.58,15.41,2.36l15.71,2.25,9.88,1.24c-1.04,4.6,5.88-.39,9.06,4.14-26.14-4.61-49.03-6.78-76.1-9.3l-19.01-1.77.15-1.85c3.56.57,17.31.73,17.9.82Z"/>
      <path class="cls-71" d="M359.02,325.93c-1.67,3.2-5.49,4.87-9.02,5.06,2.91-1.9,6.16-3.15,9.02-5.06Z"/>
      <path class="cls-43" d="M214.13,422.24c-.51-.05-1.47-.42-1.84.19-.22.37.85,1.86.46,2.3-4.17,4.55-11.97-3.13-14.35-6.16.83-.41,2.05-.59,2.45-1.07.28-.34-.97-1.03-.87-1.5,4.56,2.51,9.32,4.35,14.15,6.25Z"/>
    </g>
    <g>
      <path class="cls-71" d="M454.1,148.14c-1.77.53-3.14-.36-4.12-2.65-.53-.17-10.35,1.63-10.71,2.06-3.95,4.75-1.12,8.6,2.99,11.58,3.31,5.46,1.74,15.8.02,21.68-.14,4.11,2.3,4.87,7.32,2.27,5.79,1.63,11.38,1.72,16.77.26,6.82,4.19.03,9.85-5.52,12.34-5.67,1.32-12.5,4.96-16.24,9.37-1.37,6.76-6.44,9.65-15.2,8.66-6.73,3.62-12.16,3.35-16.29-.82-5.94,1.94-14.77,21.12-2.27,13.06,3.97-.44,8.04.76,12.21,3.62,10.08.54,15.67,1.26,17.2,13.16,3.95-2.03,7.86-3.2,11.73-3.52,4.7-4.51,9.33-9.09,13.88-13.74.89-15.42,19.11-6.56,23.45,2.86,3.1,3.12,3.23.53.38-7.75,1.24-5.84.33-11.66-2.71-17.47.14-4.29.5-8.56,1.08-12.83-3.58-12.34-3.45-23.94.39-34.8l2.4-.59c12.3,25.79,21.12,53.98,21.12,82.1v22c-.88,3.74-.86,8.27,0,12v5c-.28-.09-.54-.03-.61.36-1.84,10.46-1.52,21.05-5.08,30.63-.61.68-1.53,1.26-1.89.86-3.88-4.32-6.45-9.27-8.5-14.64-3.1-11.25-5.99-8.75-8.67,7.52l-1.54.74c-3.42-3.4-7.49-5.54-12.21-6.4-11.08,1.55-21.64-8.27-25.58-17.71-9.9-8.04-21.28-21.11-22.14-34.17-.85-1.25-2.45-1.48-4.8-.69-5.08-1.63-9.5-.26-13.26,4.09-3.62.98-5.33,2.53-5.13,4.66,3.69,7.08-1.38,14.58-9,14.64l-1.77,6.61c.84,4.13-2.12,9.45-5.82,5.74l-.77-2.74c2.89-23.29,4.34-34.93,4.34-34.93l1.4-2.48c1.59-2.95,1.59-6.08.17-9.09-2.43-2.97-2.18-9.85.24-12.81l.82-1.86c6.59-3.4,12.83-7.45,18.74-12.16l3.93-.13c6.8,4.05,21.99,5.51,15.58-6.43-.46-6.26,1.31-12.23,5.31-17.92,3.22-6.48,3.83-12.13,1.83-16.95-2.39-1.88-4.36-3.83-5.9-5.84,1.83-3.98,3.6-7.94,5.3-11.89.5-2.86,6.5-3.32,7.91-1.01,6.96-4.02,11.12-.77,9.19,6.15Z"/>
      <path class="cls-87" d="M512,271c-1.48,2.61-1.48-14.61,0-12v12Z"/>
      <path class="cls-36" d="M480.1,308.08c2.28-.03,4.5-.02,4.94,2.74.57,3.54-.16,10.77-1.1,14.24,2.03-.05,1.92,1.58-.11,1.86.52,1.95.11,4.41-.89,6.14,2.6-.09,1.86,3.11-.17,3.94l1.97.95c-.74,12.32-1.66,24.66-2.75,37.02l-.67,1.23c.31,2.49-2.11,4.73-3.23,6.72.17-10.86.82-21.92,1.44-33.29l1.49-27.66c-1.61-.8-1.64-2.42-.07-4.87l.94-2.79c.37-1.09.25-2.14-1.13-2.33-1.84,2.16-2.59,1.9-2.7-.92-2.39-1.22-5.01-1.78-7.86-1.68-2.74-.37-4.1-1.28-1.19-2.46,1.03-3.01,10.12-1.7,11.1,1.17Z"/>
      <path class="cls-2" d="M490.88,154.9c-1.58,3.81-4.43,11.04-3.65,16.18l2.75,18.07c.77,5.1-2.54,11.28-.29,16.33,1.66,3.74,3.84,6.97,2.41,11.55-2.17,6.97,4.75,9.43.19,15.98-4.47-2.35-6.48-5.72-9.14-9.35-2.72-3.71-9.18-5.15-13.27-3.84-3.01.97-1.33,5.04-2.32,6.78-2.19,3.87-6.08,5.88-9.27,8.69-1.9,1.67-3.73,5.81-6.16,5.89-2.31.07-4.25-.45-6.44,1.48-1.44,1.27-6.26,3.51-7.29.68-1.25-3.43-1.54-10.38-6.78-10.93-4.55-.48-8.94.28-13.27-2.9-7.68-5.64-9.4,2.69-13.53.33-7.77-4.46,5.59-18.19,6.15-18.47,5.17-2.67,4.28,6.16,13.29,1.98,10-4.64,15.72,1.28,17.54-6.43.91-3.84,3.46-6.57,7.18-7.77,2.76-.89,4.53-3.97,7.44-4.42,5.35-.84,11.27-3.46,10.83-9.72-14.77,5.24-14.27-4.7-23.63,3.34-7.75-10.68.74-6.7-2.1-26-.51-3.47-5.31-4.79-6-7.77-.63-2.93,1.96-6.5,2.33-9.75,4.77.62,8.17.13,12.33-2.24,1.72,1.97,2.81,3.81,3.9,5.58.69-.41,1.27.2,1.76,1.83,8.61,5.75,16.53,1.11,15.26-9.6.9-2.93,3.99-10.82,6.9-10.45,4.37,3.43,10.92,20.91,12.87,24.98Z"/>
      <path class="cls-98" d="M460.86,102.99l.86,2.4c-4.05.43-7.7,1.46-10.95,3.09-2.35,3.63-4.81,4.5-7.4,2.62-3.26-8.6-7.28-10.87-12.05-6.79,1.3,10.91-5.5,17.95-13.62,23.9-.59.43-1.18.22-1.78-.4-2.68,1.43-5.32,2.86-7.91,4.29-2.42,1.18-4.31-.14-4.07-2.69-4.22-5.67-8.59-11.21-13.13-16.62-2.11-2.8-2.92-4.88-.08-7.27,6.38-2.42,12.29-5.23,17.72-8.42-9.01-4.91-18.37-9.31-28.07-13.19l-.48-2.28c8.84-3.47,17.51-7.08,26.01-10.85l1.98,1.24c.95-1.59.58-2.37-1.15-3.02-5.2-.29-39.1-11.91-40.01-13.89-.15-.32-.03-.76.18-1.22.51-1.15,15.87-16.25,18.03-17.65.6-.39,1.33-.24,1.98.05,28.78,16.71,54.47,39.73,73.94,66.71Z"/>
      <path class="cls-11" d="M462.95,106.23l2.1,2.77c2.05,3.26-.29,4.19-7.01,2.79-6.42.74-2.06,13.82,4.58,8.52,2.42-3.54,4.88-4.96,7.37-4.24,3.01,4.09,6.02,8.29,8.03,13-.93,1.59-2.66,2.21-4.08.74l-5.09,10.5c.65,15.9-14.41,12.84-13.78-1.67-1.86-.86-2.25-1.75-1.03-3.52-6.74-1.78-15.82,2.23-22.06,5.12l-7.04.47c-8.01,9.3-20.92,0-10.89-9.18,7.81-5.09,13.46-11.61,16.93-19.58.18-15.3,11.69-10.15,10.79,2.58,3.43,4.69,6.09,3.03,7.99-4.98,2.04-2.66,8.73-4.07,11.91-4.1.43,0,.86.34,1.29.78Z"/>
      <path class="cls-49" d="M460.86,102.99c.78,1.08,1.97,1.64,2.09,3.24-2.81,1.92-6.84.9-9.88,2.74-3.29,1.99-2.68,6.64-4.77,8.99-2.44,2.75-5.93.33-7.44-1.3-4.12-4.41,1.4-12.4-5.33-11.82-1.89.16-3.19,1.74-2.58,4.09.9,3.45-1.19,5.17-2.39,7.55-5.41,10.72-10.76,10.07-18.08,18.79-1.89,2.25.21,5.51,2.08,6.48,1.43.75,4.53,2.03,5.84.12,3.07-4.51,6.38-2.96,10.54-3.45,4.99-.58,16.96-8.82,23.1-3.29-.49,1.63-1.98,2.34-4.48,2.12-4.39,2.35-9.13,3.85-14.21,4.51-2.24,2.51-3.8,5.67-4.69,9.48-4.36,3.94-5.06,5.61-2.09,5.02,2.99,1.48,4.45,3.08,4.38,4.81-.96,1.27-2.94,1.77-5.94,1.51-2.42,4.29-4.5,5.45-6.24,3.49l-.93-.73c.65-1.71.84-3.56.56-5.54-13.46-1.63-17.31-6.51-11.56-14.64-1.99-3.38-4.2-8.38,0-10.16.15-3.96,3.51-6.25,7.08-7.19,3.03-2.92,7.57-4.6,9.88-8.88,9.69-17.95-2.09-12.01,6.45-17.7,7.97-5.31,12.1,9.42,13.31,9.26.45-.06,1.4-.57,1.79-1.07,6.66-8.67,13.72-1.11,13.52-6.41Z"/>
      <path class="cls-60" d="M386.92,36.28c-1.9,2.46-4.76,4.05-7.13,6.47l-11.68,11.88c3.58,2.7,40.74,14.42,40.85,14.87.35,1.47.15,2.04-1.07,2.49-2.41-.52-4.32-1.48-5.73-2.88-3.19.06-6.22-1.32-9.55-2.55l-29.45-10.91,20.83-20.65c1.08.18,2,.72,2.93,1.26Z"/>
      <path class="cls-97" d="M469.99,116.06c-3.18,1.99-5.39,6.27-9.08,7.68-3.06,1.17-5.62-1.94-6.62-3.69-1.32-2.31-2.35-6.56-.08-8.83,3.91-3.9,11.84,1.8,10.83-2.23,1.96,1.16,3.57,5.2,4.94,7.07Z"/>
      <path class="cls-20" d="M478.02,129.06c.1.24-.06.6,0,.86-2.77,3.85-5.43,8.14-6.22,13.3-.34,2.26,1.2,5.87-1.06,7.61-3.57,2.75-8.96,2.76-12.93,1.67-2.85-.79-2.8-2.88-3.71-4.36-.23-2.04.24-5.66-2.44-6.71-1.99-.77-5.03-.05-6.75.56-1.12-3.69,7.76-6.25,10.02-3.64.58,8.71,4.19,17.5,13.19,9.21.38-6.3,2.32-12.22,5.83-17.76,1.22-.87,2.58-1.19,4.08-.74Z"/>
      <path class="cls-84" d="M506.32,306.99c-.28.75-.38,2.2-.37,3.02-.05.87-.61,2-1.08,1.81-2.99-1.19-9.15-11.75-10.71-15.41-1.34,1.98-1.66,5.03-.97,9.14-2.31,2.73-3.25,5.34-2.82,7.84-.59,7.63-1.54,15.25-2.83,22.88-1.34,2.45-3.08,3.35-4.77.75l.17-3.94c1.05-1.98,1.02-3.99.89-6.14l.11-1.86c1.15-3.49,2.33-15.3-.77-16-1.02-.23-2.08-.62-3.07-.99-2.83-.07-8.08-.79-11.1-1.17-.23.7-.45,1.24-.61,1.22-5.37-.56-38.1-4.32-39.53-5.72-.37-.37-.64-.85-.87-1.36-3.7-1.21-7.73-1.57-12.06-1.09-.31.86-.65.84-1-.03-5.13,1.16-9.77.84-13.94-.96-.17.73-.33,1.3-.5,1.3-5.05.05-11.9-.53-16.96-1.15-.18-.02-.32-.45-.43-.98-2.71-2.94,1.52-13.29,2.9-19.89,1.31-.16,2.69-.76,3.39-1.56,1.16-1.31.07-3.07.51-4.73l2.41-9.03c1.81.39,3.14,1.26,4.66.68,1.15-.44,1.78-1.89,2.84-2.83,5.19-4.55-.62-6.69,1.06-12.08.89-2.87,3.54-.85,10.31-7.48,2.77-2.72,6.54-.75,9.78-.71,1.91.03,3.56-.9,4.73-.1,4.72,3.21-1.08,3.31,5.03,13.01,4.42,7.02,8.35,14.55,15.13,19.67,2.48,1.87,4.32,2.64,4.93,6.4.42,2.59,3.76,4.2,5.63,6.2,11.82,12.66,12.73,3.71,24.12,9.57,2.23,1.15,3.77,1.48,4.86,5.18,1.5-3.01,1.56-16.77,7.12-16.31s2.91,17.94,13.8,22.86Z"/>
      <path class="cls-7" d="M505.11,313.96c-4.2,20.12-11.33,39.92-21.17,57.95-.46.26-.91.44-1.34.4-.83-.08-.44-6.95-.18-8.44,2.88-15.9,5.67-31.88,8.37-47.95-.64-7.17,2.76-17.26,10.01-9.03,1.31,1.49,3.99,5.44,4.32,7.07Z"/>
      <path class="cls-6" d="M505.95,310.01c.03,1.44-.55,2.6-.84,3.95-6.29-3.36-4.7-8.68-9.67-8.04-1.01.13-2.54,1.6-2.42,3.3.41,6.14-1.07,11.66-2.2,17.63-1.71,9.03-2.08,18.21-4.93,27.04-1.47,4.55-4.06,15.75-1.95,18.02-.79,1.45-.77,3.71-2.62,4.29-1.01-8.16.62-16.44.94-25.16l.51-14.04c.99-.12,2.26-.28,2.76-1.06.4-.64,1.01-1.86.79-2.82-1.56-6.92,3.65-10.04,1.68-22.98,8.44-8.34-2.18-11.11,6.48-16.77,2.48,2.96,3.08,6.3,5.06,9.25,1.39,2.07,3.36,3.35,3.82,6.16.2,1.17,1.92,1.25,2.59,1.23Z"/>
      <path class="cls-20" d="M391.38,216.19c-.5-8.96-.64-17.99-.14-26.99.67-3.29,3.16-5.22,7.45-5.8,9.88.12,13.16-4.51,12.91-14.1,1.18-1.86,1.94-3.64,2.3-5.34-5.71-1.38-10.7-4.34-14.99-8.88-2.57-6.45,7.09-5.38,9.05.57,3.51,2.1,7.53,3.37,12.08,3.81.79,3.56-.21,7.4-2.98,11.53-2.55,7.51,13.25,11.42,15.66,6.46,4.39-9.02,5.71-16.51-4.41-21.29-.14-1.78.78-3.62,2.77-5.53.66-4.25,2.26-7.15,4.79-8.71l1.13,1.07-4.14,13.16c4.87,1.73,8.13,5.64,7.06,10.99s-2.39,11.67-5.11,16.62c-6.74,12.26,2.33,17.7-1.67,20.54-3.32,2.36-9.57,3.75-13.34,1.92-3.68-1.79-7.01-3.87-10.47-.88-2.77,2.39-14.95,12.2-17.94,10.85Z"/>
      <path class="cls-63" d="M415.92,127.79c-3.33,3.2-7.46,6.73-7.45,11.77,0,1.97,3.52,4.86,1.86,6.78-2.23,2.57-3.97,8.09.15,10.06,3.52,1.68,8.4.57,12.53,1.95l-2.25,7.71,1.14,1.84c-5.09,6.58,2.09,8.46,7.62,7.93l3.41-14.77c-2.13-2.28-5.14-3.28-8.58-3.42-1.12-5.54,3.91-2.02,5.99-11.54.85-3.89,5.19-7.76,9.18-7.59,10.07.43,4.63-4.32,14.5-3.39,6.32,5.7-.34,12.32,6.76,14.37,2.79.81,5.8.48,6.94-2.77.71-2.02-.81-4.73.22-6.76,1.96-3.87,3.32-8.26,5.98-10.15-.43,2.72-1.13,5.65-3.03,8.15-2.37,3.11-.77,7.51-2.51,10.6-2.29,4.09-11.66,3.67-12.54-.35l-2.02-9.16c-3.27.17-6.8,1.13-8.93,2.94-2.59.92-5.17.81-7.91,1.01-3.95.29-1.25,8.58-7.42,11.86,2.56,3.17,6.2,4.39,7.84,7.62s-.68,6.72-1.85,10.2c-.87,2.62-1.38,8.2-5.15,8.69-4.28.55-10.55-1.82-14.01-4.65-5.35-4.37,7.23-13.88,1.55-16.24-4.42-1.84-9.54-1.87-12.63-5.76-1.07-1.34-2.17-2.01-3.7-2.08-1.71-.07-1.74,1.66-2.72,2.45,1.28,4.13-6.59,8.56-10.19,5.85-2.73-2.05-3.65-8.78,1.04-8.69-4.41-7.66-3.46-11.72,5.03-14.54-.35-6.04,3.5-7.57,11.57-4.59l1.66-1.04c-1.04-3.39,10.16-5.82,7.91-4.29Z"/>
      <path class="cls-2" d="M390.97,238.09l.17-9.09c2.97,1.73,2.97,7.58-.17,9.09Z"/>
      <path class="cls-2" d="M407.89,72.01l-24.9,9.16c-.58.21-1.47.94-1.48,1.34s.84,1.33,1.36,1.46c5.12,1.31,9.35,3.63,14.07,5.91,5.24,2.53,10.96,3.64,15.61,7.65l-17.63,7.43c-2.11.89-3.81,1.71-4.02,3.49-.45,3.86,7.66,11.97,11.05,15.51,2.43,2.54,3.14,6.42,6.04,8.13,2.32,7.59-7.88-1.21-10.63,1.49-.87.68-.07,3.26-.64,4.64-1.26,3.05-6.17,2.25-7.31,4.85-1.93,4.39,3.98,7.91,2.03,11.29l-2.79-.12c-.94-.04.32,5.29,2.03,5.61,2.9.53,4.34-1.67,8.22-4.76,2.58-.66,4.74.28,6.31,2.76,2.27,3.58,9.02,3.06,10.34,5.1.5.77.58,2.63-.15,3.43-2.99,3.31-1.91,6.47-2.54,10.74-.4,2.71-4.94,7.51-7.76,7.56-5.89.12-9.74,1.36-13.87,4.52.19-3.41-1.26-8.33.51-11.82,1.84-3.65,7.04-5.54,7.54-10.49-2.49-1.66-3.7,1.72-5.35,1.96-2.9.43-3.6-3.28-5.85-4.74-.43,4.05.62,7.49-.18,10.86-.69.26-.91-.29-.93-1.09l-.3-11.58c-.84-.07-2.73,1.12-3.26.31-.92-1.41-20.85-23.23-24.37-25.65-2.29,6.32-1.78,12.47-2.34,18.85-2.44.19-1.81-2.71-4.09-4.18-1.63,4.6,0,8.73-.91,13.4-2,.11-2.71-1.85-3.34-3.52l-13.4-35.39c-3.08.76-6.13,1.46-7.77,3.49-1.92.48-3.33-3.06-2.31-4.65,1.89,1.42,4.41.11,6.18-.32,3.02-.74,1.09-3.72,2.94-6.23,8.14,8.94,13.42,18.81,20.32,28.79l1.08-20.86c4.23-1.71,23.02,20.17,30.62,20.68l-7.95-17.73c-.1-2.58,1.82-3.63,5.76-3.15,4.03,1.3,8.02,2.58,11.98,3.83,2.23-.11,4.04,1.53,7.39.69-6.11-9.3-12.02-14.3-18.41-23.57-1.6-2.33-5.25-3.96-3.15-7.42l6.03,5.55c6.08-3.02,12.15-4.86,18.88-7.67-4.15-4.06-9.72-4.33-14.38-6.74-5.95-3.07-11.78-4.82-18.01-8.87l26.36-9.58c.97-.35,1.94-.87,2.2-1.83.12-.43-.29-.92-.61-1.43,1.27-.02,2.52-.28,4.07.04,1.14.23,1.9,1.36,1.66,2.84Z"/>
      <path class="cls-71" d="M483.94,325.06c.26-4.41.59-9.05-.09-13.84-.58-1.53-3.04-2.04-3.75-3.14,1.33,0,3.73-2.45,5.27-.23,2.11,3.04-.24,6.82-.13,10.18.09,2.69,1.63,5.72-1.3,7.03Z"/>
      <path class="cls-71" d="M482.94,333.06c.09-2.06-.62-4.53.89-6.14,1.02.81,1.54,1.98,1.07,3.33-.36,1.03-.82,2.31-1.97,2.82Z"/>
      <path class="cls-13" d="M432.94,161.06c2.33,2.49,1.72,4.67.58,8.62l-2.28,7.87c-3.6.88-9.23.43-12.11-2.62-2.41-2.56.05-6.74,1.64-8.86,2.17-.25,2.72-2.57,4.08-4.21,2.16-2.6,5.55-1.46,8.1-.79Z"/>
      <path class="cls-71" d="M414.94,299.92c.52,1.34-17.19,2.43-13.94-.96,4.61.77,9.6.81,13.94.96Z"/>
      <path class="cls-71" d="M428,301.05c-4.01-.06-8.43-.97-12.06-1.09,4.28.89,8.91-3.36,12.06,1.09Z"/>
    </g>
    <g>
      <path class="cls-101" d="M12.32,314.16l-.87-2.98,3.4-12.19c3.77-3.23,5.11-7.36,4.02-12.22,2.1-5.31,1.67-8.93-1.29-10.84l-13.24,4.77c-1.48.49-2.44-.47-3.16-1.87-.04-.8-.27-1.72-1.19-1.83v-6c.56,1.46,13.56-8.24,13.91-8.71,2.81-3.77,4.52-5.14,8.2-3.07,3.93,2.2,1.7,4.75,1.9,8.03,1.41,13.78,2.46,5.2.53,17.25-.82,5.1-.88,10.19-2.01,15.33-.42,1.91,2.88,2.32,4.05,2.14,1.02-.16,3.15,0,3.48-2.18.37-2.41-1.66-7.24.86-8.83,3.63-2.29,19,9.07,14.1,12.9-2.14,2.58-7.1,1.44-9.66,3.22-3.89,2.7-7.4,3.47-11.61,1.09-2.09-1.18-6.15-1.3-7.23,1.07-1.16,2.55-1.84,4.23-4.21,4.92Z"/>
      <path class="cls-81" d="M97.93,146.22c-.84,1.54-1.49,3.55-2.89,4.81-.1,2.29-4,5.7-5.96,4.94-1.09,10.8-3.66,14.64-14.09,8.69l-.77-1.86c.99-10.89-8.85-21.1-11.81-4.57,8.2,3.72,9.76,7.09,4.69,10.1-4.35,6.03-1.72,10.56,7.88,13.61,2.14,4.33-2.77,6.82-6.19,8.3-4.73,1.17-9.14,3.17-13.22,6.01,3.5,12.82-21.39,10.93-12.69-1.11,4.98-3.33,5.43-5.78.68-9.48-1.15-3.88-2.75-7.28-4.79-10.21-4.02-.3-6.86-1.9-8.52-4.8-.98-7.07-4.38-10.58-10.19-10.51l-.69-1.32c.28-.53.5-1.23.59-1.82l2.14-2.33c5.52,0,10.41,2.7,14.65,8.12,4.22-4.65,9.91-5.47,15.75-3.71,3.48-16.78,18.12-25.66,27.98-7.1,1.72,1.87,4.13.79,7.24-3.23,2.6-1.62,7.95-4.84,10.22-2.54Z"/>
      <path class="cls-51" d="M77.9,129.91c2.53-.18,3.79,4.12,3.47,6.28-.81,5.51-4.13,5.2-9.04,4.43-9.52-5.7-19.29,4.37-19.65,13.84-2.2,2.87-5.48,4.33-9.85,4.38-4.56,2.41-9.58,1.3-15.06-3.31-3.8-.45-5.63-1.61-5.48-3.48,1.26-4.35,3.7-8.17,5.78-12.04,8.05,1.39,12.02-4.19,6.71-10.85l.44-2.1c.92-1.06,1.28-3.48,2.72-4.13,2.11-1.26,3.87.08,5.27,4.02,2.74,10.88,6.35,14.09,10.83,9.63,2.63-5.82,6.31-9.92,11.05-12.29,5.07.53,8.12-1.27,9.15-5.41-9.55-.11-14.62-3.24-15.21-9.41l2.87-9.5c-.09-4.22.34-8.18,1.27-11.9.61-.66,1.23-1.32,1.97-1.85,2.22.01,3.54,2.13,3.96,6.36.4,9.42,4.35,16.94,13.42,9.22,3.86-1.09,6.07.82,5.75,4.85-.06.84-4.57,14.27-5.24,15.9-1.03,2.47-2.95,6.03-5.13,7.38Z"/>
      <path class="cls-58" d="M103.96,100.08c-.65,1.17-2.88,1.91-3.76,2.94-.03,1.17.53,2.61,1.66,4.32l-2.68,7.88-2.23.68-2.08,10.42c-1.84,2.37-4.62,3.61-8.35,3.73-4.48,2.73-7.35,2.68-8.61-.15-.81-3.02,2.49-5.56,3.4-8.47,1.6-5.07,2.22-9.86,4.83-14.5.76-1.36-.33-3.69-1.6-3.8-1.48-.13-5.86,4.63-9.86,3.72-1.94-.44-4.08-2.42-4.82-4.9l-4.72-15.74c-.13-1.7,2.24-2.23,2.88-3.12,2.78-.48,4.36,1.6,4.74,6.24-.19,4.21.31,8.04,1.5,11.49,9.84.2,10.52-9.75,6.99-17.05l1.58-1.79c-5.03-1.44-.38-9.59,3.06-11.85,6.57-4.32,11.93-2.4,15.32,4.63,9.99,7.28,14.67,17.26,2.75,25.32Z"/>
      <path class="cls-17" d="M102.92,137.1l-4.99,9.12c-13.69,5.97-6.59,2.85-13.59,8.17-2.65,2.02-5.42-.37-6.64-3.12-2.47-5.58-9.28-9.8-14.91-6.4-5.3,3.2-6.33,10.2-8.64,15.27-1.58,3.47-9.01-4.19-14.89,3.09-5.48,6.78-8.58-11.66-19.33-6.23.28-1.83,1.86-3.26,2.35-4.95,3.41,1.68,7.87,2.09,11.16,4.5,3.03,2.22,4.67,2.7,8.15,1.11,2.96-1.35,6.9-.82,9.3-3.86-.24-5.78,3.18-10.15,7.35-13.64,9.95-8.32,11.93,1.59,21.15-1.93.22-2.99-.8-5.74-1.49-8.33,2.55,1.06,4.76-.52,7.45-1.56s7.11-.38,8.31-3.59l3.3-8.84,1.99,1.65-.65,10.53c3.78,2.91,5.32,5.92,4.62,9Z"/>
      <path class="cls-42" d="M37.94,122.92c6.3-12.34,15.75-24.58,25.23-34.86,3.78,13.77-3.62,20.74-2.12,23.85,3.64,7.58,20.53.32,13.41,11.17-4.36,6.64-10.12-2.45-16.27,10.83-1.66,3.59-4.35,6.39-8.37,6.83-6.02.66-6.34-13.68-11.88-17.83Z"/>
      <path class="cls-64" d="M105,50.01c4.38-1.71,6.74,4.47,2.01,7.05,3.16,3.52,4.13,7.98,2.93,13.38.46,4.68,1.97,9.22,4.52,13.62,1.32,4.78,1.21,7.24-3.49,10.08-2,2.26-4.01,5.27-7.01,5.95l4.5-5.74c2.82-3.6-.68-11.23-4.24-14.4-2.41-2.15-4.72-3.24-6.02-6.27-1.42-3.32-5.33-4.77-8.87-3.25-4.64,1.98-7.66,7.27-6.5,11.54-.86,4.63-13.33,1.34-10.68-3.13,9.04-11.24,21.25-20.32,32.84-28.83Z"/>
      <path class="cls-9" d="M113.87,54.99c-.41-.29-.76-.6-.9-.98-.96-2.71-2.49-7.96-.11-9.76,6.64-4.87,13.47-9.84,21.19-12.97-.03,2.15,2.15,1.87,3.95,2.4,8.63,2.54,16.64,4.97,25.71,8.32-8.77,3.9-17.57,6.26-26.39,6.64-1.11.05-12.33-5.5-15.54-1.31-.91,1.19-.63,2.92-1.09,4.61-.84,3.07-4.57,2.53-6.81,3.06Z"/>
      <path class="cls-73" d="M18.01,180.06c.25,1.81-.03,3.95-.82,6.4.48,2.4,2.93,3.5,7.34,3.3l.66,1.39c4.47,2.68,3.42,5.31-.76,7.52-17.6,1.53-13.56,13.5-3.28,23.36-.1,2.59-1.09,5.3-2.98,8.14,1.2,10.88-3.31,14.89-11.11,5.37-1.92-2.35-4.25-6.53-4.87-9.39.22-.62.12-1.66.07-2.32.73-2.8,1.97-2.34,3.99-.7,5.4,11.86,7.56,14.11,6.5,6.76,3.3-7.7-1.42-14.97-7.26-19.76l-.43-2.15c1.73-12.57,4.87-25.24,9.88-36.94,1.03-1.86,2.77,1.41,3.34,3.05.72,2.07.85,4.01-.24,5.97Z"/>
      <path class="cls-102" d="M33.9,176.1c2.89.43,5.47,1.93,6.17,4.95-.04.94,0,1.93.05,2.87,1.02,4.66,1.48,9.82-1.12,14.08-.3,1.37.1,4.74,1.21,5.62,3.82,2.51,8.81,1.9,13.26,3.02.93,4.35,2.58,8.96,7.53,9.32,2.2.16,4.89-.67,6.1.95l-10.09,1.71c-5.28,14.31-15.94-.25-6.18-7.4-.39-1.34-1.78-2.37-4.16-3.1-7.99.84-11.3-1.93-9.93-8.3-1.27-5.77-1.84-11.8-1.69-18.08-5.81-3.73-10.12-8.97-12.93-15.71-2.37.62-2.45,2.36-.26,5.21,1.2,4.03.88,8.21-.96,12.55,1.24,1.99,3.74,3.27,7.51,3.84,4.2,2.71,6.26,7.99.65,8.5-.96-.41-1.53-1.56-1.72-3.46l-2.13-1.52c-2.14-.3-5.55.57-7.51-.58-5.01-2.94-1.21-7.23.34-10.51,1.7-3.3.47-6.89-2.03-9.42l-.1-2.72c.65-2.33,1.21-4.63,2.58-6.7,1.62,1.28,4.27-.05,6.26,1.23,4.47,2.87,1.89,10.88,9.18,13.66Z"/>
      <path class="cls-38" d="M82.84,81.97l2.55,9.37c1.1,4.03-3.08,8.86-6.75,11.06-1.88,1.13-4.83.9-6.04-.39-3.48-3.71.8-12.66-4.59-18.93.26-2.35,3.03-2.86,4.14-4.24,2.73,3.35,6.55,3.49,10.68,3.13Z"/>
      <path class="cls-68" d="M113.87,54.99c-1.95.47-3.9.75-6.19,1.79,1.17,2.15,2.68,3.57,4.26,4.25,1.85.98,3.16,2.23,3.95,3.76-.89,7.47,1.27,13.57,4.48,20.14l-1.39,2.02c-2.71,1.78-4.19,6.66-8.01,7.19.7-.79,2.24-2.2,2.54-3.38.49-5.36-2.93-9.62-4.69-14.45-1.92-5.25-.01-11.15-.69-16.4-.15-1.17-2.54-1.89-1.84-3.22.34-.64,1.5-1.74,1.54-2.7.08-1.86-2.13-2.73-2.83-3.98l7.86-5.77c-.24,4.92,3.81,7.53,1.01,10.75Z"/>
      <path class="cls-16" d="M2.24,223.82c-.42-5.47,2.08-10.69,2.79-15.85,4.64.3,11.48,12.83,10.97,15.9s-1.9,5.78-1.06,9.19c.28,1.14-.42,2.21-.95,2.54-6.3,3.99-6.24-13.69-11.75-11.78Z"/>
      <path class="cls-37" d="M29.03,196.13c2.36,1.61-.9,3.54-2.95,4.53-14.2,2-11.83,12.38-2.94,19.51,1.3,3.27.25,7.09-3.14,11.44l-.16,2.84c3.53,11.12-8.04,11.54-12.75,3.41-3.61-3.38-2.18-8.69-5.99-5.78-.33-2.08.4-3.99,1.07-5.93,4.93,1.07.78,4.15,8.58,11.11,1.25,1.12,2.27,1.85,3.75,1.75,4.75-.32.66-7.49,3.23-11.22,1.01-1.47,1.92-2.7,2.03-4.11.16-2.09-2.07-2.72-3.19-4.33-2.47-3.53-4.29-7.56-5.97-11.77-1.02-2.56,1.51-6.87,3.88-7.76,4.04-1.53,8.4-.96,11.79-3.7,1.77-1.43-.13-3.81-1.08-4.96,1.29.18,2.43,0,2.95,1.16.63,1.43.8,2.6.9,3.82Z"/>
      <path class="cls-19" d="M28.07,140.01c2.33-4.33,3.84-9.18,7.15-12.95,2.67,1.56,3.99,4.41,3.83,7.96-.14,3.04-1.48,5.64-3.95,6.48s-6.07,1.24-7.02-1.48Z"/>
      <path class="cls-37" d="M18.01,180.06c1.3-2.76-.49-8.11-3.1-9.02.34-.8.74-2.28.98-3.12.75,3.18,5.66,7.19,2.13,12.14Z"/>
      <path class="cls-101" d="M137.06,346c-4.66,4.3-10.36,7.46-16.16,10l-3.77.3c-3.45,2.13-6.85,4.74-10.21,7.82-8.12-.71-15.71.66-22.79,4.12-3.69-1.03-5.89-2.7-7.03-6.33l-1.48-.21c-.99-5.28-2.79-10.11-5.42-14.51-4.91.81-9.26.6-13.06-.61l-3.12-4.13c-4.97-1.33-9.92-2.71-14.87-4.15-6.04,2.66-12.1,5.38-18.17,8.13-2.05.64-3.58,1.11-4.7-1.15l-4.2-13.31c3.11,1.31,2.19-9.01,9.31-8.73,2.95.12,7.79,3.57,6.39,6.48l-2.61,5.4c-.7,1.45.22,3.09,1.4,3.59,2.77,1.16,6.65-6.46,13.54-6.46,4.43,0,11.37-1.73,11.6-7.47.2-4.98,3.41-11.72,9.38-10.73,4.21.7,6.07-2.43,9.64-3.17,3.99-.82,8.69-.17,13.47-1.46,4.18-1.13,10.14,2.98,14.39-.82,2.29-2.05,1.97-5.87,3.51-8.59,2.07-3.65,8.17-4.89,11.62-2.93,1.72.98,3.29.9,4.37.35,2.31-1.19.09-7.18,3.41-6.46,2.21.48.4,13.97.4,13.99-1.48,4.28-7.61,6.14-9.45,10.22-3.85,8.52-10.06,10.68-12.73,15.16-4.32,7.25-3.55,11.77-9.79,15.01,1.76,2.02,2.78,3.2,4.53,3.26,1.18.04,3.04-2.11,4.05-1.89,4.3.94,7.36-.68,11.18-1.07,9.46-.97,15.49,1.43,21.72-2.42.94-.58,3.44.02,4.59.3.75.19,1.08,1.41,1.08,2.46Z"/>
      <path class="cls-88" d="M77.1,361.9l2.05,3.85c5.39,1.72,9.32,5.42,11.81,11.1l-1.73,1.86-5.16,4-1.41-1.68c2.16-6.28-.99-9.88-7.1-11.74-2.51-3.84-4.26-8.33-5.23-13.46-2.98-6.81-9.54-4.36-6.33,2.89,10.79,12.2-.32,21.81-11.4,11.23-5.25-.06-10.48-.34-15.7-.83-3.11,1.79-3.57,5.71-1.39,11.77-.57.79-1.39,1.06-2.4.9-6.71-11.67-12.8-23.71-16.84-36.53,16.22-1.82,17.33-14.87,32.43-5.81,1.96,1.17,4.63-.01,6.58,1.44,1.69,1.26,2.26,4.78,5.09,5.03,3.25.29,9.5-2.83,11.86.49,3.24,4.55,3.15,10.71,4.87,15.47Z"/>
      <path class="cls-91" d="M84.07,382.71c-3.38,2.62-6.22,5.96-10.03,8.04-6.43-5.65,0-10.86,5.57-14.31-4.52-8.61-22.73,3.35-19.46,11.39-1.69,10.32-13.05,12.08-19.85,5.17-1.88-3.69-5.03-7.47-7.18-11.21,1.95-1.81-3.28-9.17.36-12.79,4.45-4.42,8.77-.27,16.48-1.1,9.01-.97,6.19,8.18,14.37,3.93,7.91-4.1-4.99-9.57-3.07-18.9.43-2.06,5.4-3.97,7.28-2.57,4.09,3.06,5.06,8.53,5.86,13.22,1.13,6.66,8.65,4.91,10.09,10.42.83,3.18.97,6.24-.43,8.71Z"/>
      <path class="cls-96" d="M74.04,390.76l-3.88,4.47c-1.07,1.23-1.41,3.42-1.06,4.65.95,2.12.86,3.55-.27,4.3-1.56,1.65-14.87,9.71-16.73,5.8-4.36-5.46-8.61-10.66-11.81-16.96,1.22,0,2.53-.03,4.06.85,4.79,2.75,12.14.97,13.62-4.76.69-2.68-1.09-6.15.87-8.45,3.39-3.96,8.42-7.53,13.45-9.19,4.39-1.45,9.6,1.93,9.47,6.2l-7.21,4.86c-2.18,1.47.01,5.79-.52,8.22Z"/>
      <path class="cls-75" d="M12.32,314.16c-1.76.52-2.7,2.83-4.26,3.69-3.67-12.63-6.23-25.79-6.87-39.02,7.53.88,15.5-8.36,19.35-3.43,2.53,3.23,1.37,7.73.3,11.44,1.11,5.14-.23,9.84-4.28,13.04-.84,5.19-2.15,9.89-4.24,14.28Z"/>
      <path class="cls-34" d="M78.81,425.93l-1.24,1.56c-5.9.42-11.69-2.04-17.38-7.4l-8.08-10.12c5.15-.34,8.84-3.66,13.32-6.51,1.78-1.13,4.46-.89,3.68-3.59,4.12,8.28,6.16,17.46,9.7,26.06Z"/>
      <path class="cls-65" d="M78.81,425.93c2.8,6.81,5.09,13.81,7.28,20.84-9.98-7.34-18.23-17.08-25.89-26.68,4.99-1.02,9.4,5.86,13.78,5.82,1.87-.02,3.51-.94,4.84.02Z"/>
      <path class="cls-2" d="M115.88,208.82l1.04,1.01,2.68,21.43c-3.69,16.74.72,33.92,8.15,49.23.21.93-1.49,5.2-2.65,5.61-3.94-12.5-2.79-1.61-5.26-12.81-.76-3.45-2.47-6.37-2.16-10.09.62-7.48-8.06-1.93-7.4-9.37.14-1.55.39-3.61,2.76-3.72,1.25-.05,3.17-.52,3.4-1.68.66-3.35-5.58-3.76-7.26-4.3-.86,3.07-1.2,5.76-4.53,7.7-1.7-2.4-1.51-5.05-1.17-7.73.2-1.56,2.9-.54,4.69-1.52-2.33-3.32-6.23-4.83-8.88-8.04-1.16-1.4-1.84-2.71-3.7-2.2-1.29.35-1.52,1.65-2.03,3.16-3.5,10.35-11.02,17.44-3.55,23.81-1.43,3.1-.19,7.19-1.96,9.99-1.9,2.99-8.31,2.39-9.99,5.38-2.96,5.38-6.44,7.49-11.51,10.11-2.91,1.51-4.92,4.95-8.76,6.13-1.46.45-1.43,3.95-3.48,3.86s-3.38-.84-5.17-1.89c-9.55-5.57.78-4.51-6.23-19.95-.74-1.64-.59-3.37-1.65-3.86-3.86-1.77-6.26.92-8.81-1.03s-2.14-10.9-4.04-13.22c-3.89-4.76-2.37-9.3-2.93-14.61-.44-4.18-3.38-8.17.98-11.98,2.08-1.81,5.32-2.48,7.78-3.99,8.24-5.05,8.33-.33,19.56,8.89,1.81,1.49.06,7.39,2.68,7.87.42.08,1.66.08,1.85-.67,1.06-4.14,8.92-11.18,12.72-9.77,3.51-2.47,14.64-14.04,19.1-13.17,2.73.53,1.09,5.15,4.39,4.74,1.84-.23,2.28-1.19,2.01-3.26-.67-5.22-9.55-4.52-8.63-10.35.42-2.66,1.33-4.42,4.44-5.35,4.44-1.33-1.32-9.28,6.04-12.59,1.67-.75.92-3.36,1.97-4.38,2.28-2.2,6.1-2.35,9.59-2.07l.97,10.64c.52,5.66-.2,11.23,4.94,14.04Z"/>
      <g>
        <path class="cls-56" d="M114.69,202.25c2.71-1.4,2.98,5.45,1.19,6.57-1.89,1.84-2.76.83-4.19-1.01-2.34-6.79-3.52-13.99-3.54-21.6-4.6-.66-6.57.8-7.75,5.29-3.53,1.76-4.94,4.96-4.23,9.62-.67,2.31-2.46,4.04-5.38,5.21-1.97,3.22-.33,5.79,4.9,7.71,7.93,7.83-2.78,15.31-5.91,5.26-6.2,3.12-11.93,7.32-17.17,12.59-6.23.54-10.42,4.64-13.11,10.1-5.89,3.17-6.75-2.71-6.94-7.33-1.65-2.33-11.31-11-14.17-10.24-2.26.6-11.25,5.08-12.05,7.25-.35.94,1.72,17.87,2.32,19.85,2.4,4.29,3.96,9.14,4.68,14.52,3.27.26,6.55.97,9.83,2.14,2.53,4.88,3.99,9.97,4.37,15.27-3.48,5.99,5.83,12.59,8.5,6.27,5.43-3.53,10.84-7.15,16.21-10.87,2.38-3.34,5.05-6.05,8.02-8.12,7.68-.34,8.97-8.02,5.61-13.37-3.4-3.17,5.26-23.77,7.27-25.7,1.45-1.38,3.02-1.8,4.9-1.03,4.37,3.75,8.55,7.66,12.57,11.75,7.34-.19,9.83,9.2,2.05,9.75-1.4,3.08.05,4.84,4.34,5.28,1.81,8.15,4.35,16.04,7.63,23.66l.47,4.98c1.27,2.26,1.9,5.13,1.89,8.61,1.59,7.45,4.16,14.58,7.7,21.41-.11,4.79.45,9.61,1.7,14.47,2.38,4.73,4.12,9.49,5.22,14.28l-1.43-.03c.42,2-2.19,3.07-3.13,1.18-3.4-1.18-7.1-.76-11.08,1.26-9.27.2-18.46.69-27.58,1.49-7.44,4.86-13.8-2.89-5.63-8.47,1.77-4.26,3.82-8.36,6.15-12.31,5.45-4.53,9.88-9.88,13.3-16.03,5.95-3.54,8.72-8.17,8.3-13.9l-4.02,1.78c-5.36-2.49-9.6-2.09-12.7,1.2-1.03,7.42-4.56,11.16-10.57,11.21-7.69-1.01-15.45-.68-23.29.99-4.14,3.13-7.09,3.41-8.85.83-6.12-.98-9.81,3.19-11.06,12.51-.04,3.06-16.02,6.59-17.09,6.39-.83-.16-1.54-.65-2.2-1.15-1.02-4.57-3.42-7.72-7.2-9.46-13.17-2.23-9.04-11.8,2.51-10.05,7.33-2.27,14.59-4.89,21.77-7.86l-.35-3.14c-4.32-7.05-10.87-12.51-19.65-16.38-1.71-2.66-.1-5.31,1.54-7.53l-3.85-10.47c.17-12.31-7.03-12.24-14-3.82-5.47,2.48-12.53,5.42-10.99-3.43l-.52-1.65v-2c1.18-1.78,3.69-1.53,7.54.77l5.97-5.68c-5.04-3.06-10.05-6.32-13.51-11.08v-3c1.73-3.21,4.39-1.55,7.98,4.97,7.86,6.72,18.2,3.29,13.38-8.03.17-2.9,1.59-5.6,4.26-8.11.25-8.98,15.62-14.72,18.9-5.72,5.96,8.61,10.03,14.08,15.79,1.5l1.62-1.2c15.95,3.64,25.02-2.83,19.26-19.67-4.42-4.51-4.87-7.6-1.34-9.27,8.78-1.38,13.15-5.33,13.13-11.85l1.73-1.9c7.42,2.6,13.67,4.23,17.65-4.43,5.85,2.38,6.97,7.98,3.37,16.79-.06,4.3-.4,8.36-1.04,12.16Z"/>
        <path class="cls-66" d="M61.09,314.04c-2.02,1.5-3.9,3.14-5.65,4.92-.93,5.39-2.9,9.67-5.92,12.84-5.32,1.4-10.59,2.89-15.79,4.45-4.92,3.93-11.33,7.39-10.35-2.02,5.71-5.92-.28-12.28-5.59-6.86-1.86,5.55-3.76,7.08-5.7,4.6-1.51-4.78-2.64-9.34-4.03-14.11-.15-3.04,1.37-6.14,4.26-3.69,1.91-2.51,3.53-5.23,4.86-8.15,3.99-.28,8.21.21,12.66,1.47,4.7-1.97,9.4-3.73,14.11-5.29-2.91-6.42-15.64-16.46-11.94-2.01-2,5.27-10.38,5.36-11.43-.41,2.78-10.72,3.94-21.66,1.45-32.42,1.36-5.05.1-7.32-3.78-6.83-3.14,3.25-11.95,11.31-15.83,12.03-1.37.26-1.89.17-2.41-1.54v-13c1.62.79.96,2.83.89,5.88l9.58-1.48c3.89-.6,5.47-6.55,9.47-6.92,3.4-.31,6.33,4.73,6.56,7.76.4,5.43,2.86,9.92,5.25,14.17-.97,1.57-4.37,5.42-1.86,6.75,7.69,4.06,21.42,12.16,19.82,22.62-15.92.48-12.46,7.48-25.49,7.56-2.71.02-6.21-.95-6.9,2.74-.6,3.18,10.84,1.66,14.8,13.42,2.4,1.58,6.12-.52,8.32-.61,14.64-.57,6.45-14.62,17.43-16.93,1.44-.3,3.18.13,3.22,1.08Z"/>
        <path class="cls-2" d="M0,256v-16c3.22-.99,4.62,2.36,6.77,4.44,2.72,2.63,7.21,2.88,9.28,6.48-2.1,3.32-5.11,5.75-8.23,8.06l-7.82-2.98Z"/>
        <path class="cls-26" d="M120.1,174.57l.63.47c-1.65,7.31-2.56,14.63-2.73,21.95.86.24.83.58,0,1-.62,4.12-1.72,5.54-3.31,4.25-1.34-1.58-2.38-2.98-1.15-5.96,1.04-2.52-.35-6.17,1.16-8.67,2.59-4.28,2.53-9.59-2.17-12.65-2.03,1.66-3.09,5.15-6.03,5.79-3.53.76-7.29-1.69-10.91-1.4-2,1.98-1.27,5.23-2.94,7.19-5.75,6.75-18.28,3-11.84,11.68,3.04,4.1,3.02,17.43.88,19.82-2.31,2.58-10.6,5.37-15.68,3.87-8.03-2.37-2.71,7.81-12.39,8.05-8.24.21-8.29-14.86-16.81-12.07-2.11.69-5.01.69-6.64,2.43-2.27,2.41-3.19,5.79-5.73,8.06-6.71,5.96,2.57,9.73-1.95,15.5-1.86,2.38-4.51,3.18-7.77,2.45-11.51-2.59-9-9.98-14.72-9.32v-2c1.16-.37,1.26-1.88,1.1-2.93,1.67-6.64,6.4,2.62,5.99,5.78,5.01,8.37,16.57,7.45,12.73-3.69.02-3.25,1.33-6.2,3.93-8.85,1.06-3.23-.27-5.85-3.99-7.86-7.51-10.02-2.29-14.68,7.43-17.35,7.12-8.08,11.48-2.98,8.91,6.11,1.59,1.67,4.72,2.23,9.4,1.68,4.43.49,4.76,4,1,10.52l1.2,3.36c1.43,1.45,2.19,2.84,2.25,4.19,1.84,1.12,3.52,1.19,5.03.21,3.48-6.86,5.68-10.15,14.05-6.13,1.11-.78,3.64-1.31,4.84-.15,8.03-2.22,7.64-11.36,5.64-17.97-6.62-5.32-7.42-9.19-2.42-11.6,5.88-1.79,19.28-6.49,9.71-12.64-9.69-2.69-1.46-9.45,4.83-5.24,7.41,5.53,18.09,9.04,19.04-4.08l1.46-.43,1.82-.8c2.23.57,6.34,5.04,6.14,7.42Z"/>
        <path class="cls-2" d="M56.07,299.48c-.14-.16,2.95,7.17,1.44,7.62-2.91.87-3.67-6.9-3.61-7.35.18-1.23,1.78-.7,2.16-.28Z"/>
      </g>
      <path class="cls-29" d="M111.05,164.87c-.02,1.07.65,2.22,1.09,3.08-.83,3.39-1.31,9.11-5.62,10.47-10.57,3.35-18.7-10.37-22.72-3.7,2.17,1.92,5.6,1.44,7.03,3.49,3,4.3-1.27,9.53-5.92,10.54-3.4.74-10.71,3.09-9.53,6.51,1.28,3.72,7.35,3.15,6.73,14.77-.16,2.9-.11,5.3-1.98,7.46-1.65,1.91-3.72,2.14-6.24,2.4-.47-.96.23-1.67,2.09-2.13,3.96-7.92,3.34-17.08-6.08-21.27.01-4.42,3.16-7.83,9.44-10.23,11.01-3.77,9.14-6.26-5.63-7.46-10.06-2.63-8.39-10.3,1.94-10.69,7.28,2.28,11.98.97,14.1-3.93-.72-6.21,1.28-9.99,6-11.34l1.49.05c1.14-1.57,6.81-.94,8.05-.12,9.08,5.98-2.85,14.27-8.23,17.69,2.13,3.52,8.15,5.38,10.02.83-.1-4.89,1.23-7.03,3.97-6.42Z"/>
      <path class="cls-92" d="M118.98,86.94c-1.87-5.39-5.38-10.52-5.16-16.88.12-3.46.74-6.99-1.88-9.03,8.2,3.53,16.07,7.61,25.56,11.08-5.81,6.29-12.09,10.8-18.52,14.83Z"/>
      <path class="cls-69" d="M107.91,103.94c5.4-1.11,12.25-1.14,6.64,5.45-8.81,2.3-10.73,5.35-5.75,9.14,1.82,2.54,1.57,5.72-.74,9.52-1.05,3.43-3.42,5.91-5.14,9.06-10.01-15.34-5.98,1.55-5.96-21.19.76-2.04.05-5.35,3.11-7.07-.06-2.49-2.21-4.59.14-5.82.13.6.17,1.48.63,1.69,1.38.64,4.76-.99,7.08-.78Z"/>
      <path class="cls-72" d="M105.86,146.03c5.12.78,8.44,2.82,9.96,6.14l-4.77,12.7c-.4,1.06-1.86,1.86-1.66,3.89.31,3.25-1.74,6.35-4.15,6.91-6.07,1.42-10.21-3.62-10.27-5.22-.12-3.38,15.99-8.09,10.29-15.28-1.55-1.96-6.64-.14-8.03-2.28,1.49-3.62,5.83-4.53,8.63-6.87Z"/>
      <path class="cls-89" d="M108.06,128.04c3.17-10.36-5.76-8.72-3.79-14.29,2.67-7.57,9.45-1.94,10.67-9.23-2.58-.53-4.82-.39-7.03-.59-4.21-.74,16.84-2.64,13.15.27-3.59,8.61-8.63,16.23-13,23.84Z"/>
      <path class="cls-30" d="M115.81,152.17c-2.62.12-3.9-2.84-6.88-3.17-.93-.1-2.76.15-3.51-.55-.49-.45.47-1.63.44-2.42,2.12-1.77,10.89-10.88,15.09-11.02-1.12,6.34-3.12,11.78-5.14,17.16Z"/>
      <path class="cls-103" d="M67.09,216.91c1.02-.11,1.92.63,2.82.93,1.97.64,4.09.45,6.07-.07-.88.36-1.43,1.5-2.09,2.13-1.56.16-3.38,2.12-4.84.15-3.7-1.56-8.03-3.07-10.94.59-1.69,5.64-4.41,7.42-8.14,5.33-2.31-1.36-3.56-3.97-4.57-6.03-1.54-3.13,1.47-5.35,1.92-8.23.93-5.98-9.45.28-12.38-3.18-2.73-3.22,2.5-7.79-.18-9.92-1.32-1.04-3.44-.59-4.59.65-3.01,3.24-8.28,3.26-11,6.97-2.71,3.68.08,9.71,3.4,11.98,2.14,1.47,2.82,3.27,2.81,5.27,0,1.58-.79,3.17-2.23,4.5-6.69,6.15,3.66,14.17-6.1,16.05-4.96.96-8.87-1.85-9.96-6.18,2.71,2.54,8.42,7.47,12.16,2.73,1.74-2.2-3.4-7.72,2.75-14.53.86-.95,1.01-2.31.94-3.39-.22-3.89-3.86-.62-7.06-9.58-.96-2.7-3.09-5.76-1.41-8.74,3.03-5.37,12.78-2.13,14.56-8.22.47-1.61,2.47-2.92.49-5.13-3.1-3.45-7.77-2.31-9.48-4.57-4.24-5.61,4.82-6.81-1.74-17.92-1.34-2.28,4.05-6.08,5.22-4.04l6.17,10.76,7.62,5.72c-.26,3.6.26,22.72,1.71,24.09,3.19,3.01,12.97.06,13.76,5.6.52,3.66-6.21,3.72-4.46,9.52.44,1.45,2.26,4.45,4.28,3.3s1.62-4.82,3.73-6.26c3.75-.61,7.37.06,10.75-.29Z"/>
      <path class="cls-8" d="M120.9,356c-2.47,3.77-7.1,5.33-10.88,8.12l-14.88,11c-1.88,1.39-4.38,2.4-5.9,3.58.77-1.28-1.47-2.03-1.76-3.1-2.48-9.3-11.38-6.22-10.38-13.71,1.62.01,1.76,2.29,2.74,3.17,3.06,2.73,6.28.4,9.28-1.01,10.79-5.07,17.18,3.08,22.39-6.58.98-1.81,3.29-2.64,5.16-3.13,1.58-.41,3.62-.42,4.23,1.64Z"/>
      <g>
        <path class="cls-72" d="M89.08,155.96c.53.26.97.54,1.09.92,1.21,3.83-.98,13.08-6.84,12.18-4.26-1.59-19.64-1.77-15.86,5.97,1.18,2.42,3.49,3.23,6.01,3.72,7.67.03,10.66,2.03,8.97,5.98-5.26,2.73-10.19,5.89-14.79,9.47,3.61,2.61,6.84,5.56,9.67,8.85,1.41,7.14,2.31,15.51-7.43,14.78-.98,1.05-2.53.35-2.82-.93l-11.08-.83c-1.86-2.11-3.03-4.97-3.5-8.57l-9.92-1.89c-3.92-1.5-4.96-3.73-3.6-7.63,2.53-4.36,2.15-9.27,1.12-14.08-2.04-.52-2.08-2.27-.05-2.87-.83-3.03-3.2-4.45-6.17-4.95l-.89.56c-3.67-3.51-6.64-7.93-8.94-13.25-1.51-.72-3.22-.65-5.11.2l-.5-2.4c.45-.68.51-1.66.9-2.39,17.29-.5,4.44,14.66,20.83,14.95l5.09,10.91c.86,1.84,3.44,2.39,3.57,4.05.64,8.17-8.72,7.15-6.42,12.4,1.57,3.58,10.45,3.29,11.34-.89.43-2.04-.91-3.75-.1-4.93.95-1.38,3.26-1.32,4.37-2.34,9.13-8.46,12.97.19,15.48-7.85,1.46-4.67-8.84-5.03-9.52-9.75-1.05-7.23,4.31-8.38,4.22-10.9-.08-2.3-3.59-.98-7.29-4.96-2.07-2.22,2.45-13.7,8-11.98,4.94,1.54,7.49,8.49,7.12,13.22-.47,5.97,8.21,5.94,8.06,5.99,4.09-1.57,1.6-6.9,4.98-10.79Z"/>
        <path class="cls-74" d="M95.74,152.85c-.9,2.13-3.32,3-4.9,5.11.79,4.33-.08,8.09-3.01,10.55-2.65,2.23-6.49,2-10.27.85-3.46-1.05-9.79-.15-9.21,4.69.91,7.62,18.12.27,19.99,7.46.7,2.72-4.13,5.54-6.56,5.86-5.49.72-10.72,5.45-10.23,7.97.94,4.9,9.04,1.8,7.39,14.75-.39,3.05.06,6.43-2.95,7.67-1.93,1.14-5.99,3.29-6.07.07,1.5-1.65,3.82-.77,6.39-1.88.68-3.99,1.72-8.99-.3-12.93-2.67-5.22-10.56-5-10.43-9.45.04-1.57,1.97-1.2,3.1-1.96l13.38-9.01c-2.18-2.4-17.91-2.44-15.82-10.38,2.75-10.46,18.37-.48,21.95-6.17,1.88-2.99-.31-7.15.89-10.08,1.73-1.98,4.01-3.18,5.96-4.94.11.65.22,1.34.7,1.83Z"/>
        <path class="cls-81" d="M72.34,214.3c-4.01.56-7.35-2.23-11.32-1.42-3.11.63-3.72-3.58-4.12-5.82-.6-3.35-.75-7.71,3.5-8.76,4.81-1.19,11.5,1.85,14,6.02,1.39,2.32.69,9.6-2.06,9.98Z"/>
        <path class="cls-74" d="M39,198c.76-3.45,1.32-10.23,1.12-14.08,1.65,4.24,3.49,9.91-1.12,14.08Z"/>
        <path class="cls-74" d="M40.07,181.05c-1.61-1.9-3.72-4.01-6.17-4.95,1.54-.17,3.09.18,4.51.95s1.72,2.37,1.65,4Z"/>
      </g>
      <path class="cls-29" d="M69.05,220.06c-1.22-.04-2.85-.15-4.44-.68-7.75-2.6-5.49,6.67-11.2,8.43-1.59.49-2.23-1.12-3.43-1.83,1.56-.02,3.36.45,5.02-.42,1.3-.68.9-3.08,1.96-4.66,2.67-3.98,9.2-4.14,12.1-.84Z"/>
      <g>
        <path class="cls-1" d="M241,0c9.01,5.24,18.3,10.94,27.89,17.09,7.45-3.66,14.63-8,21.53-13.03l8.67-.11c1,1.26.61,1.77-.41,2.66-2.67,2.32-23.25,16.05-25.77,16.9-1.91.64-3.38.91-5.36.1-8.51-4.46-16.74-9.45-24.68-14.95,1.98,5.6,3.23,11.28,3.74,17.02l-1.26,2.13c-15.09-5.02-30.56-10.02-46.4-14.99,4.69,3.88,7.52,8.23,8.5,13.05l-1.53,2.02c-17.59,1.95-35.27,3.77-53.04,5.45,6.94,1.24,12.7,3.86,17.28,7.87.21,3-2.3,5.11-7.51,6.36-14.56,4.25-29.22,8.12-43.99,11.6l14,6.07c8.19,1.58,11.14,4.74,8.84,9.48l-27.2,23.43,12.02-.48c1.52.69,1.96,2.01,1.74,3.66l-20.13,37.06,6.97-5.47c6.35-3.78,11.66-6.67,10.43,3.84l-5.31,18.16,3.92-3.32c2.44-6.45,5.23-12.75,8.38-18.9l2.4.3c1.01.15,1.13,1.17.36,3.07l.65,3.37-4.43,10.36c-.82,4.38-2.53,7.73-5.15,10.06l-2.42,5.44-2.99-2.82c-2.01,2.92-4.27,4.47-6.78,4.64.38,2.68.04,2.82-1.82.8-2.24,1.07-1.77-1.22-1.09-3.08-.68-.36-1.65-.91-1.57-1.5.32-2.45,3.51-11.58,6.34-11.2l-1.02-3,3.45-10.98-9.98,8.36-2.41-.53c-.79,3.64-4.84,6.24-8.63,6.87-.31,1.93-1.11,1.89-1.49-.05-2.02.54-2.16-.35-.7-1.83-.98-1.43-.01-3.03,2.89-4.81-2.85-1.31,1.98-9.9,4.99-9.12-1.52-2.91,2.07-8.82,5.14-9.06l1.49-6.38,9.05-16.81-3.63-.18c-1.73-1.44-4.09-1.69-7.07-.74-.91,3.75-9.71,4.25-7.71-.91-1.34-2.71,1.48-4.43,3.76-2.94l2.71-2.3c1.29-2.05,2.73-3.27,4.3-3.66l2.86-2.39c.87-4.4,2.59-6,5.15-4.8,1.56-3.42,4.49-6.28,8.79-8.56l6.24-5.54-18.59-8.07-3.5-3.74c-3.19,1.58-5.88-3.9-3.24-6.79.77-.85,5.23-1.48,5.17.76.75-1.61,2.31-2.64,4.69-3.11.8-7.07,3.28-8.68,10.37-7.82,9.62,4.16,19.29,2.04,28.8-2.09l-23.28-7.12c-2.08-1.2-2.51-2.14-.39-3.58.83-.34,2.13-.78,2.87-1.23l8.86-2.88,53.05-4.97c-4.33-3.75-7.52-7.74-9.59-11.95l.9-1.19,8.06-2,6.9.22,33.33,11.27c-1.14-5.03-2.67-9.96-4.59-14.79l1.25-2.57c.35-.36.65-.77.92-1.19h5Z"/>
        <path class="cls-3" d="M275,0l24.09,3.94c-3.17-.44-5.89.58-8.74,2.47l-16.28,10.78c-2.19,1.45-4.9,2.81-7.59,1.07l-23.4-15.22c-1.38-.89-2.54-1.45-2.08-3.04h34Z"/>
        <path class="cls-45" d="M304,4.77c-2.94,6.07-5.76,12.39-8.46,18.95,14.78-3.69,29.42-7.35,44.46-9.51,1.4.41,2.74,1.01,3.88,1.92l.43.68c-3.98,6.12-7.73,12.24-11.26,18.34l47.01-3.24c1.45.87,3.14,1.5,3.93,3.1l.72,1.16c-5.78,5.66-11.53,11.38-17.25,17.15-.36.61-.27,1.16-.05,1.78.84,2.39,29.65,11.51,34.18,12.9l.56,1.11c2.67.18,3.04.66,1.69,2.96l-21.13,7.98c-3.95,1.59-4.05,3.25-.32,4.98l21.61,9.07c2.28.72,3.54,2.05,3.8,4-6.27,2.37-12.29,5.15-18.05,8.36l-2.73.31c5.8,8.05,11.64,16.06,17.53,24.04-1.68,1.86-8.48,2.24-8.71-.84l-2.27-.12c-7.91-4.31-15.32-9.42-22.23-15.34l7.79,13.1-1.04,1.68c.8-.12,1.98-.3,2.3.23,1.42,2.41,7.77,16.38,6.8,17.98-1.52,2.5-5.46.37-7.41-.98l-22.09-17.52c-.7,5.44-1.32,11.04-1.85,16.82-.72,2.48-1.76,2.92-3.93,1.29-5.26-8.46-10.91-16.63-16.97-24.49.92,1.73-7.14,4.97-7.6,4.84l-2.44-2.51-1.44-.08c-2.84-6.01-6.31-11.6-10.4-16.77l.03-1.24c-41-48.27-123.84-56.09-162.35.55,0,0-5.34,8.53-16.03,25.59-2.17,1.36-7.42,16.51-9.11,19.67-1.59,2.75-5.81,4.46-8.64,6.5-1.08-3.21,11.03-29.52,5.26-27.75-8.41,2.58-14.66,11.88-19.24,11.88l23.76-43.74-18.16.85,32.12-27.65c1.18-1.02-1.82-3.48-3-3.76-5.64-1.37-11.87-4.63-17.53-7.16-2.14-.96-4.53-.91-4.96-3.74,17.7-6.07,37.38-7.15,54.01-15.61-3.45-5.08-18.5-5.92-23.04-10.27,19.41-2.78,37.75-3.89,56.78-5.5,9.16-.77-7.88-12.35-8.19-17.03,3.1.22,54,16.44,48.75,16.83,4.2-.31-3.75-17.46-3.51-21.2,7.22,1.49,27.01,19.64,31.92,16.42l27.15-17.82c1.27.21,3.6.83,4.91.83Z"/>
        <path class="cls-82" d="M345.18,16.27l1.22,2.63c-5.24,6.95-5.37,8.34-.39,4.19,3.36-1.69,6.79-1.01,10.28,2.04,2.29-.83,4.48-1.22,6.57-1.19,5.73,2.45,11.69,4.69,17.2,7.97,0,.43.02,1-.2,1.37-.3.52-.96.45-1.85.52l-43.91,3.37c-1.12.09-2.63-.23-2.89-.81s-.36-2.22.23-3.04l12.44-17.2,1.3.14Z"/>
        <path class="cls-80" d="M304,4.77c2.61-.01,4.75,1.06,7.22,1.51,3.21,2.82,6.6,5.44,10.15,7.84,5.56-1.2,11.1-1.32,16.63-.35.62.26,1.36.25,2,.44l-26.41,7.17-18.42,4.49c-.63.15-1.06,1.14-1.61.84-.69-.38-.96-1.61-.51-2.62l7.06-15.96c.87-1.97,2.03-3.28,3.9-3.36Z"/>
        <path class="cls-86" d="M362.86,23.94c-2.26,2-5.05,4.39-8.49,2.59-1.51-.79-2.49-2.44-3.93-2.51-5.1-.25-7.36,5.88-11.46,3.24,1.5-4.67,5.39-6.97,6.2-10.98,6.48.71,11.9,5.2,17.68,7.67Z"/>
        <path class="cls-93" d="M338,13.77l-16.82,2.5c-4.83-2.52-8.59-5.27-9.96-9.99,9.11,1.66,18.23,3.93,26.78,7.49Z"/>
        <path class="cls-32" d="M190.13,9.06c2.3,4.95,7.96,8.14,12.21,14.51-8.14,1.8-16.06,1.63-24.39,2.45l-41.03,4.03c16.15-9.9,34.82-16.43,53.22-20.99Z"/>
        <path class="cls-48" d="M235.08,1.19c2.06,6.43,4.92,12.51,5.95,20.35l-42.84-14.48c12.02-2.98,24.49-5.61,36.89-5.87Z"/>
        <path class="cls-29" d="M126.15,159.89l-5.15,24.11c-.28.87-.62.86-1,0-.44-2.98-.15-6.21.87-9.67l-.77.25c-3.11-1.4-5.73-3.96-6.14-7.42,2.54-3.49,5.73-6.8,9.59-9.4,1.5,2.86-1.61,4.35-.04,6.29,1.64-1.7.84-3.9,2.65-4.15Z"/>
        <path class="cls-100" d="M387.92,174.96c-.29,1.23.04,2.7.04,3.96.36,4.39.71,8.75,1.04,13.08.41,9.35-.32,18.6-.91,27.91-1.31,7.13-2.67,13.35-5.63,20.45-6.84,16.37-18.37,35.8-28.05,50.8-3.11,4.82-10.67,14.93-9.32,3.69.46-2.47.19-5.38.8-7.77l-.36-4.21c3.39-50.71,3.77-102.97-18.41-150.67l.1-2.59-.22-2.54c3.04-1.06,5.94-1.88,8.71-2.45,5.26,11.41,10.01,23.15,14.26,35.2-1.07-6.5.62-9.67,5.06-9.52l2-13.32c1.01-1.62,2.46-1.57,4.16-.88,0,0,7.69,8.11,23.06,24.34,3.78-.02,5.91,2.05,3.14,4.48-.1,3.44.07,6.79.52,10.04Z"/>
        <path class="cls-71" d="M388.17,231.89c-1.86,5.27-2.26,10.66-.94,16.1-.28,1.59-.08,3.28-.22,4.88-1.14,3.14-1.73,6.64-1.77,10.48-2.17,17.32-6.72,33.78-13.66,49.36-7.01,5.28-14.47,10.04-22.37,14.28-3.27.69-5.99,3.83-10.28,2.82,1.22-1.75,1.3-3.82.86-5.58,2.55-9.69,3.48-19.63,5.29-29.39.48,1.32-.57,2.63,1.05,4.49.75-2.93,2.83-4.01,4.26-5.97,7.28-9.95,12.71-20.61,18.64-31.44,6.72-12.29,13.39-24.04,17.26-37.72.46-1.61.01-4.13,1.79-4.31-.25,3.88.04,8.05.09,11.98Z"/>
        <path class="cls-2" d="M349.22,327.01c4.74-3.79,10.38-7.39,15.9-10.64,5.52-3.25,7.98-6.7,9.66-13,.83-3.11,2.46-6.27,3.32-9.78l3.27-13.35,2.16-11.85c.77-4.23,2.17-7.89,1.4-12.45-.22-1.33,1.06-3.22,2.08-3.06-1.62,19.68-6.1,39.12-12.87,58.1-1.29,3.63-5.35,5.02-8.16,6.8l-8.61,5.48c-3.1,1.97-5.13,3.11-8.15,3.74Z"/>
        <path class="cls-2" d="M387.23,248c-3.68-4.63-2.92-11.72.94-16.1.07,5.37,0,10.77-.94,16.1Z"/>
        <path class="cls-2" d="M389,192c-.78.08-1.02-.91-1.02-1.95l-.02-11.13c1.6-1.95.97,11.57,1.04,13.08Z"/>
        <path class="cls-67" d="M395.85,129.98c-3.77,3.63-9.46-4.87-17.75-.69,1.17,2.61-10.91-16.11-9.54-17.31.41-.36,1.35-1.48,2.25-.69,8.04,7.11,16.68,12.71,25.04,18.68Z"/>
        <path class="cls-2" d="M120,184l-2,13c-2.83,1.96,2-22.07,2.1-22.43.33-1.13.71-2.52,1.81-3.67-.37,4.86-1.27,8.92-1.91,13.09Z"/>
        <g>
          <path class="cls-22" d="M123.07,265.04c2.53-1.2,2.97.26.83,1.95,2.98,5.76,6.11,11.43,9.38,17l-.42,1.86c.97,1.4-.18,2.23-3.45,2.49-.01,7.01,1.17,13.95,3.54,20.83,1.72.74,4.22,4.94,3.84,6.77l.83,1.63c3.25,2.09,3.06,4.14-.55,6.17.54,3.91,1.51,7.73,2.9,11.45,3.11-1.06,4.21,4.02,1.84,5.76l1.03,3.86c.23.87-1.37,1.04-1.87,1.15l-.79-1.13c1.79-1.93-.33-3.64-1.47-5.44-5.11-8.07-4.49-17.72-6.71-26.46-.62-2.44-7.08-12.92-6.91-26.82.02-1.54,1.14-4.24.55-5.92-3.27-9.14-7.18-18.06-7.57-28.12l-.55-14.01c-.23-5.9,1.54-11.85,0-17.67-1.07-4.05-1.7-7.73-1.65-11.56.02-1.76.05-5.11-1.19-6.57,1.82-.83,1.88-3.05,3.31-4.25.33,6.17.66,12.47.98,18.9,2.2,8.03,2.95,15.85,2.25,23.46-2.63,6.97-1.58,17.6,1.84,24.68Z"/>
          <path class="cls-104" d="M344.06,286.25c-1.78,25.36-8.77,50.15-18.24,74.33l-6.99,17.83c-1.93,4.93-3.55,7.74-8.94,9.78l-45.11,17.07c2.4-4.64,5.34-8.21,8.12-11.52.89-1.44.26-1.67-1.89-.7-4.7,4.38-8.38,11.3-14.14,14.72-5.56,3.3-37.89,16.4-42.76,14.48-5.27,1.12-11.53-1.26-14.15-6.25-7.51-4.14-13.45-10.26-18.78-16.9-1.37-1.89-1.36-3.1.03-3.6,17.48,6.75,34.28,5.69,48.16-7.7l1.79.24c-1.07,4.25,11.82,1.54,15.63-.14,9.73-4.29,17.85-10.2,24.92-18.16,21.72-24.45,25.71-40.9,36.21-69.81,1.61-.65,1.73-.2.35,1.35l.76,1.44c-1.17,7.47-.87,9.56.91,6.29.61,4.15-.39,8.38-.88,12.97l-3.19,29.98c3.66-2.03,5.28-5.53,7.38-8.75,14.99-22.9,21.6-45.14,26.79-72.17,2.42-12.59,2.82-25.17,5.93-37.03.64.45,1.14.9,1.15,1.36.22,16.08.16,33.74-2.43,49.05l-.65,1.83Z"/>
          <path class="cls-14" d="M231.84,387.05c-.31.21-.37.74-.66.97-15.52,13.07-26.22,16.9-47.51,9.39-.99-.35-1.96-.35-2.26.3-.2.43-.13.98-.21,1.37-1.7-2.12-3.78-3.22-3.08-6.86,8.16,4.34,18.35,6.49,27.6,5.66,19.17-1.72,25.43-18.69,26.12-10.83Z"/>
          <path class="cls-78" d="M168.95,369.82c-.67-1.01-2.98-.77-3.83-1.59-.59-.57-.86-1.32-1.55-1.27-1.05.08-2.3-.11-2.56.97-.35,1.44.11,2.87-.08,4.17-.97-2.4-3.89-4.44-3.63-7.85l3.79.53c-.91-1.16-1.86-1.77-2.16-2.96,3.41,2.51,8.11,3.67,11.64,6.67.17.63-1.06,1.2-1.61,1.34Z"/>
          <path class="cls-5" d="M272.92,393.74c.32-.66-.12-.82-.47-.81-.66.02-1.09,0-1.42.11,3.38-3.15,4.77-8.1,8.71-11.17.62,6.04-4,8.51-6.82,11.87Z"/>
          <path class="cls-105" d="M174.7,270.04c3.15-4.23,4.93-8.71,4.52-14.1,1.97-5.36,3.75,5.1,3.94,7.23.35,4.04-.48,14.31-4,15.78-14.41,34.99-44.92,15.44-55.25-11.97l-.83-1.95c-3.05-7.12-3.42-15.45-1.46-24.33,4.85,13.74,16.14,34.23,32.06,36.4,9,1.22,15.82-1.45,21.02-7.06Z"/>
          <path class="cls-23" d="M179.16,278.95c.75.56,1.38,1.3,1.17,2.12-1.51,5.85-5.62,13.39-9.67,16.07l.37,1.7c-3.93,2.76-15.5,7.02-22.14,4.09-.04-.76-.04-1.36.1-1.39,3.37-.82,5.95,2.35.19.16-5.68-2.16-12.83-9.6-16.68-14.38-.19-.23.03-.8.37-1.46-3.75-5.91-6.26-12.55-8.96-18.86,5.74,9.2,11.55,18.63,21.03,24.86,6.49,4.27,14.92,5.66,21.15,1.44,10.18-6.9,7.03-7.85,13.08-14.33Z"/>
          <path class="cls-85" d="M179.87,245.87c1,3.89.79,7.34-.64,10.36.14,4.66-.89,9.68-4.4,12.95l-14.08-.21c-4.09-.06-6.09-5.82-9.84-7.08-1.74-1.38-3.28-4.29-1.27-5.73-1.11-6.61-.74-12.87,1.1-18.8,1.72-2.22,3.41-3,5.06-2.36,4.18-3.27,9.79-2.34,14.13-.16,5.43,2.72,7.12,6.77,9.93,11.04Z"/>
          <path class="cls-10" d="M309.99,308c0,.32.05.69-.02.99-2.21,9.31-3.04,18.73-7.04,28.05-2.68,6.23-3.69,13.58-9.79,18.45,2.71-10.8,8.39-19.57,10.26-30.36,1.44-8.29,4.08-15.95,4.89-23.87-.07-.88.04-2.01.68-2.61,2.67-2.49,1.74,7.96,1.02,9.34Z"/>
          <path class="cls-55" d="M125.29,242.08c.47.11.88.65,1.12.36.29-.35.76-1.3.81-1.53,1.41,6.21,4.49,11.62,6.86,18.19-5.15-4.85-6.63-11.06-8.79-17.02Z"/>
          <g>
            <path class="cls-25" d="M308.01,102.95c7.32,6.31,11.9,14.82,16.24,23.31,16.57,32.45,22.68,69.54,22.9,105.65l-1.14,2.09c-1.59,37.37-9.24,69.97-26.64,103.18-1.43,2.73-9.7,17.84-13.75,15.93-.86-.41-1.29-1.4-1.61-2.26,1.73-13.92,3.72-27.87,5.96-41.86-.84-.26-.8-.59.02-.99.76-4.11.83-8.15.22-12.13l1.96-1.87c.66-3.65.8-10.38-2.3-4.8,1.72,1.9.83,9.6-1.93,10.71-4.67,31.91-33.65,87.13-67.98,91.9-3.86.54-12.34,1.52-8.78-3.78-.51-.82-.29-1.14.66-.97l-.26-2.3c5.62-4.87,9.82-11.18,13.75-17.44,1.36-.07,2.58-.85,3.67-2.33l.03-2.49c8.69-16.55,15.75-33.94,19.25-52.38l1.63-1.97c.43-2.65.71-5.41-.63-7.86l2.56-18.32,2.11-2.99c-1.48-3.17-1.94-6.79-1.36-10.86l-1.56,1.79c-.94,42.79-22.41,97.84-63.64,116.84-15.37,7.08-23.48,4.53-35.73-5.79-2.9-2.45-9.66-8.61-9.02-12.29.16-.94,1.44-.99,2.48-.43,1.14-1.61,4.2-.37,3.83,1.59,2.28-1.23,5.13-1.85,8.53-1.87l9.86-1.79c1.13,1.11,2.7,1.35,4.71.75l.61-1.89c11.52-6.64,20.83-16.55,25.95-28.67l1.28-.26c.56-1.59.38-2.8-.55-3.63,2.57-6.25,4.64-11.18,9.5-15.53l-.94-1.88c.62-2.77,4.96-24.81,3.64-24.82-.51,0-1.02.29-1.53.68-3.55,25.57-20.84,62.24-49.25,66.49-16.62,2.49-31.3-6.92-38.4-21.58-1.23-2.55-5.24-11.8-1.27-10.56.47-.29.95-.53,1.45-.59.61-.08,9.09,6.06,10.08,6.91.28.24.31.78.27,1.4,6.87.85,13.84.86,20.89.03.7,1.63,1.82,1.32,3.26.84l.45-1.5c22.59-14.85,30.39-43.96,26.48-69.47l1.03-.86c-2.69-7.67-3.16-.03-2,4,.82.33.82.67,0,1,1.49,17.33-9.82,43.66-23.5,54.49-17.36,13.74-39.98,4.39-46.4-15.57-2.6-1.43-4.89-16.53-3.49-17.97.72-.74,1.82-.83,2.79-.73,4.7,5.97,10.13,10.73,16.31,14.26l.17,1.45c6.19-.22,13.58-1.92,19.76-4.96l2.38.88-.08-1.42c10.95-11.98,15.46-31.59,9.24-46.68l-.32-4.87-2.35.05c-3.51-7.28-11.55-13.68-19.7-9.89l-2.02-1.03c-1.61,1.51-2.84,1.67-3.26-.57-3.56,6.47-4.51,13.78-2.86,21.95-1.61,3.57-5.17-1.55-4.91-4.62-1.31-.75-1.87-.33-1.74,1.16,3.28,2.36,5.91,5.34,7.88,8.96,2.74-3.08,8.24,4.26,9.84,7.08.85.09.81.43.02.97,4.47,1.24,4.37,1.68.2,3.52-3.13,1.38-6.78,1.43-10.03.51-1.54,1.72-5.83-1.57-7.23-3.13-10.35-11.51-15.83-28.04-16.85-43.4-.03-.43.33-.88.79-1.35-1.02-8.79-3.37-1.7-1.75,4,1.91,2.37,3.03,8.23,1.32,10.83.33,3.56-.02,4.66-1.93,1.17-4.29-1.33-4-6.99-3.62-11.09-4.06-15.25-4.47-31.82-.67-46.99.26-4.07.84-8.25,1.76-12.54l-.95-.82c.58-3.95,2.03-7.53,4.34-10.75,1.73-8.11,5.43-16.23,8.93-23.8,11.15-30.08,37.28-59.52,69.74-65.96,36.68-7.28,78.82,3.51,103.18,32.82Z"/>
            <g>
              <path class="cls-90" d="M313.11,106.87l-.59.65-4.51-4.58c-5.16-3.97-9.66-8.6-15.24-12.86-17.43-13.31-38.77-20.98-60.64-20.64l-11.15.17c-21.92.34-41.05,8.46-56.46,24.02-12.32,12.43-22.17,26.78-29.43,42.45.04-1.04-.05-2.08-.36-3.07,8.97-22.47,25.78-42.62,46.89-55.53,11.05-6.76,22.54-9.14,35.09-10.07,8.17-.61,16.04-.99,24.3.4,4.44.75,9.09.27,13.33,2.02,5.91,2.44,12.46,2.85,18.11,5.8l9.94,5.2c12.28,6.43,22.77,15.23,30.71,26.03Z"/>
              <path class="cls-23" d="M273.95,278.96c-.13,9.81-2.48,19.83-4.04,29.18l-1.17-.39c-4.11,17.87-10.37,40.76-20.45,56.22-3.32,5.09-3.1,1.91-.37.34.17-.1.59.23,1.07.68-3.36,6.13-11.15,17.93-17.15,22.07l-1.42-.3c-6.8,5.98-15.12,12.14-24.56,12.7-7,.42-17.9-.97-24.27-3.4-1.79-.68-3.13-1.88-3.48-3.83-7.99-4.25-13.96-12.13-17.2-20.14-2.34-4.15-1.49-8.49,3.4-6.1,1.29.63,1.91.93.81,2.24-4.4.98,10.95,14.18,13.47,15.9,7.85,5.31,14.89,5.63,23,2.75,9.48-3.37,17.06-7.97,24.27-15.06,9.49-9.33,18.29-18.55,24.3-30.64,10.61-21.36,17.55-43.49,19.41-67.4.12-1.49.57-3.33,1.45-3.87l1.38.59c-.38,3.62.14,6.45,1.54,8.48Z"/>
              <path class="cls-104" d="M228.85,316.93c-.39,1.7-1.24,2.16-2.07,3.97l-6.89,15.19-1.7,1.15c-1.96,7.93-20.98,28.7-28.48,28.94-1.1.04,2.34-1.91,2.34.72-1.75.99-21.7,5.05-23.1,2.91-1.28-2.51-3.96-4-8.03-4.47.17-1.25-.49-2.43-1.99-3.54-7.49-5.52-11.95-13.32-17.1-20.87-.94-1.51-.74-4.24-1.84-5.76l-2.32-7.62c-3.04-7.09,4.98-8.14,3.44-2.31-4.17,1.02,8.04,16.79,9.67,18.88,12.58,16.12,35.26,13.91,46.85,3.38,3.96-3.6,8.72-6.34,11.94-10.84,7.96-11.14,17.09-32.8,20.46-45.78.9.59,1.71,1.4,1.63,2.42-.57,7.61-2.5,20-6.22,26.41-.15.26,1.53-5.6,3.42-2.8Z"/>
              <path class="cls-46" d="M313.11,106.87c5.76,4.43,7.92,12.01,11.81,18.09.84,1.31,1.59,3.23,2.31,4.65,10.07,19.74,14.88,41.38,18.61,63.65,2.1,12.55,2.96,44.94,2.24,57.77s.76,24.59-2.19,36.05c-.04-1.05.58-2.37-.4-3.09-.78,1.38-.77,2.04-1.42,2.25l.59-8.37c1.27-17.98,1.12-27.03,1.35-43.88.59-43.12-10.59-96.72-37.99-131.05l5.1,3.93Z"/>
              <path class="cls-62" d="M125.29,242.08c1.45,1.31,2.09.92,1.93-1.17-.8-3.51-1.36-7.28-1.32-10.83-1.58-5.49.69-14.08,1.75-4,2.63,18.7,4.94,28.08,17.13,42.95,1.97,2.41,3.83,3.69,6.16,4.93,3.59,1.8,17.11-.7,9.83-4.03-.09-.32-.09-.65-.02-.97.11-.77.32-1.86.91-1.99,2.58-.54,12.39-.6,13.17,2.2l-.14.87c1.29,3.31-3.1,5.56-5.87,6.91-20.89,10.17-38.75-10.48-46.08-28.1l-.15,6.22c1.25,3.79,1.41,7.11.48,9.97-3.52-1.28-6.01-29.21-1.58-33.17-3.81-11.36-3.75-22.53-3.49-33.87,0-.32-.05-.69,0-1-.38-4.01-.02-9.94,2-13h1c-1.17,5.48-1.1,11.94-1.86,17.89-1.38,10.92,2.73,30.73,6.14,40.19Z"/>
              <path class="cls-31" d="M177.04,333.83c-5.66,2.93-12.39,1.75-18.97,1.35-2.75-.16-3.56-1.64-5.17-2.22-.64-1.99,2.67-.59,2.51-.62-3.37-.65-16.55-9.77-16.43-11.2.37-1.42-.36-3.16-2.18-5.21-1.93-1.96-2.53-4.55-3.84-6.77-.82-1.72-.77-2.81.15-3.25,3.79,8.25,9.37,14.69,18.2,17.91,7.47,2.73,15.1,3.4,21.89-.52,9.5-5.48,15.31-13.19,19.51-22.92,3.38-7.83,11.92-25.18,10.3-33.4.63-.23,1.13-.39,1.2-.27,3.44,5.47-1.74,30.17-4.15,36.5-3.66,9.64-14.79,27.49-25.03,30.34-.14.04,1.93-1.75,2.02.26Z"/>
              <path class="cls-15" d="M132.87,285.85c6.36,5.73,10.5,13.37,20.94,16.19-1.91.93-3.41.45-4.92.88-11.87-5.24-8.43-6.91-17.54-14.86-1.64,6.53.82,12.03,1.77,17.86.17,1.03-.41,2.21-.15,3.25-4.53-7.67-5.54-17.08-5.57-26.22,2.35.72,2.04,2.31,2.95,3.18.74.71,1.74.76,2.53-.28Z"/>
              <path class="cls-39" d="M152.9,332.96c-4.54-1.61-7.89-4.9-11.8-7.71-.63-.45-.69-1.49-1.17-1.77-5.17-3.07,1.4,10.42.05,11.7-2.82-3.88-3.47-9.12-4.43-14.45,1.7-1.01,2.62.92,3.99-.61-1.78-1.57-3.2-2.47-2.75-4.17,6.01,6.1,10.97,12.93,19.95,16.1-1.18,1.44-2.57.88-3.85.93Z"/>
              <path class="cls-70" d="M312.18,294c-1.59-.11-2.03-1.42-1.3-3.92l-1-.87,2.08-19.17c1.79-16.46-4.76-55.45-9.31-73.57-4.78-19-17.88-46.78-32.64-60.32.96-6.93,16.88,16.88,17.22,17.46,6.18,10.78,11.79,21.47,15.43,33.47,10.75,35.39,12.34,58.03,10.83,94.65-.18,4.33-.11,8.68-1.32,12.27Z"/>
              <path class="cls-27" d="M273.95,278.96c-.49.15-.8.79-2.15,1.05-.95-3.51-.48-6.83-.77-10.12-.2-2.28.8-4.5.75-7.19-.55-30.95-7.8-65.33-27.38-90.12-6.11-7.73-13.22-12.78-20.98-19.5,9.95,2.07,15.78,10.05,21.76,16.8,16.72,18.87,26.35,50.25,28.26,75.03.9,11.69.66,22.96.51,34.05Z"/>
              <path class="cls-62" d="M228.85,316.93c-1.72.29-1.91,2.34-3.98,3.14,2.46-9.48,4.97-20.51,5.16-29.16,1.14-4.39,1.1-8.99,1.2-13.9.35-17.89-3.11-34.72-10.02-51.02-3.81-8.98-9.48-15.67-15.52-23.95,7.76,3.62,11.59,10.92,15.32,17.97,10.74,20.32,13.89,42.92,12.97,65.98-.43,10.91-2.83,20.88-5.13,30.95Z"/>
              <path class="cls-83" d="M127.65,226.08c-.19-1.34-.64-2.82-1.3-4.1-.59,3.37-.42,5.68-.45,8.1-4.66-15.98.84-44.47,6.16-62.08,3.45-11.44,14.56-33.25,22.75-41.28,2.52-2.47,3.76-6.79,8.56-6.54-6.32,8.05-12.78,14.98-17.47,23.81-3.47,6.52-7.2,12.28-9.69,19.41-5.91,16.94-8.94,34.48-9.23,52.57-.06,3.61,1.73,6.93.67,10.11Z"/>
              <path class="cls-35" d="M205,262c-.17,4.27.85,8.09,1.15,12.7,1.36,20.94-9.6,49.02-29.1,59.13-.93-.09-2.16.57-2.94-.6,19.47-12.01,28.97-33.53,29.32-55.62.06-3.69,2.07-7.91-.42-10.61-.06-.31-.04-.68,0-1-1.53-5.24-.07-12.51,2-4Z"/>
              <path class="cls-12" d="M183.05,110.91c-2.23.93-3.18.66-2.85-.81,20.15-11.73,50.81-7.18,70.07,5.57,1.25.82,2.12,3.04.8,3.49-20.17-12.94-46.61-17.99-68.02-8.24Z"/>
              <path class="cls-47" d="M171.02,298.84c-5.69.26,4.48-4.96,8.13-19.89l2.49-10.15c1.09-4.45-.01-8.6-1.38-13.25-.31,7.14-2.04,10.68-5.56,14.49l.14-.87c6.87-9.85.77-12.04,5.03-23.3,8.26,12.54,4.94,43.29-8.85,52.97Z"/>
              <path class="cls-33" d="M269.91,308.14c-3.23,20.66-10.98,38.7-20.92,56.84l-3.28,1.89,11.27-24.22c4.06-8.72,10.07-31.06,11.76-41.32,1.57,2.27,1.45,4.98,1.16,6.82Z"/>
              <path class="cls-53" d="M219.89,336.09c-1.52,3.36-2.76,7.23-5.26,10.78-5.95,8.44-13.87,15.1-22.58,20.03-1.09-.19-2.31.02-3.73-.46,2.48-2.74,6.04-3.77,9.18-6.04,9.69-7,16.38-16.47,21.69-27.61,1.4.98-.03,2.43.7,3.3Z"/>
              <path class="cls-50" d="M155.81,235c-1.45,1.13-2.62,4.28-5.4,4.42-1.71,9.52.6,14.61.51,22.46-4.13-1.39-5.96-5.03-7.88-8.96.49-.1,1.15,1.17,1.53.97.56-.3.24-1.95.21-2.13.95,1.63,2.19,2.76,3.94,4.94l-.26-12.31c-.16-7.45,5.48-21.42,10.11-17.49-.13,1.24-5.85,6.66-3.86,7.82.32.19.71.31,1.11.27Z"/>
              <path class="cls-99" d="M162.96,198.51l-10.35,9.76c-1.45-3.27,2.02-4.82,3.75-6.92,8.47-10.25,22.23-13.91,34.49-8.19,1.66,1.12.83,2.3-.95,2.07-9.23-3.69-19.4-3.83-26.95,3.28Z"/>
              <path class="cls-52" d="M191.8,234.22c-5.17,2.62-5.67-12.94-24.32-13.78,6.66-6.32,22.52,6.88,24.32,13.78Z"/>
              <path class="cls-79" d="M203.98,148.12c-8.15-2.62-15.81-.89-24.42,1.88-.04-6.36,28.56-8.49,24.42-1.88Z"/>
              <path class="cls-31" d="M205,262c-.95-.76-.77-2.07-1.7-3.02-.78,3.01-.05,4.95-.3,7.02-2.26-5.54-.71-12.04-5.11-21.16.41-1.67,1.28-1.6,2.3-.15,2.92,5.17,5.05,11.51,4.81,17.31Z"/>
              <path class="cls-94" d="M312.18,294c.2,4.65-.39,9.73-2.19,14l-.04-7.71c-1,.08-1.29.6-1.66.98-.3-.41-.27-.89-.35-1.35-.64-3.62,1.56-7.24,1.93-10.71.92-.38,1.51-1.25,2-2.2l.29,6.99Z"/>
              <path class="cls-21" d="M150.94,273.96c4.04.27,8.01.3,12.1-2.35-.61-.79-1.59-1.07-2.27-1.68,1.58.35,3.32-.47,5.5,1.45-4.67,3.15-10.49,5.15-15.34,2.58Z"/>
              <path class="cls-59" d="M180.2,110.09c.87.5,1.87.65,2.85.81-2,.91-4.04,3.39-5.96,1.05.29-1.21,2.32-1.66,3.1-1.87Z"/>
              <g>
                <path class="cls-40" d="M144.78,251.76c1.69,3.69.61,4.47-1.74,1.16-4.61-9.4-8.23-19.19-8.29-30.46-.13-23.62,5.93-48,23.42-66.27-.09,5.4-4.57,8.92-7.13,13.03-6.56,10.54-10.26,21.56-12.07,33.93-1.02,6.99-2.94,26.78.68,31.93,1.13-3.9,2.44-17.12,7.3-15.75-4.01,9.41-7.22,23.71-2.16,32.43Z"/>
                <path class="cls-61" d="M140.54,243.97c-.58-1.18-1.43-2.43-1.66-3.53-.33-1.54.37-2.74,1.98-3.49.15,2.33.53,3.69-.31,7.02Z"/>
              </g>
            </g>
          </g>
        </g>
      </g>
    </g>
  </g>
</svg>