<?xml version="1.0" encoding="UTF-8"?>
<svg id="Layer_1" data-name="Layer 1" xmlns="http://www.w3.org/2000/svg" viewBox="0 0 230.74 145.25">
  <defs>
    <style>
      .cls-1 {
        fill: #ba4d56;
      }

      .cls-1, .cls-2 {
        stroke: #2f303b;
        stroke-miterlimit: 10;
      }

      .cls-2 {
        fill: #fff;
      }
    </style>
  </defs>
  <path class="cls-2" d="M48.98,115.1C16.9,117.97,2.31,88.19.51,63.05c-.11-1.58.84-3.21,1.64-3.89.9-.76,2.57-.78,4.07-.3l15.67,5.01c19.21,5.16,15.88-16.23,42.74-14.4.05-12.74,6.92-23.72,18.52-29.66,8.83-4.52,18.51-6.16,28.84-3.9,14.89-19.16,44.6-19.54,63.88-6.18,7.77,5.39,12.74,12.7,15.36,21.56,15.64,2.14,28.27,11.27,34.43,25.08,6.7,15.03,6.04,32.04-1.86,46.47-8.93,16.31-27.19,24.28-46.37,19.88-4.41,10.73-13.98,17.81-25.81,20.67-15.32,3.71-31.14-.19-41.37-11.56-11.58,7.93-25.9,10.41-39.32,6.14-10.99-3.5-19.09-11.37-21.95-22.88Z"/>
  <path class="cls-1" d="M94.56,103.74c.76-8.18-4.49-14.47-12.04-17.52-9.34-3.78-18.71-2.46-26.35,3.9-5.14,4.28-7.11,11.13-8.77,17.23-23.75,4.58-36.67-21.37-39.4-40.31,44.35,16.8,28.24-19.5,64.82-8.6-1.78-9.48-.9-18.45,5.2-25.61,7.23-8.49,19.25-12.31,30.19-10.3-2.69,9.93-2.02,19.22,4.04,27.04,5.17,6.67,14.59,11.68,24.62,10.87s18.03-8.21,19.84-17.31c1.32-6.65-2.6-15.74-7.66-13.5-5.67,2.51,2.01,7,.13,12.97-1.76,5.57-6.76,10.55-13.43,10.78s-13.62-2.83-17.38-8.03c-8.44-11.69-3.77-27.09,9.51-33.64,13.1-6.46,28.95-5.21,41.48,2.24,9.09,5.4,14.16,13.9,15.68,23.93,14.12.18,26.33,6.89,32.59,18.83,7.54,14.39,6.95,31.41-1.82,45.22-8.47,13.34-26.13,18.89-40.7,12.34-5.11-2.29-8.44-7.01-9.77-10.59-2.19-5.86.02-11.62,3.26-16.05,7.63-10.42,16.8.21,19.7-5.51.95-1.88.26-4.29-2.06-5.33-9.01-4.02-18.47-.98-24.2,6.33-9.81,12.54-6.54,28.94,7.97,37.17-4.92,15.1-25.69,20.33-40.8,15.68-8.62-2.66-14.33-8.71-17.77-15.83-10.15,13.72-30.65,16.82-44.93,7.98-9.97-6.17-13.42-18.06-8.4-27.71,4.18-8.03,13.3-10.63,21.51-7.01,11.57,5.11,2.96,13.12,9.77,14.28,3.09.53,4.89-1.24,5.14-3.96Z"/>
</svg>